<svg xmlns="http://www.w3.org/2000/svg" aria-roledescription="er" role="graphics-document document" viewBox="0 0 703.781005859375 640" height="640" width="703.781005859375" id="container">
  <style>#container{font-family:"trebuchet ms",verdana,arial,sans-serif;font-size:16px;fill:#333;}#container .error-icon{fill:#552222;}#container .error-text{fill:#552222;stroke:#552222;}#container .edge-thickness-normal{stroke-width:1px;}#container .edge-thickness-thick{stroke-width:3.5px;}#container .edge-pattern-solid{stroke-dasharray:0;}#container .edge-thickness-invisible{stroke-width:0;fill:none;}#container .edge-pattern-dashed{stroke-dasharray:3;}#container .edge-pattern-dotted{stroke-dasharray:2;}#container .marker{fill:#333333;stroke:#333333;}#container .marker.cross{stroke:#333333;}#container svg{font-family:"trebuchet ms",verdana,arial,sans-serif;font-size:16px;}#container p{margin:0;}#container .entityBox{fill:#ECECFF;stroke:#9370DB;}#container .attributeBoxOdd{fill:#ffffff;stroke:#9370DB;}#container .attributeBoxEven{fill:#f2f2f2;stroke:#9370DB;}#container .relationshipLabelBox{fill:hsl(80, 100%, 96.2745098039%);opacity:0.7;background-color:hsl(80, 100%, 96.2745098039%);}#container .relationshipLabelBox rect{opacity:0.5;}#container .relationshipLine{stroke:#333333;}#container .entityTitleText{text-anchor:middle;font-size:18px;fill:#333;}#container #MD_PARENT_START{fill:#f5f5f5!important;stroke:#333333!important;stroke-width:1;}#container #MD_PARENT_END{fill:#f5f5f5!important;stroke:#333333!important;stroke-width:1;}#container :root{--mermaid-font-family:"trebuchet ms",verdana,arial,sans-serif;}</style>
  <g/>
  <defs>
    <marker orient="auto" markerHeight="240" markerWidth="190" refY="7" refX="0" id="MD_PARENT_START">
      <path d="M 18,7 L9,13 L1,7 L9,1 Z"/>
    </marker>
  </defs>
  <defs>
    <marker orient="auto" markerHeight="28" markerWidth="20" refY="7" refX="19" id="MD_PARENT_END">
      <path d="M 18,7 L9,13 L1,7 L9,1 Z"/>
    </marker>
  </defs>
  <defs>
    <marker orient="auto" markerHeight="18" markerWidth="18" refY="9" refX="0" id="ONLY_ONE_START">
      <path d="M9,0 L9,18 M15,0 L15,18" fill="none" stroke="gray"/>
    </marker>
  </defs>
  <defs>
    <marker orient="auto" markerHeight="18" markerWidth="18" refY="9" refX="18" id="ONLY_ONE_END">
      <path d="M3,0 L3,18 M9,0 L9,18" fill="none" stroke="gray"/>
    </marker>
  </defs>
  <defs>
    <marker orient="auto" markerHeight="18" markerWidth="30" refY="9" refX="0" id="ZERO_OR_ONE_START">
      <circle r="6" cy="9" cx="21" fill="white" stroke="gray"/>
      <path d="M9,0 L9,18" fill="none" stroke="gray"/>
    </marker>
  </defs>
  <defs>
    <marker orient="auto" markerHeight="18" markerWidth="30" refY="9" refX="30" id="ZERO_OR_ONE_END">
      <circle r="6" cy="9" cx="9" fill="white" stroke="gray"/>
      <path d="M21,0 L21,18" fill="none" stroke="gray"/>
    </marker>
  </defs>
  <defs>
    <marker orient="auto" markerHeight="36" markerWidth="45" refY="18" refX="18" id="ONE_OR_MORE_START">
      <path d="M0,18 Q 18,0 36,18 Q 18,36 0,18 M42,9 L42,27" fill="none" stroke="gray"/>
    </marker>
  </defs>
  <defs>
    <marker orient="auto" markerHeight="36" markerWidth="45" refY="18" refX="27" id="ONE_OR_MORE_END">
      <path d="M3,9 L3,27 M9,18 Q27,0 45,18 Q27,36 9,18" fill="none" stroke="gray"/>
    </marker>
  </defs>
  <defs>
    <marker orient="auto" markerHeight="36" markerWidth="57" refY="18" refX="18" id="ZERO_OR_MORE_START">
      <circle r="6" cy="18" cx="48" fill="white" stroke="gray"/>
      <path d="M0,18 Q18,0 36,18 Q18,36 0,18" fill="none" stroke="gray"/>
    </marker>
  </defs>
  <defs>
    <marker orient="auto" markerHeight="36" markerWidth="57" refY="18" refX="39" id="ZERO_OR_MORE_END">
      <circle r="6" cy="18" cx="9" fill="white" stroke="gray"/>
      <path d="M21,18 Q39,0 57,18 Q39,36 21,18" fill="none" stroke="gray"/>
    </marker>
  </defs>
  <path style="stroke: gray; fill: none;" marker-start="url(#ONLY_ONE_START)" marker-end="url(#ZERO_OR_ONE_END)" d="M194.67,270L187.855,278.333C181.04,286.667,167.411,303.333,153.273,320C139.135,336.667,124.49,353.333,117.167,361.667L109.844,370" class="er relationshipLine"/>
  <path style="stroke: gray; fill: none;" marker-start="url(#ONLY_ONE_START)" marker-end="url(#ZERO_OR_ONE_END)" d="M275.336,220.189L292.385,215.99C309.435,211.792,343.534,203.396,364.846,199.198C386.158,195,394.682,195,403.207,201.25C411.732,207.5,420.257,220,420.257,232.5C420.257,245,411.732,257.5,403.207,263.75C394.682,270,386.158,270,364.846,265.802C343.534,261.604,309.435,253.208,292.385,249.01L275.336,244.811" class="er relationshipLine"/>
  <path style="stroke: gray; fill: none;" marker-start="url(#ONLY_ONE_START)" marker-end="url(#ZERO_OR_ONE_END)" d="M237.527,270L240.236,278.333C242.945,286.667,248.363,303.333,267.998,321.439C287.633,339.544,321.484,359.088,338.41,368.86L355.336,378.633" class="er relationshipLine"/>
  <path style="stroke: gray; fill: none;" marker-start="url(#ONLY_ONE_START)" marker-end="url(#ZERO_OR_MORE_END)" d="M275.336,257.017L296.743,267.514C318.151,278.012,360.966,299.006,407.633,320.469C454.299,341.931,504.818,363.862,530.077,374.828L555.336,385.794" class="er relationshipLine"/>
  <path style="stroke: gray; fill: none;" marker-start="url(#ONLY_ONE_START)" marker-end="url(#ZERO_OR_MORE_END)" d="M605.336,445L605.336,453.333C605.336,461.667,605.336,478.333,605.336,495C605.336,511.667,605.336,528.333,605.336,536.667L605.336,545" class="er relationshipLine"/>
  <path style="stroke: gray; fill: none;" marker-start="url(#ONLY_ONE_START)" marker-end="url(#ZERO_OR_ONE_END)" d="M327.813,72.187L281.566,84.322C235.32,96.458,142.828,120.729,96.582,147.448C50.336,174.167,50.336,203.333,50.336,232.5C50.336,261.667,50.336,290.833,52.865,313.75C55.394,336.667,60.452,353.333,62.981,361.667L65.51,370" class="er relationshipLine"/>
  <path style="stroke: gray; fill: none;" marker-start="url(#ONLY_ONE_START)" marker-end="url(#ZERO_OR_ONE_END)" d="M327.813,88.408L310.733,97.84C293.654,107.272,259.495,126.136,242.415,143.901C225.336,161.667,225.336,178.333,225.336,186.667L225.336,195" class="er relationshipLine"/>
  <path style="stroke: gray; fill: none;" marker-start="url(#ONLY_ONE_START)" marker-end="url(#ZERO_OR_ONE_END)" d="M439.75,90.148L455.422,99.29C471.094,108.432,502.438,126.716,518.109,150.441C533.781,174.167,533.781,203.333,533.781,232.5C533.781,261.667,533.781,290.833,520.707,314.323C507.633,337.813,481.484,355.626,468.41,364.532L455.336,373.439" class="er relationshipLine"/>
  <path style="stroke: gray; fill: none;" marker-start="url(#ONLY_ONE_START)" marker-end="url(#ZERO_OR_MORE_END)" d="M439.75,73.824L480.422,85.687C521.094,97.549,602.438,121.275,643.109,147.721C683.781,174.167,683.781,203.333,683.781,232.5C683.781,261.667,683.781,290.833,676.31,313.75C668.839,336.667,653.897,353.333,646.426,361.667L638.955,370" class="er relationshipLine"/>
  <g transform="translate(20,370 )" id="entity-CardinalityType-796d1111-9b0e-5cfa-a954-3577abec4acc">
    <rect height="75" width="113.78125" y="0" x="0" class="er entityBox"/>
    <text style="dominant-baseline: middle; text-anchor: middle; font-size: 12px;" transform="translate(56.890625,37.5)" y="0" x="0" id="text-entity-CardinalityType-796d1111-9b0e-5cfa-a954-3577abec4acc" class="er entityLabel">CardinalityType</text>
  </g>
  <g transform="translate(175.3359375,195 )" id="entity-Datatype-eedb5402-d0cc-52bf-9fb8-7b914f648cbe">
    <rect height="75" width="100" y="0" x="0" class="er entityBox"/>
    <text style="dominant-baseline: middle; text-anchor: middle; font-size: 12px;" transform="translate(50,37.5)" y="0" x="0" id="text-entity-Datatype-eedb5402-d0cc-52bf-9fb8-7b914f648cbe" class="er entityLabel">Datatype</text>
  </g>
  <g transform="translate(355.3359375,370 )" id="entity-OrderedType-842b5e5e-013e-581b-9bf8-11371587b713">
    <rect height="75" width="100" y="0" x="0" class="er entityBox"/>
    <text style="dominant-baseline: middle; text-anchor: middle; font-size: 12px;" transform="translate(50,37.5)" y="0" x="0" id="text-entity-OrderedType-842b5e5e-013e-581b-9bf8-11371587b713" class="er entityLabel">OrderedType</text>
  </g>
  <g transform="translate(555.3359375,370 )" id="entity-Rule-886caf8e-59ff-5db3-a492-27242971196f">
    <rect height="75" width="100" y="0" x="0" class="er entityBox"/>
    <text style="dominant-baseline: middle; text-anchor: middle; font-size: 12px;" transform="translate(50,37.5)" y="0" x="0" id="text-entity-Rule-886caf8e-59ff-5db3-a492-27242971196f" class="er entityLabel">Rule</text>
  </g>
  <g transform="translate(327.8125,20 )" id="entity-ScalarDatatype-99a09826-db07-59f0-9440-e83c0c041ccd">
    <rect height="75" width="111.9375" y="0" x="0" class="er entityBox"/>
    <text style="dominant-baseline: middle; text-anchor: middle; font-size: 12px;" transform="translate(55.96875,37.5)" y="0" x="0" id="text-entity-ScalarDatatype-99a09826-db07-59f0-9440-e83c0c041ccd" class="er entityLabel">ScalarDatatype</text>
  </g>
  <g transform="translate(555.3359375,545 )" id="entity-RuleType-d54df1a6-a17d-5920-9344-6f805c739e55">
    <rect height="75" width="100" y="0" x="0" class="er entityBox"/>
    <text style="dominant-baseline: middle; text-anchor: middle; font-size: 12px;" transform="translate(50,37.5)" y="0" x="0" id="text-entity-RuleType-d54df1a6-a17d-5920-9344-6f805c739e55" class="er entityLabel">RuleType</text>
  </g>
  <rect height="14" width="57.58836364746094" y="313.50067138671875" x="124.05316925048828" class="er relationshipLabelBox"/>
  <text style="text-anchor: middle; dominant-baseline: middle; font-size: 12px;" y="320.50067138671875" x="152.84735107421875" id="rel1" class="er relationshipLabel">cardinality</text>
  <rect height="14" width="28.404144287109375" y="225.5" x="406.05491638183594" class="er relationshipLabelBox"/>
  <text style="text-anchor: middle; dominant-baseline: middle; font-size: 12px;" y="232.5" x="420.2569885253906" id="rel2" class="er relationshipLabel">basis</text>
  <rect height="14" width="68.28125" y="328.2327880859375" x="250.92767333984375" class="er relationshipLabelBox"/>
  <text style="text-anchor: middle; dominant-baseline: middle; font-size: 12px;" y="335.2327880859375" x="285.06829833984375" id="rel3" class="er relationshipLabel">orderedType</text>
  <rect height="14" width="43.296875" y="316.5481262207031" x="392.7005920410156" class="er relationshipLabelBox"/>
  <text style="text-anchor: middle; dominant-baseline: middle; font-size: 12px;" y="323.5481262207031" x="414.3490295410156" id="rel4" class="er relationshipLabel">hasRule</text>
  <rect height="14" width="46.921875" y="488" x="581.8750610351562" class="er relationshipLabelBox"/>
  <text style="text-anchor: middle; dominant-baseline: middle; font-size: 12px;" y="495" x="605.3359985351562" id="rel5" class="er relationshipLabel">ruleType</text>
  <rect height="14" width="57.58836364746094" y="140.10679626464844" x="68.38129425048828" class="er relationshipLabelBox"/>
  <text style="text-anchor: middle; dominant-baseline: middle; font-size: 12px;" y="147.10679626464844" x="97.17547607421875" id="rel6" class="er relationshipLabel">cardinality</text>
  <rect height="14" width="103.84375" y="121.89639282226562" x="208.18218994140625" class="er relationshipLabelBox"/>
  <text style="text-anchor: middle; dominant-baseline: middle; font-size: 12px;" y="128.89639282226562" x="260.10406494140625" id="rel7" class="er relationshipLabel">basis, rdfsDatatype</text>
  <rect height="14" width="68.28125" y="219.59779357910156" x="499.63507080078125" class="er relationshipLabelBox"/>
  <text style="text-anchor: middle; dominant-baseline: middle; font-size: 12px;" y="226.59779357910156" x="533.7756958007812" id="rel8" class="er relationshipLabel">orderedType</text>
  <rect height="14" width="43.296875" y="150.44140625" x="634.5169067382812" class="er relationshipLabelBox"/>
  <text style="text-anchor: middle; dominant-baseline: middle; font-size: 12px;" y="157.44140625" x="656.1653442382812" id="rel9" class="er relationshipLabel">hasRule</text>
</svg>
