<svg xmlns="http://www.w3.org/2000/svg" aria-roledescription="er" role="graphics-document document" viewBox="0 0 3688.435546875 1340" height="1340" width="3688.435546875" id="container">
  <style>#container{font-family:"trebuchet ms",verdana,arial,sans-serif;font-size:16px;fill:#333;}#container .error-icon{fill:#552222;}#container .error-text{fill:#552222;stroke:#552222;}#container .edge-thickness-normal{stroke-width:1px;}#container .edge-thickness-thick{stroke-width:3.5px;}#container .edge-pattern-solid{stroke-dasharray:0;}#container .edge-thickness-invisible{stroke-width:0;fill:none;}#container .edge-pattern-dashed{stroke-dasharray:3;}#container .edge-pattern-dotted{stroke-dasharray:2;}#container .marker{fill:#333333;stroke:#333333;}#container .marker.cross{stroke:#333333;}#container svg{font-family:"trebuchet ms",verdana,arial,sans-serif;font-size:16px;}#container p{margin:0;}#container .entityBox{fill:#ECECFF;stroke:#9370DB;}#container .attributeBoxOdd{fill:#ffffff;stroke:#9370DB;}#container .attributeBoxEven{fill:#f2f2f2;stroke:#9370DB;}#container .relationshipLabelBox{fill:hsl(80, 100%, 96.2745098039%);opacity:0.7;background-color:hsl(80, 100%, 96.2745098039%);}#container .relationshipLabelBox rect{opacity:0.5;}#container .relationshipLine{stroke:#333333;}#container .entityTitleText{text-anchor:middle;font-size:18px;fill:#333;}#container #MD_PARENT_START{fill:#f5f5f5!important;stroke:#333333!important;stroke-width:1;}#container #MD_PARENT_END{fill:#f5f5f5!important;stroke:#333333!important;stroke-width:1;}#container :root{--mermaid-font-family:"trebuchet ms",verdana,arial,sans-serif;}</style>
  <g/>
  <defs>
    <marker orient="auto" markerHeight="240" markerWidth="190" refY="7" refX="0" id="MD_PARENT_START">
      <path d="M 18,7 L9,13 L1,7 L9,1 Z"/>
    </marker>
  </defs>
  <defs>
    <marker orient="auto" markerHeight="28" markerWidth="20" refY="7" refX="19" id="MD_PARENT_END">
      <path d="M 18,7 L9,13 L1,7 L9,1 Z"/>
    </marker>
  </defs>
  <defs>
    <marker orient="auto" markerHeight="18" markerWidth="18" refY="9" refX="0" id="ONLY_ONE_START">
      <path d="M9,0 L9,18 M15,0 L15,18" fill="none" stroke="gray"/>
    </marker>
  </defs>
  <defs>
    <marker orient="auto" markerHeight="18" markerWidth="18" refY="9" refX="18" id="ONLY_ONE_END">
      <path d="M3,0 L3,18 M9,0 L9,18" fill="none" stroke="gray"/>
    </marker>
  </defs>
  <defs>
    <marker orient="auto" markerHeight="18" markerWidth="30" refY="9" refX="0" id="ZERO_OR_ONE_START">
      <circle r="6" cy="9" cx="21" fill="white" stroke="gray"/>
      <path d="M9,0 L9,18" fill="none" stroke="gray"/>
    </marker>
  </defs>
  <defs>
    <marker orient="auto" markerHeight="18" markerWidth="30" refY="9" refX="30" id="ZERO_OR_ONE_END">
      <circle r="6" cy="9" cx="9" fill="white" stroke="gray"/>
      <path d="M21,0 L21,18" fill="none" stroke="gray"/>
    </marker>
  </defs>
  <defs>
    <marker orient="auto" markerHeight="36" markerWidth="45" refY="18" refX="18" id="ONE_OR_MORE_START">
      <path d="M0,18 Q 18,0 36,18 Q 18,36 0,18 M42,9 L42,27" fill="none" stroke="gray"/>
    </marker>
  </defs>
  <defs>
    <marker orient="auto" markerHeight="36" markerWidth="45" refY="18" refX="27" id="ONE_OR_MORE_END">
      <path d="M3,9 L3,27 M9,18 Q27,0 45,18 Q27,36 9,18" fill="none" stroke="gray"/>
    </marker>
  </defs>
  <defs>
    <marker orient="auto" markerHeight="36" markerWidth="57" refY="18" refX="18" id="ZERO_OR_MORE_START">
      <circle r="6" cy="18" cx="48" fill="white" stroke="gray"/>
      <path d="M0,18 Q18,0 36,18 Q18,36 0,18" fill="none" stroke="gray"/>
    </marker>
  </defs>
  <defs>
    <marker orient="auto" markerHeight="36" markerWidth="57" refY="18" refX="39" id="ZERO_OR_MORE_END">
      <circle r="6" cy="18" cx="9" fill="white" stroke="gray"/>
      <path d="M21,18 Q39,0 57,18 Q39,36 21,18" fill="none" stroke="gray"/>
    </marker>
  </defs>
  <path style="stroke: gray; fill: none;" marker-start="url(#ONLY_ONE_START)" marker-end="url(#ZERO_OR_ONE_END)" d="M736.502,59.584L1117.44,73.82C1498.377,88.056,2260.252,116.528,2641.19,139.097C3022.127,161.667,3022.127,178.333,3022.127,186.667L3022.127,195" class="er relationshipLine"/>
  <path style="stroke: gray; fill: none;" marker-start="url(#ONLY_ONE_START)" marker-end="url(#ZERO_OR_MORE_END)" d="M736.502,92.537L750.419,101.281C764.335,110.024,792.167,127.512,806.084,150.839C820,174.167,820,203.333,820,232.5C820,261.667,820,290.833,820,320C820,349.167,820,378.333,820,407.5C820,436.667,820,465.833,820,495C820,524.167,820,553.333,820,582.5C820,611.667,820,640.833,820,670C820,699.167,820,728.333,820,757.5C820,786.667,820,815.833,878.556,843.183C937.112,870.533,1054.223,896.066,1112.779,908.832L1171.335,921.599" class="er relationshipLine"/>
  <path style="stroke: gray; fill: none;" marker-start="url(#ONLY_ONE_START)" marker-end="url(#ZERO_OR_MORE_END)" d="M697.566,95L701.305,103.333C705.044,111.667,712.522,128.333,716.261,151.25C720,174.167,720,203.333,720,232.5C720,261.667,720,290.833,1115.968,319.695C1511.935,348.557,2303.871,377.115,2699.838,391.393L3095.806,405.672" class="er relationshipLine"/>
  <path style="stroke: gray; fill: none;" marker-start="url(#ONLY_ONE_START)" marker-end="url(#ZERO_OR_MORE_END)" d="M654.709,95L648.924,103.333C643.139,111.667,631.57,128.333,625.785,151.25C620,174.167,620,203.333,620,232.5C620,261.667,620,290.833,620,320C620,349.167,620,378.333,620,407.5C620,436.667,620,465.833,620,495C620,524.167,620,553.333,620,582.5C620,611.667,620,640.833,772.461,669.174C924.921,697.515,1229.842,725.03,1382.303,738.787L1534.764,752.544" class="er relationshipLine"/>
  <path style="stroke: gray; fill: none;" marker-start="url(#ONLY_ONE_START)" marker-end="url(#ZERO_OR_MORE_END)" d="M624.978,87.855L607.482,97.379C589.985,106.903,554.993,125.952,537.496,150.059C520,174.167,520,203.333,520,232.5C520,261.667,520,290.833,520,320C520,349.167,520,378.333,520,407.5C520,436.667,520,465.833,520,495C520,524.167,520,553.333,520,582.5C520,611.667,520,640.833,620,668.878C720,696.923,920,723.846,1020,737.308L1120,750.769" class="er relationshipLine"/>
  <path style="stroke: gray; fill: none;" marker-start="url(#ONLY_ONE_START)" marker-end="url(#ZERO_OR_MORE_END)" d="M624.978,76.213L590.815,87.677C556.652,99.142,488.326,122.071,454.163,148.119C420,174.167,420,203.333,420,232.5C420,261.667,420,290.833,420,320C420,349.167,420,378.333,420,407.5C420,436.667,420,465.833,704.315,494.585C988.631,523.336,1557.261,551.672,1841.576,565.84L2125.892,580.008" class="er relationshipLine"/>
  <path style="stroke: gray; fill: none;" marker-start="url(#ONLY_ONE_START)" marker-end="url(#ZERO_OR_MORE_END)" d="M624.978,71.026L574.148,83.355C523.319,95.684,421.659,120.342,370.83,147.254C320,174.167,320,203.333,320,232.5C320,261.667,320,290.833,320,320C320,349.167,320,378.333,320,407.5C320,436.667,320,465.833,320,495C320,524.167,320,553.333,320,582.5C320,611.667,320,640.833,420,668.878C520,696.923,720,723.846,820,737.308L920,750.769" class="er relationshipLine"/>
  <path style="stroke: gray; fill: none;" marker-start="url(#ONLY_ONE_START)" marker-end="url(#ZERO_OR_ONE_END)" d="M1693.556,947.731L1742.173,959.776C1790.791,971.821,1888.027,995.91,1936.645,1022.539C1985.263,1049.167,1985.263,1078.333,1985.263,1107.5C1985.263,1136.667,1985.263,1165.833,1948.757,1192.173C1912.251,1218.513,1839.24,1242.025,1802.734,1253.782L1766.228,1265.538" class="er relationshipLine"/>
  <path style="stroke: gray; fill: none;" marker-start="url(#ONLY_ONE_START)" marker-end="url(#ZERO_OR_ONE_END)" d="M1632.075,970L1632.075,978.333C1632.075,986.667,1632.075,1003.333,1632.075,1026.25C1632.075,1049.167,1632.075,1078.333,1632.075,1107.5C1632.075,1136.667,1632.075,1165.833,1616.001,1190.021C1599.926,1214.209,1567.778,1233.417,1551.703,1243.021L1535.629,1252.626" class="er relationshipLine"/>
  <path style="stroke: gray; fill: none;" marker-start="url(#ONLY_ONE_START)" marker-end="url(#ZERO_OR_MORE_END)" d="M1693.556,920.495L1715.317,916.246C1737.079,911.997,1780.602,903.498,1807.803,899.249C1835.005,895,1845.886,895,1856.767,901.25C1867.648,907.5,1878.528,920,1878.528,932.5C1878.528,945,1867.648,957.5,1856.767,963.75C1845.886,970,1835.005,970,1807.803,965.751C1780.602,961.502,1737.079,953.003,1715.317,948.754L1693.556,944.505" class="er relationshipLine"/>
  <path style="stroke: gray; fill: none;" marker-start="url(#ONLY_ONE_START)" marker-end="url(#ZERO_OR_MORE_END)" d="M1693.556,927.835L1875.507,914.029C2057.458,900.223,2421.36,872.612,2603.312,844.223C2785.263,815.833,2785.263,786.667,2785.263,757.5C2785.263,728.333,2785.263,699.167,2785.263,670C2785.263,640.833,2785.263,611.667,2785.263,582.5C2785.263,553.333,2785.263,524.167,2837.02,497.047C2888.777,469.927,2992.292,444.853,3044.049,432.316L3095.806,419.78" class="er relationshipLine"/>
  <path style="stroke: gray; fill: none;" marker-start="url(#ONLY_ONE_START)" marker-end="url(#ZERO_OR_MORE_END)" d="M1693.556,926.856L1842.173,913.214C1990.791,899.571,2288.027,872.285,2436.645,844.059C2585.263,815.833,2585.263,786.667,2585.263,757.5C2585.263,728.333,2585.263,699.167,2585.263,670C2585.263,640.833,2585.263,611.667,2585.263,582.5C2585.263,553.333,2585.263,524.167,2585.263,495C2585.263,465.833,2585.263,436.667,2585.263,407.5C2585.263,378.333,2585.263,349.167,2641.891,323.241C2698.519,297.316,2811.775,274.632,2868.402,263.29L2925.03,251.948" class="er relationshipLine"/>
  <path style="stroke: gray; fill: none;" marker-start="url(#ONLY_ONE_START)" marker-end="url(#ZERO_OR_MORE_END)" d="M1570.595,965.967L1554.052,974.973C1537.508,983.978,1504.422,1001.989,1535.236,1023.279C1566.051,1044.568,1660.766,1069.136,1708.124,1081.42L1755.482,1093.704" class="er relationshipLine"/>
  <path style="stroke: gray; fill: none;" marker-start="url(#ONLY_ONE_START)" marker-end="url(#ZERO_OR_MORE_END)" d="M1570.595,903.361L1550.072,893.634C1529.55,883.907,1488.504,864.454,1482.533,845.775C1476.561,827.096,1505.662,809.192,1520.213,800.24L1534.764,791.287" class="er relationshipLine"/>
  <path style="stroke: gray; fill: none;" marker-start="url(#ONLY_ONE_START)" marker-end="url(#ZERO_OR_MORE_END)" d="M1570.595,915.262L1528.829,903.552C1487.063,891.841,1403.532,868.421,1361.766,842.127C1320,815.833,1320,786.667,1320,757.5C1320,728.333,1320,699.167,1454.315,670.852C1588.631,642.537,1857.261,615.074,1991.576,601.343L2125.892,587.612" class="er relationshipLine"/>
  <path style="stroke: gray; fill: none;" marker-start="url(#ONLY_ONE_START)" marker-end="url(#ZERO_OR_MORE_END)" d="M1271.335,922.055L1292.92,917.546C1314.504,913.036,1357.673,904.018,1384.653,899.509C1411.634,895,1422.426,895,1433.218,901.25C1444.011,907.5,1454.803,920,1454.803,932.5C1454.803,945,1444.011,957.5,1433.218,963.75C1422.426,970,1411.634,970,1384.653,965.491C1357.673,960.982,1314.504,951.964,1292.92,947.454L1271.335,942.945" class="er relationshipLine"/>
  <path style="stroke: gray; fill: none;" marker-start="url(#ONLY_ONE_START)" marker-end="url(#ZERO_OR_MORE_END)" d="M1221.335,970L1221.335,978.333C1221.335,986.667,1221.335,1003.333,1221.335,1020C1221.335,1036.667,1221.335,1053.333,1221.335,1061.667L1221.335,1070" class="er relationshipLine"/>
  <path style="stroke: gray; fill: none;" marker-start="url(#ONLY_ONE_START)" marker-end="url(#ZERO_OR_ONE_END)" d="M120,436.667L136.667,446.389C153.333,456.111,186.667,475.556,203.333,499.861C220,524.167,220,553.333,220,582.5C220,611.667,220,640.833,220,670C220,699.167,220,728.333,220,757.5C220,786.667,220,815.833,220,845C220,874.167,220,903.333,220,932.5C220,961.667,220,990.833,220,1020C220,1049.167,220,1078.333,220,1107.5C220,1136.667,220,1165.833,460.148,1194.486C700.296,1223.138,1180.592,1251.276,1420.74,1265.345L1660.888,1279.414" class="er relationshipLine"/>
  <path style="stroke: gray; fill: none;" marker-start="url(#ONLY_ONE_START)" marker-end="url(#ZERO_OR_ONE_END)" d="M91.429,445L96.19,453.333C100.952,461.667,110.476,478.333,115.238,501.25C120,524.167,120,553.333,120,582.5C120,611.667,120,640.833,120,670C120,699.167,120,728.333,120,757.5C120,786.667,120,815.833,120,845C120,874.167,120,903.333,120,932.5C120,961.667,120,990.833,120,1020C120,1049.167,120,1078.333,120,1107.5C120,1136.667,120,1165.833,339.271,1194.466C558.543,1223.099,997.086,1251.198,1216.357,1265.247L1435.629,1279.296" class="er relationshipLine"/>
  <path style="stroke: gray; fill: none;" marker-start="url(#ONLY_ONE_START)" marker-end="url(#ZERO_OR_ONE_END)" d="M48.571,445L43.81,453.333C39.048,461.667,29.524,478.333,375.744,500.912C721.964,523.49,1423.928,551.98,1774.91,566.226L2125.892,580.471" class="er relationshipLine"/>
  <path style="stroke: gray; fill: none;" marker-start="url(#ONLY_ONE_START)" marker-end="url(#ZERO_OR_ONE_END)" d="M3197.197,427.665L3225.411,438.887C3253.625,450.11,3310.054,472.555,3338.268,492.111C3366.482,511.667,3366.482,528.333,3366.482,536.667L3366.482,545" class="er relationshipLine"/>
  <path style="stroke: gray; fill: none;" marker-start="url(#ONLY_ONE_START)" marker-end="url(#ZERO_OR_MORE_END)" d="M3197.197,397.744L3221.223,393.12C3245.25,388.496,3293.303,379.248,3323.336,374.624C3353.369,370,3365.382,370,3377.396,376.25C3389.409,382.5,3401.422,395,3401.422,407.5C3401.422,420,3389.409,432.5,3377.396,438.75C3365.382,445,3353.369,445,3323.336,440.376C3293.303,435.752,3245.25,426.504,3221.223,421.88L3197.197,417.256" class="er relationshipLine"/>
  <path style="stroke: gray; fill: none;" marker-start="url(#ONLY_ONE_START)" marker-end="url(#ZERO_OR_MORE_END)" d="M3125.073,370L3120.311,361.667C3115.549,353.333,3106.025,336.667,3094.18,320C3082.335,303.333,3068.168,286.667,3061.085,278.333L3054.002,270" class="er relationshipLine"/>
  <path style="stroke: gray; fill: none;" marker-start="url(#ONLY_ONE_START)" marker-end="url(#ZERO_OR_MORE_END)" d="M3120.256,445L3114.424,453.333C3108.592,461.667,3096.927,478.333,3091.095,495C3085.263,511.667,3085.263,528.333,3085.263,536.667L3085.263,545" class="er relationshipLine"/>
  <path style="stroke: gray; fill: none;" marker-start="url(#ONLY_ONE_START)" marker-end="url(#ZERO_OR_MORE_END)" d="M3095.806,435.011L3077.382,445.009C3058.958,455.007,3022.111,475.004,2877.125,498.684C2732.139,522.365,2479.015,549.73,2352.454,563.412L2225.892,577.095" class="er relationshipLine"/>
  <path style="stroke: gray; fill: none;" marker-start="url(#ONLY_ONE_START)" marker-end="url(#ZERO_OR_MORE_END)" d="M3119.223,245.645L3210.759,258.038C3302.294,270.43,3485.365,295.215,3498.36,320.774C3511.356,346.334,3354.276,372.667,3275.737,385.834L3197.197,399.001" class="er relationshipLine"/>
  <path style="stroke: gray; fill: none;" marker-start="url(#ONLY_ONE_START)" marker-end="url(#ZERO_OR_MORE_END)" d="M3119.223,248.052L3194.092,260.043C3268.961,272.034,3418.698,296.017,3498.329,316.342C3577.959,336.667,3587.483,353.333,3592.245,361.667L3597.007,370" class="er relationshipLine"/>
  <path style="stroke: gray; fill: none;" marker-start="url(#ONLY_ONE_START)" marker-end="url(#ZERO_OR_ONE_END)" d="M1830.098,1145L1834.859,1153.333C1839.621,1161.667,1849.145,1178.333,1838.5,1195.957C1827.855,1213.58,1797.042,1232.16,1781.635,1241.45L1766.228,1250.741" class="er relationshipLine"/>
  <path style="stroke: gray; fill: none;" marker-start="url(#ONLY_ONE_START)" marker-end="url(#ZERO_OR_ONE_END)" d="M1787.24,1145L1782.479,1153.333C1777.717,1161.667,1768.193,1178.333,1726.258,1198.579C1684.322,1218.826,1609.976,1242.651,1572.802,1254.564L1535.629,1266.477" class="er relationshipLine"/>
  <path style="stroke: gray; fill: none;" marker-start="url(#ONLY_ONE_START)" marker-end="url(#ZERO_OR_ONE_END)" d="M1861.857,1090.674L1899.091,1078.895C1936.325,1067.116,2010.794,1043.558,2048.028,1017.196C2085.263,990.833,2085.263,961.667,2085.263,932.5C2085.263,903.333,2085.263,874.167,2085.263,845C2085.263,815.833,2085.263,786.667,2085.263,757.5C2085.263,728.333,2085.263,699.167,2093.894,676.25C2102.525,653.333,2119.788,636.667,2128.419,628.333L2137.051,620" class="er relationshipLine"/>
  <path style="stroke: gray; fill: none;" marker-start="url(#ONLY_ONE_START)" marker-end="url(#ZERO_OR_MORE_END)" d="M3618.435,445L3618.435,453.333C3618.435,461.667,3618.435,478.333,3618.435,495C3618.435,511.667,3618.435,528.333,3618.435,536.667L3618.435,545" class="er relationshipLine"/>
  <path style="stroke: gray; fill: none;" marker-start="url(#ONLY_ONE_START)" marker-end="url(#ZERO_OR_MORE_END)" d="M1644.6,779.444L1671.945,790.37C1699.29,801.296,1753.979,823.148,1762.139,843.58C1770.298,864.012,1731.927,883.025,1712.741,892.531L1693.556,902.037" class="er relationshipLine"/>
  <path style="stroke: gray; fill: none;" marker-start="url(#ONLY_ONE_START)" marker-end="url(#ZERO_OR_MORE_END)" d="M1571.586,795L1567.565,803.333C1563.544,811.667,1555.502,828.333,1505.46,849.014C1455.418,869.695,1363.376,894.39,1317.356,906.737L1271.335,919.085" class="er relationshipLine"/>
  <path style="stroke: gray; fill: none;" marker-start="url(#ONLY_ONE_START)" marker-end="url(#ZERO_OR_MORE_END)" d="M1534.764,748.253L1457.303,735.211C1379.842,722.169,1224.921,696.084,1323.443,669.118C1421.964,642.152,1773.928,614.304,1949.91,600.38L2125.892,586.456" class="er relationshipLine"/>
  <path style="stroke: gray; fill: none;" marker-start="url(#ONLY_ONE_START)" marker-end="url(#ZERO_OR_ONE_END)" d="M2225.892,573.911L2302.454,560.759C2379.015,547.607,2532.139,521.304,2608.701,493.568C2685.263,465.833,2685.263,436.667,2685.263,407.5C2685.263,378.333,2685.263,349.167,2725.224,324.203C2765.185,299.24,2845.108,278.48,2885.069,268.101L2925.03,257.721" class="er relationshipLine"/>
  <path style="stroke: gray; fill: none;" marker-start="url(#ONLY_ONE_START)" marker-end="url(#ZERO_OR_MORE_END)" d="M2225.892,596.642L2269.12,608.868C2312.349,621.094,2398.806,645.547,2442.034,672.357C2485.263,699.167,2485.263,728.333,2485.263,757.5C2485.263,786.667,2485.263,815.833,2282.941,844.423C2080.62,873.013,1675.978,901.026,1473.656,915.032L1271.335,929.039" class="er relationshipLine"/>
  <path style="stroke: gray; fill: none;" marker-start="url(#ONLY_ONE_START)" marker-end="url(#ZERO_OR_MORE_END)" d="M2225.892,576.333L2335.787,562.777C2445.682,549.222,2665.472,522.111,2810.458,496.802C2955.444,471.493,3025.625,447.987,3060.716,436.233L3095.806,424.48" class="er relationshipLine"/>
  <path style="stroke: gray; fill: none;" marker-start="url(#ONLY_ONE_START)" marker-end="url(#ZERO_OR_MORE_END)" d="M2225.892,603.396L2252.454,614.497C2279.015,625.597,2332.139,647.799,2235.257,672.476C2138.375,697.153,1891.488,724.307,1768.044,737.883L1644.6,751.46" class="er relationshipLine"/>
  <path style="stroke: gray; fill: none;" marker-start="url(#ONLY_ONE_START)" marker-end="url(#ZERO_OR_MORE_END)" d="M2222.765,620L2233.181,628.333C2243.598,636.667,2264.43,653.333,2097.303,675.596C1930.175,697.859,1575.088,725.718,1397.544,739.648L1220,753.577" class="er relationshipLine"/>
  <path style="stroke: gray; fill: none;" marker-start="url(#ONLY_ONE_START)" marker-end="url(#ZERO_OR_MORE_END)" d="M2225.892,571.656L2246.377,567.214C2266.863,562.771,2307.834,553.885,2333.441,549.443C2359.049,545,2369.291,545,2379.534,551.25C2389.777,557.5,2400.02,570,2400.02,582.5C2400.02,595,2389.777,607.5,2379.534,613.75C2369.291,620,2359.049,620,2333.441,615.557C2307.834,611.115,2266.863,602.229,2246.377,597.786L2225.892,593.344" class="er relationshipLine"/>
  <path style="stroke: gray; fill: none;" marker-start="url(#ONLY_ONE_START)" marker-end="url(#ZERO_OR_MORE_END)" d="M2179.908,620L2180.8,628.333C2181.693,636.667,2183.478,653.333,1990.16,675.65C1796.842,697.967,1408.421,725.933,1214.21,739.917L1020,753.9" class="er relationshipLine"/>
  <g transform="translate(624.9778785705566,20 )" id="entity-ContextualUnit-4d0c347e-427b-5587-9ab8-7f76b763f025">
    <rect height="75" width="111.5245361328125" y="0" x="0" class="er entityBox"/>
    <text style="dominant-baseline: middle; text-anchor: middle; font-size: 12px;" transform="translate(55.76226806640625,37.5)" y="0" x="0" id="text-entity-ContextualUnit-4d0c347e-427b-5587-9ab8-7f76b763f025" class="er entityLabel">ContextualUnit</text>
  </g>
  <g transform="translate(1570.5949745178223,895 )" id="entity-PhysicalConstant-f43f8855-cf72-5deb-8dd3-7b0283708583">
    <rect height="75" width="122.96058654785156" y="0" x="0" class="er entityBox"/>
    <text style="dominant-baseline: middle; text-anchor: middle; font-size: 12px;" transform="translate(61.48029327392578,37.5)" y="0" x="0" id="text-entity-PhysicalConstant-f43f8855-cf72-5deb-8dd3-7b0283708583" class="er entityLabel">PhysicalConstant</text>
  </g>
  <g transform="translate(1171.3351211547852,895 )" id="entity-Prefix-f6d97b99-faee-5974-b12e-390868d79e86">
    <rect height="75" width="100" y="0" x="0" class="er entityBox"/>
    <text style="dominant-baseline: middle; text-anchor: middle; font-size: 12px;" transform="translate(50,37.5)" y="0" x="0" id="text-entity-Prefix-f6d97b99-faee-5974-b12e-390868d79e86" class="er entityLabel">Prefix</text>
  </g>
  <g transform="translate(20,370 )" id="entity-Quantifiable-82d4468d-7a40-5b3c-81f8-69036607af45">
    <rect height="75" width="100" y="0" x="0" class="er entityBox"/>
    <text style="dominant-baseline: middle; text-anchor: middle; font-size: 12px;" transform="translate(50,37.5)" y="0" x="0" id="text-entity-Quantifiable-82d4468d-7a40-5b3c-81f8-69036607af45" class="er entityLabel">Quantifiable</text>
  </g>
  <g transform="translate(3095.806137084961,370 )" id="entity-QuantityKind-6f79b338-e354-5d95-8035-8883644476ff">
    <rect height="75" width="101.390625" y="0" x="0" class="er entityBox"/>
    <text style="dominant-baseline: middle; text-anchor: middle; font-size: 12px;" transform="translate(50.6953125,37.5)" y="0" x="0" id="text-entity-QuantityKind-6f79b338-e354-5d95-8035-8883644476ff" class="er entityLabel">QuantityKind</text>
  </g>
  <g transform="translate(2925.0303802490234,195 )" id="entity-QuantityKindDimensionVector-bfa1bf26-fcae-516f-8f63-2f454f3dac1b">
    <rect height="75" width="194.19308471679688" y="0" x="0" class="er entityBox"/>
    <text style="dominant-baseline: middle; text-anchor: middle; font-size: 12px;" transform="translate(97.09654235839844,37.5)" y="0" x="0" id="text-entity-QuantityKindDimensionVector-bfa1bf26-fcae-516f-8f63-2f454f3dac1b" class="er entityLabel">QuantityKindDimensionVector</text>
  </g>
  <g transform="translate(1755.481517791748,1070 )" id="entity-QuantityValue-f2bc13d2-1961-5e2a-9bfe-ab6a05a5860b">
    <rect height="75" width="106.375" y="0" x="0" class="er entityBox"/>
    <text style="dominant-baseline: middle; text-anchor: middle; font-size: 12px;" transform="translate(53.1875,37.5)" y="0" x="0" id="text-entity-QuantityValue-f2bc13d2-1961-5e2a-9bfe-ab6a05a5860b" class="er entityLabel">QuantityValue</text>
  </g>
  <g transform="translate(3568.435443878174,370 )" id="entity-Rule-886caf8e-59ff-5db3-a492-27242971196f">
    <rect height="75" width="100" y="0" x="0" class="er entityBox"/>
    <text style="dominant-baseline: middle; text-anchor: middle; font-size: 12px;" transform="translate(50,37.5)" y="0" x="0" id="text-entity-Rule-886caf8e-59ff-5db3-a492-27242971196f" class="er entityLabel">Rule</text>
  </g>
  <g transform="translate(1534.763526916504,720 )" id="entity-SystemOfUnits-f7f1da8e-a5af-50e1-94d0-c2e741f40e1d">
    <rect height="75" width="109.83651733398438" y="0" x="0" class="er entityBox"/>
    <text style="dominant-baseline: middle; text-anchor: middle; font-size: 12px;" transform="translate(54.91825866699219,37.5)" y="0" x="0" id="text-entity-SystemOfUnits-f7f1da8e-a5af-50e1-94d0-c2e741f40e1d" class="er entityLabel">SystemOfUnits</text>
  </g>
  <g transform="translate(1120,720 )" id="entity-UCUMcs-8df33f70-0c53-5f8e-a81f-0969bc803a34">
    <rect height="75" width="100" y="0" x="0" class="er entityBox"/>
    <text style="dominant-baseline: middle; text-anchor: middle; font-size: 12px;" transform="translate(50,37.5)" y="0" x="0" id="text-entity-UCUMcs-8df33f70-0c53-5f8e-a81f-0969bc803a34" class="er entityLabel">UCUMcs</text>
  </g>
  <g transform="translate(2125.891674041748,545 )" id="entity-Unit-c57ac1ea-0a24-509a-a80e-23f8c03ca739">
    <rect height="75" width="100" y="0" x="0" class="er entityBox"/>
    <text style="dominant-baseline: middle; text-anchor: middle; font-size: 12px;" transform="translate(50,37.5)" y="0" x="0" id="text-entity-Unit-c57ac1ea-0a24-509a-a80e-23f8c03ca739" class="er entityLabel">Unit</text>
  </g>
  <g transform="translate(920,720 )" id="entity-Class-d9e3eb4a-97c0-50b6-8e3f-7f4a2fa7283d">
    <rect height="75" width="100" y="0" x="0" class="er entityBox"/>
    <text style="dominant-baseline: middle; text-anchor: middle; font-size: 12px;" transform="translate(50,37.5)" y="0" x="0" id="text-entity-Class-d9e3eb4a-97c0-50b6-8e3f-7f4a2fa7283d" class="er entityLabel">__Class</text>
  </g>
  <g transform="translate(1660.8875350952148,1245 )" id="entity-DataEncoding-e949680e-a6e4-55c9-9325-aa69226f3e53">
    <rect height="75" width="105.34048461914062" y="0" x="0" class="er entityBox"/>
    <text style="dominant-baseline: middle; text-anchor: middle; font-size: 12px;" transform="translate(52.67024230957031,37.5)" y="0" x="0" id="text-entity-DataEncoding-e949680e-a6e4-55c9-9325-aa69226f3e53" class="er entityLabel">DataEncoding</text>
  </g>
  <g transform="translate(1435.62890625,1245 )" id="entity-Datatype-eedb5402-d0cc-52bf-9fb8-7b914f648cbe">
    <rect height="75" width="100" y="0" x="0" class="er entityBox"/>
    <text style="dominant-baseline: middle; text-anchor: middle; font-size: 12px;" transform="translate(50,37.5)" y="0" x="0" id="text-entity-Datatype-eedb5402-d0cc-52bf-9fb8-7b914f648cbe" class="er entityLabel">Datatype</text>
  </g>
  <g transform="translate(1169.6163711547852,1070 )" id="entity-UCUMcsterm-f108a9d5-75dc-5824-aae7-181f348ae82a">
    <rect height="75" width="103.4375" y="0" x="0" class="er entityBox"/>
    <text style="dominant-baseline: middle; text-anchor: middle; font-size: 12px;" transform="translate(51.71875,37.5)" y="0" x="0" id="text-entity-UCUMcsterm-f108a9d5-75dc-5824-aae7-181f348ae82a" class="er entityLabel">UCUMcs-term</text>
  </g>
  <g transform="translate(3264.529193878174,545 )" id="entity-QuantityKindDimensionVectorSI-2681a9c0-d385-5c75-b278-85a805bca5b5">
    <rect height="75" width="203.90625" y="0" x="0" class="er entityBox"/>
    <text style="dominant-baseline: middle; text-anchor: middle; font-size: 12px;" transform="translate(101.953125,37.5)" y="0" x="0" id="text-entity-QuantityKindDimensionVectorSI-2681a9c0-d385-5c75-b278-85a805bca5b5" class="er entityLabel">QuantityKindDimensionVectorSI</text>
  </g>
  <g transform="translate(3005.9963417053223,545 )" id="entity-SystemOfQuantityKinds-09c2a533-d4ff-5ffb-9642-53498359216a">
    <rect height="75" width="158.53285217285156" y="0" x="0" class="er entityBox"/>
    <text style="dominant-baseline: middle; text-anchor: middle; font-size: 12px;" transform="translate(79.26642608642578,37.5)" y="0" x="0" id="text-entity-SystemOfQuantityKinds-09c2a533-d4ff-5ffb-9642-53498359216a" class="er entityLabel">SystemOfQuantityKinds</text>
  </g>
  <g transform="translate(3568.435443878174,545 )" id="entity-RuleType-d54df1a6-a17d-5920-9344-6f805c739e55">
    <rect height="75" width="100" y="0" x="0" class="er entityBox"/>
    <text style="dominant-baseline: middle; text-anchor: middle; font-size: 12px;" transform="translate(50,37.5)" y="0" x="0" id="text-entity-RuleType-d54df1a6-a17d-5920-9344-6f805c739e55" class="er entityLabel">RuleType</text>
  </g>
  <rect height="14" width="304.4981689453125" y="96.65717315673828" x="1734.9086303710938" class="er relationshipLabelBox"/>
  <text style="text-anchor: middle; dominant-baseline: middle; font-size: 12px;" y="103.65717315673828" x="1887.15771484375" id="rel1" class="er relationshipLabel">hasDimensionVector, qkdvDenominator, qkdvNumerator</text>
  <rect height="14" width="30.8402099609375" y="608.0934448242188" x="804.5798950195312" class="er relationshipLabelBox"/>
  <text style="text-anchor: middle; dominant-baseline: middle; font-size: 12px;" y="615.0934448242188" x="820" id="rel2" class="er relationshipLabel">prefix</text>
  <rect height="14" width="90.4375" y="350.43115234375" x="1779.1373291015625" class="er relationshipLabelBox"/>
  <text style="text-anchor: middle; dominant-baseline: middle; font-size: 12px;" y="357.43115234375" x="1824.3560791015625" id="rel3" class="er relationshipLabel">hasQuantityKind</text>
  <rect height="14" width="597.5625" y="669.0103149414062" x="513.4009399414062" class="er relationshipLabelBox"/>
  <text style="text-anchor: middle; dominant-baseline: middle; font-size: 12px;" y="676.0103149414062" x="812.1821899414062" id="rel4" class="er relationshipLabel">applicableSystem, definedUnitOfSystem, derivedCoherentUnitOfSystem, derivedUnitOfSystem, isUnitOfSystem</text>
  <rect height="14" width="57.078125" y="624.4486694335938" x="509.18212890625" class="er relationshipLabelBox"/>
  <text style="text-anchor: middle; dominant-baseline: middle; font-size: 12px;" y="631.4486694335938" x="537.72119140625" id="rel5" class="er relationshipLabel">ucumCode</text>
  <rect height="14" width="223.1495361328125" y="513.5408325195312" x="918.4331665039062" class="er relationshipLabelBox"/>
  <text style="text-anchor: middle; dominant-baseline: middle; font-size: 12px;" y="520.5408325195312" x="1030.0079345703125" id="rel6" class="er relationshipLabel">exactMatch, hasReciprocalUnit, scalingOf</text>
  <rect height="14" width="75.63250732421875" y="540.3976440429688" x="282.1837463378906" class="er relationshipLabelBox"/>
  <text style="text-anchor: middle; dominant-baseline: middle; font-size: 12px;" y="547.3976440429688" x="320" id="rel7" class="er relationshipLabel">hasFactorUnit</text>
  <rect height="14" width="74.908447265625" y="1068.0089111328125" x="1945.2884521484375" class="er relationshipLabelBox"/>
  <text style="text-anchor: middle; dominant-baseline: middle; font-size: 12px;" y="1075.0089111328125" x="1982.74267578125" id="rel8" class="er relationshipLabel">dataEncoding</text>
  <rect height="14" width="48.328125" y="1125.7998046875" x="1607.515869140625" class="er relationshipLabelBox"/>
  <text style="text-anchor: middle; dominant-baseline: middle; font-size: 12px;" y="1132.7998046875" x="1631.679931640625" id="rel9" class="er relationshipLabel">datatype</text>
  <rect height="14" width="61.453125" y="925.5" x="1847.8013916015625" class="er relationshipLabelBox"/>
  <text style="text-anchor: middle; dominant-baseline: middle; font-size: 12px;" y="932.5" x="1878.5279541015625" id="rel10" class="er relationshipLabel">exactMatch</text>
  <rect height="14" width="90.4375" y="847.133056640625" x="2487.3232421875" class="er relationshipLabelBox"/>
  <text style="text-anchor: middle; dominant-baseline: middle; font-size: 12px;" y="854.133056640625" x="2532.5419921875" id="rel11" class="er relationshipLabel">hasQuantityKind</text>
  <rect height="14" width="111.8486328125" y="813.2329711914062" x="2473.636474609375" class="er relationshipLabelBox"/>
  <text style="text-anchor: middle; dominant-baseline: middle; font-size: 12px;" y="820.2329711914062" x="2529.560791015625" id="rel12" class="er relationshipLabel">hasDimensionVector</text>
  <rect height="14" width="75.265625" y="1044.3543701171875" x="1564.0546875" class="er relationshipLabelBox"/>
  <text style="text-anchor: middle; dominant-baseline: middle; font-size: 12px;" y="1051.3543701171875" x="1601.6875" id="rel13" class="er relationshipLabel">quantityValue</text>
  <rect height="14" width="95.78125" y="849.9415893554688" x="1441.94287109375" class="er relationshipLabelBox"/>
  <text style="text-anchor: middle; dominant-baseline: middle; font-size: 12px;" y="856.9415893554688" x="1489.83349609375" id="rel14" class="er relationshipLabel">applicableSystem</text>
  <rect height="14" width="128.1568603515625" y="647.99462890625" x="1478.8578491210938" class="er relationshipLabelBox"/>
  <text style="text-anchor: middle; dominant-baseline: middle; font-size: 12px;" y="654.99462890625" x="1542.936279296875" id="rel15" class="er relationshipLabel">applicableUnit, hasUnit</text>
  <rect height="14" width="61.453125" y="925.5" x="1424.076416015625" class="er relationshipLabelBox"/>
  <text style="text-anchor: middle; dominant-baseline: middle; font-size: 12px;" y="932.5" x="1454.802978515625" id="rel16" class="er relationshipLabel">exactMatch</text>
  <rect height="14" width="57.078125" y="1013" x="1192.7958984375" class="er relationshipLabelBox"/>
  <text style="text-anchor: middle; dominant-baseline: middle; font-size: 12px;" y="1020" x="1221.3349609375" id="rel17" class="er relationshipLabel">ucumCode</text>
  <rect height="14" width="74.908447265625" y="1198.8204345703125" x="529.762939453125" class="er relationshipLabelBox"/>
  <text style="text-anchor: middle; dominant-baseline: middle; font-size: 12px;" y="1205.8204345703125" x="567.2171630859375" id="rel18" class="er relationshipLabel">dataEncoding</text>
  <rect height="14" width="48.328125" y="1197.8624267578125" x="404.04986572265625" class="er relationshipLabelBox"/>
  <text style="text-anchor: middle; dominant-baseline: middle; font-size: 12px;" y="1204.8624267578125" x="428.21392822265625" id="rel19" class="er relationshipLabel">datatype</text>
  <rect height="14" width="42.404296875" y="529.7334594726562" x="1053.243896484375" class="er relationshipLabelBox"/>
  <text style="text-anchor: middle; dominant-baseline: middle; font-size: 12px;" y="536.7334594726562" x="1074.446044921875" id="rel20" class="er relationshipLabel">hasUnit</text>
  <rect height="14" width="119.078125" y="462.8966369628906" x="3238.605712890625" class="er relationshipLabelBox"/>
  <text style="text-anchor: middle; dominant-baseline: middle; font-size: 12px;" y="469.8966369628906" x="3298.144775390625" id="rel21" class="er relationshipLabel">dimensionVectorForSI</text>
  <rect height="14" width="61.453125" y="400.5" x="3370.695556640625" class="er relationshipLabelBox"/>
  <text style="text-anchor: middle; dominant-baseline: middle; font-size: 12px;" y="407.5" x="3401.422119140625" id="rel22" class="er relationshipLabel">exactMatch</text>
  <rect height="14" width="304.498046875" y="310.8212585449219" x="2940.3681640625" class="er relationshipLabelBox"/>
  <text style="text-anchor: middle; dominant-baseline: middle; font-size: 12px;" y="317.8212585449219" x="3092.6171875" id="rel23" class="er relationshipLabel">hasDimensionVector, qkdvDenominator, qkdvNumerator</text>
  <rect height="14" width="163.42919921875" y="484.5086364746094" x="3010.685302734375" class="er relationshipLabelBox"/>
  <text style="text-anchor: middle; dominant-baseline: middle; font-size: 12px;" y="491.5086364746094" x="3092.39990234375" id="rel24" class="er relationshipLabel">belongsToSystemOfQuantities</text>
  <rect height="14" width="675.57666015625" y="520.822509765625" x="2327.926513671875" class="er relationshipLabelBox"/>
  <text style="text-anchor: middle; dominant-baseline: middle; font-size: 12px;" y="527.822509765625" x="2665.71484375" id="rel25" class="er relationshipLabel">applicableCGSUnit, applicableISOUnit, applicableImperialUnit, applicableSIUnit, applicableUSCustomaryUnit, applicableUnit</text>
  <rect height="14" width="144.375" y="297.1536560058594" x="3395.721923828125" class="er relationshipLabelBox"/>
  <text style="text-anchor: middle; dominant-baseline: middle; font-size: 12px;" y="304.1536560058594" x="3467.909423828125" id="rel26" class="er relationshipLabel">hasReferenceQuantityKind</text>
  <rect height="14" width="43.296875" y="282.0383605957031" x="3344.94091796875" class="er relationshipLabelBox"/>
  <text style="text-anchor: middle; dominant-baseline: middle; font-size: 12px;" y="289.0383605957031" x="3366.58935546875" id="rel27" class="er relationshipLabel">hasRule</text>
  <rect height="14" width="74.908447265625" y="1202.80029296875" x="1789.1875" class="er relationshipLabelBox"/>
  <text style="text-anchor: middle; dominant-baseline: middle; font-size: 12px;" y="1209.80029296875" x="1826.6417236328125" id="rel28" class="er relationshipLabel">dataEncoding</text>
  <rect height="14" width="48.328125" y="1214.3382568359375" x="1646.8399658203125" class="er relationshipLabelBox"/>
  <text style="text-anchor: middle; dominant-baseline: middle; font-size: 12px;" y="1221.3382568359375" x="1671.0040283203125" id="rel29" class="er relationshipLabel">datatype</text>
  <rect height="14" width="42.404296875" y="910.2374267578125" x="2064.060791015625" class="er relationshipLabelBox"/>
  <text style="text-anchor: middle; dominant-baseline: middle; font-size: 12px;" y="917.2374267578125" x="2085.262939453125" id="rel30" class="er relationshipLabel">hasUnit</text>
  <rect height="14" width="46.921875" y="488" x="3594.97412109375" class="er relationshipLabelBox"/>
  <text style="text-anchor: middle; dominant-baseline: middle; font-size: 12px;" y="495" x="3618.43505859375" id="rel31" class="er relationshipLabel">ruleType</text>
  <rect height="14" width="149.9129638671875" y="821.8556518554688" x="1674.3659057617188" class="er relationshipLabelBox"/>
  <text style="text-anchor: middle; dominant-baseline: middle; font-size: 12px;" y="828.8556518554688" x="1749.3223876953125" id="rel32" class="er relationshipLabel">applicablePhysicalConstant</text>
  <rect height="14" width="30.8402099609375" y="867.507568359375" x="1416.1240844726562" class="er relationshipLabelBox"/>
  <text style="text-anchor: middle; dominant-baseline: middle; font-size: 12px;" y="874.507568359375" x="1431.544189453125" id="rel33" class="er relationshipLabel">prefix</text>
  <rect height="14" width="622.59619140625" y="625.8460693359375" x="1266.6259765625" class="er relationshipLabelBox"/>
  <text style="text-anchor: middle; dominant-baseline: middle; font-size: 12px;" y="632.8460693359375" x="1577.924072265625" id="rel34" class="er relationshipLabel">hasAllowedUnit, hasBaseUnit, hasCoherentUnit, hasDefinedUnit, hasDerivedCoherentUnit, hasDerivedUnit, hasUnit</text>
  <rect height="14" width="304.498046875" y="478.43389892578125" x="2476.690673828125" class="er relationshipLabelBox"/>
  <text style="text-anchor: middle; dominant-baseline: middle; font-size: 12px;" y="485.43389892578125" x="2628.939697265625" id="rel35" class="er relationshipLabel">hasDimensionVector, qkdvDenominator, qkdvNumerator</text>
  <rect height="14" width="30.840087890625" y="862.3040771484375" x="2045.2410888671875" class="er relationshipLabelBox"/>
  <text style="text-anchor: middle; dominant-baseline: middle; font-size: 12px;" y="869.3040771484375" x="2060.6611328125" id="rel36" class="er relationshipLabel">prefix</text>
  <rect height="14" width="90.4375" y="512.6686401367188" x="2619.399658203125" class="er relationshipLabelBox"/>
  <text style="text-anchor: middle; dominant-baseline: middle; font-size: 12px;" y="519.6686401367188" x="2664.618408203125" id="rel37" class="er relationshipLabel">hasQuantityKind</text>
  <rect height="14" width="597.5625" y="702.2177124023438" x="1713.7818603515625" class="er relationshipLabelBox"/>
  <text style="text-anchor: middle; dominant-baseline: middle; font-size: 12px;" y="709.2177124023438" x="2012.5631103515625" id="rel38" class="er relationshipLabel">applicableSystem, definedUnitOfSystem, derivedCoherentUnitOfSystem, derivedUnitOfSystem, isUnitOfSystem</text>
  <rect height="14" width="57.078125" y="704.1419677734375" x="1718.228759765625" class="er relationshipLabelBox"/>
  <text style="text-anchor: middle; dominant-baseline: middle; font-size: 12px;" y="711.1419677734375" x="1746.767822265625" id="rel39" class="er relationshipLabel">ucumCode</text>
  <rect height="14" width="223.1494140625" y="575.5" x="2288.4453125" class="er relationshipLabelBox"/>
  <text style="text-anchor: middle; dominant-baseline: middle; font-size: 12px;" y="582.5" x="2400.02001953125" id="rel40" class="er relationshipLabel">exactMatch, hasReciprocalUnit, scalingOf</text>
  <rect height="14" width="75.632568359375" y="703.2784423828125" x="1572.6092529296875" class="er relationshipLabelBox"/>
  <text style="text-anchor: middle; dominant-baseline: middle; font-size: 12px;" y="710.2784423828125" x="1610.425537109375" id="rel41" class="er relationshipLabel">hasFactorUnit</text>
</svg>
