<svg xmlns="http://www.w3.org/2000/svg" aria-roledescription="er" role="graphics-document document" viewBox="-100 0 2314.657470703125 815" height="815" width="2314.657470703125" id="container">
  <style>#container{font-family:"trebuchet ms",verdana,arial,sans-serif;font-size:16px;fill:#333;}#container .error-icon{fill:#552222;}#container .error-text{fill:#552222;stroke:#552222;}#container .edge-thickness-normal{stroke-width:1px;}#container .edge-thickness-thick{stroke-width:3.5px;}#container .edge-pattern-solid{stroke-dasharray:0;}#container .edge-thickness-invisible{stroke-width:0;fill:none;}#container .edge-pattern-dashed{stroke-dasharray:3;}#container .edge-pattern-dotted{stroke-dasharray:2;}#container .marker{fill:#333333;stroke:#333333;}#container .marker.cross{stroke:#333333;}#container svg{font-family:"trebuchet ms",verdana,arial,sans-serif;font-size:16px;}#container p{margin:0;}#container .entityBox{fill:#ECECFF;stroke:#9370DB;}#container .attributeBoxOdd{fill:#ffffff;stroke:#9370DB;}#container .attributeBoxEven{fill:#f2f2f2;stroke:#9370DB;}#container .relationshipLabelBox{fill:hsl(80, 100%, 96.2745098039%);opacity:0.7;background-color:hsl(80, 100%, 96.2745098039%);}#container .relationshipLabelBox rect{opacity:0.5;}#container .relationshipLine{stroke:#333333;}#container .entityTitleText{text-anchor:middle;font-size:18px;fill:#333;}#container #MD_PARENT_START{fill:#f5f5f5!important;stroke:#333333!important;stroke-width:1;}#container #MD_PARENT_END{fill:#f5f5f5!important;stroke:#333333!important;stroke-width:1;}#container :root{--mermaid-font-family:"trebuchet ms",verdana,arial,sans-serif;}</style>
  <g/>
  <defs>
    <marker orient="auto" markerHeight="240" markerWidth="190" refY="7" refX="0" id="MD_PARENT_START">
      <path d="M 18,7 L9,13 L1,7 L9,1 Z"/>
    </marker>
  </defs>
  <defs>
    <marker orient="auto" markerHeight="28" markerWidth="20" refY="7" refX="19" id="MD_PARENT_END">
      <path d="M 18,7 L9,13 L1,7 L9,1 Z"/>
    </marker>
  </defs>
  <defs>
    <marker orient="auto" markerHeight="18" markerWidth="18" refY="9" refX="0" id="ONLY_ONE_START">
      <path d="M9,0 L9,18 M15,0 L15,18" fill="none" stroke="gray"/>
    </marker>
  </defs>
  <defs>
    <marker orient="auto" markerHeight="18" markerWidth="18" refY="9" refX="18" id="ONLY_ONE_END">
      <path d="M3,0 L3,18 M9,0 L9,18" fill="none" stroke="gray"/>
    </marker>
  </defs>
  <defs>
    <marker orient="auto" markerHeight="18" markerWidth="30" refY="9" refX="0" id="ZERO_OR_ONE_START">
      <circle r="6" cy="9" cx="21" fill="white" stroke="gray"/>
      <path d="M9,0 L9,18" fill="none" stroke="gray"/>
    </marker>
  </defs>
  <defs>
    <marker orient="auto" markerHeight="18" markerWidth="30" refY="9" refX="30" id="ZERO_OR_ONE_END">
      <circle r="6" cy="9" cx="9" fill="white" stroke="gray"/>
      <path d="M21,0 L21,18" fill="none" stroke="gray"/>
    </marker>
  </defs>
  <defs>
    <marker orient="auto" markerHeight="36" markerWidth="45" refY="18" refX="18" id="ONE_OR_MORE_START">
      <path d="M0,18 Q 18,0 36,18 Q 18,36 0,18 M42,9 L42,27" fill="none" stroke="gray"/>
    </marker>
  </defs>
  <defs>
    <marker orient="auto" markerHeight="36" markerWidth="45" refY="18" refX="27" id="ONE_OR_MORE_END">
      <path d="M3,9 L3,27 M9,18 Q27,0 45,18 Q27,36 9,18" fill="none" stroke="gray"/>
    </marker>
  </defs>
  <defs>
    <marker orient="auto" markerHeight="36" markerWidth="57" refY="18" refX="18" id="ZERO_OR_MORE_START">
      <circle r="6" cy="18" cx="48" fill="white" stroke="gray"/>
      <path d="M0,18 Q18,0 36,18 Q18,36 0,18" fill="none" stroke="gray"/>
    </marker>
  </defs>
  <defs>
    <marker orient="auto" markerHeight="36" markerWidth="57" refY="18" refX="39" id="ZERO_OR_MORE_END">
      <circle r="6" cy="18" cx="9" fill="white" stroke="gray"/>
      <path d="M21,18 Q39,0 57,18 Q39,36 21,18" fill="none" stroke="gray"/>
    </marker>
  </defs>
  <path style="stroke: gray; fill: none;" marker-start="url(#ONLY_ONE_START)" marker-end="url(#ZERO_OR_ONE_END)" d="M386.7,71.826L334.362,84.022C282.023,96.217,177.347,120.609,125.009,141.138C72.67,161.667,72.67,178.333,72.67,186.667L72.67,195" class="er relationshipLine"/>
  <path style="stroke: gray; fill: none;" marker-start="url(#ONLY_ONE_START)" marker-end="url(#ZERO_OR_ONE_END)" d="M386.7,88.624L368.14,98.02C349.58,107.416,312.46,126.208,293.9,143.937C275.34,161.667,275.34,178.333,275.34,186.667L275.34,195" class="er relationshipLine"/>
  <path style="stroke: gray; fill: none;" marker-start="url(#ONLY_ONE_START)" marker-end="url(#ZERO_OR_ONE_END)" d="M509.661,64.198L633.265,77.665C756.869,91.132,1004.078,118.066,1127.682,139.866C1251.286,161.667,1251.286,178.333,1251.286,186.667L1251.286,195" class="er relationshipLine"/>
  <path style="stroke: gray; fill: none;" marker-start="url(#ONLY_ONE_START)" marker-end="url(#ZERO_OR_MORE_END)" d="M509.661,39.965L521.327,36.637C532.994,33.31,556.327,26.655,570.911,23.327C585.494,20,591.327,20,597.161,26.25C602.994,32.5,608.827,45,608.827,57.5C608.827,70,602.994,82.5,597.161,88.75C591.327,95,585.494,95,570.911,91.673C556.327,88.345,532.994,81.69,521.327,78.363L509.661,75.035" class="er relationshipLine"/>
  <path style="stroke: gray; fill: none;" marker-start="url(#ONLY_ONE_START)" marker-end="url(#ZERO_OR_MORE_END)" d="M386.7,67.685L308.917,80.571C231.133,93.457,75.567,119.228,-2.217,146.698C-80,174.167,-80,203.333,-80,232.5C-80,261.667,-80,290.833,-80,320C-80,349.167,-80,378.333,-80,407.5C-80,436.667,-80,465.833,168.08,494.52C416.16,523.206,912.32,551.412,1160.399,565.515L1408.479,579.618" class="er relationshipLine"/>
  <path style="stroke: gray; fill: none;" marker-start="url(#ONLY_ONE_START)" marker-end="url(#ZERO_OR_MORE_END)" d="M509.661,61.92L702.248,75.767C894.834,89.614,1280.008,117.307,1472.595,145.737C1665.182,174.167,1665.182,203.333,1665.182,232.5C1665.182,261.667,1665.182,290.833,1669.944,313.75C1674.706,336.667,1684.23,353.333,1688.992,361.667L1693.753,370" class="er relationshipLine"/>
  <path style="stroke: gray; fill: none;" marker-start="url(#ONLY_ONE_START)" marker-end="url(#ZERO_OR_MORE_END)" d="M461.186,95L464.077,103.333C466.967,111.667,472.747,128.333,475.638,145C478.528,161.667,478.528,178.333,478.528,186.667L478.528,195" class="er relationshipLine"/>
  <path style="stroke: gray; fill: none;" marker-start="url(#ONLY_ONE_START)" marker-end="url(#ZERO_OR_MORE_END)" d="M509.661,86.811L530.003,96.509C550.346,106.207,591.031,125.604,611.373,149.885C631.715,174.167,631.715,203.333,631.715,232.5C631.715,261.667,631.715,290.833,636.477,313.75C641.239,336.667,650.763,353.333,655.525,361.667L660.287,370" class="er relationshipLine"/>
  <path style="stroke: gray; fill: none;" marker-start="url(#ONLY_ONE_START)" marker-end="url(#ZERO_OR_ONE_END)" d="M1408.479,603.567L1381.835,614.639C1355.191,625.711,1301.903,647.856,1275.259,667.261C1248.615,686.667,1248.615,703.333,1248.615,711.667L1248.615,720" class="er relationshipLine"/>
  <path style="stroke: gray; fill: none;" marker-start="url(#ONLY_ONE_START)" marker-end="url(#ZERO_OR_MORE_END)" d="M1509.87,575.789L1548.632,570.657C1587.394,565.526,1664.919,555.263,1713.372,550.131C1761.825,545,1781.206,545,1800.587,551.25C1819.968,557.5,1839.349,570,1839.349,582.5C1839.349,595,1819.968,607.5,1800.587,613.75C1781.206,620,1761.825,620,1713.372,614.869C1664.919,609.737,1587.394,599.474,1548.632,594.343L1509.87,589.211" class="er relationshipLine"/>
  <path style="stroke: gray; fill: none;" marker-start="url(#ONLY_ONE_START)" marker-end="url(#ZERO_OR_MORE_END)" d="M1509.87,565.173L1544.089,553.478C1578.307,541.782,1646.745,518.391,1680.963,498.362C1715.182,478.333,1715.182,461.667,1715.182,453.333L1715.182,445" class="er relationshipLine"/>
  <path style="stroke: gray; fill: none;" marker-start="url(#ONLY_ONE_START)" marker-end="url(#ZERO_OR_MORE_END)" d="M1509.87,598.088L1548.85,610.073C1587.83,622.058,1665.79,646.029,1704.77,666.348C1743.749,686.667,1743.749,703.333,1743.749,711.667L1743.749,720" class="er relationshipLine"/>
  <path style="stroke: gray; fill: none;" marker-start="url(#ONLY_ONE_START)" marker-end="url(#ZERO_OR_MORE_END)" d="M1509.87,572.741L1577.18,559.784C1644.49,546.828,1779.11,520.914,1846.42,493.374C1913.73,465.833,1913.73,436.667,1913.73,407.5C1913.73,378.333,1913.73,349.167,1811.656,321.101C1709.582,293.035,1505.434,266.07,1403.36,252.587L1301.286,239.104" class="er relationshipLine"/>
  <path style="stroke: gray; fill: none;" marker-start="url(#ONLY_ONE_START)" marker-end="url(#ZERO_OR_MORE_END)" d="M1618.085,415.501L1457.291,428.751C1296.496,442.001,974.906,468.5,939.972,495.416C905.038,522.332,1156.758,549.664,1282.619,563.33L1408.479,576.996" class="er relationshipLine"/>
  <path style="stroke: gray; fill: none;" marker-start="url(#ONLY_ONE_START)" marker-end="url(#ZERO_OR_MORE_END)" d="M1812.279,435.958L1845.854,445.798C1879.429,455.638,1946.58,475.319,1980.155,493.493C2013.73,511.667,2013.73,528.333,2013.73,536.667L2013.73,545" class="er relationshipLine"/>
  <path style="stroke: gray; fill: none;" marker-start="url(#ONLY_ONE_START)" marker-end="url(#ZERO_OR_MORE_END)" d="M2013.73,620L2013.73,628.333C2013.73,636.667,2013.73,653.333,2013.73,670C2013.73,686.667,2013.73,703.333,2013.73,711.667L2013.73,720" class="er relationshipLine"/>
  <path style="stroke: gray; fill: none;" marker-start="url(#ONLY_ONE_START)" marker-end="url(#ZERO_OR_ONE_END)" d="M1301.286,241.013L1378.602,254.178C1455.918,267.342,1610.55,293.671,1683.104,315.169C1755.658,336.667,1746.134,353.333,1741.372,361.667L1736.611,370" class="er relationshipLine"/>
  <path style="stroke: gray; fill: none;" marker-start="url(#ONLY_ONE_START)" marker-end="url(#ZERO_OR_MORE_END)" d="M1201.286,244.498L1148.844,257.081C1096.402,269.665,991.518,294.833,939.076,315.75C886.634,336.667,886.634,353.333,886.634,361.667L886.634,370" class="er relationshipLine"/>
  <path style="stroke: gray; fill: none;" marker-start="url(#ONLY_ONE_START)" marker-end="url(#ZERO_OR_MORE_END)" d="M1301.286,256.104L1323.844,266.754C1346.402,277.403,1391.518,298.701,1414.076,323.934C1436.634,349.167,1436.634,378.333,1436.634,407.5C1436.634,436.667,1436.634,465.833,1438.78,488.75C1440.927,511.667,1445.221,528.333,1447.367,536.667L1449.514,545" class="er relationshipLine"/>
  <path style="stroke: gray; fill: none;" marker-start="url(#ONLY_ONE_START)" marker-end="url(#ZERO_OR_MORE_END)" d="M1201.286,240.96L1123.434,254.134C1045.582,267.307,889.878,293.653,807.03,315.16C724.182,336.667,714.19,353.333,709.194,361.667L704.198,370" class="er relationshipLine"/>
  <path style="stroke: gray; fill: none;" marker-start="url(#ONLY_ONE_START)" marker-end="url(#ZERO_OR_MORE_END)" d="M1201.286,259.071L1182.177,269.226C1163.069,279.381,1124.851,299.69,1105.742,318.179C1086.634,336.667,1086.634,353.333,1086.634,361.667L1086.634,370" class="er relationshipLine"/>
  <path style="stroke: gray; fill: none;" marker-start="url(#ONLY_ONE_START)" marker-end="url(#ZERO_OR_MORE_END)" d="M1301.286,224.077L1330.052,219.231C1358.819,214.384,1416.351,204.692,1452.309,199.846C1488.266,195,1502.65,195,1517.033,201.25C1531.416,207.5,1545.799,220,1545.799,232.5C1545.799,245,1531.416,257.5,1517.033,263.75C1502.65,270,1488.266,270,1452.309,265.154C1416.351,260.308,1358.819,250.616,1330.052,245.769L1301.286,240.923" class="er relationshipLine"/>
  <path style="stroke: gray; fill: none;" marker-start="url(#ONLY_ONE_START)" marker-end="url(#ZERO_OR_MORE_END)" d="M1266.435,270L1269.802,278.333C1273.168,286.667,1279.901,303.333,1283.267,320C1286.634,336.667,1286.634,353.333,1286.634,361.667L1286.634,370" class="er relationshipLine"/>
  <g transform="translate(386.70003509521484,20 )" id="entity-PhysicalConstant-f43f8855-cf72-5deb-8dd3-7b0283708583">
    <rect height="75" width="122.96058654785156" y="0" x="0" class="er entityBox"/>
    <text style="dominant-baseline: middle; text-anchor: middle; font-size: 12px;" transform="translate(61.48029327392578,37.5)" y="0" x="0" id="text-entity-PhysicalConstant-f43f8855-cf72-5deb-8dd3-7b0283708583" class="er entityLabel">PhysicalConstant</text>
  </g>
  <g transform="translate(1408.4793014526367,545 )" id="entity-QuantityKind-6f79b338-e354-5d95-8035-8883644476ff">
    <rect height="75" width="101.390625" y="0" x="0" class="er entityBox"/>
    <text style="dominant-baseline: middle; text-anchor: middle; font-size: 12px;" transform="translate(50.6953125,37.5)" y="0" x="0" id="text-entity-QuantityKind-6f79b338-e354-5d95-8035-8883644476ff" class="er entityLabel">QuantityKind</text>
  </g>
  <g transform="translate(1618.0854721069336,370 )" id="entity-QuantityKindDimensionVector-bfa1bf26-fcae-516f-8f63-2f454f3dac1b">
    <rect height="75" width="194.19308471679688" y="0" x="0" class="er entityBox"/>
    <text style="dominant-baseline: middle; text-anchor: middle; font-size: 12px;" transform="translate(97.09654235839844,37.5)" y="0" x="0" id="text-entity-QuantityKindDimensionVector-bfa1bf26-fcae-516f-8f63-2f454f3dac1b" class="er entityLabel">QuantityKindDimensionVector</text>
  </g>
  <g transform="translate(1963.7302856445312,545 )" id="entity-Rule-886caf8e-59ff-5db3-a492-27242971196f">
    <rect height="75" width="100" y="0" x="0" class="er entityBox"/>
    <text style="dominant-baseline: middle; text-anchor: middle; font-size: 12px;" transform="translate(50,37.5)" y="0" x="0" id="text-entity-Rule-886caf8e-59ff-5db3-a492-27242971196f" class="er entityLabel">Rule</text>
  </g>
  <g transform="translate(1201.2860870361328,195 )" id="entity-Unit-c57ac1ea-0a24-509a-a80e-23f8c03ca739">
    <rect height="75" width="100" y="0" x="0" class="er entityBox"/>
    <text style="dominant-baseline: middle; text-anchor: middle; font-size: 12px;" transform="translate(50,37.5)" y="0" x="0" id="text-entity-Unit-c57ac1ea-0a24-509a-a80e-23f8c03ca739" class="er entityLabel">Unit</text>
  </g>
  <g transform="translate(20,195 )" id="entity-DataEncoding-e949680e-a6e4-55c9-9325-aa69226f3e53">
    <rect height="75" width="105.34048461914062" y="0" x="0" class="er entityBox"/>
    <text style="dominant-baseline: middle; text-anchor: middle; font-size: 12px;" transform="translate(52.67024230957031,37.5)" y="0" x="0" id="text-entity-DataEncoding-e949680e-a6e4-55c9-9325-aa69226f3e53" class="er entityLabel">DataEncoding</text>
  </g>
  <g transform="translate(225.34048461914062,195 )" id="entity-Datatype-eedb5402-d0cc-52bf-9fb8-7b914f648cbe">
    <rect height="75" width="100" y="0" x="0" class="er entityBox"/>
    <text style="dominant-baseline: middle; text-anchor: middle; font-size: 12px;" transform="translate(50,37.5)" y="0" x="0" id="text-entity-Datatype-eedb5402-d0cc-52bf-9fb8-7b914f648cbe" class="er entityLabel">Datatype</text>
  </g>
  <g transform="translate(425.3404846191406,195 )" id="entity-QuantityValue-f2bc13d2-1961-5e2a-9bfe-ab6a05a5860b">
    <rect height="75" width="106.375" y="0" x="0" class="er entityBox"/>
    <text style="dominant-baseline: middle; text-anchor: middle; font-size: 12px;" transform="translate(53.1875,37.5)" y="0" x="0" id="text-entity-QuantityValue-f2bc13d2-1961-5e2a-9bfe-ab6a05a5860b" class="er entityLabel">QuantityValue</text>
  </g>
  <g transform="translate(626.7972259521484,370 )" id="entity-SystemOfUnits-f7f1da8e-a5af-50e1-94d0-c2e741f40e1d">
    <rect height="75" width="109.83651733398438" y="0" x="0" class="er entityBox"/>
    <text style="dominant-baseline: middle; text-anchor: middle; font-size: 12px;" transform="translate(54.91825866699219,37.5)" y="0" x="0" id="text-entity-SystemOfUnits-f7f1da8e-a5af-50e1-94d0-c2e741f40e1d" class="er entityLabel">SystemOfUnits</text>
  </g>
  <g transform="translate(1146.6616821289062,720 )" id="entity-QuantityKindDimensionVectorSI-2681a9c0-d385-5c75-b278-85a805bca5b5">
    <rect height="75" width="203.90625" y="0" x="0" class="er entityBox"/>
    <text style="dominant-baseline: middle; text-anchor: middle; font-size: 12px;" transform="translate(101.953125,37.5)" y="0" x="0" id="text-entity-QuantityKindDimensionVectorSI-2681a9c0-d385-5c75-b278-85a805bca5b5" class="er entityLabel">QuantityKindDimensionVectorSI</text>
  </g>
  <g transform="translate(1664.4829902648926,720 )" id="entity-SystemOfQuantityKinds-09c2a533-d4ff-5ffb-9642-53498359216a">
    <rect height="75" width="158.53285217285156" y="0" x="0" class="er entityBox"/>
    <text style="dominant-baseline: middle; text-anchor: middle; font-size: 12px;" transform="translate(79.26642608642578,37.5)" y="0" x="0" id="text-entity-SystemOfQuantityKinds-09c2a533-d4ff-5ffb-9642-53498359216a" class="er entityLabel">SystemOfQuantityKinds</text>
  </g>
  <g transform="translate(1963.7302856445312,720 )" id="entity-RuleType-d54df1a6-a17d-5920-9344-6f805c739e55">
    <rect height="75" width="100" y="0" x="0" class="er entityBox"/>
    <text style="dominant-baseline: middle; text-anchor: middle; font-size: 12px;" transform="translate(50,37.5)" y="0" x="0" id="text-entity-RuleType-d54df1a6-a17d-5920-9344-6f805c739e55" class="er entityLabel">RuleType</text>
  </g>
  <g transform="translate(836.6337432861328,370 )" id="entity-Prefix-f6d97b99-faee-5974-b12e-390868d79e86">
    <rect height="75" width="100" y="0" x="0" class="er entityBox"/>
    <text style="dominant-baseline: middle; text-anchor: middle; font-size: 12px;" transform="translate(50,37.5)" y="0" x="0" id="text-entity-Prefix-f6d97b99-faee-5974-b12e-390868d79e86" class="er entityLabel">Prefix</text>
  </g>
  <g transform="translate(1036.6337432861328,370 )" id="entity-UCUMcs-8df33f70-0c53-5f8e-a81f-0969bc803a34">
    <rect height="75" width="100" y="0" x="0" class="er entityBox"/>
    <text style="dominant-baseline: middle; text-anchor: middle; font-size: 12px;" transform="translate(50,37.5)" y="0" x="0" id="text-entity-UCUMcs-8df33f70-0c53-5f8e-a81f-0969bc803a34" class="er entityLabel">UCUMcs</text>
  </g>
  <g transform="translate(1236.6337432861328,370 )" id="entity-Class-d9e3eb4a-97c0-50b6-8e3f-7f4a2fa7283d">
    <rect height="75" width="100" y="0" x="0" class="er entityBox"/>
    <text style="dominant-baseline: middle; text-anchor: middle; font-size: 12px;" transform="translate(50,37.5)" y="0" x="0" id="text-entity-Class-d9e3eb4a-97c0-50b6-8e3f-7f4a2fa7283d" class="er entityLabel">__Class</text>
  </g>
  <rect height="14" width="74.90847778320312" y="106.26079559326172" x="177.7603759765625" class="er relationshipLabelBox"/>
  <text style="text-anchor: middle; dominant-baseline: middle; font-size: 12px;" y="113.26079559326172" x="215.21461486816406" id="rel1" class="er relationshipLabel">dataEncoding</text>
  <rect height="14" width="48.328125" y="121.10060119628906" x="290.2611999511719" class="er relationshipLabelBox"/>
  <text style="text-anchor: middle; dominant-baseline: middle; font-size: 12px;" y="128.10060119628906" x="314.4252624511719" id="rel2" class="er relationshipLabel">datatype</text>
  <rect height="14" width="128.1568603515625" y="99.98705291748047" x="827.53076171875" class="er relationshipLabelBox"/>
  <text style="text-anchor: middle; dominant-baseline: middle; font-size: 12px;" y="106.98705291748047" x="891.6091918945312" id="rel3" class="er relationshipLabel">applicableUnit, hasUnit</text>
  <rect height="14" width="61.453125" y="50.5" x="578.1004638671875" class="er relationshipLabelBox"/>
  <text style="text-anchor: middle; dominant-baseline: middle; font-size: 12px;" y="57.5" x="608.8270263671875" id="rel4" class="er relationshipLabel">exactMatch</text>
  <rect height="13.999969482421875" width="90.4375" y="500.7919158935547" x="254.45822143554688" class="er relationshipLabelBox"/>
  <text style="text-anchor: middle; dominant-baseline: middle; font-size: 12px;" y="507.7919006347656" x="299.6769714355469" id="rel5" class="er relationshipLabel">hasQuantityKind</text>
  <rect height="14" width="111.8487548828125" y="106.06278228759766" x="1120.5115356445312" class="er relationshipLabelBox"/>
  <text style="text-anchor: middle; dominant-baseline: middle; font-size: 12px;" y="113.06278228759766" x="1176.4359130859375" id="rel6" class="er relationshipLabel">hasDimensionVector</text>
  <rect height="14" width="75.265625" y="137.036865234375" x="437.8345947265625" class="er relationshipLabelBox"/>
  <text style="text-anchor: middle; dominant-baseline: middle; font-size: 12px;" y="144.036865234375" x="475.4674072265625" id="rel7" class="er relationshipLabel">quantityValue</text>
  <rect height="14" width="95.78125" y="193.1816864013672" x="582.77490234375" class="er relationshipLabelBox"/>
  <text style="text-anchor: middle; dominant-baseline: middle; font-size: 12px;" y="200.1816864013672" x="630.66552734375" id="rel8" class="er relationshipLabel">applicableSystem</text>
  <rect height="14" width="119.078125" y="638.7587280273438" x="1252.6162109375" class="er relationshipLabelBox"/>
  <text style="text-anchor: middle; dominant-baseline: middle; font-size: 12px;" y="645.7587280273438" x="1312.1552734375" id="rel9" class="er relationshipLabel">dimensionVectorForSI</text>
  <rect height="14" width="61.453125" y="575.5" x="1808.6224365234375" class="er relationshipLabelBox"/>
  <text style="text-anchor: middle; dominant-baseline: middle; font-size: 12px;" y="582.5" x="1839.3489990234375" id="rel10" class="er relationshipLabel">exactMatch</text>
  <rect height="14" width="304.4981689453125" y="515.8187866210938" x="1476.1729125976562" class="er relationshipLabelBox"/>
  <text style="text-anchor: middle; dominant-baseline: middle; font-size: 12px;" y="522.8187866210938" x="1628.4219970703125" id="rel11" class="er relationshipLabel">hasDimensionVector, qkdvDenominator, qkdvNumerator</text>
  <rect height="14" width="163.4290771484375" y="633.521240234375" x="1560.6264038085938" class="er relationshipLabelBox"/>
  <text style="text-anchor: middle; dominant-baseline: middle; font-size: 12px;" y="640.521240234375" x="1642.3409423828125" id="rel12" class="er relationshipLabel">belongsToSystemOfQuantities</text>
  <rect height="14" width="675.57666015625" y="328.98492431640625" x="1518.7535400390625" class="er relationshipLabelBox"/>
  <text style="text-anchor: middle; dominant-baseline: middle; font-size: 12px;" y="335.98492431640625" x="1856.5418701171875" id="rel13" class="er relationshipLabel">applicableCGSUnit, applicableISOUnit, applicableImperialUnit, applicableSIUnit, applicableUSCustomaryUnit, applicableUnit</text>
  <rect height="14" width="144.375" y="464.9606018066406" x="962.5283203125" class="er relationshipLabelBox"/>
  <text style="text-anchor: middle; dominant-baseline: middle; font-size: 12px;" y="471.9606018066406" x="1034.7158203125" id="rel14" class="er relationshipLabel">hasReferenceQuantityKind</text>
  <rect height="14" width="43.296875" y="464.9495544433594" x="1907.13671875" class="er relationshipLabelBox"/>
  <text style="text-anchor: middle; dominant-baseline: middle; font-size: 12px;" y="471.9495544433594" x="1928.78515625" id="rel15" class="er relationshipLabel">hasRule</text>
  <rect height="14" width="46.921875" y="663" x="1990.26904296875" class="er relationshipLabelBox"/>
  <text style="text-anchor: middle; dominant-baseline: middle; font-size: 12px;" y="670" x="2013.72998046875" id="rel16" class="er relationshipLabel">ruleType</text>
  <rect height="14" width="304.4981689453125" y="275.8725280761719" x="1387.3058471679688" class="er relationshipLabelBox"/>
  <text style="text-anchor: middle; dominant-baseline: middle; font-size: 12px;" y="282.8725280761719" x="1539.554931640625" id="rel17" class="er relationshipLabel">hasDimensionVector, qkdvDenominator, qkdvNumerator</text>
  <rect height="14" width="30.8402099609375" y="280.2083435058594" x="1014.0248413085938" class="er relationshipLabelBox"/>
  <text style="text-anchor: middle; dominant-baseline: middle; font-size: 12px;" y="287.2083435058594" x="1029.4449462890625" id="rel18" class="er relationshipLabel">prefix</text>
  <rect height="14" width="90.4375" y="359.3161926269531" x="1388.9896240234375" class="er relationshipLabelBox"/>
  <text style="text-anchor: middle; dominant-baseline: middle; font-size: 12px;" y="366.3161926269531" x="1434.2083740234375" id="rel19" class="er relationshipLabel">hasQuantityKind</text>
  <rect height="14" width="597.5625" y="278.76947021484375" x="645.6346435546875" class="er relationshipLabelBox"/>
  <text style="text-anchor: middle; dominant-baseline: middle; font-size: 12px;" y="285.76947021484375" x="944.4158935546875" id="rel20" class="er relationshipLabel">applicableSystem, definedUnitOfSystem, derivedCoherentUnitOfSystem, derivedUnitOfSystem, isUnitOfSystem</text>
  <rect height="14" width="57.078125" y="294.111328125" x="1098.9114990234375" class="er relationshipLabelBox"/>
  <text style="text-anchor: middle; dominant-baseline: middle; font-size: 12px;" y="301.111328125" x="1127.4505615234375" id="rel21" class="er relationshipLabel">ucumCode</text>
  <rect height="14" width="223.1495361328125" y="225.50001525878906" x="1434.2241821289062" class="er relationshipLabelBox"/>
  <text style="text-anchor: middle; dominant-baseline: middle; font-size: 12px;" y="232.50001525878906" x="1545.7989501953125" id="rel22" class="er relationshipLabel">exactMatch, hasReciprocalUnit, scalingOf</text>
  <rect height="14" width="75.6324462890625" y="311.71173095703125" x="1245.1834106445312" class="er relationshipLabelBox"/>
  <text style="text-anchor: middle; dominant-baseline: middle; font-size: 12px;" y="318.71173095703125" x="1282.9996337890625" id="rel23" class="er relationshipLabel">hasFactorUnit</text>
</svg>
