<svg aria-roledescription="er" role="graphics-document document" viewBox="-0.0494537353515625 0 3350.66357421875 815" height="815" xmlns="http://www.w3.org/2000/svg" width="3350.66357421875" id="container"><style>#container{font-family:"trebuchet ms",verdana,arial,sans-serif;font-size:16px;fill:#333;}#container .error-icon{fill:#552222;}#container .error-text{fill:#552222;stroke:#552222;}#container .edge-thickness-normal{stroke-width:1px;}#container .edge-thickness-thick{stroke-width:3.5px;}#container .edge-pattern-solid{stroke-dasharray:0;}#container .edge-thickness-invisible{stroke-width:0;fill:none;}#container .edge-pattern-dashed{stroke-dasharray:3;}#container .edge-pattern-dotted{stroke-dasharray:2;}#container .marker{fill:#333333;stroke:#333333;}#container .marker.cross{stroke:#333333;}#container svg{font-family:"trebuchet ms",verdana,arial,sans-serif;font-size:16px;}#container p{margin:0;}#container .entityBox{fill:#ECECFF;stroke:#9370DB;}#container .attributeBoxOdd{fill:#ffffff;stroke:#9370DB;}#container .attributeBoxEven{fill:#f2f2f2;stroke:#9370DB;}#container .relationshipLabelBox{fill:hsl(80, 100%, 96.2745098039%);opacity:0.7;background-color:hsl(80, 100%, 96.2745098039%);}#container .relationshipLabelBox rect{opacity:0.5;}#container .relationshipLine{stroke:#333333;}#container .entityTitleText{text-anchor:middle;font-size:18px;fill:#333;}#container #MD_PARENT_START{fill:#f5f5f5!important;stroke:#333333!important;stroke-width:1;}#container #MD_PARENT_END{fill:#f5f5f5!important;stroke:#333333!important;stroke-width:1;}#container :root{--mermaid-font-family:"trebuchet ms",verdana,arial,sans-serif;}</style><g></g><defs><marker orient="auto" markerHeight="240" markerWidth="190" refY="7" refX="0" id="MD_PARENT_START"><path d="M 18,7 L9,13 L1,7 L9,1 Z"></path></marker></defs><defs><marker orient="auto" markerHeight="28" markerWidth="20" refY="7" refX="19" id="MD_PARENT_END"><path d="M 18,7 L9,13 L1,7 L9,1 Z"></path></marker></defs><defs><marker orient="auto" markerHeight="18" markerWidth="18" refY="9" refX="0" id="ONLY_ONE_START"><path d="M9,0 L9,18 M15,0 L15,18" fill="none" stroke="gray"></path></marker></defs><defs><marker orient="auto" markerHeight="18" markerWidth="18" refY="9" refX="18" id="ONLY_ONE_END"><path d="M3,0 L3,18 M9,0 L9,18" fill="none" stroke="gray"></path></marker></defs><defs><marker orient="auto" markerHeight="18" markerWidth="30" refY="9" refX="0" id="ZERO_OR_ONE_START"><circle r="6" cy="9" cx="21" fill="white" stroke="gray"></circle><path d="M9,0 L9,18" fill="none" stroke="gray"></path></marker></defs><defs><marker orient="auto" markerHeight="18" markerWidth="30" refY="9" refX="30" id="ZERO_OR_ONE_END"><circle r="6" cy="9" cx="9" fill="white" stroke="gray"></circle><path d="M21,0 L21,18" fill="none" stroke="gray"></path></marker></defs><defs><marker orient="auto" markerHeight="36" markerWidth="45" refY="18" refX="18" id="ONE_OR_MORE_START"><path d="M0,18 Q 18,0 36,18 Q 18,36 0,18 M42,9 L42,27" fill="none" stroke="gray"></path></marker></defs><defs><marker orient="auto" markerHeight="36" markerWidth="45" refY="18" refX="27" id="ONE_OR_MORE_END"><path d="M3,9 L3,27 M9,18 Q27,0 45,18 Q27,36 9,18" fill="none" stroke="gray"></path></marker></defs><defs><marker orient="auto" markerHeight="36" markerWidth="57" refY="18" refX="18" id="ZERO_OR_MORE_START"><circle r="6" cy="18" cx="48" fill="white" stroke="gray"></circle><path d="M0,18 Q18,0 36,18 Q18,36 0,18" fill="none" stroke="gray"></path></marker></defs><defs><marker orient="auto" markerHeight="36" markerWidth="57" refY="18" refX="39" id="ZERO_OR_MORE_END"><circle r="6" cy="18" cx="9" fill="white" stroke="gray"></circle><path d="M21,18 Q39,0 57,18 Q39,36 21,18" fill="none" stroke="gray"></path></marker></defs><path style="stroke: gray; fill: none;" marker-start="url(#ONLY_ONE_START)" marker-end="url(#ZERO_OR_ONE_END)" d="M1143.474,64.644L1028.218,78.037C912.962,91.429,682.449,118.215,567.193,139.941C451.937,161.667,451.937,178.333,451.937,186.667L451.937,195" class="er relationshipLine"></path><path style="stroke: gray; fill: none;" marker-start="url(#ONLY_ONE_START)" marker-end="url(#ZERO_OR_ONE_END)" d="M1143.474,67.275L1061.996,80.229C980.518,93.183,817.563,119.092,736.085,140.379C654.607,161.667,654.607,178.333,654.607,186.667L654.607,195" class="er relationshipLine"></path><path style="stroke: gray; fill: none;" marker-start="url(#ONLY_ONE_START)" marker-end="url(#ZERO_OR_ONE_END)" d="M1143.474,69.445L1078.663,82.038C1013.852,94.63,884.229,119.815,1044.348,146.47C1204.467,173.125,1654.327,201.249,1879.257,215.312L2104.187,229.374" class="er relationshipLine"></path><path style="stroke: gray; fill: none;" marker-start="url(#ONLY_ONE_START)" marker-end="url(#ZERO_OR_MORE_END)" d="M1266.435,39.965L1278.102,36.637C1289.768,33.31,1313.102,26.655,1327.685,23.327C1342.268,20,1348.102,20,1353.935,26.25C1359.768,32.5,1365.602,45,1365.602,57.5C1365.602,70,1359.768,82.5,1353.935,88.75C1348.102,95,1342.268,95,1327.685,91.673C1313.102,88.345,1289.768,81.69,1278.102,78.363L1266.435,75.035" class="er relationshipLine"></path><path style="stroke: gray; fill: none;" marker-start="url(#ONLY_ONE_START)" marker-end="url(#ZERO_OR_MORE_END)" d="M1143.474,72.855L1095.33,84.879C1047.185,96.903,950.896,120.952,902.751,147.559C854.607,174.167,854.607,203.333,854.607,232.5C854.607,261.667,854.607,290.833,843.468,313.75C832.33,336.667,810.052,353.333,798.914,361.667L787.775,370" class="er relationshipLine"></path><path style="stroke: gray; fill: none;" marker-start="url(#ONLY_ONE_START)" marker-end="url(#ZERO_OR_MORE_END)" d="M1143.474,78.988L1111.996,89.99C1080.518,100.992,1017.563,122.996,986.085,148.581C954.607,174.167,954.607,203.333,954.607,232.5C954.607,261.667,954.607,290.833,976.035,313.75C997.464,336.667,1040.321,353.333,1061.75,361.667L1083.178,370" class="er relationshipLine"></path><path style="stroke: gray; fill: none;" marker-start="url(#ONLY_ONE_START)" marker-end="url(#ZERO_OR_MORE_END)" d="M1266.435,60.545L1550.643,74.621C1834.852,88.697,2403.269,116.848,2687.478,139.257C2971.687,161.667,2971.687,178.333,2971.687,186.667L2971.687,195" class="er relationshipLine"></path><path style="stroke: gray; fill: none;" marker-start="url(#ONLY_ONE_START)" marker-end="url(#ZERO_OR_MORE_END)" d="M1266.435,60.294L1577.131,74.411C1887.828,88.529,2509.221,116.765,2819.918,145.466C3130.614,174.167,3130.614,203.333,3130.614,232.5C3130.614,261.667,3130.614,290.833,3044.409,318.6C2958.203,346.367,2785.792,372.734,2699.586,385.918L2613.38,399.101" class="er relationshipLine"></path><path style="stroke: gray; fill: none;" marker-start="url(#ONLY_ONE_START)" marker-end="url(#ZERO_OR_MORE_END)" d="M1266.435,60.156L1593.798,74.296C1921.161,88.437,2575.888,116.719,2732.18,144.765C2888.472,172.812,2546.329,200.624,2375.258,214.53L2204.187,228.436" class="er relationshipLine"></path><path style="stroke: gray; fill: none;" marker-start="url(#ONLY_ONE_START)" marker-end="url(#ZERO_OR_MORE_END)" d="M1954.575,566.875L1966.242,563.229C1977.909,559.583,2001.242,552.292,2015.825,548.646C2030.409,545,2036.242,545,2042.075,551.25C2047.909,557.5,2053.742,570,2053.742,582.5C2053.742,595,2047.909,607.5,2042.075,613.75C2036.242,620,2030.409,620,2015.825,616.354C2001.242,612.708,1977.909,605.417,1966.242,601.771L1954.575,598.125" class="er relationshipLine"></path><path style="stroke: gray; fill: none;" marker-start="url(#ONLY_ONE_START)" marker-end="url(#ZERO_OR_MORE_END)" d="M1904.575,620L1904.575,628.333C1904.575,636.667,1904.575,653.333,1904.575,670C1904.575,686.667,1904.575,703.333,1904.575,711.667L1904.575,720" class="er relationshipLine"></path><path style="stroke: gray; fill: none;" marker-start="url(#ONLY_ONE_START)" marker-end="url(#ZERO_OR_MORE_END)" d="M370,445L370,453.333C370,461.667,370,478.333,370,495C370,511.667,370,528.333,370,536.667L370,545" class="er relationshipLine"></path><path style="stroke: gray; fill: none;" marker-start="url(#ONLY_ONE_START)" marker-end="url(#ZERO_OR_ONE_END)" d="M155.714,270L141.429,278.333C127.143,286.667,98.571,303.333,84.286,320C70,336.667,70,353.333,70,361.667L70,370" class="er relationshipLine"></path><path style="stroke: gray; fill: none;" marker-start="url(#ONLY_ONE_START)" marker-end="url(#ZERO_OR_MORE_END)" d="M205.987,270L202.873,278.333C199.759,286.667,193.531,303.333,273.693,324.907C353.854,346.48,520.405,372.96,603.68,386.2L686.956,399.44" class="er relationshipLine"></path><path style="stroke: gray; fill: none;" marker-start="url(#ONLY_ONE_START)" marker-end="url(#ZERO_OR_MORE_END)" d="M248.844,270L255.254,278.333C261.664,286.667,274.484,303.333,347.502,324.608C420.521,345.883,553.738,371.767,620.347,384.708L686.956,397.65" class="er relationshipLine"></path><path style="stroke: gray; fill: none;" marker-start="url(#ONLY_ONE_START)" marker-end="url(#ZERO_OR_MORE_END)" d="M291.701,270L307.635,278.333C323.569,286.667,355.436,303.333,421.312,324.14C487.188,344.946,587.072,369.892,637.014,382.366L686.956,394.839" class="er relationshipLine"></path><path style="stroke: gray; fill: none;" marker-start="url(#ONLY_ONE_START)" marker-end="url(#ZERO_OR_MORE_END)" d="M299.266,258.447L330.606,268.706C361.945,278.965,424.624,299.482,444.747,318.108C464.869,336.735,442.434,353.469,431.217,361.836L420,370.204" class="er relationshipLine"></path><path style="stroke: gray; fill: none;" marker-start="url(#ONLY_ONE_START)" marker-end="url(#ZERO_OR_MORE_END)" d="M299.266,251.383L347.273,262.819C395.279,274.255,491.291,297.128,858.671,322.741C1226.05,348.354,1864.797,376.708,2184.17,390.885L2503.544,405.062" class="er relationshipLine"></path><path style="stroke: gray; fill: none;" marker-start="url(#ONLY_ONE_START)" marker-end="url(#ZERO_OR_MORE_END)" d="M2613.38,401.277L2732.919,387.731C2852.458,374.184,3091.536,347.092,3211.075,318.963C3330.614,290.833,3330.614,261.667,3330.614,232.5C3330.614,203.333,3330.614,174.167,2986.584,145.422C2642.554,116.677,1954.495,88.354,1610.465,74.192L1266.435,60.031" class="er relationshipLine"></path><path style="stroke: gray; fill: none;" marker-start="url(#ONLY_ONE_START)" marker-end="url(#ZERO_OR_MORE_END)" d="M2558.462,445L2558.462,453.333C2558.462,461.667,2558.462,478.333,2457.814,500.135C2357.166,521.936,2155.871,548.873,2055.223,562.341L1954.575,575.809" class="er relationshipLine"></path><path style="stroke: gray; fill: none;" marker-start="url(#ONLY_ONE_START)" marker-end="url(#ZERO_OR_MORE_END)" d="M2503.67,370L2491.494,361.667C2479.318,353.333,2454.966,336.667,2405.052,316.388C2355.138,296.109,2279.663,272.218,2241.925,260.272L2204.187,248.327" class="er relationshipLine"></path><path style="stroke: gray; fill: none;" marker-start="url(#ONLY_ONE_START)" marker-end="url(#ZERO_OR_MORE_END)" d="M2546.527,370L2543.875,361.667C2541.223,353.333,2535.919,336.667,2478.862,315.687C2421.805,294.707,2312.996,269.415,2258.591,256.769L2204.187,244.122" class="er relationshipLine"></path><path style="stroke: gray; fill: none;" marker-start="url(#ONLY_ONE_START)" marker-end="url(#ZERO_OR_MORE_END)" d="M2589.384,370L2596.256,361.667C2603.128,353.333,2616.871,336.667,2552.671,315.28C2488.472,293.894,2346.329,267.789,2275.258,254.736L2204.187,241.683" class="er relationshipLine"></path><path style="stroke: gray; fill: none;" marker-start="url(#ONLY_ONE_START)" marker-end="url(#ZERO_OR_MORE_END)" d="M2613.38,379.587L2632.919,369.656C2652.458,359.724,2691.536,339.862,2623.337,316.613C2555.138,293.363,2379.663,266.727,2291.925,253.408L2204.187,240.09" class="er relationshipLine"></path><path style="stroke: gray; fill: none;" marker-start="url(#ONLY_ONE_START)" marker-end="url(#ZERO_OR_MORE_END)" d="M2613.38,389.843L2649.586,378.203C2685.792,366.562,2758.203,343.281,2690.004,318.135C2621.805,292.989,2412.996,265.979,2308.591,252.473L2204.187,238.968" class="er relationshipLine"></path><path style="stroke: gray; fill: none;" marker-start="url(#ONLY_ONE_START)" marker-end="url(#ZERO_OR_MORE_END)" d="M2613.38,394.588L2666.253,382.156C2719.125,369.725,2824.87,344.863,2756.671,318.787C2688.472,292.712,2446.329,265.423,2325.258,251.779L2204.187,238.135" class="er relationshipLine"></path><path style="stroke: gray; fill: none;" marker-start="url(#ONLY_ONE_START)" marker-end="url(#ZERO_OR_MORE_END)" d="M2613.38,397.322L2682.919,384.435C2752.458,371.548,2891.536,345.774,2823.337,319.136C2755.138,292.497,2479.663,264.995,2341.925,251.243L2204.187,237.492" class="er relationshipLine"></path><path style="stroke: gray; fill: none;" marker-start="url(#ONLY_ONE_START)" marker-end="url(#ZERO_OR_ONE_END)" d="M2104.187,236.571L1933.423,250.476C1762.66,264.381,1421.133,292.19,1259.894,314.429C1098.655,336.667,1117.702,353.333,1127.226,361.667L1136.75,370" class="er relationshipLine"></path><path style="stroke: gray; fill: none;" marker-start="url(#ONLY_ONE_START)" marker-end="url(#ZERO_OR_ONE_END)" d="M2104.187,236.989L1950.09,250.824C1795.993,264.659,1487.8,292.33,1333.704,314.498C1179.607,336.667,1179.607,353.333,1179.607,361.667L1179.607,370" class="er relationshipLine"></path><path style="stroke: gray; fill: none;" marker-start="url(#ONLY_ONE_START)" marker-end="url(#ZERO_OR_ONE_END)" d="M2104.187,237.502L1966.757,251.252C1829.327,265.002,1554.467,292.501,1407.513,314.584C1260.559,336.667,1241.512,353.333,1231.988,361.667L1222.464,370" class="er relationshipLine"></path><path style="stroke: gray; fill: none;" marker-start="url(#ONLY_ONE_START)" marker-end="url(#ZERO_OR_MORE_END)" d="M2104.187,238.526L1991.515,252.105C1878.843,265.684,1653.499,292.842,1540.827,321.004C1428.155,349.167,1428.155,378.333,1428.155,407.5C1428.155,436.667,1428.155,465.833,1499.225,493.469C1570.295,521.106,1712.435,547.211,1783.505,560.264L1854.575,573.317" class="er relationshipLine"></path><path style="stroke: gray; fill: none;" marker-start="url(#ONLY_ONE_START)" marker-end="url(#ZERO_OR_MORE_END)" d="M2104.187,239.488L2008.181,252.907C1912.176,266.326,1720.166,293.163,1500.859,320.23C1281.552,347.296,1034.949,374.592,911.648,388.24L788.346,401.889" class="er relationshipLine"></path><path style="stroke: gray; fill: none;" marker-start="url(#ONLY_ONE_START)" marker-end="url(#ZERO_OR_MORE_END)" d="M2104.187,240.817L2024.848,254.014C1945.51,267.211,1786.832,293.606,1853.392,320.525C1919.951,347.445,2211.748,374.89,2357.646,388.612L2503.544,402.335" class="er relationshipLine"></path><path style="stroke: gray; fill: none;" marker-start="url(#ONLY_ONE_START)" marker-end="url(#ZERO_OR_MORE_END)" d="M2104.187,242.769L2041.515,255.641C1978.843,268.513,1853.499,294.256,1920.059,320.747C1986.618,347.238,2245.081,374.475,2374.312,388.094L2503.544,401.713" class="er relationshipLine"></path><path style="stroke: gray; fill: none;" marker-start="url(#ONLY_ONE_START)" marker-end="url(#ZERO_OR_MORE_END)" d="M2104.187,245.919L2058.181,258.266C2012.176,270.613,1920.166,295.306,1986.725,321.14C2053.285,346.973,2278.414,373.947,2390.979,387.433L2503.544,400.92" class="er relationshipLine"></path><path style="stroke: gray; fill: none;" marker-start="url(#ONLY_ONE_START)" marker-end="url(#ZERO_OR_MORE_END)" d="M2104.187,251.856L2074.848,263.213C2045.51,274.57,1986.832,297.285,2053.392,321.955C2119.951,346.625,2311.748,373.251,2407.646,386.563L2503.544,399.876" class="er relationshipLine"></path><path style="stroke: gray; fill: none;" marker-start="url(#ONLY_ONE_START)" marker-end="url(#ZERO_OR_MORE_END)" d="M2104.187,267.214L2091.515,276.011C2078.843,284.809,2053.499,302.405,2120.059,324.275C2186.618,346.146,2345.081,372.292,2424.312,385.365L2503.544,398.439" class="er relationshipLine"></path><path style="stroke: gray; fill: none;" marker-start="url(#ONLY_ONE_START)" marker-end="url(#ZERO_OR_MORE_END)" d="M2143.03,270L2140.551,278.333C2138.072,286.667,2133.114,303.333,2125.906,320C2118.698,336.667,2109.24,353.333,2104.511,361.667L2099.782,370" class="er relationshipLine"></path><path style="stroke: gray; fill: none;" marker-start="url(#ONLY_ONE_START)" marker-end="url(#ZERO_OR_MORE_END)" d="M2204.187,226.443L2247.444,221.202C2290.701,215.962,2377.214,205.481,2431.286,200.24C2485.357,195,2506.985,195,2528.614,201.25C2550.242,207.5,2571.871,220,2571.871,232.5C2571.871,245,2550.242,257.5,2528.614,263.75C2506.985,270,2485.357,270,2431.286,264.76C2377.214,259.519,2290.701,249.038,2247.444,243.798L2204.187,238.557" class="er relationshipLine"></path><path style="stroke: gray; fill: none;" marker-start="url(#ONLY_ONE_START)" marker-end="url(#ZERO_OR_MORE_END)" d="M2204.187,227.603L2259.666,222.169C2315.145,216.735,2426.103,205.868,2495.452,200.434C2564.801,195,2592.541,195,2620.28,201.25C2648.02,207.5,2675.76,220,2675.76,232.5C2675.76,245,2648.02,257.5,2620.28,263.75C2592.541,270,2564.801,270,2495.452,264.566C2426.103,259.132,2315.145,248.265,2259.666,242.831L2204.187,237.397" class="er relationshipLine"></path><path style="stroke: gray; fill: none;" marker-start="url(#ONLY_ONE_START)" marker-end="url(#ZERO_OR_MORE_END)" d="M2204.187,228.39L2271.888,222.825C2339.589,217.26,2474.992,206.13,2559.619,200.565C2644.246,195,2678.096,195,2711.947,201.25C2745.798,207.5,2779.648,220,2779.648,232.5C2779.648,245,2745.798,257.5,2711.947,263.75C2678.096,270,2644.246,270,2559.619,264.435C2474.992,258.87,2339.589,247.74,2271.888,242.175L2204.187,236.61" class="er relationshipLine"></path><path style="stroke: gray; fill: none;" marker-start="url(#ONLY_ONE_START)" marker-end="url(#ZERO_OR_MORE_END)" d="M2204.187,257.648L2224.848,268.04C2245.51,278.432,2286.832,299.216,2302.765,317.941C2318.698,336.667,2309.24,353.333,2304.511,361.667L2299.782,370" class="er relationshipLine"></path><g transform="translate(1143.4742736816406,20 )" id="entity-PhysicalConstant-f43f8855-cf72-5deb-8dd3-7b0283708583"><rect height="75" width="122.96058654785156" y="0" x="0" class="er entityBox"></rect><text style="dominant-baseline: middle; text-anchor: middle; font-size: 12px;" transform="translate(61.48029327392578,37.5)" y="0" x="0" id="text-entity-PhysicalConstant-f43f8855-cf72-5deb-8dd3-7b0283708583" class="er entityLabel">PhysicalConstant</text></g><g transform="translate(1854.5751914978027,545 )" id="entity-Prefix-f6d97b99-faee-5974-b12e-390868d79e86"><rect height="75" width="100" y="0" x="0" class="er entityBox"></rect><text style="dominant-baseline: middle; text-anchor: middle; font-size: 12px;" transform="translate(50,37.5)" y="0" x="0" id="text-entity-Prefix-f6d97b99-faee-5974-b12e-390868d79e86" class="er entityLabel">Prefix</text></g><g transform="translate(320,370 )" id="entity-Rule-886caf8e-59ff-5db3-a492-27242971196f"><rect height="75" width="100" y="0" x="0" class="er entityBox"></rect><text style="dominant-baseline: middle; text-anchor: middle; font-size: 12px;" transform="translate(50,37.5)" y="0" x="0" id="text-entity-Rule-886caf8e-59ff-5db3-a492-27242971196f" class="er entityLabel">Rule</text></g><g transform="translate(140.73357391357422,195 )" id="entity-SystemOfQuantityKinds-09c2a533-d4ff-5ffb-9642-53498359216a"><rect height="75" width="158.53285217285156" y="0" x="0" class="er entityBox"></rect><text style="dominant-baseline: middle; text-anchor: middle; font-size: 12px;" transform="translate(79.26642608642578,37.5)" y="0" x="0" id="text-entity-SystemOfQuantityKinds-09c2a533-d4ff-5ffb-9642-53498359216a" class="er entityLabel">SystemOfQuantityKinds</text></g><g transform="translate(2503.5437088012695,370 )" id="entity-SystemOfUnits-f7f1da8e-a5af-50e1-94d0-c2e741f40e1d"><rect height="75" width="109.83651733398438" y="0" x="0" class="er entityBox"></rect><text style="dominant-baseline: middle; text-anchor: middle; font-size: 12px;" transform="translate(54.91825866699219,37.5)" y="0" x="0" id="text-entity-SystemOfUnits-f7f1da8e-a5af-50e1-94d0-c2e741f40e1d" class="er entityLabel">SystemOfUnits</text></g><g transform="translate(2104.186664581299,195 )" id="entity-Unit-c57ac1ea-0a24-509a-a80e-23f8c03ca739"><rect height="75" width="100" y="0" x="0" class="er entityBox"></rect><text style="dominant-baseline: middle; text-anchor: middle; font-size: 12px;" transform="translate(50,37.5)" y="0" x="0" id="text-entity-Unit-c57ac1ea-0a24-509a-a80e-23f8c03ca739" class="er entityLabel">Unit</text></g><g transform="translate(399.2664260864258,195 )" id="entity-DataEncoding-e949680e-a6e4-55c9-9325-aa69226f3e53"><rect height="75" width="105.34048461914062" y="0" x="0" class="er entityBox"></rect><text style="dominant-baseline: middle; text-anchor: middle; font-size: 12px;" transform="translate(52.67024230957031,37.5)" y="0" x="0" id="text-entity-DataEncoding-e949680e-a6e4-55c9-9325-aa69226f3e53" class="er entityLabel">DataEncoding</text></g><g transform="translate(604.6069107055664,195 )" id="entity-Datatype-eedb5402-d0cc-52bf-9fb8-7b914f648cbe"><rect height="75" width="100" y="0" x="0" class="er entityBox"></rect><text style="dominant-baseline: middle; text-anchor: middle; font-size: 12px;" transform="translate(50,37.5)" y="0" x="0" id="text-entity-Datatype-eedb5402-d0cc-52bf-9fb8-7b914f648cbe" class="er entityLabel">Datatype</text></g><g transform="translate(686.9557991027832,370 )" id="entity-QuantityKind-6f79b338-e354-5d95-8035-8883644476ff"><rect height="75" width="101.390625" y="0" x="0" class="er entityBox"></rect><text style="dominant-baseline: middle; text-anchor: middle; font-size: 12px;" transform="translate(50.6953125,37.5)" y="0" x="0" id="text-entity-QuantityKind-6f79b338-e354-5d95-8035-8883644476ff" class="er entityLabel">QuantityKind</text></g><g transform="translate(1082.510368347168,370 )" id="entity-QuantityKindDimensionVector-bfa1bf26-fcae-516f-8f63-2f454f3dac1b"><rect height="75" width="194.19308471679688" y="0" x="0" class="er entityBox"></rect><text style="dominant-baseline: middle; text-anchor: middle; font-size: 12px;" transform="translate(97.09654235839844,37.5)" y="0" x="0" id="text-entity-QuantityKindDimensionVector-bfa1bf26-fcae-516f-8f63-2f454f3dac1b" class="er entityLabel">QuantityKindDimensionVector</text></g><g transform="translate(2918.499164581299,195 )" id="entity-QuantityValue-f2bc13d2-1961-5e2a-9bfe-ab6a05a5860b"><rect height="75" width="106.375" y="0" x="0" class="er entityBox"></rect><text style="dominant-baseline: middle; text-anchor: middle; font-size: 12px;" transform="translate(53.1875,37.5)" y="0" x="0" id="text-entity-QuantityValue-f2bc13d2-1961-5e2a-9bfe-ab6a05a5860b" class="er entityLabel">QuantityValue</text></g><g transform="translate(1852.8564414978027,720 )" id="entity-UCUMcsterm-f108a9d5-75dc-5824-aae7-181f348ae82a"><rect height="75" width="103.4375" y="0" x="0" class="er entityBox"></rect><text style="dominant-baseline: middle; text-anchor: middle; font-size: 12px;" transform="translate(51.71875,37.5)" y="0" x="0" id="text-entity-UCUMcsterm-f108a9d5-75dc-5824-aae7-181f348ae82a" class="er entityLabel">UCUMcs-term</text></g><g transform="translate(320,545 )" id="entity-RuleType-d54df1a6-a17d-5920-9344-6f805c739e55"><rect height="75" width="100" y="0" x="0" class="er entityBox"></rect><text style="dominant-baseline: middle; text-anchor: middle; font-size: 12px;" transform="translate(50,37.5)" y="0" x="0" id="text-entity-RuleType-d54df1a6-a17d-5920-9344-6f805c739e55" class="er entityLabel">RuleType</text></g><g transform="translate(20,370 )" id="entity-Enumeration-f9f59bb4-2616-549b-89c9-bf7c68943800"><rect height="75" width="100" y="0" x="0" class="er entityBox"></rect><text style="dominant-baseline: middle; text-anchor: middle; font-size: 12px;" transform="translate(50,37.5)" y="0" x="0" id="text-entity-Enumeration-f9f59bb4-2616-549b-89c9-bf7c68943800" class="er entityLabel">Enumeration</text></g><g transform="translate(2028.5028381347656,370 )" id="entity-UCUMcs-8df33f70-0c53-5f8e-a81f-0969bc803a34"><rect height="75" width="100" y="0" x="0" class="er entityBox"></rect><text style="dominant-baseline: middle; text-anchor: middle; font-size: 12px;" transform="translate(50,37.5)" y="0" x="0" id="text-entity-UCUMcs-8df33f70-0c53-5f8e-a81f-0969bc803a34" class="er entityLabel">UCUMcs</text></g><g transform="translate(2228.5028381347656,370 )" id="entity-Class-d9e3eb4a-97c0-50b6-8e3f-7f4a2fa7283d"><rect height="75" width="100" y="0" x="0" class="er entityBox"></rect><text style="dominant-baseline: middle; text-anchor: middle; font-size: 12px;" transform="translate(50,37.5)" y="0" x="0" id="text-entity-Class-d9e3eb4a-97c0-50b6-8e3f-7f4a2fa7283d" class="er entityLabel">__Class</text></g><rect height="14" width="74.90850830078125" y="100.33385467529297" x="748.8572082519531" class="er relationshipLabelBox"></rect><text style="text-anchor: middle; dominant-baseline: middle; font-size: 12px;" y="107.33385467529297" x="786.3114624023438" id="rel1" class="er relationshipLabel">dataEncoding</text><rect height="14" width="48.328125" y="102.43758392333984" x="862.1387939453125" class="er relationshipLabelBox"></rect><text style="text-anchor: middle; dominant-baseline: middle; font-size: 12px;" y="109.43758392333984" x="886.3028564453125" id="rel2" class="er relationshipLabel">datatype</text><rect height="14" width="42.404296875" y="178.7157440185547" x="1417.6727294921875" class="er relationshipLabelBox"></rect><text style="text-anchor: middle; dominant-baseline: middle; font-size: 12px;" y="185.7157440185547" x="1438.8748779296875" id="rel3" class="er relationshipLabel">hasUnit</text><rect height="14" width="61.453125" y="50.5" x="1334.87548828125" class="er relationshipLabelBox"></rect><text style="text-anchor: middle; dominant-baseline: middle; font-size: 12px;" y="57.5" x="1365.60205078125" id="rel4" class="er relationshipLabel">exactMatch</text><rect height="14" width="90.4375" y="144.2149658203125" x="851.241943359375" class="er relationshipLabelBox"></rect><text style="text-anchor: middle; dominant-baseline: middle; font-size: 12px;" y="151.2149658203125" x="896.460693359375" id="rel5" class="er relationshipLabel">hasQuantityKind</text><rect height="14" width="111.8487548828125" y="196.50912475585938" x="899.84375" class="er relationshipLabelBox"></rect><text style="text-anchor: middle; dominant-baseline: middle; font-size: 12px;" y="203.50912475585938" x="955.7681274414062" id="rel6" class="er relationshipLabel">hasDimensionVector</text><rect height="14" width="75.265625" y="97.28409576416016" x="2089.963623046875" class="er relationshipLabelBox"></rect><text style="text-anchor: middle; dominant-baseline: middle; font-size: 12px;" y="104.28409576416016" x="2127.596435546875" id="rel7" class="er relationshipLabel">quantityValue</text><rect height="14" width="95.78125" y="114.72926330566406" x="2451.01025390625" class="er relationshipLabelBox"></rect><text style="text-anchor: middle; dominant-baseline: middle; font-size: 12px;" y="121.72926330566406" x="2498.90087890625" id="rel8" class="er relationshipLabel">applicableSystem</text><rect height="14" width="80.3125" y="101.97042083740234" x="2268.92822265625" class="er relationshipLabelBox"></rect><text style="text-anchor: middle; dominant-baseline: middle; font-size: 12px;" y="108.97042083740234" x="2309.08447265625" id="rel9" class="er relationshipLabel">applicableUnit</text><rect height="14" width="61.453125" y="575.5" x="2023.015380859375" class="er relationshipLabelBox"></rect><text style="text-anchor: middle; dominant-baseline: middle; font-size: 12px;" y="582.5" x="2053.741943359375" id="rel10" class="er relationshipLabel">exactMatch</text><rect height="14" width="57.078125" y="663" x="1876.035888671875" class="er relationshipLabelBox"></rect><text style="text-anchor: middle; dominant-baseline: middle; font-size: 12px;" y="670" x="1904.574951171875" id="rel11" class="er relationshipLabel">ucumCode</text><rect height="14" width="46.921875" y="488" x="346.5390625" class="er relationshipLabelBox"></rect><text style="text-anchor: middle; dominant-baseline: middle; font-size: 12px;" y="495" x="370" id="rel12" class="er relationshipLabel">ruleType</text><rect height="14" width="153.203125" y="301.1926574707031" x="19.95055389404297" class="er relationshipLabelBox"></rect><text style="text-anchor: middle; dominant-baseline: middle; font-size: 12px;" y="308.1926574707031" x="96.55211639404297" id="rel13" class="er relationshipLabel">baseDimensionEnumeration</text><rect height="14" width="116.28125" y="350.2198181152344" x="371.1690368652344" class="er relationshipLabelBox"></rect><text style="text-anchor: middle; dominant-baseline: middle; font-size: 12px;" y="357.2198181152344" x="429.3096618652344" id="rel14" class="er relationshipLabel">hasBaseQuantityKind</text><rect height="14" width="90.4375" y="345.1642761230469" x="414.9695129394531" class="er relationshipLabelBox"></rect><text style="text-anchor: middle; dominant-baseline: middle; font-size: 12px;" y="352.1642761230469" x="460.1882629394531" id="rel15" class="er relationshipLabel">hasQuantityKind</text><rect height="14" width="151.046875" y="336.0315246582031" x="410.1790466308594" class="er relationshipLabelBox"></rect><text style="text-anchor: middle; dominant-baseline: middle; font-size: 12px;" y="343.0315246582031" x="485.7024841308594" id="rel16" class="er relationshipLabel">systemDerivedQuantityKind</text><rect height="14" width="43.296875" y="289.16241455078125" x="384.4942932128906" class="er relationshipLabelBox"></rect><text style="text-anchor: middle; dominant-baseline: middle; font-size: 12px;" y="296.16241455078125" x="406.1427307128906" id="rel17" class="er relationshipLabel">hasRule</text><rect height="14" width="80.5625" y="347.0455017089844" x="1358.58740234375" class="er relationshipLabelBox"></rect><text style="text-anchor: middle; dominant-baseline: middle; font-size: 12px;" y="354.0455017089844" x="1398.86865234375" id="rel18" class="er relationshipLabel">hasUnitSystem</text><rect height="13.999992370605469" width="149.9130859375" y="118.33976364135742" x="2619.7431640625" class="er relationshipLabelBox"></rect><text style="text-anchor: middle; dominant-baseline: middle; font-size: 12px;" y="125.33975982666016" x="2694.69970703125" id="rel19" class="er relationshipLabel">applicablePhysicalConstant</text><rect height="14" width="30.840087890625" y="525.5901489257812" x="2253.0357666015625" class="er relationshipLabelBox"></rect><text style="text-anchor: middle; dominant-baseline: middle; font-size: 12px;" y="532.5901489257812" x="2268.455810546875" id="rel20" class="er relationshipLabel">prefix</text><rect height="14" width="85.58056640625" y="291.830810546875" x="2315.6689453125" class="er relationshipLabelBox"></rect><text style="text-anchor: middle; dominant-baseline: middle; font-size: 12px;" y="298.830810546875" x="2358.459228515625" id="rel21" class="er relationshipLabel">hasAllowedUnit</text><rect height="14" width="68.25244140625" y="280.9729309082031" x="2352.347412109375" class="er relationshipLabelBox"></rect><text style="text-anchor: middle; dominant-baseline: middle; font-size: 12px;" y="287.9729309082031" x="2386.4736328125" id="rel22" class="er relationshipLabel">hasBaseUnit</text><rect height="14" width="91.640625" y="276.1274719238281" x="2376.703125" class="er relationshipLabelBox"></rect><text style="text-anchor: middle; dominant-baseline: middle; font-size: 12px;" y="283.1274719238281" x="2422.5234375" id="rel23" class="er relationshipLabel">hasCoherentUnit</text><rect height="14" width="84.320556640625" y="275.1861877441406" x="2427.8262939453125" class="er relationshipLabelBox"></rect><text style="text-anchor: middle; dominant-baseline: middle; font-size: 12px;" y="282.1861877441406" x="2469.986572265625" id="rel24" class="er relationshipLabel">hasDefinedUnit</text><rect height="14" width="133.496826171875" y="276.0198059082031" x="2459.2247314453125" class="er relationshipLabelBox"></rect><text style="text-anchor: middle; dominant-baseline: middle; font-size: 12px;" y="283.0198059082031" x="2525.97314453125" id="rel25" class="er relationshipLabel">hasDerivedCoherentUnit</text><rect height="14" width="84.260498046875" y="277.14959716796875" x="2543.3170166015625" class="er relationshipLabelBox"></rect><text style="text-anchor: middle; dominant-baseline: middle; font-size: 12px;" y="284.14959716796875" x="2585.447265625" id="rel26" class="er relationshipLabel">hasDerivedUnit</text><rect height="14" width="42.404296875" y="278.3538818359375" x="2625.84814453125" class="er relationshipLabelBox"></rect><text style="text-anchor: middle; dominant-baseline: middle; font-size: 12px;" y="285.3538818359375" x="2647.05029296875" id="rel27" class="er relationshipLabel">hasUnit</text><rect height="14" width="111.8487548828125" y="272.0203857421875" x="1540.5781860351562" class="er relationshipLabelBox"></rect><text style="text-anchor: middle; dominant-baseline: middle; font-size: 12px;" y="279.0203857421875" x="1596.5025634765625" id="rel28" class="er relationshipLabel">hasDimensionVector</text><rect height="14" width="97.9886474609375" y="273.5668640136719" x="1582.5300903320312" class="er relationshipLabelBox"></rect><text style="text-anchor: middle; dominant-baseline: middle; font-size: 12px;" y="280.5668640136719" x="1631.5244140625" id="rel29" class="er relationshipLabel">qkdvDenominator</text><rect height="14" width="85.1966552734375" y="276.3800354003906" x="1615.4806518554688" class="er relationshipLabelBox"></rect><text style="text-anchor: middle; dominant-baseline: middle; font-size: 12px;" y="283.3800354003906" x="1658.0789794921875" id="rel30" class="er relationshipLabel">qkdvNumerator</text><rect height="14" width="30.8402099609375" y="323.8702087402344" x="1490.4889526367188" class="er relationshipLabelBox"></rect><text style="text-anchor: middle; dominant-baseline: middle; font-size: 12px;" y="330.8702087402344" x="1505.9090576171875" id="rel31" class="er relationshipLabel">prefix</text><rect height="14" width="90.4375" y="319.8124694824219" x="1401.8074951171875" class="er relationshipLabelBox"></rect><text style="text-anchor: middle; dominant-baseline: middle; font-size: 12px;" y="326.8124694824219" x="1447.0262451171875" id="rel32" class="er relationshipLabel">hasQuantityKind</text><rect height="14" width="95.78125" y="346.4979248046875" x="1979.7921142578125" class="er relationshipLabelBox"></rect><text style="text-anchor: middle; dominant-baseline: middle; font-size: 12px;" y="353.4979248046875" x="2027.6827392578125" id="rel33" class="er relationshipLabel">applicableSystem</text><rect height="14" width="115.203125" y="347.6680603027344" x="2032.599365234375" class="er relationshipLabelBox"></rect><text style="text-anchor: middle; dominant-baseline: middle; font-size: 12px;" y="354.6680603027344" x="2090.200927734375" id="rel34" class="er relationshipLabel">definedUnitOfSystem</text><rect height="14" width="164.390625" y="348.8231506347656" x="2068.923095703125" class="er relationshipLabelBox"></rect><text style="text-anchor: middle; dominant-baseline: middle; font-size: 12px;" y="355.8231506347656" x="2151.118408203125" id="rel35" class="er relationshipLabel">derivedCoherentUnitOfSystem</text><rect height="14" width="115.15625" y="349.8123474121094" x="2151.82958984375" class="er relationshipLabelBox"></rect><text style="text-anchor: middle; dominant-baseline: middle; font-size: 12px;" y="356.8123474121094" x="2209.40771484375" id="rel36" class="er relationshipLabel">derivedUnitOfSystem</text><rect height="14" width="82.828125" y="350.385986328125" x="2222.162109375" class="er relationshipLabelBox"></rect><text style="text-anchor: middle; dominant-baseline: middle; font-size: 12px;" y="357.385986328125" x="2263.576171875" id="rel37" class="er relationshipLabel">isUnitOfSystem</text><rect height="14" width="57.078125" y="314.62933349609375" x="2096.65478515625" class="er relationshipLabelBox"></rect><text style="text-anchor: middle; dominant-baseline: middle; font-size: 12px;" y="321.62933349609375" x="2125.19384765625" id="rel38" class="er relationshipLabel">ucumCode</text><rect height="14" width="61.453125" y="225.5" x="2541.14453125" class="er relationshipLabelBox"></rect><text style="text-anchor: middle; dominant-baseline: middle; font-size: 12px;" y="232.5" x="2571.87109375" id="rel39" class="er relationshipLabel">exactMatch</text><rect height="14" width="99.0927734375" y="225.50003051757812" x="2626.213623046875" class="er relationshipLabelBox"></rect><text style="text-anchor: middle; dominant-baseline: middle; font-size: 12px;" y="232.50003051757812" x="2675.760009765625" id="rel40" class="er relationshipLabel">hasReciprocalUnit</text><rect height="14" width="51.104248046875" y="225.50006103515625" x="2754.0958251953125" class="er relationshipLabelBox"></rect><text style="text-anchor: middle; dominant-baseline: middle; font-size: 12px;" y="232.50006103515625" x="2779.64794921875" id="rel41" class="er relationshipLabel">scalingOf</text><rect height="14" width="75.632568359375" y="292.0297546386719" x="2242.3140869140625" class="er relationshipLabelBox"></rect><text style="text-anchor: middle; dominant-baseline: middle; font-size: 12px;" y="299.0297546386719" x="2280.13037109375" id="rel42" class="er relationshipLabel">hasFactorUnit</text></svg>