<svg aria-roledescription="er" role="graphics-document document" viewBox="-541.2119750976562 0 4824.52783203125 990" height="990" xmlns="http://www.w3.org/2000/svg" width="4824.52783203125" id="container"><style>#container{font-family:"trebuchet ms",verdana,arial,sans-serif;font-size:16px;fill:#333;}#container .error-icon{fill:#552222;}#container .error-text{fill:#552222;stroke:#552222;}#container .edge-thickness-normal{stroke-width:1px;}#container .edge-thickness-thick{stroke-width:3.5px;}#container .edge-pattern-solid{stroke-dasharray:0;}#container .edge-thickness-invisible{stroke-width:0;fill:none;}#container .edge-pattern-dashed{stroke-dasharray:3;}#container .edge-pattern-dotted{stroke-dasharray:2;}#container .marker{fill:#333333;stroke:#333333;}#container .marker.cross{stroke:#333333;}#container svg{font-family:"trebuchet ms",verdana,arial,sans-serif;font-size:16px;}#container p{margin:0;}#container .entityBox{fill:#ECECFF;stroke:#9370DB;}#container .attributeBoxOdd{fill:#ffffff;stroke:#9370DB;}#container .attributeBoxEven{fill:#f2f2f2;stroke:#9370DB;}#container .relationshipLabelBox{fill:hsl(80, 100%, 96.2745098039%);opacity:0.7;background-color:hsl(80, 100%, 96.2745098039%);}#container .relationshipLabelBox rect{opacity:0.5;}#container .relationshipLine{stroke:#333333;}#container .entityTitleText{text-anchor:middle;font-size:18px;fill:#333;}#container #MD_PARENT_START{fill:#f5f5f5!important;stroke:#333333!important;stroke-width:1;}#container #MD_PARENT_END{fill:#f5f5f5!important;stroke:#333333!important;stroke-width:1;}#container :root{--mermaid-font-family:"trebuchet ms",verdana,arial,sans-serif;}</style><g></g><defs><marker orient="auto" markerHeight="240" markerWidth="190" refY="7" refX="0" id="MD_PARENT_START"><path d="M 18,7 L9,13 L1,7 L9,1 Z"></path></marker></defs><defs><marker orient="auto" markerHeight="28" markerWidth="20" refY="7" refX="19" id="MD_PARENT_END"><path d="M 18,7 L9,13 L1,7 L9,1 Z"></path></marker></defs><defs><marker orient="auto" markerHeight="18" markerWidth="18" refY="9" refX="0" id="ONLY_ONE_START"><path d="M9,0 L9,18 M15,0 L15,18" fill="none" stroke="gray"></path></marker></defs><defs><marker orient="auto" markerHeight="18" markerWidth="18" refY="9" refX="18" id="ONLY_ONE_END"><path d="M3,0 L3,18 M9,0 L9,18" fill="none" stroke="gray"></path></marker></defs><defs><marker orient="auto" markerHeight="18" markerWidth="30" refY="9" refX="0" id="ZERO_OR_ONE_START"><circle r="6" cy="9" cx="21" fill="white" stroke="gray"></circle><path d="M9,0 L9,18" fill="none" stroke="gray"></path></marker></defs><defs><marker orient="auto" markerHeight="18" markerWidth="30" refY="9" refX="30" id="ZERO_OR_ONE_END"><circle r="6" cy="9" cx="9" fill="white" stroke="gray"></circle><path d="M21,0 L21,18" fill="none" stroke="gray"></path></marker></defs><defs><marker orient="auto" markerHeight="36" markerWidth="45" refY="18" refX="18" id="ONE_OR_MORE_START"><path d="M0,18 Q 18,0 36,18 Q 18,36 0,18 M42,9 L42,27" fill="none" stroke="gray"></path></marker></defs><defs><marker orient="auto" markerHeight="36" markerWidth="45" refY="18" refX="27" id="ONE_OR_MORE_END"><path d="M3,9 L3,27 M9,18 Q27,0 45,18 Q27,36 9,18" fill="none" stroke="gray"></path></marker></defs><defs><marker orient="auto" markerHeight="36" markerWidth="57" refY="18" refX="18" id="ZERO_OR_MORE_START"><circle r="6" cy="18" cx="48" fill="white" stroke="gray"></circle><path d="M0,18 Q18,0 36,18 Q18,36 0,18" fill="none" stroke="gray"></path></marker></defs><defs><marker orient="auto" markerHeight="36" markerWidth="57" refY="18" refX="39" id="ZERO_OR_MORE_END"><circle r="6" cy="18" cx="9" fill="white" stroke="gray"></circle><path d="M21,18 Q39,0 57,18 Q39,36 21,18" fill="none" stroke="gray"></path></marker></defs><path style="stroke: gray; fill: none;" marker-start="url(#ONLY_ONE_START)" marker-end="url(#ZERO_OR_MORE_END)" d="M1673.316,753.328L1739.892,747.774C1806.467,742.219,1939.618,731.109,2022.837,725.555C2106.057,720,2139.345,720,2172.632,726.25C2205.92,732.5,2239.208,745,2239.208,757.5C2239.208,770,2205.92,782.5,2172.632,788.75C2139.345,795,2106.057,795,2022.837,789.445C1939.618,783.891,1806.467,772.781,1739.892,767.226L1673.316,761.672" class="er relationshipLine"></path><path style="stroke: gray; fill: none;" marker-start="url(#ONLY_ONE_START)" marker-end="url(#ZERO_OR_MORE_END)" d="M1623.316,795L1623.316,803.333C1623.316,811.667,1623.316,828.333,1623.316,845C1623.316,861.667,1623.316,878.333,1623.316,886.667L1623.316,895" class="er relationshipLine"></path><path style="stroke: gray; fill: none;" marker-start="url(#ONLY_ONE_START)" marker-end="url(#ZERO_OR_ONE_END)" d="M759.814,237.394L617.201,251.162C474.588,264.929,189.362,292.465,46.749,320.816C-95.864,349.167,-95.864,378.333,-95.864,407.5C-95.864,436.667,-95.864,465.833,-75.582,488.75C-55.3,511.667,-14.736,528.333,5.546,536.667L25.828,545" class="er relationshipLine"></path><path style="stroke: gray; fill: none;" marker-start="url(#ONLY_ONE_START)" marker-end="url(#ZERO_OR_ONE_END)" d="M759.814,238.001L633.868,251.667C507.921,265.334,256.029,292.667,130.082,320.917C4.136,349.167,4.136,378.333,4.136,407.5C4.136,436.667,4.136,465.833,14.894,488.75C25.652,511.667,47.169,528.333,57.927,536.667L68.685,545" class="er relationshipLine"></path><path style="stroke: gray; fill: none;" marker-start="url(#ONLY_ONE_START)" marker-end="url(#ZERO_OR_ONE_END)" d="M759.814,239.839L667.527,253.199C575.239,266.559,390.664,293.28,298.377,314.973C206.089,336.667,206.089,353.333,206.089,361.667L206.089,370" class="er relationshipLine"></path><path style="stroke: gray; fill: none;" marker-start="url(#ONLY_ONE_START)" marker-end="url(#ZERO_OR_MORE_END)" d="M861.205,230.552L1015.367,224.626C1169.529,218.701,1477.853,206.851,1670.556,200.925C1863.258,195,1940.339,195,2017.421,201.25C2094.502,207.5,2171.583,220,2171.583,232.5C2171.583,245,2094.502,257.5,2017.421,263.75C1940.339,270,1863.258,270,1670.556,264.075C1477.853,258.149,1169.529,246.299,1015.367,240.374L861.205,234.448" class="er relationshipLine"></path><path style="stroke: gray; fill: none;" marker-start="url(#ONLY_ONE_START)" marker-end="url(#ZERO_OR_MORE_END)" d="M759.814,243.522L701.185,256.268C642.557,269.014,525.3,294.507,466.671,321.837C408.042,349.167,408.042,378.333,408.042,407.5C408.042,436.667,408.042,465.833,375.734,490.133C343.426,514.433,278.809,533.866,246.501,543.582L214.193,553.299" class="er relationshipLine"></path><path style="stroke: gray; fill: none;" marker-start="url(#ONLY_ONE_START)" marker-end="url(#ZERO_OR_MORE_END)" d="M759.814,252.374L731.063,263.645C702.312,274.916,644.81,297.458,616.06,317.062C587.309,336.667,587.309,353.333,587.309,361.667L587.309,370" class="er relationshipLine"></path><path style="stroke: gray; fill: none;" marker-start="url(#ONLY_ONE_START)" marker-end="url(#ZERO_OR_MORE_END)" d="M759.814,268.505L747.73,277.088C735.646,285.67,711.477,302.835,965.928,325.559C1220.378,348.282,1753.447,376.565,2019.982,390.706L2286.517,404.847" class="er relationshipLine"></path><path style="stroke: gray; fill: none;" marker-start="url(#ONLY_ONE_START)" marker-end="url(#ZERO_OR_MORE_END)" d="M800.566,270L798.357,278.333C796.147,286.667,791.728,303.333,1039.386,325.779C1287.045,348.225,1786.781,376.451,2036.649,390.563L2286.517,404.676" class="er relationshipLine"></path><path style="stroke: gray; fill: none;" marker-start="url(#ONLY_ONE_START)" marker-end="url(#ZERO_OR_MORE_END)" d="M843.423,270L850.738,278.333C858.052,286.667,872.68,303.333,1113.196,325.747C1353.711,348.16,1820.114,376.321,2053.315,390.401L2286.517,404.481" class="er relationshipLine"></path><path style="stroke: gray; fill: none;" marker-start="url(#ONLY_ONE_START)" marker-end="url(#ZERO_OR_MORE_END)" d="M861.205,257.59L882.222,267.991C903.239,278.393,945.274,299.197,1182.826,323.641C1420.378,348.086,1853.447,376.172,2069.982,390.214L2286.517,404.257" class="er relationshipLine"></path><path style="stroke: gray; fill: none;" marker-start="url(#ONLY_ONE_START)" marker-end="url(#ZERO_OR_MORE_END)" d="M861.205,248.525L898.889,260.438C936.573,272.35,1011.941,296.175,1249.493,322.087C1487.045,347.999,1886.781,375.999,2086.649,389.998L2286.517,403.998" class="er relationshipLine"></path><path style="stroke: gray; fill: none;" marker-start="url(#ONLY_ONE_START)" marker-end="url(#ZERO_OR_MORE_END)" d="M861.205,244.272L915.555,256.894C969.906,269.515,1078.607,294.757,1316.159,321.328C1553.711,347.898,1920.114,375.795,2103.315,389.744L2286.517,403.693" class="er relationshipLine"></path><path style="stroke: gray; fill: none;" marker-start="url(#ONLY_ONE_START)" marker-end="url(#ZERO_OR_MORE_END)" d="M214.193,575.24L393.046,561.867C571.898,548.493,929.603,521.747,1108.456,493.79C1287.309,465.833,1287.309,436.667,1287.309,407.5C1287.309,378.333,1287.309,349.167,1216.291,321.551C1145.274,293.934,1003.239,267.869,932.222,254.836L861.205,241.803" class="er relationshipLine"></path><path style="stroke: gray; fill: none;" marker-start="url(#ONLY_ONE_START)" marker-end="url(#ZERO_OR_MORE_END)" d="M117.097,620L117.097,628.333C117.097,636.667,117.097,653.333,117.097,670C117.097,686.667,117.097,703.333,117.097,711.667L117.097,720" class="er relationshipLine"></path><path style="stroke: gray; fill: none;" marker-start="url(#ONLY_ONE_START)" marker-end="url(#ZERO_OR_MORE_END)" d="M117.097,795L117.097,803.333C117.097,811.667,117.097,828.333,117.097,845C117.097,861.667,117.097,878.333,117.097,886.667L117.097,895" class="er relationshipLine"></path><path style="stroke: gray; fill: none;" marker-start="url(#ONLY_ONE_START)" marker-end="url(#ZERO_OR_ONE_END)" d="M3480.952,58.698L2813.925,73.082C2146.898,87.465,812.843,116.233,145.816,145.2C-521.212,174.167,-521.212,203.333,-521.212,232.5C-521.212,261.667,-521.212,290.833,-521.212,320C-521.212,349.167,-521.212,378.333,-521.212,407.5C-521.212,436.667,-521.212,465.833,-431.01,492.782C-340.808,519.73,-160.404,544.46,-70.202,556.825L20,569.19" class="er relationshipLine"></path><path style="stroke: gray; fill: none;" marker-start="url(#ONLY_ONE_START)" marker-end="url(#ZERO_OR_ONE_END)" d="M3480.952,58.728L2830.592,73.107C2180.231,87.486,879.51,116.243,229.149,145.205C-421.212,174.167,-421.212,203.333,-421.212,232.5C-421.212,261.667,-421.212,290.833,-421.212,320C-421.212,349.167,-421.212,378.333,-421.212,407.5C-421.212,436.667,-421.212,465.833,-347.676,492.37C-274.141,518.906,-127.071,542.812,-53.535,554.764L20,566.717" class="er relationshipLine"></path><path style="stroke: gray; fill: none;" marker-start="url(#ONLY_ONE_START)" marker-end="url(#ZERO_OR_ONE_END)" d="M3480.952,58.76L2847.258,73.134C2213.564,87.507,946.176,116.253,312.482,145.21C-321.212,174.167,-321.212,203.333,-321.212,232.5C-321.212,261.667,-321.212,290.833,-321.212,320C-321.212,349.167,-321.212,378.333,-321.212,407.5C-321.212,436.667,-321.212,465.833,-264.343,491.769C-207.474,517.705,-93.737,540.411,-36.869,551.764L20,563.116" class="er relationshipLine"></path><path style="stroke: gray; fill: none;" marker-start="url(#ONLY_ONE_START)" marker-end="url(#ZERO_OR_MORE_END)" d="M3480.952,58.794L2863.925,73.162C2246.898,87.529,1012.843,116.265,395.816,145.216C-221.212,174.167,-221.212,203.333,-221.212,232.5C-221.212,261.667,-221.212,290.833,-221.212,320C-221.212,349.167,-221.212,378.333,-221.212,407.5C-221.212,436.667,-221.212,465.833,-221.212,495C-221.212,524.167,-221.212,553.333,-221.212,582.5C-221.212,611.667,-221.212,640.833,77.876,669.605C376.964,698.376,975.14,726.752,1274.228,740.94L1573.316,755.128" class="er relationshipLine"></path><path style="stroke: gray; fill: none;" marker-start="url(#ONLY_ONE_START)" marker-end="url(#ZERO_OR_MORE_END)" d="M3480.952,59.284L3035.879,73.57C2590.805,87.856,1700.657,116.428,1255.583,139.047C810.509,161.667,810.509,178.333,810.509,186.667L810.509,195" class="er relationshipLine"></path><path style="stroke: gray; fill: none;" marker-start="url(#ONLY_ONE_START)" marker-end="url(#ZERO_OR_MORE_END)" d="M3480.952,79.283L3453.013,90.235C3425.074,101.188,3369.195,123.094,3341.255,148.63C3313.316,174.167,3313.316,203.333,3313.316,232.5C3313.316,261.667,3313.316,290.833,3313.316,320C3313.316,349.167,3313.316,378.333,3313.316,407.5C3313.316,436.667,3313.316,465.833,3224.136,493.643C3134.956,521.452,2956.595,547.904,2867.415,561.129L2778.234,574.355" class="er relationshipLine"></path><path style="stroke: gray; fill: none;" marker-start="url(#ONLY_ONE_START)" marker-end="url(#ZERO_OR_MORE_END)" d="M3483.716,95L3471.983,103.333C3460.25,111.667,3436.783,128.333,3425.049,151.25C3413.316,174.167,3413.316,203.333,3413.316,232.5C3413.316,261.667,3413.316,290.833,3413.316,320C3413.316,349.167,3413.316,378.333,3413.316,407.5C3413.316,436.667,3413.316,465.833,3307.469,493.839C3201.622,521.845,2989.928,548.69,2884.081,562.113L2778.234,575.536" class="er relationshipLine"></path><path style="stroke: gray; fill: none;" marker-start="url(#ONLY_ONE_START)" marker-end="url(#ZERO_OR_MORE_END)" d="M3526.574,95L3524.364,103.333C3522.154,111.667,3517.735,128.333,3515.526,151.25C3513.316,174.167,3513.316,203.333,3513.316,232.5C3513.316,261.667,3513.316,290.833,3513.316,320C3513.316,349.167,3513.316,378.333,3513.316,407.5C3513.316,436.667,3513.316,465.833,3390.802,493.986C3268.289,522.139,3023.262,549.278,2900.748,562.848L2778.234,576.417" class="er relationshipLine"></path><path style="stroke: gray; fill: none;" marker-start="url(#ONLY_ONE_START)" marker-end="url(#ZERO_OR_MORE_END)" d="M3569.431,95L3576.745,103.333C3584.059,111.667,3598.688,128.333,3606.002,151.25C3613.316,174.167,3613.316,203.333,3613.316,232.5C3613.316,261.667,3613.316,290.833,3613.316,320C3613.316,349.167,3613.316,378.333,3613.316,407.5C3613.316,436.667,3613.316,465.833,3474.136,494.1C3334.956,522.367,3056.595,549.734,2917.415,563.417L2778.234,577.101" class="er relationshipLine"></path><path style="stroke: gray; fill: none;" marker-start="url(#ONLY_ONE_START)" marker-end="url(#ZERO_OR_MORE_END)" d="M3592.081,84.999L3612.287,94.999C3632.493,105,3672.904,125,3693.11,149.583C3713.316,174.167,3713.316,203.333,3713.316,232.5C3713.316,261.667,3713.316,290.833,3713.316,320C3713.316,349.167,3713.316,378.333,3713.316,407.5C3713.316,436.667,3713.316,465.833,3557.469,494.191C3401.622,522.549,3089.928,550.097,2934.081,563.872L2778.234,577.646" class="er relationshipLine"></path><path style="stroke: gray; fill: none;" marker-start="url(#ONLY_ONE_START)" marker-end="url(#ZERO_OR_MORE_END)" d="M3592.081,75.065L3628.953,86.721C3665.826,98.376,3739.571,121.688,3776.444,147.927C3813.316,174.167,3813.316,203.333,3813.316,232.5C3813.316,261.667,3813.316,290.833,3813.316,320C3813.316,349.167,3813.316,378.333,3813.316,407.5C3813.316,436.667,3813.316,465.833,3813.316,488.75C3813.316,511.667,3813.316,528.333,3813.316,536.667L3813.316,545" class="er relationshipLine"></path><path style="stroke: gray; fill: none;" marker-start="url(#ONLY_ONE_START)" marker-end="url(#ZERO_OR_MORE_END)" d="M3592.081,70.403L3645.62,82.836C3699.159,95.269,3806.238,120.134,3859.777,147.151C3913.316,174.167,3913.316,203.333,3913.316,232.5C3913.316,261.667,3913.316,290.833,3658.85,319.538C3404.383,348.242,2895.45,376.484,2640.983,390.604L2386.517,404.725" class="er relationshipLine"></path><path style="stroke: gray; fill: none;" marker-start="url(#ONLY_ONE_START)" marker-end="url(#ZERO_OR_MORE_END)" d="M3592.081,67.697L3662.287,80.581C3732.493,93.465,3872.904,119.232,3943.11,146.699C4013.316,174.167,4013.316,203.333,4013.316,232.5C4013.316,261.667,4013.316,290.833,3742.183,319.565C3471.05,348.297,2928.783,376.594,2657.65,390.742L2386.517,404.891" class="er relationshipLine"></path><path style="stroke: gray; fill: none;" marker-start="url(#ONLY_ONE_START)" marker-end="url(#ZERO_OR_MORE_END)" d="M3592.081,65.929L3678.953,79.108C3765.826,92.286,3939.571,118.643,4026.444,146.405C4113.316,174.167,4113.316,203.333,4113.316,232.5C4113.316,261.667,4113.316,290.833,3825.516,319.59C3537.716,348.346,2962.117,376.692,2674.317,390.865L2386.517,405.038" class="er relationshipLine"></path><path style="stroke: gray; fill: none;" marker-start="url(#ONLY_ONE_START)" marker-end="url(#ZERO_OR_MORE_END)" d="M3592.081,64.684L3695.62,78.07C3799.159,91.456,4006.238,118.228,4109.777,146.197C4213.316,174.167,4213.316,203.333,4213.316,232.5C4213.316,261.667,4213.316,290.833,4213.316,320C4213.316,349.167,4213.316,378.333,4213.316,407.5C4213.316,436.667,4213.316,465.833,4213.316,488.75C4213.316,511.667,4213.316,528.333,4213.316,536.667L4213.316,545" class="er relationshipLine"></path><path style="stroke: gray; fill: none;" marker-start="url(#ONLY_ONE_START)" marker-end="url(#ZERO_OR_MORE_END)" d="M2668.398,588.243L2538.084,601.869C2407.771,615.495,2147.144,642.748,2098.66,669.334C2050.176,695.921,2213.836,721.842,2295.666,734.802L2377.496,747.763" class="er relationshipLine"></path><path style="stroke: gray; fill: none;" marker-start="url(#ONLY_ONE_START)" marker-end="url(#ZERO_OR_MORE_END)" d="M2744.745,620L2749.507,628.333C2754.268,636.667,2763.792,653.333,2585.221,675.616C2406.649,697.899,2039.983,725.797,1856.649,739.746L1673.316,753.696" class="er relationshipLine"></path><path style="stroke: gray; fill: none;" marker-start="url(#ONLY_ONE_START)" marker-end="url(#ZERO_OR_MORE_END)" d="M2668.398,552.921L2650.474,543.268C2632.551,533.614,2596.704,514.307,2549.724,493.32C2502.744,472.334,2444.63,449.668,2415.573,438.335L2386.517,427.002" class="er relationshipLine"></path><path style="stroke: gray; fill: none;" marker-start="url(#ONLY_ONE_START)" marker-end="url(#ZERO_OR_MORE_END)" d="M2696.548,545L2690.599,536.667C2684.651,528.333,2672.754,511.667,2621.082,490.998C2569.41,470.33,2477.963,445.659,2432.24,433.324L2386.517,420.989" class="er relationshipLine"></path><path style="stroke: gray; fill: none;" marker-start="url(#ONLY_ONE_START)" marker-end="url(#ZERO_OR_MORE_END)" d="M2739.405,545L2742.98,536.667C2746.556,528.333,2753.706,511.667,2694.892,490.468C2636.077,469.27,2511.297,443.54,2448.907,430.675L2386.517,417.81" class="er relationshipLine"></path><path style="stroke: gray; fill: none;" marker-start="url(#ONLY_ONE_START)" marker-end="url(#ZERO_OR_MORE_END)" d="M2778.234,547.562L2792.005,538.802C2805.775,530.042,2833.316,512.521,2768.03,490.568C2702.744,468.615,2544.63,442.229,2465.573,429.037L2386.517,415.844" class="er relationshipLine"></path><path style="stroke: gray; fill: none;" marker-start="url(#ONLY_ONE_START)" marker-end="url(#ZERO_OR_MORE_END)" d="M2778.234,562.27L2808.671,551.059C2839.109,539.847,2899.983,517.423,2834.696,492.796C2769.41,468.169,2577.963,441.338,2482.24,427.923L2386.517,414.507" class="er relationshipLine"></path><path style="stroke: gray; fill: none;" marker-start="url(#ONLY_ONE_START)" marker-end="url(#ZERO_OR_MORE_END)" d="M2778.234,568.264L2825.338,556.053C2872.442,543.842,2966.649,519.421,2901.363,493.634C2836.077,467.847,2611.297,440.693,2498.907,427.117L2386.517,413.54" class="er relationshipLine"></path><path style="stroke: gray; fill: none;" marker-start="url(#ONLY_ONE_START)" marker-end="url(#ZERO_OR_MORE_END)" d="M2778.234,571.517L2842.005,558.764C2905.775,546.012,3033.316,520.506,2968.03,494.054C2902.744,467.602,2644.63,440.205,2515.573,426.506L2386.517,412.807" class="er relationshipLine"></path><path style="stroke: gray; fill: none;" marker-start="url(#ONLY_ONE_START)" marker-end="url(#ZERO_OR_ONE_END)" d="M2286.517,412.225L2140.515,426.02C1994.514,439.816,1702.512,467.408,1357.125,494.693C1011.737,521.977,612.965,548.954,413.579,562.443L214.193,575.931" class="er relationshipLine"></path><path style="stroke: gray; fill: none;" marker-start="url(#ONLY_ONE_START)" marker-end="url(#ZERO_OR_ONE_END)" d="M2286.517,412.797L2157.182,426.497C2027.848,440.198,1769.178,467.599,1423.791,494.867C1078.404,522.134,646.298,549.269,430.246,562.836L214.193,576.403" class="er relationshipLine"></path><path style="stroke: gray; fill: none;" marker-start="url(#ONLY_ONE_START)" marker-end="url(#ZERO_OR_ONE_END)" d="M2286.517,413.526L2173.849,427.105C2061.181,440.684,1835.845,467.842,1490.458,495.056C1145.071,522.27,679.632,549.541,446.912,563.176L214.193,576.811" class="er relationshipLine"></path><path style="stroke: gray; fill: none;" marker-start="url(#ONLY_ONE_START)" marker-end="url(#ZERO_OR_MORE_END)" d="M2286.517,415.076L2198.607,428.397C2110.697,441.718,1934.877,468.359,1846.967,496.263C1759.058,524.167,1759.058,553.333,1759.058,582.5C1759.058,611.667,1759.058,640.833,1744.767,664.628C1730.477,688.423,1701.897,706.846,1687.606,716.058L1673.316,725.27" class="er relationshipLine"></path><path style="stroke: gray; fill: none;" marker-start="url(#ONLY_ONE_START)" marker-end="url(#ZERO_OR_MORE_END)" d="M2336.517,370L2336.517,361.667C2336.517,353.333,2336.517,336.667,2090.631,314.234C1844.746,291.802,1352.975,263.605,1107.09,249.506L861.205,235.407" class="er relationshipLine"></path><path style="stroke: gray; fill: none;" marker-start="url(#ONLY_ONE_START)" marker-end="url(#ZERO_OR_MORE_END)" d="M2286.517,416.698L2215.573,429.748C2144.63,442.799,2002.744,468.899,2066.39,495.604C2130.037,522.309,2399.218,549.619,2533.808,563.274L2668.398,576.928" class="er relationshipLine"></path><path style="stroke: gray; fill: none;" marker-start="url(#ONLY_ONE_START)" marker-end="url(#ZERO_OR_MORE_END)" d="M2286.517,419.146L2232.24,431.788C2177.963,444.431,2069.41,469.715,2133.057,495.891C2196.704,522.066,2432.551,549.132,2550.474,562.665L2668.398,576.198" class="er relationshipLine"></path><path style="stroke: gray; fill: none;" marker-start="url(#ONLY_ONE_START)" marker-end="url(#ZERO_OR_MORE_END)" d="M2286.517,423.371L2248.907,435.309C2211.297,447.247,2136.077,471.124,2199.724,496.436C2263.371,521.749,2465.884,548.497,2567.141,561.872L2668.398,575.246" class="er relationshipLine"></path><path style="stroke: gray; fill: none;" marker-start="url(#ONLY_ONE_START)" marker-end="url(#ZERO_OR_MORE_END)" d="M2286.517,432.406L2265.573,442.838C2244.63,453.271,2202.744,474.135,2266.39,497.727C2330.037,521.319,2499.218,547.638,2583.808,560.797L2668.398,573.957" class="er relationshipLine"></path><path style="stroke: gray; fill: none;" marker-start="url(#ONLY_ONE_START)" marker-end="url(#ZERO_OR_MORE_END)" d="M2304.091,445L2296.885,453.333C2289.68,461.667,2275.268,478.333,2335.986,499.518C2396.704,520.703,2532.551,546.406,2600.474,559.258L2668.398,572.109" class="er relationshipLine"></path><path style="stroke: gray; fill: none;" marker-start="url(#ONLY_ONE_START)" marker-end="url(#ZERO_OR_MORE_END)" d="M2346.948,445L2349.266,453.333C2351.584,461.667,2356.221,478.333,2592.282,500.748C2828.343,523.163,3295.83,551.325,3529.573,565.407L3763.316,579.488" class="er relationshipLine"></path><path style="stroke: gray; fill: none;" marker-start="url(#ONLY_ONE_START)" marker-end="url(#ZERO_OR_MORE_END)" d="M2386.517,403.344L2453.383,397.787C2520.25,392.23,2653.983,381.115,2737.566,375.557C2821.15,370,2854.583,370,2888.016,376.25C2921.449,382.5,2954.883,395,2954.883,407.5C2954.883,420,2921.449,432.5,2888.016,438.75C2854.583,445,2821.15,445,2737.566,439.443C2653.983,433.885,2520.25,422.77,2453.383,417.213L2386.517,411.656" class="er relationshipLine"></path><path style="stroke: gray; fill: none;" marker-start="url(#ONLY_ONE_START)" marker-end="url(#ZERO_OR_MORE_END)" d="M2386.517,403.925L2465.606,398.271C2544.694,392.617,2702.872,381.308,2801.733,375.654C2900.594,370,2940.138,370,2979.683,376.25C3019.227,382.5,3058.772,395,3058.772,407.5C3058.772,420,3019.227,432.5,2979.683,438.75C2940.138,445,2900.594,445,2801.733,439.346C2702.872,433.692,2544.694,422.383,2465.606,416.729L2386.517,411.075" class="er relationshipLine"></path><path style="stroke: gray; fill: none;" marker-start="url(#ONLY_ONE_START)" marker-end="url(#ZERO_OR_MORE_END)" d="M2386.517,404.364L2477.828,398.637C2569.139,392.909,2751.761,381.455,2865.9,375.727C2980.038,370,3025.694,370,3071.35,376.25C3117.005,382.5,3162.661,395,3162.661,407.5C3162.661,420,3117.005,432.5,3071.35,438.75C3025.694,445,2980.038,445,2865.9,439.273C2751.761,433.545,2569.139,422.091,2477.828,416.363L2386.517,410.636" class="er relationshipLine"></path><path style="stroke: gray; fill: none;" marker-start="url(#ONLY_ONE_START)" marker-end="url(#ZERO_OR_MORE_END)" d="M2386.517,442.686L2398.907,451.405C2411.297,460.124,2436.077,477.562,2732.21,500.448C3028.343,523.335,3595.83,551.669,3879.573,565.836L4163.316,580.004" class="er relationshipLine"></path><g transform="translate(1573.3160934448242,720 )" id="entity-Prefix-f6d97b99-faee-5974-b12e-390868d79e86"><rect height="75" width="100" y="0" x="0" class="er entityBox"></rect><text style="dominant-baseline: middle; text-anchor: middle; font-size: 12px;" transform="translate(50,37.5)" y="0" x="0" id="text-entity-Prefix-f6d97b99-faee-5974-b12e-390868d79e86" class="er entityLabel">Prefix</text></g><g transform="translate(759.8139953613281,195 )" id="entity-QuantityKind-6f79b338-e354-5d95-8035-8883644476ff"><rect height="75" width="101.390625" y="0" x="0" class="er entityBox"></rect><text style="dominant-baseline: middle; text-anchor: middle; font-size: 12px;" transform="translate(50.6953125,37.5)" y="0" x="0" id="text-entity-QuantityKind-6f79b338-e354-5d95-8035-8883644476ff" class="er entityLabel">QuantityKind</text></g><g transform="translate(20,545 )" id="entity-QuantityKindDimensionVector-bfa1bf26-fcae-516f-8f63-2f454f3dac1b"><rect height="75" width="194.19308471679688" y="0" x="0" class="er entityBox"></rect><text style="dominant-baseline: middle; text-anchor: middle; font-size: 12px;" transform="translate(97.09654235839844,37.5)" y="0" x="0" id="text-entity-QuantityKindDimensionVector-bfa1bf26-fcae-516f-8f63-2f454f3dac1b" class="er entityLabel">QuantityKindDimensionVector</text></g><g transform="translate(67.09654235839844,720 )" id="entity-Rule-886caf8e-59ff-5db3-a492-27242971196f"><rect height="75" width="100" y="0" x="0" class="er entityBox"></rect><text style="dominant-baseline: middle; text-anchor: middle; font-size: 12px;" transform="translate(50,37.5)" y="0" x="0" id="text-entity-Rule-886caf8e-59ff-5db3-a492-27242971196f" class="er entityLabel">Rule</text></g><g transform="translate(3480.9524459838867,20 )" id="entity-SolidAngleUnit-052b9346-c639-573a-b5ce-0f845f1ba8ce"><rect height="75" width="111.12852478027344" y="0" x="0" class="er entityBox"></rect><text style="dominant-baseline: middle; text-anchor: middle; font-size: 12px;" transform="translate(55.56426239013672,37.5)" y="0" x="0" id="text-entity-SolidAngleUnit-052b9346-c639-573a-b5ce-0f845f1ba8ce" class="er entityLabel">SolidAngleUnit</text></g><g transform="translate(2668.397834777832,545 )" id="entity-SystemOfUnits-f7f1da8e-a5af-50e1-94d0-c2e741f40e1d"><rect height="75" width="109.83651733398438" y="0" x="0" class="er entityBox"></rect><text style="dominant-baseline: middle; text-anchor: middle; font-size: 12px;" transform="translate(54.91825866699219,37.5)" y="0" x="0" id="text-entity-SystemOfUnits-f7f1da8e-a5af-50e1-94d0-c2e741f40e1d" class="er entityLabel">SystemOfUnits</text></g><g transform="translate(3763.316093444824,545 )" id="entity-UCUMcs-8df33f70-0c53-5f8e-a81f-0969bc803a34"><rect height="75" width="100" y="0" x="0" class="er entityBox"></rect><text style="dominant-baseline: middle; text-anchor: middle; font-size: 12px;" transform="translate(50,37.5)" y="0" x="0" id="text-entity-UCUMcs-8df33f70-0c53-5f8e-a81f-0969bc803a34" class="er entityLabel">UCUMcs</text></g><g transform="translate(2286.5167083740234,370 )" id="entity-Unit-c57ac1ea-0a24-509a-a80e-23f8c03ca739"><rect height="75" width="100" y="0" x="0" class="er entityBox"></rect><text style="dominant-baseline: middle; text-anchor: middle; font-size: 12px;" transform="translate(50,37.5)" y="0" x="0" id="text-entity-Unit-c57ac1ea-0a24-509a-a80e-23f8c03ca739" class="er entityLabel">Unit</text></g><g transform="translate(4163.316093444824,545 )" id="entity-Class-d9e3eb4a-97c0-50b6-8e3f-7f4a2fa7283d"><rect height="75" width="100" y="0" x="0" class="er entityBox"></rect><text style="dominant-baseline: middle; text-anchor: middle; font-size: 12px;" transform="translate(50,37.5)" y="0" x="0" id="text-entity-Class-d9e3eb4a-97c0-50b6-8e3f-7f4a2fa7283d" class="er entityLabel">__Class</text></g><g transform="translate(1571.5973434448242,895 )" id="entity-UCUMcsterm-f108a9d5-75dc-5824-aae7-181f348ae82a"><rect height="75" width="103.4375" y="0" x="0" class="er entityBox"></rect><text style="dominant-baseline: middle; text-anchor: middle; font-size: 12px;" transform="translate(51.71875,37.5)" y="0" x="0" id="text-entity-UCUMcsterm-f108a9d5-75dc-5824-aae7-181f348ae82a" class="er entityLabel">UCUMcs-term</text></g><g transform="translate(104.13601684570312,370 )" id="entity-QuantityKindDimensionVectorSI-2681a9c0-d385-5c75-b278-85a805bca5b5"><rect height="75" width="203.90625" y="0" x="0" class="er entityBox"></rect><text style="dominant-baseline: middle; text-anchor: middle; font-size: 12px;" transform="translate(101.953125,37.5)" y="0" x="0" id="text-entity-QuantityKindDimensionVectorSI-2681a9c0-d385-5c75-b278-85a805bca5b5" class="er entityLabel">QuantityKindDimensionVectorSI</text></g><g transform="translate(508.0422668457031,370 )" id="entity-SystemOfQuantityKinds-09c2a533-d4ff-5ffb-9642-53498359216a"><rect height="75" width="158.53285217285156" y="0" x="0" class="er entityBox"></rect><text style="dominant-baseline: middle; text-anchor: middle; font-size: 12px;" transform="translate(79.26642608642578,37.5)" y="0" x="0" id="text-entity-SystemOfQuantityKinds-09c2a533-d4ff-5ffb-9642-53498359216a" class="er entityLabel">SystemOfQuantityKinds</text></g><g transform="translate(67.09654235839844,895 )" id="entity-RuleType-d54df1a6-a17d-5920-9344-6f805c739e55"><rect height="75" width="100" y="0" x="0" class="er entityBox"></rect><text style="dominant-baseline: middle; text-anchor: middle; font-size: 12px;" transform="translate(50,37.5)" y="0" x="0" id="text-entity-RuleType-d54df1a6-a17d-5920-9344-6f805c739e55" class="er entityLabel">RuleType</text></g><g transform="translate(2377.4955444335938,720 )" id="entity-PhysicalConstant-f43f8855-cf72-5deb-8dd3-7b0283708583"><rect height="75" width="122.96058654785156" y="0" x="0" class="er entityBox"></rect><text style="dominant-baseline: middle; text-anchor: middle; font-size: 12px;" transform="translate(61.48029327392578,37.5)" y="0" x="0" id="text-entity-PhysicalConstant-f43f8855-cf72-5deb-8dd3-7b0283708583" class="er entityLabel">PhysicalConstant</text></g><rect height="14" width="61.453125" y="750.5" x="2208.4814453125" class="er relationshipLabelBox"></rect><text style="text-anchor: middle; dominant-baseline: middle; font-size: 12px;" y="757.5" x="2239.2080078125" id="rel1" class="er relationshipLabel">exactMatch</text><rect height="14" width="57.078125" y="838" x="1594.7769775390625" class="er relationshipLabelBox"></rect><text style="text-anchor: middle; dominant-baseline: middle; font-size: 12px;" y="845" x="1623.3160400390625" id="rel2" class="er relationshipLabel">ucumCode</text><rect height="14" width="97.98867797851562" y="288.16436767578125" x="162.29629516601562" class="er relationshipLabelBox"></rect><text style="text-anchor: middle; dominant-baseline: middle; font-size: 12px;" y="295.16436767578125" x="211.29063415527344" id="rel3" class="er relationshipLabel">qkdvDenominator</text><rect height="14" width="85.19659423828125" y="287.5467529296875" x="238.486328125" class="er relationshipLabelBox"></rect><text style="text-anchor: middle; dominant-baseline: middle; font-size: 12px;" y="294.5467529296875" x="281.0846252441406" id="rel4" class="er relationshipLabel">qkdvNumerator</text><rect height="14" width="119.078125" y="275.9346008300781" x="411.1365966796875" class="er relationshipLabelBox"></rect><text style="text-anchor: middle; dominant-baseline: middle; font-size: 12px;" y="282.9346008300781" x="470.6756591796875" id="rel5" class="er relationshipLabel">dimensionVectorForSI</text><rect height="14" width="61.453125" y="225.5" x="2140.8564453125" class="er relationshipLabelBox"></rect><text style="text-anchor: middle; dominant-baseline: middle; font-size: 12px;" y="232.5" x="2171.5830078125" id="rel6" class="er relationshipLabel">exactMatch</text><rect height="14" width="111.84872436523438" y="334.263916015625" x="378.5142364501953" class="er relationshipLabelBox"></rect><text style="text-anchor: middle; dominant-baseline: middle; font-size: 12px;" y="341.263916015625" x="434.4385986328125" id="rel7" class="er relationshipLabel">hasDimensionVector</text><rect height="14" width="163.4290771484375" y="287.6177673339844" x="575.573486328125" class="er relationshipLabelBox"></rect><text style="text-anchor: middle; dominant-baseline: middle; font-size: 12px;" y="294.6177673339844" x="657.2880249023438" id="rel8" class="er relationshipLabel">belongsToSystemOfQuantities</text><rect height="14" width="100.9046630859375" y="354.87969970703125" x="1447.0630493164062" class="er relationshipLabelBox"></rect><text style="text-anchor: middle; dominant-baseline: middle; font-size: 12px;" y="361.87969970703125" x="1497.515380859375" id="rel9" class="er relationshipLabel">applicableCGSUnit</text><rect height="14" width="98.6966552734375" y="354.00396728515625" x="1483.1924438476562" class="er relationshipLabelBox"></rect><text style="text-anchor: middle; dominant-baseline: middle; font-size: 12px;" y="361.00396728515625" x="1532.540771484375" id="rel10" class="er relationshipLabel">applicableISOUnit</text><rect height="14" width="125.744873046875" y="352.45770263671875" x="1497.031494140625" class="er relationshipLabelBox"></rect><text style="text-anchor: middle; dominant-baseline: middle; font-size: 12px;" y="359.45770263671875" x="1559.9039306640625" id="rel11" class="er relationshipLabel">applicableImperialUnit</text><rect height="14" width="90.392578125" y="349.1321105957031" x="1524.442626953125" class="er relationshipLabelBox"></rect><text style="text-anchor: middle; dominant-baseline: middle; font-size: 12px;" y="356.1321105957031" x="1569.638916015625" id="rel12" class="er relationshipLabel">applicableSIUnit</text><rect height="14" width="152.3250732421875" y="344.6101989746094" x="1494.0899047851562" class="er relationshipLabelBox"></rect><text style="text-anchor: middle; dominant-baseline: middle; font-size: 12px;" y="351.6101989746094" x="1570.25244140625" id="rel13" class="er relationshipLabel">applicableUSCustomaryUnit</text><rect height="14" width="80.3125" y="339.506103515625" x="1530.8050537109375" class="er relationshipLabelBox"></rect><text style="text-anchor: middle; dominant-baseline: middle; font-size: 12px;" y="346.506103515625" x="1570.9613037109375" id="rel14" class="er relationshipLabel">applicableUnit</text><rect height="14" width="144.375" y="500.014404296875" x="938.5648193359375" class="er relationshipLabelBox"></rect><text style="text-anchor: middle; dominant-baseline: middle; font-size: 12px;" y="507.014404296875" x="1010.7523193359375" id="rel15" class="er relationshipLabel">hasReferenceQuantityKind</text><rect height="14" width="43.296875" y="663" x="95.44856262207031" class="er relationshipLabelBox"></rect><text style="text-anchor: middle; dominant-baseline: middle; font-size: 12px;" y="670" x="117.09700012207031" id="rel16" class="er relationshipLabel">hasRule</text><rect height="14" width="46.921875" y="838" x="93.63606262207031" class="er relationshipLabelBox"></rect><text style="text-anchor: middle; dominant-baseline: middle; font-size: 12px;" y="845" x="117.09700012207031" id="rel17" class="er relationshipLabel">ruleType</text><rect height="14" width="111.8487548828125" y="107.06245422363281" x="1029.0359497070312" class="er relationshipLabelBox"></rect><text style="text-anchor: middle; dominant-baseline: middle; font-size: 12px;" y="114.06245422363281" x="1084.9603271484375" id="rel18" class="er relationshipLabel">hasDimensionVector</text><rect height="14" width="97.9886474609375" y="106.00816345214844" x="1133.7492065429688" class="er relationshipLabelBox"></rect><text style="text-anchor: middle; dominant-baseline: middle; font-size: 12px;" y="113.00816345214844" x="1182.7435302734375" id="rel19" class="er relationshipLabel">qkdvDenominator</text><rect height="14" width="85.196533203125" y="104.92937469482422" x="1237.3753662109375" class="er relationshipLabelBox"></rect><text style="text-anchor: middle; dominant-baseline: middle; font-size: 12px;" y="111.92937469482422" x="1279.9736328125" id="rel20" class="er relationshipLabel">qkdvNumerator</text><rect height="14" width="30.8402099609375" y="132.25730895996094" x="515.9883422851562" class="er relationshipLabelBox"></rect><text style="text-anchor: middle; dominant-baseline: middle; font-size: 12px;" y="139.25730895996094" x="531.408447265625" id="rel21" class="er relationshipLabel">prefix</text><rect height="14" width="90.4375" y="96.45150756835938" x="2092.994140625" class="er relationshipLabelBox"></rect><text style="text-anchor: middle; dominant-baseline: middle; font-size: 12px;" y="103.45150756835938" x="2138.212890625" id="rel22" class="er relationshipLabel">hasQuantityKind</text><rect height="14" width="95.78125" y="466.9167785644531" x="3225.339111328125" class="er relationshipLabelBox"></rect><text style="text-anchor: middle; dominant-baseline: middle; font-size: 12px;" y="473.9167785644531" x="3273.229736328125" id="rel23" class="er relationshipLabel">applicableSystem</text><rect height="14" width="115.203125" y="492.34234619140625" x="3227.68212890625" class="er relationshipLabelBox"></rect><text style="text-anchor: middle; dominant-baseline: middle; font-size: 12px;" y="499.34234619140625" x="3285.28369140625" id="rel24" class="er relationshipLabel">definedUnitOfSystem</text><rect height="13.999969482421875" width="164.390625" y="500.6342010498047" x="3239.8818359375" class="er relationshipLabelBox"></rect><text style="text-anchor: middle; dominant-baseline: middle; font-size: 12px;" y="507.6341857910156" x="3322.0771484375" id="rel25" class="er relationshipLabel">derivedCoherentUnitOfSystem</text><rect height="14" width="115.15625" y="503.735107421875" x="3319.328369140625" class="er relationshipLabelBox"></rect><text style="text-anchor: middle; dominant-baseline: middle; font-size: 12px;" y="510.735107421875" x="3376.906494140625" id="rel26" class="er relationshipLabel">derivedUnitOfSystem</text><rect height="14.000030517578125" width="82.828125" y="502.9805450439453" x="3413.94140625" class="er relationshipLabelBox"></rect><text style="text-anchor: middle; dominant-baseline: middle; font-size: 12px;" y="509.9805603027344" x="3455.35546875" id="rel27" class="er relationshipLabel">isUnitOfSystem</text><rect height="14" width="57.078125" y="233.76138305664062" x="3784.77685546875" class="er relationshipLabelBox"></rect><text style="text-anchor: middle; dominant-baseline: middle; font-size: 12px;" y="240.76138305664062" x="3813.31591796875" id="rel28" class="er relationshipLabel">ucumCode</text><rect height="14" width="61.453125" y="339.0582580566406" x="3328.330078125" class="er relationshipLabelBox"></rect><text style="text-anchor: middle; dominant-baseline: middle; font-size: 12px;" y="346.0582580566406" x="3359.056640625" id="rel29" class="er relationshipLabel">exactMatch</text><rect height="14" width="99.0927734375" y="336.80377197265625" x="3405.8896484375" class="er relationshipLabelBox"></rect><text style="text-anchor: middle; dominant-baseline: middle; font-size: 12px;" y="343.80377197265625" x="3455.43603515625" id="rel30" class="er relationshipLabel">hasReciprocalUnit</text><rect height="14" width="51.104248046875" y="334.6990051269531" x="3527.0435791015625" class="er relationshipLabelBox"></rect><text style="text-anchor: middle; dominant-baseline: middle; font-size: 12px;" y="341.6990051269531" x="3552.595703125" id="rel31" class="er relationshipLabel">scalingOf</text><rect height="14" width="75.63232421875" y="131.5419921875" x="4041.015869140625" class="er relationshipLabelBox"></rect><text style="text-anchor: middle; dominant-baseline: middle; font-size: 12px;" y="138.5419921875" x="4078.83203125" id="rel32" class="er relationshipLabel">hasFactorUnit</text><rect height="14" width="149.9130859375" y="632.6407470703125" x="2151.334716796875" class="er relationshipLabelBox"></rect><text style="text-anchor: middle; dominant-baseline: middle; font-size: 12px;" y="639.6407470703125" x="2226.291259765625" id="rel33" class="er relationshipLabel">applicablePhysicalConstant</text><rect height="14" width="30.840087890625" y="703.656005859375" x="2209.0780029296875" class="er relationshipLabelBox"></rect><text style="text-anchor: middle; dominant-baseline: middle; font-size: 12px;" y="710.656005859375" x="2224.498046875" id="rel34" class="er relationshipLabel">prefix</text><rect height="14" width="85.58056640625" y="477.6265869140625" x="2487.080810546875" class="er relationshipLabelBox"></rect><text style="text-anchor: middle; dominant-baseline: middle; font-size: 12px;" y="484.6265869140625" x="2529.87109375" id="rel35" class="er relationshipLabel">hasAllowedUnit</text><rect height="14" width="68.25244140625" y="459.7036437988281" x="2515.84765625" class="er relationshipLabelBox"></rect><text style="text-anchor: middle; dominant-baseline: middle; font-size: 12px;" y="466.7036437988281" x="2549.973876953125" id="rel36" class="er relationshipLabel">hasBaseUnit</text><rect height="14" width="91.640625" y="452.63812255859375" x="2536.84521484375" class="er relationshipLabelBox"></rect><text style="text-anchor: middle; dominant-baseline: middle; font-size: 12px;" y="459.63812255859375" x="2582.66552734375" id="rel37" class="er relationshipLabel">hasCoherentUnit</text><rect height="14" width="84.320556640625" y="450.2558898925781" x="2583.6436767578125" class="er relationshipLabelBox"></rect><text style="text-anchor: middle; dominant-baseline: middle; font-size: 12px;" y="457.2558898925781" x="2625.803955078125" id="rel38" class="er relationshipLabel">hasDefinedUnit</text><rect height="14" width="133.496826171875" y="450.9948425292969" x="2613.9324951171875" class="er relationshipLabelBox"></rect><text style="text-anchor: middle; dominant-baseline: middle; font-size: 12px;" y="457.9948425292969" x="2680.680908203125" id="rel39" class="er relationshipLabel">hasDerivedCoherentUnit</text><rect height="14" width="84.260498046875" y="452.0941467285156" x="2697.3165283203125" class="er relationshipLabelBox"></rect><text style="text-anchor: middle; dominant-baseline: middle; font-size: 12px;" y="459.0941467285156" x="2739.44677734375" id="rel40" class="er relationshipLabel">hasDerivedUnit</text><rect height="14" width="42.404296875" y="453.3184814453125" x="2779.45947265625" class="er relationshipLabelBox"></rect><text style="text-anchor: middle; dominant-baseline: middle; font-size: 12px;" y="460.3184814453125" x="2800.66162109375" id="rel41" class="er relationshipLabel">hasUnit</text><rect height="14" width="111.8487548828125" y="495.93798828125" x="1195.1372680664062" class="er relationshipLabelBox"></rect><text style="text-anchor: middle; dominant-baseline: middle; font-size: 12px;" y="502.93798828125" x="1251.0616455078125" id="rel42" class="er relationshipLabel">hasDimensionVector</text><rect height="14" width="97.9886474609375" y="500.97247314453125" x="1202.4432983398438" class="er relationshipLabelBox"></rect><text style="text-anchor: middle; dominant-baseline: middle; font-size: 12px;" y="507.97247314453125" x="1251.4376220703125" id="rel43" class="er relationshipLabel">qkdvDenominator</text><rect height="14" width="85.196533203125" y="505.67108154296875" x="1209.2083740234375" class="er relationshipLabelBox"></rect><text style="text-anchor: middle; dominant-baseline: middle; font-size: 12px;" y="512.6710815429688" x="1251.806640625" id="rel44" class="er relationshipLabel">qkdvNumerator</text><rect height="14" width="30.8402099609375" y="472.19940185546875" x="1895.9089965820312" class="er relationshipLabelBox"></rect><text style="text-anchor: middle; dominant-baseline: middle; font-size: 12px;" y="479.19940185546875" x="1911.3291015625" id="rel45" class="er relationshipLabel">prefix</text><rect height="14" width="90.4375" y="272.3140563964844" x="1562.56884765625" class="er relationshipLabelBox"></rect><text style="text-anchor: middle; dominant-baseline: middle; font-size: 12px;" y="279.3140563964844" x="1607.78759765625" id="rel46" class="er relationshipLabel">hasQuantityKind</text><rect height="14" width="95.78125" y="521.676025390625" x="2183.40966796875" class="er relationshipLabelBox"></rect><text style="text-anchor: middle; dominant-baseline: middle; font-size: 12px;" y="528.676025390625" x="2231.30029296875" id="rel47" class="er relationshipLabel">applicableSystem</text><rect height="14" width="115.203125" y="522.8718872070312" x="2235.709716796875" class="er relationshipLabelBox"></rect><text style="text-anchor: middle; dominant-baseline: middle; font-size: 12px;" y="529.8718872070312" x="2293.311279296875" id="rel48" class="er relationshipLabel">definedUnitOfSystem</text><rect height="14" width="164.390625" y="524.0048828125" x="2271.153564453125" class="er relationshipLabelBox"></rect><text style="text-anchor: middle; dominant-baseline: middle; font-size: 12px;" y="531.0048828125" x="2353.348876953125" id="rel49" class="er relationshipLabel">derivedCoherentUnitOfSystem</text><rect height="14" width="115.15625" y="524.8543090820312" x="2352.5322265625" class="er relationshipLabelBox"></rect><text style="text-anchor: middle; dominant-baseline: middle; font-size: 12px;" y="531.8543090820312" x="2410.1103515625" id="rel50" class="er relationshipLabel">derivedUnitOfSystem</text><rect height="14" width="82.828125" y="524.1868286132812" x="2417.94677734375" class="er relationshipLabelBox"></rect><text style="text-anchor: middle; dominant-baseline: middle; font-size: 12px;" y="531.1868286132812" x="2459.36083984375" id="rel51" class="er relationshipLabel">isUnitOfSystem</text><rect height="14" width="57.078125" y="528.2714233398438" x="3019.24755859375" class="er relationshipLabelBox"></rect><text style="text-anchor: middle; dominant-baseline: middle; font-size: 12px;" y="535.2714233398438" x="3047.78662109375" id="rel52" class="er relationshipLabel">ucumCode</text><rect height="14" width="61.453125" y="400.5" x="2924.156494140625" class="er relationshipLabelBox"></rect><text style="text-anchor: middle; dominant-baseline: middle; font-size: 12px;" y="407.5" x="2954.883056640625" id="rel53" class="er relationshipLabel">exactMatch</text><rect height="14" width="99.0927734375" y="400.5" x="3009.2255859375" class="er relationshipLabelBox"></rect><text style="text-anchor: middle; dominant-baseline: middle; font-size: 12px;" y="407.5" x="3058.77197265625" id="rel54" class="er relationshipLabel">hasReciprocalUnit</text><rect height="14" width="51.104248046875" y="400.5000915527344" x="3137.1087646484375" class="er relationshipLabelBox"></rect><text style="text-anchor: middle; dominant-baseline: middle; font-size: 12px;" y="407.5000915527344" x="3162.660888671875" id="rel55" class="er relationshipLabel">scalingOf</text><rect height="14" width="75.632568359375" y="527.2267456054688" x="3233.1861572265625" class="er relationshipLabelBox"></rect><text style="text-anchor: middle; dominant-baseline: middle; font-size: 12px;" y="534.2267456054688" x="3271.00244140625" id="rel56" class="er relationshipLabel">hasFactorUnit</text></svg>