<svg xmlns="http://www.w3.org/2000/svg" aria-roledescription="er" role="graphics-document document" viewBox="0 0 1537.3475341796875 290" height="290" width="1537.3475341796875" id="container">
  <style>#container{font-family:"trebuchet ms",verdana,arial,sans-serif;font-size:16px;fill:#333;}#container .error-icon{fill:#552222;}#container .error-text{fill:#552222;stroke:#552222;}#container .edge-thickness-normal{stroke-width:1px;}#container .edge-thickness-thick{stroke-width:3.5px;}#container .edge-pattern-solid{stroke-dasharray:0;}#container .edge-thickness-invisible{stroke-width:0;fill:none;}#container .edge-pattern-dashed{stroke-dasharray:3;}#container .edge-pattern-dotted{stroke-dasharray:2;}#container .marker{fill:#333333;stroke:#333333;}#container .marker.cross{stroke:#333333;}#container svg{font-family:"trebuchet ms",verdana,arial,sans-serif;font-size:16px;}#container p{margin:0;}#container .entityBox{fill:#ECECFF;stroke:#9370DB;}#container .attributeBoxOdd{fill:#ffffff;stroke:#9370DB;}#container .attributeBoxEven{fill:#f2f2f2;stroke:#9370DB;}#container .relationshipLabelBox{fill:hsl(80, 100%, 96.2745098039%);opacity:0.7;background-color:hsl(80, 100%, 96.2745098039%);}#container .relationshipLabelBox rect{opacity:0.5;}#container .relationshipLine{stroke:#333333;}#container .entityTitleText{text-anchor:middle;font-size:18px;fill:#333;}#container #MD_PARENT_START{fill:#f5f5f5!important;stroke:#333333!important;stroke-width:1;}#container #MD_PARENT_END{fill:#f5f5f5!important;stroke:#333333!important;stroke-width:1;}#container :root{--mermaid-font-family:"trebuchet ms",verdana,arial,sans-serif;}</style>
  <g/>
  <defs>
    <marker orient="auto" markerHeight="240" markerWidth="190" refY="7" refX="0" id="MD_PARENT_START">
      <path d="M 18,7 L9,13 L1,7 L9,1 Z"/>
    </marker>
  </defs>
  <defs>
    <marker orient="auto" markerHeight="28" markerWidth="20" refY="7" refX="19" id="MD_PARENT_END">
      <path d="M 18,7 L9,13 L1,7 L9,1 Z"/>
    </marker>
  </defs>
  <defs>
    <marker orient="auto" markerHeight="18" markerWidth="18" refY="9" refX="0" id="ONLY_ONE_START">
      <path d="M9,0 L9,18 M15,0 L15,18" fill="none" stroke="gray"/>
    </marker>
  </defs>
  <defs>
    <marker orient="auto" markerHeight="18" markerWidth="18" refY="9" refX="18" id="ONLY_ONE_END">
      <path d="M3,0 L3,18 M9,0 L9,18" fill="none" stroke="gray"/>
    </marker>
  </defs>
  <defs>
    <marker orient="auto" markerHeight="18" markerWidth="30" refY="9" refX="0" id="ZERO_OR_ONE_START">
      <circle r="6" cy="9" cx="21" fill="white" stroke="gray"/>
      <path d="M9,0 L9,18" fill="none" stroke="gray"/>
    </marker>
  </defs>
  <defs>
    <marker orient="auto" markerHeight="18" markerWidth="30" refY="9" refX="30" id="ZERO_OR_ONE_END">
      <circle r="6" cy="9" cx="9" fill="white" stroke="gray"/>
      <path d="M21,0 L21,18" fill="none" stroke="gray"/>
    </marker>
  </defs>
  <defs>
    <marker orient="auto" markerHeight="36" markerWidth="45" refY="18" refX="18" id="ONE_OR_MORE_START">
      <path d="M0,18 Q 18,0 36,18 Q 18,36 0,18 M42,9 L42,27" fill="none" stroke="gray"/>
    </marker>
  </defs>
  <defs>
    <marker orient="auto" markerHeight="36" markerWidth="45" refY="18" refX="27" id="ONE_OR_MORE_END">
      <path d="M3,9 L3,27 M9,18 Q27,0 45,18 Q27,36 9,18" fill="none" stroke="gray"/>
    </marker>
  </defs>
  <defs>
    <marker orient="auto" markerHeight="36" markerWidth="57" refY="18" refX="18" id="ZERO_OR_MORE_START">
      <circle r="6" cy="18" cx="48" fill="white" stroke="gray"/>
      <path d="M0,18 Q18,0 36,18 Q18,36 0,18" fill="none" stroke="gray"/>
    </marker>
  </defs>
  <defs>
    <marker orient="auto" markerHeight="36" markerWidth="57" refY="18" refX="39" id="ZERO_OR_MORE_END">
      <circle r="6" cy="18" cx="9" fill="white" stroke="gray"/>
      <path d="M21,18 Q39,0 57,18 Q39,36 21,18" fill="none" stroke="gray"/>
    </marker>
  </defs>
  <path style="stroke: gray; fill: none;" marker-start="url(#ONLY_ONE_START)" marker-end="url(#ZERO_OR_ONE_END)" d="M744.147,63.13L622.972,76.775C501.797,90.42,259.447,117.71,147.795,139.688C36.144,161.667,55.192,178.333,64.716,186.667L74.239,195" class="er relationshipLine"/>
  <path style="stroke: gray; fill: none;" marker-start="url(#ONLY_ONE_START)" marker-end="url(#ZERO_OR_ONE_END)" d="M744.147,63.962L639.639,77.468C535.13,90.975,326.113,117.987,221.605,139.827C117.097,161.667,117.097,178.333,117.097,186.667L117.097,195" class="er relationshipLine"/>
  <path style="stroke: gray; fill: none;" marker-start="url(#ONLY_ONE_START)" marker-end="url(#ZERO_OR_ONE_END)" d="M744.147,65.082L656.305,78.401C568.463,91.721,392.78,118.361,295.414,140.014C198.049,161.667,179.001,178.333,169.477,186.667L159.954,195" class="er relationshipLine"/>
  <path style="stroke: gray; fill: none;" marker-start="url(#ONLY_ONE_START)" marker-end="url(#ZERO_OR_MORE_END)" d="M744.147,68.343L685.23,81.119C626.313,93.895,508.479,119.448,449.562,140.557C390.645,161.667,390.645,178.333,390.645,186.667L390.645,195" class="er relationshipLine"/>
  <path style="stroke: gray; fill: none;" marker-start="url(#ONLY_ONE_START)" marker-end="url(#ZERO_OR_MORE_END)" d="M744.147,79.072L718.679,90.06C693.211,101.048,642.276,123.024,616.808,142.345C591.34,161.667,591.34,178.333,591.34,186.667L591.34,195" class="er relationshipLine"/>
  <path style="stroke: gray; fill: none;" marker-start="url(#ONLY_ONE_START)" marker-end="url(#ZERO_OR_MORE_END)" d="M760.179,95L752.631,103.333C745.082,111.667,729.985,128.333,743.57,146.843C757.155,165.352,799.421,185.704,820.555,195.88L841.688,206.056" class="er relationshipLine"/>
  <path style="stroke: gray; fill: none;" marker-start="url(#ONLY_ONE_START)" marker-end="url(#ZERO_OR_MORE_END)" d="M803.036,95L805.011,103.333C806.987,111.667,810.938,128.333,820.696,145C830.454,161.667,846.019,178.333,853.802,186.667L861.584,195" class="er relationshipLine"/>
  <path style="stroke: gray; fill: none;" marker-start="url(#ONLY_ONE_START)" marker-end="url(#ZERO_OR_MORE_END)" d="M844.147,93.734L855.937,102.279C867.727,110.823,891.308,127.911,901.357,144.789C911.406,161.667,907.924,178.333,906.183,186.667L904.441,195" class="er relationshipLine"/>
  <path style="stroke: gray; fill: none;" marker-start="url(#ONLY_ONE_START)" marker-end="url(#ZERO_OR_MORE_END)" d="M844.147,77.32L872.604,88.6C901.061,99.88,957.975,122.44,975.166,142.053C992.358,161.667,969.828,178.333,958.563,186.667L947.298,195" class="er relationshipLine"/>
  <path style="stroke: gray; fill: none;" marker-start="url(#ONLY_ONE_START)" marker-end="url(#ZERO_OR_MORE_END)" d="M844.147,71.14L889.27,83.45C934.394,95.76,1024.641,120.38,1042.537,143.604C1060.434,166.829,1005.979,188.657,978.752,199.571L951.524,210.486" class="er relationshipLine"/>
  <path style="stroke: gray; fill: none;" marker-start="url(#ONLY_ONE_START)" marker-end="url(#ZERO_OR_MORE_END)" d="M844.147,66.746L914.68,79.788C985.214,92.83,1126.281,118.915,1196.814,140.291C1267.348,161.667,1267.348,178.333,1267.348,186.667L1267.348,195" class="er relationshipLine"/>
  <path style="stroke: gray; fill: none;" marker-start="url(#ONLY_ONE_START)" marker-end="url(#ZERO_OR_MORE_END)" d="M844.147,41.875L855.814,38.229C867.48,34.583,890.814,27.292,905.397,23.646C919.98,20,925.814,20,931.647,26.25C937.48,32.5,943.314,45,943.314,57.5C943.314,70,937.48,82.5,931.647,88.75C925.814,95,919.98,95,905.397,91.354C890.814,87.708,867.48,80.417,855.814,76.771L844.147,73.125" class="er relationshipLine"/>
  <path style="stroke: gray; fill: none;" marker-start="url(#ONLY_ONE_START)" marker-end="url(#ZERO_OR_MORE_END)" d="M844.147,47.802L868.036,43.168C891.925,38.534,939.702,29.267,969.564,24.634C999.425,20,1011.369,20,1023.314,26.25C1035.258,32.5,1047.202,45,1047.202,57.5C1047.202,70,1035.258,82.5,1023.314,88.75C1011.369,95,999.425,95,969.564,90.366C939.702,85.733,891.925,76.466,868.036,71.832L844.147,67.198" class="er relationshipLine"/>
  <path style="stroke: gray; fill: none;" marker-start="url(#ONLY_ONE_START)" marker-end="url(#ZERO_OR_MORE_END)" d="M844.147,50.469L880.258,45.391C916.369,40.312,988.591,30.156,1033.73,25.078C1078.869,20,1096.925,20,1114.98,26.25C1133.036,32.5,1151.091,45,1151.091,57.5C1151.091,70,1133.036,82.5,1114.98,88.75C1096.925,95,1078.869,95,1033.73,89.922C988.591,84.844,916.369,74.688,880.258,69.609L844.147,64.531" class="er relationshipLine"/>
  <path style="stroke: gray; fill: none;" marker-start="url(#ONLY_ONE_START)" marker-end="url(#ZERO_OR_MORE_END)" d="M844.147,63.999L948.014,77.499C1051.88,90.999,1259.614,118,1363.481,139.833C1467.348,161.667,1467.348,178.333,1467.348,186.667L1467.348,195" class="er relationshipLine"/>
  <g transform="translate(1217.347526550293,195 )" id="entity-UCUMcs-8df33f70-0c53-5f8e-a81f-0969bc803a34">
    <rect height="75" width="100" y="0" x="0" class="er entityBox"/>
    <text style="dominant-baseline: middle; text-anchor: middle; font-size: 12px;" transform="translate(50,37.5)" y="0" x="0" id="text-entity-UCUMcs-8df33f70-0c53-5f8e-a81f-0969bc803a34" class="er entityLabel">UCUMcs</text>
  </g>
  <g transform="translate(744.1469116210938,20 )" id="entity-Unit-c57ac1ea-0a24-509a-a80e-23f8c03ca739">
    <rect height="75" width="100" y="0" x="0" class="er entityBox"/>
    <text style="dominant-baseline: middle; text-anchor: middle; font-size: 12px;" transform="translate(50,37.5)" y="0" x="0" id="text-entity-Unit-c57ac1ea-0a24-509a-a80e-23f8c03ca739" class="er entityLabel">Unit</text>
  </g>
  <g transform="translate(20,195 )" id="entity-QuantityKindDimensionVector-bfa1bf26-fcae-516f-8f63-2f454f3dac1b">
    <rect height="75" width="194.19308471679688" y="0" x="0" class="er entityBox"/>
    <text style="dominant-baseline: middle; text-anchor: middle; font-size: 12px;" transform="translate(97.09654235839844,37.5)" y="0" x="0" id="text-entity-QuantityKindDimensionVector-bfa1bf26-fcae-516f-8f63-2f454f3dac1b" class="er entityLabel">QuantityKindDimensionVector</text>
  </g>
  <g transform="translate(340.64481353759766,195 )" id="entity-Prefix-f6d97b99-faee-5974-b12e-390868d79e86">
    <rect height="75" width="100" y="0" x="0" class="er entityBox"/>
    <text style="dominant-baseline: middle; text-anchor: middle; font-size: 12px;" transform="translate(50,37.5)" y="0" x="0" id="text-entity-Prefix-f6d97b99-faee-5974-b12e-390868d79e86" class="er entityLabel">Prefix</text>
  </g>
  <g transform="translate(540.6448135375977,195 )" id="entity-QuantityKind-6f79b338-e354-5d95-8035-8883644476ff">
    <rect height="75" width="101.390625" y="0" x="0" class="er entityBox"/>
    <text style="dominant-baseline: middle; text-anchor: middle; font-size: 12px;" transform="translate(50.6953125,37.5)" y="0" x="0" id="text-entity-QuantityKind-6f79b338-e354-5d95-8035-8883644476ff" class="er entityLabel">QuantityKind</text>
  </g>
  <g transform="translate(841.6877822875977,195 )" id="entity-SystemOfUnits-f7f1da8e-a5af-50e1-94d0-c2e741f40e1d">
    <rect height="75" width="109.83651733398438" y="0" x="0" class="er entityBox"/>
    <text style="dominant-baseline: middle; text-anchor: middle; font-size: 12px;" transform="translate(54.91825866699219,37.5)" y="0" x="0" id="text-entity-SystemOfUnits-f7f1da8e-a5af-50e1-94d0-c2e741f40e1d" class="er entityLabel">SystemOfUnits</text>
  </g>
  <g transform="translate(1417.347526550293,195 )" id="entity-Class-d9e3eb4a-97c0-50b6-8e3f-7f4a2fa7283d">
    <rect height="75" width="100" y="0" x="0" class="er entityBox"/>
    <text style="dominant-baseline: middle; text-anchor: middle; font-size: 12px;" transform="translate(50,37.5)" y="0" x="0" id="text-entity-Class-d9e3eb4a-97c0-50b6-8e3f-7f4a2fa7283d" class="er entityLabel">__Class</text>
  </g>
  <rect height="14" width="111.84872436523438" y="98.04280853271484" x="326.3989715576172" class="er relationshipLabelBox"/>
  <text style="text-anchor: middle; dominant-baseline: middle; font-size: 12px;" y="105.04280853271484" x="382.3233337402344" id="rel1" class="er relationshipLabel">hasDimensionVector</text>
  <rect height="14" width="97.9886474609375" y="100.21198272705078" x="369.8362121582031" class="er relationshipLabelBox"/>
  <text style="text-anchor: middle; dominant-baseline: middle; font-size: 12px;" y="107.21198272705078" x="418.8305358886719" id="rel2" class="er relationshipLabel">qkdvDenominator</text>
  <rect height="14" width="85.19659423828125" y="104.625244140625" x="403.5895690917969" class="er relationshipLabelBox"/>
  <text style="text-anchor: middle; dominant-baseline: middle; font-size: 12px;" y="111.625244140625" x="446.1878662109375" id="rel3" class="er relationshipLabel">qkdvNumerator</text>
  <rect height="14" width="30.8402099609375" y="104.13334655761719" x="537.9074096679688" class="er relationshipLabelBox"/>
  <text style="text-anchor: middle; dominant-baseline: middle; font-size: 12px;" y="111.13334655761719" x="553.3275146484375" id="rel4" class="er relationshipLabel">prefix</text>
  <rect height="14" width="90.4375" y="114.36717987060547" x="606.0784301757812" class="er relationshipLabelBox"/>
  <text style="text-anchor: middle; dominant-baseline: middle; font-size: 12px;" y="121.36717987060547" x="651.2971801757812" id="rel5" class="er relationshipLabel">hasQuantityKind</text>
  <rect height="14" width="95.78125" y="158.01602172851562" x="716.2385864257812" class="er relationshipLabelBox"/>
  <text style="text-anchor: middle; dominant-baseline: middle; font-size: 12px;" y="165.01602172851562" x="764.1292114257812" id="rel6" class="er relationshipLabel">applicableSystem</text>
  <rect height="14" width="115.203125" y="142.8758087158203" x="766.10791015625" class="er relationshipLabelBox"/>
  <text style="text-anchor: middle; dominant-baseline: middle; font-size: 12px;" y="149.8758087158203" x="823.70947265625" id="rel7" class="er relationshipLabel">definedUnitOfSystem</text>
  <rect height="14" width="164.390625" y="127.60745239257812" x="811.6240844726562" class="er relationshipLabelBox"/>
  <text style="text-anchor: middle; dominant-baseline: middle; font-size: 12px;" y="134.60745239257812" x="893.8193969726562" id="rel8" class="er relationshipLabel">derivedCoherentUnitOfSystem</text>
  <rect height="14" width="115.15625" y="112.93283081054688" x="885.9072875976562" class="er relationshipLabelBox"/>
  <text style="text-anchor: middle; dominant-baseline: middle; font-size: 12px;" y="119.93283081054688" x="943.4854125976562" id="rel9" class="er relationshipLabel">derivedUnitOfSystem</text>
  <rect height="14" width="82.828125" y="113.61017608642578" x="963.8988647460938" class="er relationshipLabelBox"/>
  <text style="text-anchor: middle; dominant-baseline: middle; font-size: 12px;" y="120.61017608642578" x="1005.3129272460938" id="rel10" class="er relationshipLabel">isUnitOfSystem</text>
  <rect height="14" width="57.078125" y="102.67021179199219" x="1040.562255859375" class="er relationshipLabelBox"/>
  <text style="text-anchor: middle; dominant-baseline: middle; font-size: 12px;" y="109.67021179199219" x="1069.101318359375" id="rel11" class="er relationshipLabel">ucumCode</text>
  <rect height="14" width="61.453125" y="50.500003814697266" x="912.5874633789062" class="er relationshipLabelBox"/>
  <text style="text-anchor: middle; dominant-baseline: middle; font-size: 12px;" y="57.500003814697266" x="943.3140258789062" id="rel12" class="er relationshipLabel">exactMatch</text>
  <rect height="14" width="99.0926513671875" y="50.50001525878906" x="997.6557006835938" class="er relationshipLabelBox"/>
  <text style="text-anchor: middle; dominant-baseline: middle; font-size: 12px;" y="57.50001525878906" x="1047.2020263671875" id="rel13" class="er relationshipLabel">hasReciprocalUnit</text>
  <rect height="14" width="51.1043701171875" y="50.49993896484375" x="1125.5387573242188" class="er relationshipLabelBox"/>
  <text style="text-anchor: middle; dominant-baseline: middle; font-size: 12px;" y="57.49993896484375" x="1151.0909423828125" id="rel14" class="er relationshipLabel">scalingOf</text>
  <rect height="14" width="75.6324462890625" y="100.24501037597656" x="1129.7463989257812" class="er relationshipLabelBox"/>
  <text style="text-anchor: middle; dominant-baseline: middle; font-size: 12px;" y="107.24501037597656" x="1167.5626220703125" id="rel15" class="er relationshipLabel">hasFactorUnit</text>
</svg>
