<svg xmlns="http://www.w3.org/2000/svg" aria-roledescription="er" role="graphics-document document" viewBox="0 0 3074.946533203125 815" height="815" width="3074.946533203125" id="container">
  <style>#container{font-family:"trebuchet ms",verdana,arial,sans-serif;font-size:16px;fill:#333;}#container .error-icon{fill:#552222;}#container .error-text{fill:#552222;stroke:#552222;}#container .edge-thickness-normal{stroke-width:1px;}#container .edge-thickness-thick{stroke-width:3.5px;}#container .edge-pattern-solid{stroke-dasharray:0;}#container .edge-thickness-invisible{stroke-width:0;fill:none;}#container .edge-pattern-dashed{stroke-dasharray:3;}#container .edge-pattern-dotted{stroke-dasharray:2;}#container .marker{fill:#333333;stroke:#333333;}#container .marker.cross{stroke:#333333;}#container svg{font-family:"trebuchet ms",verdana,arial,sans-serif;font-size:16px;}#container p{margin:0;}#container .entityBox{fill:#ECECFF;stroke:#9370DB;}#container .attributeBoxOdd{fill:#ffffff;stroke:#9370DB;}#container .attributeBoxEven{fill:#f2f2f2;stroke:#9370DB;}#container .relationshipLabelBox{fill:hsl(80, 100%, 96.2745098039%);opacity:0.7;background-color:hsl(80, 100%, 96.2745098039%);}#container .relationshipLabelBox rect{opacity:0.5;}#container .relationshipLine{stroke:#333333;}#container .entityTitleText{text-anchor:middle;font-size:18px;fill:#333;}#container #MD_PARENT_START{fill:#f5f5f5!important;stroke:#333333!important;stroke-width:1;}#container #MD_PARENT_END{fill:#f5f5f5!important;stroke:#333333!important;stroke-width:1;}#container :root{--mermaid-font-family:"trebuchet ms",verdana,arial,sans-serif;}</style>
  <g/>
  <defs>
    <marker orient="auto" markerHeight="240" markerWidth="190" refY="7" refX="0" id="MD_PARENT_START">
      <path d="M 18,7 L9,13 L1,7 L9,1 Z"/>
    </marker>
  </defs>
  <defs>
    <marker orient="auto" markerHeight="28" markerWidth="20" refY="7" refX="19" id="MD_PARENT_END">
      <path d="M 18,7 L9,13 L1,7 L9,1 Z"/>
    </marker>
  </defs>
  <defs>
    <marker orient="auto" markerHeight="18" markerWidth="18" refY="9" refX="0" id="ONLY_ONE_START">
      <path d="M9,0 L9,18 M15,0 L15,18" fill="none" stroke="gray"/>
    </marker>
  </defs>
  <defs>
    <marker orient="auto" markerHeight="18" markerWidth="18" refY="9" refX="18" id="ONLY_ONE_END">
      <path d="M3,0 L3,18 M9,0 L9,18" fill="none" stroke="gray"/>
    </marker>
  </defs>
  <defs>
    <marker orient="auto" markerHeight="18" markerWidth="30" refY="9" refX="0" id="ZERO_OR_ONE_START">
      <circle r="6" cy="9" cx="21" fill="white" stroke="gray"/>
      <path d="M9,0 L9,18" fill="none" stroke="gray"/>
    </marker>
  </defs>
  <defs>
    <marker orient="auto" markerHeight="18" markerWidth="30" refY="9" refX="30" id="ZERO_OR_ONE_END">
      <circle r="6" cy="9" cx="9" fill="white" stroke="gray"/>
      <path d="M21,0 L21,18" fill="none" stroke="gray"/>
    </marker>
  </defs>
  <defs>
    <marker orient="auto" markerHeight="36" markerWidth="45" refY="18" refX="18" id="ONE_OR_MORE_START">
      <path d="M0,18 Q 18,0 36,18 Q 18,36 0,18 M42,9 L42,27" fill="none" stroke="gray"/>
    </marker>
  </defs>
  <defs>
    <marker orient="auto" markerHeight="36" markerWidth="45" refY="18" refX="27" id="ONE_OR_MORE_END">
      <path d="M3,9 L3,27 M9,18 Q27,0 45,18 Q27,36 9,18" fill="none" stroke="gray"/>
    </marker>
  </defs>
  <defs>
    <marker orient="auto" markerHeight="36" markerWidth="57" refY="18" refX="18" id="ZERO_OR_MORE_START">
      <circle r="6" cy="18" cx="48" fill="white" stroke="gray"/>
      <path d="M0,18 Q18,0 36,18 Q18,36 0,18" fill="none" stroke="gray"/>
    </marker>
  </defs>
  <defs>
    <marker orient="auto" markerHeight="36" markerWidth="57" refY="18" refX="39" id="ZERO_OR_MORE_END">
      <circle r="6" cy="18" cx="9" fill="white" stroke="gray"/>
      <path d="M21,18 Q39,0 57,18 Q39,36 21,18" fill="none" stroke="gray"/>
    </marker>
  </defs>
  <path style="stroke: gray; fill: none;" marker-start="url(#ONLY_ONE_START)" marker-end="url(#ZERO_OR_ONE_END)" d="M309.286,445L306.905,453.333C304.524,461.667,299.762,478.333,299.762,495C299.762,511.667,304.524,528.333,306.905,536.667L309.286,545" class="er relationshipLine"/>
  <path style="stroke: gray; fill: none;" marker-start="url(#ONLY_ONE_START)" marker-end="url(#ZERO_OR_MORE_END)" d="M270,425L236.667,436.667C203.333,448.333,136.667,471.667,103.333,491.667C70,511.667,70,528.333,70,536.667L70,545" class="er relationshipLine"/>
  <path style="stroke: gray; fill: none;" marker-start="url(#ONLY_ONE_START)" marker-end="url(#ONE_OR_MORE_END)" d="M354.863,445L362.611,453.333C370.358,461.667,385.853,478.333,385.853,495C385.853,511.667,370.358,528.333,362.611,536.667L354.863,545" class="er relationshipLine"/>
  <path style="stroke: gray; fill: none;" marker-start="url(#ONLY_ONE_START)" marker-end="url(#ZERO_OR_ONE_END)" d="M1225.31,64.328L1125.483,77.773C1025.656,91.219,826.002,118.109,735.56,139.888C645.119,161.667,663.89,178.333,673.275,186.667L682.661,195" class="er relationshipLine"/>
  <path style="stroke: gray; fill: none;" marker-start="url(#ONLY_ONE_START)" marker-end="url(#ZERO_OR_ONE_END)" d="M1225.31,65.57L1142.149,78.808C1058.989,92.047,892.668,118.523,809.37,140.095C726.071,161.667,725.795,178.333,725.656,186.667L725.518,195" class="er relationshipLine"/>
  <path style="stroke: gray; fill: none;" marker-start="url(#ONLY_ONE_START)" marker-end="url(#ZERO_OR_ONE_END)" d="M1225.31,75.132L1191.828,86.776C1158.347,98.421,1091.384,121.711,1057.902,141.689C1024.421,161.667,1024.421,178.333,1024.421,186.667L1024.421,195" class="er relationshipLine"/>
  <path style="stroke: gray; fill: none;" marker-start="url(#ONLY_ONE_START)" marker-end="url(#ZERO_OR_MORE_END)" d="M1326.7,41.749L1338.367,38.124C1350.033,34.499,1373.367,27.25,1387.95,23.625C1402.533,20,1408.367,20,1414.2,26.25C1420.033,32.5,1425.867,45,1425.867,57.5C1425.867,70,1420.033,82.5,1414.2,88.75C1408.367,95,1402.533,95,1387.95,91.375C1373.367,87.75,1350.033,80.501,1338.367,76.876L1326.7,73.251" class="er relationshipLine"/>
  <path style="stroke: gray; fill: none;" marker-start="url(#ONLY_ONE_START)" marker-end="url(#ZERO_OR_MORE_END)" d="M1225.31,68.586L1167.07,81.322C1108.831,94.057,992.352,119.529,919.733,140.598C847.115,161.667,818.358,178.333,803.979,186.667L789.6,195" class="er relationshipLine"/>
  <path style="stroke: gray; fill: none;" marker-start="url(#ONLY_ONE_START)" marker-end="url(#ZERO_OR_MORE_END)" d="M1228.863,95L1218.387,103.333C1207.911,111.667,1186.959,128.333,1189.781,145C1192.604,161.667,1219.201,178.333,1232.499,186.667L1245.798,195" class="er relationshipLine"/>
  <path style="stroke: gray; fill: none;" marker-start="url(#ONLY_ONE_START)" marker-end="url(#ZERO_OR_MORE_END)" d="M1225.31,63.417L1108.816,77.014C992.322,90.611,759.335,117.806,642.841,145.986C526.348,174.167,526.348,203.333,526.348,232.5C526.348,261.667,526.348,290.833,526.348,320C526.348,349.167,526.348,378.333,526.348,407.5C526.348,436.667,526.348,465.833,779.201,494.535C1032.054,523.236,1537.76,551.472,1790.613,565.59L2043.466,579.708" class="er relationshipLine"/>
  <path style="stroke: gray; fill: none;" marker-start="url(#ONLY_ONE_START)" marker-end="url(#ZERO_OR_MORE_END)" d="M1326.7,72.796L1366.585,84.83C1406.469,96.864,1486.238,120.932,1526.123,147.549C1566.007,174.167,1566.007,203.333,1566.007,232.5C1566.007,261.667,1566.007,290.833,1566.007,320C1566.007,349.167,1566.007,378.333,1566.007,407.5C1566.007,436.667,1566.007,465.833,1645.584,493.618C1725.16,521.402,1884.313,547.804,1963.89,561.005L2043.466,574.206" class="er relationshipLine"/>
  <path style="stroke: gray; fill: none;" marker-start="url(#ONLY_ONE_START)" marker-end="url(#ZERO_OR_MORE_END)" d="M1326.7,68.874L1383.251,81.562C1439.802,94.249,1552.905,119.625,1609.456,146.896C1666.007,174.167,1666.007,203.333,1666.007,232.5C1666.007,261.667,1666.007,290.833,1666.007,320C1666.007,349.167,1666.007,378.333,1666.007,407.5C1666.007,436.667,1666.007,465.833,1728.917,493.294C1791.827,520.755,1917.647,546.51,1980.556,559.388L2043.466,572.265" class="er relationshipLine"/>
  <path style="stroke: gray; fill: none;" marker-start="url(#ONLY_ONE_START)" marker-end="url(#ZERO_OR_MORE_END)" d="M1326.7,66.553L1399.918,79.627C1473.136,92.702,1619.571,118.851,1692.789,146.509C1766.007,174.167,1766.007,203.333,1766.007,232.5C1766.007,261.667,1766.007,290.833,1766.007,320C1766.007,349.167,1766.007,378.333,1766.007,407.5C1766.007,436.667,1766.007,465.833,1812.25,492.773C1858.493,519.713,1950.98,544.426,1997.223,556.783L2043.466,569.14" class="er relationshipLine"/>
  <path style="stroke: gray; fill: none;" marker-start="url(#ONLY_ONE_START)" marker-end="url(#ZERO_OR_MORE_END)" d="M1326.7,65.018L1416.585,78.349C1506.469,91.679,1686.238,118.339,1776.123,146.253C1866.007,174.167,1866.007,203.333,1866.007,232.5C1866.007,261.667,1866.007,290.833,1866.007,320C1866.007,349.167,1866.007,378.333,1866.007,407.5C1866.007,436.667,1866.007,465.833,1895.584,491.794C1925.16,517.755,1984.313,540.511,2013.89,551.888L2043.466,563.266" class="er relationshipLine"/>
  <path style="stroke: gray; fill: none;" marker-start="url(#ONLY_ONE_START)" marker-end="url(#ZERO_OR_MORE_END)" d="M1326.7,63.929L1433.251,77.441C1539.802,90.952,1752.905,117.976,1859.456,146.071C1966.007,174.167,1966.007,203.333,1966.007,232.5C1966.007,261.667,1966.007,290.833,1966.007,320C1966.007,349.167,1966.007,378.333,1966.007,407.5C1966.007,436.667,1966.007,465.833,1978.917,489.279C1991.827,512.725,2017.647,530.45,2030.556,539.313L2043.466,548.175" class="er relationshipLine"/>
  <path style="stroke: gray; fill: none;" marker-start="url(#ONLY_ONE_START)" marker-end="url(#ZERO_OR_MORE_END)" d="M70,620L70,628.333C70,636.667,70,653.333,70,670C70,686.667,70,703.333,70,711.667L70,720" class="er relationshipLine"/>
  <path style="stroke: gray; fill: none;" marker-start="url(#ONLY_ONE_START)" marker-end="url(#ZERO_OR_ONE_END)" d="M1226.374,239.537L1075.312,252.947C924.249,266.358,622.125,293.179,471.062,314.923C320,336.667,320,353.333,320,361.667L320,370" class="er relationshipLine"/>
  <path style="stroke: gray; fill: none;" marker-start="url(#ONLY_ONE_START)" marker-end="url(#ZERO_OR_MORE_END)" d="M1288.655,195L1284.88,186.667C1281.105,178.333,1273.556,161.667,1270.734,145C1267.911,128.333,1269.816,111.667,1270.768,103.333L1271.72,95" class="er relationshipLine"/>
  <path style="stroke: gray; fill: none;" marker-start="url(#ONLY_ONE_START)" marker-end="url(#ZERO_OR_MORE_END)" d="M1331.512,195L1337.261,186.667C1343.01,178.333,1354.509,161.667,1351.686,145C1348.864,128.333,1331.721,111.667,1323.149,103.333L1314.577,95" class="er relationshipLine"/>
  <path style="stroke: gray; fill: none;" marker-start="url(#ONLY_ONE_START)" marker-end="url(#ZERO_OR_MORE_END)" d="M1374.369,195L1389.642,186.667C1404.915,178.333,1435.461,161.667,1427.516,142.641C1419.571,123.615,1373.136,102.231,1349.918,91.539L1326.7,80.846" class="er relationshipLine"/>
  <path style="stroke: gray; fill: none;" marker-start="url(#ONLY_ONE_START)" marker-end="url(#ZERO_OR_MORE_END)" d="M1226.374,238.607L1050.312,252.173C874.249,265.738,522.125,292.869,346.062,321.018C170,349.167,170,378.333,170,407.5C170,436.667,170,465.833,160.476,488.75C150.952,511.667,131.905,528.333,122.381,536.667L112.857,545" class="er relationshipLine"/>
  <path style="stroke: gray; fill: none;" marker-start="url(#ONLY_ONE_START)" marker-end="url(#ZERO_OR_MORE_END)" d="M1384.907,238.479L1565.029,252.066C1745.151,265.653,2105.394,292.826,2285.516,314.747C2465.638,336.667,2465.638,353.333,2465.638,361.667L2465.638,370" class="er relationshipLine"/>
  <path style="stroke: gray; fill: none;" marker-start="url(#ONLY_ONE_START)" marker-end="url(#ZERO_OR_MORE_END)" d="M2520.556,422.158L2566.041,434.298C2611.526,446.439,2702.496,470.719,2747.981,491.193C2793.466,511.667,2793.466,528.333,2793.466,536.667L2793.466,545" class="er relationshipLine"/>
  <path style="stroke: gray; fill: none;" marker-start="url(#ONLY_ONE_START)" marker-end="url(#ZERO_OR_MORE_END)" d="M2520.556,416.41L2601.288,429.509C2682.02,442.607,2843.483,468.803,2924.215,490.235C3004.947,511.667,3004.947,528.333,3004.947,536.667L3004.947,545" class="er relationshipLine"/>
  <path style="stroke: gray; fill: none;" marker-start="url(#ONLY_ONE_START)" marker-end="url(#ZERO_OR_MORE_END)" d="M2410.72,420.412L2357.844,432.843C2304.969,445.274,2199.217,470.137,2146.342,490.902C2093.466,511.667,2093.466,528.333,2093.466,536.667L2093.466,545" class="er relationshipLine"/>
  <path style="stroke: gray; fill: none;" marker-start="url(#ONLY_ONE_START)" marker-end="url(#ZERO_OR_MORE_END)" d="M2410.72,425.156L2374.511,436.796C2338.302,448.437,2265.884,471.719,2220.151,491.693C2174.419,511.667,2155.371,528.333,2145.847,536.667L2136.323,545" class="er relationshipLine"/>
  <path style="stroke: gray; fill: none;" marker-start="url(#ONLY_ONE_START)" marker-end="url(#ZERO_OR_MORE_END)" d="M2410.72,435.41L2391.178,445.342C2371.635,455.273,2332.551,475.137,2288.008,496.006C2243.466,516.875,2193.466,538.75,2168.466,549.688L2143.466,560.625" class="er relationshipLine"/>
  <path style="stroke: gray; fill: none;" marker-start="url(#ONLY_ONE_START)" marker-end="url(#ZERO_OR_MORE_END)" d="M2434.707,445L2427.834,453.333C2420.96,461.667,2407.213,478.333,2358.673,498.819C2310.133,519.306,2226.8,543.611,2185.133,555.764L2143.466,567.917" class="er relationshipLine"/>
  <path style="stroke: gray; fill: none;" marker-start="url(#ONLY_ONE_START)" marker-end="url(#ZERO_OR_MORE_END)" d="M2477.564,445L2480.215,453.333C2482.865,461.667,2488.166,478.333,2432.483,499.427C2376.8,520.521,2260.133,546.042,2201.8,558.802L2143.466,571.563" class="er relationshipLine"/>
  <path style="stroke: gray; fill: none;" marker-start="url(#ONLY_ONE_START)" marker-end="url(#ZERO_OR_MORE_END)" d="M2520.422,445L2532.596,453.333C2544.77,461.667,2569.118,478.333,2506.292,499.792C2443.466,521.25,2293.466,547.5,2218.466,560.625L2143.466,573.75" class="er relationshipLine"/>
  <path style="stroke: gray; fill: none;" marker-start="url(#ONLY_ONE_START)" marker-end="url(#ZERO_OR_MORE_END)" d="M2520.556,428.592L2549.375,439.66C2578.193,450.728,2635.83,472.864,2572.981,497.3C2510.133,521.736,2326.8,548.472,2235.133,561.84L2143.466,575.208" class="er relationshipLine"/>
  <g transform="translate(270,370 )" id="entity-Enumeration-f9f59bb4-2616-549b-89c9-bf7c68943800">
    <rect height="75" width="100" y="0" x="0" class="er entityBox"/>
    <text style="dominant-baseline: middle; text-anchor: middle; font-size: 12px;" transform="translate(50,37.5)" y="0" x="0" id="text-entity-Enumeration-f9f59bb4-2616-549b-89c9-bf7c68943800" class="er entityLabel">Enumeration</text>
  </g>
  <g transform="translate(1225.3095207214355,20 )" id="entity-QuantityKind-6f79b338-e354-5d95-8035-8883644476ff">
    <rect height="75" width="101.390625" y="0" x="0" class="er entityBox"/>
    <text style="dominant-baseline: middle; text-anchor: middle; font-size: 12px;" transform="translate(50.6953125,37.5)" y="0" x="0" id="text-entity-QuantityKind-6f79b338-e354-5d95-8035-8883644476ff" class="er entityLabel">QuantityKind</text>
  </g>
  <g transform="translate(20,545 )" id="entity-Rule-886caf8e-59ff-5db3-a492-27242971196f">
    <rect height="75" width="100" y="0" x="0" class="er entityBox"/>
    <text style="dominant-baseline: middle; text-anchor: middle; font-size: 12px;" transform="translate(50,37.5)" y="0" x="0" id="text-entity-Rule-886caf8e-59ff-5db3-a492-27242971196f" class="er entityLabel">Rule</text>
  </g>
  <g transform="translate(1226.3738861083984,195 )" id="entity-SystemOfQuantityKinds-09c2a533-d4ff-5ffb-9642-53498359216a">
    <rect height="75" width="158.53285217285156" y="0" x="0" class="er entityBox"/>
    <text style="dominant-baseline: middle; text-anchor: middle; font-size: 12px;" transform="translate(79.26642608642578,37.5)" y="0" x="0" id="text-entity-SystemOfQuantityKinds-09c2a533-d4ff-5ffb-9642-53498359216a" class="er entityLabel">SystemOfQuantityKinds</text>
  </g>
  <g transform="translate(2410.7197875976562,370 )" id="entity-SystemOfUnits-f7f1da8e-a5af-50e1-94d0-c2e741f40e1d">
    <rect height="75" width="109.83651733398438" y="0" x="0" class="er entityBox"/>
    <text style="dominant-baseline: middle; text-anchor: middle; font-size: 12px;" transform="translate(54.91825866699219,37.5)" y="0" x="0" id="text-entity-SystemOfUnits-f7f1da8e-a5af-50e1-94d0-c2e741f40e1d" class="er entityLabel">SystemOfUnits</text>
  </g>
  <g transform="translate(257.3046875,545 )" id="entity-EnumeratedValue-933d25dc-a4b0-559c-ba2b-998cca51206b">
    <rect height="75" width="125.390625" y="0" x="0" class="er entityBox"/>
    <text style="dominant-baseline: middle; text-anchor: middle; font-size: 12px;" transform="translate(62.6953125,37.5)" y="0" x="0" id="text-entity-EnumeratedValue-933d25dc-a4b0-559c-ba2b-998cca51206b" class="er entityLabel">EnumeratedValue</text>
  </g>
  <g transform="translate(627.7993850708008,195 )" id="entity-QuantityKindDimensionVector-bfa1bf26-fcae-516f-8f63-2f454f3dac1b">
    <rect height="75" width="194.19308471679688" y="0" x="0" class="er entityBox"/>
    <text style="dominant-baseline: middle; text-anchor: middle; font-size: 12px;" transform="translate(97.09654235839844,37.5)" y="0" x="0" id="text-entity-QuantityKindDimensionVector-bfa1bf26-fcae-516f-8f63-2f454f3dac1b" class="er entityLabel">QuantityKindDimensionVector</text>
  </g>
  <g transform="translate(922.4676361083984,195 )" id="entity-QuantityKindDimensionVectorSI-2681a9c0-d385-5c75-b278-85a805bca5b5">
    <rect height="75" width="203.90625" y="0" x="0" class="er entityBox"/>
    <text style="dominant-baseline: middle; text-anchor: middle; font-size: 12px;" transform="translate(101.953125,37.5)" y="0" x="0" id="text-entity-QuantityKindDimensionVectorSI-2681a9c0-d385-5c75-b278-85a805bca5b5" class="er entityLabel">QuantityKindDimensionVectorSI</text>
  </g>
  <g transform="translate(2043.4662284851074,545 )" id="entity-Unit-c57ac1ea-0a24-509a-a80e-23f8c03ca739">
    <rect height="75" width="100" y="0" x="0" class="er entityBox"/>
    <text style="dominant-baseline: middle; text-anchor: middle; font-size: 12px;" transform="translate(50,37.5)" y="0" x="0" id="text-entity-Unit-c57ac1ea-0a24-509a-a80e-23f8c03ca739" class="er entityLabel">Unit</text>
  </g>
  <g transform="translate(20,720 )" id="entity-RuleType-d54df1a6-a17d-5920-9344-6f805c739e55">
    <rect height="75" width="100" y="0" x="0" class="er entityBox"/>
    <text style="dominant-baseline: middle; text-anchor: middle; font-size: 12px;" transform="translate(50,37.5)" y="0" x="0" id="text-entity-RuleType-d54df1a6-a17d-5920-9344-6f805c739e55" class="er entityLabel">RuleType</text>
  </g>
  <g transform="translate(2731.9859352111816,545 )" id="entity-PhysicalConstant-f43f8855-cf72-5deb-8dd3-7b0283708583">
    <rect height="75" width="122.96058654785156" y="0" x="0" class="er entityBox"/>
    <text style="dominant-baseline: middle; text-anchor: middle; font-size: 12px;" transform="translate(61.48029327392578,37.5)" y="0" x="0" id="text-entity-PhysicalConstant-f43f8855-cf72-5deb-8dd3-7b0283708583" class="er entityLabel">PhysicalConstant</text>
  </g>
  <g transform="translate(2954.946521759033,545 )" id="entity-Prefix-f6d97b99-faee-5974-b12e-390868d79e86">
    <rect height="75" width="100" y="0" x="0" class="er entityBox"/>
    <text style="dominant-baseline: middle; text-anchor: middle; font-size: 12px;" transform="translate(50,37.5)" y="0" x="0" id="text-entity-Prefix-f6d97b99-faee-5974-b12e-390868d79e86" class="er entityLabel">Prefix</text>
  </g>
  <rect height="14" width="39.500244140625" y="488" x="280.0118713378906" class="er relationshipLabelBox"/>
  <text style="text-anchor: middle; dominant-baseline: middle; font-size: 12px;" y="495" x="299.7619934082031" id="rel1" class="er relationshipLabel">default</text>
  <rect height="14" width="43.296875" y="460.451416015625" x="132.38778686523438" class="er relationshipLabelBox"/>
  <text style="text-anchor: middle; dominant-baseline: middle; font-size: 12px;" y="467.451416015625" x="154.03622436523438" id="rel2" class="er relationshipLabel">hasRule</text>
  <rect height="14" width="45.392242431640625" y="488" x="363.15687561035156" class="er relationshipLabelBox"/>
  <text style="text-anchor: middle; dominant-baseline: middle; font-size: 12px;" y="495" x="385.8529968261719" id="rel3" class="er relationshipLabel">element</text>
  <rect height="14" width="97.9886474609375" y="98.91973114013672" x="876.594482421875" class="er relationshipLabelBox"/>
  <text style="text-anchor: middle; dominant-baseline: middle; font-size: 12px;" y="105.91973114013672" x="925.5888061523438" id="rel4" class="er relationshipLabel">qkdvDenominator</text>
  <rect height="14" width="85.19659423828125" y="101.61531066894531" x="920.2918395996094" class="er relationshipLabelBox"/>
  <text style="text-anchor: middle; dominant-baseline: middle; font-size: 12px;" y="108.61531066894531" x="962.89013671875" id="rel5" class="er relationshipLabel">qkdvNumerator</text>
  <rect height="14" width="119.078125" y="110.47247314453125" x="1049.375732421875" class="er relationshipLabelBox"/>
  <text style="text-anchor: middle; dominant-baseline: middle; font-size: 12px;" y="117.47247314453125" x="1108.914794921875" id="rel6" class="er relationshipLabel">dimensionVectorForSI</text>
  <rect height="14" width="61.453125" y="50.5" x="1395.140380859375" class="er relationshipLabelBox"/>
  <text style="text-anchor: middle; dominant-baseline: middle; font-size: 12px;" y="57.5" x="1425.866943359375" id="rel7" class="er relationshipLabel">exactMatch</text>
  <rect height="14" width="111.8487548828125" y="111.71146392822266" x="947.21337890625" class="er relationshipLabelBox"/>
  <text style="text-anchor: middle; dominant-baseline: middle; font-size: 12px;" y="118.71146392822266" x="1003.1377563476562" id="rel8" class="er relationshipLabel">hasDimensionVector</text>
  <rect height="14" width="163.4290771484375" y="143.0689697265625" x="1109.6231079101562" class="er relationshipLabelBox"/>
  <text style="text-anchor: middle; dominant-baseline: middle; font-size: 12px;" y="150.0689697265625" x="1191.337646484375" id="rel9" class="er relationshipLabel">belongsToSystemOfQuantities</text>
  <rect height="14" width="100.9046630859375" y="490.79693603515625" x="758.5787353515625" class="er relationshipLabelBox"/>
  <text style="text-anchor: middle; dominant-baseline: middle; font-size: 12px;" y="497.79693603515625" x="809.0310668945312" id="rel10" class="er relationshipLabel">applicableCGSUnit</text>
  <rect height="14" width="98.6966552734375" y="423.8683776855469" x="1518.1802368164062" class="er relationshipLabelBox"/>
  <text style="text-anchor: middle; dominant-baseline: middle; font-size: 12px;" y="430.8683776855469" x="1567.528564453125" id="rel11" class="er relationshipLabel">applicableISOUnit</text>
  <rect height="14" width="125.744873046875" y="330.8337097167969" x="1603.134521484375" class="er relationshipLabelBox"/>
  <text style="text-anchor: middle; dominant-baseline: middle; font-size: 12px;" y="337.8337097167969" x="1666.0069580078125" id="rel12" class="er relationshipLabel">applicableImperialUnit</text>
  <rect height="14" width="90.392578125" y="237.53497314453125" x="1720.8106689453125" class="er relationshipLabelBox"/>
  <text style="text-anchor: middle; dominant-baseline: middle; font-size: 12px;" y="244.53497314453125" x="1766.0069580078125" id="rel13" class="er relationshipLabel">applicableSIUnit</text>
  <rect height="14" width="152.3250732421875" y="160.4253387451172" x="1751.9628295898438" class="er relationshipLabelBox"/>
  <text style="text-anchor: middle; dominant-baseline: middle; font-size: 12px;" y="167.4253387451172" x="1828.1253662109375" id="rel14" class="er relationshipLabel">applicableUSCustomaryUnit</text>
  <rect height="14" width="80.3125" y="134.0406494140625" x="1799.06494140625" class="er relationshipLabelBox"/>
  <text style="text-anchor: middle; dominant-baseline: middle; font-size: 12px;" y="141.0406494140625" x="1839.22119140625" id="rel15" class="er relationshipLabel">applicableUnit</text>
  <rect height="14" width="46.921875" y="663" x="46.5390625" class="er relationshipLabelBox"/>
  <text style="text-anchor: middle; dominant-baseline: middle; font-size: 12px;" y="670" x="70" id="rel16" class="er relationshipLabel">ruleType</text>
  <rect height="14" width="153.203125" y="274.8352966308594" x="686.1839599609375" class="er relationshipLabelBox"/>
  <text style="text-anchor: middle; dominant-baseline: middle; font-size: 12px;" y="281.8352966308594" x="762.7855224609375" id="rel17" class="er relationshipLabel">baseDimensionEnumeration</text>
  <rect height="14" width="116.28125" y="139.514404296875" x="1212.86279296875" class="er relationshipLabelBox"/>
  <text style="text-anchor: middle; dominant-baseline: middle; font-size: 12px;" y="146.514404296875" x="1271.00341796875" id="rel18" class="er relationshipLabel">hasBaseQuantityKind</text>
  <rect height="14" width="90.4375" y="134.15957641601562" x="1305.5723876953125" class="er relationshipLabelBox"/>
  <text style="text-anchor: middle; dominant-baseline: middle; font-size: 12px;" y="141.15957641601562" x="1350.7911376953125" id="rel19" class="er relationshipLabel">hasQuantityKind</text>
  <rect height="14" width="151.046875" y="120.78706359863281" x="1339.3612060546875" class="er relationshipLabelBox"/>
  <text style="text-anchor: middle; dominant-baseline: middle; font-size: 12px;" y="127.78706359863281" x="1414.8846435546875" id="rel20" class="er relationshipLabel">systemDerivedQuantityKind</text>
  <rect height="14" width="43.296875" y="283.2571716308594" x="580.0633544921875" class="er relationshipLabelBox"/>
  <text style="text-anchor: middle; dominant-baseline: middle; font-size: 12px;" y="290.2571716308594" x="601.7117919921875" id="rel21" class="er relationshipLabel">hasRule</text>
  <rect height="14" width="80.5625" y="274.10308837890625" x="1894.817626953125" class="er relationshipLabelBox"/>
  <text style="text-anchor: middle; dominant-baseline: middle; font-size: 12px;" y="281.10308837890625" x="1935.098876953125" id="rel22" class="er relationshipLabel">hasUnitSystem</text>
  <rect height="14" width="149.9130859375" y="457.15966796875" x="2597.0615234375" class="er relationshipLabelBox"/>
  <text style="text-anchor: middle; dominant-baseline: middle; font-size: 12px;" y="464.15966796875" x="2672.01806640625" id="rel23" class="er relationshipLabel">applicablePhysicalConstant</text>
  <rect height="14" width="30.840087890625" y="452.0603332519531" x="2760.1265869140625" class="er relationshipLabelBox"/>
  <text style="text-anchor: middle; dominant-baseline: middle; font-size: 12px;" y="459.0603332519531" x="2775.546630859375" id="rel24" class="er relationshipLabel">prefix</text>
  <rect height="14" width="85.58056640625" y="455.5766906738281" x="2194.841064453125" class="er relationshipLabelBox"/>
  <text style="text-anchor: middle; dominant-baseline: middle; font-size: 12px;" y="462.5766906738281" x="2237.63134765625" id="rel25" class="er relationshipLabel">hasAllowedUnit</text>
  <rect height="14" width="68.25244140625" y="465.94390869140625" x="2233.4677734375" class="er relationshipLabelBox"/>
  <text style="text-anchor: middle; dominant-baseline: middle; font-size: 12px;" y="472.94390869140625" x="2267.593994140625" id="rel26" class="er relationshipLabel">hasBaseUnit</text>
  <rect height="14" width="91.640625" y="493.53924560546875" x="2232.457763671875" class="er relationshipLabelBox"/>
  <text style="text-anchor: middle; dominant-baseline: middle; font-size: 12px;" y="500.53924560546875" x="2278.278076171875" id="rel27" class="er relationshipLabel">hasCoherentUnit</text>
  <rect height="14" width="84.320556640625" y="514.4904174804688" x="2254.7030029296875" class="er relationshipLabelBox"/>
  <text style="text-anchor: middle; dominant-baseline: middle; font-size: 12px;" y="521.4904174804688" x="2296.86328125" id="rel28" class="er relationshipLabel">hasDefinedUnit</text>
  <rect height="14" width="133.496826171875" y="522.587158203125" x="2262.1287841796875" class="er relationshipLabelBox"/>
  <text style="text-anchor: middle; dominant-baseline: middle; font-size: 12px;" y="529.587158203125" x="2328.877197265625" id="rel29" class="er relationshipLabel">hasDerivedCoherentUnit</text>
  <rect height="14" width="84.260498046875" y="525.5639038085938" x="2328.6524658203125" class="er relationshipLabelBox"/>
  <text style="text-anchor: middle; dominant-baseline: middle; font-size: 12px;" y="532.5639038085938" x="2370.78271484375" id="rel30" class="er relationshipLabel">hasDerivedUnit</text>
  <rect height="14" width="42.404296875" y="524.820068359375" x="2404.399658203125" class="er relationshipLabelBox"/>
  <text style="text-anchor: middle; dominant-baseline: middle; font-size: 12px;" y="531.820068359375" x="2425.601806640625" id="rel31" class="er relationshipLabel">hasUnit</text>
</svg>
