<svg aria-roledescription="er" role="graphics-document document" viewBox="0 0 1078.7860107421875 640" height="640" xmlns="http://www.w3.org/2000/svg" width="1078.7860107421875" id="container"><style>#container{font-family:"trebuchet ms",verdana,arial,sans-serif;font-size:16px;fill:#333;}#container .error-icon{fill:#552222;}#container .error-text{fill:#552222;stroke:#552222;}#container .edge-thickness-normal{stroke-width:1px;}#container .edge-thickness-thick{stroke-width:3.5px;}#container .edge-pattern-solid{stroke-dasharray:0;}#container .edge-thickness-invisible{stroke-width:0;fill:none;}#container .edge-pattern-dashed{stroke-dasharray:3;}#container .edge-pattern-dotted{stroke-dasharray:2;}#container .marker{fill:#333333;stroke:#333333;}#container .marker.cross{stroke:#333333;}#container svg{font-family:"trebuchet ms",verdana,arial,sans-serif;font-size:16px;}#container p{margin:0;}#container .entityBox{fill:#ECECFF;stroke:#9370DB;}#container .attributeBoxOdd{fill:#ffffff;stroke:#9370DB;}#container .attributeBoxEven{fill:#f2f2f2;stroke:#9370DB;}#container .relationshipLabelBox{fill:hsl(80, 100%, 96.2745098039%);opacity:0.7;background-color:hsl(80, 100%, 96.2745098039%);}#container .relationshipLabelBox rect{opacity:0.5;}#container .relationshipLine{stroke:#333333;}#container .entityTitleText{text-anchor:middle;font-size:18px;fill:#333;}#container #MD_PARENT_START{fill:#f5f5f5!important;stroke:#333333!important;stroke-width:1;}#container #MD_PARENT_END{fill:#f5f5f5!important;stroke:#333333!important;stroke-width:1;}#container :root{--mermaid-font-family:"trebuchet ms",verdana,arial,sans-serif;}</style><g></g><defs><marker orient="auto" markerHeight="240" markerWidth="190" refY="7" refX="0" id="MD_PARENT_START"><path d="M 18,7 L9,13 L1,7 L9,1 Z"></path></marker></defs><defs><marker orient="auto" markerHeight="28" markerWidth="20" refY="7" refX="19" id="MD_PARENT_END"><path d="M 18,7 L9,13 L1,7 L9,1 Z"></path></marker></defs><defs><marker orient="auto" markerHeight="18" markerWidth="18" refY="9" refX="0" id="ONLY_ONE_START"><path d="M9,0 L9,18 M15,0 L15,18" fill="none" stroke="gray"></path></marker></defs><defs><marker orient="auto" markerHeight="18" markerWidth="18" refY="9" refX="18" id="ONLY_ONE_END"><path d="M3,0 L3,18 M9,0 L9,18" fill="none" stroke="gray"></path></marker></defs><defs><marker orient="auto" markerHeight="18" markerWidth="30" refY="9" refX="0" id="ZERO_OR_ONE_START"><circle r="6" cy="9" cx="21" fill="white" stroke="gray"></circle><path d="M9,0 L9,18" fill="none" stroke="gray"></path></marker></defs><defs><marker orient="auto" markerHeight="18" markerWidth="30" refY="9" refX="30" id="ZERO_OR_ONE_END"><circle r="6" cy="9" cx="9" fill="white" stroke="gray"></circle><path d="M21,0 L21,18" fill="none" stroke="gray"></path></marker></defs><defs><marker orient="auto" markerHeight="36" markerWidth="45" refY="18" refX="18" id="ONE_OR_MORE_START"><path d="M0,18 Q 18,0 36,18 Q 18,36 0,18 M42,9 L42,27" fill="none" stroke="gray"></path></marker></defs><defs><marker orient="auto" markerHeight="36" markerWidth="45" refY="18" refX="27" id="ONE_OR_MORE_END"><path d="M3,9 L3,27 M9,18 Q27,0 45,18 Q27,36 9,18" fill="none" stroke="gray"></path></marker></defs><defs><marker orient="auto" markerHeight="36" markerWidth="57" refY="18" refX="18" id="ZERO_OR_MORE_START"><circle r="6" cy="18" cx="48" fill="white" stroke="gray"></circle><path d="M0,18 Q18,0 36,18 Q18,36 0,18" fill="none" stroke="gray"></path></marker></defs><defs><marker orient="auto" markerHeight="36" markerWidth="57" refY="18" refX="39" id="ZERO_OR_MORE_END"><circle r="6" cy="18" cx="9" fill="white" stroke="gray"></circle><path d="M21,18 Q39,0 57,18 Q39,36 21,18" fill="none" stroke="gray"></path></marker></defs><path style="stroke: gray; fill: none;" marker-start="url(#ONLY_ONE_START)" marker-end="url(#ZERO_OR_ONE_END)" d="M569.674,270L562.859,278.333C556.045,286.667,542.415,303.333,528.278,320C514.14,336.667,499.494,353.333,492.171,361.667L484.848,370" class="er relationshipLine"></path><path style="stroke: gray; fill: none;" marker-start="url(#ONLY_ONE_START)" marker-end="url(#ZERO_OR_ONE_END)" d="M650.34,220.189L667.39,215.99C684.439,211.792,718.538,203.396,739.85,199.198C761.162,195,769.687,195,778.212,201.25C786.736,207.5,795.261,220,795.261,232.5C795.261,245,786.736,257.5,778.212,263.75C769.687,270,761.162,270,739.85,265.802C718.538,261.604,684.439,253.208,667.39,249.01L650.34,244.811" class="er relationshipLine"></path><path style="stroke: gray; fill: none;" marker-start="url(#ONLY_ONE_START)" marker-end="url(#ZERO_OR_ONE_END)" d="M612.531,270L615.24,278.333C617.949,286.667,623.368,303.333,643.003,321.439C662.637,339.544,696.489,359.088,713.415,368.86L730.34,378.633" class="er relationshipLine"></path><path style="stroke: gray; fill: none;" marker-start="url(#ONLY_ONE_START)" marker-end="url(#ZERO_OR_MORE_END)" d="M650.34,257.017L671.748,267.514C693.156,278.012,735.971,299.006,782.637,320.469C829.304,341.931,879.822,363.862,905.081,374.828L930.34,385.794" class="er relationshipLine"></path><path style="stroke: gray; fill: none;" marker-start="url(#ONLY_ONE_START)" marker-end="url(#ZERO_OR_ONE_END)" d="M115.402,95L108.28,103.333C101.158,111.667,86.914,128.333,79.792,145C72.67,161.667,72.67,178.333,72.67,186.667L72.67,195" class="er relationshipLine"></path><path style="stroke: gray; fill: none;" marker-start="url(#ONLY_ONE_START)" marker-end="url(#ZERO_OR_ONE_END)" d="M158.831,95L161.36,103.333C163.889,111.667,168.947,128.333,234.199,149.54C299.45,170.746,424.895,196.492,487.618,209.365L550.34,222.238" class="er relationshipLine"></path><path style="stroke: gray; fill: none;" marker-start="url(#ONLY_ONE_START)" marker-end="url(#ZERO_OR_ONE_END)" d="M197.451,91.709L210.432,100.591C223.414,109.473,249.377,127.236,262.359,144.452C275.34,161.667,275.34,178.333,275.34,186.667L275.34,195" class="er relationshipLine"></path><path style="stroke: gray; fill: none;" marker-start="url(#ONLY_ONE_START)" marker-end="url(#ZERO_OR_MORE_END)" d="M980.34,445L980.34,453.333C980.34,461.667,980.34,478.333,980.34,495C980.34,511.667,980.34,528.333,980.34,536.667L980.34,545" class="er relationshipLine"></path><path style="stroke: gray; fill: none;" marker-start="url(#ONLY_ONE_START)" marker-end="url(#ZERO_OR_ONE_END)" d="M672.817,73.639L631.571,85.532C590.325,97.426,507.833,121.213,466.587,147.69C425.34,174.167,425.34,203.333,425.34,232.5C425.34,261.667,425.34,290.833,427.87,313.75C430.399,336.667,435.457,353.333,437.986,361.667L440.515,370" class="er relationshipLine"></path><path style="stroke: gray; fill: none;" marker-start="url(#ONLY_ONE_START)" marker-end="url(#ZERO_OR_ONE_END)" d="M673.738,95L661.505,103.333C649.272,111.667,624.806,128.333,612.573,145C600.34,161.667,600.34,178.333,600.34,186.667L600.34,195" class="er relationshipLine"></path><path style="stroke: gray; fill: none;" marker-start="url(#ONLY_ONE_START)" marker-end="url(#ZERO_OR_ONE_END)" d="M750.214,95L754.976,103.333C759.738,111.667,769.262,128.333,752.616,147.164C735.971,165.994,693.156,186.988,671.748,197.486L650.34,207.983" class="er relationshipLine"></path><path style="stroke: gray; fill: none;" marker-start="url(#ONLY_ONE_START)" marker-end="url(#ZERO_OR_ONE_END)" d="M784.755,84.707L805.426,94.756C826.098,104.805,867.442,124.902,888.114,149.535C908.786,174.167,908.786,203.333,908.786,232.5C908.786,261.667,908.786,290.833,895.712,314.323C882.637,337.813,856.489,355.626,843.415,364.532L830.34,373.439" class="er relationshipLine"></path><path style="stroke: gray; fill: none;" marker-start="url(#ONLY_ONE_START)" marker-end="url(#ZERO_OR_MORE_END)" d="M784.755,72.34L830.426,84.45C876.098,96.56,967.442,120.78,1013.114,147.473C1058.786,174.167,1058.786,203.333,1058.786,232.5C1058.786,261.667,1058.786,290.833,1051.315,313.75C1043.844,336.667,1028.902,353.333,1021.431,361.667L1013.96,370" class="er relationshipLine"></path><g transform="translate(395.0045471191406,370 )" id="entity-CardinalityType-796d1111-9b0e-5cfa-a954-3577abec4acc"><rect height="75" width="113.78125" y="0" x="0" class="er entityBox"></rect><text style="dominant-baseline: middle; text-anchor: middle; font-size: 12px;" transform="translate(56.890625,37.5)" y="0" x="0" id="text-entity-CardinalityType-796d1111-9b0e-5cfa-a954-3577abec4acc" class="er entityLabel">CardinalityType</text></g><g transform="translate(550.3404846191406,195 )" id="entity-Datatype-eedb5402-d0cc-52bf-9fb8-7b914f648cbe"><rect height="75" width="100" y="0" x="0" class="er entityBox"></rect><text style="dominant-baseline: middle; text-anchor: middle; font-size: 12px;" transform="translate(50,37.5)" y="0" x="0" id="text-entity-Datatype-eedb5402-d0cc-52bf-9fb8-7b914f648cbe" class="er entityLabel">Datatype</text></g><g transform="translate(730.3404846191406,370 )" id="entity-OrderedType-842b5e5e-013e-581b-9bf8-11371587b713"><rect height="75" width="100" y="0" x="0" class="er entityBox"></rect><text style="dominant-baseline: middle; text-anchor: middle; font-size: 12px;" transform="translate(50,37.5)" y="0" x="0" id="text-entity-OrderedType-842b5e5e-013e-581b-9bf8-11371587b713" class="er entityLabel">OrderedType</text></g><g transform="translate(97.45067596435547,20 )" id="entity-Quantifiable-82d4468d-7a40-5b3c-81f8-69036607af45"><rect height="75" width="100" y="0" x="0" class="er entityBox"></rect><text style="dominant-baseline: middle; text-anchor: middle; font-size: 12px;" transform="translate(50,37.5)" y="0" x="0" id="text-entity-Quantifiable-82d4468d-7a40-5b3c-81f8-69036607af45" class="er entityLabel">Quantifiable</text></g><g transform="translate(930.3404846191406,370 )" id="entity-Rule-886caf8e-59ff-5db3-a492-27242971196f"><rect height="75" width="100" y="0" x="0" class="er entityBox"></rect><text style="dominant-baseline: middle; text-anchor: middle; font-size: 12px;" transform="translate(50,37.5)" y="0" x="0" id="text-entity-Rule-886caf8e-59ff-5db3-a492-27242971196f" class="er entityLabel">Rule</text></g><g transform="translate(672.8170471191406,20 )" id="entity-ScalarDatatype-99a09826-db07-59f0-9440-e83c0c041ccd"><rect height="75" width="111.9375" y="0" x="0" class="er entityBox"></rect><text style="dominant-baseline: middle; text-anchor: middle; font-size: 12px;" transform="translate(55.96875,37.5)" y="0" x="0" id="text-entity-ScalarDatatype-99a09826-db07-59f0-9440-e83c0c041ccd" class="er entityLabel">ScalarDatatype</text></g><g transform="translate(20,195 )" id="entity-DataEncoding-e949680e-a6e4-55c9-9325-aa69226f3e53"><rect height="75" width="105.34048461914062" y="0" x="0" class="er entityBox"></rect><text style="dominant-baseline: middle; text-anchor: middle; font-size: 12px;" transform="translate(52.67024230957031,37.5)" y="0" x="0" id="text-entity-DataEncoding-e949680e-a6e4-55c9-9325-aa69226f3e53" class="er entityLabel">DataEncoding</text></g><g transform="translate(225.34048461914062,195 )" id="entity-Unit-c57ac1ea-0a24-509a-a80e-23f8c03ca739"><rect height="75" width="100" y="0" x="0" class="er entityBox"></rect><text style="dominant-baseline: middle; text-anchor: middle; font-size: 12px;" transform="translate(50,37.5)" y="0" x="0" id="text-entity-Unit-c57ac1ea-0a24-509a-a80e-23f8c03ca739" class="er entityLabel">Unit</text></g><g transform="translate(930.3404846191406,545 )" id="entity-RuleType-d54df1a6-a17d-5920-9344-6f805c739e55"><rect height="75" width="100" y="0" x="0" class="er entityBox"></rect><text style="dominant-baseline: middle; text-anchor: middle; font-size: 12px;" transform="translate(50,37.5)" y="0" x="0" id="text-entity-RuleType-d54df1a6-a17d-5920-9344-6f805c739e55" class="er entityLabel">RuleType</text></g><rect height="14" width="57.58837890625" y="313.5011901855469" x="499.0577392578125" class="er relationshipLabelBox"></rect><text style="text-anchor: middle; dominant-baseline: middle; font-size: 12px;" y="320.5011901855469" x="527.8519287109375" id="rel1" class="er relationshipLabel">cardinality</text><rect height="14" width="28.4041748046875" y="225.49998474121094" x="781.0588989257812" class="er relationshipLabelBox"></rect><text style="text-anchor: middle; dominant-baseline: middle; font-size: 12px;" y="232.49998474121094" x="795.260986328125" id="rel2" class="er relationshipLabel">basis</text><rect height="14" width="68.28125" y="328.2323913574219" x="625.93212890625" class="er relationshipLabelBox"></rect><text style="text-anchor: middle; dominant-baseline: middle; font-size: 12px;" y="335.2323913574219" x="660.07275390625" id="rel3" class="er relationshipLabel">orderedType</text><rect height="14" width="43.296875" y="316.548095703125" x="767.7046508789062" class="er relationshipLabelBox"></rect><text style="text-anchor: middle; dominant-baseline: middle; font-size: 12px;" y="323.548095703125" x="789.3530883789062" id="rel4" class="er relationshipLabel">hasRule</text><rect height="14" width="74.90847778320312" y="133.14816284179688" x="44.603302001953125" class="er relationshipLabelBox"></rect><text style="text-anchor: middle; dominant-baseline: middle; font-size: 12px;" y="140.14816284179688" x="82.05754089355469" id="rel5" class="er relationshipLabel">dataEncoding</text><rect height="14" width="48.328125" y="171.42965698242188" x="319.5520935058594" class="er relationshipLabelBox"></rect><text style="text-anchor: middle; dominant-baseline: middle; font-size: 12px;" y="178.42965698242188" x="343.7161560058594" id="rel6" class="er relationshipLabel">datatype</text><rect height="14" width="42.40423583984375" y="126.08290100097656" x="230.95187377929688" class="er relationshipLabelBox"></rect><text style="text-anchor: middle; dominant-baseline: middle; font-size: 12px;" y="133.08290100097656" x="252.15399169921875" id="rel7" class="er relationshipLabel">hasUnit</text><rect height="14" width="46.921875" y="488" x="956.8790893554688" class="er relationshipLabelBox"></rect><text style="text-anchor: middle; dominant-baseline: middle; font-size: 12px;" y="495" x="980.3400268554688" id="rel8" class="er relationshipLabel">ruleType</text><rect height="14" width="57.58837890625" y="146.1765899658203" x="429.87298583984375" class="er relationshipLabelBox"></rect><text style="text-anchor: middle; dominant-baseline: middle; font-size: 12px;" y="153.1765899658203" x="458.66717529296875" id="rel9" class="er relationshipLabel">cardinality</text><rect height="14" width="28.4041748046875" y="127.90858459472656" x="607.1394653320312" class="er relationshipLabelBox"></rect><text style="text-anchor: middle; dominant-baseline: middle; font-size: 12px;" y="134.90858459472656" x="621.341552734375" id="rel10" class="er relationshipLabel">basis</text><rect height="14" width="69.78125" y="159.62197875976562" x="693.5433959960938" class="er relationshipLabelBox"></rect><text style="text-anchor: middle; dominant-baseline: middle; font-size: 12px;" y="166.62197875976562" x="728.4340209960938" id="rel11" class="er relationshipLabel">rdfsDatatype</text><rect height="14" width="68.28125" y="206.69944763183594" x="874.4383544921875" class="er relationshipLabelBox"></rect><text style="text-anchor: middle; dominant-baseline: middle; font-size: 12px;" y="213.69944763183594" x="908.5789794921875" id="rel12" class="er relationshipLabel">orderedType</text><rect height="14" width="43.296875" y="143.58132934570312" x="996.5624389648438" class="er relationshipLabelBox"></rect><text style="text-anchor: middle; dominant-baseline: middle; font-size: 12px;" y="150.58132934570312" x="1018.2108764648438" id="rel13" class="er relationshipLabel">hasRule</text></svg>