<svg xmlns="http://www.w3.org/2000/svg" aria-roledescription="er" role="graphics-document document" viewBox="0 0 3465.7666015625 1340" height="1340" width="3465.7666015625" id="container">
  <style>#container{font-family:"trebuchet ms",verdana,arial,sans-serif;font-size:16px;fill:#333;}#container .error-icon{fill:#552222;}#container .error-text{fill:#552222;stroke:#552222;}#container .edge-thickness-normal{stroke-width:1px;}#container .edge-thickness-thick{stroke-width:3.5px;}#container .edge-pattern-solid{stroke-dasharray:0;}#container .edge-thickness-invisible{stroke-width:0;fill:none;}#container .edge-pattern-dashed{stroke-dasharray:3;}#container .edge-pattern-dotted{stroke-dasharray:2;}#container .marker{fill:#333333;stroke:#333333;}#container .marker.cross{stroke:#333333;}#container svg{font-family:"trebuchet ms",verdana,arial,sans-serif;font-size:16px;}#container p{margin:0;}#container .entityBox{fill:#ECECFF;stroke:#9370DB;}#container .attributeBoxOdd{fill:#ffffff;stroke:#9370DB;}#container .attributeBoxEven{fill:#f2f2f2;stroke:#9370DB;}#container .relationshipLabelBox{fill:hsl(80, 100%, 96.2745098039%);opacity:0.7;background-color:hsl(80, 100%, 96.2745098039%);}#container .relationshipLabelBox rect{opacity:0.5;}#container .relationshipLine{stroke:#333333;}#container .entityTitleText{text-anchor:middle;font-size:18px;fill:#333;}#container #MD_PARENT_START{fill:#f5f5f5!important;stroke:#333333!important;stroke-width:1;}#container #MD_PARENT_END{fill:#f5f5f5!important;stroke:#333333!important;stroke-width:1;}#container :root{--mermaid-font-family:"trebuchet ms",verdana,arial,sans-serif;}</style>
  <g/>
  <defs>
    <marker orient="auto" markerHeight="240" markerWidth="190" refY="7" refX="0" id="MD_PARENT_START">
      <path d="M 18,7 L9,13 L1,7 L9,1 Z"/>
    </marker>
  </defs>
  <defs>
    <marker orient="auto" markerHeight="28" markerWidth="20" refY="7" refX="19" id="MD_PARENT_END">
      <path d="M 18,7 L9,13 L1,7 L9,1 Z"/>
    </marker>
  </defs>
  <defs>
    <marker orient="auto" markerHeight="18" markerWidth="18" refY="9" refX="0" id="ONLY_ONE_START">
      <path d="M9,0 L9,18 M15,0 L15,18" fill="none" stroke="gray"/>
    </marker>
  </defs>
  <defs>
    <marker orient="auto" markerHeight="18" markerWidth="18" refY="9" refX="18" id="ONLY_ONE_END">
      <path d="M3,0 L3,18 M9,0 L9,18" fill="none" stroke="gray"/>
    </marker>
  </defs>
  <defs>
    <marker orient="auto" markerHeight="18" markerWidth="30" refY="9" refX="0" id="ZERO_OR_ONE_START">
      <circle r="6" cy="9" cx="21" fill="white" stroke="gray"/>
      <path d="M9,0 L9,18" fill="none" stroke="gray"/>
    </marker>
  </defs>
  <defs>
    <marker orient="auto" markerHeight="18" markerWidth="30" refY="9" refX="30" id="ZERO_OR_ONE_END">
      <circle r="6" cy="9" cx="9" fill="white" stroke="gray"/>
      <path d="M21,0 L21,18" fill="none" stroke="gray"/>
    </marker>
  </defs>
  <defs>
    <marker orient="auto" markerHeight="36" markerWidth="45" refY="18" refX="18" id="ONE_OR_MORE_START">
      <path d="M0,18 Q 18,0 36,18 Q 18,36 0,18 M42,9 L42,27" fill="none" stroke="gray"/>
    </marker>
  </defs>
  <defs>
    <marker orient="auto" markerHeight="36" markerWidth="45" refY="18" refX="27" id="ONE_OR_MORE_END">
      <path d="M3,9 L3,27 M9,18 Q27,0 45,18 Q27,36 9,18" fill="none" stroke="gray"/>
    </marker>
  </defs>
  <defs>
    <marker orient="auto" markerHeight="36" markerWidth="57" refY="18" refX="18" id="ZERO_OR_MORE_START">
      <circle r="6" cy="18" cx="48" fill="white" stroke="gray"/>
      <path d="M0,18 Q18,0 36,18 Q18,36 0,18" fill="none" stroke="gray"/>
    </marker>
  </defs>
  <defs>
    <marker orient="auto" markerHeight="36" markerWidth="57" refY="18" refX="39" id="ZERO_OR_MORE_END">
      <circle r="6" cy="18" cx="9" fill="white" stroke="gray"/>
      <path d="M21,18 Q39,0 57,18 Q39,36 21,18" fill="none" stroke="gray"/>
    </marker>
  </defs>
  <path style="stroke: gray; fill: none;" marker-start="url(#ONLY_ONE_START)" marker-end="url(#ZERO_OR_ONE_END)" d="M727.097,59.839L1065.427,74.033C1403.757,88.226,2080.416,116.613,2418.746,139.14C2757.075,161.667,2757.075,178.333,2757.075,186.667L2757.075,195" class="er relationshipLine"/>
  <path style="stroke: gray; fill: none;" marker-start="url(#ONLY_ONE_START)" marker-end="url(#ZERO_OR_MORE_END)" d="M727.097,90.32L742.581,99.433C758.065,108.547,789.032,126.773,804.516,150.47C820,174.167,820,203.333,820,232.5C820,261.667,820,290.833,820,320C820,349.167,820,378.333,820,407.5C820,436.667,820,465.833,820,495C820,524.167,820,553.333,820,582.5C820,611.667,820,640.833,820,670C820,699.167,820,728.333,820,757.5C820,786.667,820,815.833,937.299,844.033C1054.598,872.232,1289.196,899.464,1406.495,913.08L1523.794,926.696" class="er relationshipLine"/>
  <path style="stroke: gray; fill: none;" marker-start="url(#ONLY_ONE_START)" marker-end="url(#ZERO_OR_MORE_END)" d="M692.191,95L696.826,103.333C701.461,111.667,710.73,128.333,715.365,151.25C720,174.167,720,203.333,720,232.5C720,261.667,720,290.833,1056.44,319.643C1392.879,348.452,2065.758,376.904,2402.198,391.13L2738.637,405.356" class="er relationshipLine"/>
  <path style="stroke: gray; fill: none;" marker-start="url(#ONLY_ONE_START)" marker-end="url(#ZERO_OR_MORE_END)" d="M649.334,95L644.445,103.333C639.556,111.667,629.778,128.333,624.889,151.25C620,174.167,620,203.333,620,232.5C620,261.667,620,290.833,620,320C620,349.167,620,378.333,620,407.5C620,436.667,620,465.833,620,495C620,524.167,620,553.333,620,582.5C620,611.667,620,640.833,757.09,669.087C894.18,697.341,1168.361,724.682,1305.451,738.353L1442.541,752.024" class="er relationshipLine"/>
  <path style="stroke: gray; fill: none;" marker-start="url(#ONLY_ONE_START)" marker-end="url(#ZERO_OR_MORE_END)" d="M615.573,89.741L599.644,98.951C583.715,108.161,551.858,126.58,535.929,150.374C520,174.167,520,203.333,520,232.5C520,261.667,520,290.833,520,320C520,349.167,520,378.333,520,407.5C520,436.667,520,465.833,520,495C520,524.167,520,553.333,520,582.5C520,611.667,520,640.833,620,668.878C720,696.923,920,723.846,1020,737.308L1120,750.769" class="er relationshipLine"/>
  <path style="stroke: gray; fill: none;" marker-start="url(#ONLY_ONE_START)" marker-end="url(#ZERO_OR_MORE_END)" d="M615.573,76.913L582.977,88.261C550.382,99.609,485.191,122.304,452.595,148.236C420,174.167,420,203.333,420,232.5C420,261.667,420,290.833,420,320C420,349.167,420,378.333,420,407.5C420,436.667,420,465.833,648.279,494.486C876.559,523.139,1333.117,551.279,1561.396,565.349L1789.676,579.418" class="er relationshipLine"/>
  <path style="stroke: gray; fill: none;" marker-start="url(#ONLY_ONE_START)" marker-end="url(#ZERO_OR_MORE_END)" d="M615.573,71.388L566.311,83.656C517.049,95.925,418.524,120.463,369.262,147.315C320,174.167,320,203.333,320,232.5C320,261.667,320,290.833,320,320C320,349.167,320,378.333,320,407.5C320,436.667,320,465.833,320,495C320,524.167,320,553.333,320,582.5C320,611.667,320,640.833,420,668.878C520,696.923,720,723.846,820,737.308L920,750.769" class="er relationshipLine"/>
  <path style="stroke: gray; fill: none;" marker-start="url(#ONLY_ONE_START)" marker-end="url(#ZERO_OR_ONE_END)" d="M1956.755,953.904L1988.397,964.92C2020.04,975.936,2083.325,997.968,2114.967,1023.567C2146.61,1049.167,2146.61,1078.333,2146.61,1107.5C2146.61,1136.667,2146.61,1165.833,2073.056,1193.445C1999.502,1221.057,1852.394,1247.114,1778.841,1260.142L1705.287,1273.171" class="er relationshipLine"/>
  <path style="stroke: gray; fill: none;" marker-start="url(#ONLY_ONE_START)" marker-end="url(#ZERO_OR_ONE_END)" d="M1956.755,968.047L1971.731,976.706C1986.706,985.365,2016.658,1002.682,2031.634,1025.925C2046.61,1049.167,2046.61,1078.333,2046.61,1107.5C2046.61,1136.667,2046.61,1165.833,1881.875,1194.298C1717.14,1222.762,1387.669,1250.525,1222.934,1264.406L1058.199,1278.287" class="er relationshipLine"/>
  <path style="stroke: gray; fill: none;" marker-start="url(#ONLY_ONE_START)" marker-end="url(#ZERO_OR_ONE_END)" d="M1857.957,895L1849.664,886.667C1841.371,878.333,1824.785,861.667,1816.492,838.75C1808.199,815.833,1808.199,786.667,1808.199,757.5C1808.199,728.333,1808.199,699.167,1811.197,676.25C1814.195,653.333,1820.19,636.667,1823.188,628.333L1826.186,620" class="er relationshipLine"/>
  <path style="stroke: gray; fill: none;" marker-start="url(#ONLY_ONE_START)" marker-end="url(#ZERO_OR_MORE_END)" d="M1956.755,914.965L1968.422,911.637C1980.088,908.31,2003.422,901.655,2018.005,898.327C2032.588,895,2038.422,895,2044.255,901.25C2050.088,907.5,2055.922,920,2055.922,932.5C2055.922,945,2050.088,957.5,2044.255,963.75C2038.422,970,2032.588,970,2018.005,966.673C2003.422,963.345,1980.088,956.69,1968.422,953.363L1956.755,950.035" class="er relationshipLine"/>
  <path style="stroke: gray; fill: none;" marker-start="url(#ONLY_ONE_START)" marker-end="url(#ZERO_OR_MORE_END)" d="M1956.755,924.439L2057.728,911.199C2158.701,897.959,2360.647,871.48,2461.621,843.656C2562.594,815.833,2562.594,786.667,2562.594,757.5C2562.594,728.333,2562.594,699.167,2562.594,670C2562.594,640.833,2562.594,611.667,2562.594,582.5C2562.594,553.333,2562.594,524.167,2591.934,498.261C2621.275,472.355,2679.956,449.709,2709.297,438.386L2738.637,427.064" class="er relationshipLine"/>
  <path style="stroke: gray; fill: none;" marker-start="url(#ONLY_ONE_START)" marker-end="url(#ZERO_OR_MORE_END)" d="M1956.755,919.472L2015.329,907.06C2073.903,894.648,2191.051,869.824,2249.625,842.829C2308.199,815.833,2308.199,786.667,2308.199,757.5C2308.199,728.333,2308.199,699.167,2308.199,670C2308.199,640.833,2308.199,611.667,2308.199,582.5C2308.199,553.333,2308.199,524.167,2308.199,495C2308.199,465.833,2308.199,436.667,2308.199,407.5C2308.199,378.333,2308.199,349.167,2366.829,323.155C2425.459,297.142,2542.719,274.285,2601.349,262.856L2659.979,251.427" class="er relationshipLine"/>
  <path style="stroke: gray; fill: none;" marker-start="url(#ONLY_ONE_START)" marker-end="url(#ZERO_OR_MORE_END)" d="M1873.846,970L1869.084,978.333C1864.322,986.667,1854.798,1003.333,1827.944,1022.074C1801.09,1040.815,1756.906,1061.629,1734.814,1072.037L1712.722,1082.444" class="er relationshipLine"/>
  <path style="stroke: gray; fill: none;" marker-start="url(#ONLY_ONE_START)" marker-end="url(#ZERO_OR_MORE_END)" d="M1833.794,920.487L1769.405,907.906C1705.016,895.325,1576.238,870.162,1516.61,849.248C1456.983,828.333,1466.507,811.667,1471.269,803.333L1476.031,795" class="er relationshipLine"/>
  <path style="stroke: gray; fill: none;" marker-start="url(#ONLY_ONE_START)" marker-end="url(#ZERO_OR_MORE_END)" d="M1623.794,916.875L1635.461,913.229C1647.128,909.583,1670.461,902.292,1685.044,898.646C1699.628,895,1705.461,895,1711.294,901.25C1717.128,907.5,1722.961,920,1722.961,932.5C1722.961,945,1717.128,957.5,1711.294,963.75C1705.461,970,1699.628,970,1685.044,966.354C1670.461,962.708,1647.128,955.417,1635.461,951.771L1623.794,948.125" class="er relationshipLine"/>
  <path style="stroke: gray; fill: none;" marker-start="url(#ONLY_ONE_START)" marker-end="url(#ZERO_OR_MORE_END)" d="M1573.794,970L1573.794,978.333C1573.794,986.667,1573.794,1003.333,1552.839,1022C1531.883,1040.666,1489.971,1061.332,1469.016,1071.665L1448.06,1081.998" class="er relationshipLine"/>
  <path style="stroke: gray; fill: none;" marker-start="url(#ONLY_ONE_START)" marker-end="url(#ZERO_OR_ONE_END)" d="M120,436.667L136.667,446.389C153.333,456.111,186.667,475.556,203.333,499.861C220,524.167,220,553.333,220,582.5C220,611.667,220,640.833,220,670C220,699.167,220,728.333,220,757.5C220,786.667,220,815.833,220,845C220,874.167,220,903.333,220,932.5C220,961.667,220,990.833,220,1020C220,1049.167,220,1078.333,220,1107.5C220,1136.667,220,1165.833,449.991,1194.464C679.982,1223.094,1139.964,1251.189,1369.955,1265.236L1599.946,1279.283" class="er relationshipLine"/>
  <path style="stroke: gray; fill: none;" marker-start="url(#ONLY_ONE_START)" marker-end="url(#ZERO_OR_ONE_END)" d="M91.429,445L96.19,453.333C100.952,461.667,110.476,478.333,115.238,501.25C120,524.167,120,553.333,120,582.5C120,611.667,120,640.833,120,670C120,699.167,120,728.333,120,757.5C120,786.667,120,815.833,120,845C120,874.167,120,903.333,120,932.5C120,961.667,120,990.833,120,1020C120,1049.167,120,1078.333,120,1107.5C120,1136.667,120,1165.833,259.7,1194.179C399.4,1222.525,678.8,1250.05,818.499,1263.812L958.199,1277.574" class="er relationshipLine"/>
  <path style="stroke: gray; fill: none;" marker-start="url(#ONLY_ONE_START)" marker-end="url(#ZERO_OR_ONE_END)" d="M48.571,445L43.81,453.333C39.048,461.667,29.524,478.333,319.708,500.849C609.892,523.365,1199.784,551.73,1494.73,565.913L1789.676,580.096" class="er relationshipLine"/>
  <path style="stroke: gray; fill: none;" marker-start="url(#ONLY_ONE_START)" marker-end="url(#ZERO_OR_ONE_END)" d="M2840.028,420.014L2890.659,432.511C2941.29,445.009,3042.551,470.005,3093.182,490.836C3143.813,511.667,3143.813,528.333,3143.813,536.667L3143.813,545" class="er relationshipLine"/>
  <path style="stroke: gray; fill: none;" marker-start="url(#ONLY_ONE_START)" marker-end="url(#ZERO_OR_MORE_END)" d="M2840.028,400.818L2878.999,395.682C2917.97,390.546,2995.912,380.273,3044.625,375.136C3093.339,370,3112.825,370,3132.31,376.25C3151.796,382.5,3171.281,395,3171.281,407.5C3171.281,420,3151.796,432.5,3132.31,438.75C3112.825,445,3093.339,445,3044.625,439.864C2995.912,434.727,2917.97,424.454,2878.999,419.318L2840.028,414.182" class="er relationshipLine"/>
  <path style="stroke: gray; fill: none;" marker-start="url(#ONLY_ONE_START)" marker-end="url(#ZERO_OR_MORE_END)" d="M2782.69,370L2781.213,361.667C2779.737,353.333,2776.785,336.667,2773.713,320C2770.641,303.333,2767.449,286.667,2765.853,278.333L2764.257,270" class="er relationshipLine"/>
  <path style="stroke: gray; fill: none;" marker-start="url(#ONLY_ONE_START)" marker-end="url(#ZERO_OR_MORE_END)" d="M2820.73,445L2827.707,453.333C2834.685,461.667,2848.639,478.333,2855.617,495C2862.594,511.667,2862.594,528.333,2862.594,536.667L2862.594,545" class="er relationshipLine"/>
  <path style="stroke: gray; fill: none;" marker-start="url(#ONLY_ONE_START)" marker-end="url(#ZERO_OR_MORE_END)" d="M2777.873,445L2775.326,453.333C2772.78,461.667,2767.687,478.333,2619.654,500.46C2471.621,522.587,2180.648,550.173,2035.162,563.966L1889.676,577.76" class="er relationshipLine"/>
  <path style="stroke: gray; fill: none;" marker-start="url(#ONLY_ONE_START)" marker-end="url(#ZERO_OR_MORE_END)" d="M2854.172,244.836L2952.771,257.364C3051.37,269.891,3248.568,294.945,3246.211,320.93C3243.854,346.914,3041.941,373.828,2940.984,387.285L2840.028,400.743" class="er relationshipLine"/>
  <path style="stroke: gray; fill: none;" marker-start="url(#ONLY_ONE_START)" marker-end="url(#ZERO_OR_MORE_END)" d="M2854.172,246.932L2936.104,259.11C3018.037,271.288,3181.902,295.644,3268.596,316.155C3355.29,336.667,3364.814,353.333,3369.576,361.667L3374.338,370" class="er relationshipLine"/>
  <path style="stroke: gray; fill: none;" marker-start="url(#ONLY_ONE_START)" marker-end="url(#ZERO_OR_ONE_END)" d="M1712.722,1123.711L1751.703,1135.593C1790.684,1147.474,1868.647,1171.237,1867.408,1195.089C1866.169,1218.941,1785.728,1242.883,1745.507,1254.853L1705.287,1266.824" class="er relationshipLine"/>
  <path style="stroke: gray; fill: none;" marker-start="url(#ONLY_ONE_START)" marker-end="url(#ZERO_OR_ONE_END)" d="M1606.347,1113.404L1483.845,1127.004C1361.343,1140.603,1116.339,1167.801,1008.314,1190.656C900.29,1213.511,929.245,1232.023,943.722,1241.278L958.199,1250.534" class="er relationshipLine"/>
  <path style="stroke: gray; fill: none;" marker-start="url(#ONLY_ONE_START)" marker-end="url(#ZERO_OR_ONE_END)" d="M1606.347,1093.793L1558.622,1081.494C1510.898,1069.196,1415.449,1044.598,1367.724,1017.716C1320,990.833,1320,961.667,1320,932.5C1320,903.333,1320,874.167,1320,845C1320,815.833,1320,786.667,1320,757.5C1320,728.333,1320,699.167,1398.279,671.403C1476.559,643.64,1633.117,617.279,1711.396,604.099L1789.676,590.919" class="er relationshipLine"/>
  <path style="stroke: gray; fill: none;" marker-start="url(#ONLY_ONE_START)" marker-end="url(#ZERO_OR_MORE_END)" d="M3395.766,445L3395.766,453.333C3395.766,461.667,3395.766,478.333,3395.766,495C3395.766,511.667,3395.766,528.333,3395.766,536.667L3395.766,545" class="er relationshipLine"/>
  <path style="stroke: gray; fill: none;" marker-start="url(#ONLY_ONE_START)" marker-end="url(#ZERO_OR_MORE_END)" d="M1552.377,780.302L1578.348,791.085C1604.318,801.868,1656.259,823.434,1703.161,844.008C1750.064,864.581,1791.929,884.163,1812.862,893.953L1833.794,903.744" class="er relationshipLine"/>
  <path style="stroke: gray; fill: none;" marker-start="url(#ONLY_ONE_START)" marker-end="url(#ZERO_OR_MORE_END)" d="M1518.888,795L1523.65,803.333C1528.412,811.667,1537.935,828.333,1545.205,845C1552.475,861.667,1557.492,878.333,1560,886.667L1562.508,895" class="er relationshipLine"/>
  <path style="stroke: gray; fill: none;" marker-start="url(#ONLY_ONE_START)" marker-end="url(#ZERO_OR_MORE_END)" d="M1442.541,746.258L1380.451,733.549C1318.361,720.839,1194.18,695.419,1252.036,669.074C1309.892,642.728,1549.784,615.456,1669.73,601.82L1789.676,588.184" class="er relationshipLine"/>
  <path style="stroke: gray; fill: none;" marker-start="url(#ONLY_ONE_START)" marker-end="url(#ZERO_OR_ONE_END)" d="M1889.676,574.805L1976.096,561.504C2062.517,548.203,2235.358,521.602,2321.779,493.717C2408.199,465.833,2408.199,436.667,2408.199,407.5C2408.199,378.333,2408.199,349.167,2450.163,324.059C2492.126,298.951,2576.052,277.902,2618.015,267.377L2659.979,256.852" class="er relationshipLine"/>
  <path style="stroke: gray; fill: none;" marker-start="url(#ONLY_ONE_START)" marker-end="url(#ZERO_OR_MORE_END)" d="M1889.676,594.372L1942.763,606.976C1995.85,619.581,2102.025,644.791,2155.112,671.979C2208.199,699.167,2208.199,728.333,2208.199,757.5C2208.199,786.667,2208.199,815.833,2110.798,843.851C2013.398,871.868,1818.596,898.736,1721.195,912.17L1623.794,925.604" class="er relationshipLine"/>
  <path style="stroke: gray; fill: none;" marker-start="url(#ONLY_ONE_START)" marker-end="url(#ZERO_OR_MORE_END)" d="M1889.676,577.184L2018.495,563.486C2147.315,549.789,2404.954,522.395,2546.448,499.947C2687.942,477.5,2713.289,460,2725.963,451.25L2738.637,442.5" class="er relationshipLine"/>
  <path style="stroke: gray; fill: none;" marker-start="url(#ONLY_ONE_START)" marker-end="url(#ZERO_OR_MORE_END)" d="M1889.676,598.793L1926.096,610.661C1962.517,622.529,2035.358,646.264,1979.142,671.404C1922.925,696.544,1737.651,723.088,1645.014,736.36L1552.377,749.632" class="er relationshipLine"/>
  <path style="stroke: gray; fill: none;" marker-start="url(#ONLY_ONE_START)" marker-end="url(#ZERO_OR_MORE_END)" d="M1889.676,608.461L1909.43,618.717C1929.184,628.974,1968.691,649.487,1857.079,673.457C1745.466,697.427,1482.733,724.854,1351.367,738.567L1220,752.28" class="er relationshipLine"/>
  <path style="stroke: gray; fill: none;" marker-start="url(#ONLY_ONE_START)" marker-end="url(#ZERO_OR_MORE_END)" d="M1889.676,574.184L1918.92,569.32C1948.165,564.456,2006.653,554.728,2043.209,549.864C2079.764,545,2094.386,545,2109.009,551.25C2123.631,557.5,2138.253,570,2138.253,582.5C2138.253,595,2123.631,607.5,2109.009,613.75C2094.386,620,2079.764,620,2043.209,615.136C2006.653,610.272,1948.165,600.544,1918.92,595.68L1889.676,590.816" class="er relationshipLine"/>
  <path style="stroke: gray; fill: none;" marker-start="url(#ONLY_ONE_START)" marker-end="url(#ZERO_OR_MORE_END)" d="M1869.043,620L1875.569,628.333C1882.095,636.667,1895.147,653.333,1753.64,675.473C1612.133,697.612,1316.066,725.225,1168.033,739.031L1020,752.837" class="er relationshipLine"/>
  <g transform="translate(615.5728530883789,20 )" id="entity-ContextualUnit-4d0c347e-427b-5587-9ab8-7f76b763f025">
    <rect height="75" width="111.5245361328125" y="0" x="0" class="er entityBox"/>
    <text style="dominant-baseline: middle; text-anchor: middle; font-size: 12px;" transform="translate(55.76226806640625,37.5)" y="0" x="0" id="text-entity-ContextualUnit-4d0c347e-427b-5587-9ab8-7f76b763f025" class="er entityLabel">ContextualUnit</text>
  </g>
  <g transform="translate(1833.7942504882812,895 )" id="entity-PhysicalConstant-f43f8855-cf72-5deb-8dd3-7b0283708583">
    <rect height="75" width="122.96058654785156" y="0" x="0" class="er entityBox"/>
    <text style="dominant-baseline: middle; text-anchor: middle; font-size: 12px;" transform="translate(61.48029327392578,37.5)" y="0" x="0" id="text-entity-PhysicalConstant-f43f8855-cf72-5deb-8dd3-7b0283708583" class="er entityLabel">PhysicalConstant</text>
  </g>
  <g transform="translate(1523.7942504882812,895 )" id="entity-Prefix-f6d97b99-faee-5974-b12e-390868d79e86">
    <rect height="75" width="100" y="0" x="0" class="er entityBox"/>
    <text style="dominant-baseline: middle; text-anchor: middle; font-size: 12px;" transform="translate(50,37.5)" y="0" x="0" id="text-entity-Prefix-f6d97b99-faee-5974-b12e-390868d79e86" class="er entityLabel">Prefix</text>
  </g>
  <g transform="translate(20,370 )" id="entity-Quantifiable-82d4468d-7a40-5b3c-81f8-69036607af45">
    <rect height="75" width="100" y="0" x="0" class="er entityBox"/>
    <text style="dominant-baseline: middle; text-anchor: middle; font-size: 12px;" transform="translate(50,37.5)" y="0" x="0" id="text-entity-Quantifiable-82d4468d-7a40-5b3c-81f8-69036607af45" class="er entityLabel">Quantifiable</text>
  </g>
  <g transform="translate(2738.637119293213,370 )" id="entity-QuantityKind-6f79b338-e354-5d95-8035-8883644476ff">
    <rect height="75" width="101.390625" y="0" x="0" class="er entityBox"/>
    <text style="dominant-baseline: middle; text-anchor: middle; font-size: 12px;" transform="translate(50.6953125,37.5)" y="0" x="0" id="text-entity-QuantityKind-6f79b338-e354-5d95-8035-8883644476ff" class="er entityLabel">QuantityKind</text>
  </g>
  <g transform="translate(2659.9787254333496,195 )" id="entity-QuantityKindDimensionVector-bfa1bf26-fcae-516f-8f63-2f454f3dac1b">
    <rect height="75" width="194.19308471679688" y="0" x="0" class="er entityBox"/>
    <text style="dominant-baseline: middle; text-anchor: middle; font-size: 12px;" transform="translate(97.09654235839844,37.5)" y="0" x="0" id="text-entity-QuantityKindDimensionVector-bfa1bf26-fcae-516f-8f63-2f454f3dac1b" class="er entityLabel">QuantityKindDimensionVector</text>
  </g>
  <g transform="translate(1606.3468971252441,1070 )" id="entity-QuantityValue-f2bc13d2-1961-5e2a-9bfe-ab6a05a5860b">
    <rect height="75" width="106.375" y="0" x="0" class="er entityBox"/>
    <text style="dominant-baseline: middle; text-anchor: middle; font-size: 12px;" transform="translate(53.1875,37.5)" y="0" x="0" id="text-entity-QuantityValue-f2bc13d2-1961-5e2a-9bfe-ab6a05a5860b" class="er entityLabel">QuantityValue</text>
  </g>
  <g transform="translate(3345.7664833068848,370 )" id="entity-Rule-886caf8e-59ff-5db3-a492-27242971196f">
    <rect height="75" width="100" y="0" x="0" class="er entityBox"/>
    <text style="dominant-baseline: middle; text-anchor: middle; font-size: 12px;" transform="translate(50,37.5)" y="0" x="0" id="text-entity-Rule-886caf8e-59ff-5db3-a492-27242971196f" class="er entityLabel">Rule</text>
  </g>
  <g transform="translate(1442.540870666504,720 )" id="entity-SystemOfUnits-f7f1da8e-a5af-50e1-94d0-c2e741f40e1d">
    <rect height="75" width="109.83651733398438" y="0" x="0" class="er entityBox"/>
    <text style="dominant-baseline: middle; text-anchor: middle; font-size: 12px;" transform="translate(54.91825866699219,37.5)" y="0" x="0" id="text-entity-SystemOfUnits-f7f1da8e-a5af-50e1-94d0-c2e741f40e1d" class="er entityLabel">SystemOfUnits</text>
  </g>
  <g transform="translate(1120,720 )" id="entity-UCUMcs-8df33f70-0c53-5f8e-a81f-0969bc803a34">
    <rect height="75" width="100" y="0" x="0" class="er entityBox"/>
    <text style="dominant-baseline: middle; text-anchor: middle; font-size: 12px;" transform="translate(50,37.5)" y="0" x="0" id="text-entity-UCUMcs-8df33f70-0c53-5f8e-a81f-0969bc803a34" class="er entityLabel">UCUMcs</text>
  </g>
  <g transform="translate(1789.67578125,545 )" id="entity-Unit-c57ac1ea-0a24-509a-a80e-23f8c03ca739">
    <rect height="75" width="100" y="0" x="0" class="er entityBox"/>
    <text style="dominant-baseline: middle; text-anchor: middle; font-size: 12px;" transform="translate(50,37.5)" y="0" x="0" id="text-entity-Unit-c57ac1ea-0a24-509a-a80e-23f8c03ca739" class="er entityLabel">Unit</text>
  </g>
  <g transform="translate(920,720 )" id="entity-Class-d9e3eb4a-97c0-50b6-8e3f-7f4a2fa7283d">
    <rect height="75" width="100" y="0" x="0" class="er entityBox"/>
    <text style="dominant-baseline: middle; text-anchor: middle; font-size: 12px;" transform="translate(50,37.5)" y="0" x="0" id="text-entity-Class-d9e3eb4a-97c0-50b6-8e3f-7f4a2fa7283d" class="er entityLabel">__Class</text>
  </g>
  <g transform="translate(1599.9461860656738,1245 )" id="entity-DataEncoding-e949680e-a6e4-55c9-9325-aa69226f3e53">
    <rect height="75" width="105.34048461914062" y="0" x="0" class="er entityBox"/>
    <text style="dominant-baseline: middle; text-anchor: middle; font-size: 12px;" transform="translate(52.67024230957031,37.5)" y="0" x="0" id="text-entity-DataEncoding-e949680e-a6e4-55c9-9325-aa69226f3e53" class="er entityLabel">DataEncoding</text>
  </g>
  <g transform="translate(958.199275970459,1245 )" id="entity-Datatype-eedb5402-d0cc-52bf-9fb8-7b914f648cbe">
    <rect height="75" width="100" y="0" x="0" class="er entityBox"/>
    <text style="dominant-baseline: middle; text-anchor: middle; font-size: 12px;" transform="translate(50,37.5)" y="0" x="0" id="text-entity-Datatype-eedb5402-d0cc-52bf-9fb8-7b914f648cbe" class="er entityLabel">Datatype</text>
  </g>
  <g transform="translate(1344.6223754882812,1070 )" id="entity-UCUMcsterm-f108a9d5-75dc-5824-aae7-181f348ae82a">
    <rect height="75" width="103.4375" y="0" x="0" class="er entityBox"/>
    <text style="dominant-baseline: middle; text-anchor: middle; font-size: 12px;" transform="translate(51.71875,37.5)" y="0" x="0" id="text-entity-UCUMcsterm-f108a9d5-75dc-5824-aae7-181f348ae82a" class="er entityLabel">UCUMcs-term</text>
  </g>
  <g transform="translate(3041.8602333068848,545 )" id="entity-QuantityKindDimensionVectorSI-2681a9c0-d385-5c75-b278-85a805bca5b5">
    <rect height="75" width="203.90625" y="0" x="0" class="er entityBox"/>
    <text style="dominant-baseline: middle; text-anchor: middle; font-size: 12px;" transform="translate(101.953125,37.5)" y="0" x="0" id="text-entity-QuantityKindDimensionVectorSI-2681a9c0-d385-5c75-b278-85a805bca5b5" class="er entityLabel">QuantityKindDimensionVectorSI</text>
  </g>
  <g transform="translate(2783.327381134033,545 )" id="entity-SystemOfQuantityKinds-09c2a533-d4ff-5ffb-9642-53498359216a">
    <rect height="75" width="158.53285217285156" y="0" x="0" class="er entityBox"/>
    <text style="dominant-baseline: middle; text-anchor: middle; font-size: 12px;" transform="translate(79.26642608642578,37.5)" y="0" x="0" id="text-entity-SystemOfQuantityKinds-09c2a533-d4ff-5ffb-9642-53498359216a" class="er entityLabel">SystemOfQuantityKinds</text>
  </g>
  <g transform="translate(3345.7664833068848,545 )" id="entity-RuleType-d54df1a6-a17d-5920-9344-6f805c739e55">
    <rect height="75" width="100" y="0" x="0" class="er entityBox"/>
    <text style="dominant-baseline: middle; text-anchor: middle; font-size: 12px;" transform="translate(50,37.5)" y="0" x="0" id="text-entity-RuleType-d54df1a6-a17d-5920-9344-6f805c739e55" class="er entityLabel">RuleType</text>
  </g>
  <rect height="14" width="304.4981689453125" y="96.83695220947266" x="1597.9484252929688" class="er relationshipLabelBox"/>
  <text style="text-anchor: middle; dominant-baseline: middle; font-size: 12px;" y="103.83695220947266" x="1750.197509765625" id="rel1" class="er relationshipLabel">hasDimensionVector, qkdvDenominator, qkdvNumerator</text>
  <rect height="14" width="30.8402099609375" y="772.2958984375" x="806.3967895507812" class="er relationshipLabelBox"/>
  <text style="text-anchor: middle; dominant-baseline: middle; font-size: 12px;" y="779.2958984375" x="821.81689453125" id="rel2" class="er relationshipLabel">prefix</text>
  <rect height="14" width="90.4375" y="349.5519714355469" x="1598.73876953125" class="er relationshipLabelBox"/>
  <text style="text-anchor: middle; dominant-baseline: middle; font-size: 12px;" y="356.5519714355469" x="1643.95751953125" id="rel3" class="er relationshipLabel">hasQuantityKind</text>
  <rect height="14" width="597.5625" y="664.0740966796875" x="468.18115234375" class="er relationshipLabelBox"/>
  <text style="text-anchor: middle; dominant-baseline: middle; font-size: 12px;" y="671.0740966796875" x="766.96240234375" id="rel4" class="er relationshipLabel">applicableSystem, definedUnitOfSystem, derivedCoherentUnitOfSystem, derivedUnitOfSystem, isUnitOfSystem</text>
  <rect height="14" width="57.078125" y="627.0906372070312" x="512.2377319335938" class="er relationshipLabelBox"/>
  <text style="text-anchor: middle; dominant-baseline: middle; font-size: 12px;" y="634.0906372070312" x="540.7767944335938" id="rel5" class="er relationshipLabel">ucumCode</text>
  <rect height="14" width="223.1495361328125" y="509.51422119140625" x="753.30322265625" class="er relationshipLabelBox"/>
  <text style="text-anchor: middle; dominant-baseline: middle; font-size: 12px;" y="516.5142211914062" x="864.8779907226562" id="rel6" class="er relationshipLabel">exactMatch, hasReciprocalUnit, scalingOf</text>
  <rect height="14" width="75.63250732421875" y="544.7354125976562" x="282.1837463378906" class="er relationshipLabelBox"/>
  <text style="text-anchor: middle; dominant-baseline: middle; font-size: 12px;" y="551.7354125976562" x="320" id="rel7" class="er relationshipLabel">hasFactorUnit</text>
  <rect height="14" width="74.908447265625" y="1183.9031982421875" x="2042.1549072265625" class="er relationshipLabelBox"/>
  <text style="text-anchor: middle; dominant-baseline: middle; font-size: 12px;" y="1190.9031982421875" x="2079.609130859375" id="rel8" class="er relationshipLabel">dataEncoding</text>
  <rect height="14" width="48.328125" y="1216.552001953125" x="1636.582275390625" class="er relationshipLabelBox"/>
  <text style="text-anchor: middle; dominant-baseline: middle; font-size: 12px;" y="1223.552001953125" x="1660.746337890625" id="rel9" class="er relationshipLabel">datatype</text>
  <rect height="14" width="128.1568603515625" y="756.9439086914062" x="1744.1250610351562" class="er relationshipLabelBox"/>
  <text style="text-anchor: middle; dominant-baseline: middle; font-size: 12px;" y="763.9439086914062" x="1808.2034912109375" id="rel10" class="er relationshipLabel">applicableUnit, hasUnit</text>
  <rect height="14" width="61.453125" y="925.5" x="2025.195556640625" class="er relationshipLabelBox"/>
  <text style="text-anchor: middle; dominant-baseline: middle; font-size: 12px;" y="932.5" x="2055.922119140625" id="rel11" class="er relationshipLabel">exactMatch</text>
  <rect height="14" width="90.4375" y="826.8660278320312" x="2447.777099609375" class="er relationshipLabelBox"/>
  <text style="text-anchor: middle; dominant-baseline: middle; font-size: 12px;" y="833.8660278320312" x="2492.995849609375" id="rel12" class="er relationshipLabel">hasQuantityKind</text>
  <rect height="14" width="111.8486328125" y="576.2582397460938" x="2252.274658203125" class="er relationshipLabelBox"/>
  <text style="text-anchor: middle; dominant-baseline: middle; font-size: 12px;" y="583.2582397460938" x="2308.198974609375" id="rel13" class="er relationshipLabel">hasDimensionVector</text>
  <rect height="14" width="75.265625" y="1030.8768310546875" x="1764.812744140625" class="er relationshipLabelBox"/>
  <text style="text-anchor: middle; dominant-baseline: middle; font-size: 12px;" y="1037.8768310546875" x="1802.445556640625" id="rel14" class="er relationshipLabel">quantityValue</text>
  <rect height="14" width="95.78125" y="872.9053955078125" x="1585.211669921875" class="er relationshipLabelBox"/>
  <text style="text-anchor: middle; dominant-baseline: middle; font-size: 12px;" y="879.9053955078125" x="1633.102294921875" id="rel15" class="er relationshipLabel">applicableSystem</text>
  <rect height="14" width="61.453125" y="925.5" x="1692.2344970703125" class="er relationshipLabelBox"/>
  <text style="text-anchor: middle; dominant-baseline: middle; font-size: 12px;" y="932.5" x="1722.9610595703125" id="rel16" class="er relationshipLabel">exactMatch</text>
  <rect height="14" width="57.078125" y="1033.2364501953125" x="1498.944091796875" class="er relationshipLabelBox"/>
  <text style="text-anchor: middle; dominant-baseline: middle; font-size: 12px;" y="1040.2364501953125" x="1527.483154296875" id="rel17" class="er relationshipLabel">ucumCode</text>
  <rect height="14" width="74.90850830078125" y="1197.1751708984375" x="499.1234436035156" class="er relationshipLabelBox"/>
  <text style="text-anchor: middle; dominant-baseline: middle; font-size: 12px;" y="1204.1751708984375" x="536.5776977539062" id="rel18" class="er relationshipLabel">dataEncoding</text>
  <rect height="14" width="48.328125" y="1169.5738525390625" x="165.7965545654297" class="er relationshipLabelBox"/>
  <text style="text-anchor: middle; dominant-baseline: middle; font-size: 12px;" y="1176.5738525390625" x="189.9606170654297" id="rel19" class="er relationshipLabel">datatype</text>
  <rect height="14" width="42.40423583984375" y="529.5206298828125" x="884.5119323730469" class="er relationshipLabelBox"/>
  <text style="text-anchor: middle; dominant-baseline: middle; font-size: 12px;" y="536.5206298828125" x="905.7140502929688" id="rel20" class="er relationshipLabel">hasUnit</text>
  <rect height="14" width="119.078125" y="455.6204528808594" x="2947.024169921875" class="er relationshipLabelBox"/>
  <text style="text-anchor: middle; dominant-baseline: middle; font-size: 12px;" y="462.6204528808594" x="3006.563232421875" id="rel21" class="er relationshipLabel">dimensionVectorForSI</text>
  <rect height="14" width="61.453125" y="400.5000305175781" x="3140.554443359375" class="er relationshipLabelBox"/>
  <text style="text-anchor: middle; dominant-baseline: middle; font-size: 12px;" y="407.5000305175781" x="3171.281005859375" id="rel22" class="er relationshipLabel">exactMatch</text>
  <rect height="14" width="304.498046875" y="312.95733642578125" x="2621.4560546875" class="er relationshipLabelBox"/>
  <text style="text-anchor: middle; dominant-baseline: middle; font-size: 12px;" y="319.95733642578125" x="2773.705078125" id="rel23" class="er relationshipLabel">hasDimensionVector, qkdvDenominator, qkdvNumerator</text>
  <rect height="14" width="163.42919921875" y="483.3038330078125" x="2771.759521484375" class="er relationshipLabelBox"/>
  <text style="text-anchor: middle; dominant-baseline: middle; font-size: 12px;" y="490.3038330078125" x="2853.47412109375" id="rel24" class="er relationshipLabel">belongsToSystemOfQuantities</text>
  <rect height="14" width="675.57666015625" y="526.6920166015625" x="2004.396728515625" class="er relationshipLabelBox"/>
  <text style="text-anchor: middle; dominant-baseline: middle; font-size: 12px;" y="533.6920166015625" x="2342.18505859375" id="rel25" class="er relationshipLabel">applicableCGSUnit, applicableISOUnit, applicableImperialUnit, applicableSIUnit, applicableUSCustomaryUnit, applicableUnit</text>
  <rect height="14" width="144.375" y="319.6315612792969" x="3170.43115234375" class="er relationshipLabelBox"/>
  <text style="text-anchor: middle; dominant-baseline: middle; font-size: 12px;" y="326.6315612792969" x="3242.61865234375" id="rel26" class="er relationshipLabel">hasReferenceQuantityKind</text>
  <rect height="14" width="43.296875" y="281.15362548828125" x="3100.88720703125" class="er relationshipLabelBox"/>
  <text style="text-anchor: middle; dominant-baseline: middle; font-size: 12px;" y="288.15362548828125" x="3122.53564453125" id="rel27" class="er relationshipLabel">hasRule</text>
  <rect height="14" width="74.908447265625" y="1191.1771240234375" x="1829.3599853515625" class="er relationshipLabelBox"/>
  <text style="text-anchor: middle; dominant-baseline: middle; font-size: 12px;" y="1198.1771240234375" x="1866.814208984375" id="rel28" class="er relationshipLabel">dataEncoding</text>
  <rect height="14" width="48.328125" y="1148.1375732421875" x="1218.2557373046875" class="er relationshipLabelBox"/>
  <text style="text-anchor: middle; dominant-baseline: middle; font-size: 12px;" y="1155.1375732421875" x="1242.4197998046875" id="rel29" class="er relationshipLabel">datatype</text>
  <rect height="14" width="42.404296875" y="752.044921875" x="1298.7978515625" class="er relationshipLabelBox"/>
  <text style="text-anchor: middle; dominant-baseline: middle; font-size: 12px;" y="759.044921875" x="1320" id="rel30" class="er relationshipLabel">hasUnit</text>
  <rect height="14" width="46.921875" y="488" x="3372.30517578125" class="er relationshipLabelBox"/>
  <text style="text-anchor: middle; dominant-baseline: middle; font-size: 12px;" y="495" x="3395.76611328125" id="rel31" class="er relationshipLabel">ruleType</text>
  <rect height="14" width="149.9129638671875" y="832.9946899414062" x="1619.0205688476562" class="er relationshipLabelBox"/>
  <text style="text-anchor: middle; dominant-baseline: middle; font-size: 12px;" y="839.9946899414062" x="1693.97705078125" id="rel32" class="er relationshipLabel">applicablePhysicalConstant</text>
  <rect height="14" width="30.8402099609375" y="836.3585205078125" x="1529.0613403320312" class="er relationshipLabelBox"/>
  <text style="text-anchor: middle; dominant-baseline: middle; font-size: 12px;" y="843.3585205078125" x="1544.4814453125" id="rel33" class="er relationshipLabel">prefix</text>
  <rect height="14" width="622.5963134765625" y="629.2818603515625" x="1088.7876586914062" class="er relationshipLabelBox"/>
  <text style="text-anchor: middle; dominant-baseline: middle; font-size: 12px;" y="636.2818603515625" x="1400.0858154296875" id="rel34" class="er relationshipLabel">hasAllowedUnit, hasBaseUnit, hasCoherentUnit, hasDefinedUnit, hasDerivedCoherentUnit, hasDerivedUnit, hasUnit</text>
  <rect height="14" width="304.498046875" y="484.4808349609375" x="2176.264892578125" class="er relationshipLabelBox"/>
  <text style="text-anchor: middle; dominant-baseline: middle; font-size: 12px;" y="491.4808349609375" x="2328.513916015625" id="rel35" class="er relationshipLabel">hasDimensionVector, qkdvDenominator, qkdvNumerator</text>
  <rect height="14" width="30.840087890625" y="831.8575439453125" x="2111.6856689453125" class="er relationshipLabelBox"/>
  <text style="text-anchor: middle; dominant-baseline: middle; font-size: 12px;" y="838.8575439453125" x="2127.105712890625" id="rel36" class="er relationshipLabel">prefix</text>
  <rect height="14" width="90.4375" y="523.15234375" x="2273.85009765625" class="er relationshipLabelBox"/>
  <text style="text-anchor: middle; dominant-baseline: middle; font-size: 12px;" y="530.15234375" x="2319.06884765625" id="rel37" class="er relationshipLabel">hasQuantityKind</text>
  <rect height="14" width="597.5625" y="698.056640625" x="1545.188232421875" class="er relationshipLabelBox"/>
  <text style="text-anchor: middle; dominant-baseline: middle; font-size: 12px;" y="705.056640625" x="1843.969482421875" id="rel38" class="er relationshipLabel">applicableSystem, definedUnitOfSystem, derivedCoherentUnitOfSystem, derivedUnitOfSystem, isUnitOfSystem</text>
  <rect height="14" width="57.078125" y="703.1543579101562" x="1580.61328125" class="er relationshipLabelBox"/>
  <text style="text-anchor: middle; dominant-baseline: middle; font-size: 12px;" y="710.1543579101562" x="1609.15234375" id="rel39" class="er relationshipLabel">ucumCode</text>
  <rect height="14" width="223.1494140625" y="575.5" x="2026.67822265625" class="er relationshipLabelBox"/>
  <text style="text-anchor: middle; dominant-baseline: middle; font-size: 12px;" y="582.5" x="2138.2529296875" id="rel40" class="er relationshipLabel">exactMatch, hasReciprocalUnit, scalingOf</text>
  <rect height="14" width="75.632568359375" y="703.302001953125" x="1426.1866455078125" class="er relationshipLabelBox"/>
  <text style="text-anchor: middle; dominant-baseline: middle; font-size: 12px;" y="710.302001953125" x="1464.0029296875" id="rel41" class="er relationshipLabel">hasFactorUnit</text>
</svg>
