<svg xmlns="http://www.w3.org/2000/svg" xmlns:ns1="http://www.w3.org/1999/xlink" aria-roledescription="er" role="graphics-document document" viewBox="0 0 553.78125 465" height="465" width="553.78125" id="container"><style>#container{font-family:"trebuchet ms",verdana,arial,sans-serif;font-size:16px;fill:#333;}#container .error-icon{fill:#552222;}#container .error-text{fill:#552222;stroke:#552222;}#container .edge-thickness-normal{stroke-width:1px;}#container .edge-thickness-thick{stroke-width:3.5px;}#container .edge-pattern-solid{stroke-dasharray:0;}#container .edge-thickness-invisible{stroke-width:0;fill:none;}#container .edge-pattern-dashed{stroke-dasharray:3;}#container .edge-pattern-dotted{stroke-dasharray:2;}#container .marker{fill:#333333;stroke:#333333;}#container .marker.cross{stroke:#333333;}#container svg{font-family:"trebuchet ms",verdana,arial,sans-serif;font-size:16px;}#container p{margin:0;}#container .entityBox{fill:#ECECFF;stroke:#9370DB;}#container .attributeBoxOdd{fill:#ffffff;stroke:#9370DB;}#container .attributeBoxEven{fill:#f2f2f2;stroke:#9370DB;}#container .relationshipLabelBox{fill:hsl(80, 100%, 96.2745098039%);opacity:0.7;background-color:hsl(80, 100%, 96.2745098039%);}#container .relationshipLabelBox rect{opacity:0.5;}#container .relationshipLine{stroke:#333333;}#container .entityTitleText{text-anchor:middle;font-size:18px;fill:#333;}#container #MD_PARENT_START{fill:#f5f5f5!important;stroke:#333333!important;stroke-width:1;}#container #MD_PARENT_END{fill:#f5f5f5!important;stroke:#333333!important;stroke-width:1;}#container :root{--mermaid-font-family:"trebuchet ms",verdana,arial,sans-serif;}</style><g /><defs><marker orient="auto" markerHeight="240" markerWidth="190" refY="7" refX="0" id="MD_PARENT_START"><path d="M 18,7 L9,13 L1,7 L9,1 Z" /></marker></defs><defs><marker orient="auto" markerHeight="28" markerWidth="20" refY="7" refX="19" id="MD_PARENT_END"><path d="M 18,7 L9,13 L1,7 L9,1 Z" /></marker></defs><defs><marker orient="auto" markerHeight="18" markerWidth="18" refY="9" refX="0" id="ONLY_ONE_START"><path d="M9,0 L9,18 M15,0 L15,18" fill="none" stroke="gray" /></marker></defs><defs><marker orient="auto" markerHeight="18" markerWidth="18" refY="9" refX="18" id="ONLY_ONE_END"><path d="M3,0 L3,18 M9,0 L9,18" fill="none" stroke="gray" /></marker></defs><defs><marker orient="auto" markerHeight="18" markerWidth="30" refY="9" refX="0" id="ZERO_OR_ONE_START"><circle r="6" cy="9" cx="21" fill="white" stroke="gray" /><path d="M9,0 L9,18" fill="none" stroke="gray" /></marker></defs><defs><marker orient="auto" markerHeight="18" markerWidth="30" refY="9" refX="30" id="ZERO_OR_ONE_END"><circle r="6" cy="9" cx="9" fill="white" stroke="gray" /><path d="M21,0 L21,18" fill="none" stroke="gray" /></marker></defs><defs><marker orient="auto" markerHeight="36" markerWidth="45" refY="18" refX="18" id="ONE_OR_MORE_START"><path d="M0,18 Q 18,0 36,18 Q 18,36 0,18 M42,9 L42,27" fill="none" stroke="gray" /></marker></defs><defs><marker orient="auto" markerHeight="36" markerWidth="45" refY="18" refX="27" id="ONE_OR_MORE_END"><path d="M3,9 L3,27 M9,18 Q27,0 45,18 Q27,36 9,18" fill="none" stroke="gray" /></marker></defs><defs><marker orient="auto" markerHeight="36" markerWidth="57" refY="18" refX="18" id="ZERO_OR_MORE_START"><circle r="6" cy="18" cx="48" fill="white" stroke="gray" /><path d="M0,18 Q18,0 36,18 Q18,36 0,18" fill="none" stroke="gray" /></marker></defs><defs><marker orient="auto" markerHeight="36" markerWidth="57" refY="18" refX="39" id="ZERO_OR_MORE_END"><circle r="6" cy="18" cx="9" fill="white" stroke="gray" /><path d="M21,18 Q39,0 57,18 Q39,36 21,18" fill="none" stroke="gray" /></marker></defs><path style="stroke: gray; fill: none;" marker-start="url(#ONLY_ONE_START)" marker-end="url(#ZERO_OR_ONE_END)" d="M233.781,78.646L207.633,89.705C181.484,100.764,129.188,122.882,103.039,142.274C76.891,161.667,76.891,178.333,76.891,186.667L76.891,195" class="er relationshipLine" /><path style="stroke: gray; fill: none;" marker-start="url(#ONLY_ONE_START)" marker-end="url(#ZERO_OR_ONE_END)" d="M333.781,41.875L345.448,38.229C357.115,34.583,380.448,27.292,395.031,23.646C409.615,20,415.448,20,421.281,26.25C427.115,32.5,432.948,45,432.948,57.5C432.948,70,427.115,82.5,421.281,88.75C415.448,95,409.615,95,395.031,91.354C380.448,87.708,357.115,80.417,345.448,76.771L333.781,73.125" class="er relationshipLine" /><path style="stroke: gray; fill: none;" marker-start="url(#ONLY_ONE_START)" marker-end="url(#ZERO_OR_ONE_END)" d="M333.781,79.375L358.781,90.313C383.781,101.25,433.781,123.125,458.781,142.396C483.781,161.667,483.781,178.333,483.781,186.667L483.781,195" class="er relationshipLine" /><path style="stroke: gray; fill: none;" marker-start="url(#ONLY_ONE_START)" marker-end="url(#ZERO_OR_MORE_END)" d="M283.781,95L283.781,103.333C283.781,111.667,283.781,128.333,283.781,145C283.781,161.667,283.781,178.333,283.781,186.667L283.781,195" class="er relationshipLine" /><path style="stroke: gray; fill: none;" marker-start="url(#ONLY_ONE_START)" marker-end="url(#ZERO_OR_MORE_END)" d="M283.781,270L283.781,278.333C283.781,286.667,283.781,303.333,283.781,320C283.781,336.667,283.781,353.333,283.781,361.667L283.781,370" class="er relationshipLine" /><g transform="translate(20,195 )" id="entity-CardinalityType-796d1111-9b0e-5cfa-a954-3577abec4acc"><rect height="75" width="113.78125" y="0" x="0" class="er entityBox" /><a ns1:href="#cardinalitytype"><text style="dominant-baseline: middle; text-anchor: middle; font-size: 12px;" transform="translate(56.890625,37.5)" y="0" x="0" id="text-entity-CardinalityType-796d1111-9b0e-5cfa-a954-3577abec4acc" class="er entityLabel">CardinalityType</text></a></g><g transform="translate(233.78125,20 )" id="entity-Datatype-eedb5402-d0cc-52bf-9fb8-7b914f648cbe"><rect height="75" width="100" y="0" x="0" class="er entityBox" /><a ns1:href="#datatype"><text style="dominant-baseline: middle; text-anchor: middle; font-size: 12px;" transform="translate(50,37.5)" y="0" x="0" id="text-entity-Datatype-eedb5402-d0cc-52bf-9fb8-7b914f648cbe" class="er entityLabel">Datatype</text></a></g><g transform="translate(233.78125,195 )" id="entity-Rule-886caf8e-59ff-5db3-a492-27242971196f"><rect height="75" width="100" y="0" x="0" class="er entityBox" /><a ns1:href="#rule"><text style="dominant-baseline: middle; text-anchor: middle; font-size: 12px;" transform="translate(50,37.5)" y="0" x="0" id="text-entity-Rule-886caf8e-59ff-5db3-a492-27242971196f" class="er entityLabel">Rule</text></a></g><g transform="translate(433.78125,195 )" id="entity-OrderedType-842b5e5e-013e-581b-9bf8-11371587b713"><rect height="75" width="100" y="0" x="0" class="er entityBox" /><a ns1:href="#orderedtype"><text style="dominant-baseline: middle; text-anchor: middle; font-size: 12px;" transform="translate(50,37.5)" y="0" x="0" id="text-entity-OrderedType-842b5e5e-013e-581b-9bf8-11371587b713" class="er entityLabel">OrderedType</text></a></g><g transform="translate(233.78125,370 )" id="entity-RuleType-d54df1a6-a17d-5920-9344-6f805c739e55"><rect height="75" width="100" y="0" x="0" class="er entityBox" /><a ns1:href="#ruletype"><text style="dominant-baseline: middle; text-anchor: middle; font-size: 12px;" transform="translate(50,37.5)" y="0" x="0" id="text-entity-RuleType-d54df1a6-a17d-5920-9344-6f805c739e55" class="er entityLabel">RuleType</text></a></g><rect height="14" width="57.58836364746094" y="113.95805358886719" x="110.1257553100586" class="er relationshipLabelBox" /><text style="text-anchor: middle; dominant-baseline: middle; font-size: 12px;" y="120.95805358886719" x="138.91993713378906" id="rel1" class="er relationshipLabel">cardinality</text><rect height="14" width="28.4041748046875" y="50.50000762939453" x="418.74591064453125" class="er relationshipLabelBox" /><text style="text-anchor: middle; dominant-baseline: middle; font-size: 12px;" y="57.50000762939453" x="432.947998046875" id="rel2" class="er relationshipLabel">basis</text><rect height="14" width="68.28125" y="114.6567153930664" x="391.1060485839844" class="er relationshipLabelBox" /><text style="text-anchor: middle; dominant-baseline: middle; font-size: 12px;" y="121.6567153930664" x="425.2466735839844" id="rel3" class="er relationshipLabel">orderedType</text><rect height="14" width="43.296875" y="138" x="262.132568359375" class="er relationshipLabelBox" /><text style="text-anchor: middle; dominant-baseline: middle; font-size: 12px;" y="145" x="283.781005859375" id="rel4" class="er relationshipLabel">hasRule</text><rect height="14" width="46.921875" y="313" x="260.320068359375" class="er relationshipLabelBox" /><text style="text-anchor: middle; dominant-baseline: middle; font-size: 12px;" y="320" x="283.781005859375" id="rel5" class="er relationshipLabel">ruleType</text></svg>