<svg xmlns="http://www.w3.org/2000/svg" aria-roledescription="er" role="graphics-document document" viewBox="0 0 2871.347900390625 815" height="815" width="2871.347900390625" id="container">
  <style>#container{font-family:"trebuchet ms",verdana,arial,sans-serif;font-size:16px;fill:#333;}#container .error-icon{fill:#552222;}#container .error-text{fill:#552222;stroke:#552222;}#container .edge-thickness-normal{stroke-width:1px;}#container .edge-thickness-thick{stroke-width:3.5px;}#container .edge-pattern-solid{stroke-dasharray:0;}#container .edge-thickness-invisible{stroke-width:0;fill:none;}#container .edge-pattern-dashed{stroke-dasharray:3;}#container .edge-pattern-dotted{stroke-dasharray:2;}#container .marker{fill:#333333;stroke:#333333;}#container .marker.cross{stroke:#333333;}#container svg{font-family:"trebuchet ms",verdana,arial,sans-serif;font-size:16px;}#container p{margin:0;}#container .entityBox{fill:#ECECFF;stroke:#9370DB;}#container .attributeBoxOdd{fill:#ffffff;stroke:#9370DB;}#container .attributeBoxEven{fill:#f2f2f2;stroke:#9370DB;}#container .relationshipLabelBox{fill:hsl(80, 100%, 96.2745098039%);opacity:0.7;background-color:hsl(80, 100%, 96.2745098039%);}#container .relationshipLabelBox rect{opacity:0.5;}#container .relationshipLine{stroke:#333333;}#container .entityTitleText{text-anchor:middle;font-size:18px;fill:#333;}#container #MD_PARENT_START{fill:#f5f5f5!important;stroke:#333333!important;stroke-width:1;}#container #MD_PARENT_END{fill:#f5f5f5!important;stroke:#333333!important;stroke-width:1;}#container :root{--mermaid-font-family:"trebuchet ms",verdana,arial,sans-serif;}</style>
  <g/>
  <defs>
    <marker orient="auto" markerHeight="240" markerWidth="190" refY="7" refX="0" id="MD_PARENT_START">
      <path d="M 18,7 L9,13 L1,7 L9,1 Z"/>
    </marker>
  </defs>
  <defs>
    <marker orient="auto" markerHeight="28" markerWidth="20" refY="7" refX="19" id="MD_PARENT_END">
      <path d="M 18,7 L9,13 L1,7 L9,1 Z"/>
    </marker>
  </defs>
  <defs>
    <marker orient="auto" markerHeight="18" markerWidth="18" refY="9" refX="0" id="ONLY_ONE_START">
      <path d="M9,0 L9,18 M15,0 L15,18" fill="none" stroke="gray"/>
    </marker>
  </defs>
  <defs>
    <marker orient="auto" markerHeight="18" markerWidth="18" refY="9" refX="18" id="ONLY_ONE_END">
      <path d="M3,0 L3,18 M9,0 L9,18" fill="none" stroke="gray"/>
    </marker>
  </defs>
  <defs>
    <marker orient="auto" markerHeight="18" markerWidth="30" refY="9" refX="0" id="ZERO_OR_ONE_START">
      <circle r="6" cy="9" cx="21" fill="white" stroke="gray"/>
      <path d="M9,0 L9,18" fill="none" stroke="gray"/>
    </marker>
  </defs>
  <defs>
    <marker orient="auto" markerHeight="18" markerWidth="30" refY="9" refX="30" id="ZERO_OR_ONE_END">
      <circle r="6" cy="9" cx="9" fill="white" stroke="gray"/>
      <path d="M21,0 L21,18" fill="none" stroke="gray"/>
    </marker>
  </defs>
  <defs>
    <marker orient="auto" markerHeight="36" markerWidth="45" refY="18" refX="18" id="ONE_OR_MORE_START">
      <path d="M0,18 Q 18,0 36,18 Q 18,36 0,18 M42,9 L42,27" fill="none" stroke="gray"/>
    </marker>
  </defs>
  <defs>
    <marker orient="auto" markerHeight="36" markerWidth="45" refY="18" refX="27" id="ONE_OR_MORE_END">
      <path d="M3,9 L3,27 M9,18 Q27,0 45,18 Q27,36 9,18" fill="none" stroke="gray"/>
    </marker>
  </defs>
  <defs>
    <marker orient="auto" markerHeight="36" markerWidth="57" refY="18" refX="18" id="ZERO_OR_MORE_START">
      <circle r="6" cy="18" cx="48" fill="white" stroke="gray"/>
      <path d="M0,18 Q18,0 36,18 Q18,36 0,18" fill="none" stroke="gray"/>
    </marker>
  </defs>
  <defs>
    <marker orient="auto" markerHeight="36" markerWidth="57" refY="18" refX="39" id="ZERO_OR_MORE_END">
      <circle r="6" cy="18" cx="9" fill="white" stroke="gray"/>
      <path d="M21,18 Q39,0 57,18 Q39,36 21,18" fill="none" stroke="gray"/>
    </marker>
  </defs>
  <path style="stroke: gray; fill: none;" marker-start="url(#ONLY_ONE_START)" marker-end="url(#ZERO_OR_ONE_END)" d="M463.86,69.384L398.662,81.987C333.464,94.589,203.067,119.795,137.869,140.731C72.67,161.667,72.67,178.333,72.67,186.667L72.67,195" class="er relationshipLine"/>
  <path style="stroke: gray; fill: none;" marker-start="url(#ONLY_ONE_START)" marker-end="url(#ZERO_OR_ONE_END)" d="M463.86,79.018L432.44,90.015C401.02,101.012,338.18,123.006,306.76,142.336C275.34,161.667,275.34,178.333,275.34,186.667L275.34,195" class="er relationshipLine"/>
  <path style="stroke: gray; fill: none;" marker-start="url(#ONLY_ONE_START)" marker-end="url(#ZERO_OR_ONE_END)" d="M463.86,93.364L449.107,101.97C434.354,110.576,404.847,127.788,615.262,150.457C825.676,173.126,1276.012,201.251,1501.18,215.314L1726.348,229.377" class="er relationshipLine"/>
  <path style="stroke: gray; fill: none;" marker-start="url(#ONLY_ONE_START)" marker-end="url(#ZERO_OR_MORE_END)" d="M586.821,39.965L598.487,36.637C610.154,33.31,633.487,26.655,648.071,23.327C662.654,20,668.487,20,674.321,26.25C680.154,32.5,685.987,45,685.987,57.5C685.987,70,680.154,82.5,674.321,88.75C668.487,95,662.654,95,648.071,91.673C633.487,88.345,610.154,81.69,598.487,78.363L586.821,75.035" class="er relationshipLine"/>
  <path style="stroke: gray; fill: none;" marker-start="url(#ONLY_ONE_START)" marker-end="url(#ZERO_OR_MORE_END)" d="M503.912,95L499.15,103.333C494.388,111.667,484.864,128.333,480.102,151.25C475.34,174.167,475.34,203.333,475.34,232.5C475.34,261.667,475.34,290.833,475.34,320C475.34,349.167,475.34,378.333,475.34,407.5C475.34,436.667,475.34,465.833,620.988,494.2C766.635,522.567,1057.93,550.135,1203.578,563.919L1349.225,577.702" class="er relationshipLine"/>
  <path style="stroke: gray; fill: none;" marker-start="url(#ONLY_ONE_START)" marker-end="url(#ZERO_OR_MORE_END)" d="M546.769,95L551.531,103.333C556.293,111.667,565.817,128.333,570.579,151.25C575.34,174.167,575.34,203.333,575.34,232.5C575.34,261.667,575.34,290.833,596.769,313.75C618.198,336.667,661.055,353.333,682.483,361.667L703.912,370" class="er relationshipLine"/>
  <path style="stroke: gray; fill: none;" marker-start="url(#ONLY_ONE_START)" marker-end="url(#ZERO_OR_MORE_END)" d="M586.821,60.074L924.837,74.229C1262.854,88.383,1938.887,116.691,2276.904,139.179C2614.92,161.667,2614.92,178.333,2614.92,186.667L2614.92,195" class="er relationshipLine"/>
  <path style="stroke: gray; fill: none;" marker-start="url(#ONLY_ONE_START)" marker-end="url(#ZERO_OR_MORE_END)" d="M586.821,59.813L964.242,74.011C1341.663,88.209,2096.506,116.604,2473.927,145.385C2851.348,174.167,2851.348,203.333,2851.348,232.5C2851.348,261.667,2851.348,290.833,2648.411,319.371C2445.474,347.908,2039.599,375.816,1836.662,389.77L1633.725,403.724" class="er relationshipLine"/>
  <path style="stroke: gray; fill: none;" marker-start="url(#ONLY_ONE_START)" marker-end="url(#ZERO_OR_MORE_END)" d="M586.821,59.717L980.909,73.931C1374.996,88.145,2163.172,116.572,2369.76,144.749C2576.348,172.926,2201.348,200.851,2013.848,214.814L1826.348,228.777" class="er relationshipLine"/>
  <path style="stroke: gray; fill: none;" marker-start="url(#ONLY_ONE_START)" marker-end="url(#ZERO_OR_ONE_END)" d="M1349.225,574.78L1261.911,561.483C1174.597,548.187,999.969,521.593,910.274,499.963C820.579,478.333,815.817,461.667,813.436,453.333L811.055,445" class="er relationshipLine"/>
  <path style="stroke: gray; fill: none;" marker-start="url(#ONLY_ONE_START)" marker-end="url(#ZERO_OR_ONE_END)" d="M1349.225,571.399L1291.078,558.666C1232.93,545.932,1116.635,520.466,1039.44,499.4C962.245,478.333,924.15,461.667,905.102,453.333L886.055,445" class="er relationshipLine"/>
  <path style="stroke: gray; fill: none;" marker-start="url(#ONLY_ONE_START)" marker-end="url(#ZERO_OR_ONE_END)" d="M1349.225,588.85L1241.24,602.375C1133.256,615.9,917.286,642.95,809.302,664.808C701.317,686.667,701.317,703.333,701.317,711.667L701.317,720" class="er relationshipLine"/>
  <path style="stroke: gray; fill: none;" marker-start="url(#ONLY_ONE_START)" marker-end="url(#ZERO_OR_MORE_END)" d="M1450.616,566.749L1462.282,563.124C1473.949,559.499,1497.282,552.25,1511.866,548.625C1526.449,545,1532.282,545,1538.116,551.25C1543.949,557.5,1549.782,570,1549.782,582.5C1549.782,595,1543.949,607.5,1538.116,613.75C1532.282,620,1526.449,620,1511.866,616.375C1497.282,612.75,1473.949,605.501,1462.282,601.876L1450.616,598.251" class="er relationshipLine"/>
  <path style="stroke: gray; fill: none;" marker-start="url(#ONLY_ONE_START)" marker-end="url(#ZERO_OR_MORE_END)" d="M1349.225,567.693L1307.744,555.578C1266.263,543.462,1183.302,519.231,1108.004,497.252C1032.706,475.273,965.072,455.547,931.254,445.683L897.437,435.82" class="er relationshipLine"/>
  <path style="stroke: gray; fill: none;" marker-start="url(#ONLY_ONE_START)" marker-end="url(#ZERO_OR_MORE_END)" d="M1450.616,614.047L1465.601,623.373C1480.587,632.698,1510.559,651.349,1525.544,669.008C1540.53,686.667,1540.53,703.333,1540.53,711.667L1540.53,720" class="er relationshipLine"/>
  <path style="stroke: gray; fill: none;" marker-start="url(#ONLY_ONE_START)" marker-end="url(#ZERO_OR_MORE_END)" d="M1450.616,577.29L1584.071,563.575C1717.526,549.86,1984.437,522.43,2117.892,494.132C2251.348,465.833,2251.348,436.667,2251.348,407.5C2251.348,378.333,2251.348,349.167,2180.515,321.535C2109.681,293.904,1968.015,267.807,1897.181,254.759L1826.348,241.711" class="er relationshipLine"/>
  <path style="stroke: gray; fill: none;" marker-start="url(#ONLY_ONE_START)" marker-end="url(#ZERO_OR_MORE_END)" d="M1450.616,577.838L1600.738,564.031C1750.86,550.225,2051.104,522.613,2201.226,494.223C2351.348,465.833,2351.348,436.667,2351.348,407.5C2351.348,378.333,2351.348,349.167,2263.848,321.268C2176.348,293.37,2001.348,266.739,1913.848,253.424L1826.348,240.109" class="er relationshipLine"/>
  <path style="stroke: gray; fill: none;" marker-start="url(#ONLY_ONE_START)" marker-end="url(#ZERO_OR_MORE_END)" d="M1450.616,578.281L1617.404,564.401C1784.193,550.521,2117.77,522.76,2284.559,494.297C2451.348,465.833,2451.348,436.667,2451.348,407.5C2451.348,378.333,2451.348,349.167,2347.181,321.08C2243.015,292.994,2034.681,265.988,1930.515,252.485L1826.348,238.981" class="er relationshipLine"/>
  <path style="stroke: gray; fill: none;" marker-start="url(#ONLY_ONE_START)" marker-end="url(#ZERO_OR_MORE_END)" d="M1450.616,578.648L1634.071,564.706C1817.526,550.765,2184.437,522.883,2367.892,494.358C2551.348,465.833,2551.348,436.667,2551.348,407.5C2551.348,378.333,2551.348,349.167,2430.515,320.941C2309.681,292.715,2068.015,265.43,1947.181,251.788L1826.348,238.145" class="er relationshipLine"/>
  <path style="stroke: gray; fill: none;" marker-start="url(#ONLY_ONE_START)" marker-end="url(#ZERO_OR_MORE_END)" d="M1450.616,578.955L1650.738,564.963C1850.86,550.97,2251.104,522.985,2451.226,494.409C2651.348,465.833,2651.348,436.667,2651.348,407.5C2651.348,378.333,2651.348,349.167,2513.848,320.833C2376.348,292.5,2101.348,265,1963.848,251.25L1826.348,237.5" class="er relationshipLine"/>
  <path style="stroke: gray; fill: none;" marker-start="url(#ONLY_ONE_START)" marker-end="url(#ZERO_OR_MORE_END)" d="M1450.616,579.218L1667.404,565.181C1884.193,551.145,2317.77,523.073,2534.559,494.453C2751.348,465.833,2751.348,436.667,2751.348,407.5C2751.348,378.333,2751.348,349.167,2597.181,320.748C2443.015,292.329,2134.681,264.658,1980.515,250.823L1826.348,236.987" class="er relationshipLine"/>
  <path style="stroke: gray; fill: none;" marker-start="url(#ONLY_ONE_START)" marker-end="url(#ZERO_OR_MORE_END)" d="M703.912,445L682.483,453.333C661.055,461.667,618.198,478.333,725.75,500.353C833.302,522.373,1091.263,549.747,1220.244,563.434L1349.225,577.12" class="er relationshipLine"/>
  <path style="stroke: gray; fill: none;" marker-start="url(#ONLY_ONE_START)" marker-end="url(#ZERO_OR_MORE_END)" d="M746.769,445L734.864,453.333C722.96,461.667,699.15,478.333,657.916,498.023C616.682,517.713,558.023,540.426,528.693,551.783L499.364,563.14" class="er relationshipLine"/>
  <path style="stroke: gray; fill: none;" marker-start="url(#ONLY_ONE_START)" marker-end="url(#ZERO_OR_MORE_END)" d="M449.364,620L449.364,628.333C449.364,636.667,449.364,653.333,449.364,670C449.364,686.667,449.364,703.333,449.364,711.667L449.364,720" class="er relationshipLine"/>
  <path style="stroke: gray; fill: none;" marker-start="url(#ONLY_ONE_START)" marker-end="url(#ZERO_OR_ONE_END)" d="M1726.348,236.566L1555.347,250.472C1384.345,264.377,1042.343,292.189,880.866,314.428C719.388,336.667,738.436,353.333,747.96,361.667L757.483,370" class="er relationshipLine"/>
  <path style="stroke: gray; fill: none;" marker-start="url(#ONLY_ONE_START)" marker-end="url(#ZERO_OR_ONE_END)" d="M1726.348,237.1L1576.18,250.917C1426.012,264.734,1125.676,292.367,973.127,314.517C820.579,336.667,815.817,353.333,813.436,361.667L811.055,370" class="er relationshipLine"/>
  <path style="stroke: gray; fill: none;" marker-start="url(#ONLY_ONE_START)" marker-end="url(#ZERO_OR_ONE_END)" d="M1726.348,237.641L1592.847,251.367C1459.345,265.094,1192.343,292.547,1046.937,314.607C901.531,336.667,877.721,353.333,865.817,361.667L853.912,370" class="er relationshipLine"/>
  <path style="stroke: gray; fill: none;" marker-start="url(#ONLY_ONE_START)" marker-end="url(#ZERO_OR_MORE_END)" d="M1726.348,238.958L1621.771,252.465C1517.195,265.972,1308.042,292.986,1203.465,314.826C1098.889,336.667,1098.889,353.333,1098.889,361.667L1098.889,370" class="er relationshipLine"/>
  <path style="stroke: gray; fill: none;" marker-start="url(#ONLY_ONE_START)" marker-end="url(#ZERO_OR_MORE_END)" d="M1726.348,240.794L1646.771,253.995C1567.195,267.196,1408.042,293.598,1328.465,321.382C1248.889,349.167,1248.889,378.333,1248.889,407.5C1248.889,436.667,1248.889,465.833,1265.611,490.105C1282.334,514.377,1315.78,533.753,1332.502,543.441L1349.225,553.13" class="er relationshipLine"/>
  <path style="stroke: gray; fill: none;" marker-start="url(#ONLY_ONE_START)" marker-end="url(#ZERO_OR_MORE_END)" d="M1726.348,242.735L1663.438,255.612C1600.528,268.49,1474.708,294.245,1440.965,318.222C1407.222,342.2,1465.555,364.4,1494.722,375.5L1523.889,386.6" class="er relationshipLine"/>
  <path style="stroke: gray; fill: none;" marker-start="url(#ONLY_ONE_START)" marker-end="url(#ZERO_OR_MORE_END)" d="M1726.348,245.86L1680.105,258.217C1633.862,270.574,1541.375,295.287,1507.632,316.062C1473.889,336.838,1498.889,353.675,1511.389,362.094L1523.889,370.513" class="er relationshipLine"/>
  <path style="stroke: gray; fill: none;" marker-start="url(#ONLY_ONE_START)" marker-end="url(#ZERO_OR_MORE_END)" d="M1726.348,251.734L1696.771,263.112C1667.195,274.489,1608.042,297.245,1581.315,316.956C1554.587,336.667,1560.286,353.333,1563.136,361.667L1565.985,370" class="er relationshipLine"/>
  <path style="stroke: gray; fill: none;" marker-start="url(#ONLY_ONE_START)" marker-end="url(#ZERO_OR_MORE_END)" d="M1726.348,266.825L1713.438,275.687C1700.528,284.55,1674.708,302.275,1655.124,319.471C1635.54,336.667,1622.191,353.333,1615.516,361.667L1608.842,370" class="er relationshipLine"/>
  <path style="stroke: gray; fill: none;" marker-start="url(#ONLY_ONE_START)" marker-end="url(#ZERO_OR_MORE_END)" d="M1764.58,270L1761.965,278.333C1759.349,286.667,1754.119,303.333,1732.31,321.541C1710.501,339.749,1672.113,359.498,1652.919,369.372L1633.725,379.247" class="er relationshipLine"/>
  <path style="stroke: gray; fill: none;" marker-start="url(#ONLY_ONE_START)" marker-end="url(#ZERO_OR_MORE_END)" d="M1826.348,267.5L1838.848,276.25C1851.348,285,1876.348,302.5,1888.848,319.583C1901.348,336.667,1901.348,353.333,1901.348,361.667L1901.348,370" class="er relationshipLine"/>
  <path style="stroke: gray; fill: none;" marker-start="url(#ONLY_ONE_START)" marker-end="url(#ZERO_OR_MORE_END)" d="M1826.348,226.706L1871.946,221.421C1917.545,216.137,2008.741,205.569,2065.739,200.284C2122.737,195,2145.536,195,2168.335,201.25C2191.134,207.5,2213.934,220,2213.934,232.5C2213.934,245,2191.134,257.5,2168.335,263.75C2145.536,270,2122.737,270,2065.739,264.716C2008.741,259.431,1917.545,248.863,1871.946,243.579L1826.348,238.294" class="er relationshipLine"/>
  <path style="stroke: gray; fill: none;" marker-start="url(#ONLY_ONE_START)" marker-end="url(#ZERO_OR_MORE_END)" d="M1826.348,227.776L1884.168,222.313C1941.989,216.851,2057.63,205.925,2129.906,200.463C2202.181,195,2231.092,195,2260.002,201.25C2288.912,207.5,2317.822,220,2317.822,232.5C2317.822,245,2288.912,257.5,2260.002,263.75C2231.092,270,2202.181,270,2129.906,264.537C2057.63,259.075,1941.989,248.149,1884.168,242.687L1826.348,237.224" class="er relationshipLine"/>
  <path style="stroke: gray; fill: none;" marker-start="url(#ONLY_ONE_START)" marker-end="url(#ZERO_OR_MORE_END)" d="M1826.348,228.513L1896.391,222.927C1966.433,217.342,2106.519,206.171,2194.072,200.585C2281.626,195,2316.647,195,2351.669,201.25C2386.69,207.5,2421.711,220,2421.711,232.5C2421.711,245,2386.69,257.5,2351.669,263.75C2316.647,270,2281.626,270,2194.072,264.415C2106.519,258.829,1966.433,247.658,1896.391,242.073L1826.348,236.487" class="er relationshipLine"/>
  <path style="stroke: gray; fill: none;" marker-start="url(#ONLY_ONE_START)" marker-end="url(#ZERO_OR_MORE_END)" d="M1826.348,245.962L1872.181,258.301C1918.015,270.641,2009.681,295.321,2055.515,315.994C2101.348,336.667,2101.348,353.333,2101.348,361.667L2101.348,370" class="er relationshipLine"/>
  <g transform="translate(463.86019134521484,20 )" id="entity-PhysicalConstant-f43f8855-cf72-5deb-8dd3-7b0283708583">
    <rect height="75" width="122.96058654785156" y="0" x="0" class="er entityBox"/>
    <text style="dominant-baseline: middle; text-anchor: middle; font-size: 12px;" transform="translate(61.48029327392578,37.5)" y="0" x="0" id="text-entity-PhysicalConstant-f43f8855-cf72-5deb-8dd3-7b0283708583" class="er entityLabel">PhysicalConstant</text>
  </g>
  <g transform="translate(1349.224925994873,545 )" id="entity-QuantityKind-6f79b338-e354-5d95-8035-8883644476ff">
    <rect height="75" width="101.390625" y="0" x="0" class="er entityBox"/>
    <text style="dominant-baseline: middle; text-anchor: middle; font-size: 12px;" transform="translate(50.6953125,37.5)" y="0" x="0" id="text-entity-QuantityKind-6f79b338-e354-5d95-8035-8883644476ff" class="er entityLabel">QuantityKind</text>
  </g>
  <g transform="translate(703.2439422607422,370 )" id="entity-QuantityKindDimensionVector-bfa1bf26-fcae-516f-8f63-2f454f3dac1b">
    <rect height="75" width="194.19308471679688" y="0" x="0" class="er entityBox"/>
    <text style="dominant-baseline: middle; text-anchor: middle; font-size: 12px;" transform="translate(97.09654235839844,37.5)" y="0" x="0" id="text-entity-QuantityKindDimensionVector-bfa1bf26-fcae-516f-8f63-2f454f3dac1b" class="er entityLabel">QuantityKindDimensionVector</text>
  </g>
  <g transform="translate(399.3639221191406,545 )" id="entity-Rule-886caf8e-59ff-5db3-a492-27242971196f">
    <rect height="75" width="100" y="0" x="0" class="er entityBox"/>
    <text style="dominant-baseline: middle; text-anchor: middle; font-size: 12px;" transform="translate(50,37.5)" y="0" x="0" id="text-entity-Rule-886caf8e-59ff-5db3-a492-27242971196f" class="er entityLabel">Rule</text>
  </g>
  <g transform="translate(1726.347885131836,195 )" id="entity-Unit-c57ac1ea-0a24-509a-a80e-23f8c03ca739">
    <rect height="75" width="100" y="0" x="0" class="er entityBox"/>
    <text style="dominant-baseline: middle; text-anchor: middle; font-size: 12px;" transform="translate(50,37.5)" y="0" x="0" id="text-entity-Unit-c57ac1ea-0a24-509a-a80e-23f8c03ca739" class="er entityLabel">Unit</text>
  </g>
  <g transform="translate(20,195 )" id="entity-DataEncoding-e949680e-a6e4-55c9-9325-aa69226f3e53">
    <rect height="75" width="105.34048461914062" y="0" x="0" class="er entityBox"/>
    <text style="dominant-baseline: middle; text-anchor: middle; font-size: 12px;" transform="translate(52.67024230957031,37.5)" y="0" x="0" id="text-entity-DataEncoding-e949680e-a6e4-55c9-9325-aa69226f3e53" class="er entityLabel">DataEncoding</text>
  </g>
  <g transform="translate(225.34048461914062,195 )" id="entity-Datatype-eedb5402-d0cc-52bf-9fb8-7b914f648cbe">
    <rect height="75" width="100" y="0" x="0" class="er entityBox"/>
    <text style="dominant-baseline: middle; text-anchor: middle; font-size: 12px;" transform="translate(50,37.5)" y="0" x="0" id="text-entity-Datatype-eedb5402-d0cc-52bf-9fb8-7b914f648cbe" class="er entityLabel">Datatype</text>
  </g>
  <g transform="translate(2561.732738494873,195 )" id="entity-QuantityValue-f2bc13d2-1961-5e2a-9bfe-ab6a05a5860b">
    <rect height="75" width="106.375" y="0" x="0" class="er entityBox"/>
    <text style="dominant-baseline: middle; text-anchor: middle; font-size: 12px;" transform="translate(53.1875,37.5)" y="0" x="0" id="text-entity-QuantityValue-f2bc13d2-1961-5e2a-9bfe-ab6a05a5860b" class="er entityLabel">QuantityValue</text>
  </g>
  <g transform="translate(1523.8887557983398,370 )" id="entity-SystemOfUnits-f7f1da8e-a5af-50e1-94d0-c2e741f40e1d">
    <rect height="75" width="109.83651733398438" y="0" x="0" class="er entityBox"/>
    <text style="dominant-baseline: middle; text-anchor: middle; font-size: 12px;" transform="translate(54.91825866699219,37.5)" y="0" x="0" id="text-entity-SystemOfUnits-f7f1da8e-a5af-50e1-94d0-c2e741f40e1d" class="er entityLabel">SystemOfUnits</text>
  </g>
  <g transform="translate(599.3639221191406,720 )" id="entity-QuantityKindDimensionVectorSI-2681a9c0-d385-5c75-b278-85a805bca5b5">
    <rect height="75" width="203.90625" y="0" x="0" class="er entityBox"/>
    <text style="dominant-baseline: middle; text-anchor: middle; font-size: 12px;" transform="translate(101.953125,37.5)" y="0" x="0" id="text-entity-QuantityKindDimensionVectorSI-2681a9c0-d385-5c75-b278-85a805bca5b5" class="er entityLabel">QuantityKindDimensionVectorSI</text>
  </g>
  <g transform="translate(1461.2635879516602,720 )" id="entity-SystemOfQuantityKinds-09c2a533-d4ff-5ffb-9642-53498359216a">
    <rect height="75" width="158.53285217285156" y="0" x="0" class="er entityBox"/>
    <text style="dominant-baseline: middle; text-anchor: middle; font-size: 12px;" transform="translate(79.26642608642578,37.5)" y="0" x="0" id="text-entity-SystemOfQuantityKinds-09c2a533-d4ff-5ffb-9642-53498359216a" class="er entityLabel">SystemOfQuantityKinds</text>
  </g>
  <g transform="translate(399.3639221191406,720 )" id="entity-RuleType-d54df1a6-a17d-5920-9344-6f805c739e55">
    <rect height="75" width="100" y="0" x="0" class="er entityBox"/>
    <text style="dominant-baseline: middle; text-anchor: middle; font-size: 12px;" transform="translate(50,37.5)" y="0" x="0" id="text-entity-RuleType-d54df1a6-a17d-5920-9344-6f805c739e55" class="er entityLabel">RuleType</text>
  </g>
  <g transform="translate(1048.8887557983398,370 )" id="entity-Prefix-f6d97b99-faee-5974-b12e-390868d79e86">
    <rect height="75" width="100" y="0" x="0" class="er entityBox"/>
    <text style="dominant-baseline: middle; text-anchor: middle; font-size: 12px;" transform="translate(50,37.5)" y="0" x="0" id="text-entity-Prefix-f6d97b99-faee-5974-b12e-390868d79e86" class="er entityLabel">Prefix</text>
  </g>
  <g transform="translate(1851.347885131836,370 )" id="entity-UCUMcs-8df33f70-0c53-5f8e-a81f-0969bc803a34">
    <rect height="75" width="100" y="0" x="0" class="er entityBox"/>
    <text style="dominant-baseline: middle; text-anchor: middle; font-size: 12px;" transform="translate(50,37.5)" y="0" x="0" id="text-entity-UCUMcs-8df33f70-0c53-5f8e-a81f-0969bc803a34" class="er entityLabel">UCUMcs</text>
  </g>
  <g transform="translate(2051.347885131836,370 )" id="entity-Class-d9e3eb4a-97c0-50b6-8e3f-7f4a2fa7283d">
    <rect height="75" width="100" y="0" x="0" class="er entityBox"/>
    <text style="dominant-baseline: middle; text-anchor: middle; font-size: 12px;" transform="translate(50,37.5)" y="0" x="0" id="text-entity-Class-d9e3eb4a-97c0-50b6-8e3f-7f4a2fa7283d" class="er entityLabel">__Class</text>
  </g>
  <rect height="14" width="74.90847778320312" y="104.1855697631836" x="217.18785095214844" class="er relationshipLabelBox"/>
  <text style="text-anchor: middle; dominant-baseline: middle; font-size: 12px;" y="111.1855697631836" x="254.64208984375" id="rel1" class="er relationshipLabel">dataEncoding</text>
  <rect height="14" width="48.328125" y="112.56529998779297" x="329.36676025390625" class="er relationshipLabelBox"/>
  <text style="text-anchor: middle; dominant-baseline: middle; font-size: 12px;" y="119.56529998779297" x="353.53082275390625" id="rel2" class="er relationshipLabel">datatype</text>
  <rect height="14" width="42.404296875" y="179.8105010986328" x="1041.5767822265625" class="er relationshipLabelBox"/>
  <text style="text-anchor: middle; dominant-baseline: middle; font-size: 12px;" y="186.8105010986328" x="1062.7789306640625" id="rel3" class="er relationshipLabel">hasUnit</text>
  <rect height="14" width="61.453125" y="50.500003814697266" x="655.2604370117188" class="er relationshipLabelBox"/>
  <text style="text-anchor: middle; dominant-baseline: middle; font-size: 12px;" y="57.500003814697266" x="685.9869995117188" id="rel4" class="er relationshipLabel">exactMatch</text>
  <rect height="14" width="90.4375" y="505.59515380859375" x="689.4243774414062" class="er relationshipLabelBox"/>
  <text style="text-anchor: middle; dominant-baseline: middle; font-size: 12px;" y="512.5951538085938" x="734.6431274414062" id="rel5" class="er relationshipLabel">hasQuantityKind</text>
  <rect height="14" width="111.84869384765625" y="258.1383361816406" x="520.5626525878906" class="er relationshipLabelBox"/>
  <text style="text-anchor: middle; dominant-baseline: middle; font-size: 12px;" y="265.1383361816406" x="576.4869995117188" id="rel6" class="er relationshipLabel">hasDimensionVector</text>
  <rect height="14" width="75.265625" y="96.9561538696289" x="1571.349365234375" class="er relationshipLabelBox"/>
  <text style="text-anchor: middle; dominant-baseline: middle; font-size: 12px;" y="103.9561538696289" x="1608.982177734375" id="rel7" class="er relationshipLabel">quantityValue</text>
  <rect height="14" width="95.78125" y="130.38534545898438" x="2311.67822265625" class="er relationshipLabelBox"/>
  <text style="text-anchor: middle; dominant-baseline: middle; font-size: 12px;" y="137.38534545898438" x="2359.56884765625" id="rel8" class="er relationshipLabel">applicableSystem</text>
  <rect height="14" width="80.3125" y="100.3786849975586" x="1775.68310546875" class="er relationshipLabelBox"/>
  <text style="text-anchor: middle; dominant-baseline: middle; font-size: 12px;" y="107.3786849975586" x="1815.83935546875" id="rel9" class="er relationshipLabel">applicableUnit</text>
  <rect height="14" width="97.9886474609375" y="523.995849609375" x="1021.1079711914062" class="er relationshipLabelBox"/>
  <text style="text-anchor: middle; dominant-baseline: middle; font-size: 12px;" y="530.995849609375" x="1070.102294921875" id="rel10" class="er relationshipLabel">qkdvDenominator</text>
  <rect height="14" width="85.1966552734375" y="511.540771484375" x="1072.0038452148438" class="er relationshipLabelBox"/>
  <text style="text-anchor: middle; dominant-baseline: middle; font-size: 12px;" y="518.540771484375" x="1114.6021728515625" id="rel11" class="er relationshipLabel">qkdvNumerator</text>
  <rect height="14" width="119.078125" y="625.0872192382812" x="954.068115234375" class="er relationshipLabelBox"/>
  <text style="text-anchor: middle; dominant-baseline: middle; font-size: 12px;" y="632.0872192382812" x="1013.607177734375" id="rel12" class="er relationshipLabel">dimensionVectorForSI</text>
  <rect height="14" width="61.453125" y="575.5" x="1519.055419921875" class="er relationshipLabelBox"/>
  <text style="text-anchor: middle; dominant-baseline: middle; font-size: 12px;" y="582.5" x="1549.781982421875" id="rel13" class="er relationshipLabel">exactMatch</text>
  <rect height="14" width="111.8487548828125" y="494.7288818359375" x="1067.4146118164062" class="er relationshipLabelBox"/>
  <text style="text-anchor: middle; dominant-baseline: middle; font-size: 12px;" y="501.7288818359375" x="1123.3389892578125" id="rel14" class="er relationshipLabel">hasDimensionVector</text>
  <rect height="14" width="163.4290771484375" y="648.547119140625" x="1430.0216674804688" class="er relationshipLabelBox"/>
  <text style="text-anchor: middle; dominant-baseline: middle; font-size: 12px;" y="655.547119140625" x="1511.7362060546875" id="rel15" class="er relationshipLabel">belongsToSystemOfQuantities</text>
  <rect height="14" width="100.904541015625" y="488.52203369140625" x="2060.7723388671875" class="er relationshipLabelBox"/>
  <text style="text-anchor: middle; dominant-baseline: middle; font-size: 12px;" y="495.52203369140625" x="2111.224609375" id="rel16" class="er relationshipLabel">applicableCGSUnit</text>
  <rect height="14" width="98.696533203125" y="485.9361572265625" x="2158.5758056640625" class="er relationshipLabelBox"/>
  <text style="text-anchor: middle; dominant-baseline: middle; font-size: 12px;" y="492.9361572265625" x="2207.924072265625" id="rel17" class="er relationshipLabel">applicableISOUnit</text>
  <rect height="14" width="125.744873046875" y="483.6042785644531" x="2242.3741455078125" class="er relationshipLabelBox"/>
  <text style="text-anchor: middle; dominant-baseline: middle; font-size: 12px;" y="490.6042785644531" x="2305.24658203125" id="rel18" class="er relationshipLabel">applicableImperialUnit</text>
  <rect height="14" width="90.392578125" y="481.49554443359375" x="2357.82080078125" class="er relationshipLabelBox"/>
  <text style="text-anchor: middle; dominant-baseline: middle; font-size: 12px;" y="488.49554443359375" x="2403.01708984375" id="rel19" class="er relationshipLabel">applicableSIUnit</text>
  <rect height="14" width="152.324951171875" y="479.57769775390625" x="2424.9598388671875" class="er relationshipLabelBox"/>
  <text style="text-anchor: middle; dominant-baseline: middle; font-size: 12px;" y="486.57769775390625" x="2501.122314453125" id="rel20" class="er relationshipLabel">applicableUSCustomaryUnit</text>
  <rect height="14" width="80.3125" y="477.825927734375" x="2559.328857421875" class="er relationshipLabelBox"/>
  <text style="text-anchor: middle; dominant-baseline: middle; font-size: 12px;" y="484.825927734375" x="2599.485107421875" id="rel21" class="er relationshipLabel">applicableUnit</text>
  <rect height="14" width="144.375" y="528.6017456054688" x="897.6619873046875" class="er relationshipLabelBox"/>
  <text style="text-anchor: middle; dominant-baseline: middle; font-size: 12px;" y="535.6017456054688" x="969.8494873046875" id="rel22" class="er relationshipLabel">hasReferenceQuantityKind</text>
  <rect height="14" width="43.296875" y="505.015625" x="605.3846435546875" class="er relationshipLabelBox"/>
  <text style="text-anchor: middle; dominant-baseline: middle; font-size: 12px;" y="512.015625" x="627.0330810546875" id="rel23" class="er relationshipLabel">hasRule</text>
  <rect height="14" width="46.921875" y="663" x="425.903076171875" class="er relationshipLabelBox"/>
  <text style="text-anchor: middle; dominant-baseline: middle; font-size: 12px;" y="670" x="449.364013671875" id="rel24" class="er relationshipLabel">ruleType</text>
  <rect height="14" width="111.8487548828125" y="272.017333984375" x="1162.0366821289062" class="er relationshipLabelBox"/>
  <text style="text-anchor: middle; dominant-baseline: middle; font-size: 12px;" y="279.017333984375" x="1217.9610595703125" id="rel25" class="er relationshipLabel">hasDimensionVector</text>
  <rect height="14" width="97.9886474609375" y="274.14471435546875" x="1211.2654418945312" class="er relationshipLabelBox"/>
  <text style="text-anchor: middle; dominant-baseline: middle; font-size: 12px;" y="281.14471435546875" x="1260.259765625" id="rel26" class="er relationshipLabel">qkdvDenominator</text>
  <rect height="14" width="85.196533203125" y="277.2445983886719" x="1242.8848876953125" class="er relationshipLabelBox"/>
  <text style="text-anchor: middle; dominant-baseline: middle; font-size: 12px;" y="284.2445983886719" x="1285.483154296875" id="rel27" class="er relationshipLabel">qkdvNumerator</text>
  <rect height="14" width="30.8402099609375" y="275.2098388671875" x="1385.4096069335938" class="er relationshipLabelBox"/>
  <text style="text-anchor: middle; dominant-baseline: middle; font-size: 12px;" y="282.2098388671875" x="1400.8297119140625" id="rel28" class="er relationshipLabel">prefix</text>
  <rect height="14" width="90.4375" y="301.78582763671875" x="1324.7294921875" class="er relationshipLabelBox"/>
  <text style="text-anchor: middle; dominant-baseline: middle; font-size: 12px;" y="308.78582763671875" x="1369.9482421875" id="rel29" class="er relationshipLabel">hasQuantityKind</text>
  <rect height="14" width="95.78125" y="281.77191162109375" x="1470.597412109375" class="er relationshipLabelBox"/>
  <text style="text-anchor: middle; dominant-baseline: middle; font-size: 12px;" y="288.77191162109375" x="1518.488037109375" id="rel30" class="er relationshipLabel">applicableSystem</text>
  <rect height="14" width="115.203125" y="280.36285400390625" x="1520.9169921875" class="er relationshipLabelBox"/>
  <text style="text-anchor: middle; dominant-baseline: middle; font-size: 12px;" y="287.36285400390625" x="1578.5185546875" id="rel31" class="er relationshipLabel">definedUnitOfSystem</text>
  <rect height="14" width="164.390625" y="286.193359375" x="1541.8670654296875" class="er relationshipLabelBox"/>
  <text style="text-anchor: middle; dominant-baseline: middle; font-size: 12px;" y="293.193359375" x="1624.0623779296875" id="rel32" class="er relationshipLabel">derivedCoherentUnitOfSystem</text>
  <rect height="14" width="115.15625" y="305.99981689453125" x="1605.16455078125" class="er relationshipLabelBox"/>
  <text style="text-anchor: middle; dominant-baseline: middle; font-size: 12px;" y="312.99981689453125" x="1662.74267578125" id="rel33" class="er relationshipLabel">derivedUnitOfSystem</text>
  <rect height="14" width="82.828125" y="329.8526306152344" x="1669.60888671875" class="er relationshipLabelBox"/>
  <text style="text-anchor: middle; dominant-baseline: middle; font-size: 12px;" y="336.8526306152344" x="1711.02294921875" id="rel34" class="er relationshipLabel">isUnitOfSystem</text>
  <rect height="14" width="57.078125" y="301.7820739746094" x="1850.9425048828125" class="er relationshipLabelBox"/>
  <text style="text-anchor: middle; dominant-baseline: middle; font-size: 12px;" y="308.7820739746094" x="1879.4815673828125" id="rel35" class="er relationshipLabel">ucumCode</text>
  <rect height="14" width="61.453125" y="225.5" x="2183.20751953125" class="er relationshipLabelBox"/>
  <text style="text-anchor: middle; dominant-baseline: middle; font-size: 12px;" y="232.5" x="2213.93408203125" id="rel36" class="er relationshipLabel">exactMatch</text>
  <rect height="14" width="99.0927734375" y="225.50003051757812" x="2268.275634765625" class="er relationshipLabelBox"/>
  <text style="text-anchor: middle; dominant-baseline: middle; font-size: 12px;" y="232.50003051757812" x="2317.822021484375" id="rel37" class="er relationshipLabel">hasReciprocalUnit</text>
  <rect height="14" width="51.104248046875" y="225.5" x="2396.1588134765625" class="er relationshipLabelBox"/>
  <text style="text-anchor: middle; dominant-baseline: middle; font-size: 12px;" y="232.5" x="2421.7109375" id="rel38" class="er relationshipLabel">scalingOf</text>
  <rect height="14" width="75.632568359375" y="281.5907897949219" x="1941.034912109375" class="er relationshipLabelBox"/>
  <text style="text-anchor: middle; dominant-baseline: middle; font-size: 12px;" y="288.5907897949219" x="1978.8511962890625" id="rel39" class="er relationshipLabel">hasFactorUnit</text>
</svg>
