<svg aria-roledescription="er" role="graphics-document document" viewBox="-125 0 3727.78857421875 1165" height="1165" xmlns="http://www.w3.org/2000/svg" width="3727.78857421875" id="container"><style>#container{font-family:"trebuchet ms",verdana,arial,sans-serif;font-size:16px;fill:#333;}#container .error-icon{fill:#552222;}#container .error-text{fill:#552222;stroke:#552222;}#container .edge-thickness-normal{stroke-width:1px;}#container .edge-thickness-thick{stroke-width:3.5px;}#container .edge-pattern-solid{stroke-dasharray:0;}#container .edge-thickness-invisible{stroke-width:0;fill:none;}#container .edge-pattern-dashed{stroke-dasharray:3;}#container .edge-pattern-dotted{stroke-dasharray:2;}#container .marker{fill:#333333;stroke:#333333;}#container .marker.cross{stroke:#333333;}#container svg{font-family:"trebuchet ms",verdana,arial,sans-serif;font-size:16px;}#container p{margin:0;}#container .entityBox{fill:#ECECFF;stroke:#9370DB;}#container .attributeBoxOdd{fill:#ffffff;stroke:#9370DB;}#container .attributeBoxEven{fill:#f2f2f2;stroke:#9370DB;}#container .relationshipLabelBox{fill:hsl(80, 100%, 96.2745098039%);opacity:0.7;background-color:hsl(80, 100%, 96.2745098039%);}#container .relationshipLabelBox rect{opacity:0.5;}#container .relationshipLine{stroke:#333333;}#container .entityTitleText{text-anchor:middle;font-size:18px;fill:#333;}#container #MD_PARENT_START{fill:#f5f5f5!important;stroke:#333333!important;stroke-width:1;}#container #MD_PARENT_END{fill:#f5f5f5!important;stroke:#333333!important;stroke-width:1;}#container :root{--mermaid-font-family:"trebuchet ms",verdana,arial,sans-serif;}</style><g></g><defs><marker orient="auto" markerHeight="240" markerWidth="190" refY="7" refX="0" id="MD_PARENT_START"><path d="M 18,7 L9,13 L1,7 L9,1 Z"></path></marker></defs><defs><marker orient="auto" markerHeight="28" markerWidth="20" refY="7" refX="19" id="MD_PARENT_END"><path d="M 18,7 L9,13 L1,7 L9,1 Z"></path></marker></defs><defs><marker orient="auto" markerHeight="18" markerWidth="18" refY="9" refX="0" id="ONLY_ONE_START"><path d="M9,0 L9,18 M15,0 L15,18" fill="none" stroke="gray"></path></marker></defs><defs><marker orient="auto" markerHeight="18" markerWidth="18" refY="9" refX="18" id="ONLY_ONE_END"><path d="M3,0 L3,18 M9,0 L9,18" fill="none" stroke="gray"></path></marker></defs><defs><marker orient="auto" markerHeight="18" markerWidth="30" refY="9" refX="0" id="ZERO_OR_ONE_START"><circle r="6" cy="9" cx="21" fill="white" stroke="gray"></circle><path d="M9,0 L9,18" fill="none" stroke="gray"></path></marker></defs><defs><marker orient="auto" markerHeight="18" markerWidth="30" refY="9" refX="30" id="ZERO_OR_ONE_END"><circle r="6" cy="9" cx="9" fill="white" stroke="gray"></circle><path d="M21,0 L21,18" fill="none" stroke="gray"></path></marker></defs><defs><marker orient="auto" markerHeight="36" markerWidth="45" refY="18" refX="18" id="ONE_OR_MORE_START"><path d="M0,18 Q 18,0 36,18 Q 18,36 0,18 M42,9 L42,27" fill="none" stroke="gray"></path></marker></defs><defs><marker orient="auto" markerHeight="36" markerWidth="45" refY="18" refX="27" id="ONE_OR_MORE_END"><path d="M3,9 L3,27 M9,18 Q27,0 45,18 Q27,36 9,18" fill="none" stroke="gray"></path></marker></defs><defs><marker orient="auto" markerHeight="36" markerWidth="57" refY="18" refX="18" id="ZERO_OR_MORE_START"><circle r="6" cy="18" cx="48" fill="white" stroke="gray"></circle><path d="M0,18 Q18,0 36,18 Q18,36 0,18" fill="none" stroke="gray"></path></marker></defs><defs><marker orient="auto" markerHeight="36" markerWidth="57" refY="18" refX="39" id="ZERO_OR_MORE_END"><circle r="6" cy="18" cx="9" fill="white" stroke="gray"></circle><path d="M21,18 Q39,0 57,18 Q39,36 21,18" fill="none" stroke="gray"></path></marker></defs><path style="stroke: gray; fill: none;" marker-start="url(#ONLY_ONE_START)" marker-end="url(#ZERO_OR_ONE_END)" d="M2543.583,91.733L2558.802,100.61C2574.021,109.488,2604.46,127.244,2497.952,148.994C2391.444,170.744,2147.99,196.488,2026.263,209.36L1904.536,222.232" class="er relationshipLine"></path><path style="stroke: gray; fill: none;" marker-start="url(#ONLY_ONE_START)" marker-end="url(#ZERO_OR_ONE_END)" d="M2426.214,68.255L2356.418,81.045C2286.622,93.836,2147.031,119.418,2058.187,140.542C1969.344,161.667,1931.249,178.333,1912.201,186.667L1893.153,195" class="er relationshipLine"></path><path style="stroke: gray; fill: none;" marker-start="url(#ONLY_ONE_START)" marker-end="url(#ZERO_OR_ONE_END)" d="M2426.214,61.52L2223.085,75.433C2019.956,89.346,1613.697,117.173,1494.385,143.31C1375.074,169.447,1542.708,193.893,1626.525,206.117L1710.343,218.34" class="er relationshipLine"></path><path style="stroke: gray; fill: none;" marker-start="url(#ONLY_ONE_START)" marker-end="url(#ZERO_OR_MORE_END)" d="M2426.214,61.228L2206.418,75.19C1986.622,89.152,1547.031,117.076,1327.235,145.621C1107.439,174.167,1107.439,203.333,1107.439,232.5C1107.439,261.667,1107.439,290.833,1107.439,320C1107.439,349.167,1107.439,378.333,1107.439,407.5C1107.439,436.667,1107.439,465.833,1107.439,495C1107.439,524.167,1107.439,553.333,1107.439,582.5C1107.439,611.667,1107.439,640.833,1107.439,670C1107.439,699.167,1107.439,728.333,1107.439,757.5C1107.439,786.667,1107.439,815.833,998.069,843.968C888.699,872.102,669.959,899.203,560.589,912.754L451.22,926.305" class="er relationshipLine"></path><path style="stroke: gray; fill: none;" marker-start="url(#ONLY_ONE_START)" marker-end="url(#ZERO_OR_MORE_END)" d="M2543.583,78.04L2575.468,89.2C2607.354,100.36,2671.126,122.68,2703.012,148.423C2734.898,174.167,2734.898,203.333,2734.898,232.5C2734.898,261.667,2734.898,290.833,2647.104,318.72C2559.31,346.606,2383.722,373.212,2295.928,386.515L2208.134,399.818" class="er relationshipLine"></path><path style="stroke: gray; fill: none;" marker-start="url(#ONLY_ONE_START)" marker-end="url(#ZERO_OR_MORE_END)" d="M2543.583,62.39L2708.802,76.159C2874.021,89.927,3204.46,117.463,3369.679,145.815C3534.898,174.167,3534.898,203.333,3534.898,232.5C3534.898,261.667,3534.898,290.833,3534.898,320C3534.898,349.167,3534.898,378.333,3534.898,407.5C3534.898,436.667,3534.898,465.833,3534.898,495C3534.898,524.167,3534.898,553.333,3534.898,582.5C3534.898,611.667,3534.898,640.833,3356.141,669.29C3177.385,697.746,2819.871,725.492,2641.114,739.365L2462.357,753.238" class="er relationshipLine"></path><path style="stroke: gray; fill: none;" marker-start="url(#ONLY_ONE_START)" marker-end="url(#ZERO_OR_MORE_END)" d="M2543.583,62.905L2692.135,76.588C2840.688,90.27,3137.793,117.635,3286.346,145.901C3434.898,174.167,3434.898,203.333,3434.898,232.5C3434.898,261.667,3434.898,290.833,3434.898,320C3434.898,349.167,3434.898,378.333,3434.898,407.5C3434.898,436.667,3434.898,465.833,3434.898,495C3434.898,524.167,3434.898,553.333,3434.898,582.5C3434.898,611.667,3434.898,640.833,3272.808,669.221C3110.718,697.608,2786.538,725.215,2624.448,739.019L2462.357,752.823" class="er relationshipLine"></path><path style="stroke: gray; fill: none;" marker-start="url(#ONLY_ONE_START)" marker-end="url(#ZERO_OR_MORE_END)" d="M2543.583,63.541L2675.468,77.118C2807.354,90.694,3071.126,117.847,3203.012,146.007C3334.898,174.167,3334.898,203.333,3334.898,232.5C3334.898,261.667,3334.898,290.833,3334.898,320C3334.898,349.167,3334.898,378.333,3334.898,407.5C3334.898,436.667,3334.898,465.833,3334.898,495C3334.898,524.167,3334.898,553.333,3334.898,582.5C3334.898,611.667,3334.898,640.833,3189.475,669.136C3044.051,697.44,2753.204,724.879,2607.781,738.599L2462.357,752.319" class="er relationshipLine"></path><path style="stroke: gray; fill: none;" marker-start="url(#ONLY_ONE_START)" marker-end="url(#ZERO_OR_MORE_END)" d="M2543.583,64.347L2658.802,77.789C2774.021,91.231,3004.46,118.116,3119.679,146.141C3234.898,174.167,3234.898,203.333,3234.898,232.5C3234.898,261.667,3234.898,290.833,3234.898,320C3234.898,349.167,3234.898,378.333,3234.898,407.5C3234.898,436.667,3234.898,465.833,3234.898,495C3234.898,524.167,3234.898,553.333,3234.898,582.5C3234.898,611.667,3234.898,640.833,3106.141,669.032C2977.385,697.231,2719.871,724.462,2591.114,738.077L2462.357,751.693" class="er relationshipLine"></path><path style="stroke: gray; fill: none;" marker-start="url(#ONLY_ONE_START)" marker-end="url(#ZERO_OR_MORE_END)" d="M2543.583,65.4L2642.135,78.667C2740.688,91.933,2937.793,118.467,3036.346,146.317C3134.898,174.167,3134.898,203.333,3134.898,232.5C3134.898,261.667,3134.898,290.833,3134.898,320C3134.898,349.167,3134.898,378.333,3134.898,407.5C3134.898,436.667,3134.898,465.833,3134.898,495C3134.898,524.167,3134.898,553.333,3134.898,582.5C3134.898,611.667,3134.898,640.833,3022.808,668.899C2910.718,696.965,2686.538,723.93,2574.448,737.412L2462.357,750.894" class="er relationshipLine"></path><path style="stroke: gray; fill: none;" marker-start="url(#ONLY_ONE_START)" marker-end="url(#ZERO_OR_MORE_END)" d="M2426.214,59.671L2041.845,73.893C1657.476,88.114,888.738,116.557,504.369,145.362C120,174.167,120,203.333,120,232.5C120,261.667,120,290.833,120,320C120,349.167,120,378.333,120,407.5C120,436.667,120,465.833,120,495C120,524.167,120,553.333,120,582.5C120,611.667,120,640.833,115.238,663.75C110.476,686.667,100.952,703.333,96.19,711.667L91.429,720" class="er relationshipLine"></path><path style="stroke: gray; fill: none;" marker-start="url(#ONLY_ONE_START)" marker-end="url(#ZERO_OR_MORE_END)" d="M2543.583,66.836L2625.468,79.863C2707.354,92.891,2871.126,118.945,2953.012,146.556C3034.898,174.167,3034.898,203.333,3034.898,232.5C3034.898,261.667,3034.898,290.833,3034.898,320C3034.898,349.167,3034.898,378.333,3034.898,407.5C3034.898,436.667,3034.898,465.833,2896.988,494.169C2759.079,522.505,2483.259,550.009,2345.349,563.762L2207.439,577.514" class="er relationshipLine"></path><path style="stroke: gray; fill: none;" marker-start="url(#ONLY_ONE_START)" marker-end="url(#ZERO_OR_MORE_END)" d="M2543.583,68.911L2608.802,81.592C2674.021,94.274,2804.46,119.637,2869.679,146.902C2934.898,174.167,2934.898,203.333,2934.898,232.5C2934.898,261.667,2934.898,290.833,2934.898,320C2934.898,349.167,2934.898,378.333,2934.898,407.5C2934.898,436.667,2934.898,465.833,2813.655,494.062C2692.412,522.291,2449.925,549.582,2328.682,563.227L2207.439,576.873" class="er relationshipLine"></path><path style="stroke: gray; fill: none;" marker-start="url(#ONLY_ONE_START)" marker-end="url(#ZERO_OR_MORE_END)" d="M2543.583,72.171L2592.135,84.309C2640.688,96.447,2737.793,120.724,2786.346,147.445C2834.898,174.167,2834.898,203.333,2834.898,232.5C2834.898,261.667,2834.898,290.833,2834.898,320C2834.898,349.167,2834.898,378.333,2834.898,407.5C2834.898,436.667,2834.898,465.833,2730.322,493.924C2625.745,522.014,2416.592,549.028,2312.016,562.535L2207.439,576.042" class="er relationshipLine"></path><path style="stroke: gray; fill: none;" marker-start="url(#ONLY_ONE_START)" marker-end="url(#ZERO_OR_MORE_END)" d="M2426.214,60.918L2185.585,74.931C1944.956,88.945,1463.697,116.973,1223.068,145.57C982.439,174.167,982.439,203.333,982.439,232.5C982.439,261.667,982.439,290.833,982.439,320C982.439,349.167,982.439,378.333,982.439,407.5C982.439,436.667,982.439,465.833,982.439,495C982.439,524.167,982.439,553.333,982.439,582.5C982.439,611.667,982.439,640.833,977.677,663.75C972.915,686.667,963.391,703.333,958.63,711.667L953.868,720" class="er relationshipLine"></path><path style="stroke: gray; fill: none;" marker-start="url(#ONLY_ONE_START)" marker-end="url(#ZERO_OR_MORE_END)" d="M451.22,928.499L520.99,922.916C590.761,917.333,730.303,906.166,817.517,900.583C904.731,895,939.616,895,974.502,901.25C1009.387,907.5,1044.273,920,1044.273,932.5C1044.273,945,1009.387,957.5,974.502,963.75C939.616,970,904.731,970,817.517,964.417C730.303,958.834,590.761,947.667,520.99,942.084L451.22,936.501" class="er relationshipLine"></path><path style="stroke: gray; fill: none;" marker-start="url(#ONLY_ONE_START)" marker-end="url(#ZERO_OR_MORE_END)" d="M401.22,970L401.22,978.333C401.22,986.667,401.22,1003.333,401.22,1020C401.22,1036.667,401.22,1053.333,401.22,1061.667L401.22,1070" class="er relationshipLine"></path><path style="stroke: gray; fill: none;" marker-start="url(#ONLY_ONE_START)" marker-end="url(#ZERO_OR_ONE_END)" d="M2178.868,370L2183.63,361.667C2188.391,353.333,2197.915,336.667,2152.193,317.29C2106.471,297.913,2005.503,275.827,1955.02,264.783L1904.536,253.74" class="er relationshipLine"></path><path style="stroke: gray; fill: none;" marker-start="url(#ONLY_ONE_START)" marker-end="url(#ZERO_OR_ONE_END)" d="M2106.744,397.643L2040.193,384.702C1973.642,371.762,1840.541,345.881,1783.514,324.607C1726.487,303.333,1745.534,286.667,1755.058,278.333L1764.582,270" class="er relationshipLine"></path><path style="stroke: gray; fill: none;" marker-start="url(#ONLY_ONE_START)" marker-end="url(#ZERO_OR_ONE_END)" d="M2106.744,409.917L1809.279,424.097C1511.814,438.278,916.883,466.639,619.418,489.153C321.953,511.667,321.953,528.333,321.953,536.667L321.953,545" class="er relationshipLine"></path><path style="stroke: gray; fill: none;" marker-start="url(#ONLY_ONE_START)" marker-end="url(#ZERO_OR_MORE_END)" d="M2208.134,402.101L2258.369,396.751C2308.604,391.401,2409.073,380.7,2471.866,375.35C2534.659,370,2559.777,370,2584.894,376.25C2610.011,382.5,2635.129,395,2635.129,407.5C2635.129,420,2610.011,432.5,2584.894,438.75C2559.777,445,2534.659,445,2471.866,439.65C2409.073,434.3,2308.604,423.599,2258.369,418.249L2208.134,412.899" class="er relationshipLine"></path><path style="stroke: gray; fill: none;" marker-start="url(#ONLY_ONE_START)" marker-end="url(#ZERO_OR_MORE_END)" d="M2106.744,399.435L2023.526,386.196C1940.309,372.957,1773.874,346.478,1709.704,324.906C1645.534,303.333,1683.63,286.667,1702.677,278.333L1721.725,270" class="er relationshipLine"></path><path style="stroke: gray; fill: none;" marker-start="url(#ONLY_ONE_START)" marker-end="url(#ZERO_OR_MORE_END)" d="M2106.744,410.354L1856.149,424.462C1605.553,438.569,1104.363,466.785,853.768,489.226C603.173,511.667,603.173,528.333,603.173,536.667L603.173,545" class="er relationshipLine"></path><path style="stroke: gray; fill: none;" marker-start="url(#ONLY_ONE_START)" marker-end="url(#ZERO_OR_MORE_END)" d="M2208.134,417.877L2270.928,430.731C2333.722,443.585,2459.31,469.292,2459.194,495.024C2459.079,520.755,2333.259,546.51,2270.349,559.388L2207.439,572.265" class="er relationshipLine"></path><path style="stroke: gray; fill: none;" marker-start="url(#ONLY_ONE_START)" marker-end="url(#ZERO_OR_MORE_END)" d="M2208.134,421.046L2254.262,433.372C2300.389,445.697,2392.644,470.349,2392.528,495.031C2392.412,519.713,2299.925,544.426,2253.682,556.783L2207.439,569.14" class="er relationshipLine"></path><path style="stroke: gray; fill: none;" marker-start="url(#ONLY_ONE_START)" marker-end="url(#ZERO_OR_MORE_END)" d="M2208.134,427.002L2237.595,438.335C2267.056,449.668,2325.977,472.334,2325.861,495.045C2325.745,517.755,2266.592,540.511,2237.016,551.888L2207.439,563.266" class="er relationshipLine"></path><path style="stroke: gray; fill: none;" marker-start="url(#ONLY_ONE_START)" marker-end="url(#ZERO_OR_MORE_END)" d="M2157.439,445L2157.439,453.333C2157.439,461.667,2157.439,478.333,2157.439,495C2157.439,511.667,2157.439,528.333,2157.439,536.667L2157.439,545" class="er relationshipLine"></path><path style="stroke: gray; fill: none;" marker-start="url(#ONLY_ONE_START)" marker-end="url(#ZERO_OR_MORE_END)" d="M2106.744,422.286L2065.193,434.405C2023.642,446.524,1940.541,470.762,1940.657,495.034C1940.772,519.306,2024.106,543.611,2065.772,555.764L2107.439,567.917" class="er relationshipLine"></path><path style="stroke: gray; fill: none;" marker-start="url(#ONLY_ONE_START)" marker-end="url(#ZERO_OR_MORE_END)" d="M2106.744,417.357L2040.193,430.298C1973.642,443.238,1840.541,469.119,1840.657,495.023C1840.772,520.926,1974.106,546.852,2040.772,559.815L2107.439,572.778" class="er relationshipLine"></path><path style="stroke: gray; fill: none;" marker-start="url(#ONLY_ONE_START)" marker-end="url(#ZERO_OR_MORE_END)" d="M1904.536,243.428L2017.929,256.19C2131.323,268.952,2358.111,294.476,2408.71,320.092C2459.31,345.708,2333.722,371.415,2270.928,384.269L2208.134,397.123" class="er relationshipLine"></path><path style="stroke: gray; fill: none;" marker-start="url(#ONLY_ONE_START)" marker-end="url(#ZERO_OR_MORE_END)" d="M1710.343,241.214L1564.025,254.345C1417.708,267.476,1125.074,293.738,978.756,315.202C832.439,336.667,832.439,353.333,832.439,361.667L832.439,370" class="er relationshipLine"></path><path style="stroke: gray; fill: none;" marker-start="url(#ONLY_ONE_START)" marker-end="url(#ZERO_OR_MORE_END)" d="M832.439,445L832.439,453.333C832.439,461.667,832.439,478.333,832.439,495C832.439,511.667,832.439,528.333,832.439,536.667L832.439,545" class="er relationshipLine"></path><path style="stroke: gray; fill: none;" marker-start="url(#ONLY_ONE_START)" marker-end="url(#ZERO_OR_MORE_END)" d="M2407.439,795L2407.439,803.333C2407.439,811.667,2407.439,828.333,2407.439,845C2407.439,861.667,2407.439,878.333,2407.439,886.667L2407.439,895" class="er relationshipLine"></path><path style="stroke: gray; fill: none;" marker-start="url(#ONLY_ONE_START)" marker-end="url(#ZERO_OR_MORE_END)" d="M2352.521,760.021L2043.971,774.184C1735.42,788.347,1118.32,816.674,800.246,839.17C482.172,861.667,463.124,878.333,453.601,886.667L444.077,895" class="er relationshipLine"></path><path style="stroke: gray; fill: none;" marker-start="url(#ONLY_ONE_START)" marker-end="url(#ZERO_OR_MORE_END)" d="M2462.064,720L2474.203,711.667C2486.342,703.333,2510.62,686.667,2468.183,665.682C2425.745,644.697,2316.592,619.394,2262.016,606.742L2207.439,594.091" class="er relationshipLine"></path><path style="stroke: gray; fill: none;" marker-start="url(#ONLY_ONE_START)" marker-end="url(#ZERO_OR_MORE_END)" d="M2419.207,720L2421.822,711.667C2424.438,703.333,2429.668,686.667,2394.373,666.378C2359.079,646.089,2283.259,622.179,2245.349,610.223L2207.439,598.268" class="er relationshipLine"></path><path style="stroke: gray; fill: none;" marker-start="url(#ONLY_ONE_START)" marker-end="url(#ZERO_OR_MORE_END)" d="M2352.521,742.602L2307.917,730.501C2263.313,718.401,2174.106,694.201,2136.411,673.767C2098.716,653.333,2112.533,636.667,2119.442,628.333L2126.35,620" class="er relationshipLine"></path><path style="stroke: gray; fill: none;" marker-start="url(#ONLY_ONE_START)" marker-end="url(#ZERO_OR_MORE_END)" d="M2352.521,751.993L2216.25,738.327C2079.98,724.662,1807.439,697.331,1766.592,670.253C1725.745,643.176,1916.592,616.352,2012.016,602.94L2107.439,589.528" class="er relationshipLine"></path><path style="stroke: gray; fill: none;" marker-start="url(#ONLY_ONE_START)" marker-end="url(#ZERO_OR_MORE_END)" d="M2352.521,752.559L2199.584,738.799C2046.647,725.039,1740.772,697.52,1699.925,670.186C1659.079,642.852,1883.259,615.703,1995.349,602.129L2107.439,588.555" class="er relationshipLine"></path><path style="stroke: gray; fill: none;" marker-start="url(#ONLY_ONE_START)" marker-end="url(#ZERO_OR_MORE_END)" d="M2352.521,753.02L2182.917,739.183C2013.313,725.346,1674.106,697.673,1633.259,670.14C1592.412,642.606,1849.925,615.213,1978.682,601.516L2107.439,587.819" class="er relationshipLine"></path><path style="stroke: gray; fill: none;" marker-start="url(#ONLY_ONE_START)" marker-end="url(#ZERO_OR_MORE_END)" d="M2352.521,753.402L2166.25,739.501C1979.98,725.601,1607.439,697.801,1566.592,670.107C1525.745,642.414,1816.592,614.828,1962.016,601.035L2107.439,587.242" class="er relationshipLine"></path><path style="stroke: gray; fill: none;" marker-start="url(#ONLY_ONE_START)" marker-end="url(#ZERO_OR_ONE_END)" d="M2107.439,575.769L2007.439,562.308C1907.439,548.846,1707.439,521.923,1607.439,493.878C1507.439,465.833,1507.439,436.667,1507.439,407.5C1507.439,378.333,1507.439,349.167,1541.256,324.72C1575.074,300.273,1642.708,280.547,1676.525,270.683L1710.343,260.82" class="er relationshipLine"></path><path style="stroke: gray; fill: none;" marker-start="url(#ONLY_ONE_START)" marker-end="url(#ZERO_OR_ONE_END)" d="M2107.439,576.667L1990.772,563.056C1874.106,549.444,1640.772,522.222,1524.106,494.028C1407.439,465.833,1407.439,436.667,1407.439,407.5C1407.439,378.333,1407.439,349.167,1457.923,323.54C1508.407,297.913,1609.375,275.827,1659.859,264.783L1710.343,253.74" class="er relationshipLine"></path><path style="stroke: gray; fill: none;" marker-start="url(#ONLY_ONE_START)" marker-end="url(#ZERO_OR_ONE_END)" d="M2107.439,577.353L1974.106,563.627C1840.772,549.902,1574.106,522.451,1440.772,494.142C1307.439,465.833,1307.439,436.667,1307.439,407.5C1307.439,378.333,1307.439,349.167,1374.59,322.832C1441.74,296.497,1576.041,272.995,1643.192,261.243L1710.343,249.492" class="er relationshipLine"></path><path style="stroke: gray; fill: none;" marker-start="url(#ONLY_ONE_START)" marker-end="url(#ZERO_OR_MORE_END)" d="M2107.439,584.434L1738.699,598.695C1369.959,612.956,632.48,641.478,263.74,670.322C-105,699.167,-105,728.333,-105,757.5C-105,786.667,-105,815.833,-28.963,843.56C47.073,871.286,199.146,897.572,275.183,910.715L351.22,923.858" class="er relationshipLine"></path><path style="stroke: gray; fill: none;" marker-start="url(#ONLY_ONE_START)" marker-end="url(#ZERO_OR_MORE_END)" d="M2107.439,577.895L1957.439,564.079C1807.439,550.263,1507.439,522.632,1507.323,495.011C1507.207,467.39,1806.976,439.78,1956.86,425.974L2106.744,412.169" class="er relationshipLine"></path><path style="stroke: gray; fill: none;" marker-start="url(#ONLY_ONE_START)" marker-end="url(#ZERO_OR_MORE_END)" d="M2207.439,587.486L2345.349,601.238C2483.259,614.991,2759.079,642.495,2801.565,669.555C2844.051,696.614,2653.204,723.228,2557.781,736.535L2462.357,749.842" class="er relationshipLine"></path><path style="stroke: gray; fill: none;" marker-start="url(#ONLY_ONE_START)" marker-end="url(#ZERO_OR_MORE_END)" d="M2207.439,588.127L2328.682,601.773C2449.925,615.418,2692.412,642.709,2734.898,669.419C2777.385,696.13,2619.871,722.26,2541.114,735.325L2462.357,748.39" class="er relationshipLine"></path><path style="stroke: gray; fill: none;" marker-start="url(#ONLY_ONE_START)" marker-end="url(#ZERO_OR_MORE_END)" d="M2207.439,588.958L2312.016,602.465C2416.592,615.972,2625.745,642.986,2668.232,669.203C2710.718,695.419,2586.538,720.839,2524.448,733.549L2462.357,746.258" class="er relationshipLine"></path><path style="stroke: gray; fill: none;" marker-start="url(#ONLY_ONE_START)" marker-end="url(#ZERO_OR_MORE_END)" d="M2207.439,590.076L2295.349,603.397C2383.259,616.718,2559.079,643.359,2601.565,668.817C2644.051,694.275,2553.204,718.55,2507.781,730.688L2462.357,742.825" class="er relationshipLine"></path><path style="stroke: gray; fill: none;" marker-start="url(#ONLY_ONE_START)" marker-end="url(#ZERO_OR_MORE_END)" d="M2207.439,591.663L2278.682,604.719C2349.925,617.775,2492.412,643.888,2534.898,668.006C2577.385,692.125,2519.871,714.249,2491.114,725.311L2462.357,736.374" class="er relationshipLine"></path><path style="stroke: gray; fill: none;" marker-start="url(#ONLY_ONE_START)" marker-end="url(#ZERO_OR_MORE_END)" d="M2107.439,584.547L1759.533,598.789C1411.626,613.031,715.813,641.516,372.668,664.091C29.524,686.667,39.048,703.333,43.81,711.667L48.571,720" class="er relationshipLine"></path><path style="stroke: gray; fill: none;" marker-start="url(#ONLY_ONE_START)" marker-end="url(#ZERO_OR_MORE_END)" d="M2207.439,577.065L2256.601,571.721C2305.763,566.377,2404.088,555.688,2465.54,550.344C2526.993,545,2551.574,545,2576.155,551.25C2600.736,557.5,2625.317,570,2625.317,582.5C2625.317,595,2600.736,607.5,2576.155,613.75C2551.574,620,2526.993,620,2465.54,614.656C2404.088,609.312,2305.763,598.623,2256.601,593.279L2207.439,587.935" class="er relationshipLine"></path><path style="stroke: gray; fill: none;" marker-start="url(#ONLY_ONE_START)" marker-end="url(#ZERO_OR_MORE_END)" d="M2207.439,578.018L2268.823,572.515C2330.208,567.012,2452.976,556.006,2529.707,550.503C2606.437,545,2637.13,545,2667.822,551.25C2698.514,557.5,2729.206,570,2729.206,582.5C2729.206,595,2698.514,607.5,2667.822,613.75C2637.13,620,2606.437,620,2529.707,614.497C2452.976,608.994,2330.208,597.988,2268.823,592.485L2207.439,586.982" class="er relationshipLine"></path><path style="stroke: gray; fill: none;" marker-start="url(#ONLY_ONE_START)" marker-end="url(#ZERO_OR_MORE_END)" d="M2207.439,578.686L2281.046,573.072C2354.652,567.457,2501.865,556.229,2593.874,550.614C2685.882,545,2722.685,545,2759.488,551.25C2796.292,557.5,2833.095,570,2833.095,582.5C2833.095,595,2796.292,607.5,2759.488,613.75C2722.685,620,2685.882,620,2593.874,614.386C2501.865,608.771,2354.652,597.543,2281.046,591.928L2207.439,586.314" class="er relationshipLine"></path><path style="stroke: gray; fill: none;" marker-start="url(#ONLY_ONE_START)" marker-end="url(#ZERO_OR_MORE_END)" d="M2107.439,585.224L1848.069,599.353C1588.699,613.483,1069.959,641.741,865.793,668.541C661.626,695.341,772.033,720.682,827.236,733.353L882.439,746.024" class="er relationshipLine"></path><g transform="translate(2426.2139434814453,20 )" id="entity-LogarithmicUnit-50d2840a-eb19-5970-8d17-efbff937b4ab"><rect height="75" width="117.36857604980469" y="0" x="0" class="er entityBox"></rect><text style="dominant-baseline: middle; text-anchor: middle; font-size: 12px;" transform="translate(58.684288024902344,37.5)" y="0" x="0" id="text-entity-LogarithmicUnit-50d2840a-eb19-5970-8d17-efbff937b4ab" class="er entityLabel">LogarithmicUnit</text></g><g transform="translate(351.2195510864258,895 )" id="entity-Prefix-f6d97b99-faee-5974-b12e-390868d79e86"><rect height="75" width="100" y="0" x="0" class="er entityBox"></rect><text style="dominant-baseline: middle; text-anchor: middle; font-size: 12px;" transform="translate(50,37.5)" y="0" x="0" id="text-entity-Prefix-f6d97b99-faee-5974-b12e-390868d79e86" class="er entityLabel">Prefix</text></g><g transform="translate(2106.7437896728516,370 )" id="entity-QuantityKind-6f79b338-e354-5d95-8035-8883644476ff"><rect height="75" width="101.390625" y="0" x="0" class="er entityBox"></rect><text style="dominant-baseline: middle; text-anchor: middle; font-size: 12px;" transform="translate(50.6953125,37.5)" y="0" x="0" id="text-entity-QuantityKind-6f79b338-e354-5d95-8035-8883644476ff" class="er entityLabel">QuantityKind</text></g><g transform="translate(1710.3425598144531,195 )" id="entity-QuantityKindDimensionVector-bfa1bf26-fcae-516f-8f63-2f454f3dac1b"><rect height="75" width="194.19308471679688" y="0" x="0" class="er entityBox"></rect><text style="dominant-baseline: middle; text-anchor: middle; font-size: 12px;" transform="translate(97.09654235839844,37.5)" y="0" x="0" id="text-entity-QuantityKindDimensionVector-bfa1bf26-fcae-516f-8f63-2f454f3dac1b" class="er entityLabel">QuantityKindDimensionVector</text></g><g transform="translate(782.4391021728516,370 )" id="entity-Rule-886caf8e-59ff-5db3-a492-27242971196f"><rect height="75" width="100" y="0" x="0" class="er entityBox"></rect><text style="dominant-baseline: middle; text-anchor: middle; font-size: 12px;" transform="translate(50,37.5)" y="0" x="0" id="text-entity-Rule-886caf8e-59ff-5db3-a492-27242971196f" class="er entityLabel">Rule</text></g><g transform="translate(2352.5208435058594,720 )" id="entity-SystemOfUnits-f7f1da8e-a5af-50e1-94d0-c2e741f40e1d"><rect height="75" width="109.83651733398438" y="0" x="0" class="er entityBox"></rect><text style="dominant-baseline: middle; text-anchor: middle; font-size: 12px;" transform="translate(54.91825866699219,37.5)" y="0" x="0" id="text-entity-SystemOfUnits-f7f1da8e-a5af-50e1-94d0-c2e741f40e1d" class="er entityLabel">SystemOfUnits</text></g><g transform="translate(20,720 )" id="entity-UCUMcs-8df33f70-0c53-5f8e-a81f-0969bc803a34"><rect height="75" width="100" y="0" x="0" class="er entityBox"></rect><text style="dominant-baseline: middle; text-anchor: middle; font-size: 12px;" transform="translate(50,37.5)" y="0" x="0" id="text-entity-UCUMcs-8df33f70-0c53-5f8e-a81f-0969bc803a34" class="er entityLabel">UCUMcs</text></g><g transform="translate(2107.4391021728516,545 )" id="entity-Unit-c57ac1ea-0a24-509a-a80e-23f8c03ca739"><rect height="75" width="100" y="0" x="0" class="er entityBox"></rect><text style="dominant-baseline: middle; text-anchor: middle; font-size: 12px;" transform="translate(50,37.5)" y="0" x="0" id="text-entity-Unit-c57ac1ea-0a24-509a-a80e-23f8c03ca739" class="er entityLabel">Unit</text></g><g transform="translate(882.4391021728516,720 )" id="entity-Class-d9e3eb4a-97c0-50b6-8e3f-7f4a2fa7283d"><rect height="75" width="100" y="0" x="0" class="er entityBox"></rect><text style="dominant-baseline: middle; text-anchor: middle; font-size: 12px;" transform="translate(50,37.5)" y="0" x="0" id="text-entity-Class-d9e3eb4a-97c0-50b6-8e3f-7f4a2fa7283d" class="er entityLabel">__Class</text></g><g transform="translate(349.5008010864258,1070 )" id="entity-UCUMcsterm-f108a9d5-75dc-5824-aae7-181f348ae82a"><rect height="75" width="103.4375" y="0" x="0" class="er entityBox"></rect><text style="dominant-baseline: middle; text-anchor: middle; font-size: 12px;" transform="translate(51.71875,37.5)" y="0" x="0" id="text-entity-UCUMcsterm-f108a9d5-75dc-5824-aae7-181f348ae82a" class="er entityLabel">UCUMcs-term</text></g><g transform="translate(220,545 )" id="entity-QuantityKindDimensionVectorSI-2681a9c0-d385-5c75-b278-85a805bca5b5"><rect height="75" width="203.90625" y="0" x="0" class="er entityBox"></rect><text style="dominant-baseline: middle; text-anchor: middle; font-size: 12px;" transform="translate(101.953125,37.5)" y="0" x="0" id="text-entity-QuantityKindDimensionVectorSI-2681a9c0-d385-5c75-b278-85a805bca5b5" class="er entityLabel">QuantityKindDimensionVectorSI</text></g><g transform="translate(523.90625,545 )" id="entity-SystemOfQuantityKinds-09c2a533-d4ff-5ffb-9642-53498359216a"><rect height="75" width="158.53285217285156" y="0" x="0" class="er entityBox"></rect><text style="dominant-baseline: middle; text-anchor: middle; font-size: 12px;" transform="translate(79.26642608642578,37.5)" y="0" x="0" id="text-entity-SystemOfQuantityKinds-09c2a533-d4ff-5ffb-9642-53498359216a" class="er entityLabel">SystemOfQuantityKinds</text></g><g transform="translate(782.4391021728516,545 )" id="entity-RuleType-d54df1a6-a17d-5920-9344-6f805c739e55"><rect height="75" width="100" y="0" x="0" class="er entityBox"></rect><text style="dominant-baseline: middle; text-anchor: middle; font-size: 12px;" transform="translate(50,37.5)" y="0" x="0" id="text-entity-RuleType-d54df1a6-a17d-5920-9344-6f805c739e55" class="er entityLabel">RuleType</text></g><g transform="translate(2345.958808898926,895 )" id="entity-PhysicalConstant-f43f8855-cf72-5deb-8dd3-7b0283708583"><rect height="75" width="122.96058654785156" y="0" x="0" class="er entityBox"></rect><text style="dominant-baseline: middle; text-anchor: middle; font-size: 12px;" transform="translate(61.48029327392578,37.5)" y="0" x="0" id="text-entity-PhysicalConstant-f43f8855-cf72-5deb-8dd3-7b0283708583" class="er entityLabel">PhysicalConstant</text></g><rect height="14" width="111.8486328125" y="175.8212432861328" x="2209.25439453125" class="er relationshipLabelBox"></rect><text style="text-anchor: middle; dominant-baseline: middle; font-size: 12px;" y="182.8212432861328" x="2265.1787109375" id="rel1" class="er relationshipLabel">hasDimensionVector</text><rect height="14" width="97.98876953125" y="112.20281219482422" x="2107.390380859375" class="er relationshipLabelBox"></rect><text style="text-anchor: middle; dominant-baseline: middle; font-size: 12px;" y="119.20281219482422" x="2156.384765625" id="rel2" class="er relationshipLabel">qkdvDenominator</text><rect height="14" width="85.1966552734375" y="99.87452697753906" x="1760.2599487304688" class="er relationshipLabelBox"></rect><text style="text-anchor: middle; dominant-baseline: middle; font-size: 12px;" y="106.87452697753906" x="1802.8582763671875" id="rel3" class="er relationshipLabel">qkdvNumerator</text><rect height="14" width="30.8402099609375" y="178.85438537597656" x="1125.5216674804688" class="er relationshipLabelBox"></rect><text style="text-anchor: middle; dominant-baseline: middle; font-size: 12px;" y="185.85438537597656" x="1140.9417724609375" id="rel4" class="er relationshipLabel">prefix</text><rect height="14" width="90.4375" y="317.79779052734375" x="2581.33447265625" class="er relationshipLabelBox"></rect><text style="text-anchor: middle; dominant-baseline: middle; font-size: 12px;" y="324.79779052734375" x="2626.55322265625" id="rel5" class="er relationshipLabel">hasQuantityKind</text><rect height="14" width="95.78125" y="440.4111328125" x="3487.00732421875" class="er relationshipLabelBox"></rect><text style="text-anchor: middle; dominant-baseline: middle; font-size: 12px;" y="447.4111328125" x="3534.89794921875" id="rel6" class="er relationshipLabel">applicableSystem</text><rect height="14" width="115.203125" y="440.309326171875" x="3377.29638671875" class="er relationshipLabelBox"></rect><text style="text-anchor: middle; dominant-baseline: middle; font-size: 12px;" y="447.309326171875" x="3434.89794921875" id="rel7" class="er relationshipLabel">definedUnitOfSystem</text><rect height="14" width="164.390625" y="440.1810302734375" x="3252.70263671875" class="er relationshipLabelBox"></rect><text style="text-anchor: middle; dominant-baseline: middle; font-size: 12px;" y="447.1810302734375" x="3334.89794921875" id="rel8" class="er relationshipLabel">derivedCoherentUnitOfSystem</text><rect height="14" width="115.15625" y="440.01458740234375" x="3177.31982421875" class="er relationshipLabelBox"></rect><text style="text-anchor: middle; dominant-baseline: middle; font-size: 12px;" y="447.01458740234375" x="3234.89794921875" id="rel9" class="er relationshipLabel">derivedUnitOfSystem</text><rect height="14" width="82.828125" y="439.79278564453125" x="3093.48388671875" class="er relationshipLabelBox"></rect><text style="text-anchor: middle; dominant-baseline: middle; font-size: 12px;" y="446.79278564453125" x="3134.89794921875" id="rel10" class="er relationshipLabel">isUnitOfSystem</text><rect height="14" width="57.078125" y="108.97428131103516" x="985.0368041992188" class="er relationshipLabelBox"></rect><text style="text-anchor: middle; dominant-baseline: middle; font-size: 12px;" y="115.97428131103516" x="1013.5758666992188" id="rel11" class="er relationshipLabel">ucumCode</text><rect height="14" width="61.453125" y="457.9168701171875" x="2964.715087890625" class="er relationshipLabelBox"></rect><text style="text-anchor: middle; dominant-baseline: middle; font-size: 12px;" y="464.9168701171875" x="2995.441650390625" id="rel12" class="er relationshipLabel">exactMatch</text><rect height="14" width="99.0927734375" y="458.87213134765625" x="2848.828125" class="er relationshipLabelBox"></rect><text style="text-anchor: middle; dominant-baseline: middle; font-size: 12px;" y="465.87213134765625" x="2898.37451171875" id="rel13" class="er relationshipLabel">hasReciprocalUnit</text><rect height="14" width="51.104248046875" y="459.631103515625" x="2776.5150146484375" class="er relationshipLabelBox"></rect><text style="text-anchor: middle; dominant-baseline: middle; font-size: 12px;" y="466.631103515625" x="2802.067138671875" id="rel14" class="er relationshipLabel">scalingOf</text><rect height="13.999992370605469" width="75.6324462890625" y="117.34516525268555" x="1404.4612426757812" class="er relationshipLabelBox"></rect><text style="text-anchor: middle; dominant-baseline: middle; font-size: 12px;" y="124.34516143798828" x="1442.2774658203125" id="rel15" class="er relationshipLabel">hasFactorUnit</text><rect height="14" width="61.453125" y="925.5" x="1013.54638671875" class="er relationshipLabelBox"></rect><text style="text-anchor: middle; dominant-baseline: middle; font-size: 12px;" y="932.5" x="1044.27294921875" id="rel16" class="er relationshipLabel">exactMatch</text><rect height="14" width="57.078125" y="1013" x="372.6809387207031" class="er relationshipLabelBox"></rect><text style="text-anchor: middle; dominant-baseline: middle; font-size: 12px;" y="1020" x="401.2200012207031" id="rel17" class="er relationshipLabel">ucumCode</text><rect height="14" width="97.98876953125" y="283.33514404296875" x="2015.971923828125" class="er relationshipLabelBox"></rect><text style="text-anchor: middle; dominant-baseline: middle; font-size: 12px;" y="290.33514404296875" x="2064.96630859375" id="rel18" class="er relationshipLabel">qkdvDenominator</text><rect height="14" width="85.1966552734375" y="349.5364990234375" x="1860.0907592773438" class="er relationshipLabelBox"></rect><text style="text-anchor: middle; dominant-baseline: middle; font-size: 12px;" y="356.5364990234375" x="1902.6890869140625" id="rel19" class="er relationshipLabel">qkdvNumerator</text><rect height="14" width="119.078125" y="446.943603515625" x="1146.3846435546875" class="er relationshipLabelBox"></rect><text style="text-anchor: middle; dominant-baseline: middle; font-size: 12px;" y="453.943603515625" x="1205.9237060546875" id="rel20" class="er relationshipLabel">dimensionVectorForSI</text><rect height="14" width="61.453125" y="400.5000305175781" x="2604.40234375" class="er relationshipLabelBox"></rect><text style="text-anchor: middle; dominant-baseline: middle; font-size: 12px;" y="407.5000305175781" x="2635.12890625" id="rel21" class="er relationshipLabel">exactMatch</text><rect height="14" width="111.8487548828125" y="351.050048828125" x="1800.1528930664062" class="er relationshipLabelBox"></rect><text style="text-anchor: middle; dominant-baseline: middle; font-size: 12px;" y="358.050048828125" x="1856.0772705078125" id="rel22" class="er relationshipLabel">hasDimensionVector</text><rect height="14" width="163.4290771484375" y="447.27069091796875" x="1264.3693237304688" class="er relationshipLabelBox"></rect><text style="text-anchor: middle; dominant-baseline: middle; font-size: 12px;" y="454.27069091796875" x="1346.0838623046875" id="rel23" class="er relationshipLabel">belongsToSystemOfQuantities</text><rect height="14" width="100.904541015625" y="488.344482421875" x="2408.7337646484375" class="er relationshipLabelBox"></rect><text style="text-anchor: middle; dominant-baseline: middle; font-size: 12px;" y="495.344482421875" x="2459.18603515625" id="rel24" class="er relationshipLabel">applicableCGSUnit</text><rect height="14" width="98.696533203125" y="488.3472900390625" x="2343.1732177734375" class="er relationshipLabelBox"></rect><text style="text-anchor: middle; dominant-baseline: middle; font-size: 12px;" y="495.3472900390625" x="2392.521484375" id="rel25" class="er relationshipLabel">applicableISOUnit</text><rect height="14" width="125.744873046875" y="488.3576965332031" x="2262.9830322265625" class="er relationshipLabelBox"></rect><text style="text-anchor: middle; dominant-baseline: middle; font-size: 12px;" y="495.3576965332031" x="2325.85546875" id="rel26" class="er relationshipLabel">applicableImperialUnit</text><rect height="14" width="90.392578125" y="488" x="2112.24267578125" class="er relationshipLabelBox"></rect><text style="text-anchor: middle; dominant-baseline: middle; font-size: 12px;" y="495" x="2157.43896484375" id="rel27" class="er relationshipLabel">applicableSIUnit</text><rect height="14" width="152.3250732421875" y="488.3490295410156" x="1864.5006713867188" class="er relationshipLabelBox"></rect><text style="text-anchor: middle; dominant-baseline: middle; font-size: 12px;" y="495.3490295410156" x="1940.6632080078125" id="rel28" class="er relationshipLabel">applicableUSCustomaryUnit</text><rect height="14" width="80.3125" y="488.34417724609375" x="1800.5091552734375" class="er relationshipLabelBox"></rect><text style="text-anchor: middle; dominant-baseline: middle; font-size: 12px;" y="495.34417724609375" x="1840.6654052734375" id="rel29" class="er relationshipLabel">applicableUnit</text><rect height="14" width="144.375" y="282.7377014160156" x="2206.849365234375" class="er relationshipLabelBox"></rect><text style="text-anchor: middle; dominant-baseline: middle; font-size: 12px;" y="289.7377014160156" x="2279.036865234375" id="rel30" class="er relationshipLabel">hasReferenceQuantityKind</text><rect height="14" width="43.296875" y="275.69561767578125" x="1239.2564697265625" class="er relationshipLabelBox"></rect><text style="text-anchor: middle; dominant-baseline: middle; font-size: 12px;" y="282.69561767578125" x="1260.9049072265625" id="rel31" class="er relationshipLabel">hasRule</text><rect height="14" width="46.921875" y="488" x="808.9780883789062" class="er relationshipLabelBox"></rect><text style="text-anchor: middle; dominant-baseline: middle; font-size: 12px;" y="495" x="832.4390258789062" id="rel32" class="er relationshipLabel">ruleType</text><rect height="14" width="149.9130859375" y="838" x="2332.482421875" class="er relationshipLabelBox"></rect><text style="text-anchor: middle; dominant-baseline: middle; font-size: 12px;" y="845" x="2407.43896484375" id="rel33" class="er relationshipLabel">applicablePhysicalConstant</text><rect height="14" width="30.8402099609375" y="798.1461791992188" x="1378.8202514648438" class="er relationshipLabelBox"></rect><text style="text-anchor: middle; dominant-baseline: middle; font-size: 12px;" y="805.1461791992188" x="1394.2403564453125" id="rel34" class="er relationshipLabel">prefix</text><rect height="14" width="85.58056640625" y="628.279052734375" x="2334.98291015625" class="er relationshipLabelBox"></rect><text style="text-anchor: middle; dominant-baseline: middle; font-size: 12px;" y="635.279052734375" x="2377.773193359375" id="rel35" class="er relationshipLabel">hasAllowedUnit</text><rect height="14" width="68.25244140625" y="632.8984375" x="2299.7275390625" class="er relationshipLabelBox"></rect><text style="text-anchor: middle; dominant-baseline: middle; font-size: 12px;" y="639.8984375" x="2333.853759765625" id="rel36" class="er relationshipLabel">hasBaseUnit</text><rect height="14" width="91.640625" y="695.1226196289062" x="2163.7900390625" class="er relationshipLabelBox"></rect><text style="text-anchor: middle; dominant-baseline: middle; font-size: 12px;" y="702.1226196289062" x="2209.6103515625" id="rel37" class="er relationshipLabel">hasCoherentUnit</text><rect height="14" width="84.320556640625" y="690.57373046875" x="1832.966064453125" class="er relationshipLabelBox"></rect><text style="text-anchor: middle; dominant-baseline: middle; font-size: 12px;" y="697.57373046875" x="1875.1263427734375" id="rel38" class="er relationshipLabel">hasDefinedUnit</text><rect height="14" width="133.496826171875" y="689.5112915039062" x="1743.257080078125" class="er relationshipLabelBox"></rect><text style="text-anchor: middle; dominant-baseline: middle; font-size: 12px;" y="696.5112915039062" x="1810.0054931640625" id="rel39" class="er relationshipLabel">hasDerivedCoherentUnit</text><rect height="14" width="84.260498046875" y="688.550537109375" x="1702.4405517578125" class="er relationshipLabelBox"></rect><text style="text-anchor: middle; dominant-baseline: middle; font-size: 12px;" y="695.550537109375" x="1744.57080078125" id="rel40" class="er relationshipLabel">hasDerivedUnit</text><rect height="14" width="42.404296875" y="687.6784057617188" x="1657.70654296875" class="er relationshipLabelBox"></rect><text style="text-anchor: middle; dominant-baseline: middle; font-size: 12px;" y="694.6784057617188" x="1678.90869140625" id="rel41" class="er relationshipLabel">hasUnit</text><rect height="14" width="111.8487548828125" y="497.3430480957031" x="1593.4220581054688" class="er relationshipLabelBox"></rect><text style="text-anchor: middle; dominant-baseline: middle; font-size: 12px;" y="504.3430480957031" x="1649.346435546875" id="rel42" class="er relationshipLabel">hasDimensionVector</text><rect height="14" width="97.9886474609375" y="493.8177185058594" x="1505.4678344726562" class="er relationshipLabelBox"></rect><text style="text-anchor: middle; dominant-baseline: middle; font-size: 12px;" y="500.8177185058594" x="1554.462158203125" id="rel43" class="er relationshipLabel">qkdvDenominator</text><rect height="14" width="85.196533203125" y="490.737548828125" x="1415.8397216796875" class="er relationshipLabelBox"></rect><text style="text-anchor: middle; dominant-baseline: middle; font-size: 12px;" y="497.737548828125" x="1458.43798828125" id="rel44" class="er relationshipLabel">qkdvNumerator</text><rect height="14" width="30.8402099609375" y="634.970703125" x="715.2747192382812" class="er relationshipLabelBox"></rect><text style="text-anchor: middle; dominant-baseline: middle; font-size: 12px;" y="641.970703125" x="730.69482421875" id="rel45" class="er relationshipLabel">prefix</text><rect height="14" width="90.4375" y="488.3434753417969" x="1462.1202392578125" class="er relationshipLabelBox"></rect><text style="text-anchor: middle; dominant-baseline: middle; font-size: 12px;" y="495.3434753417969" x="1507.3389892578125" id="rel46" class="er relationshipLabel">hasQuantityKind</text><rect height="14" width="95.78125" y="634.811279296875" x="2640.611328125" class="er relationshipLabelBox"></rect><text style="text-anchor: middle; dominant-baseline: middle; font-size: 12px;" y="641.811279296875" x="2688.501953125" id="rel47" class="er relationshipLabel">applicableSystem</text><rect height="14" width="115.203125" y="633.6023559570312" x="2566.275390625" class="er relationshipLabelBox"></rect><text style="text-anchor: middle; dominant-baseline: middle; font-size: 12px;" y="640.6023559570312" x="2623.876953125" id="rel48" class="er relationshipLabel">definedUnitOfSystem</text><rect height="14" width="164.390625" y="632.2757568359375" x="2477.74462890625" class="er relationshipLabelBox"></rect><text style="text-anchor: middle; dominant-baseline: middle; font-size: 12px;" y="639.2757568359375" x="2559.93994140625" id="rel49" class="er relationshipLabel">derivedCoherentUnitOfSystem</text><rect height="14" width="115.15625" y="630.8617553710938" x="2439.51318359375" class="er relationshipLabelBox"></rect><text style="text-anchor: middle; dominant-baseline: middle; font-size: 12px;" y="637.8617553710938" x="2497.09130859375" id="rel50" class="er relationshipLabel">derivedUnitOfSystem</text><rect height="14" width="82.828125" y="629.4654541015625" x="2394.635986328125" class="er relationshipLabelBox"></rect><text style="text-anchor: middle; dominant-baseline: middle; font-size: 12px;" y="636.4654541015625" x="2436.050048828125" id="rel51" class="er relationshipLabel">isUnitOfSystem</text><rect height="14" width="57.078125" y="621.2759399414062" x="1036.650390625" class="er relationshipLabelBox"></rect><text style="text-anchor: middle; dominant-baseline: middle; font-size: 12px;" y="628.2759399414062" x="1065.189453125" id="rel52" class="er relationshipLabel">ucumCode</text><rect height="14" width="61.453125" y="575.5000610351562" x="2594.59033203125" class="er relationshipLabelBox"></rect><text style="text-anchor: middle; dominant-baseline: middle; font-size: 12px;" y="582.5000610351562" x="2625.31689453125" id="rel53" class="er relationshipLabel">exactMatch</text><rect height="14" width="99.0927734375" y="575.5000610351562" x="2679.65966796875" class="er relationshipLabelBox"></rect><text style="text-anchor: middle; dominant-baseline: middle; font-size: 12px;" y="582.5000610351562" x="2729.2060546875" id="rel54" class="er relationshipLabel">hasReciprocalUnit</text><rect height="14" width="51.104248046875" y="575.5" x="2807.5428466796875" class="er relationshipLabelBox"></rect><text style="text-anchor: middle; dominant-baseline: middle; font-size: 12px;" y="582.5" x="2833.094970703125" id="rel55" class="er relationshipLabel">scalingOf</text><rect height="14" width="75.6324462890625" y="621.249267578125" x="1313.1419067382812" class="er relationshipLabelBox"></rect><text style="text-anchor: middle; dominant-baseline: middle; font-size: 12px;" y="628.249267578125" x="1350.9581298828125" id="rel56" class="er relationshipLabel">hasFactorUnit</text></svg>