<svg aria-roledescription="er" role="graphics-document document" viewBox="0 0 1199.39013671875 640" height="640" xmlns="http://www.w3.org/2000/svg" width="1199.39013671875" id="container"><style>#container{font-family:"trebuchet ms",verdana,arial,sans-serif;font-size:16px;fill:#333;}#container .error-icon{fill:#552222;}#container .error-text{fill:#552222;stroke:#552222;}#container .edge-thickness-normal{stroke-width:1px;}#container .edge-thickness-thick{stroke-width:3.5px;}#container .edge-pattern-solid{stroke-dasharray:0;}#container .edge-thickness-invisible{stroke-width:0;fill:none;}#container .edge-pattern-dashed{stroke-dasharray:3;}#container .edge-pattern-dotted{stroke-dasharray:2;}#container .marker{fill:#333333;stroke:#333333;}#container .marker.cross{stroke:#333333;}#container svg{font-family:"trebuchet ms",verdana,arial,sans-serif;font-size:16px;}#container p{margin:0;}#container .entityBox{fill:#ECECFF;stroke:#9370DB;}#container .attributeBoxOdd{fill:#ffffff;stroke:#9370DB;}#container .attributeBoxEven{fill:#f2f2f2;stroke:#9370DB;}#container .relationshipLabelBox{fill:hsl(80, 100%, 96.2745098039%);opacity:0.7;background-color:hsl(80, 100%, 96.2745098039%);}#container .relationshipLabelBox rect{opacity:0.5;}#container .relationshipLine{stroke:#333333;}#container .entityTitleText{text-anchor:middle;font-size:18px;fill:#333;}#container #MD_PARENT_START{fill:#f5f5f5!important;stroke:#333333!important;stroke-width:1;}#container #MD_PARENT_END{fill:#f5f5f5!important;stroke:#333333!important;stroke-width:1;}#container :root{--mermaid-font-family:"trebuchet ms",verdana,arial,sans-serif;}</style><g></g><defs><marker orient="auto" markerHeight="240" markerWidth="190" refY="7" refX="0" id="MD_PARENT_START"><path d="M 18,7 L9,13 L1,7 L9,1 Z"></path></marker></defs><defs><marker orient="auto" markerHeight="28" markerWidth="20" refY="7" refX="19" id="MD_PARENT_END"><path d="M 18,7 L9,13 L1,7 L9,1 Z"></path></marker></defs><defs><marker orient="auto" markerHeight="18" markerWidth="18" refY="9" refX="0" id="ONLY_ONE_START"><path d="M9,0 L9,18 M15,0 L15,18" fill="none" stroke="gray"></path></marker></defs><defs><marker orient="auto" markerHeight="18" markerWidth="18" refY="9" refX="18" id="ONLY_ONE_END"><path d="M3,0 L3,18 M9,0 L9,18" fill="none" stroke="gray"></path></marker></defs><defs><marker orient="auto" markerHeight="18" markerWidth="30" refY="9" refX="0" id="ZERO_OR_ONE_START"><circle r="6" cy="9" cx="21" fill="white" stroke="gray"></circle><path d="M9,0 L9,18" fill="none" stroke="gray"></path></marker></defs><defs><marker orient="auto" markerHeight="18" markerWidth="30" refY="9" refX="30" id="ZERO_OR_ONE_END"><circle r="6" cy="9" cx="9" fill="white" stroke="gray"></circle><path d="M21,0 L21,18" fill="none" stroke="gray"></path></marker></defs><defs><marker orient="auto" markerHeight="36" markerWidth="45" refY="18" refX="18" id="ONE_OR_MORE_START"><path d="M0,18 Q 18,0 36,18 Q 18,36 0,18 M42,9 L42,27" fill="none" stroke="gray"></path></marker></defs><defs><marker orient="auto" markerHeight="36" markerWidth="45" refY="18" refX="27" id="ONE_OR_MORE_END"><path d="M3,9 L3,27 M9,18 Q27,0 45,18 Q27,36 9,18" fill="none" stroke="gray"></path></marker></defs><defs><marker orient="auto" markerHeight="36" markerWidth="57" refY="18" refX="18" id="ZERO_OR_MORE_START"><circle r="6" cy="18" cx="48" fill="white" stroke="gray"></circle><path d="M0,18 Q18,0 36,18 Q18,36 0,18" fill="none" stroke="gray"></path></marker></defs><defs><marker orient="auto" markerHeight="36" markerWidth="57" refY="18" refX="39" id="ZERO_OR_MORE_END"><circle r="6" cy="18" cx="9" fill="white" stroke="gray"></circle><path d="M21,18 Q39,0 57,18 Q39,36 21,18" fill="none" stroke="gray"></path></marker></defs><path style="stroke: gray; fill: none;" marker-start="url(#ONLY_ONE_START)" marker-end="url(#ZERO_OR_ONE_END)" d="M708.964,66.595L636.129,79.663C563.294,92.73,417.623,118.865,359.029,140.266C300.434,161.667,328.915,178.333,343.155,186.667L357.396,195" class="er relationshipLine"></path><path style="stroke: gray; fill: none;" marker-start="url(#ONLY_ONE_START)" marker-end="url(#ZERO_OR_ONE_END)" d="M708.964,68.941L652.796,81.618C596.627,94.294,484.29,119.647,432.838,140.657C381.386,161.667,390.82,178.333,395.536,186.667L400.253,195" class="er relationshipLine"></path><path style="stroke: gray; fill: none;" marker-start="url(#ONLY_ONE_START)" marker-end="url(#ZERO_OR_ONE_END)" d="M708.964,63.95L602.796,77.458C496.627,90.967,284.29,117.983,182.884,139.825C81.477,161.667,91.001,178.333,95.763,186.667L100.525,195" class="er relationshipLine"></path><path style="stroke: gray; fill: none;" marker-start="url(#ONLY_ONE_START)" marker-end="url(#ZERO_OR_MORE_END)" d="M810.355,41.749L822.021,38.124C833.688,34.499,857.021,27.25,871.605,23.625C886.188,20,892.021,20,897.855,26.25C903.688,32.5,909.521,45,909.521,57.5C909.521,70,903.688,82.5,897.855,88.75C892.021,95,886.188,95,871.605,91.375C857.021,87.75,833.688,80.501,822.021,76.876L810.355,73.251" class="er relationshipLine"></path><path style="stroke: gray; fill: none;" marker-start="url(#ONLY_ONE_START)" marker-end="url(#ZERO_OR_MORE_END)" d="M708.964,75.277L675.826,86.898C642.688,98.518,576.411,121.759,534.829,141.713C493.248,161.667,476.361,178.333,467.917,186.667L459.474,195" class="er relationshipLine"></path><path style="stroke: gray; fill: none;" marker-start="url(#ONLY_ONE_START)" marker-end="url(#ZERO_OR_MORE_END)" d="M733.369,95L727.527,103.333C721.685,111.667,710.001,128.333,704.158,145C698.316,161.667,698.316,178.333,698.316,186.667L698.316,195" class="er relationshipLine"></path><path style="stroke: gray; fill: none;" marker-start="url(#ONLY_ONE_START)" marker-end="url(#ZERO_OR_MORE_END)" d="M776.227,95L779.908,103.333C783.59,111.667,790.953,128.333,815.631,147.106C840.308,165.88,882.3,186.759,903.297,197.199L924.293,207.639" class="er relationshipLine"></path><path style="stroke: gray; fill: none;" marker-start="url(#ONLY_ONE_START)" marker-end="url(#ZERO_OR_MORE_END)" d="M810.355,89.492L825.015,98.743C839.675,107.994,868.996,126.497,890.892,144.082C912.788,161.667,927.26,178.333,934.495,186.667L941.731,195" class="er relationshipLine"></path><path style="stroke: gray; fill: none;" marker-start="url(#ONLY_ONE_START)" marker-end="url(#ZERO_OR_MORE_END)" d="M810.355,76.087L841.682,87.572C873.009,99.058,935.662,122.029,964.701,141.848C993.74,161.667,989.164,178.333,986.876,186.667L984.588,195" class="er relationshipLine"></path><path style="stroke: gray; fill: none;" marker-start="url(#ONLY_ONE_START)" marker-end="url(#ZERO_OR_MORE_END)" d="M810.355,70.598L858.348,82.999C906.342,95.399,1002.329,120.199,1037.985,141.304C1073.642,162.408,1048.967,179.816,1036.63,188.52L1024.293,197.224" class="er relationshipLine"></path><path style="stroke: gray; fill: none;" marker-start="url(#ONLY_ONE_START)" marker-end="url(#ZERO_OR_MORE_END)" d="M810.355,67.612L875.015,80.51C939.675,93.408,1068.996,119.204,1104.652,143.431C1140.308,167.657,1082.3,190.314,1053.297,201.642L1024.293,212.971" class="er relationshipLine"></path><path style="stroke: gray; fill: none;" marker-start="url(#ONLY_ONE_START)" marker-end="url(#ZERO_OR_MORE_END)" d="M810.355,65.735L891.682,78.946C973.009,92.157,1135.662,118.578,1171.319,144.122C1206.975,169.666,1115.634,194.332,1069.963,206.665L1024.293,218.998" class="er relationshipLine"></path><path style="stroke: gray; fill: none;" marker-start="url(#ONLY_ONE_START)" marker-end="url(#ZERO_OR_MORE_END)" d="M143.382,195L148.144,186.667C152.906,178.333,162.429,161.667,256.693,140.008C350.957,118.349,529.96,91.698,619.462,78.373L708.964,65.048" class="er relationshipLine"></path><path style="stroke: gray; fill: none;" marker-start="url(#ONLY_ONE_START)" marker-end="url(#ZERO_OR_MORE_END)" d="M121.953,270L121.953,278.333C121.953,286.667,121.953,303.333,121.953,320C121.953,336.667,121.953,353.333,121.953,361.667L121.953,370" class="er relationshipLine"></path><path style="stroke: gray; fill: none;" marker-start="url(#ONLY_ONE_START)" marker-end="url(#ZERO_OR_MORE_END)" d="M121.953,445L121.953,453.333C121.953,461.667,121.953,478.333,121.953,495C121.953,511.667,121.953,528.333,121.953,536.667L121.953,545" class="er relationshipLine"></path><g transform="translate(708.9641304016113,20 )" id="entity-QuantityKind-6f79b338-e354-5d95-8035-8883644476ff"><rect height="75" width="101.390625" y="0" x="0" class="er entityBox"></rect><text style="dominant-baseline: middle; text-anchor: middle; font-size: 12px;" transform="translate(50.6953125,37.5)" y="0" x="0" id="text-entity-QuantityKind-6f79b338-e354-5d95-8035-8883644476ff" class="er entityLabel">QuantityKind</text></g><g transform="translate(20,195 )" id="entity-QuantityKindDimensionVectorSI-2681a9c0-d385-5c75-b278-85a805bca5b5"><rect height="75" width="203.90625" y="0" x="0" class="er entityBox"></rect><text style="dominant-baseline: middle; text-anchor: middle; font-size: 12px;" transform="translate(101.953125,37.5)" y="0" x="0" id="text-entity-QuantityKindDimensionVectorSI-2681a9c0-d385-5c75-b278-85a805bca5b5" class="er entityLabel">QuantityKindDimensionVectorSI</text></g><g transform="translate(71.953125,370 )" id="entity-Rule-886caf8e-59ff-5db3-a492-27242971196f"><rect height="75" width="100" y="0" x="0" class="er entityBox"></rect><text style="dominant-baseline: middle; text-anchor: middle; font-size: 12px;" transform="translate(50,37.5)" y="0" x="0" id="text-entity-Rule-886caf8e-59ff-5db3-a492-27242971196f" class="er entityLabel">Rule</text></g><g transform="translate(324.3814163208008,195 )" id="entity-QuantityKindDimensionVector-bfa1bf26-fcae-516f-8f63-2f454f3dac1b"><rect height="75" width="194.19308471679688" y="0" x="0" class="er entityBox"></rect><text style="dominant-baseline: middle; text-anchor: middle; font-size: 12px;" transform="translate(97.09654235839844,37.5)" y="0" x="0" id="text-entity-QuantityKindDimensionVector-bfa1bf26-fcae-516f-8f63-2f454f3dac1b" class="er entityLabel">QuantityKindDimensionVector</text></g><g transform="translate(619.0496673583984,195 )" id="entity-SystemOfQuantityKinds-09c2a533-d4ff-5ffb-9642-53498359216a"><rect height="75" width="158.53285217285156" y="0" x="0" class="er entityBox"></rect><text style="dominant-baseline: middle; text-anchor: middle; font-size: 12px;" transform="translate(79.26642608642578,37.5)" y="0" x="0" id="text-entity-SystemOfQuantityKinds-09c2a533-d4ff-5ffb-9642-53498359216a" class="er entityLabel">SystemOfQuantityKinds</text></g><g transform="translate(924.2926559448242,195 )" id="entity-Unit-c57ac1ea-0a24-509a-a80e-23f8c03ca739"><rect height="75" width="100" y="0" x="0" class="er entityBox"></rect><text style="dominant-baseline: middle; text-anchor: middle; font-size: 12px;" transform="translate(50,37.5)" y="0" x="0" id="text-entity-Unit-c57ac1ea-0a24-509a-a80e-23f8c03ca739" class="er entityLabel">Unit</text></g><g transform="translate(71.953125,545 )" id="entity-RuleType-d54df1a6-a17d-5920-9344-6f805c739e55"><rect height="75" width="100" y="0" x="0" class="er entityBox"></rect><text style="dominant-baseline: middle; text-anchor: middle; font-size: 12px;" transform="translate(50,37.5)" y="0" x="0" id="text-entity-RuleType-d54df1a6-a17d-5920-9344-6f805c739e55" class="er entityLabel">RuleType</text></g><rect height="14" width="97.9886474609375" y="100.74256134033203" x="438.8594970703125" class="er relationshipLabelBox"></rect><text style="text-anchor: middle; dominant-baseline: middle; font-size: 12px;" y="107.74256134033203" x="487.85382080078125" id="rel1" class="er relationshipLabel">qkdvDenominator</text><rect height="14" width="85.19659423828125" y="103.36235809326172" x="489.2788391113281" class="er relationshipLabelBox"></rect><text style="text-anchor: middle; dominant-baseline: middle; font-size: 12px;" y="110.36235809326172" x="531.8771362304688" id="rel2" class="er relationshipLabel">qkdvNumerator</text><rect height="14" width="119.078125" y="99.20181274414062" x="326.68359375" class="er relationshipLabelBox"></rect><text style="text-anchor: middle; dominant-baseline: middle; font-size: 12px;" y="106.20181274414062" x="386.22265625" id="rel3" class="er relationshipLabel">dimensionVectorForSI</text><rect height="14" width="61.453125" y="50.50000762939453" x="878.79443359375" class="er relationshipLabelBox"></rect><text style="text-anchor: middle; dominant-baseline: middle; font-size: 12px;" y="57.50000762939453" x="909.52099609375" id="rel4" class="er relationshipLabel">exactMatch</text><rect height="13.999992370605469" width="111.84869384765625" y="116.11124801635742" x="521.8298645019531" class="er relationshipLabelBox"></rect><text style="text-anchor: middle; dominant-baseline: middle; font-size: 12px;" y="123.11124420166016" x="577.7542114257812" id="rel5" class="er relationshipLabel">hasDimensionVector</text><rect height="14" width="163.4290771484375" y="134.49827575683594" x="623.7542114257812" class="er relationshipLabelBox"></rect><text style="text-anchor: middle; dominant-baseline: middle; font-size: 12px;" y="141.49827575683594" x="705.46875" id="rel6" class="er relationshipLabel">belongsToSystemOfQuantities</text><rect height="14" width="100.9046630859375" y="156.25575256347656" x="789.4039916992188" class="er relationshipLabelBox"></rect><text style="text-anchor: middle; dominant-baseline: middle; font-size: 12px;" y="163.25575256347656" x="839.8563232421875" id="rel7" class="er relationshipLabel">applicableCGSUnit</text><rect height="14" width="98.6966552734375" y="129.35308837890625" x="831.5468139648438" class="er relationshipLabelBox"></rect><text style="text-anchor: middle; dominant-baseline: middle; font-size: 12px;" y="136.35308837890625" x="880.8951416015625" id="rel8" class="er relationshipLabel">applicableISOUnit</text><rect height="14" width="125.74481201171875" y="110.58435821533203" x="855.2176818847656" class="er relationshipLabelBox"></rect><text style="text-anchor: middle; dominant-baseline: middle; font-size: 12px;" y="117.58435821533203" x="918.090087890625" id="rel9" class="er relationshipLabel">applicableImperialUnit</text><rect height="14" width="90.392578125" y="105.14254760742188" x="918.2173461914062" class="er relationshipLabelBox"></rect><text style="text-anchor: middle; dominant-baseline: middle; font-size: 12px;" y="112.14254760742188" x="963.4136352539062" id="rel10" class="er relationshipLabel">applicableSIUnit</text><rect height="14" width="152.3250732421875" y="106.3921890258789" x="946.645263671875" class="er relationshipLabelBox"></rect><text style="text-anchor: middle; dominant-baseline: middle; font-size: 12px;" y="113.3921890258789" x="1022.8078002929688" id="rel11" class="er relationshipLabel">applicableUSCustomaryUnit</text><rect height="14" width="80.3125" y="107.79000854492188" x="1044.3592529296875" class="er relationshipLabelBox"></rect><text style="text-anchor: middle; dominant-baseline: middle; font-size: 12px;" y="114.79000854492188" x="1084.5155029296875" id="rel12" class="er relationshipLabel">applicableUnit</text><rect height="14" width="144.375" y="102.6627197265625" x="345.8155822753906" class="er relationshipLabelBox"></rect><text style="text-anchor: middle; dominant-baseline: middle; font-size: 12px;" y="109.6627197265625" x="418.0030822753906" id="rel13" class="er relationshipLabel">hasReferenceQuantityKind</text><rect height="14" width="43.296875" y="313" x="100.3045654296875" class="er relationshipLabelBox"></rect><text style="text-anchor: middle; dominant-baseline: middle; font-size: 12px;" y="320" x="121.9530029296875" id="rel14" class="er relationshipLabel">hasRule</text><rect height="14" width="46.921875" y="488" x="98.4920654296875" class="er relationshipLabelBox"></rect><text style="text-anchor: middle; dominant-baseline: middle; font-size: 12px;" y="495" x="121.9530029296875" id="rel15" class="er relationshipLabel">ruleType</text></svg>