<svg xmlns="http://www.w3.org/2000/svg" xmlns:ns1="http://www.w3.org/1999/xlink" aria-roledescription="er" role="graphics-document document" viewBox="0 0 672.0390625 815" height="815" width="672.0390625" id="container"><style>#container{font-family:"trebuchet ms",verdana,arial,sans-serif;font-size:16px;fill:#333;}#container .error-icon{fill:#552222;}#container .error-text{fill:#552222;stroke:#552222;}#container .edge-thickness-normal{stroke-width:1px;}#container .edge-thickness-thick{stroke-width:3.5px;}#container .edge-pattern-solid{stroke-dasharray:0;}#container .edge-thickness-invisible{stroke-width:0;fill:none;}#container .edge-pattern-dashed{stroke-dasharray:3;}#container .edge-pattern-dotted{stroke-dasharray:2;}#container .marker{fill:#333333;stroke:#333333;}#container .marker.cross{stroke:#333333;}#container svg{font-family:"trebuchet ms",verdana,arial,sans-serif;font-size:16px;}#container p{margin:0;}#container .entityBox{fill:#ECECFF;stroke:#9370DB;}#container .attributeBoxOdd{fill:#ffffff;stroke:#9370DB;}#container .attributeBoxEven{fill:#f2f2f2;stroke:#9370DB;}#container .relationshipLabelBox{fill:hsl(80, 100%, 96.2745098039%);opacity:0.7;background-color:hsl(80, 100%, 96.2745098039%);}#container .relationshipLabelBox rect{opacity:0.5;}#container .relationshipLine{stroke:#333333;}#container .entityTitleText{text-anchor:middle;font-size:18px;fill:#333;}#container #MD_PARENT_START{fill:#f5f5f5!important;stroke:#333333!important;stroke-width:1;}#container #MD_PARENT_END{fill:#f5f5f5!important;stroke:#333333!important;stroke-width:1;}#container :root{--mermaid-font-family:"trebuchet ms",verdana,arial,sans-serif;}</style><g /><defs><marker orient="auto" markerHeight="240" markerWidth="190" refY="7" refX="0" id="MD_PARENT_START"><path d="M 18,7 L9,13 L1,7 L9,1 Z" /></marker></defs><defs><marker orient="auto" markerHeight="28" markerWidth="20" refY="7" refX="19" id="MD_PARENT_END"><path d="M 18,7 L9,13 L1,7 L9,1 Z" /></marker></defs><defs><marker orient="auto" markerHeight="18" markerWidth="18" refY="9" refX="0" id="ONLY_ONE_START"><path d="M9,0 L9,18 M15,0 L15,18" fill="none" stroke="gray" /></marker></defs><defs><marker orient="auto" markerHeight="18" markerWidth="18" refY="9" refX="18" id="ONLY_ONE_END"><path d="M3,0 L3,18 M9,0 L9,18" fill="none" stroke="gray" /></marker></defs><defs><marker orient="auto" markerHeight="18" markerWidth="30" refY="9" refX="0" id="ZERO_OR_ONE_START"><circle r="6" cy="9" cx="21" fill="white" stroke="gray" /><path d="M9,0 L9,18" fill="none" stroke="gray" /></marker></defs><defs><marker orient="auto" markerHeight="18" markerWidth="30" refY="9" refX="30" id="ZERO_OR_ONE_END"><circle r="6" cy="9" cx="9" fill="white" stroke="gray" /><path d="M21,0 L21,18" fill="none" stroke="gray" /></marker></defs><defs><marker orient="auto" markerHeight="36" markerWidth="45" refY="18" refX="18" id="ONE_OR_MORE_START"><path d="M0,18 Q 18,0 36,18 Q 18,36 0,18 M42,9 L42,27" fill="none" stroke="gray" /></marker></defs><defs><marker orient="auto" markerHeight="36" markerWidth="45" refY="18" refX="27" id="ONE_OR_MORE_END"><path d="M3,9 L3,27 M9,18 Q27,0 45,18 Q27,36 9,18" fill="none" stroke="gray" /></marker></defs><defs><marker orient="auto" markerHeight="36" markerWidth="57" refY="18" refX="18" id="ZERO_OR_MORE_START"><circle r="6" cy="18" cx="48" fill="white" stroke="gray" /><path d="M0,18 Q18,0 36,18 Q18,36 0,18" fill="none" stroke="gray" /></marker></defs><defs><marker orient="auto" markerHeight="36" markerWidth="57" refY="18" refX="39" id="ZERO_OR_MORE_END"><circle r="6" cy="18" cx="9" fill="white" stroke="gray" /><path d="M21,18 Q39,0 57,18 Q39,36 21,18" fill="none" stroke="gray" /></marker></defs><path style="stroke: gray; fill: none;" marker-start="url(#ONLY_ONE_START)" marker-end="url(#ZERO_OR_ONE_END)" d="M341.635,95L348.778,103.333C355.921,111.667,370.206,128.333,377.349,145C384.492,161.667,384.492,178.333,384.492,186.667L384.492,195" class="er relationshipLine" /><path style="stroke: gray; fill: none;" marker-start="url(#ONLY_ONE_START)" marker-end="url(#ZERO_OR_MORE_END)" d="M373.594,82.428L400.41,92.857C427.227,103.286,480.859,124.143,507.676,149.155C534.492,174.167,534.492,203.333,534.492,232.5C534.492,261.667,534.492,290.833,539.254,313.75C544.016,336.667,553.54,353.333,558.302,361.667L563.064,370" class="er relationshipLine" /><path style="stroke: gray; fill: none;" marker-start="url(#ONLY_ONE_START)" marker-end="url(#ZERO_OR_MORE_END)" d="M245.391,85.186L222.31,95.155C199.229,105.124,153.068,125.062,129.987,149.614C106.906,174.167,106.906,203.333,106.906,232.5C106.906,261.667,106.906,290.833,106.906,320C106.906,349.167,106.906,378.333,106.906,407.5C106.906,436.667,106.906,465.833,153.171,492.774C199.435,519.715,291.964,544.43,338.228,556.787L384.492,569.145" class="er relationshipLine" /><path style="stroke: gray; fill: none;" marker-start="url(#ONLY_ONE_START)" marker-end="url(#ZERO_OR_MORE_END)" d="M277.349,95L270.206,103.333C263.064,111.667,248.778,128.333,241.635,151.25C234.492,174.167,234.492,203.333,234.492,232.5C234.492,261.667,234.492,290.833,242.74,313.75C250.988,336.667,267.483,353.333,275.731,361.667L283.979,370" class="er relationshipLine" /><path style="stroke: gray; fill: none;" marker-start="url(#ONLY_ONE_START)" marker-end="url(#ZERO_OR_MORE_END)" d="M584.492,445L584.492,453.333C584.492,461.667,584.492,478.333,567.826,496.389C551.159,514.444,517.826,533.889,501.159,543.611L484.492,553.333" class="er relationshipLine" /><path style="stroke: gray; fill: none;" marker-start="url(#ONLY_ONE_START)" marker-end="url(#ZERO_OR_MORE_END)" d="M434.492,620L434.492,628.333C434.492,636.667,434.492,653.333,434.492,670C434.492,686.667,434.492,703.333,434.492,711.667L434.492,720" class="er relationshipLine" /><path style="stroke: gray; fill: none;" marker-start="url(#ONLY_ONE_START)" marker-end="url(#ZERO_OR_MORE_END)" d="M434.492,250L467.826,261.667C501.159,273.333,567.826,296.667,596.397,316.667C624.968,336.667,615.445,353.333,610.683,361.667L605.921,370" class="er relationshipLine" /><path style="stroke: gray; fill: none;" marker-start="url(#ONLY_ONE_START)" marker-end="url(#ZERO_OR_MORE_END)" d="M384.492,270L384.492,278.333C384.492,286.667,384.492,303.333,378.454,320C372.416,336.667,360.34,353.333,354.302,361.667L348.265,370" class="er relationshipLine" /><g transform="translate(20,20 )" id="entity-EnumeratedValue-933d25dc-a4b0-559c-ba2b-998cca51206b"><rect height="75" width="125.390625" y="0" x="0" class="er entityBox" /><a ns1:href="#enumeratedvalue"><text style="dominant-baseline: middle; text-anchor: middle; font-size: 12px;" transform="translate(62.6953125,37.5)" y="0" x="0" id="text-entity-EnumeratedValue-933d25dc-a4b0-559c-ba2b-998cca51206b" class="er entityLabel">EnumeratedValue</text></a></g><g transform="translate(245.390625,20 )" id="entity-EnumerationScale-979d80e5-a151-5ebb-8392-1b475db7ac90"><rect height="75" width="128.203125" y="0" x="0" class="er entityBox" /><a ns1:href="#enumerationscale"><text style="dominant-baseline: middle; text-anchor: middle; font-size: 12px;" transform="translate(64.1015625,37.5)" y="0" x="0" id="text-entity-EnumerationScale-979d80e5-a151-5ebb-8392-1b475db7ac90" class="er entityLabel">EnumerationScale</text></a></g><g transform="translate(516.9453125,370 )" id="entity-MathsFunctionType-e1643f39-b492-5bab-8326-d54da4e9002b"><rect height="75" width="135.09375" y="0" x="0" class="er entityBox" /><a ns1:href="#mathsfunctiontype"><text style="dominant-baseline: middle; text-anchor: middle; font-size: 12px;" transform="translate(67.546875,37.5)" y="0" x="0" id="text-entity-MathsFunctionType-e1643f39-b492-5bab-8326-d54da4e9002b" class="er entityLabel">MathsFunctionType</text></a></g><g transform="translate(384.4921875,545 )" id="entity-Rule-886caf8e-59ff-5db3-a492-27242971196f"><rect height="75" width="100" y="0" x="0" class="er entityBox" /><a ns1:href="#rule"><text style="dominant-baseline: middle; text-anchor: middle; font-size: 12px;" transform="translate(50,37.5)" y="0" x="0" id="text-entity-Rule-886caf8e-59ff-5db3-a492-27242971196f" class="er entityLabel">Rule</text></a></g><g transform="translate(334.4921875,195 )" id="entity-ScaleType-0d000408-743d-5053-b1d6-3f5ee6730e6d"><rect height="75" width="100" y="0" x="0" class="er entityBox" /><a ns1:href="#scaletype"><text style="dominant-baseline: middle; text-anchor: middle; font-size: 12px;" transform="translate(50,37.5)" y="0" x="0" id="text-entity-ScaleType-0d000408-743d-5053-b1d6-3f5ee6730e6d" class="er entityLabel">ScaleType</text></a></g><g transform="translate(265.921875,370 )" id="entity-TransformType-dbdd87a4-f4d5-5cb6-abdd-17a28eb5d3af"><rect height="75" width="110.34375" y="0" x="0" class="er entityBox" /><a ns1:href="#transformtype"><text style="dominant-baseline: middle; text-anchor: middle; font-size: 12px;" transform="translate(55.171875,37.5)" y="0" x="0" id="text-entity-TransformType-dbdd87a4-f4d5-5cb6-abdd-17a28eb5d3af" class="er entityLabel">TransformType</text></a></g><g transform="translate(384.4921875,720 )" id="entity-RuleType-d54df1a6-a17d-5920-9344-6f805c739e55"><rect height="75" width="100" y="0" x="0" class="er entityBox" /><a ns1:href="#ruletype"><text style="dominant-baseline: middle; text-anchor: middle; font-size: 12px;" transform="translate(50,37.5)" y="0" x="0" id="text-entity-RuleType-d54df1a6-a17d-5920-9344-6f805c739e55" class="er entityLabel">RuleType</text></a></g><rect height="14" width="52.921875" y="133.12579345703125" x="348.6045227050781" class="er relationshipLabelBox" /><text style="text-anchor: middle; dominant-baseline: middle; font-size: 12px;" y="140.12579345703125" x="375.0654602050781" id="rel1" class="er relationshipLabel">scaleType</text><rect height="14" width="96.7926025390625" y="176.7985076904297" x="481.2548828125" class="er relationshipLabelBox" /><text style="text-anchor: middle; dominant-baseline: middle; font-size: 12px;" y="183.7985076904297" x="529.6511840820312" id="rel2" class="er relationshipLabel">permissibleMaths</text><rect height="14" width="43.296875" y="376.0539855957031" x="85.25756072998047" class="er relationshipLabelBox" /><text style="text-anchor: middle; dominant-baseline: middle; font-size: 12px;" y="383.0539855957031" x="106.90599822998047" id="rel3" class="er relationshipLabel">hasRule</text><rect height="14" width="146.90625" y="227.20660400390625" x="161.0395050048828" class="er relationshipLabelBox" /><text style="text-anchor: middle; dominant-baseline: middle; font-size: 12px;" y="234.20660400390625" x="234.4926300048828" id="rel4" class="er relationshipLabel">permissibleTransformation</text><rect height="14.000030517578125" width="43.296875" y="504.4766387939453" x="529.19873046875" class="er relationshipLabelBox" /><text style="text-anchor: middle; dominant-baseline: middle; font-size: 12px;" y="511.4766540527344" x="550.84716796875" id="rel5" class="er relationshipLabel">hasRule</text><rect height="14" width="46.921875" y="663" x="411.03106689453125" class="er relationshipLabelBox" /><text style="text-anchor: middle; dominant-baseline: middle; font-size: 12px;" y="670" x="434.49200439453125" id="rel6" class="er relationshipLabel">ruleType</text><rect height="14" width="96.7926025390625" y="284.2083740234375" x="498.06658935546875" class="er relationshipLabelBox" /><text style="text-anchor: middle; dominant-baseline: middle; font-size: 12px;" y="291.2083740234375" x="546.462890625" id="rel7" class="er relationshipLabel">permissibleMaths</text><rect height="14" width="146.90625" y="316.7027282714844" x="303.56341552734375" class="er relationshipLabelBox" /><text style="text-anchor: middle; dominant-baseline: middle; font-size: 12px;" y="323.7027282714844" x="377.01654052734375" id="rel8" class="er relationshipLabel">permissibleTransformation</text></svg>