<svg xmlns="http://www.w3.org/2000/svg" xmlns:ns1="http://www.w3.org/1999/xlink" aria-roledescription="er" role="graphics-document document" viewBox="-109.88818359375 0 1247.4200439453125 640" height="640" width="1247.4200439453125" id="container"><style>#container{font-family:"trebuchet ms",verdana,arial,sans-serif;font-size:16px;fill:#333;}#container .error-icon{fill:#552222;}#container .error-text{fill:#552222;stroke:#552222;}#container .edge-thickness-normal{stroke-width:1px;}#container .edge-thickness-thick{stroke-width:3.5px;}#container .edge-pattern-solid{stroke-dasharray:0;}#container .edge-thickness-invisible{stroke-width:0;fill:none;}#container .edge-pattern-dashed{stroke-dasharray:3;}#container .edge-pattern-dotted{stroke-dasharray:2;}#container .marker{fill:#333333;stroke:#333333;}#container .marker.cross{stroke:#333333;}#container svg{font-family:"trebuchet ms",verdana,arial,sans-serif;font-size:16px;}#container p{margin:0;}#container .entityBox{fill:#ECECFF;stroke:#9370DB;}#container .attributeBoxOdd{fill:#ffffff;stroke:#9370DB;}#container .attributeBoxEven{fill:#f2f2f2;stroke:#9370DB;}#container .relationshipLabelBox{fill:hsl(80, 100%, 96.2745098039%);opacity:0.7;background-color:hsl(80, 100%, 96.2745098039%);}#container .relationshipLabelBox rect{opacity:0.5;}#container .relationshipLine{stroke:#333333;}#container .entityTitleText{text-anchor:middle;font-size:18px;fill:#333;}#container #MD_PARENT_START{fill:#f5f5f5!important;stroke:#333333!important;stroke-width:1;}#container #MD_PARENT_END{fill:#f5f5f5!important;stroke:#333333!important;stroke-width:1;}#container :root{--mermaid-font-family:"trebuchet ms",verdana,arial,sans-serif;}</style><g /><defs><marker orient="auto" markerHeight="240" markerWidth="190" refY="7" refX="0" id="MD_PARENT_START"><path d="M 18,7 L9,13 L1,7 L9,1 Z" /></marker></defs><defs><marker orient="auto" markerHeight="28" markerWidth="20" refY="7" refX="19" id="MD_PARENT_END"><path d="M 18,7 L9,13 L1,7 L9,1 Z" /></marker></defs><defs><marker orient="auto" markerHeight="18" markerWidth="18" refY="9" refX="0" id="ONLY_ONE_START"><path d="M9,0 L9,18 M15,0 L15,18" fill="none" stroke="gray" /></marker></defs><defs><marker orient="auto" markerHeight="18" markerWidth="18" refY="9" refX="18" id="ONLY_ONE_END"><path d="M3,0 L3,18 M9,0 L9,18" fill="none" stroke="gray" /></marker></defs><defs><marker orient="auto" markerHeight="18" markerWidth="30" refY="9" refX="0" id="ZERO_OR_ONE_START"><circle r="6" cy="9" cx="21" fill="white" stroke="gray" /><path d="M9,0 L9,18" fill="none" stroke="gray" /></marker></defs><defs><marker orient="auto" markerHeight="18" markerWidth="30" refY="9" refX="30" id="ZERO_OR_ONE_END"><circle r="6" cy="9" cx="9" fill="white" stroke="gray" /><path d="M21,0 L21,18" fill="none" stroke="gray" /></marker></defs><defs><marker orient="auto" markerHeight="36" markerWidth="45" refY="18" refX="18" id="ONE_OR_MORE_START"><path d="M0,18 Q 18,0 36,18 Q 18,36 0,18 M42,9 L42,27" fill="none" stroke="gray" /></marker></defs><defs><marker orient="auto" markerHeight="36" markerWidth="45" refY="18" refX="27" id="ONE_OR_MORE_END"><path d="M3,9 L3,27 M9,18 Q27,0 45,18 Q27,36 9,18" fill="none" stroke="gray" /></marker></defs><defs><marker orient="auto" markerHeight="36" markerWidth="57" refY="18" refX="18" id="ZERO_OR_MORE_START"><circle r="6" cy="18" cx="48" fill="white" stroke="gray" /><path d="M0,18 Q18,0 36,18 Q18,36 0,18" fill="none" stroke="gray" /></marker></defs><defs><marker orient="auto" markerHeight="36" markerWidth="57" refY="18" refX="39" id="ZERO_OR_MORE_END"><circle r="6" cy="18" cx="9" fill="white" stroke="gray" /><path d="M21,18 Q39,0 57,18 Q39,36 21,18" fill="none" stroke="gray" /></marker></defs><path style="stroke: gray; fill: none;" marker-start="url(#ONLY_ONE_START)" marker-end="url(#ZERO_OR_MORE_END)" d="M92.409,87.728L69.899,97.274C47.389,106.819,2.368,125.909,-20.142,150.038C-42.652,174.167,-42.652,203.333,-42.652,232.5C-42.652,261.667,-42.652,290.833,-30.714,313.75C-18.777,336.667,5.099,353.333,17.037,361.667L28.975,370" class="er relationshipLine" /><path style="stroke: gray; fill: none;" marker-start="url(#ONLY_ONE_START)" marker-end="url(#ZERO_OR_MORE_END)" d="M163.695,95L163.695,103.333C163.695,111.667,163.695,128.333,163.695,145C163.695,161.667,163.695,178.333,163.695,186.667L163.695,195" class="er relationshipLine" /><path style="stroke: gray; fill: none;" marker-start="url(#ONLY_ONE_START)" marker-end="url(#ZERO_OR_MORE_END)" d="M234.982,85.222L260.601,95.185C286.22,105.148,337.457,125.074,363.076,149.62C388.695,174.167,388.695,203.333,388.695,232.5C388.695,261.667,388.695,290.833,390.505,313.75C392.314,336.667,395.933,353.333,397.743,361.667L399.552,370" class="er relationshipLine" /><path style="stroke: gray; fill: none;" marker-start="url(#ONLY_ONE_START)" marker-end="url(#ZERO_OR_ONE_END)" d="M120.987,270L111.496,278.333C102.006,286.667,83.024,303.333,75.31,320C67.596,336.667,71.149,353.333,72.925,361.667L74.701,370" class="er relationshipLine" /><path style="stroke: gray; fill: none;" marker-start="url(#ONLY_ONE_START)" marker-end="url(#ZERO_OR_MORE_END)" d="M163.844,270L163.877,278.333C163.911,286.667,163.977,303.333,196.285,323.257C228.594,343.181,293.145,366.363,325.42,377.953L357.695,389.544" class="er relationshipLine" /><path style="stroke: gray; fill: none;" marker-start="url(#ONLY_ONE_START)" marker-end="url(#ONE_OR_MORE_END)" d="M206.701,270L216.258,278.333C225.815,286.667,244.929,303.333,234.711,321.208C224.492,339.083,184.941,358.166,165.166,367.708L145.391,377.25" class="er relationshipLine" /><path style="stroke: gray; fill: none;" marker-start="url(#ONLY_ONE_START)" marker-end="url(#ZERO_OR_MORE_END)" d="M407.695,445L407.695,453.333C407.695,461.667,407.695,478.333,407.695,495C407.695,511.667,407.695,528.333,407.695,536.667L407.695,545" class="er relationshipLine" /><path style="stroke: gray; fill: none;" marker-start="url(#ONLY_ONE_START)" marker-end="url(#ZERO_OR_ONE_END)" d="M634.429,88.326L610.14,97.772C585.851,107.217,537.273,126.109,467.151,147.894C397.029,169.679,305.362,194.359,259.529,206.699L213.695,219.038" class="er relationshipLine" /><path style="stroke: gray; fill: none;" marker-start="url(#ONLY_ONE_START)" marker-end="url(#ZERO_OR_MORE_END)" d="M660.124,95L648.219,103.333C636.314,111.667,612.505,128.333,611.984,145.037C611.464,161.741,634.232,178.483,645.616,186.853L657,195.224" class="er relationshipLine" /><path style="stroke: gray; fill: none;" marker-start="url(#ONLY_ONE_START)" marker-end="url(#ZERO_OR_MORE_END)" d="M702.981,95L700.6,103.333C698.219,111.667,693.457,128.333,692.886,145C692.314,161.667,695.933,178.333,697.743,186.667L699.552,195" class="er relationshipLine" /><path style="stroke: gray; fill: none;" marker-start="url(#ONLY_ONE_START)" marker-end="url(#ZERO_OR_MORE_END)" d="M745.838,95L752.981,103.333C760.124,111.667,774.41,128.333,773.838,145C773.267,161.667,757.838,178.333,750.124,186.667L742.41,195" class="er relationshipLine" /><path style="stroke: gray; fill: none;" marker-start="url(#ONLY_ONE_START)" marker-end="url(#ZERO_OR_MORE_END)" d="M792.962,93.252L812.084,101.876C831.206,110.501,869.451,127.751,888.573,150.959C907.695,174.167,907.695,203.333,907.695,232.5C907.695,261.667,907.695,290.833,832.695,318.542C757.695,346.25,607.695,372.5,532.695,385.625L457.695,398.75" class="er relationshipLine" /><path style="stroke: gray; fill: none;" marker-start="url(#ONLY_ONE_START)" marker-end="url(#ZERO_OR_MORE_END)" d="M792.962,77.378L837.904,88.648C882.846,99.919,972.73,122.459,1017.672,142.063C1062.614,161.667,1062.614,178.333,1062.614,186.667L1062.614,195" class="er relationshipLine" /><g transform="translate(92.408935546875,20 )" id="entity-EnumeratedQuantity-02a0fea0-4841-5d19-bad6-fad1312f97d5"><rect height="75" width="142.57275390625" y="0" x="0" class="er entityBox" /><a ns1:href="#enumeratedquantity"><text style="dominant-baseline: middle; text-anchor: middle; font-size: 12px;" transform="translate(71.286376953125,37.5)" y="0" x="0" id="text-entity-EnumeratedQuantity-02a0fea0-4841-5d19-bad6-fad1312f97d5" class="er entityLabel">EnumeratedQuantity</text></a></g><g transform="translate(20,370 )" id="entity-EnumeratedValue-933d25dc-a4b0-559c-ba2b-998cca51206b"><rect height="75" width="125.390625" y="0" x="0" class="er entityBox" /><a ns1:href="#enumeratedvalue"><text style="dominant-baseline: middle; text-anchor: middle; font-size: 12px;" transform="translate(62.6953125,37.5)" y="0" x="0" id="text-entity-EnumeratedValue-933d25dc-a4b0-559c-ba2b-998cca51206b" class="er entityLabel">EnumeratedValue</text></a></g><g transform="translate(113.6953125,195 )" id="entity-Enumeration-f9f59bb4-2616-549b-89c9-bf7c68943800"><rect height="75" width="100" y="0" x="0" class="er entityBox" /><a ns1:href="#enumeration"><text style="dominant-baseline: middle; text-anchor: middle; font-size: 12px;" transform="translate(50,37.5)" y="0" x="0" id="text-entity-Enumeration-f9f59bb4-2616-549b-89c9-bf7c68943800" class="er entityLabel">Enumeration</text></a></g><g transform="translate(357.6953125,370 )" id="entity-Rule-886caf8e-59ff-5db3-a492-27242971196f"><rect height="75" width="100" y="0" x="0" class="er entityBox" /><a ns1:href="#rule"><text style="dominant-baseline: middle; text-anchor: middle; font-size: 12px;" transform="translate(50,37.5)" y="0" x="0" id="text-entity-Rule-886caf8e-59ff-5db3-a492-27242971196f" class="er entityLabel">Rule</text></a></g><g transform="translate(634.4288864135742,20 )" id="entity-SystemOfQuantityKinds-09c2a533-d4ff-5ffb-9642-53498359216a"><rect height="75" width="158.53285217285156" y="0" x="0" class="er entityBox" /><a ns1:href="#systemofquantitykinds"><text style="dominant-baseline: middle; text-anchor: middle; font-size: 12px;" transform="translate(79.26642608642578,37.5)" y="0" x="0" id="text-entity-SystemOfQuantityKinds-09c2a533-d4ff-5ffb-9642-53498359216a" class="er entityLabel">SystemOfQuantityKinds</text></a></g><g transform="translate(357.6953125,545 )" id="entity-RuleType-d54df1a6-a17d-5920-9344-6f805c739e55"><rect height="75" width="100" y="0" x="0" class="er entityBox" /><a ns1:href="#ruletype"><text style="dominant-baseline: middle; text-anchor: middle; font-size: 12px;" transform="translate(50,37.5)" y="0" x="0" id="text-entity-RuleType-d54df1a6-a17d-5920-9344-6f805c739e55" class="er entityLabel">RuleType</text></a></g><g transform="translate(657,195 )" id="entity-QuantityKind-6f79b338-e354-5d95-8035-8883644476ff"><rect height="75" width="101.390625" y="0" x="0" class="er entityBox" /><a ns1:href="#quantitykind"><text style="dominant-baseline: middle; text-anchor: middle; font-size: 12px;" transform="translate(50.6953125,37.5)" y="0" x="0" id="text-entity-QuantityKind-6f79b338-e354-5d95-8035-8883644476ff" class="er entityLabel">QuantityKind</text></a></g><g transform="translate(1007.6953125,195 )" id="entity-SystemOfUnits-f7f1da8e-a5af-50e1-94d0-c2e741f40e1d"><rect height="75" width="109.83651733398438" y="0" x="0" class="er entityBox" /><a ns1:href="#systemofunits"><text style="dominant-baseline: middle; text-anchor: middle; font-size: 12px;" transform="translate(54.91825866699219,37.5)" y="0" x="0" id="text-entity-SystemOfUnits-f7f1da8e-a5af-50e1-94d0-c2e741f40e1d" class="er entityLabel">SystemOfUnits</text></a></g><rect height="14" width="95.640625" y="199.72723388671875" x="-89.88818359375" class="er relationshipLabelBox" /><text style="text-anchor: middle; dominant-baseline: middle; font-size: 12px;" y="206.72723388671875" x="-42.06787109375" id="rel1" class="er relationshipLabel">enumeratedValue</text><rect height="14" width="69.890625" y="138" x="128.74969482421875" class="er relationshipLabelBox" /><text style="text-anchor: middle; dominant-baseline: middle; font-size: 12px;" y="145" x="163.69500732421875" id="rel2" class="er relationshipLabel">enumeration</text><rect height="14" width="43.296875" y="178.0857696533203" x="362.76800537109375" class="er relationshipLabelBox" /><text style="text-anchor: middle; dominant-baseline: middle; font-size: 12px;" y="185.0857696533203" x="384.41644287109375" id="rel3" class="er relationshipLabel">hasRule</text><rect height="14" width="39.500244140625" y="305.52301025390625" x="59.72520446777344" class="er relationshipLabelBox" /><text style="text-anchor: middle; dominant-baseline: middle; font-size: 12px;" y="312.52301025390625" x="79.47532653808594" id="rel4" class="er relationshipLabel">default</text><rect height="14" width="43.296875" y="340.09527587890625" x="223.13880920410156" class="er relationshipLabelBox" /><text style="text-anchor: middle; dominant-baseline: middle; font-size: 12px;" y="347.09527587890625" x="244.78724670410156" id="rel5" class="er relationshipLabel">hasRule</text><rect height="14" width="45.39225769042969" y="329.54412841796875" x="197.25638580322266" class="er relationshipLabelBox" /><text style="text-anchor: middle; dominant-baseline: middle; font-size: 12px;" y="336.54412841796875" x="219.9525146484375" id="rel6" class="er relationshipLabel">element</text><rect height="14" width="46.921875" y="488" x="384.23406982421875" class="er relationshipLabelBox" /><text style="text-anchor: middle; dominant-baseline: middle; font-size: 12px;" y="495" x="407.69500732421875" id="rel7" class="er relationshipLabel">ruleType</text><rect height="14" width="153.203125" y="153.2722625732422" x="349.5511169433594" class="er relationshipLabelBox" /><text style="text-anchor: middle; dominant-baseline: middle; font-size: 12px;" y="160.2722625732422" x="426.1526794433594" id="rel8" class="er relationshipLabel">baseDimensionEnumeration</text><rect height="14" width="116.28125" y="137.115478515625" x="553.8958129882812" class="er relationshipLabelBox" /><text style="text-anchor: middle; dominant-baseline: middle; font-size: 12px;" y="144.115478515625" x="612.0364379882812" id="rel9" class="er relationshipLabel">hasBaseQuantityKind</text><rect height="14" width="90.4375" y="137.71910095214844" x="647.6774291992188" class="er relationshipLabelBox" /><text style="text-anchor: middle; dominant-baseline: middle; font-size: 12px;" y="144.71910095214844" x="692.8961791992188" id="rel10" class="er relationshipLabel">hasQuantityKind</text><rect height="14" width="151.046875" y="138.82321166992188" x="698.2742919921875" class="er relationshipLabelBox" /><text style="text-anchor: middle; dominant-baseline: middle; font-size: 12px;" y="145.82321166992188" x="773.7977294921875" id="rel11" class="er relationshipLabel">systemDerivedQuantityKind</text><rect height="14" width="43.296875" y="321.11212158203125" x="782.1356201171875" class="er relationshipLabelBox" /><text style="text-anchor: middle; dominant-baseline: middle; font-size: 12px;" y="328.11212158203125" x="803.7840576171875" id="rel12" class="er relationshipLabel">hasRule</text><rect height="14" width="80.5625" y="109.51264190673828" x="902.4467163085938" class="er relationshipLabelBox" /><text style="text-anchor: middle; dominant-baseline: middle; font-size: 12px;" y="116.51264190673828" x="942.7279663085938" id="rel13" class="er relationshipLabel">hasUnitSystem</text></svg>