<svg xmlns="http://www.w3.org/2000/svg" aria-roledescription="er" role="graphics-document document" viewBox="0 0 2527.58056640625 465" height="465" width="2527.58056640625" id="container">
  <style>#container{font-family:"trebuchet ms",verdana,arial,sans-serif;font-size:16px;fill:#333;}#container .error-icon{fill:#552222;}#container .error-text{fill:#552222;stroke:#552222;}#container .edge-thickness-normal{stroke-width:1px;}#container .edge-thickness-thick{stroke-width:3.5px;}#container .edge-pattern-solid{stroke-dasharray:0;}#container .edge-thickness-invisible{stroke-width:0;fill:none;}#container .edge-pattern-dashed{stroke-dasharray:3;}#container .edge-pattern-dotted{stroke-dasharray:2;}#container .marker{fill:#333333;stroke:#333333;}#container .marker.cross{stroke:#333333;}#container svg{font-family:"trebuchet ms",verdana,arial,sans-serif;font-size:16px;}#container p{margin:0;}#container .entityBox{fill:#ECECFF;stroke:#9370DB;}#container .attributeBoxOdd{fill:#ffffff;stroke:#9370DB;}#container .attributeBoxEven{fill:#f2f2f2;stroke:#9370DB;}#container .relationshipLabelBox{fill:hsl(80, 100%, 96.2745098039%);opacity:0.7;background-color:hsl(80, 100%, 96.2745098039%);}#container .relationshipLabelBox rect{opacity:0.5;}#container .relationshipLine{stroke:#333333;}#container .entityTitleText{text-anchor:middle;font-size:18px;fill:#333;}#container #MD_PARENT_START{fill:#f5f5f5!important;stroke:#333333!important;stroke-width:1;}#container #MD_PARENT_END{fill:#f5f5f5!important;stroke:#333333!important;stroke-width:1;}#container :root{--mermaid-font-family:"trebuchet ms",verdana,arial,sans-serif;}</style>
  <g/>
  <defs>
    <marker orient="auto" markerHeight="240" markerWidth="190" refY="7" refX="0" id="MD_PARENT_START">
      <path d="M 18,7 L9,13 L1,7 L9,1 Z"/>
    </marker>
  </defs>
  <defs>
    <marker orient="auto" markerHeight="28" markerWidth="20" refY="7" refX="19" id="MD_PARENT_END">
      <path d="M 18,7 L9,13 L1,7 L9,1 Z"/>
    </marker>
  </defs>
  <defs>
    <marker orient="auto" markerHeight="18" markerWidth="18" refY="9" refX="0" id="ONLY_ONE_START">
      <path d="M9,0 L9,18 M15,0 L15,18" fill="none" stroke="gray"/>
    </marker>
  </defs>
  <defs>
    <marker orient="auto" markerHeight="18" markerWidth="18" refY="9" refX="18" id="ONLY_ONE_END">
      <path d="M3,0 L3,18 M9,0 L9,18" fill="none" stroke="gray"/>
    </marker>
  </defs>
  <defs>
    <marker orient="auto" markerHeight="18" markerWidth="30" refY="9" refX="0" id="ZERO_OR_ONE_START">
      <circle r="6" cy="9" cx="21" fill="white" stroke="gray"/>
      <path d="M9,0 L9,18" fill="none" stroke="gray"/>
    </marker>
  </defs>
  <defs>
    <marker orient="auto" markerHeight="18" markerWidth="30" refY="9" refX="30" id="ZERO_OR_ONE_END">
      <circle r="6" cy="9" cx="9" fill="white" stroke="gray"/>
      <path d="M21,0 L21,18" fill="none" stroke="gray"/>
    </marker>
  </defs>
  <defs>
    <marker orient="auto" markerHeight="36" markerWidth="45" refY="18" refX="18" id="ONE_OR_MORE_START">
      <path d="M0,18 Q 18,0 36,18 Q 18,36 0,18 M42,9 L42,27" fill="none" stroke="gray"/>
    </marker>
  </defs>
  <defs>
    <marker orient="auto" markerHeight="36" markerWidth="45" refY="18" refX="27" id="ONE_OR_MORE_END">
      <path d="M3,9 L3,27 M9,18 Q27,0 45,18 Q27,36 9,18" fill="none" stroke="gray"/>
    </marker>
  </defs>
  <defs>
    <marker orient="auto" markerHeight="36" markerWidth="57" refY="18" refX="18" id="ZERO_OR_MORE_START">
      <circle r="6" cy="18" cx="48" fill="white" stroke="gray"/>
      <path d="M0,18 Q18,0 36,18 Q18,36 0,18" fill="none" stroke="gray"/>
    </marker>
  </defs>
  <defs>
    <marker orient="auto" markerHeight="36" markerWidth="57" refY="18" refX="39" id="ZERO_OR_MORE_END">
      <circle r="6" cy="18" cx="9" fill="white" stroke="gray"/>
      <path d="M21,18 Q39,0 57,18 Q39,36 21,18" fill="none" stroke="gray"/>
    </marker>
  </defs>
  <path style="stroke: gray; fill: none;" marker-start="url(#ONLY_ONE_START)" marker-end="url(#ZERO_OR_ONE_END)" d="M98.571,270L93.81,278.333C89.048,286.667,79.524,303.333,74.762,320C70,336.667,70,353.333,70,361.667L70,370" class="er relationshipLine"/>
  <path style="stroke: gray; fill: none;" marker-start="url(#ONLY_ONE_START)" marker-end="url(#ZERO_OR_ONE_END)" d="M162.857,270L172.381,278.333C181.905,286.667,200.952,303.333,215.238,320C229.524,336.667,239.048,353.333,243.81,361.667L248.571,370" class="er relationshipLine"/>
  <path style="stroke: gray; fill: none;" marker-start="url(#ONLY_ONE_START)" marker-end="url(#ZERO_OR_ONE_END)" d="M172.67,255.153L197.799,265.961C222.929,276.769,273.187,298.384,293.226,317.525C313.265,336.667,303.085,353.333,297.995,361.667L292.905,370" class="er relationshipLine"/>
  <path style="stroke: gray; fill: none;" marker-start="url(#ONLY_ONE_START)" marker-end="url(#ZERO_OR_ONE_END)" d="M546.281,269.144L534.716,277.62C523.151,286.096,500.021,303.048,488.456,319.857C476.891,336.667,476.891,353.333,476.891,361.667L476.891,370" class="er relationshipLine"/>
  <path style="stroke: gray; fill: none;" marker-start="url(#ONLY_ONE_START)" marker-end="url(#ZERO_OR_ONE_END)" d="M646.281,221.786L667.115,217.321C687.948,212.857,729.615,203.929,755.656,199.464C781.698,195,792.115,195,802.531,201.25C812.948,207.5,823.365,220,823.365,232.5C823.365,245,812.948,257.5,802.531,263.75C792.115,270,781.698,270,755.656,265.536C729.615,261.071,687.948,252.143,667.115,247.679L646.281,243.214" class="er relationshipLine"/>
  <path style="stroke: gray; fill: none;" marker-start="url(#ONLY_ONE_START)" marker-end="url(#ZERO_OR_ONE_END)" d="M633.781,270L642.115,278.333C650.448,286.667,667.115,303.333,675.448,320C683.781,336.667,683.781,353.333,683.781,361.667L683.781,370" class="er relationshipLine"/>
  <path style="stroke: gray; fill: none;" marker-start="url(#ONLY_ONE_START)" marker-end="url(#ZERO_OR_MORE_END)" d="M646.281,247.717L685.865,259.764C725.448,271.812,804.615,295.906,844.198,316.286C883.781,336.667,883.781,353.333,883.781,361.667L883.781,370" class="er relationshipLine"/>
  <path style="stroke: gray; fill: none;" marker-start="url(#ONLY_ONE_START)" marker-end="url(#ZERO_OR_ONE_END)" d="M633.781,65.26L548.151,78.55C462.521,91.84,291.26,118.42,205.63,140.043C120,161.667,120,178.333,120,186.667L120,195" class="er relationshipLine"/>
  <path style="stroke: gray; fill: none;" marker-start="url(#ONLY_ONE_START)" marker-end="url(#ZERO_OR_ONE_END)" d="M646.281,95L637.948,103.333C629.615,111.667,612.948,128.333,604.615,145C596.281,161.667,596.281,178.333,596.281,186.667L596.281,195" class="er relationshipLine"/>
  <path style="stroke: gray; fill: none;" marker-start="url(#ONLY_ONE_START)" marker-end="url(#ZERO_OR_ONE_END)" d="M733.781,61.302L917.214,75.252C1100.647,89.202,1467.514,117.101,1650.947,139.384C1834.38,161.667,1834.38,178.333,1834.38,186.667L1834.38,195" class="er relationshipLine"/>
  <path style="stroke: gray; fill: none;" marker-start="url(#ONLY_ONE_START)" marker-end="url(#ZERO_OR_ONE_END)" d="M1784.38,237.643L1650.947,251.37C1517.514,265.096,1250.647,292.548,1133.743,314.607C1016.838,336.667,1049.895,353.333,1066.423,361.667L1082.952,370" class="er relationshipLine"/>
  <path style="stroke: gray; fill: none;" marker-start="url(#ONLY_ONE_START)" marker-end="url(#ZERO_OR_ONE_END)" d="M1784.38,238.517L1671.538,252.098C1558.696,265.678,1333.013,292.839,1224.933,314.753C1116.853,336.667,1126.377,353.333,1131.139,361.667L1135.901,370" class="er relationshipLine"/>
  <path style="stroke: gray; fill: none;" marker-start="url(#ONLY_ONE_START)" marker-end="url(#ZERO_OR_ONE_END)" d="M1784.38,239.749L1692.13,253.124C1599.879,266.5,1415.378,293.25,1316.124,314.958C1216.869,336.667,1202.859,353.333,1195.855,361.667L1188.85,370" class="er relationshipLine"/>
  <path style="stroke: gray; fill: none;" marker-start="url(#ONLY_ONE_START)" marker-end="url(#ZERO_OR_MORE_END)" d="M1784.38,242.676L1721.054,255.563C1657.729,268.45,1531.077,294.225,1467.752,315.446C1404.426,336.667,1404.426,353.333,1404.426,361.667L1404.426,370" class="er relationshipLine"/>
  <path style="stroke: gray; fill: none;" marker-start="url(#ONLY_ONE_START)" marker-end="url(#ZERO_OR_MORE_END)" d="M1784.38,251.583L1754.503,262.986C1724.627,274.389,1664.874,297.194,1634.998,316.931C1605.121,336.667,1605.121,353.333,1605.121,361.667L1605.121,370" class="er relationshipLine"/>
  <path style="stroke: gray; fill: none;" marker-start="url(#ONLY_ONE_START)" marker-end="url(#ZERO_OR_MORE_END)" d="M1784.38,266.347L1771.17,275.289C1757.96,284.231,1731.541,302.116,1747.798,322.185C1764.055,342.254,1822.988,364.508,1852.454,375.635L1881.921,386.762" class="er relationshipLine"/>
  <path style="stroke: gray; fill: none;" marker-start="url(#ONLY_ONE_START)" marker-end="url(#ZERO_OR_MORE_END)" d="M1821.841,270L1819.054,278.333C1816.267,286.667,1810.694,303.333,1820.708,320.17C1830.721,337.006,1856.321,354.012,1869.121,362.515L1881.921,371.018" class="er relationshipLine"/>
  <path style="stroke: gray; fill: none;" marker-start="url(#ONLY_ONE_START)" marker-end="url(#ZERO_OR_MORE_END)" d="M1864.698,270L1871.435,278.333C1878.172,286.667,1891.647,303.333,1901.405,320C1911.163,336.667,1917.204,353.333,1920.225,361.667L1923.246,370" class="er relationshipLine"/>
  <path style="stroke: gray; fill: none;" marker-start="url(#ONLY_ONE_START)" marker-end="url(#ZERO_OR_MORE_END)" d="M1884.38,258.124L1904.503,268.436C1924.627,278.749,1964.874,299.375,1978.495,318.021C1992.115,336.667,1979.109,353.333,1972.606,361.667L1966.103,370" class="er relationshipLine"/>
  <path style="stroke: gray; fill: none;" marker-start="url(#ONLY_ONE_START)" marker-end="url(#ZERO_OR_MORE_END)" d="M1884.38,248.659L1921.17,260.549C1957.96,272.44,2031.541,296.22,2049.437,317.934C2067.333,339.648,2029.545,359.296,2010.651,369.121L1991.757,378.945" class="er relationshipLine"/>
  <path style="stroke: gray; fill: none;" marker-start="url(#ONLY_ONE_START)" marker-end="url(#ZERO_OR_MORE_END)" d="M1884.38,242.838L1946.58,255.698C2008.78,268.559,2133.18,294.279,2195.38,315.473C2257.581,336.667,2257.581,353.333,2257.581,361.667L2257.581,370" class="er relationshipLine"/>
  <path style="stroke: gray; fill: none;" marker-start="url(#ONLY_ONE_START)" marker-end="url(#ZERO_OR_MORE_END)" d="M1884.38,216.875L1896.047,213.229C1907.713,209.583,1931.047,202.292,1945.63,198.646C1960.213,195,1966.047,195,1971.88,201.25C1977.713,207.5,1983.547,220,1983.547,232.5C1983.547,245,1977.713,257.5,1971.88,263.75C1966.047,270,1960.213,270,1945.63,266.354C1931.047,262.708,1907.713,255.417,1896.047,251.771L1884.38,248.125" class="er relationshipLine"/>
  <path style="stroke: gray; fill: none;" marker-start="url(#ONLY_ONE_START)" marker-end="url(#ZERO_OR_MORE_END)" d="M1884.38,222.802L1908.269,218.168C1932.158,213.534,1979.935,204.267,2009.797,199.634C2039.658,195,2051.602,195,2063.547,201.25C2075.491,207.5,2087.435,220,2087.435,232.5C2087.435,245,2075.491,257.5,2063.547,263.75C2051.602,270,2039.658,270,2009.797,265.366C1979.935,260.733,1932.158,251.466,1908.269,246.832L1884.38,242.198" class="er relationshipLine"/>
  <path style="stroke: gray; fill: none;" marker-start="url(#ONLY_ONE_START)" marker-end="url(#ZERO_OR_MORE_END)" d="M1884.38,225.469L1920.491,220.391C1956.602,215.313,2028.824,205.156,2073.963,200.078C2119.102,195,2137.158,195,2155.213,201.25C2173.269,207.5,2191.324,220,2191.324,232.5C2191.324,245,2173.269,257.5,2155.213,263.75C2137.158,270,2119.102,270,2073.963,264.922C2028.824,259.844,1956.602,249.688,1920.491,244.609L1884.38,239.531" class="er relationshipLine"/>
  <path style="stroke: gray; fill: none;" marker-start="url(#ONLY_ONE_START)" marker-end="url(#ZERO_OR_MORE_END)" d="M1884.38,239.52L1979.913,252.934C2075.447,266.347,2266.514,293.173,2362.047,314.92C2457.581,336.667,2457.581,353.333,2457.581,361.667L2457.581,370" class="er relationshipLine"/>
  <g transform="translate(67.32975769042969,195 )" id="entity-DataEncoding-e949680e-a6e4-55c9-9325-aa69226f3e53">
    <rect height="75" width="105.34048461914062" y="0" x="0" class="er entityBox"/>
    <text style="dominant-baseline: middle; text-anchor: middle; font-size: 12px;" transform="translate(52.67024230957031,37.5)" y="0" x="0" id="text-entity-DataEncoding-e949680e-a6e4-55c9-9325-aa69226f3e53" class="er entityLabel">DataEncoding</text>
  </g>
  <g transform="translate(546.28125,195 )" id="entity-Datatype-eedb5402-d0cc-52bf-9fb8-7b914f648cbe">
    <rect height="75" width="100" y="0" x="0" class="er entityBox"/>
    <text style="dominant-baseline: middle; text-anchor: middle; font-size: 12px;" transform="translate(50,37.5)" y="0" x="0" id="text-entity-Datatype-eedb5402-d0cc-52bf-9fb8-7b914f648cbe" class="er entityLabel">Datatype</text>
  </g>
  <g transform="translate(633.78125,20 )" id="entity-Quantifiable-82d4468d-7a40-5b3c-81f8-69036607af45">
    <rect height="75" width="100" y="0" x="0" class="er entityBox"/>
    <text style="dominant-baseline: middle; text-anchor: middle; font-size: 12px;" transform="translate(50,37.5)" y="0" x="0" id="text-entity-Quantifiable-82d4468d-7a40-5b3c-81f8-69036607af45" class="er entityLabel">Quantifiable</text>
  </g>
  <g transform="translate(1784.3798904418945,195 )" id="entity-Unit-c57ac1ea-0a24-509a-a80e-23f8c03ca739">
    <rect height="75" width="100" y="0" x="0" class="er entityBox"/>
    <text style="dominant-baseline: middle; text-anchor: middle; font-size: 12px;" transform="translate(50,37.5)" y="0" x="0" id="text-entity-Unit-c57ac1ea-0a24-509a-a80e-23f8c03ca739" class="er entityLabel">Unit</text>
  </g>
  <g transform="translate(20,370 )" id="entity-Encoding-1bd3f2aa-2a9a-589f-8d8d-495ffc6a00da">
    <rect height="75" width="100" y="0" x="0" class="er entityBox"/>
    <text style="dominant-baseline: middle; text-anchor: middle; font-size: 12px;" transform="translate(50,37.5)" y="0" x="0" id="text-entity-Encoding-1bd3f2aa-2a9a-589f-8d8d-495ffc6a00da" class="er entityLabel">Encoding</text>
  </g>
  <g transform="translate(220,370 )" id="entity-EndianType-d95ef20a-f1b7-5562-baf4-d38ffa1e0153">
    <rect height="75" width="100" y="0" x="0" class="er entityBox"/>
    <text style="dominant-baseline: middle; text-anchor: middle; font-size: 12px;" transform="translate(50,37.5)" y="0" x="0" id="text-entity-EndianType-d95ef20a-f1b7-5562-baf4-d38ffa1e0153" class="er entityLabel">EndianType</text>
  </g>
  <g transform="translate(420,370 )" id="entity-CardinalityType-796d1111-9b0e-5cfa-a954-3577abec4acc">
    <rect height="75" width="113.78125" y="0" x="0" class="er entityBox"/>
    <text style="dominant-baseline: middle; text-anchor: middle; font-size: 12px;" transform="translate(56.890625,37.5)" y="0" x="0" id="text-entity-CardinalityType-796d1111-9b0e-5cfa-a954-3577abec4acc" class="er entityLabel">CardinalityType</text>
  </g>
  <g transform="translate(633.78125,370 )" id="entity-OrderedType-842b5e5e-013e-581b-9bf8-11371587b713">
    <rect height="75" width="100" y="0" x="0" class="er entityBox"/>
    <text style="dominant-baseline: middle; text-anchor: middle; font-size: 12px;" transform="translate(50,37.5)" y="0" x="0" id="text-entity-OrderedType-842b5e5e-013e-581b-9bf8-11371587b713" class="er entityLabel">OrderedType</text>
  </g>
  <g transform="translate(833.78125,370 )" id="entity-Rule-886caf8e-59ff-5db3-a492-27242971196f">
    <rect height="75" width="100" y="0" x="0" class="er entityBox"/>
    <text style="dominant-baseline: middle; text-anchor: middle; font-size: 12px;" transform="translate(50,37.5)" y="0" x="0" id="text-entity-Rule-886caf8e-59ff-5db3-a492-27242971196f" class="er entityLabel">Rule</text>
  </g>
  <g transform="translate(1060.2329788208008,370 )" id="entity-QuantityKindDimensionVector-bfa1bf26-fcae-516f-8f63-2f454f3dac1b">
    <rect height="75" width="194.19308471679688" y="0" x="0" class="er entityBox"/>
    <text style="dominant-baseline: middle; text-anchor: middle; font-size: 12px;" transform="translate(97.09654235839844,37.5)" y="0" x="0" id="text-entity-QuantityKindDimensionVector-bfa1bf26-fcae-516f-8f63-2f454f3dac1b" class="er entityLabel">QuantityKindDimensionVector</text>
  </g>
  <g transform="translate(1354.4260635375977,370 )" id="entity-Prefix-f6d97b99-faee-5974-b12e-390868d79e86">
    <rect height="75" width="100" y="0" x="0" class="er entityBox"/>
    <text style="dominant-baseline: middle; text-anchor: middle; font-size: 12px;" transform="translate(50,37.5)" y="0" x="0" id="text-entity-Prefix-f6d97b99-faee-5974-b12e-390868d79e86" class="er entityLabel">Prefix</text>
  </g>
  <g transform="translate(1554.4260635375977,370 )" id="entity-QuantityKind-6f79b338-e354-5d95-8035-8883644476ff">
    <rect height="75" width="101.390625" y="0" x="0" class="er entityBox"/>
    <text style="dominant-baseline: middle; text-anchor: middle; font-size: 12px;" transform="translate(50.6953125,37.5)" y="0" x="0" id="text-entity-QuantityKind-6f79b338-e354-5d95-8035-8883644476ff" class="er entityLabel">QuantityKind</text>
  </g>
  <g transform="translate(1881.9207611083984,370 )" id="entity-SystemOfUnits-f7f1da8e-a5af-50e1-94d0-c2e741f40e1d">
    <rect height="75" width="109.83651733398438" y="0" x="0" class="er entityBox"/>
    <text style="dominant-baseline: middle; text-anchor: middle; font-size: 12px;" transform="translate(54.91825866699219,37.5)" y="0" x="0" id="text-entity-SystemOfUnits-f7f1da8e-a5af-50e1-94d0-c2e741f40e1d" class="er entityLabel">SystemOfUnits</text>
  </g>
  <g transform="translate(2207.5805053710938,370 )" id="entity-UCUMcs-8df33f70-0c53-5f8e-a81f-0969bc803a34">
    <rect height="75" width="100" y="0" x="0" class="er entityBox"/>
    <text style="dominant-baseline: middle; text-anchor: middle; font-size: 12px;" transform="translate(50,37.5)" y="0" x="0" id="text-entity-UCUMcs-8df33f70-0c53-5f8e-a81f-0969bc803a34" class="er entityLabel">UCUMcs</text>
  </g>
  <g transform="translate(2407.5805053710938,370 )" id="entity-Class-d9e3eb4a-97c0-50b6-8e3f-7f4a2fa7283d">
    <rect height="75" width="100" y="0" x="0" class="er entityBox"/>
    <text style="dominant-baseline: middle; text-anchor: middle; font-size: 12px;" transform="translate(50,37.5)" y="0" x="0" id="text-entity-Class-d9e3eb4a-97c0-50b6-8e3f-7f4a2fa7283d" class="er entityLabel">__Class</text>
  </g>
  <rect height="14" width="50.66828918457031" y="310.55291748046875" x="50.16058349609375" class="er relationshipLabelBox"/>
  <text style="text-anchor: middle; dominant-baseline: middle; font-size: 12px;" y="317.55291748046875" x="75.4947280883789" id="rel1" class="er relationshipLabel">encoding</text>
  <rect height="14" width="46.13629150390625" y="308.3968811035156" x="188.1082305908203" class="er relationshipLabelBox"/>
  <text style="text-anchor: middle; dominant-baseline: middle; font-size: 12px;" y="315.3968811035156" x="211.17637634277344" id="rel2" class="er relationshipLabel">bitOrder</text>
  <rect height="14" width="54.968353271484375" y="288.9134521484375" x="233.85096740722656" class="er relationshipLabelBox"/>
  <text style="text-anchor: middle; dominant-baseline: middle; font-size: 12px;" y="295.9134521484375" x="261.33514404296875" id="rel3" class="er relationshipLabel">byteOrder</text>
  <rect height="14" width="57.58837890625" y="303.2189025878906" x="467.4400939941406" class="er relationshipLabelBox"/>
  <text style="text-anchor: middle; dominant-baseline: middle; font-size: 12px;" y="310.2189025878906" x="496.2342834472656" id="rel4" class="er relationshipLabel">cardinality</text>
  <rect height="14" width="28.4041748046875" y="225.5" x="809.1629028320312" class="er relationshipLabelBox"/>
  <text style="text-anchor: middle; dominant-baseline: middle; font-size: 12px;" y="232.5" x="823.364990234375" id="rel5" class="er relationshipLabel">basis</text>
  <rect height="14" width="68.28125" y="306.8353271484375" x="637.8666381835938" class="er relationshipLabelBox"/>
  <text style="text-anchor: middle; dominant-baseline: middle; font-size: 12px;" y="313.8353271484375" x="672.0072631835938" id="rel6" class="er relationshipLabel">orderedType</text>
  <rect height="14" width="43.296875" y="283.2606506347656" x="758.8696899414062" class="er relationshipLabelBox"/>
  <text style="text-anchor: middle; dominant-baseline: middle; font-size: 12px;" y="290.2606506347656" x="780.5181274414062" id="rel7" class="er relationshipLabel">hasRule</text>
  <rect height="14" width="74.90847778320312" y="101.34131622314453" x="326.86082458496094" class="er relationshipLabelBox"/>
  <text style="text-anchor: middle; dominant-baseline: middle; font-size: 12px;" y="108.34131622314453" x="364.3150634765625" id="rel8" class="er relationshipLabel">dataEncoding</text>
  <rect height="14" width="48.328125" y="131.8357696533203" x="583.8914184570312" class="er relationshipLabelBox"/>
  <text style="text-anchor: middle; dominant-baseline: middle; font-size: 12px;" y="138.8357696533203" x="608.0554809570312" id="rel9" class="er relationshipLabel">datatype</text>
  <rect height="14" width="42.404296875" y="98.01718139648438" x="1272.67626953125" class="er relationshipLabelBox"/>
  <text style="text-anchor: middle; dominant-baseline: middle; font-size: 12px;" y="105.01718139648438" x="1293.87841796875" id="rel10" class="er relationshipLabel">hasUnit</text>
  <rect height="14" width="111.8487548828125" y="272.2928771972656" x="1335.1912231445312" class="er relationshipLabelBox"/>
  <text style="text-anchor: middle; dominant-baseline: middle; font-size: 12px;" y="279.2928771972656" x="1391.1156005859375" id="rel11" class="er relationshipLabel">hasDimensionVector</text>
  <rect height="14" width="97.9886474609375" y="273.8993225097656" x="1392.9996948242188" class="er relationshipLabelBox"/>
  <text style="text-anchor: middle; dominant-baseline: middle; font-size: 12px;" y="280.8993225097656" x="1441.9940185546875" id="rel12" class="er relationshipLabel">qkdvDenominator</text>
  <rect height="14" width="85.196533203125" y="278.23138427734375" x="1437.1563720703125" class="er relationshipLabelBox"/>
  <text style="text-anchor: middle; dominant-baseline: middle; font-size: 12px;" y="285.23138427734375" x="1479.754638671875" id="rel13" class="er relationshipLabel">qkdvNumerator</text>
  <rect height="14" width="30.8402099609375" y="278.520751953125" x="1565.1991577148438" class="er relationshipLabelBox"/>
  <text style="text-anchor: middle; dominant-baseline: middle; font-size: 12px;" y="285.520751953125" x="1580.6192626953125" id="rel14" class="er relationshipLabel">prefix</text>
  <rect height="14" width="90.4375" y="286.97540283203125" x="1633.3282470703125" class="er relationshipLabelBox"/>
  <text style="text-anchor: middle; dominant-baseline: middle; font-size: 12px;" y="293.97540283203125" x="1678.5469970703125" id="rel15" class="er relationshipLabel">hasQuantityKind</text>
  <rect height="14" width="95.78125" y="336.5540466308594" x="1729.6881103515625" class="er relationshipLabelBox"/>
  <text style="text-anchor: middle; dominant-baseline: middle; font-size: 12px;" y="343.5540466308594" x="1777.5787353515625" id="rel16" class="er relationshipLabel">applicableSystem</text>
  <rect height="14" width="115.203125" y="324.2059326171875" x="1771.6685791015625" class="er relationshipLabelBox"/>
  <text style="text-anchor: middle; dominant-baseline: middle; font-size: 12px;" y="331.2059326171875" x="1829.2701416015625" id="rel17" class="er relationshipLabel">definedUnitOfSystem</text>
  <rect height="14" width="164.390625" y="309.80963134765625" x="1817.297607421875" class="er relationshipLabelBox"/>
  <text style="text-anchor: middle; dominant-baseline: middle; font-size: 12px;" y="316.80963134765625" x="1899.492919921875" id="rel18" class="er relationshipLabel">derivedCoherentUnitOfSystem</text>
  <rect height="14" width="115.15625" y="292.95184326171875" x="1901.2412109375" class="er relationshipLabelBox"/>
  <text style="text-anchor: middle; dominant-baseline: middle; font-size: 12px;" y="299.95184326171875" x="1958.8193359375" id="rel19" class="er relationshipLabel">derivedUnitOfSystem</text>
  <rect height="14" width="82.828125" y="287.92449951171875" x="1972.62841796875" class="er relationshipLabelBox"/>
  <text style="text-anchor: middle; dominant-baseline: middle; font-size: 12px;" y="294.92449951171875" x="2014.04248046875" id="rel20" class="er relationshipLabel">isUnitOfSystem</text>
  <rect height="14" width="57.078125" y="278.6700744628906" x="2056.296142578125" class="er relationshipLabelBox"/>
  <text style="text-anchor: middle; dominant-baseline: middle; font-size: 12px;" y="285.6700744628906" x="2084.835205078125" id="rel21" class="er relationshipLabel">ucumCode</text>
  <rect height="14" width="61.453125" y="225.49998474121094" x="1952.8204345703125" class="er relationshipLabelBox"/>
  <text style="text-anchor: middle; dominant-baseline: middle; font-size: 12px;" y="232.49998474121094" x="1983.5469970703125" id="rel22" class="er relationshipLabel">exactMatch</text>
  <rect height="14" width="99.0927734375" y="225.50001525878906" x="2037.888671875" class="er relationshipLabelBox"/>
  <text style="text-anchor: middle; dominant-baseline: middle; font-size: 12px;" y="232.50001525878906" x="2087.43505859375" id="rel23" class="er relationshipLabel">hasReciprocalUnit</text>
  <rect height="14" width="51.104248046875" y="225.50003051757812" x="2165.7718505859375" class="er relationshipLabelBox"/>
  <text style="text-anchor: middle; dominant-baseline: middle; font-size: 12px;" y="232.50003051757812" x="2191.323974609375" id="rel24" class="er relationshipLabel">scalingOf</text>
  <rect height="14" width="75.632568359375" y="275.6943664550781" x="2145.3057861328125" class="er relationshipLabelBox"/>
  <text style="text-anchor: middle; dominant-baseline: middle; font-size: 12px;" y="282.6943664550781" x="2183.1220703125" id="rel25" class="er relationshipLabel">hasFactorUnit</text>
</svg>
