<svg xmlns="http://www.w3.org/2000/svg" aria-roledescription="er" role="graphics-document document" viewBox="0 0 2655.760986328125 990" height="990" width="2655.760986328125" id="container">
  <style>#container{font-family:"trebuchet ms",verdana,arial,sans-serif;font-size:16px;fill:#333;}#container .error-icon{fill:#552222;}#container .error-text{fill:#552222;stroke:#552222;}#container .edge-thickness-normal{stroke-width:1px;}#container .edge-thickness-thick{stroke-width:3.5px;}#container .edge-pattern-solid{stroke-dasharray:0;}#container .edge-thickness-invisible{stroke-width:0;fill:none;}#container .edge-pattern-dashed{stroke-dasharray:3;}#container .edge-pattern-dotted{stroke-dasharray:2;}#container .marker{fill:#333333;stroke:#333333;}#container .marker.cross{stroke:#333333;}#container svg{font-family:"trebuchet ms",verdana,arial,sans-serif;font-size:16px;}#container p{margin:0;}#container .entityBox{fill:#ECECFF;stroke:#9370DB;}#container .attributeBoxOdd{fill:#ffffff;stroke:#9370DB;}#container .attributeBoxEven{fill:#f2f2f2;stroke:#9370DB;}#container .relationshipLabelBox{fill:hsl(80, 100%, 96.2745098039%);opacity:0.7;background-color:hsl(80, 100%, 96.2745098039%);}#container .relationshipLabelBox rect{opacity:0.5;}#container .relationshipLine{stroke:#333333;}#container .entityTitleText{text-anchor:middle;font-size:18px;fill:#333;}#container #MD_PARENT_START{fill:#f5f5f5!important;stroke:#333333!important;stroke-width:1;}#container #MD_PARENT_END{fill:#f5f5f5!important;stroke:#333333!important;stroke-width:1;}#container :root{--mermaid-font-family:"trebuchet ms",verdana,arial,sans-serif;}</style>
  <g/>
  <defs>
    <marker orient="auto" markerHeight="240" markerWidth="190" refY="7" refX="0" id="MD_PARENT_START">
      <path d="M 18,7 L9,13 L1,7 L9,1 Z"/>
    </marker>
  </defs>
  <defs>
    <marker orient="auto" markerHeight="28" markerWidth="20" refY="7" refX="19" id="MD_PARENT_END">
      <path d="M 18,7 L9,13 L1,7 L9,1 Z"/>
    </marker>
  </defs>
  <defs>
    <marker orient="auto" markerHeight="18" markerWidth="18" refY="9" refX="0" id="ONLY_ONE_START">
      <path d="M9,0 L9,18 M15,0 L15,18" fill="none" stroke="gray"/>
    </marker>
  </defs>
  <defs>
    <marker orient="auto" markerHeight="18" markerWidth="18" refY="9" refX="18" id="ONLY_ONE_END">
      <path d="M3,0 L3,18 M9,0 L9,18" fill="none" stroke="gray"/>
    </marker>
  </defs>
  <defs>
    <marker orient="auto" markerHeight="18" markerWidth="30" refY="9" refX="0" id="ZERO_OR_ONE_START">
      <circle r="6" cy="9" cx="21" fill="white" stroke="gray"/>
      <path d="M9,0 L9,18" fill="none" stroke="gray"/>
    </marker>
  </defs>
  <defs>
    <marker orient="auto" markerHeight="18" markerWidth="30" refY="9" refX="30" id="ZERO_OR_ONE_END">
      <circle r="6" cy="9" cx="9" fill="white" stroke="gray"/>
      <path d="M21,0 L21,18" fill="none" stroke="gray"/>
    </marker>
  </defs>
  <defs>
    <marker orient="auto" markerHeight="36" markerWidth="45" refY="18" refX="18" id="ONE_OR_MORE_START">
      <path d="M0,18 Q 18,0 36,18 Q 18,36 0,18 M42,9 L42,27" fill="none" stroke="gray"/>
    </marker>
  </defs>
  <defs>
    <marker orient="auto" markerHeight="36" markerWidth="45" refY="18" refX="27" id="ONE_OR_MORE_END">
      <path d="M3,9 L3,27 M9,18 Q27,0 45,18 Q27,36 9,18" fill="none" stroke="gray"/>
    </marker>
  </defs>
  <defs>
    <marker orient="auto" markerHeight="36" markerWidth="57" refY="18" refX="18" id="ZERO_OR_MORE_START">
      <circle r="6" cy="18" cx="48" fill="white" stroke="gray"/>
      <path d="M0,18 Q18,0 36,18 Q18,36 0,18" fill="none" stroke="gray"/>
    </marker>
  </defs>
  <defs>
    <marker orient="auto" markerHeight="36" markerWidth="57" refY="18" refX="39" id="ZERO_OR_MORE_END">
      <circle r="6" cy="18" cx="9" fill="white" stroke="gray"/>
      <path d="M21,18 Q39,0 57,18 Q39,36 21,18" fill="none" stroke="gray"/>
    </marker>
  </defs>
  <path style="stroke: gray; fill: none;" marker-start="url(#ONLY_ONE_START)" marker-end="url(#ZERO_OR_ONE_END)" d="M416.778,445L409.204,453.333C401.63,461.667,386.483,478.333,378.909,495C371.335,511.667,371.335,528.333,371.335,536.667L371.335,545" class="er relationshipLine"/>
  <path style="stroke: gray; fill: none;" marker-start="url(#ONLY_ONE_START)" marker-end="url(#ZERO_OR_ONE_END)" d="M502.492,445L513.966,453.333C525.44,461.667,548.387,478.333,559.861,495C571.335,511.667,571.335,528.333,571.335,536.667L571.335,545" class="er relationshipLine"/>
  <path style="stroke: gray; fill: none;" marker-start="url(#ONLY_ONE_START)" marker-end="url(#ZERO_OR_ONE_END)" d="M823.669,445L816.095,453.333C808.521,461.667,793.373,478.333,785.8,495C778.226,511.667,778.226,528.333,778.226,536.667L778.226,545" class="er relationshipLine"/>
  <path style="stroke: gray; fill: none;" marker-start="url(#ONLY_ONE_START)" marker-end="url(#ZERO_OR_ONE_END)" d="M907.751,401.885L955.074,396.571C1002.398,391.257,1097.046,380.628,1156.2,375.314C1215.355,370,1239.017,370,1262.679,376.25C1286.341,382.5,1310.003,395,1310.003,407.5C1310.003,420,1286.341,432.5,1262.679,438.75C1239.017,445,1215.355,445,1156.2,439.686C1097.046,434.372,1002.398,423.743,955.074,418.429L907.751,413.115" class="er relationshipLine"/>
  <path style="stroke: gray; fill: none;" marker-start="url(#ONLY_ONE_START)" marker-end="url(#ZERO_OR_ONE_END)" d="M907.751,441.85L920.645,450.708C933.539,459.567,959.328,477.283,972.222,494.475C985.116,511.667,985.116,528.333,985.116,536.667L985.116,545" class="er relationshipLine"/>
  <path style="stroke: gray; fill: none;" marker-start="url(#ONLY_ONE_START)" marker-end="url(#ZERO_OR_MORE_END)" d="M807.751,412.722L676.459,426.435C545.167,440.148,282.584,467.574,151.292,495.87C20,524.167,20,553.333,20,582.5C20,611.667,20,640.833,24.762,663.75C29.524,686.667,39.048,703.333,43.81,711.667L48.571,720" class="er relationshipLine"/>
  <path style="stroke: gray; fill: none;" marker-start="url(#ONLY_ONE_START)" marker-end="url(#ZERO_OR_ONE_END)" d="M1145.302,63.752L1012.141,77.293C878.98,90.835,612.657,117.917,479.496,146.042C346.335,174.167,346.335,203.333,346.335,232.5C346.335,261.667,346.335,290.833,356.29,313.75C366.245,336.667,386.154,353.333,396.109,361.667L406.064,370" class="er relationshipLine"/>
  <path style="stroke: gray; fill: none;" marker-start="url(#ONLY_ONE_START)" marker-end="url(#ZERO_OR_ONE_END)" d="M1145.302,68.661L1075.215,81.384C1005.128,94.107,864.954,119.554,794.867,146.86C724.78,174.167,724.78,203.333,724.78,232.5C724.78,261.667,724.78,290.833,738.609,314.516C752.437,338.199,780.094,356.399,793.922,365.498L807.751,374.598" class="er relationshipLine"/>
  <path style="stroke: gray; fill: none;" marker-start="url(#ONLY_ONE_START)" marker-end="url(#ZERO_OR_ONE_END)" d="M1268.263,68.781L1337.496,81.484C1406.73,94.187,1545.197,119.594,1614.431,146.88C1683.665,174.167,1683.665,203.333,1683.665,232.5C1683.665,261.667,1683.665,290.833,1716.267,317.031C1748.869,343.229,1814.074,366.458,1846.676,378.073L1879.279,389.687" class="er relationshipLine"/>
  <path style="stroke: gray; fill: none;" marker-start="url(#ONLY_ONE_START)" marker-end="url(#ZERO_OR_MORE_END)" d="M1268.263,39.965L1279.929,36.637C1291.596,33.31,1314.929,26.655,1329.513,23.327C1344.096,20,1349.929,20,1355.763,26.25C1361.596,32.5,1367.429,45,1367.429,57.5C1367.429,70,1361.596,82.5,1355.763,88.75C1349.929,95,1344.096,95,1329.513,91.673C1314.929,88.345,1291.596,81.69,1279.929,78.363L1268.263,75.035" class="er relationshipLine"/>
  <path style="stroke: gray; fill: none;" marker-start="url(#ONLY_ONE_START)" marker-end="url(#ZERO_OR_MORE_END)" d="M1145.302,62.952L991.085,76.626C836.868,90.301,528.434,117.651,374.217,145.909C220,174.167,220,203.333,220,232.5C220,261.667,220,290.833,220,320C220,349.167,220,378.333,220,407.5C220,436.667,220,465.833,220,495C220,524.167,220,553.333,220,582.5C220,611.667,220,640.833,482.934,669.546C745.869,698.259,1271.738,726.517,1534.672,740.646L1797.607,754.776" class="er relationshipLine"/>
  <path style="stroke: gray; fill: none;" marker-start="url(#ONLY_ONE_START)" marker-end="url(#ZERO_OR_MORE_END)" d="M1268.263,72.788L1316.663,84.823C1365.063,96.859,1461.864,120.929,1510.264,147.548C1558.665,174.167,1558.665,203.333,1558.665,232.5C1558.665,261.667,1558.665,290.833,1558.665,320C1558.665,349.167,1558.665,378.333,1558.665,407.5C1558.665,436.667,1558.665,465.833,1565.669,488.75C1572.674,511.667,1586.683,528.333,1593.688,536.667L1600.692,545" class="er relationshipLine"/>
  <path style="stroke: gray; fill: none;" marker-start="url(#ONLY_ONE_START)" marker-end="url(#ZERO_OR_MORE_END)" d="M1145.302,81.673L1118.459,92.228C1091.615,102.782,1037.928,123.891,1011.085,142.779C984.241,161.667,984.241,178.333,984.241,186.667L984.241,195" class="er relationshipLine"/>
  <path style="stroke: gray; fill: none;" marker-start="url(#ONLY_ONE_START)" marker-end="url(#ZERO_OR_MORE_END)" d="M1268.263,62.728L1429.512,76.44C1590.762,90.152,1913.262,117.576,2074.511,145.871C2235.761,174.167,2235.761,203.333,2235.761,232.5C2235.761,261.667,2235.761,290.833,2235.761,320C2235.761,349.167,2235.761,378.333,2235.761,407.5C2235.761,436.667,2235.761,465.833,2251.608,489.661C2267.455,513.488,2299.149,531.976,2314.996,541.22L2330.843,550.464" class="er relationshipLine"/>
  <path style="stroke: gray; fill: none;" marker-start="url(#ONLY_ONE_START)" marker-end="url(#ZERO_OR_ONE_END)" d="M1797.607,760.406L1551.664,774.505C1305.722,788.604,813.838,816.802,567.895,839.234C321.953,861.667,321.953,878.333,321.953,886.667L321.953,895" class="er relationshipLine"/>
  <path style="stroke: gray; fill: none;" marker-start="url(#ONLY_ONE_START)" marker-end="url(#ZERO_OR_MORE_END)" d="M1898.997,747.464L1922.118,742.886C1945.239,738.309,1991.481,729.155,2020.382,724.577C2049.283,720,2060.844,720,2072.404,726.25C2083.965,732.5,2095.525,745,2095.525,757.5C2095.525,770,2083.965,782.5,2072.404,788.75C2060.844,795,2049.283,795,2020.382,790.423C1991.481,785.845,1945.239,776.691,1922.118,772.114L1898.997,767.536" class="er relationshipLine"/>
  <path style="stroke: gray; fill: none;" marker-start="url(#ONLY_ONE_START)" marker-end="url(#ZERO_OR_MORE_END)" d="M1894.356,720L1904.59,711.667C1914.824,703.333,1935.293,686.667,1907.785,668.126C1880.277,649.586,1804.793,629.172,1767.051,618.966L1729.309,608.759" class="er relationshipLine"/>
  <path style="stroke: gray; fill: none;" marker-start="url(#ONLY_ONE_START)" marker-end="url(#ZERO_OR_MORE_END)" d="M1848.302,795L1848.302,803.333C1848.302,811.667,1848.302,828.333,1848.302,845C1848.302,861.667,1848.302,878.333,1848.302,886.667L1848.302,895" class="er relationshipLine"/>
  <path style="stroke: gray; fill: none;" marker-start="url(#ONLY_ONE_START)" marker-end="url(#ZERO_OR_MORE_END)" d="M1898.997,736.118L1925.125,725.099C1951.252,714.079,2003.507,692.039,2029.634,666.436C2055.761,640.833,2055.761,611.667,2055.761,582.5C2055.761,553.333,2055.761,524.167,2043.014,500.765C2030.267,477.363,2004.773,459.726,1992.026,450.908L1979.279,442.09" class="er relationshipLine"/>
  <path style="stroke: gray; fill: none;" marker-start="url(#ONLY_ONE_START)" marker-end="url(#ZERO_OR_MORE_END)" d="M1632.213,620L1632.213,628.333C1632.213,636.667,1632.213,653.333,1659.779,672.829C1687.344,692.324,1742.475,714.648,1770.041,725.81L1797.607,736.972" class="er relationshipLine"/>
  <path style="stroke: gray; fill: none;" marker-start="url(#ONLY_ONE_START)" marker-end="url(#ZERO_OR_MORE_END)" d="M1535.116,588.118L1299.264,601.765C1063.411,615.412,591.705,642.706,351.091,664.686C110.476,686.667,100.952,703.333,96.19,711.667L91.429,720" class="er relationshipLine"/>
  <path style="stroke: gray; fill: none;" marker-start="url(#ONLY_ONE_START)" marker-end="url(#ZERO_OR_ONE_END)" d="M931.054,245.447L880.008,257.872C828.963,270.298,726.872,295.149,655.618,317.741C584.364,340.334,543.947,360.668,523.739,370.835L503.53,381.001" class="er relationshipLine"/>
  <path style="stroke: gray; fill: none;" marker-start="url(#ONLY_ONE_START)" marker-end="url(#ZERO_OR_ONE_END)" d="M984.241,270L984.241,278.333C984.241,286.667,984.241,303.333,971.493,320.485C958.744,337.638,933.248,355.275,920.499,364.094L907.751,372.913" class="er relationshipLine"/>
  <path style="stroke: gray; fill: none;" marker-start="url(#ONLY_ONE_START)" marker-end="url(#ZERO_OR_ONE_END)" d="M1037.429,236.843L1207.151,250.703C1376.873,264.562,1716.317,292.281,1873.292,314.959C2030.267,337.637,2004.773,355.274,1992.026,364.092L1979.279,372.91" class="er relationshipLine"/>
  <path style="stroke: gray; fill: none;" marker-start="url(#ONLY_ONE_START)" marker-end="url(#ZERO_OR_MORE_END)" d="M70,795L70,803.333C70,811.667,70,828.333,70,845C70,861.667,70,878.333,70,886.667L70,895" class="er relationshipLine"/>
  <path style="stroke: gray; fill: none;" marker-start="url(#ONLY_ONE_START)" marker-end="url(#ZERO_OR_MORE_END)" d="M2407.19,545L2411.952,536.667C2416.714,528.333,2426.237,511.667,2430.999,488.75C2435.761,465.833,2435.761,436.667,2435.761,407.5C2435.761,378.333,2435.761,349.167,2435.761,320C2435.761,290.833,2435.761,261.667,2435.761,232.5C2435.761,203.333,2435.761,174.167,2241.178,145.73C2046.595,117.292,1657.429,89.585,1462.846,75.731L1268.263,61.877" class="er relationshipLine"/>
  <path style="stroke: gray; fill: none;" marker-start="url(#ONLY_ONE_START)" marker-end="url(#ZERO_OR_MORE_END)" d="M2385.761,620L2385.761,628.333C2385.761,636.667,2385.761,653.333,2395.285,670C2404.809,686.667,2423.856,703.333,2433.38,711.667L2442.904,720" class="er relationshipLine"/>
  <path style="stroke: gray; fill: none;" marker-start="url(#ONLY_ONE_START)" marker-end="url(#ZERO_OR_MORE_END)" d="M2440.679,550.464L2456.526,541.22C2472.373,531.976,2504.067,513.488,2427.167,490.863C2350.267,468.238,2164.773,441.476,2072.026,428.095L1979.279,414.714" class="er relationshipLine"/>
  <path style="stroke: gray; fill: none;" marker-start="url(#ONLY_ONE_START)" marker-end="url(#ZERO_OR_ONE_END)" d="M1879.279,427.201L1850.601,438.501C1821.923,449.801,1764.568,472.4,1728.748,492.034C1692.927,511.667,1678.641,528.333,1671.499,536.667L1664.356,545" class="er relationshipLine"/>
  <path style="stroke: gray; fill: none;" marker-start="url(#ONLY_ONE_START)" marker-end="url(#ZERO_OR_MORE_END)" d="M1979.279,413.693L2088.692,427.244C2198.106,440.795,2416.934,467.898,2526.347,496.032C2635.761,524.167,2635.761,553.333,2635.761,582.5C2635.761,611.667,2635.761,640.833,2619.095,665.139C2602.428,689.444,2569.095,708.889,2552.428,718.611L2535.761,728.333" class="er relationshipLine"/>
  <path style="stroke: gray; fill: none;" marker-start="url(#ONLY_ONE_START)" marker-end="url(#ZERO_OR_MORE_END)" d="M1897.771,445L1890.769,453.333C1883.768,461.667,1869.765,478.333,1862.763,501.25C1855.761,524.167,1855.761,553.333,1855.761,582.5C1855.761,611.667,1855.761,640.833,1855.051,663.75C1854.34,686.667,1852.92,703.333,1852.209,711.667L1851.499,720" class="er relationshipLine"/>
  <path style="stroke: gray; fill: none;" marker-start="url(#ONLY_ONE_START)" marker-end="url(#ZERO_OR_MORE_END)" d="M1979.279,418.263L2038.692,431.053C2098.106,443.842,2216.934,469.421,2281.109,490.544C2345.285,511.667,2354.809,528.333,2359.571,536.667L2364.333,545" class="er relationshipLine"/>
  <path style="stroke: gray; fill: none;" marker-start="url(#ONLY_ONE_START)" marker-end="url(#ZERO_OR_MORE_END)" d="M1879.279,413.379L1763.585,426.983C1647.891,440.586,1416.504,467.793,1300.81,489.73C1185.116,511.667,1185.116,528.333,1185.116,536.667L1185.116,545" class="er relationshipLine"/>
  <path style="stroke: gray; fill: none;" marker-start="url(#ONLY_ONE_START)" marker-end="url(#ZERO_OR_MORE_END)" d="M1979.279,395.082L1996.11,390.902C2012.941,386.721,2046.604,378.361,2067.643,374.18C2088.683,370,2097.098,370,2105.514,376.25C2113.93,382.5,2122.345,395,2122.345,407.5C2122.345,420,2113.93,432.5,2105.514,438.75C2097.098,445,2088.683,445,2067.643,440.82C2046.604,436.639,2012.941,428.279,1996.11,424.098L1979.279,419.918" class="er relationshipLine"/>
  <path style="stroke: gray; fill: none;" marker-start="url(#ONLY_ONE_START)" marker-end="url(#ZERO_OR_MORE_END)" d="M1879.279,415.54L1796.918,428.783C1714.558,442.027,1549.837,468.513,1467.477,490.09C1385.116,511.667,1385.116,528.333,1385.116,536.667L1385.116,545" class="er relationshipLine"/>
  <g transform="translate(398.18971252441406,370 )" id="entity-DataEncoding-e949680e-a6e4-55c9-9325-aa69226f3e53">
    <rect height="75" width="105.34048461914062" y="0" x="0" class="er entityBox"/>
    <text style="dominant-baseline: middle; text-anchor: middle; font-size: 12px;" transform="translate(52.67024230957031,37.5)" y="0" x="0" id="text-entity-DataEncoding-e949680e-a6e4-55c9-9325-aa69226f3e53" class="er entityLabel">DataEncoding</text>
  </g>
  <g transform="translate(807.7505798339844,370 )" id="entity-Datatype-eedb5402-d0cc-52bf-9fb8-7b914f648cbe">
    <rect height="75" width="100" y="0" x="0" class="er entityBox"/>
    <text style="dominant-baseline: middle; text-anchor: middle; font-size: 12px;" transform="translate(50,37.5)" y="0" x="0" id="text-entity-Datatype-eedb5402-d0cc-52bf-9fb8-7b914f648cbe" class="er entityLabel">Datatype</text>
  </g>
  <g transform="translate(1145.3019485473633,20 )" id="entity-PhysicalConstant-f43f8855-cf72-5deb-8dd3-7b0283708583">
    <rect height="75" width="122.96058654785156" y="0" x="0" class="er entityBox"/>
    <text style="dominant-baseline: middle; text-anchor: middle; font-size: 12px;" transform="translate(61.48029327392578,37.5)" y="0" x="0" id="text-entity-PhysicalConstant-f43f8855-cf72-5deb-8dd3-7b0283708583" class="er entityLabel">PhysicalConstant</text>
  </g>
  <g transform="translate(1797.6067428588867,720 )" id="entity-QuantityKind-6f79b338-e354-5d95-8035-8883644476ff">
    <rect height="75" width="101.390625" y="0" x="0" class="er entityBox"/>
    <text style="dominant-baseline: middle; text-anchor: middle; font-size: 12px;" transform="translate(50.6953125,37.5)" y="0" x="0" id="text-entity-QuantityKind-6f79b338-e354-5d95-8035-8883644476ff" class="er entityLabel">QuantityKind</text>
  </g>
  <g transform="translate(1535.1163711547852,545 )" id="entity-QuantityKindDimensionVector-bfa1bf26-fcae-516f-8f63-2f454f3dac1b">
    <rect height="75" width="194.19308471679688" y="0" x="0" class="er entityBox"/>
    <text style="dominant-baseline: middle; text-anchor: middle; font-size: 12px;" transform="translate(97.09654235839844,37.5)" y="0" x="0" id="text-entity-QuantityKindDimensionVector-bfa1bf26-fcae-516f-8f63-2f454f3dac1b" class="er entityLabel">QuantityKindDimensionVector</text>
  </g>
  <g transform="translate(931.0538711547852,195 )" id="entity-QuantityValue-f2bc13d2-1961-5e2a-9bfe-ab6a05a5860b">
    <rect height="75" width="106.375" y="0" x="0" class="er entityBox"/>
    <text style="dominant-baseline: middle; text-anchor: middle; font-size: 12px;" transform="translate(53.1875,37.5)" y="0" x="0" id="text-entity-QuantityValue-f2bc13d2-1961-5e2a-9bfe-ab6a05a5860b" class="er entityLabel">QuantityValue</text>
  </g>
  <g transform="translate(20,720 )" id="entity-Rule-886caf8e-59ff-5db3-a492-27242971196f">
    <rect height="75" width="100" y="0" x="0" class="er entityBox"/>
    <text style="dominant-baseline: middle; text-anchor: middle; font-size: 12px;" transform="translate(50,37.5)" y="0" x="0" id="text-entity-Rule-886caf8e-59ff-5db3-a492-27242971196f" class="er entityLabel">Rule</text>
  </g>
  <g transform="translate(2330.8429260253906,545 )" id="entity-SystemOfUnits-f7f1da8e-a5af-50e1-94d0-c2e741f40e1d">
    <rect height="75" width="109.83651733398438" y="0" x="0" class="er entityBox"/>
    <text style="dominant-baseline: middle; text-anchor: middle; font-size: 12px;" transform="translate(54.91825866699219,37.5)" y="0" x="0" id="text-entity-SystemOfUnits-f7f1da8e-a5af-50e1-94d0-c2e741f40e1d" class="er entityLabel">SystemOfUnits</text>
  </g>
  <g transform="translate(1879.2786178588867,370 )" id="entity-Unit-c57ac1ea-0a24-509a-a80e-23f8c03ca739">
    <rect height="75" width="100" y="0" x="0" class="er entityBox"/>
    <text style="dominant-baseline: middle; text-anchor: middle; font-size: 12px;" transform="translate(50,37.5)" y="0" x="0" id="text-entity-Unit-c57ac1ea-0a24-509a-a80e-23f8c03ca739" class="er entityLabel">Unit</text>
  </g>
  <g transform="translate(321.33512115478516,545 )" id="entity-Encoding-1bd3f2aa-2a9a-589f-8d8d-495ffc6a00da">
    <rect height="75" width="100" y="0" x="0" class="er entityBox"/>
    <text style="dominant-baseline: middle; text-anchor: middle; font-size: 12px;" transform="translate(50,37.5)" y="0" x="0" id="text-entity-Encoding-1bd3f2aa-2a9a-589f-8d8d-495ffc6a00da" class="er entityLabel">Encoding</text>
  </g>
  <g transform="translate(521.3351211547852,545 )" id="entity-EndianType-d95ef20a-f1b7-5562-baf4-d38ffa1e0153">
    <rect height="75" width="100" y="0" x="0" class="er entityBox"/>
    <text style="dominant-baseline: middle; text-anchor: middle; font-size: 12px;" transform="translate(50,37.5)" y="0" x="0" id="text-entity-EndianType-d95ef20a-f1b7-5562-baf4-d38ffa1e0153" class="er entityLabel">EndianType</text>
  </g>
  <g transform="translate(721.3351211547852,545 )" id="entity-CardinalityType-796d1111-9b0e-5cfa-a954-3577abec4acc">
    <rect height="75" width="113.78125" y="0" x="0" class="er entityBox"/>
    <text style="dominant-baseline: middle; text-anchor: middle; font-size: 12px;" transform="translate(56.890625,37.5)" y="0" x="0" id="text-entity-CardinalityType-796d1111-9b0e-5cfa-a954-3577abec4acc" class="er entityLabel">CardinalityType</text>
  </g>
  <g transform="translate(935.1163711547852,545 )" id="entity-OrderedType-842b5e5e-013e-581b-9bf8-11371587b713">
    <rect height="75" width="100" y="0" x="0" class="er entityBox"/>
    <text style="dominant-baseline: middle; text-anchor: middle; font-size: 12px;" transform="translate(50,37.5)" y="0" x="0" id="text-entity-OrderedType-842b5e5e-013e-581b-9bf8-11371587b713" class="er entityLabel">OrderedType</text>
  </g>
  <g transform="translate(220,895 )" id="entity-QuantityKindDimensionVectorSI-2681a9c0-d385-5c75-b278-85a805bca5b5">
    <rect height="75" width="203.90625" y="0" x="0" class="er entityBox"/>
    <text style="dominant-baseline: middle; text-anchor: middle; font-size: 12px;" transform="translate(101.953125,37.5)" y="0" x="0" id="text-entity-QuantityKindDimensionVectorSI-2681a9c0-d385-5c75-b278-85a805bca5b5" class="er entityLabel">QuantityKindDimensionVectorSI</text>
  </g>
  <g transform="translate(1769.035629272461,895 )" id="entity-SystemOfQuantityKinds-09c2a533-d4ff-5ffb-9642-53498359216a">
    <rect height="75" width="158.53285217285156" y="0" x="0" class="er entityBox"/>
    <text style="dominant-baseline: middle; text-anchor: middle; font-size: 12px;" transform="translate(79.26642608642578,37.5)" y="0" x="0" id="text-entity-SystemOfQuantityKinds-09c2a533-d4ff-5ffb-9642-53498359216a" class="er entityLabel">SystemOfQuantityKinds</text>
  </g>
  <g transform="translate(20,895 )" id="entity-RuleType-d54df1a6-a17d-5920-9344-6f805c739e55">
    <rect height="75" width="100" y="0" x="0" class="er entityBox"/>
    <text style="dominant-baseline: middle; text-anchor: middle; font-size: 12px;" transform="translate(50,37.5)" y="0" x="0" id="text-entity-RuleType-d54df1a6-a17d-5920-9344-6f805c739e55" class="er entityLabel">RuleType</text>
  </g>
  <g transform="translate(2435.761184692383,720 )" id="entity-Prefix-f6d97b99-faee-5974-b12e-390868d79e86">
    <rect height="75" width="100" y="0" x="0" class="er entityBox"/>
    <text style="dominant-baseline: middle; text-anchor: middle; font-size: 12px;" transform="translate(50,37.5)" y="0" x="0" id="text-entity-Prefix-f6d97b99-faee-5974-b12e-390868d79e86" class="er entityLabel">Prefix</text>
  </g>
  <g transform="translate(1135.1163711547852,545 )" id="entity-UCUMcs-8df33f70-0c53-5f8e-a81f-0969bc803a34">
    <rect height="75" width="100" y="0" x="0" class="er entityBox"/>
    <text style="dominant-baseline: middle; text-anchor: middle; font-size: 12px;" transform="translate(50,37.5)" y="0" x="0" id="text-entity-UCUMcs-8df33f70-0c53-5f8e-a81f-0969bc803a34" class="er entityLabel">UCUMcs</text>
  </g>
  <g transform="translate(1335.1163711547852,545 )" id="entity-Class-d9e3eb4a-97c0-50b6-8e3f-7f4a2fa7283d">
    <rect height="75" width="100" y="0" x="0" class="er entityBox"/>
    <text style="dominant-baseline: middle; text-anchor: middle; font-size: 12px;" transform="translate(50,37.5)" y="0" x="0" id="text-entity-Class-d9e3eb4a-97c0-50b6-8e3f-7f4a2fa7283d" class="er entityLabel">__Class</text>
  </g>
  <rect height="14" width="50.668304443359375" y="482.6593322753906" x="356.2483367919922" class="er relationshipLabelBox"/>
  <text style="text-anchor: middle; dominant-baseline: middle; font-size: 12px;" y="489.6593322753906" x="381.5824890136719" id="rel1" class="er relationshipLabel">encoding</text>
  <rect height="14" width="105.83673095703125" y="478.6109619140625" x="499.3665466308594" class="er relationshipLabelBox"/>
  <text style="text-anchor: middle; dominant-baseline: middle; font-size: 12px;" y="485.6109619140625" x="552.284912109375" id="rel2" class="er relationshipLabel">bitOrder, byteOrder</text>
  <rect height="14" width="57.58837890625" y="482.6591796875" x="759.6790771484375" class="er relationshipLabelBox"/>
  <text style="text-anchor: middle; dominant-baseline: middle; font-size: 12px;" y="489.6591796875" x="788.4732666015625" id="rel3" class="er relationshipLabel">cardinality</text>
  <rect height="14" width="28.4041748046875" y="400.5" x="1295.8009643554688" class="er relationshipLabelBox"/>
  <text style="text-anchor: middle; dominant-baseline: middle; font-size: 12px;" y="407.5" x="1310.0030517578125" id="rel4" class="er relationshipLabel">basis</text>
  <rect height="14" width="68.28125" y="476.2073974609375" x="928.030029296875" class="er relationshipLabelBox"/>
  <text style="text-anchor: middle; dominant-baseline: middle; font-size: 12px;" y="483.2073974609375" x="962.170654296875" id="rel5" class="er relationshipLabel">orderedType</text>
  <rect height="14" width="43.296875" y="460.5530090332031" x="300.6744384765625" class="er relationshipLabelBox"/>
  <text style="text-anchor: middle; dominant-baseline: middle; font-size: 12px;" y="467.5530090332031" x="322.3228759765625" id="rel6" class="er relationshipLabel">hasRule</text>
  <rect height="14" width="74.908447265625" y="111.78703308105469" x="609.2991943359375" class="er relationshipLabelBox"/>
  <text style="text-anchor: middle; dominant-baseline: middle; font-size: 12px;" y="118.78703308105469" x="646.75341796875" id="rel7" class="er relationshipLabel">dataEncoding</text>
  <rect height="14" width="48.328125" y="129.7109832763672" x="800.0538940429688" class="er relationshipLabelBox"/>
  <text style="text-anchor: middle; dominant-baseline: middle; font-size: 12px;" y="136.7109832763672" x="824.2179565429688" id="rel8" class="er relationshipLabel">datatype</text>
  <rect height="14" width="128.1568603515625" y="147.58395385742188" x="1568.0177612304688" class="er relationshipLabelBox"/>
  <text style="text-anchor: middle; dominant-baseline: middle; font-size: 12px;" y="154.58395385742188" x="1632.09619140625" id="rel9" class="er relationshipLabel">applicableUnit, hasUnit</text>
  <rect height="14" width="61.453125" y="50.49999237060547" x="1336.702392578125" class="er relationshipLabelBox"/>
  <text style="text-anchor: middle; dominant-baseline: middle; font-size: 12px;" y="57.49999237060547" x="1367.428955078125" id="rel10" class="er relationshipLabel">exactMatch</text>
  <rect height="14" width="90.4375" y="642.0938720703125" x="291.7536315917969" class="er relationshipLabelBox"/>
  <text style="text-anchor: middle; dominant-baseline: middle; font-size: 12px;" y="649.0938720703125" x="336.9723815917969" id="rel11" class="er relationshipLabel">hasQuantityKind</text>
  <rect height="14" width="111.8487548828125" y="208.0996551513672" x="1502.3582153320312" class="er relationshipLabelBox"/>
  <text style="text-anchor: middle; dominant-baseline: middle; font-size: 12px;" y="215.0996551513672" x="1558.2825927734375" id="rel12" class="er relationshipLabel">hasDimensionVector</text>
  <rect height="14" width="75.265625" y="114.9273681640625" x="1010.762451171875" class="er relationshipLabelBox"/>
  <text style="text-anchor: middle; dominant-baseline: middle; font-size: 12px;" y="121.9273681640625" x="1048.395263671875" id="rel13" class="er relationshipLabel">quantityValue</text>
  <rect height="14" width="95.78125" y="120.74609375" x="1902.4755859375" class="er relationshipLabelBox"/>
  <text style="text-anchor: middle; dominant-baseline: middle; font-size: 12px;" y="127.74609375" x="1950.3662109375" id="rel14" class="er relationshipLabel">applicableSystem</text>
  <rect height="14" width="119.078125" y="797.3099365234375" x="991.3148193359375" class="er relationshipLabelBox"/>
  <text style="text-anchor: middle; dominant-baseline: middle; font-size: 12px;" y="804.3099365234375" x="1050.8538818359375" id="rel15" class="er relationshipLabel">dimensionVectorForSI</text>
  <rect height="14" width="61.453125" y="750.5" x="2064.79833984375" class="er relationshipLabelBox"/>
  <text style="text-anchor: middle; dominant-baseline: middle; font-size: 12px;" y="757.5" x="2095.52490234375" id="rel16" class="er relationshipLabel">exactMatch</text>
  <rect height="14" width="304.4981689453125" y="637.2389526367188" x="1700.5698852539062" class="er relationshipLabelBox"/>
  <text style="text-anchor: middle; dominant-baseline: middle; font-size: 12px;" y="644.2389526367188" x="1852.8189697265625" id="rel17" class="er relationshipLabel">hasDimensionVector, qkdvDenominator, qkdvNumerator</text>
  <rect height="14" width="163.4290771484375" y="838" x="1766.5874633789062" class="er relationshipLabelBox"/>
  <text style="text-anchor: middle; dominant-baseline: middle; font-size: 12px;" y="845" x="1848.302001953125" id="rel18" class="er relationshipLabel">belongsToSystemOfQuantities</text>
  <rect height="14" width="675.57666015625" y="609.710693359375" x="1716.380615234375" class="er relationshipLabelBox"/>
  <text style="text-anchor: middle; dominant-baseline: middle; font-size: 12px;" y="616.710693359375" x="2054.1689453125" id="rel19" class="er relationshipLabel">applicableCGSUnit, applicableISOUnit, applicableImperialUnit, applicableSIUnit, applicableUSCustomaryUnit, applicableUnit</text>
  <rect height="14" width="144.375" y="687.7562255859375" x="1626.380126953125" class="er relationshipLabelBox"/>
  <text style="text-anchor: middle; dominant-baseline: middle; font-size: 12px;" y="694.7562255859375" x="1698.567626953125" id="rel20" class="er relationshipLabel">hasReferenceQuantityKind</text>
  <rect height="14" width="43.296875" y="624.358154296875" x="785.6343383789062" class="er relationshipLabelBox"/>
  <text style="text-anchor: middle; dominant-baseline: middle; font-size: 12px;" y="631.358154296875" x="807.2827758789062" id="rel21" class="er relationshipLabel">hasRule</text>
  <rect height="14" width="74.908447265625" y="293.7367858886719" x="675.6295166015625" class="er relationshipLabelBox"/>
  <text style="text-anchor: middle; dominant-baseline: middle; font-size: 12px;" y="300.7367858886719" x="713.083740234375" id="rel22" class="er relationshipLabel">dataEncoding</text>
  <rect height="14" width="48.328125" y="324.58233642578125" x="937.53173828125" class="er relationshipLabelBox"/>
  <text style="text-anchor: middle; dominant-baseline: middle; font-size: 12px;" y="331.58233642578125" x="961.69580078125" id="rel23" class="er relationshipLabel">datatype</text>
  <rect height="14" width="42.404296875" y="272.0340270996094" x="1518.408447265625" class="er relationshipLabelBox"/>
  <text style="text-anchor: middle; dominant-baseline: middle; font-size: 12px;" y="279.0340270996094" x="1539.610595703125" id="rel24" class="er relationshipLabel">hasUnit</text>
  <rect height="14" width="46.921875" y="838" x="46.5390625" class="er relationshipLabelBox"/>
  <text style="text-anchor: middle; dominant-baseline: middle; font-size: 12px;" y="845" x="70" id="rel25" class="er relationshipLabel">ruleType</text>
  <rect height="14" width="149.9130859375" y="114.0830078125" x="1953.1234130859375" class="er relationshipLabelBox"/>
  <text style="text-anchor: middle; dominant-baseline: middle; font-size: 12px;" y="121.0830078125" x="2028.0799560546875" id="rel26" class="er relationshipLabel">applicablePhysicalConstant</text>
  <rect height="14" width="30.840087890625" y="670.434814453125" x="2384.7037353515625" class="er relationshipLabelBox"/>
  <text style="text-anchor: middle; dominant-baseline: middle; font-size: 12px;" y="677.434814453125" x="2400.123779296875" id="rel27" class="er relationshipLabel">prefix</text>
  <rect height="14" width="622.59619140625" y="449.3829040527344" x="1946.458740234375" class="er relationshipLabelBox"/>
  <text style="text-anchor: middle; dominant-baseline: middle; font-size: 12px;" y="456.3829040527344" x="2257.7568359375" id="rel28" class="er relationshipLabel">hasAllowedUnit, hasBaseUnit, hasCoherentUnit, hasDefinedUnit, hasDerivedCoherentUnit, hasDerivedUnit, hasUnit</text>
  <rect height="14" width="304.4981689453125" y="467.3343200683594" x="1612.3546752929688" class="er relationshipLabelBox"/>
  <text style="text-anchor: middle; dominant-baseline: middle; font-size: 12px;" y="474.3343200683594" x="1764.603759765625" id="rel29" class="er relationshipLabel">hasDimensionVector, qkdvDenominator, qkdvNumerator</text>
  <rect height="14" width="30.840087890625" y="467.74786376953125" x="2408.5350341796875" class="er relationshipLabelBox"/>
  <text style="text-anchor: middle; dominant-baseline: middle; font-size: 12px;" y="474.74786376953125" x="2423.955078125" id="rel30" class="er relationshipLabel">prefix</text>
  <rect height="14" width="90.4375" y="569.9981689453125" x="1810.5440673828125" class="er relationshipLabelBox"/>
  <text style="text-anchor: middle; dominant-baseline: middle; font-size: 12px;" y="576.9981689453125" x="1855.7628173828125" id="rel31" class="er relationshipLabel">hasQuantityKind</text>
  <rect height="14" width="597.5625" y="456.10784912109375" x="1882.052001953125" class="er relationshipLabelBox"/>
  <text style="text-anchor: middle; dominant-baseline: middle; font-size: 12px;" y="463.10784912109375" x="2180.833251953125" id="rel32" class="er relationshipLabel">applicableSystem, definedUnitOfSystem, derivedCoherentUnitOfSystem, derivedUnitOfSystem, isUnitOfSystem</text>
  <rect height="14" width="57.078125" y="449.7177734375" x="1492.2550048828125" class="er relationshipLabelBox"/>
  <text style="text-anchor: middle; dominant-baseline: middle; font-size: 12px;" y="456.7177734375" x="1520.7940673828125" id="rel33" class="er relationshipLabel">ucumCode</text>
  <rect height="14" width="223.149658203125" y="400.5" x="2010.7701416015625" class="er relationshipLabelBox"/>
  <text style="text-anchor: middle; dominant-baseline: middle; font-size: 12px;" y="407.5" x="2122.344970703125" id="rel34" class="er relationshipLabel">exactMatch, hasReciprocalUnit, scalingOf</text>
  <rect height="14" width="75.6324462890625" y="451.5898742675781" x="1581.6502075195312" class="er relationshipLabelBox"/>
  <text style="text-anchor: middle; dominant-baseline: middle; font-size: 12px;" y="458.5898742675781" x="1619.4664306640625" id="rel35" class="er relationshipLabel">hasFactorUnit</text>
</svg>
