<svg aria-roledescription="er" role="graphics-document document" viewBox="-39.08721923828125 0 4749.115234375 1340" height="1340" xmlns="http://www.w3.org/2000/svg" width="4749.115234375" id="container"><style>#container{font-family:"trebuchet ms",verdana,arial,sans-serif;font-size:16px;fill:#333;}#container .error-icon{fill:#552222;}#container .error-text{fill:#552222;stroke:#552222;}#container .edge-thickness-normal{stroke-width:1px;}#container .edge-thickness-thick{stroke-width:3.5px;}#container .edge-pattern-solid{stroke-dasharray:0;}#container .edge-thickness-invisible{stroke-width:0;fill:none;}#container .edge-pattern-dashed{stroke-dasharray:3;}#container .edge-pattern-dotted{stroke-dasharray:2;}#container .marker{fill:#333333;stroke:#333333;}#container .marker.cross{stroke:#333333;}#container svg{font-family:"trebuchet ms",verdana,arial,sans-serif;font-size:16px;}#container p{margin:0;}#container .entityBox{fill:#ECECFF;stroke:#9370DB;}#container .attributeBoxOdd{fill:#ffffff;stroke:#9370DB;}#container .attributeBoxEven{fill:#f2f2f2;stroke:#9370DB;}#container .relationshipLabelBox{fill:hsl(80, 100%, 96.2745098039%);opacity:0.7;background-color:hsl(80, 100%, 96.2745098039%);}#container .relationshipLabelBox rect{opacity:0.5;}#container .relationshipLine{stroke:#333333;}#container .entityTitleText{text-anchor:middle;font-size:18px;fill:#333;}#container #MD_PARENT_START{fill:#f5f5f5!important;stroke:#333333!important;stroke-width:1;}#container #MD_PARENT_END{fill:#f5f5f5!important;stroke:#333333!important;stroke-width:1;}#container :root{--mermaid-font-family:"trebuchet ms",verdana,arial,sans-serif;}</style><g></g><defs><marker orient="auto" markerHeight="240" markerWidth="190" refY="7" refX="0" id="MD_PARENT_START"><path d="M 18,7 L9,13 L1,7 L9,1 Z"></path></marker></defs><defs><marker orient="auto" markerHeight="28" markerWidth="20" refY="7" refX="19" id="MD_PARENT_END"><path d="M 18,7 L9,13 L1,7 L9,1 Z"></path></marker></defs><defs><marker orient="auto" markerHeight="18" markerWidth="18" refY="9" refX="0" id="ONLY_ONE_START"><path d="M9,0 L9,18 M15,0 L15,18" fill="none" stroke="gray"></path></marker></defs><defs><marker orient="auto" markerHeight="18" markerWidth="18" refY="9" refX="18" id="ONLY_ONE_END"><path d="M3,0 L3,18 M9,0 L9,18" fill="none" stroke="gray"></path></marker></defs><defs><marker orient="auto" markerHeight="18" markerWidth="30" refY="9" refX="0" id="ZERO_OR_ONE_START"><circle r="6" cy="9" cx="21" fill="white" stroke="gray"></circle><path d="M9,0 L9,18" fill="none" stroke="gray"></path></marker></defs><defs><marker orient="auto" markerHeight="18" markerWidth="30" refY="9" refX="30" id="ZERO_OR_ONE_END"><circle r="6" cy="9" cx="9" fill="white" stroke="gray"></circle><path d="M21,0 L21,18" fill="none" stroke="gray"></path></marker></defs><defs><marker orient="auto" markerHeight="36" markerWidth="45" refY="18" refX="18" id="ONE_OR_MORE_START"><path d="M0,18 Q 18,0 36,18 Q 18,36 0,18 M42,9 L42,27" fill="none" stroke="gray"></path></marker></defs><defs><marker orient="auto" markerHeight="36" markerWidth="45" refY="18" refX="27" id="ONE_OR_MORE_END"><path d="M3,9 L3,27 M9,18 Q27,0 45,18 Q27,36 9,18" fill="none" stroke="gray"></path></marker></defs><defs><marker orient="auto" markerHeight="36" markerWidth="57" refY="18" refX="18" id="ZERO_OR_MORE_START"><circle r="6" cy="18" cx="48" fill="white" stroke="gray"></circle><path d="M0,18 Q18,0 36,18 Q18,36 0,18" fill="none" stroke="gray"></path></marker></defs><defs><marker orient="auto" markerHeight="36" markerWidth="57" refY="18" refX="39" id="ZERO_OR_MORE_END"><circle r="6" cy="18" cx="9" fill="white" stroke="gray"></circle><path d="M21,18 Q39,0 57,18 Q39,36 21,18" fill="none" stroke="gray"></path></marker></defs><path style="stroke: gray; fill: none;" marker-start="url(#ONLY_ONE_START)" marker-end="url(#ZERO_OR_ONE_END)" d="M2982.591,78.454L3012.105,89.545C3041.62,100.636,3100.65,122.818,2988.496,146.997C2876.342,171.177,2593.003,197.353,2451.334,210.441L2309.665,223.53" class="er relationshipLine"></path><path style="stroke: gray; fill: none;" marker-start="url(#ONLY_ONE_START)" marker-end="url(#ZERO_OR_ONE_END)" d="M2871.066,66.066L2785.425,79.222C2699.784,92.377,2528.503,118.689,2429.085,140.178C2329.668,161.667,2302.115,178.333,2288.339,186.667L2274.562,195" class="er relationshipLine"></path><path style="stroke: gray; fill: none;" marker-start="url(#ONLY_ONE_START)" marker-end="url(#ZERO_OR_ONE_END)" d="M2871.066,60.866L2638.759,74.888C2406.451,88.911,1941.836,116.955,1815.904,143.635C1689.971,170.315,1902.722,195.631,2009.097,208.289L2115.472,220.946" class="er relationshipLine"></path><path style="stroke: gray; fill: none;" marker-start="url(#ONLY_ONE_START)" marker-end="url(#ZERO_OR_MORE_END)" d="M2871.066,60.649L2622.092,74.707C2373.118,88.766,1875.169,116.883,1626.195,145.525C1377.221,174.167,1377.221,203.333,1377.221,232.5C1377.221,261.667,1377.221,290.833,1377.221,320C1377.221,349.167,1377.221,378.333,1377.221,407.5C1377.221,436.667,1377.221,465.833,1377.221,495C1377.221,524.167,1377.221,553.333,1377.221,582.5C1377.221,611.667,1377.221,640.833,1377.221,670C1377.221,699.167,1377.221,728.333,1377.221,757.5C1377.221,786.667,1377.221,815.833,1360.554,840.139C1343.887,864.444,1310.554,883.889,1293.887,893.611L1277.221,903.333" class="er relationshipLine"></path><path style="stroke: gray; fill: none;" marker-start="url(#ONLY_ONE_START)" marker-end="url(#ZERO_OR_MORE_END)" d="M2982.591,72.159L3028.772,84.299C3074.954,96.439,3167.317,120.72,3213.498,147.443C3259.68,174.167,3259.68,203.333,3259.68,232.5C3259.68,261.667,3259.68,290.833,3135.277,319.073C3010.875,347.312,2762.069,374.623,2637.666,388.279L2513.264,401.935" class="er relationshipLine"></path><path style="stroke: gray; fill: none;" marker-start="url(#ONLY_ONE_START)" marker-end="url(#ZERO_OR_MORE_END)" d="M2982.591,61.695L3167.163,75.579C3351.736,89.463,3720.882,117.232,3905.455,145.699C4090.028,174.167,4090.028,203.333,4090.028,232.5C4090.028,261.667,4090.028,290.833,4090.028,320C4090.028,349.167,4090.028,378.333,4090.028,407.5C4090.028,436.667,4090.028,465.833,4090.028,495C4090.028,524.167,4090.028,553.333,4090.028,582.5C4090.028,611.667,4090.028,640.833,3902.046,669.323C3714.065,697.812,3338.102,725.625,3150.12,739.531L2962.139,753.437" class="er relationshipLine"></path><path style="stroke: gray; fill: none;" marker-start="url(#ONLY_ONE_START)" marker-end="url(#ZERO_OR_MORE_END)" d="M2982.591,62.089L3150.497,75.908C3318.403,89.726,3654.215,117.363,3822.121,145.765C3990.028,174.167,3990.028,203.333,3990.028,232.5C3990.028,261.667,3990.028,290.833,3990.028,320C3990.028,349.167,3990.028,378.333,3990.028,407.5C3990.028,436.667,3990.028,465.833,3990.028,495C3990.028,524.167,3990.028,553.333,3990.028,582.5C3990.028,611.667,3990.028,640.833,3818.713,669.26C3647.398,697.687,3304.769,725.375,3133.454,739.218L2962.139,753.062" class="er relationshipLine"></path><path style="stroke: gray; fill: none;" marker-start="url(#ONLY_ONE_START)" marker-end="url(#ZERO_OR_MORE_END)" d="M2982.591,62.566L3133.83,76.305C3285.07,90.044,3587.549,117.522,3738.788,145.844C3890.028,174.167,3890.028,203.333,3890.028,232.5C3890.028,261.667,3890.028,290.833,3890.028,320C3890.028,349.167,3890.028,378.333,3890.028,407.5C3890.028,436.667,3890.028,465.833,3890.028,495C3890.028,524.167,3890.028,553.333,3890.028,582.5C3890.028,611.667,3890.028,640.833,3735.38,669.185C3580.731,697.537,3271.435,725.074,3116.787,738.842L2962.139,752.611" class="er relationshipLine"></path><path style="stroke: gray; fill: none;" marker-start="url(#ONLY_ONE_START)" marker-end="url(#ZERO_OR_MORE_END)" d="M2982.591,63.152L3117.163,76.794C3251.736,90.435,3520.882,117.717,3655.455,145.942C3790.028,174.167,3790.028,203.333,3790.028,232.5C3790.028,261.667,3790.028,290.833,3790.028,320C3790.028,349.167,3790.028,378.333,3790.028,407.5C3790.028,436.667,3790.028,465.833,3790.028,495C3790.028,524.167,3790.028,553.333,3790.028,582.5C3790.028,611.667,3790.028,640.833,3652.046,669.093C3514.065,697.352,3238.102,724.704,3100.12,738.381L2962.139,752.057" class="er relationshipLine"></path><path style="stroke: gray; fill: none;" marker-start="url(#ONLY_ONE_START)" marker-end="url(#ZERO_OR_MORE_END)" d="M2982.591,63.893L3100.497,77.411C3218.403,90.929,3454.215,117.964,3572.121,146.066C3690.028,174.167,3690.028,203.333,3690.028,232.5C3690.028,261.667,3690.028,290.833,3690.028,320C3690.028,349.167,3690.028,378.333,3690.028,407.5C3690.028,436.667,3690.028,465.833,3690.028,495C3690.028,524.167,3690.028,553.333,3690.028,582.5C3690.028,611.667,3690.028,640.833,3568.713,668.977C3447.398,697.12,3204.769,724.241,3083.454,737.801L2962.139,751.361" class="er relationshipLine"></path><path style="stroke: gray; fill: none;" marker-start="url(#ONLY_ONE_START)" marker-end="url(#ZERO_OR_MORE_END)" d="M2871.066,59.852L2534.592,74.043C2198.118,88.235,1525.169,116.617,1188.695,145.392C852.221,174.167,852.221,203.333,852.221,232.5C852.221,261.667,852.221,290.833,852.221,320C852.221,349.167,852.221,378.333,852.221,407.5C852.221,436.667,852.221,465.833,852.221,495C852.221,524.167,852.221,553.333,852.221,582.5C852.221,611.667,852.221,640.833,847.459,663.75C842.697,686.667,833.173,703.333,828.411,711.667L823.649,720" class="er relationshipLine"></path><path style="stroke: gray; fill: none;" marker-start="url(#ONLY_ONE_START)" marker-end="url(#ZERO_OR_MORE_END)" d="M2982.591,64.857L3083.83,78.214C3185.07,91.571,3387.549,118.286,3488.788,146.226C3590.028,174.167,3590.028,203.333,3590.028,232.5C3590.028,261.667,3590.028,290.833,3590.028,320C3590.028,349.167,3590.028,378.333,3590.028,407.5C3590.028,436.667,3590.028,465.833,3420.751,494.316C3251.475,522.798,2912.922,550.596,2743.646,564.495L2574.369,578.395" class="er relationshipLine"></path><path style="stroke: gray; fill: none;" marker-start="url(#ONLY_ONE_START)" marker-end="url(#ZERO_OR_MORE_END)" d="M2982.591,66.163L3067.163,79.303C3151.736,92.442,3320.882,118.721,3405.455,146.444C3490.028,174.167,3490.028,203.333,3490.028,232.5C3490.028,261.667,3490.028,290.833,3490.028,320C3490.028,349.167,3490.028,378.333,3490.028,407.5C3490.028,436.667,3490.028,465.833,3337.418,494.245C3184.808,522.656,2879.589,550.313,2726.979,564.141L2574.369,577.969" class="er relationshipLine"></path><path style="stroke: gray; fill: none;" marker-start="url(#ONLY_ONE_START)" marker-end="url(#ZERO_OR_MORE_END)" d="M2982.591,68.034L3050.497,80.861C3118.403,93.689,3254.215,119.345,3322.121,146.756C3390.028,174.167,3390.028,203.333,3390.028,232.5C3390.028,261.667,3390.028,290.833,3390.028,320C3390.028,349.167,3390.028,378.333,3390.028,407.5C3390.028,436.667,3390.028,465.833,3254.085,494.158C3118.141,522.482,2846.255,549.964,2710.312,563.705L2574.369,577.446" class="er relationshipLine"></path><path style="stroke: gray; fill: none;" marker-start="url(#ONLY_ONE_START)" marker-end="url(#ZERO_OR_MORE_END)" d="M2871.066,60.103L2567.925,74.252C2264.784,88.402,1658.503,116.701,1355.362,145.434C1052.221,174.167,1052.221,203.333,1052.221,232.5C1052.221,261.667,1052.221,290.833,1052.221,320C1052.221,349.167,1052.221,378.333,1052.221,407.5C1052.221,436.667,1052.221,465.833,1052.221,495C1052.221,524.167,1052.221,553.333,1052.221,582.5C1052.221,611.667,1052.221,640.833,1047.459,663.75C1042.697,686.667,1033.173,703.333,1028.411,711.667L1023.649,720" class="er relationshipLine"></path><path style="stroke: gray; fill: none;" marker-start="url(#ONLY_ONE_START)" marker-end="url(#ZERO_OR_ONE_END)" d="M4294.734,970L4296.326,978.333C4297.918,986.667,4301.103,1003.333,4302.695,1026.25C4304.287,1049.167,4304.287,1078.333,4304.287,1107.5C4304.287,1136.667,4304.287,1165.833,3607.796,1194.818C2911.305,1223.804,1518.323,1252.607,821.832,1267.009L125.34,1281.411" class="er relationshipLine"></path><path style="stroke: gray; fill: none;" marker-start="url(#ONLY_ONE_START)" marker-end="url(#ZERO_OR_ONE_END)" d="M4349.049,945.867L4405.879,958.222C4462.708,970.578,4576.368,995.289,4633.198,1022.228C4690.028,1049.167,4690.028,1078.333,4690.028,1107.5C4690.028,1136.667,4690.028,1165.833,4685.031,1188.75C4680.035,1211.667,4670.043,1228.333,4665.047,1236.667L4660.051,1245" class="er relationshipLine"></path><path style="stroke: gray; fill: none;" marker-start="url(#ONLY_ONE_START)" marker-end="url(#ZERO_OR_ONE_END)" d="M4331.48,895L4341.238,886.667C4350.996,878.333,4370.512,861.667,4380.27,838.75C4390.028,815.833,4390.028,786.667,4390.028,757.5C4390.028,728.333,4390.028,699.167,4087.418,670.391C3784.808,641.615,3179.589,613.23,2876.979,599.038L2574.369,584.845" class="er relationshipLine"></path><path style="stroke: gray; fill: none;" marker-start="url(#ONLY_ONE_START)" marker-end="url(#ZERO_OR_MORE_END)" d="M4349.049,917.345L4364.158,913.621C4379.266,909.897,4409.484,902.448,4428.37,898.724C4447.256,895,4454.81,895,4462.364,901.25C4469.919,907.5,4477.473,920,4477.473,932.5C4477.473,945,4469.919,957.5,4462.364,963.75C4454.81,970,4447.256,970,4428.37,966.276C4409.484,962.552,4379.266,955.103,4364.158,951.379L4349.049,947.655" class="er relationshipLine"></path><path style="stroke: gray; fill: none;" marker-start="url(#ONLY_ONE_START)" marker-end="url(#ZERO_OR_MORE_END)" d="M4288.622,895L4288.857,886.667C4289.091,878.333,4289.559,861.667,4289.793,838.75C4290.028,815.833,4290.028,786.667,4290.028,757.5C4290.028,728.333,4290.028,699.167,4290.028,670C4290.028,640.833,4290.028,611.667,4290.028,582.5C4290.028,553.333,4290.028,524.167,3993.9,495.405C3697.773,466.642,3105.518,438.285,2809.391,424.106L2513.264,409.927" class="er relationshipLine"></path><path style="stroke: gray; fill: none;" marker-start="url(#ONLY_ONE_START)" marker-end="url(#ZERO_OR_MORE_END)" d="M4245.765,895L4236.476,886.667C4227.186,878.333,4208.607,861.667,4199.317,838.75C4190.028,815.833,4190.028,786.667,4190.028,757.5C4190.028,728.333,4190.028,699.167,4190.028,670C4190.028,640.833,4190.028,611.667,4190.028,582.5C4190.028,553.333,4190.028,524.167,4190.028,495C4190.028,465.833,4190.028,436.667,4190.028,407.5C4190.028,378.333,4190.028,349.167,3876.634,320.716C3563.24,292.265,2936.453,264.531,2623.059,250.664L2309.665,236.796" class="er relationshipLine"></path><path style="stroke: gray; fill: none;" marker-start="url(#ONLY_ONE_START)" marker-end="url(#ZERO_OR_MORE_END)" d="M4226.088,934.507L3789.61,948.756C3353.132,963.005,2480.177,991.502,2038.937,1014.085C1597.697,1036.667,1588.173,1053.333,1583.411,1061.667L1578.649,1070" class="er relationshipLine"></path><path style="stroke: gray; fill: none;" marker-start="url(#ONLY_ONE_START)" marker-end="url(#ZERO_OR_MORE_END)" d="M4226.088,928.603L4006.277,914.669C3786.466,900.735,3346.843,872.868,3127.032,850.6C2907.221,828.333,2907.221,811.667,2907.221,803.333L2907.221,795" class="er relationshipLine"></path><path style="stroke: gray; fill: none;" marker-start="url(#ONLY_ONE_START)" marker-end="url(#ZERO_OR_MORE_END)" d="M4226.088,930.455L3797.944,916.212C3369.799,901.97,2513.51,873.485,2085.365,844.659C1657.221,815.833,1657.221,786.667,1657.221,757.5C1657.221,728.333,1657.221,699.167,1793.412,670.841C1929.604,642.515,2201.986,615.03,2338.178,601.288L2474.369,587.545" class="er relationshipLine"></path><path style="stroke: gray; fill: none;" marker-start="url(#ONLY_ONE_START)" marker-end="url(#ZERO_OR_MORE_END)" d="M1277.221,918.438L1291.11,914.531C1304.999,910.625,1332.776,902.813,1350.137,898.906C1367.499,895,1374.443,895,1381.387,901.25C1388.332,907.5,1395.276,920,1395.276,932.5C1395.276,945,1388.332,957.5,1381.387,963.75C1374.443,970,1367.499,970,1350.137,966.094C1332.776,962.188,1304.999,954.375,1291.11,950.469L1277.221,946.563" class="er relationshipLine"></path><path style="stroke: gray; fill: none;" marker-start="url(#ONLY_ONE_START)" marker-end="url(#ZERO_OR_MORE_END)" d="M1227.221,970L1227.221,978.333C1227.221,986.667,1227.221,1003.333,1227.221,1020C1227.221,1036.667,1227.221,1053.333,1227.221,1061.667L1227.221,1070" class="er relationshipLine"></path><path style="stroke: gray; fill: none;" marker-start="url(#ONLY_ONE_START)" marker-end="url(#ZERO_OR_ONE_END)" d="M3190.028,408.846L2656.653,423.205C2123.279,437.564,1056.53,466.282,523.156,495.224C-10.218,524.167,-10.218,553.333,-10.218,582.5C-10.218,611.667,-10.218,640.833,-10.218,670C-10.218,699.167,-10.218,728.333,-10.218,757.5C-10.218,786.667,-10.218,815.833,-10.218,845C-10.218,874.167,-10.218,903.333,-10.218,932.5C-10.218,961.667,-10.218,990.833,-10.218,1020C-10.218,1049.167,-10.218,1078.333,-10.218,1107.5C-10.218,1136.667,-10.218,1165.833,-2.324,1188.75C5.57,1211.667,21.358,1228.333,29.252,1236.667L37.147,1245" class="er relationshipLine"></path><path style="stroke: gray; fill: none;" marker-start="url(#ONLY_ONE_START)" marker-end="url(#ZERO_OR_ONE_END)" d="M3290.028,410.741L3506.694,424.784C3723.361,438.827,4156.694,466.914,4373.361,495.54C4590.028,524.167,4590.028,553.333,4590.028,582.5C4590.028,611.667,4590.028,640.833,4590.028,670C4590.028,699.167,4590.028,728.333,4590.028,757.5C4590.028,786.667,4590.028,815.833,4590.028,845C4590.028,874.167,4590.028,903.333,4590.028,932.5C4590.028,961.667,4590.028,990.833,4590.028,1020C4590.028,1049.167,4590.028,1078.333,4590.028,1107.5C4590.028,1136.667,4590.028,1165.833,4594.555,1188.75C4599.083,1211.667,4608.138,1228.333,4612.666,1236.667L4617.194,1245" class="er relationshipLine"></path><path style="stroke: gray; fill: none;" marker-start="url(#ONLY_ONE_START)" marker-end="url(#ZERO_OR_ONE_END)" d="M3240.028,445L3240.028,453.333C3240.028,461.667,3240.028,478.333,3129.085,500.231C3018.141,522.129,2796.255,549.258,2685.312,562.822L2574.369,576.387" class="er relationshipLine"></path><path style="stroke: gray; fill: none;" marker-start="url(#ONLY_ONE_START)" marker-end="url(#ZERO_OR_ONE_END)" d="M2503.134,370L2512.148,361.667C2521.163,353.333,2539.192,336.667,2506.947,317.858C2474.702,299.05,2392.184,278.101,2350.924,267.626L2309.665,257.151" class="er relationshipLine"></path><path style="stroke: gray; fill: none;" marker-start="url(#ONLY_ONE_START)" marker-end="url(#ZERO_OR_ONE_END)" d="M2411.873,398.36L2339.431,385.3C2266.989,372.24,2122.105,346.12,2072.705,324.493C2023.305,302.867,2069.388,285.733,2092.43,277.166L2115.472,268.6" class="er relationshipLine"></path><path style="stroke: gray; fill: none;" marker-start="url(#ONLY_ONE_START)" marker-end="url(#ZERO_OR_ONE_END)" d="M2411.873,409.453L2041.85,423.711C1671.827,437.969,931.781,466.484,561.758,489.076C191.735,511.667,191.735,528.333,191.735,536.667L191.735,545" class="er relationshipLine"></path><path style="stroke: gray; fill: none;" marker-start="url(#ONLY_ONE_START)" marker-end="url(#ZERO_OR_MORE_END)" d="M2513.264,403.098L2576.793,397.582C2640.322,392.065,2767.381,381.033,2846.793,375.516C2926.204,370,2957.969,370,2989.734,376.25C3021.498,382.5,3053.263,395,3053.263,407.5C3053.263,420,3021.498,432.5,2989.734,438.75C2957.969,445,2926.204,445,2846.793,439.484C2767.381,433.967,2640.322,422.935,2576.793,417.418L2513.264,411.902" class="er relationshipLine"></path><path style="stroke: gray; fill: none;" marker-start="url(#ONLY_ONE_START)" marker-end="url(#ZERO_OR_MORE_END)" d="M2411.873,399.922L2322.764,386.602C2233.656,373.281,2055.438,346.641,2006.038,322.959C1956.638,299.278,2036.055,278.556,2075.763,268.196L2115.472,257.835" class="er relationshipLine"></path><path style="stroke: gray; fill: none;" marker-start="url(#ONLY_ONE_START)" marker-end="url(#ZERO_OR_MORE_END)" d="M2411.873,409.729L2088.72,423.941C1765.567,438.153,1119.261,466.576,796.108,489.122C472.954,511.667,472.954,528.333,472.954,536.667L472.954,545" class="er relationshipLine"></path><path style="stroke: gray; fill: none;" marker-start="url(#ONLY_ONE_START)" marker-end="url(#ZERO_OR_MORE_END)" d="M2513.264,415.253L2600.166,428.545C2687.069,441.836,2860.875,468.418,2871.059,494.863C2881.243,521.309,2727.806,547.618,2651.088,560.772L2574.369,573.927" class="er relationshipLine"></path><path style="stroke: gray; fill: none;" marker-start="url(#ONLY_ONE_START)" marker-end="url(#ZERO_OR_MORE_END)" d="M2513.264,416.896L2583.5,429.913C2653.736,442.93,2794.208,468.965,2804.392,494.789C2814.576,520.612,2694.473,546.225,2634.421,559.031L2574.369,571.837" class="er relationshipLine"></path><path style="stroke: gray; fill: none;" marker-start="url(#ONLY_ONE_START)" marker-end="url(#ZERO_OR_MORE_END)" d="M2513.264,419.421L2566.833,432.017C2620.403,444.614,2727.541,469.807,2737.725,494.637C2747.91,519.467,2661.139,543.934,2617.754,556.168L2574.369,568.401" class="er relationshipLine"></path><path style="stroke: gray; fill: none;" marker-start="url(#ONLY_ONE_START)" marker-end="url(#ZERO_OR_MORE_END)" d="M2411.873,423.045L2372.764,435.038C2333.656,447.03,2255.438,471.015,2265.854,495.49C2276.27,519.966,2375.32,544.932,2424.844,557.414L2474.369,569.897" class="er relationshipLine"></path><path style="stroke: gray; fill: none;" marker-start="url(#ONLY_ONE_START)" marker-end="url(#ZERO_OR_MORE_END)" d="M2411.873,419.011L2356.098,431.676C2300.322,444.341,2188.772,469.67,2199.188,495.288C2209.604,520.905,2341.986,546.811,2408.178,559.763L2474.369,572.716" class="er relationshipLine"></path><path style="stroke: gray; fill: none;" marker-start="url(#ONLY_ONE_START)" marker-end="url(#ZERO_OR_MORE_END)" d="M2411.873,416.64L2339.431,429.7C2266.989,442.76,2122.105,468.88,2132.521,495.191C2142.937,521.501,2308.653,548.003,2391.511,561.253L2474.369,574.504" class="er relationshipLine"></path><path style="stroke: gray; fill: none;" marker-start="url(#ONLY_ONE_START)" marker-end="url(#ZERO_OR_MORE_END)" d="M2309.665,241.97L2443.001,254.975C2576.337,267.98,2843.008,293.99,2876.941,320.436C2910.875,346.882,2712.069,373.763,2612.666,387.204L2513.264,400.645" class="er relationshipLine"></path><path style="stroke: gray; fill: none;" marker-start="url(#ONLY_ONE_START)" marker-end="url(#ZERO_OR_MORE_END)" d="M2115.472,238.125L1879.93,251.771C1644.388,265.417,1173.305,292.708,937.763,314.688C702.221,336.667,702.221,353.333,702.221,361.667L702.221,370" class="er relationshipLine"></path><path style="stroke: gray; fill: none;" marker-start="url(#ONLY_ONE_START)" marker-end="url(#ZERO_OR_ONE_END)" d="M1504.033,1110.291L1234.991,1124.409C965.949,1138.527,427.866,1166.764,180.527,1191.265C-66.812,1215.767,-23.406,1236.534,-1.703,1246.917L20,1257.301" class="er relationshipLine"></path><path style="stroke: gray; fill: none;" marker-start="url(#ONLY_ONE_START)" marker-end="url(#ZERO_OR_ONE_END)" d="M1610.408,1109.106L2084.388,1123.422C2558.368,1137.738,3506.328,1166.369,4002.521,1191.289C4498.714,1216.21,4543.141,1237.42,4565.355,1248.025L4587.568,1258.63" class="er relationshipLine"></path><path style="stroke: gray; fill: none;" marker-start="url(#ONLY_ONE_START)" marker-end="url(#ZERO_OR_ONE_END)" d="M1535.792,1070L1531.03,1061.667C1526.268,1053.333,1516.745,1036.667,1511.983,1013.75C1507.221,990.833,1507.221,961.667,1507.221,932.5C1507.221,903.333,1507.221,874.167,1507.221,845C1507.221,815.833,1507.221,786.667,1507.221,757.5C1507.221,728.333,1507.221,699.167,1668.412,670.717C1829.604,642.267,2151.986,614.534,2313.178,600.668L2474.369,586.801" class="er relationshipLine"></path><path style="stroke: gray; fill: none;" marker-start="url(#ONLY_ONE_START)" marker-end="url(#ZERO_OR_MORE_END)" d="M702.221,445L702.221,453.333C702.221,461.667,702.221,478.333,702.221,495C702.221,511.667,702.221,528.333,702.221,536.667L702.221,545" class="er relationshipLine"></path><path style="stroke: gray; fill: none;" marker-start="url(#ONLY_ONE_START)" marker-end="url(#ZERO_OR_MORE_END)" d="M2962.139,760.536L3216.787,774.613C3471.435,788.691,3980.731,816.845,4211.883,841.078C4443.035,865.31,4396.042,885.619,4372.545,895.774L4349.049,905.929" class="er relationshipLine"></path><path style="stroke: gray; fill: none;" marker-start="url(#ONLY_ONE_START)" marker-end="url(#ZERO_OR_MORE_END)" d="M2852.303,760.448L2589.789,774.54C2327.275,788.632,1802.248,816.816,1534.973,839.241C1267.697,861.667,1258.173,878.333,1253.411,886.667L1248.649,895" class="er relationshipLine"></path><path style="stroke: gray; fill: none;" marker-start="url(#ONLY_ONE_START)" marker-end="url(#ZERO_OR_MORE_END)" d="M2937.053,720L2943.682,711.667C2950.311,703.333,2963.57,686.667,2903.123,665.362C2842.675,644.056,2708.522,618.113,2641.446,605.141L2574.369,592.169" class="er relationshipLine"></path><path style="stroke: gray; fill: none;" marker-start="url(#ONLY_ONE_START)" marker-end="url(#ZERO_OR_MORE_END)" d="M2894.195,720L2891.301,711.667C2888.406,703.333,2882.617,686.667,2829.313,665.819C2776.009,644.971,2675.189,619.942,2624.779,607.427L2574.369,594.913" class="er relationshipLine"></path><path style="stroke: gray; fill: none;" marker-start="url(#ONLY_ONE_START)" marker-end="url(#ZERO_OR_MORE_END)" d="M2852.303,720.647L2839.724,712.206C2827.144,703.765,2801.986,686.882,2755.664,666.746C2709.342,646.61,2641.856,623.22,2608.112,611.525L2574.369,599.83" class="er relationshipLine"></path><path style="stroke: gray; fill: none;" marker-start="url(#ONLY_ONE_START)" marker-end="url(#ZERO_OR_MORE_END)" d="M2852.303,751.658L2724.365,738.048C2596.428,724.439,2340.554,697.219,2277.565,670.685C2214.576,644.15,2344.473,618.3,2409.421,605.375L2474.369,592.45" class="er relationshipLine"></path><path style="stroke: gray; fill: none;" marker-start="url(#ONLY_ONE_START)" marker-end="url(#ZERO_OR_MORE_END)" d="M2852.303,752.291L2707.699,738.576C2563.095,724.861,2273.887,697.43,2210.899,670.483C2147.91,643.536,2311.139,617.071,2392.754,603.839L2474.369,590.607" class="er relationshipLine"></path><path style="stroke: gray; fill: none;" marker-start="url(#ONLY_ONE_START)" marker-end="url(#ZERO_OR_MORE_END)" d="M2852.303,752.801L2691.032,739C2529.762,725.2,2207.221,697.6,2144.232,670.357C2081.243,643.113,2277.806,616.226,2376.088,602.783L2474.369,589.339" class="er relationshipLine"></path><path style="stroke: gray; fill: none;" marker-start="url(#ONLY_ONE_START)" marker-end="url(#ZERO_OR_MORE_END)" d="M2852.303,753.219L2674.365,739.349C2496.428,725.479,2140.554,697.74,2077.565,670.272C2014.576,642.805,2244.473,615.61,2359.421,602.012L2474.369,588.415" class="er relationshipLine"></path><path style="stroke: gray; fill: none;" marker-start="url(#ONLY_ONE_START)" marker-end="url(#ZERO_OR_ONE_END)" d="M2474.369,576.644L2358.178,563.037C2241.986,549.43,2009.604,522.215,1893.412,494.024C1777.221,465.833,1777.221,436.667,1777.221,407.5C1777.221,378.333,1777.221,349.167,1833.596,323.253C1889.971,297.338,2002.722,274.677,2059.097,263.346L2115.472,252.015" class="er relationshipLine"></path><path style="stroke: gray; fill: none;" marker-start="url(#ONLY_ONE_START)" marker-end="url(#ZERO_OR_ONE_END)" d="M2474.369,577.336L2341.511,563.613C2208.653,549.89,1942.937,522.445,1810.079,494.139C1677.221,465.833,1677.221,436.667,1677.221,407.5C1677.221,378.333,1677.221,349.167,1750.263,322.645C1823.305,296.123,1969.388,272.247,2042.43,260.308L2115.472,248.37" class="er relationshipLine"></path><path style="stroke: gray; fill: none;" marker-start="url(#ONLY_ONE_START)" marker-end="url(#ZERO_OR_ONE_END)" d="M2474.369,577.881L2324.844,564.067C2175.32,550.254,1876.27,522.627,1726.746,494.23C1577.221,465.833,1577.221,436.667,1577.221,407.5C1577.221,378.333,1577.221,349.167,1666.929,322.229C1756.638,295.291,1936.055,270.581,2025.763,258.227L2115.472,245.872" class="er relationshipLine"></path><path style="stroke: gray; fill: none;" marker-start="url(#ONLY_ONE_START)" marker-end="url(#ZERO_OR_MORE_END)" d="M2474.369,585.748L2258.178,599.79C2041.986,613.832,1609.604,641.916,1393.412,670.541C1177.221,699.167,1177.221,728.333,1177.221,757.5C1177.221,786.667,1177.221,815.833,1181.983,838.75C1186.745,861.667,1196.268,878.333,1201.03,886.667L1205.792,895" class="er relationshipLine"></path><path style="stroke: gray; fill: none;" marker-start="url(#ONLY_ONE_START)" marker-end="url(#ZERO_OR_MORE_END)" d="M2474.369,578.322L2308.178,564.435C2141.986,550.548,1809.604,522.774,1799.188,495.054C1788.772,467.334,2100.322,439.668,2256.098,425.835L2411.873,412.002" class="er relationshipLine"></path><path style="stroke: gray; fill: none;" marker-start="url(#ONLY_ONE_START)" marker-end="url(#ZERO_OR_MORE_END)" d="M2574.369,587.093L2724.779,600.911C2875.189,614.729,3176.009,642.364,3240.637,669.36C3305.265,696.355,3133.702,722.709,3047.921,735.886L2962.139,749.064" class="er relationshipLine"></path><path style="stroke: gray; fill: none;" marker-start="url(#ONLY_ONE_START)" marker-end="url(#ZERO_OR_MORE_END)" d="M2574.369,587.632L2708.112,601.36C2841.856,615.088,3109.342,642.544,3173.97,669.15C3238.599,695.756,3100.369,721.512,3031.254,734.389L2962.139,747.267" class="er relationshipLine"></path><path style="stroke: gray; fill: none;" marker-start="url(#ONLY_ONE_START)" marker-end="url(#ZERO_OR_MORE_END)" d="M2574.369,588.314L2691.446,601.929C2808.522,615.543,3042.675,642.771,3107.304,668.802C3171.932,694.833,3067.035,719.666,3014.587,732.082L2962.139,744.499" class="er relationshipLine"></path><path style="stroke: gray; fill: none;" marker-start="url(#ONLY_ONE_START)" marker-end="url(#ZERO_OR_MORE_END)" d="M2574.369,589.205L2674.779,602.671C2775.189,616.137,2976.009,643.068,3040.637,668.147C3105.265,693.226,3033.702,716.451,2997.921,728.064L2962.139,739.677" class="er relationshipLine"></path><path style="stroke: gray; fill: none;" marker-start="url(#ONLY_ONE_START)" marker-end="url(#ZERO_OR_MORE_END)" d="M2574.369,590.419L2658.112,603.683C2741.856,616.946,2909.342,643.473,2973.97,666.598C3038.599,689.723,3000.369,709.445,2981.254,719.307L2962.139,729.168" class="er relationshipLine"></path><path style="stroke: gray; fill: none;" marker-start="url(#ONLY_ONE_START)" marker-end="url(#ZERO_OR_MORE_END)" d="M2474.369,584.58L2132.141,598.817C1789.913,613.053,1105.457,641.527,818.433,668.434C531.408,695.341,641.814,720.682,697.018,733.353L752.221,746.024" class="er relationshipLine"></path><path style="stroke: gray; fill: none;" marker-start="url(#ONLY_ONE_START)" marker-end="url(#ZERO_OR_MORE_END)" d="M2574.369,578.002L2635.515,572.502C2696.66,567.001,2818.952,556.001,2895.384,550.5C2971.816,545,3002.389,545,3032.961,551.25C3063.534,557.5,3094.107,570,3094.107,582.5C3094.107,595,3063.534,607.5,3032.961,613.75C3002.389,620,2971.816,620,2895.384,614.5C2818.952,608.999,2696.66,597.999,2635.515,592.498L2574.369,586.998" class="er relationshipLine"></path><path style="stroke: gray; fill: none;" marker-start="url(#ONLY_ONE_START)" marker-end="url(#ZERO_OR_MORE_END)" d="M2574.369,578.675L2647.737,573.063C2721.105,567.45,2867.841,556.225,2959.55,550.613C3051.26,545,3087.944,545,3124.628,551.25C3161.312,557.5,3197.996,570,3197.996,582.5C3197.996,595,3161.312,607.5,3124.628,613.75C3087.944,620,3051.26,620,2959.55,614.387C2867.841,608.775,2721.105,597.55,2647.737,591.937L2574.369,586.325" class="er relationshipLine"></path><path style="stroke: gray; fill: none;" marker-start="url(#ONLY_ONE_START)" marker-end="url(#ZERO_OR_MORE_END)" d="M2574.369,579.173L2659.959,573.477C2745.549,567.782,2916.73,556.391,3023.717,550.695C3130.705,545,3173.5,545,3216.295,551.25C3259.09,557.5,3301.885,570,3301.885,582.5C3301.885,595,3259.09,607.5,3216.295,613.75C3173.5,620,3130.705,620,3023.717,614.305C2916.73,608.609,2745.549,597.218,2659.959,591.523L2574.369,585.827" class="er relationshipLine"></path><path style="stroke: gray; fill: none;" marker-start="url(#ONLY_ONE_START)" marker-end="url(#ZERO_OR_MORE_END)" d="M2474.369,585.283L2220.678,599.402C1966.986,613.522,1459.604,641.761,1210.674,664.214C961.745,686.667,971.268,703.333,976.03,711.667L980.792,720" class="er relationshipLine"></path><g transform="translate(2871.066059112549,20 )" id="entity-ContextualUnit-4d0c347e-427b-5587-9ab8-7f76b763f025"><rect height="75" width="111.5245361328125" y="0" x="0" class="er entityBox"></rect><text style="dominant-baseline: middle; text-anchor: middle; font-size: 12px;" transform="translate(55.76226806640625,37.5)" y="0" x="0" id="text-entity-ContextualUnit-4d0c347e-427b-5587-9ab8-7f76b763f025" class="er entityLabel">ContextualUnit</text></g><g transform="translate(4226.088180541992,895 )" id="entity-PhysicalConstant-f43f8855-cf72-5deb-8dd3-7b0283708583"><rect height="75" width="122.96058654785156" y="0" x="0" class="er entityBox"></rect><text style="dominant-baseline: middle; text-anchor: middle; font-size: 12px;" transform="translate(61.48029327392578,37.5)" y="0" x="0" id="text-entity-PhysicalConstant-f43f8855-cf72-5deb-8dd3-7b0283708583" class="er entityLabel">PhysicalConstant</text></g><g transform="translate(1177.220817565918,895 )" id="entity-Prefix-f6d97b99-faee-5974-b12e-390868d79e86"><rect height="75" width="100" y="0" x="0" class="er entityBox"></rect><text style="dominant-baseline: middle; text-anchor: middle; font-size: 12px;" transform="translate(50,37.5)" y="0" x="0" id="text-entity-Prefix-f6d97b99-faee-5974-b12e-390868d79e86" class="er entityLabel">Prefix</text></g><g transform="translate(3190.027603149414,370 )" id="entity-Quantifiable-82d4468d-7a40-5b3c-81f8-69036607af45"><rect height="75" width="100" y="0" x="0" class="er entityBox"></rect><text style="dominant-baseline: middle; text-anchor: middle; font-size: 12px;" transform="translate(50,37.5)" y="0" x="0" id="text-entity-Quantifiable-82d4468d-7a40-5b3c-81f8-69036607af45" class="er entityLabel">Quantifiable</text></g><g transform="translate(2411.873161315918,370 )" id="entity-QuantityKind-6f79b338-e354-5d95-8035-8883644476ff"><rect height="75" width="101.390625" y="0" x="0" class="er entityBox"></rect><text style="dominant-baseline: middle; text-anchor: middle; font-size: 12px;" transform="translate(50.6953125,37.5)" y="0" x="0" id="text-entity-QuantityKind-6f79b338-e354-5d95-8035-8883644476ff" class="er entityLabel">QuantityKind</text></g><g transform="translate(2115.4719314575195,195 )" id="entity-QuantityKindDimensionVector-bfa1bf26-fcae-516f-8f63-2f454f3dac1b"><rect height="75" width="194.19308471679688" y="0" x="0" class="er entityBox"></rect><text style="dominant-baseline: middle; text-anchor: middle; font-size: 12px;" transform="translate(97.09654235839844,37.5)" y="0" x="0" id="text-entity-QuantityKindDimensionVector-bfa1bf26-fcae-516f-8f63-2f454f3dac1b" class="er entityLabel">QuantityKindDimensionVector</text></g><g transform="translate(1504.033317565918,1070 )" id="entity-QuantityValue-f2bc13d2-1961-5e2a-9bfe-ab6a05a5860b"><rect height="75" width="106.375" y="0" x="0" class="er entityBox"></rect><text style="dominant-baseline: middle; text-anchor: middle; font-size: 12px;" transform="translate(53.1875,37.5)" y="0" x="0" id="text-entity-QuantityValue-f2bc13d2-1961-5e2a-9bfe-ab6a05a5860b" class="er entityLabel">QuantityValue</text></g><g transform="translate(652.220817565918,370 )" id="entity-Rule-886caf8e-59ff-5db3-a492-27242971196f"><rect height="75" width="100" y="0" x="0" class="er entityBox"></rect><text style="dominant-baseline: middle; text-anchor: middle; font-size: 12px;" transform="translate(50,37.5)" y="0" x="0" id="text-entity-Rule-886caf8e-59ff-5db3-a492-27242971196f" class="er entityLabel">Rule</text></g><g transform="translate(2852.302558898926,720 )" id="entity-SystemOfUnits-f7f1da8e-a5af-50e1-94d0-c2e741f40e1d"><rect height="75" width="109.83651733398438" y="0" x="0" class="er entityBox"></rect><text style="dominant-baseline: middle; text-anchor: middle; font-size: 12px;" transform="translate(54.91825866699219,37.5)" y="0" x="0" id="text-entity-SystemOfUnits-f7f1da8e-a5af-50e1-94d0-c2e741f40e1d" class="er entityLabel">SystemOfUnits</text></g><g transform="translate(752.220817565918,720 )" id="entity-UCUMcs-8df33f70-0c53-5f8e-a81f-0969bc803a34"><rect height="75" width="100" y="0" x="0" class="er entityBox"></rect><text style="dominant-baseline: middle; text-anchor: middle; font-size: 12px;" transform="translate(50,37.5)" y="0" x="0" id="text-entity-UCUMcs-8df33f70-0c53-5f8e-a81f-0969bc803a34" class="er entityLabel">UCUMcs</text></g><g transform="translate(2474.369197845459,545 )" id="entity-Unit-c57ac1ea-0a24-509a-a80e-23f8c03ca739"><rect height="75" width="100" y="0" x="0" class="er entityBox"></rect><text style="dominant-baseline: middle; text-anchor: middle; font-size: 12px;" transform="translate(50,37.5)" y="0" x="0" id="text-entity-Unit-c57ac1ea-0a24-509a-a80e-23f8c03ca739" class="er entityLabel">Unit</text></g><g transform="translate(952.220817565918,720 )" id="entity-Class-d9e3eb4a-97c0-50b6-8e3f-7f4a2fa7283d"><rect height="75" width="100" y="0" x="0" class="er entityBox"></rect><text style="dominant-baseline: middle; text-anchor: middle; font-size: 12px;" transform="translate(50,37.5)" y="0" x="0" id="text-entity-Class-d9e3eb4a-97c0-50b6-8e3f-7f4a2fa7283d" class="er entityLabel">__Class</text></g><g transform="translate(20,1245 )" id="entity-DataEncoding-e949680e-a6e4-55c9-9325-aa69226f3e53"><rect height="75" width="105.34048461914062" y="0" x="0" class="er entityBox"></rect><text style="dominant-baseline: middle; text-anchor: middle; font-size: 12px;" transform="translate(52.67024230957031,37.5)" y="0" x="0" id="text-entity-DataEncoding-e949680e-a6e4-55c9-9325-aa69226f3e53" class="er entityLabel">DataEncoding</text></g><g transform="translate(4587.568473815918,1245 )" id="entity-Datatype-eedb5402-d0cc-52bf-9fb8-7b914f648cbe"><rect height="75" width="100" y="0" x="0" class="er entityBox"></rect><text style="dominant-baseline: middle; text-anchor: middle; font-size: 12px;" transform="translate(50,37.5)" y="0" x="0" id="text-entity-Datatype-eedb5402-d0cc-52bf-9fb8-7b914f648cbe" class="er entityLabel">Datatype</text></g><g transform="translate(1175.502067565918,1070 )" id="entity-UCUMcsterm-f108a9d5-75dc-5824-aae7-181f348ae82a"><rect height="75" width="103.4375" y="0" x="0" class="er entityBox"></rect><text style="dominant-baseline: middle; text-anchor: middle; font-size: 12px;" transform="translate(51.71875,37.5)" y="0" x="0" id="text-entity-UCUMcsterm-f108a9d5-75dc-5824-aae7-181f348ae82a" class="er entityLabel">UCUMcs-term</text></g><g transform="translate(89.7817153930664,545 )" id="entity-QuantityKindDimensionVectorSI-2681a9c0-d385-5c75-b278-85a805bca5b5"><rect height="75" width="203.90625" y="0" x="0" class="er entityBox"></rect><text style="dominant-baseline: middle; text-anchor: middle; font-size: 12px;" transform="translate(101.953125,37.5)" y="0" x="0" id="text-entity-QuantityKindDimensionVectorSI-2681a9c0-d385-5c75-b278-85a805bca5b5" class="er entityLabel">QuantityKindDimensionVectorSI</text></g><g transform="translate(393.6879653930664,545 )" id="entity-SystemOfQuantityKinds-09c2a533-d4ff-5ffb-9642-53498359216a"><rect height="75" width="158.53285217285156" y="0" x="0" class="er entityBox"></rect><text style="dominant-baseline: middle; text-anchor: middle; font-size: 12px;" transform="translate(79.26642608642578,37.5)" y="0" x="0" id="text-entity-SystemOfQuantityKinds-09c2a533-d4ff-5ffb-9642-53498359216a" class="er entityLabel">SystemOfQuantityKinds</text></g><g transform="translate(652.220817565918,545 )" id="entity-RuleType-d54df1a6-a17d-5920-9344-6f805c739e55"><rect height="75" width="100" y="0" x="0" class="er entityBox"></rect><text style="dominant-baseline: middle; text-anchor: middle; font-size: 12px;" transform="translate(50,37.5)" y="0" x="0" id="text-entity-RuleType-d54df1a6-a17d-5920-9344-6f805c739e55" class="er entityLabel">RuleType</text></g><rect height="14" width="111.8486328125" y="176.1099090576172" x="2672.919189453125" class="er relationshipLabelBox"></rect><text style="text-anchor: middle; dominant-baseline: middle; font-size: 12px;" y="183.1099090576172" x="2728.843505859375" id="rel1" class="er relationshipLabel">hasDimensionVector</text><rect height="14" width="97.98876953125" y="107.00664520263672" x="2519.26171875" class="er relationshipLabelBox"></rect><text style="text-anchor: middle; dominant-baseline: middle; font-size: 12px;" y="114.00664520263672" x="2568.256103515625" id="rel2" class="er relationshipLabel">qkdvDenominator</text><rect height="14" width="85.196533203125" y="100.5537338256836" x="2105.1817626953125" class="er relationshipLabelBox"></rect><text style="text-anchor: middle; dominant-baseline: middle; font-size: 12px;" y="107.5537338256836" x="2147.780029296875" id="rel3" class="er relationshipLabel">qkdvNumerator</text><rect height="14" width="30.8402099609375" y="125.92764282226562" x="1735.6456909179688" class="er relationshipLabelBox"></rect><text style="text-anchor: middle; dominant-baseline: middle; font-size: 12px;" y="132.92764282226562" x="1751.0657958984375" id="rel4" class="er relationshipLabel">prefix</text><rect height="14" width="90.4375" y="323.3818664550781" x="3033.72119140625" class="er relationshipLabelBox"></rect><text style="text-anchor: middle; dominant-baseline: middle; font-size: 12px;" y="330.3818664550781" x="3078.93994140625" id="rel5" class="er relationshipLabel">hasQuantityKind</text><rect height="14" width="95.78125" y="410.5667724609375" x="4042.137451171875" class="er relationshipLabelBox"></rect><text style="text-anchor: middle; dominant-baseline: middle; font-size: 12px;" y="417.5667724609375" x="4090.028076171875" id="rel6" class="er relationshipLabel">applicableSystem</text><rect height="14" width="115.203125" y="410.545166015625" x="3932.426513671875" class="er relationshipLabelBox"></rect><text style="text-anchor: middle; dominant-baseline: middle; font-size: 12px;" y="417.545166015625" x="3990.028076171875" id="rel7" class="er relationshipLabel">definedUnitOfSystem</text><rect height="14" width="164.390625" y="410.5189208984375" x="3807.832763671875" class="er relationshipLabelBox"></rect><text style="text-anchor: middle; dominant-baseline: middle; font-size: 12px;" y="417.5189208984375" x="3890.028076171875" id="rel8" class="er relationshipLabel">derivedCoherentUnitOfSystem</text><rect height="14" width="115.15625" y="410.485107421875" x="3732.449951171875" class="er relationshipLabelBox"></rect><text style="text-anchor: middle; dominant-baseline: middle; font-size: 12px;" y="417.485107421875" x="3790.028076171875" id="rel9" class="er relationshipLabel">derivedUnitOfSystem</text><rect height="14" width="82.828125" y="410.44134521484375" x="3648.614013671875" class="er relationshipLabelBox"></rect><text style="text-anchor: middle; dominant-baseline: middle; font-size: 12px;" y="417.44134521484375" x="3690.028076171875" id="rel10" class="er relationshipLabel">isUnitOfSystem</text><rect height="14" width="57.078125" y="110.87994384765625" x="1572.85986328125" class="er relationshipLabelBox"></rect><text style="text-anchor: middle; dominant-baseline: middle; font-size: 12px;" y="117.87994384765625" x="1601.39892578125" id="rel11" class="er relationshipLabel">ucumCode</text><rect height="14" width="61.453125" y="467.3479309082031" x="3482.76318359375" class="er relationshipLabelBox"></rect><text style="text-anchor: middle; dominant-baseline: middle; font-size: 12px;" y="474.3479309082031" x="3513.48974609375" id="rel12" class="er relationshipLabel">exactMatch</text><rect height="14" width="99.0927734375" y="468.876953125" x="3366.47412109375" class="er relationshipLabelBox"></rect><text style="text-anchor: middle; dominant-baseline: middle; font-size: 12px;" y="475.876953125" x="3416.0205078125" id="rel13" class="er relationshipLabel">hasReciprocalUnit</text><rect height="14" width="51.104248046875" y="470.4892578125" x="3293.5867919921875" class="er relationshipLabelBox"></rect><text style="text-anchor: middle; dominant-baseline: middle; font-size: 12px;" y="477.4892578125" x="3319.138916015625" id="rel14" class="er relationshipLabel">scalingOf</text><rect height="14" width="75.632568359375" y="112.61162567138672" x="1663.0174560546875" class="er relationshipLabelBox"></rect><text style="text-anchor: middle; dominant-baseline: middle; font-size: 12px;" y="119.61162567138672" x="1700.833740234375" id="rel15" class="er relationshipLabel">hasFactorUnit</text><rect height="14" width="74.908447265625" y="1227.4493408203125" x="2256.6185302734375" class="er relationshipLabelBox"></rect><text style="text-anchor: middle; dominant-baseline: middle; font-size: 12px;" y="1234.4493408203125" x="2294.07275390625" id="rel16" class="er relationshipLabel">dataEncoding</text><rect height="14" width="48.328125" y="1007.2210693359375" x="4590.37890625" class="er relationshipLabelBox"></rect><text style="text-anchor: middle; dominant-baseline: middle; font-size: 12px;" y="1014.2210693359375" x="4614.54296875" id="rel17" class="er relationshipLabel">datatype</text><rect height="14" width="42.404296875" y="627.4935302734375" x="3554.457763671875" class="er relationshipLabelBox"></rect><text style="text-anchor: middle; dominant-baseline: middle; font-size: 12px;" y="634.4935302734375" x="3575.659912109375" id="rel18" class="er relationshipLabel">hasUnit</text><rect height="14" width="61.453125" y="925.5" x="4446.74658203125" class="er relationshipLabelBox"></rect><text style="text-anchor: middle; dominant-baseline: middle; font-size: 12px;" y="932.5" x="4477.47314453125" id="rel19" class="er relationshipLabel">exactMatch</text><rect height="14" width="90.4375" y="457.2835998535156" x="3527.341064453125" class="er relationshipLabelBox"></rect><text style="text-anchor: middle; dominant-baseline: middle; font-size: 12px;" y="464.2835998535156" x="3572.559814453125" id="rel20" class="er relationshipLabel">hasQuantityKind</text><rect height="14" width="111.8486328125" y="288.06719970703125" x="3461.0390625" class="er relationshipLabelBox"></rect><text style="text-anchor: middle; dominant-baseline: middle; font-size: 12px;" y="295.06719970703125" x="3516.96337890625" id="rel21" class="er relationshipLabel">hasDimensionVector</text><rect height="14" width="75.265625" y="971.9697265625" x="2859.78125" class="er relationshipLabelBox"></rect><text style="text-anchor: middle; dominant-baseline: middle; font-size: 12px;" y="978.9697265625" x="2897.4140625" id="rel22" class="er relationshipLabel">quantityValue</text><rect height="14" width="95.78125" y="878.108154296875" x="3509.5263671875" class="er relationshipLabelBox"></rect><text style="text-anchor: middle; dominant-baseline: middle; font-size: 12px;" y="885.108154296875" x="3557.4169921875" id="rel23" class="er relationshipLabel">applicableSystem</text><rect height="14" width="80.3125" y="860.1386108398438" x="2457.76806640625" class="er relationshipLabelBox"></rect><text style="text-anchor: middle; dominant-baseline: middle; font-size: 12px;" y="867.1386108398438" x="2497.92431640625" id="rel24" class="er relationshipLabel">applicableUnit</text><rect height="14" width="61.453125" y="925.4998779296875" x="1364.5494384765625" class="er relationshipLabelBox"></rect><text style="text-anchor: middle; dominant-baseline: middle; font-size: 12px;" y="932.4998779296875" x="1395.2760009765625" id="rel25" class="er relationshipLabel">exactMatch</text><rect height="14" width="57.078125" y="1013" x="1198.681884765625" class="er relationshipLabelBox"></rect><text style="text-anchor: middle; dominant-baseline: middle; font-size: 12px;" y="1020" x="1227.220947265625" id="rel26" class="er relationshipLabel">ucumCode</text><rect height="14" width="74.908447265625" y="458.2886657714844" x="1202.9442138671875" class="er relationshipLabelBox"></rect><text style="text-anchor: middle; dominant-baseline: middle; font-size: 12px;" y="465.2886657714844" x="1240.3984375" id="rel27" class="er relationshipLabel">dataEncoding</text><rect height="14" width="48.328125" y="478.5743408203125" x="4265.2626953125" class="er relationshipLabelBox"></rect><text style="text-anchor: middle; dominant-baseline: middle; font-size: 12px;" y="485.5743408203125" x="4289.4267578125" id="rel28" class="er relationshipLabel">datatype</text><rect height="14" width="42.404296875" y="526.083984375" x="2897.55859375" class="er relationshipLabelBox"></rect><text style="text-anchor: middle; dominant-baseline: middle; font-size: 12px;" y="533.083984375" x="2918.7607421875" id="rel29" class="er relationshipLabel">hasUnit</text><rect height="14" width="97.98876953125" y="285.7518005371094" x="2393.6279296875" class="er relationshipLabelBox"></rect><text style="text-anchor: middle; dominant-baseline: middle; font-size: 12px;" y="292.7518005371094" x="2442.622314453125" id="rel30" class="er relationshipLabel">qkdvDenominator</text><rect height="14" width="85.196533203125" y="349.154052734375" x="2145.6605224609375" class="er relationshipLabelBox"></rect><text style="text-anchor: middle; dominant-baseline: middle; font-size: 12px;" y="356.154052734375" x="2188.2587890625" id="rel31" class="er relationshipLabel">qkdvNumerator</text><rect height="14" width="119.078125" y="446.6045837402344" x="1234.356201171875" class="er relationshipLabelBox"></rect><text style="text-anchor: middle; dominant-baseline: middle; font-size: 12px;" y="453.6045837402344" x="1293.895263671875" id="rel32" class="er relationshipLabel">dimensionVectorForSI</text><rect height="14" width="61.453125" y="400.50006103515625" x="3022.536376953125" class="er relationshipLabelBox"></rect><text style="text-anchor: middle; dominant-baseline: middle; font-size: 12px;" y="407.50006103515625" x="3053.262939453125" id="rel33" class="er relationshipLabel">exactMatch</text><rect height="14" width="111.8486328125" y="347.6436462402344" x="2072.0673828125" class="er relationshipLabelBox"></rect><text style="text-anchor: middle; dominant-baseline: middle; font-size: 12px;" y="354.6436462402344" x="2127.99169921875" id="rel34" class="er relationshipLabel">hasDimensionVector</text><rect height="14" width="163.4290771484375" y="446.807861328125" x="1352.4772338867188" class="er relationshipLabelBox"></rect><text style="text-anchor: middle; dominant-baseline: middle; font-size: 12px;" y="453.807861328125" x="1434.1917724609375" id="rel35" class="er relationshipLabel">belongsToSystemOfQuantities</text><rect height="14" width="100.904541015625" y="472.5682678222656" x="2798.0672607421875" class="er relationshipLabelBox"></rect><text style="text-anchor: middle; dominant-baseline: middle; font-size: 12px;" y="479.5682678222656" x="2848.51953125" id="rel36" class="er relationshipLabel">applicableCGSUnit</text><rect height="14" width="98.696533203125" y="471.8141174316406" x="2733.6837158203125" class="er relationshipLabelBox"></rect><text style="text-anchor: middle; dominant-baseline: middle; font-size: 12px;" y="478.8141174316406" x="2783.031982421875" id="rel37" class="er relationshipLabel">applicableISOUnit</text><rect height="14" width="125.744873046875" y="471.02813720703125" x="2655.0770263671875" class="er relationshipLabelBox"></rect><text style="text-anchor: middle; dominant-baseline: middle; font-size: 12px;" y="478.02813720703125" x="2717.949462890625" id="rel38" class="er relationshipLabel">applicableImperialUnit</text><rect height="14" width="90.392578125" y="505.47698974609375" x="2240.559326171875" class="er relationshipLabelBox"></rect><text style="text-anchor: middle; dominant-baseline: middle; font-size: 12px;" y="512.4769897460938" x="2285.755615234375" id="rel39" class="er relationshipLabel">applicableSIUnit</text><rect height="14" width="152.324951171875" y="504.6558837890625" x="2144.6544189453125" class="er relationshipLabelBox"></rect><text style="text-anchor: middle; dominant-baseline: middle; font-size: 12px;" y="511.6558837890625" x="2220.81689453125" id="rel40" class="er relationshipLabel">applicableUSCustomaryUnit</text><rect height="14" width="80.3125" y="503.86248779296875" x="2115.2724609375" class="er relationshipLabelBox"></rect><text style="text-anchor: middle; dominant-baseline: middle; font-size: 12px;" y="510.86248779296875" x="2155.4287109375" id="rel41" class="er relationshipLabel">applicableUnit</text><rect height="14" width="144.375" y="288.93560791015625" x="2714.65966796875" class="er relationshipLabelBox"></rect><text style="text-anchor: middle; dominant-baseline: middle; font-size: 12px;" y="295.93560791015625" x="2786.84716796875" id="rel42" class="er relationshipLabel">hasReferenceQuantityKind</text><rect height="14" width="43.296875" y="273.6832275390625" x="1378.1807861328125" class="er relationshipLabelBox"></rect><text style="text-anchor: middle; dominant-baseline: middle; font-size: 12px;" y="280.6832275390625" x="1399.8292236328125" id="rel43" class="er relationshipLabel">hasRule</text><rect height="14" width="74.908447265625" y="1146.042724609375" x="677.3626708984375" class="er relationshipLabelBox"></rect><text style="text-anchor: middle; dominant-baseline: middle; font-size: 12px;" y="1153.042724609375" x="714.81689453125" id="rel44" class="er relationshipLabel">dataEncoding</text><rect height="14" width="48.328125" y="1148.671630859375" x="3078.1474609375" class="er relationshipLabelBox"></rect><text style="text-anchor: middle; dominant-baseline: middle; font-size: 12px;" y="1155.671630859375" x="3102.3115234375" id="rel45" class="er relationshipLabel">datatype</text><rect height="14" width="42.404296875" y="642.8212280273438" x="1792.46875" class="er relationshipLabelBox"></rect><text style="text-anchor: middle; dominant-baseline: middle; font-size: 12px;" y="649.8212280273438" x="1813.6708984375" id="rel46" class="er relationshipLabel">hasUnit</text><rect height="14" width="46.921875" y="488" x="678.7600708007812" class="er relationshipLabelBox"></rect><text style="text-anchor: middle; dominant-baseline: middle; font-size: 12px;" y="495" x="702.2210083007812" id="rel47" class="er relationshipLabel">ruleType</text><rect height="14" width="149.9130859375" y="796.0678100585938" x="3632.547607421875" class="er relationshipLabelBox"></rect><text style="text-anchor: middle; dominant-baseline: middle; font-size: 12px;" y="803.0678100585938" x="3707.504150390625" id="rel48" class="er relationshipLabel">applicablePhysicalConstant</text><rect height="14" width="30.840087890625" y="797.925048828125" x="2029.249755859375" class="er relationshipLabelBox"></rect><text style="text-anchor: middle; dominant-baseline: middle; font-size: 12px;" y="804.925048828125" x="2044.6697998046875" id="rel49" class="er relationshipLabel">prefix</text><rect height="14" width="85.58056640625" y="626.5758666992188" x="2738.591064453125" class="er relationshipLabelBox"></rect><text style="text-anchor: middle; dominant-baseline: middle; font-size: 12px;" y="633.5758666992188" x="2781.38134765625" id="rel50" class="er relationshipLabel">hasAllowedUnit</text><rect height="14" width="68.25244140625" y="631.8780517578125" x="2711.197509765625" class="er relationshipLabelBox"></rect><text style="text-anchor: middle; dominant-baseline: middle; font-size: 12px;" y="638.8780517578125" x="2745.32373046875" id="rel51" class="er relationshipLabel">hasBaseUnit</text><rect height="14" width="91.640625" y="644.1515502929688" x="2671.692626953125" class="er relationshipLabelBox"></rect><text style="text-anchor: middle; dominant-baseline: middle; font-size: 12px;" y="651.1515502929688" x="2717.512939453125" id="rel52" class="er relationshipLabel">hasCoherentUnit</text><rect height="14" width="84.320556640625" y="697.0098876953125" x="2397.1397705078125" class="er relationshipLabelBox"></rect><text style="text-anchor: middle; dominant-baseline: middle; font-size: 12px;" y="704.0098876953125" x="2439.300048828125" id="rel53" class="er relationshipLabel">hasDefinedUnit</text><rect height="14" width="133.496826171875" y="695.8250732421875" x="2309.6556396484375" class="er relationshipLabelBox"></rect><text style="text-anchor: middle; dominant-baseline: middle; font-size: 12px;" y="702.8250732421875" x="2376.404052734375" id="rel54" class="er relationshipLabel">hasDerivedCoherentUnit</text><rect height="14" width="84.260498046875" y="694.7026977539062" x="2270.4559326171875" class="er relationshipLabelBox"></rect><text style="text-anchor: middle; dominant-baseline: middle; font-size: 12px;" y="701.7026977539062" x="2312.586181640625" id="rel55" class="er relationshipLabel">hasDerivedUnit</text><rect height="14" width="42.404296875" y="693.6578979492188" x="2226.94384765625" class="er relationshipLabelBox"></rect><text style="text-anchor: middle; dominant-baseline: middle; font-size: 12px;" y="700.6578979492188" x="2248.14599609375" id="rel56" class="er relationshipLabel">hasUnit</text><rect height="14" width="111.8487548828125" y="490.11505126953125" x="1850.7067260742188" class="er relationshipLabelBox"></rect><text style="text-anchor: middle; dominant-baseline: middle; font-size: 12px;" y="497.11505126953125" x="1906.631103515625" id="rel57" class="er relationshipLabel">hasDimensionVector</text><rect height="14" width="97.9886474609375" y="487.1904296875" x="1761.3279418945312" class="er relationshipLabelBox"></rect><text style="text-anchor: middle; dominant-baseline: middle; font-size: 12px;" y="494.1904296875" x="1810.322265625" id="rel58" class="er relationshipLabel">qkdvDenominator</text><rect height="14" width="85.196533203125" y="484.5931396484375" x="1670.7005615234375" class="er relationshipLabelBox"></rect><text style="text-anchor: middle; dominant-baseline: middle; font-size: 12px;" y="491.5931396484375" x="1713.298828125" id="rel59" class="er relationshipLabel">qkdvNumerator</text><rect height="14" width="30.8402099609375" y="629.6205444335938" x="1722.1074829101562" class="er relationshipLabelBox"></rect><text style="text-anchor: middle; dominant-baseline: middle; font-size: 12px;" y="636.6205444335938" x="1737.527587890625" id="rel60" class="er relationshipLabel">prefix</text><rect height="14.000030517578125" width="90.4375" y="500.8815460205078" x="1780.152099609375" class="er relationshipLabelBox"></rect><text style="text-anchor: middle; dominant-baseline: middle; font-size: 12px;" y="507.8815612792969" x="1825.370849609375" id="rel61" class="er relationshipLabel">hasQuantityKind</text><rect height="14" width="95.78125" y="629.9999389648438" x="3022.095703125" class="er relationshipLabelBox"></rect><text style="text-anchor: middle; dominant-baseline: middle; font-size: 12px;" y="636.9999389648438" x="3069.986328125" id="rel62" class="er relationshipLabel">applicableSystem</text><rect height="14" width="115.203125" y="628.8032836914062" x="2949.279296875" class="er relationshipLabelBox"></rect><text style="text-anchor: middle; dominant-baseline: middle; font-size: 12px;" y="635.8032836914062" x="3006.880859375" id="rel63" class="er relationshipLabel">definedUnitOfSystem</text><rect height="14" width="164.390625" y="627.569091796875" x="2862.864013671875" class="er relationshipLabelBox"></rect><text style="text-anchor: middle; dominant-baseline: middle; font-size: 12px;" y="634.569091796875" x="2945.059326171875" id="rel64" class="er relationshipLabel">derivedCoherentUnitOfSystem</text><rect height="14" width="115.15625" y="626.3973999023438" x="2827.726318359375" class="er relationshipLabelBox"></rect><text style="text-anchor: middle; dominant-baseline: middle; font-size: 12px;" y="633.3973999023438" x="2885.304443359375" id="rel65" class="er relationshipLabel">derivedUnitOfSystem</text><rect height="14" width="82.828125" y="625.5137329101562" x="2787.5302734375" class="er relationshipLabelBox"></rect><text style="text-anchor: middle; dominant-baseline: middle; font-size: 12px;" y="632.5137329101562" x="2828.9443359375" id="rel66" class="er relationshipLabel">isUnitOfSystem</text><rect height="14" width="57.078125" y="620.520263671875" x="1453.8856201171875" class="er relationshipLabelBox"></rect><text style="text-anchor: middle; dominant-baseline: middle; font-size: 12px;" y="627.520263671875" x="1482.4246826171875" id="rel67" class="er relationshipLabel">ucumCode</text><rect height="14" width="61.453125" y="575.5" x="3063.38037109375" class="er relationshipLabelBox"></rect><text style="text-anchor: middle; dominant-baseline: middle; font-size: 12px;" y="582.5" x="3094.10693359375" id="rel68" class="er relationshipLabel">exactMatch</text><rect height="14" width="99.0927734375" y="575.5" x="3148.44970703125" class="er relationshipLabelBox"></rect><text style="text-anchor: middle; dominant-baseline: middle; font-size: 12px;" y="582.5" x="3197.99609375" id="rel69" class="er relationshipLabel">hasReciprocalUnit</text><rect height="14" width="51.104248046875" y="575.5" x="3276.3328857421875" class="er relationshipLabelBox"></rect><text style="text-anchor: middle; dominant-baseline: middle; font-size: 12px;" y="582.5" x="3301.885009765625" id="rel70" class="er relationshipLabel">scalingOf</text><rect height="14" width="75.632568359375" y="621.7024536132812" x="1675.7598876953125" class="er relationshipLabelBox"></rect><text style="text-anchor: middle; dominant-baseline: middle; font-size: 12px;" y="628.7024536132812" x="1713.576171875" id="rel71" class="er relationshipLabel">hasFactorUnit</text></svg>