<svg xmlns="http://www.w3.org/2000/svg" aria-roledescription="er" role="graphics-document document" viewBox="0 0 1196.6322021484375 465" height="465" width="1196.6322021484375" id="container">
  <style>#container{font-family:"trebuchet ms",verdana,arial,sans-serif;font-size:16px;fill:#333;}#container .error-icon{fill:#552222;}#container .error-text{fill:#552222;stroke:#552222;}#container .edge-thickness-normal{stroke-width:1px;}#container .edge-thickness-thick{stroke-width:3.5px;}#container .edge-pattern-solid{stroke-dasharray:0;}#container .edge-thickness-invisible{stroke-width:0;fill:none;}#container .edge-pattern-dashed{stroke-dasharray:3;}#container .edge-pattern-dotted{stroke-dasharray:2;}#container .marker{fill:#333333;stroke:#333333;}#container .marker.cross{stroke:#333333;}#container svg{font-family:"trebuchet ms",verdana,arial,sans-serif;font-size:16px;}#container p{margin:0;}#container .entityBox{fill:#ECECFF;stroke:#9370DB;}#container .attributeBoxOdd{fill:#ffffff;stroke:#9370DB;}#container .attributeBoxEven{fill:#f2f2f2;stroke:#9370DB;}#container .relationshipLabelBox{fill:hsl(80, 100%, 96.2745098039%);opacity:0.7;background-color:hsl(80, 100%, 96.2745098039%);}#container .relationshipLabelBox rect{opacity:0.5;}#container .relationshipLine{stroke:#333333;}#container .entityTitleText{text-anchor:middle;font-size:18px;fill:#333;}#container #MD_PARENT_START{fill:#f5f5f5!important;stroke:#333333!important;stroke-width:1;}#container #MD_PARENT_END{fill:#f5f5f5!important;stroke:#333333!important;stroke-width:1;}#container :root{--mermaid-font-family:"trebuchet ms",verdana,arial,sans-serif;}</style>
  <g/>
  <defs>
    <marker orient="auto" markerHeight="240" markerWidth="190" refY="7" refX="0" id="MD_PARENT_START">
      <path d="M 18,7 L9,13 L1,7 L9,1 Z"/>
    </marker>
  </defs>
  <defs>
    <marker orient="auto" markerHeight="28" markerWidth="20" refY="7" refX="19" id="MD_PARENT_END">
      <path d="M 18,7 L9,13 L1,7 L9,1 Z"/>
    </marker>
  </defs>
  <defs>
    <marker orient="auto" markerHeight="18" markerWidth="18" refY="9" refX="0" id="ONLY_ONE_START">
      <path d="M9,0 L9,18 M15,0 L15,18" fill="none" stroke="gray"/>
    </marker>
  </defs>
  <defs>
    <marker orient="auto" markerHeight="18" markerWidth="18" refY="9" refX="18" id="ONLY_ONE_END">
      <path d="M3,0 L3,18 M9,0 L9,18" fill="none" stroke="gray"/>
    </marker>
  </defs>
  <defs>
    <marker orient="auto" markerHeight="18" markerWidth="30" refY="9" refX="0" id="ZERO_OR_ONE_START">
      <circle r="6" cy="9" cx="21" fill="white" stroke="gray"/>
      <path d="M9,0 L9,18" fill="none" stroke="gray"/>
    </marker>
  </defs>
  <defs>
    <marker orient="auto" markerHeight="18" markerWidth="30" refY="9" refX="30" id="ZERO_OR_ONE_END">
      <circle r="6" cy="9" cx="9" fill="white" stroke="gray"/>
      <path d="M21,0 L21,18" fill="none" stroke="gray"/>
    </marker>
  </defs>
  <defs>
    <marker orient="auto" markerHeight="36" markerWidth="45" refY="18" refX="18" id="ONE_OR_MORE_START">
      <path d="M0,18 Q 18,0 36,18 Q 18,36 0,18 M42,9 L42,27" fill="none" stroke="gray"/>
    </marker>
  </defs>
  <defs>
    <marker orient="auto" markerHeight="36" markerWidth="45" refY="18" refX="27" id="ONE_OR_MORE_END">
      <path d="M3,9 L3,27 M9,18 Q27,0 45,18 Q27,36 9,18" fill="none" stroke="gray"/>
    </marker>
  </defs>
  <defs>
    <marker orient="auto" markerHeight="36" markerWidth="57" refY="18" refX="18" id="ZERO_OR_MORE_START">
      <circle r="6" cy="18" cx="48" fill="white" stroke="gray"/>
      <path d="M0,18 Q18,0 36,18 Q18,36 0,18" fill="none" stroke="gray"/>
    </marker>
  </defs>
  <defs>
    <marker orient="auto" markerHeight="36" markerWidth="57" refY="18" refX="39" id="ZERO_OR_MORE_END">
      <circle r="6" cy="18" cx="9" fill="white" stroke="gray"/>
      <path d="M21,18 Q39,0 57,18 Q39,36 21,18" fill="none" stroke="gray"/>
    </marker>
  </defs>
  <path style="stroke: gray; fill: none;" marker-start="url(#ONLY_ONE_START)" marker-end="url(#ZERO_OR_ONE_END)" d="M508.489,242.645L444.066,255.538C379.644,268.43,250.798,294.215,186.376,315.441C121.953,336.667,121.953,353.333,121.953,361.667L121.953,370" class="er relationshipLine"/>
  <path style="stroke: gray; fill: none;" marker-start="url(#ONLY_ONE_START)" marker-end="url(#ZERO_OR_MORE_END)" d="M609.88,225.986L650.074,220.822C690.269,215.658,770.659,205.329,820.902,200.164C871.145,195,891.243,195,911.34,201.25C931.437,207.5,951.535,220,951.535,232.5C951.535,245,931.437,257.5,911.34,263.75C891.243,270,871.145,270,820.902,264.836C770.659,259.671,690.269,249.342,650.074,244.178L609.88,239.014" class="er relationshipLine"/>
  <path style="stroke: gray; fill: none;" marker-start="url(#ONLY_ONE_START)" marker-end="url(#ZERO_OR_MORE_END)" d="M508.489,264.602L493.908,273.835C479.327,283.068,450.165,301.534,435.584,319.1C421.003,336.667,421.003,353.333,421.003,361.667L421.003,370" class="er relationshipLine"/>
  <path style="stroke: gray; fill: none;" marker-start="url(#ONLY_ONE_START)" marker-end="url(#ZERO_OR_MORE_END)" d="M609.88,264.602L624.461,273.835C639.042,283.068,668.204,301.534,682.785,319.1C697.366,336.667,697.366,353.333,697.366,361.667L697.366,370" class="er relationshipLine"/>
  <path style="stroke: gray; fill: none;" marker-start="url(#ONLY_ONE_START)" marker-end="url(#ZERO_OR_MORE_END)" d="M609.88,244.572L662.672,257.143C715.464,269.715,821.048,294.857,873.84,315.762C926.632,336.667,926.632,353.333,926.632,361.667L926.632,370" class="er relationshipLine"/>
  <path style="stroke: gray; fill: none;" marker-start="url(#ONLY_ONE_START)" marker-end="url(#ZERO_OR_MORE_END)" d="M681.832,95L661.391,103.333C640.949,111.667,600.067,128.333,579.626,145C559.184,161.667,559.184,178.333,559.184,186.667L559.184,195" class="er relationshipLine"/>
  <path style="stroke: gray; fill: none;" marker-start="url(#ONLY_ONE_START)" marker-end="url(#ZERO_OR_MORE_END)" d="M893.688,87.229L932.512,96.857C971.336,106.486,1048.984,125.743,1087.808,143.705C1126.632,161.667,1126.632,178.333,1126.632,186.667L1126.632,195" class="er relationshipLine"/>
  <path style="stroke: gray; fill: none;" marker-start="url(#ONLY_ONE_START)" marker-end="url(#ZERO_OR_MORE_END)" d="M1126.632,270L1126.632,278.333C1126.632,286.667,1126.632,303.333,1126.632,320C1126.632,336.667,1126.632,353.333,1126.632,361.667L1126.632,370" class="er relationshipLine"/>
  <g transform="translate(508.48896408081055,195 )" id="entity-QuantityKind-6f79b338-e354-5d95-8035-8883644476ff">
    <rect height="75" width="101.390625" y="0" x="0" class="er entityBox"/>
    <text style="dominant-baseline: middle; text-anchor: middle; font-size: 12px;" transform="translate(50.6953125,37.5)" y="0" x="0" id="text-entity-QuantityKind-6f79b338-e354-5d95-8035-8883644476ff" class="er entityLabel">QuantityKind</text>
  </g>
  <g transform="translate(653.9467849731445,20 )" id="entity-QuantityKindDimensionVectorImperial-195ae4de-77ef-508b-b51f-d016bd71fd95">
    <rect height="75" width="239.7414093017578" y="0" x="0" class="er entityBox"/>
    <text style="dominant-baseline: middle; text-anchor: middle; font-size: 12px;" transform="translate(119.8707046508789,37.5)" y="0" x="0" id="text-entity-QuantityKindDimensionVectorImperial-195ae4de-77ef-508b-b51f-d016bd71fd95" class="er entityLabel">QuantityKindDimensionVectorImperial</text>
  </g>
  <g transform="translate(1076.6321868896484,195 )" id="entity-Rule-886caf8e-59ff-5db3-a492-27242971196f">
    <rect height="75" width="100" y="0" x="0" class="er entityBox"/>
    <text style="dominant-baseline: middle; text-anchor: middle; font-size: 12px;" transform="translate(50,37.5)" y="0" x="0" id="text-entity-Rule-886caf8e-59ff-5db3-a492-27242971196f" class="er entityLabel">Rule</text>
  </g>
  <g transform="translate(20,370 )" id="entity-QuantityKindDimensionVectorSI-2681a9c0-d385-5c75-b278-85a805bca5b5">
    <rect height="75" width="203.90625" y="0" x="0" class="er entityBox"/>
    <text style="dominant-baseline: middle; text-anchor: middle; font-size: 12px;" transform="translate(101.953125,37.5)" y="0" x="0" id="text-entity-QuantityKindDimensionVectorSI-2681a9c0-d385-5c75-b278-85a805bca5b5" class="er entityLabel">QuantityKindDimensionVectorSI</text>
  </g>
  <g transform="translate(323.90625,370 )" id="entity-QuantityKindDimensionVector-bfa1bf26-fcae-516f-8f63-2f454f3dac1b">
    <rect height="75" width="194.19308471679688" y="0" x="0" class="er entityBox"/>
    <text style="dominant-baseline: middle; text-anchor: middle; font-size: 12px;" transform="translate(97.09654235839844,37.5)" y="0" x="0" id="text-entity-QuantityKindDimensionVector-bfa1bf26-fcae-516f-8f63-2f454f3dac1b" class="er entityLabel">QuantityKindDimensionVector</text>
  </g>
  <g transform="translate(618.0993347167969,370 )" id="entity-SystemOfQuantityKinds-09c2a533-d4ff-5ffb-9642-53498359216a">
    <rect height="75" width="158.53285217285156" y="0" x="0" class="er entityBox"/>
    <text style="dominant-baseline: middle; text-anchor: middle; font-size: 12px;" transform="translate(79.26642608642578,37.5)" y="0" x="0" id="text-entity-SystemOfQuantityKinds-09c2a533-d4ff-5ffb-9642-53498359216a" class="er entityLabel">SystemOfQuantityKinds</text>
  </g>
  <g transform="translate(876.6321868896484,370 )" id="entity-Unit-c57ac1ea-0a24-509a-a80e-23f8c03ca739">
    <rect height="75" width="100" y="0" x="0" class="er entityBox"/>
    <text style="dominant-baseline: middle; text-anchor: middle; font-size: 12px;" transform="translate(50,37.5)" y="0" x="0" id="text-entity-Unit-c57ac1ea-0a24-509a-a80e-23f8c03ca739" class="er entityLabel">Unit</text>
  </g>
  <g transform="translate(1076.6321868896484,370 )" id="entity-RuleType-d54df1a6-a17d-5920-9344-6f805c739e55">
    <rect height="75" width="100" y="0" x="0" class="er entityBox"/>
    <text style="dominant-baseline: middle; text-anchor: middle; font-size: 12px;" transform="translate(50,37.5)" y="0" x="0" id="text-entity-RuleType-d54df1a6-a17d-5920-9344-6f805c739e55" class="er entityLabel">RuleType</text>
  </g>
  <rect height="14" width="119.078125" y="278.4335632324219" x="241.96856689453125" class="er relationshipLabelBox"/>
  <text style="text-anchor: middle; dominant-baseline: middle; font-size: 12px;" y="285.4335632324219" x="301.50762939453125" id="rel1" class="er relationshipLabel">dimensionVectorForSI</text>
  <rect height="14" width="61.453125" y="225.5" x="920.8084106445312" class="er relationshipLabelBox"/>
  <text style="text-anchor: middle; dominant-baseline: middle; font-size: 12px;" y="232.5" x="951.5349731445312" id="rel2" class="er relationshipLabel">exactMatch</text>
  <rect height="14" width="304.49810791015625" y="299.0473327636719" x="296.39697265625" class="er relationshipLabelBox"/>
  <text style="text-anchor: middle; dominant-baseline: middle; font-size: 12px;" y="306.0473327636719" x="448.6460266113281" id="rel3" class="er relationshipLabel">hasDimensionVector, qkdvDenominator, qkdvNumerator</text>
  <rect height="14" width="163.4290771484375" y="299.04736328125" x="588.0084228515625" class="er relationshipLabelBox"/>
  <text style="text-anchor: middle; dominant-baseline: middle; font-size: 12px;" y="306.04736328125" x="669.7229614257812" id="rel4" class="er relationshipLabel">belongsToSystemOfQuantities</text>
  <rect height="14" width="675.5765380859375" y="280.2079772949219" x="444.9547119140625" class="er relationshipLabelBox"/>
  <text style="text-anchor: middle; dominant-baseline: middle; font-size: 12px;" y="287.2079772949219" x="782.7429809570312" id="rel5" class="er relationshipLabel">applicableCGSUnit, applicableISOUnit, applicableImperialUnit, applicableSIUnit, applicableUSCustomaryUnit, applicableUnit</text>
  <rect height="14" width="144.375" y="122.4871826171875" x="531.6056518554688" class="er relationshipLabelBox"/>
  <text style="text-anchor: middle; dominant-baseline: middle; font-size: 12px;" y="129.4871826171875" x="603.7931518554688" id="rel6" class="er relationshipLabel">hasReferenceQuantityKind</text>
  <rect height="14" width="43.296875" y="114.59061431884766" x="1003.7701416015625" class="er relationshipLabelBox"/>
  <text style="text-anchor: middle; dominant-baseline: middle; font-size: 12px;" y="121.59061431884766" x="1025.4185791015625" id="rel7" class="er relationshipLabel">hasRule</text>
  <rect height="14" width="46.921875" y="313" x="1103.1710205078125" class="er relationshipLabelBox"/>
  <text style="text-anchor: middle; dominant-baseline: middle; font-size: 12px;" y="320" x="1126.6319580078125" id="rel8" class="er relationshipLabel">ruleType</text>
</svg>
