<svg xmlns="http://www.w3.org/2000/svg" aria-roledescription="er" role="graphics-document document" viewBox="-49.258811950683594 0 631.0402221679688 815" height="815" width="631.0402221679688" id="container">
  <style>#container{font-family:"trebuchet ms",verdana,arial,sans-serif;font-size:16px;fill:#333;}#container .error-icon{fill:#552222;}#container .error-text{fill:#552222;stroke:#552222;}#container .edge-thickness-normal{stroke-width:1px;}#container .edge-thickness-thick{stroke-width:3.5px;}#container .edge-pattern-solid{stroke-dasharray:0;}#container .edge-thickness-invisible{stroke-width:0;fill:none;}#container .edge-pattern-dashed{stroke-dasharray:3;}#container .edge-pattern-dotted{stroke-dasharray:2;}#container .marker{fill:#333333;stroke:#333333;}#container .marker.cross{stroke:#333333;}#container svg{font-family:"trebuchet ms",verdana,arial,sans-serif;font-size:16px;}#container p{margin:0;}#container .entityBox{fill:#ECECFF;stroke:#9370DB;}#container .attributeBoxOdd{fill:#ffffff;stroke:#9370DB;}#container .attributeBoxEven{fill:#f2f2f2;stroke:#9370DB;}#container .relationshipLabelBox{fill:hsl(80, 100%, 96.2745098039%);opacity:0.7;background-color:hsl(80, 100%, 96.2745098039%);}#container .relationshipLabelBox rect{opacity:0.5;}#container .relationshipLine{stroke:#333333;}#container .entityTitleText{text-anchor:middle;font-size:18px;fill:#333;}#container #MD_PARENT_START{fill:#f5f5f5!important;stroke:#333333!important;stroke-width:1;}#container #MD_PARENT_END{fill:#f5f5f5!important;stroke:#333333!important;stroke-width:1;}#container :root{--mermaid-font-family:"trebuchet ms",verdana,arial,sans-serif;}</style>
  <g/>
  <defs>
    <marker orient="auto" markerHeight="240" markerWidth="190" refY="7" refX="0" id="MD_PARENT_START">
      <path d="M 18,7 L9,13 L1,7 L9,1 Z"/>
    </marker>
  </defs>
  <defs>
    <marker orient="auto" markerHeight="28" markerWidth="20" refY="7" refX="19" id="MD_PARENT_END">
      <path d="M 18,7 L9,13 L1,7 L9,1 Z"/>
    </marker>
  </defs>
  <defs>
    <marker orient="auto" markerHeight="18" markerWidth="18" refY="9" refX="0" id="ONLY_ONE_START">
      <path d="M9,0 L9,18 M15,0 L15,18" fill="none" stroke="gray"/>
    </marker>
  </defs>
  <defs>
    <marker orient="auto" markerHeight="18" markerWidth="18" refY="9" refX="18" id="ONLY_ONE_END">
      <path d="M3,0 L3,18 M9,0 L9,18" fill="none" stroke="gray"/>
    </marker>
  </defs>
  <defs>
    <marker orient="auto" markerHeight="18" markerWidth="30" refY="9" refX="0" id="ZERO_OR_ONE_START">
      <circle r="6" cy="9" cx="21" fill="white" stroke="gray"/>
      <path d="M9,0 L9,18" fill="none" stroke="gray"/>
    </marker>
  </defs>
  <defs>
    <marker orient="auto" markerHeight="18" markerWidth="30" refY="9" refX="30" id="ZERO_OR_ONE_END">
      <circle r="6" cy="9" cx="9" fill="white" stroke="gray"/>
      <path d="M21,0 L21,18" fill="none" stroke="gray"/>
    </marker>
  </defs>
  <defs>
    <marker orient="auto" markerHeight="36" markerWidth="45" refY="18" refX="18" id="ONE_OR_MORE_START">
      <path d="M0,18 Q 18,0 36,18 Q 18,36 0,18 M42,9 L42,27" fill="none" stroke="gray"/>
    </marker>
  </defs>
  <defs>
    <marker orient="auto" markerHeight="36" markerWidth="45" refY="18" refX="27" id="ONE_OR_MORE_END">
      <path d="M3,9 L3,27 M9,18 Q27,0 45,18 Q27,36 9,18" fill="none" stroke="gray"/>
    </marker>
  </defs>
  <defs>
    <marker orient="auto" markerHeight="36" markerWidth="57" refY="18" refX="18" id="ZERO_OR_MORE_START">
      <circle r="6" cy="18" cx="48" fill="white" stroke="gray"/>
      <path d="M0,18 Q18,0 36,18 Q18,36 0,18" fill="none" stroke="gray"/>
    </marker>
  </defs>
  <defs>
    <marker orient="auto" markerHeight="36" markerWidth="57" refY="18" refX="39" id="ZERO_OR_MORE_END">
      <circle r="6" cy="18" cx="9" fill="white" stroke="gray"/>
      <path d="M21,18 Q39,0 57,18 Q39,36 21,18" fill="none" stroke="gray"/>
    </marker>
  </defs>
  <path style="stroke: gray; fill: none;" marker-start="url(#ONLY_ONE_START)" marker-end="url(#ZERO_OR_MORE_END)" d="M87.547,445L87.547,453.333C87.547,461.667,87.547,478.333,112.978,497.651C138.409,516.968,189.271,538.936,214.702,549.92L240.133,560.904" class="er relationshipLine"/>
  <path style="stroke: gray; fill: none;" marker-start="url(#ONLY_ONE_START)" marker-end="url(#ZERO_OR_ONE_END)" d="M205.404,95L198.261,103.333C191.118,111.667,176.833,128.333,169.69,145C162.547,161.667,162.547,178.333,162.547,186.667L162.547,195" class="er relationshipLine"/>
  <path style="stroke: gray; fill: none;" marker-start="url(#ONLY_ONE_START)" marker-end="url(#ZERO_OR_MORE_END)" d="M187.547,76.944L158.38,88.287C129.214,99.63,70.88,122.315,41.714,148.241C12.547,174.167,12.547,203.333,12.547,232.5C12.547,261.667,12.547,290.833,19.69,313.75C26.833,336.667,41.118,353.333,48.261,361.667L55.404,370" class="er relationshipLine"/>
  <path style="stroke: gray; fill: none;" marker-start="url(#ONLY_ONE_START)" marker-end="url(#ZERO_OR_MORE_END)" d="M287.547,71.959L329.645,84.132C371.742,96.306,455.938,120.653,498.035,147.41C540.133,174.167,540.133,203.333,540.133,232.5C540.133,261.667,540.133,290.833,540.133,320C540.133,349.167,540.133,378.333,540.133,407.5C540.133,436.667,540.133,465.833,506.799,492.083C473.466,518.333,406.799,541.667,373.466,553.333L340.133,565" class="er relationshipLine"/>
  <path style="stroke: gray; fill: none;" marker-start="url(#ONLY_ONE_START)" marker-end="url(#ZERO_OR_MORE_END)" d="M269.69,95L276.833,103.333C283.975,111.667,298.261,128.333,305.404,151.25C312.547,174.167,312.547,203.333,312.547,232.5C312.547,261.667,312.547,290.833,317.309,313.75C322.071,336.667,331.594,353.333,336.356,361.667L341.118,370" class="er relationshipLine"/>
  <path style="stroke: gray; fill: none;" marker-start="url(#ONLY_ONE_START)" marker-end="url(#ZERO_OR_MORE_END)" d="M290.133,620L290.133,628.333C290.133,636.667,290.133,653.333,290.133,670C290.133,686.667,290.133,703.333,290.133,711.667L290.133,720" class="er relationshipLine"/>
  <path style="stroke: gray; fill: none;" marker-start="url(#ONLY_ONE_START)" marker-end="url(#ZERO_OR_MORE_END)" d="M162.547,270L162.547,278.333C162.547,286.667,162.547,303.333,155.404,320C148.261,336.667,133.975,353.333,126.833,361.667L119.69,370" class="er relationshipLine"/>
  <path style="stroke: gray; fill: none;" marker-start="url(#ONLY_ONE_START)" marker-end="url(#ZERO_OR_MORE_END)" d="M212.547,250L245.88,261.667C279.214,273.333,345.88,296.667,374.452,316.667C403.023,336.667,393.499,353.333,388.737,361.667L383.975,370" class="er relationshipLine"/>
  <g transform="translate(20,370 )" id="entity-MathsFunctionType-e1643f39-b492-5bab-8326-d54da4e9002b">
    <rect height="75" width="135.09375" y="0" x="0" class="er entityBox"/>
    <text style="dominant-baseline: middle; text-anchor: middle; font-size: 12px;" transform="translate(67.546875,37.5)" y="0" x="0" id="text-entity-MathsFunctionType-e1643f39-b492-5bab-8326-d54da4e9002b" class="er entityLabel">MathsFunctionType</text>
  </g>
  <g transform="translate(187.546875,20 )" id="entity-OrdinalScale-dbfe8196-a5ee-543e-ac54-d800d9982477">
    <rect height="75" width="100" y="0" x="0" class="er entityBox"/>
    <text style="dominant-baseline: middle; text-anchor: middle; font-size: 12px;" transform="translate(50,37.5)" y="0" x="0" id="text-entity-OrdinalScale-dbfe8196-a5ee-543e-ac54-d800d9982477" class="er entityLabel">OrdinalScale</text>
  </g>
  <g transform="translate(240.1328125,545 )" id="entity-Rule-886caf8e-59ff-5db3-a492-27242971196f">
    <rect height="75" width="100" y="0" x="0" class="er entityBox"/>
    <text style="dominant-baseline: middle; text-anchor: middle; font-size: 12px;" transform="translate(50,37.5)" y="0" x="0" id="text-entity-Rule-886caf8e-59ff-5db3-a492-27242971196f" class="er entityLabel">Rule</text>
  </g>
  <g transform="translate(112.546875,195 )" id="entity-ScaleType-0d000408-743d-5053-b1d6-3f5ee6730e6d">
    <rect height="75" width="100" y="0" x="0" class="er entityBox"/>
    <text style="dominant-baseline: middle; text-anchor: middle; font-size: 12px;" transform="translate(50,37.5)" y="0" x="0" id="text-entity-ScaleType-0d000408-743d-5053-b1d6-3f5ee6730e6d" class="er entityLabel">ScaleType</text>
  </g>
  <g transform="translate(307.375,370 )" id="entity-TransformType-dbdd87a4-f4d5-5cb6-abdd-17a28eb5d3af">
    <rect height="75" width="110.34375" y="0" x="0" class="er entityBox"/>
    <text style="dominant-baseline: middle; text-anchor: middle; font-size: 12px;" transform="translate(55.171875,37.5)" y="0" x="0" id="text-entity-TransformType-dbdd87a4-f4d5-5cb6-abdd-17a28eb5d3af" class="er entityLabel">TransformType</text>
  </g>
  <g transform="translate(240.1328125,720 )" id="entity-RuleType-d54df1a6-a17d-5920-9344-6f805c739e55">
    <rect height="75" width="100" y="0" x="0" class="er entityBox"/>
    <text style="dominant-baseline: middle; text-anchor: middle; font-size: 12px;" transform="translate(50,37.5)" y="0" x="0" id="text-entity-RuleType-d54df1a6-a17d-5920-9344-6f805c739e55" class="er entityLabel">RuleType</text>
  </g>
  <rect height="14" width="43.296875" y="511.610107421875" x="125.74366760253906" class="er relationshipLabelBox"/>
  <text style="text-anchor: middle; dominant-baseline: middle; font-size: 12px;" y="518.610107421875" x="147.39210510253906" id="rel1" class="er relationshipLabel">hasRule</text>
  <rect height="14" width="52.921875" y="133.1257781982422" x="145.51260375976562" class="er relationshipLabelBox"/>
  <text style="text-anchor: middle; dominant-baseline: middle; font-size: 12px;" y="140.1257781982422" x="171.97354125976562" id="rel2" class="er relationshipLabel">scaleType</text>
  <rect height="14" width="96.7926025390625" y="172.9379119873047" x="-29.258811950683594" class="er relationshipLabelBox"/>
  <text style="text-anchor: middle; dominant-baseline: middle; font-size: 12px;" y="179.9379119873047" x="19.137489318847656" id="rel3" class="er relationshipLabel">permissibleMaths</text>
  <rect height="14" width="43.296875" y="289.4185485839844" x="518.4845581054688" class="er relationshipLabelBox"/>
  <text style="text-anchor: middle; dominant-baseline: middle; font-size: 12px;" y="296.4185485839844" x="540.1329956054688" id="rel4" class="er relationshipLabel">hasRule</text>
  <rect height="14" width="146.90625" y="222.43795776367188" x="239.0928955078125" class="er relationshipLabelBox"/>
  <text style="text-anchor: middle; dominant-baseline: middle; font-size: 12px;" y="229.43795776367188" x="312.5460205078125" id="rel5" class="er relationshipLabel">permissibleTransformation</text>
  <rect height="14" width="46.921875" y="663" x="266.67205810546875" class="er relationshipLabelBox"/>
  <text style="text-anchor: middle; dominant-baseline: middle; font-size: 12px;" y="670" x="290.13299560546875" id="rel6" class="er relationshipLabel">ruleType</text>
  <rect height="14" width="96.7926025390625" y="317.8741760253906" x="104.72416687011719" class="er relationshipLabelBox"/>
  <text style="text-anchor: middle; dominant-baseline: middle; font-size: 12px;" y="324.8741760253906" x="153.12046813964844" id="rel7" class="er relationshipLabel">permissibleMaths</text>
  <rect height="14" width="146.90625" y="284.2075500488281" x="251.06500244140625" class="er relationshipLabelBox"/>
  <text style="text-anchor: middle; dominant-baseline: middle; font-size: 12px;" y="291.2075500488281" x="324.51812744140625" id="rel8" class="er relationshipLabel">permissibleTransformation</text>
</svg>
