<svg aria-roledescription="er" role="graphics-document document" viewBox="0 0 1567.36572265625 465" height="465" xmlns="http://www.w3.org/2000/svg" width="1567.36572265625" id="container"><style>#container{font-family:"trebuchet ms",verdana,arial,sans-serif;font-size:16px;fill:#333;}#container .error-icon{fill:#552222;}#container .error-text{fill:#552222;stroke:#552222;}#container .edge-thickness-normal{stroke-width:1px;}#container .edge-thickness-thick{stroke-width:3.5px;}#container .edge-pattern-solid{stroke-dasharray:0;}#container .edge-thickness-invisible{stroke-width:0;fill:none;}#container .edge-pattern-dashed{stroke-dasharray:3;}#container .edge-pattern-dotted{stroke-dasharray:2;}#container .marker{fill:#333333;stroke:#333333;}#container .marker.cross{stroke:#333333;}#container svg{font-family:"trebuchet ms",verdana,arial,sans-serif;font-size:16px;}#container p{margin:0;}#container .entityBox{fill:#ECECFF;stroke:#9370DB;}#container .attributeBoxOdd{fill:#ffffff;stroke:#9370DB;}#container .attributeBoxEven{fill:#f2f2f2;stroke:#9370DB;}#container .relationshipLabelBox{fill:hsl(80, 100%, 96.2745098039%);opacity:0.7;background-color:hsl(80, 100%, 96.2745098039%);}#container .relationshipLabelBox rect{opacity:0.5;}#container .relationshipLine{stroke:#333333;}#container .entityTitleText{text-anchor:middle;font-size:18px;fill:#333;}#container #MD_PARENT_START{fill:#f5f5f5!important;stroke:#333333!important;stroke-width:1;}#container #MD_PARENT_END{fill:#f5f5f5!important;stroke:#333333!important;stroke-width:1;}#container :root{--mermaid-font-family:"trebuchet ms",verdana,arial,sans-serif;}</style><g></g><defs><marker orient="auto" markerHeight="240" markerWidth="190" refY="7" refX="0" id="MD_PARENT_START"><path d="M 18,7 L9,13 L1,7 L9,1 Z"></path></marker></defs><defs><marker orient="auto" markerHeight="28" markerWidth="20" refY="7" refX="19" id="MD_PARENT_END"><path d="M 18,7 L9,13 L1,7 L9,1 Z"></path></marker></defs><defs><marker orient="auto" markerHeight="18" markerWidth="18" refY="9" refX="0" id="ONLY_ONE_START"><path d="M9,0 L9,18 M15,0 L15,18" fill="none" stroke="gray"></path></marker></defs><defs><marker orient="auto" markerHeight="18" markerWidth="18" refY="9" refX="18" id="ONLY_ONE_END"><path d="M3,0 L3,18 M9,0 L9,18" fill="none" stroke="gray"></path></marker></defs><defs><marker orient="auto" markerHeight="18" markerWidth="30" refY="9" refX="0" id="ZERO_OR_ONE_START"><circle r="6" cy="9" cx="21" fill="white" stroke="gray"></circle><path d="M9,0 L9,18" fill="none" stroke="gray"></path></marker></defs><defs><marker orient="auto" markerHeight="18" markerWidth="30" refY="9" refX="30" id="ZERO_OR_ONE_END"><circle r="6" cy="9" cx="9" fill="white" stroke="gray"></circle><path d="M21,0 L21,18" fill="none" stroke="gray"></path></marker></defs><defs><marker orient="auto" markerHeight="36" markerWidth="45" refY="18" refX="18" id="ONE_OR_MORE_START"><path d="M0,18 Q 18,0 36,18 Q 18,36 0,18 M42,9 L42,27" fill="none" stroke="gray"></path></marker></defs><defs><marker orient="auto" markerHeight="36" markerWidth="45" refY="18" refX="27" id="ONE_OR_MORE_END"><path d="M3,9 L3,27 M9,18 Q27,0 45,18 Q27,36 9,18" fill="none" stroke="gray"></path></marker></defs><defs><marker orient="auto" markerHeight="36" markerWidth="57" refY="18" refX="18" id="ZERO_OR_MORE_START"><circle r="6" cy="18" cx="48" fill="white" stroke="gray"></circle><path d="M0,18 Q18,0 36,18 Q18,36 0,18" fill="none" stroke="gray"></path></marker></defs><defs><marker orient="auto" markerHeight="36" markerWidth="57" refY="18" refX="39" id="ZERO_OR_MORE_END"><circle r="6" cy="18" cx="9" fill="white" stroke="gray"></circle><path d="M21,18 Q39,0 57,18 Q39,36 21,18" fill="none" stroke="gray"></path></marker></defs><path style="stroke: gray; fill: none;" marker-start="url(#ONLY_ONE_START)" marker-end="url(#ZERO_OR_ONE_END)" d="M811.779,237.747L679.332,251.456C546.885,265.165,281.991,292.582,159.067,314.625C36.144,336.667,55.192,353.333,64.716,361.667L74.239,370" class="er relationshipLine"></path><path style="stroke: gray; fill: none;" marker-start="url(#ONLY_ONE_START)" marker-end="url(#ZERO_OR_ONE_END)" d="M811.779,238.451L695.998,252.043C580.218,265.634,348.657,292.817,232.877,314.742C117.097,336.667,117.097,353.333,117.097,361.667L117.097,370" class="er relationshipLine"></path><path style="stroke: gray; fill: none;" marker-start="url(#ONLY_ONE_START)" marker-end="url(#ZERO_OR_ONE_END)" d="M811.779,242.449L745.919,255.374C680.06,268.299,548.341,294.15,482.481,315.408C416.621,336.667,416.621,353.333,416.621,361.667L416.621,370" class="er relationshipLine"></path><path style="stroke: gray; fill: none;" marker-start="url(#ONLY_ONE_START)" marker-end="url(#ZERO_OR_MORE_END)" d="M913.169,226.856L960.858,221.547C1008.546,216.237,1103.923,205.619,1163.534,200.309C1223.145,195,1246.989,195,1270.833,201.25C1294.677,207.5,1318.522,220,1318.522,232.5C1318.522,245,1294.677,257.5,1270.833,263.75C1246.989,270,1223.145,270,1163.534,264.691C1103.923,259.381,1008.546,248.763,960.858,243.453L913.169,238.144" class="er relationshipLine"></path><path style="stroke: gray; fill: none;" marker-start="url(#ONLY_ONE_START)" marker-end="url(#ZERO_OR_MORE_END)" d="M811.779,239.373L712.665,252.811C613.551,266.249,415.324,293.124,306.686,314.896C198.049,336.667,179.001,353.333,169.477,361.667L159.954,370" class="er relationshipLine"></path><path style="stroke: gray; fill: none;" marker-start="url(#ONLY_ONE_START)" marker-end="url(#ZERO_OR_MORE_END)" d="M811.779,259.444L792.789,269.536C773.8,279.629,735.82,299.815,716.831,318.241C697.841,336.667,697.841,353.333,697.841,361.667L697.841,370" class="er relationshipLine"></path><path style="stroke: gray; fill: none;" marker-start="url(#ONLY_ONE_START)" marker-end="url(#ZERO_OR_MORE_END)" d="M855.999,270L854.56,278.333C853.121,286.667,850.244,303.333,872.913,322.504C895.583,341.675,943.801,363.349,967.909,374.187L992.018,385.024" class="er relationshipLine"></path><path style="stroke: gray; fill: none;" marker-start="url(#ONLY_ONE_START)" marker-end="url(#ZERO_OR_MORE_END)" d="M898.856,270L906.941,278.333C915.026,286.667,931.196,303.333,948.295,320C965.395,336.667,983.424,353.333,992.438,361.667L1001.453,370" class="er relationshipLine"></path><path style="stroke: gray; fill: none;" marker-start="url(#ONLY_ONE_START)" marker-end="url(#ZERO_OR_MORE_END)" d="M913.169,256.492L935.536,267.076C957.902,277.661,1002.634,298.831,1024.49,317.749C1046.347,336.667,1045.329,353.333,1044.819,361.667L1044.31,370" class="er relationshipLine"></path><path style="stroke: gray; fill: none;" marker-start="url(#ONLY_ONE_START)" marker-end="url(#ZERO_OR_MORE_END)" d="M913.169,248.07L952.202,260.059C991.235,272.047,1069.3,296.023,1098.3,316.345C1127.3,336.667,1107.233,353.333,1097.2,361.667L1087.167,370" class="er relationshipLine"></path><path style="stroke: gray; fill: none;" marker-start="url(#ONLY_ONE_START)" marker-end="url(#ZERO_OR_MORE_END)" d="M913.169,244.025L968.869,256.687C1024.568,269.35,1135.967,294.675,1165.775,318.37C1195.583,342.065,1143.801,364.13,1117.909,375.162L1092.018,386.195" class="er relationshipLine"></path><path style="stroke: gray; fill: none;" marker-start="url(#ONLY_ONE_START)" marker-end="url(#ZERO_OR_MORE_END)" d="M913.169,241.648L985.536,254.707C1057.902,267.765,1202.634,293.883,1232.442,319.137C1262.25,344.391,1177.134,368.781,1134.576,380.977L1092.018,393.172" class="er relationshipLine"></path><path style="stroke: gray; fill: none;" marker-start="url(#ONLY_ONE_START)" marker-end="url(#ZERO_OR_MORE_END)" d="M1497.366,270L1497.366,278.333C1497.366,286.667,1497.366,303.333,1497.366,320C1497.366,336.667,1497.366,353.333,1497.366,361.667L1497.366,370" class="er relationshipLine"></path><path style="stroke: gray; fill: none;" marker-start="url(#ONLY_ONE_START)" marker-end="url(#ONLY_ONE_END)" d="M1149.443,73.258L1101.615,85.215C1053.787,97.172,958.13,121.086,910.302,141.376C862.474,161.667,862.474,178.333,862.474,186.667L862.474,195" class="er relationshipLine"></path><path style="stroke: gray; fill: none;" marker-start="url(#ONLY_ONE_START)" marker-end="url(#ZERO_OR_MORE_END)" d="M1275.505,76.859L1312.482,88.216C1349.459,99.573,1423.412,122.286,1460.389,141.977C1497.366,161.667,1497.366,178.333,1497.366,186.667L1497.366,195" class="er relationshipLine"></path><g transform="translate(811.7788276672363,195 )" id="entity-QuantityKind-6f79b338-e354-5d95-8035-8883644476ff"><rect height="75" width="101.390625" y="0" x="0" class="er entityBox"></rect><text style="dominant-baseline: middle; text-anchor: middle; font-size: 12px;" transform="translate(50.6953125,37.5)" y="0" x="0" id="text-entity-QuantityKind-6f79b338-e354-5d95-8035-8883644476ff" class="er entityLabel">QuantityKind</text></g><g transform="translate(1447.3657608032227,195 )" id="entity-Rule-886caf8e-59ff-5db3-a492-27242971196f"><rect height="75" width="100" y="0" x="0" class="er entityBox"></rect><text style="dominant-baseline: middle; text-anchor: middle; font-size: 12px;" transform="translate(50,37.5)" y="0" x="0" id="text-entity-Rule-886caf8e-59ff-5db3-a492-27242971196f" class="er entityLabel">Rule</text></g><g transform="translate(1149.4428901672363,20 )" id="entity-UserQuantityKind-1d3cd085-6793-5448-82a1-6476fcd13bbf"><rect height="75" width="126.0625" y="0" x="0" class="er entityBox"></rect><text style="dominant-baseline: middle; text-anchor: middle; font-size: 12px;" transform="translate(63.03125,37.5)" y="0" x="0" id="text-entity-UserQuantityKind-1d3cd085-6793-5448-82a1-6476fcd13bbf" class="er entityLabel">UserQuantityKind</text></g><g transform="translate(20,370 )" id="entity-QuantityKindDimensionVector-bfa1bf26-fcae-516f-8f63-2f454f3dac1b"><rect height="75" width="194.19308471679688" y="0" x="0" class="er entityBox"></rect><text style="dominant-baseline: middle; text-anchor: middle; font-size: 12px;" transform="translate(97.09654235839844,37.5)" y="0" x="0" id="text-entity-QuantityKindDimensionVector-bfa1bf26-fcae-516f-8f63-2f454f3dac1b" class="er entityLabel">QuantityKindDimensionVector</text></g><g transform="translate(314.66825103759766,370 )" id="entity-QuantityKindDimensionVectorSI-2681a9c0-d385-5c75-b278-85a805bca5b5"><rect height="75" width="203.90625" y="0" x="0" class="er entityBox"></rect><text style="dominant-baseline: middle; text-anchor: middle; font-size: 12px;" transform="translate(101.953125,37.5)" y="0" x="0" id="text-entity-QuantityKindDimensionVectorSI-2681a9c0-d385-5c75-b278-85a805bca5b5" class="er entityLabel">QuantityKindDimensionVectorSI</text></g><g transform="translate(618.5745010375977,370 )" id="entity-SystemOfQuantityKinds-09c2a533-d4ff-5ffb-9642-53498359216a"><rect height="75" width="158.53285217285156" y="0" x="0" class="er entityBox"></rect><text style="dominant-baseline: middle; text-anchor: middle; font-size: 12px;" transform="translate(79.26642608642578,37.5)" y="0" x="0" id="text-entity-SystemOfQuantityKinds-09c2a533-d4ff-5ffb-9642-53498359216a" class="er entityLabel">SystemOfQuantityKinds</text></g><g transform="translate(992.0181045532227,370 )" id="entity-Unit-c57ac1ea-0a24-509a-a80e-23f8c03ca739"><rect height="75" width="100" y="0" x="0" class="er entityBox"></rect><text style="dominant-baseline: middle; text-anchor: middle; font-size: 12px;" transform="translate(50,37.5)" y="0" x="0" id="text-entity-Unit-c57ac1ea-0a24-509a-a80e-23f8c03ca739" class="er entityLabel">Unit</text></g><g transform="translate(1447.3657608032227,370 )" id="entity-RuleType-d54df1a6-a17d-5920-9344-6f805c739e55"><rect height="75" width="100" y="0" x="0" class="er entityBox"></rect><text style="dominant-baseline: middle; text-anchor: middle; font-size: 12px;" transform="translate(50,37.5)" y="0" x="0" id="text-entity-RuleType-d54df1a6-a17d-5920-9344-6f805c739e55" class="er entityLabel">RuleType</text></g><rect height="14" width="97.9886474609375" y="272.76483154296875" x="367.9461975097656" class="er relationshipLabelBox"></rect><text style="text-anchor: middle; dominant-baseline: middle; font-size: 12px;" y="279.76483154296875" x="416.9405212402344" id="rel1" class="er relationshipLabel">qkdvDenominator</text><rect height="14" width="85.19659423828125" y="274.74896240234375" x="410.44024658203125" class="er relationshipLabelBox"></rect><text style="text-anchor: middle; dominant-baseline: middle; font-size: 12px;" y="281.74896240234375" x="453.0385437011719" id="rel2" class="er relationshipLabel">qkdvNumerator</text><rect height="14" width="119.078125" y="278.2553405761719" x="541.0353393554688" class="er relationshipLabelBox"></rect><text style="text-anchor: middle; dominant-baseline: middle; font-size: 12px;" y="285.2553405761719" x="600.5744018554688" id="rel3" class="er relationshipLabel">dimensionVectorForSI</text><rect height="14" width="61.453125" y="225.5" x="1287.79541015625" class="er relationshipLabelBox"></rect><text style="text-anchor: middle; dominant-baseline: middle; font-size: 12px;" y="232.5" x="1318.52197265625" id="rel4" class="er relationshipLabel">exactMatch</text><rect height="14" width="111.84869384765625" y="278.6604309082031" x="424.2296447753906" class="er relationshipLabelBox"></rect><text style="text-anchor: middle; dominant-baseline: middle; font-size: 12px;" y="285.6604309082031" x="480.15399169921875" id="rel5" class="er relationshipLabel">hasDimensionVector</text><rect height="14" width="163.4290771484375" y="294.3158874511719" x="656.5839233398438" class="er relationshipLabelBox"></rect><text style="text-anchor: middle; dominant-baseline: middle; font-size: 12px;" y="301.3158874511719" x="738.2984619140625" id="rel6" class="er relationshipLabel">belongsToSystemOfQuantities</text><rect height="14" width="100.9046630859375" y="336.3030700683594" x="854.1014404296875" class="er relationshipLabelBox"></rect><text style="text-anchor: middle; dominant-baseline: middle; font-size: 12px;" y="343.3030700683594" x="904.5537719726562" id="rel7" class="er relationshipLabel">applicableCGSUnit</text><rect height="14" width="98.6966552734375" y="313.9276428222656" x="899.9015502929688" class="er relationshipLabelBox"></rect><text style="text-anchor: middle; dominant-baseline: middle; font-size: 12px;" y="320.9276428222656" x="949.2498779296875" id="rel8" class="er relationshipLabel">applicableISOUnit</text><rect height="14" width="125.744873046875" y="291.3314208984375" x="933.4303588867188" class="er relationshipLabelBox"></rect><text style="text-anchor: middle; dominant-baseline: middle; font-size: 12px;" y="298.3314208984375" x="996.3027954101562" id="rel9" class="er relationshipLabel">applicableImperialUnit</text><rect height="14" width="90.392578125" y="282.3072204589844" x="995.3736572265625" class="er relationshipLabelBox"></rect><text style="text-anchor: middle; dominant-baseline: middle; font-size: 12px;" y="289.3072204589844" x="1040.5699462890625" id="rel10" class="er relationshipLabel">applicableSIUnit</text><rect height="14" width="152.3250732421875" y="283.0235900878906" x="1023.3202514648438" class="er relationshipLabelBox"></rect><text style="text-anchor: middle; dominant-baseline: middle; font-size: 12px;" y="290.0235900878906" x="1099.4827880859375" id="rel11" class="er relationshipLabel">applicableUSCustomaryUnit</text><rect height="14" width="80.3125" y="284.4189453125" x="1121.3477783203125" class="er relationshipLabelBox"></rect><text style="text-anchor: middle; dominant-baseline: middle; font-size: 12px;" y="291.4189453125" x="1161.5040283203125" id="rel12" class="er relationshipLabel">applicableUnit</text><rect height="14" width="46.921875" y="313" x="1473.905029296875" class="er relationshipLabelBox"></rect><text style="text-anchor: middle; dominant-baseline: middle; font-size: 12px;" y="320" x="1497.365966796875" id="rel13" class="er relationshipLabel">ruleType</text><rect height="14" width="90.4375" y="107.3623046875" x="945.946533203125" class="er relationshipLabelBox"></rect><text style="text-anchor: middle; dominant-baseline: middle; font-size: 12px;" y="114.3623046875" x="991.165283203125" id="rel14" class="er relationshipLabel">hasQuantityKind</text><rect height="14" width="43.296875" y="110.48186492919922" x="1380.4237060546875" class="er relationshipLabelBox"></rect><text style="text-anchor: middle; dominant-baseline: middle; font-size: 12px;" y="117.48186492919922" x="1402.0721435546875" id="rel15" class="er relationshipLabel">hasRule</text></svg>