<svg xmlns="http://www.w3.org/2000/svg" aria-roledescription="er" role="graphics-document document" viewBox="0 0 2121.181884765625 815" height="815" width="2121.181884765625" id="container">
  <style>#container{font-family:"trebuchet ms",verdana,arial,sans-serif;font-size:16px;fill:#333;}#container .error-icon{fill:#552222;}#container .error-text{fill:#552222;stroke:#552222;}#container .edge-thickness-normal{stroke-width:1px;}#container .edge-thickness-thick{stroke-width:3.5px;}#container .edge-pattern-solid{stroke-dasharray:0;}#container .edge-thickness-invisible{stroke-width:0;fill:none;}#container .edge-pattern-dashed{stroke-dasharray:3;}#container .edge-pattern-dotted{stroke-dasharray:2;}#container .marker{fill:#333333;stroke:#333333;}#container .marker.cross{stroke:#333333;}#container svg{font-family:"trebuchet ms",verdana,arial,sans-serif;font-size:16px;}#container p{margin:0;}#container .entityBox{fill:#ECECFF;stroke:#9370DB;}#container .attributeBoxOdd{fill:#ffffff;stroke:#9370DB;}#container .attributeBoxEven{fill:#f2f2f2;stroke:#9370DB;}#container .relationshipLabelBox{fill:hsl(80, 100%, 96.2745098039%);opacity:0.7;background-color:hsl(80, 100%, 96.2745098039%);}#container .relationshipLabelBox rect{opacity:0.5;}#container .relationshipLine{stroke:#333333;}#container .entityTitleText{text-anchor:middle;font-size:18px;fill:#333;}#container #MD_PARENT_START{fill:#f5f5f5!important;stroke:#333333!important;stroke-width:1;}#container #MD_PARENT_END{fill:#f5f5f5!important;stroke:#333333!important;stroke-width:1;}#container :root{--mermaid-font-family:"trebuchet ms",verdana,arial,sans-serif;}</style>
  <g/>
  <defs>
    <marker orient="auto" markerHeight="240" markerWidth="190" refY="7" refX="0" id="MD_PARENT_START">
      <path d="M 18,7 L9,13 L1,7 L9,1 Z"/>
    </marker>
  </defs>
  <defs>
    <marker orient="auto" markerHeight="28" markerWidth="20" refY="7" refX="19" id="MD_PARENT_END">
      <path d="M 18,7 L9,13 L1,7 L9,1 Z"/>
    </marker>
  </defs>
  <defs>
    <marker orient="auto" markerHeight="18" markerWidth="18" refY="9" refX="0" id="ONLY_ONE_START">
      <path d="M9,0 L9,18 M15,0 L15,18" fill="none" stroke="gray"/>
    </marker>
  </defs>
  <defs>
    <marker orient="auto" markerHeight="18" markerWidth="18" refY="9" refX="18" id="ONLY_ONE_END">
      <path d="M3,0 L3,18 M9,0 L9,18" fill="none" stroke="gray"/>
    </marker>
  </defs>
  <defs>
    <marker orient="auto" markerHeight="18" markerWidth="30" refY="9" refX="0" id="ZERO_OR_ONE_START">
      <circle r="6" cy="9" cx="21" fill="white" stroke="gray"/>
      <path d="M9,0 L9,18" fill="none" stroke="gray"/>
    </marker>
  </defs>
  <defs>
    <marker orient="auto" markerHeight="18" markerWidth="30" refY="9" refX="30" id="ZERO_OR_ONE_END">
      <circle r="6" cy="9" cx="9" fill="white" stroke="gray"/>
      <path d="M21,0 L21,18" fill="none" stroke="gray"/>
    </marker>
  </defs>
  <defs>
    <marker orient="auto" markerHeight="36" markerWidth="45" refY="18" refX="18" id="ONE_OR_MORE_START">
      <path d="M0,18 Q 18,0 36,18 Q 18,36 0,18 M42,9 L42,27" fill="none" stroke="gray"/>
    </marker>
  </defs>
  <defs>
    <marker orient="auto" markerHeight="36" markerWidth="45" refY="18" refX="27" id="ONE_OR_MORE_END">
      <path d="M3,9 L3,27 M9,18 Q27,0 45,18 Q27,36 9,18" fill="none" stroke="gray"/>
    </marker>
  </defs>
  <defs>
    <marker orient="auto" markerHeight="36" markerWidth="57" refY="18" refX="18" id="ZERO_OR_MORE_START">
      <circle r="6" cy="18" cx="48" fill="white" stroke="gray"/>
      <path d="M0,18 Q18,0 36,18 Q18,36 0,18" fill="none" stroke="gray"/>
    </marker>
  </defs>
  <defs>
    <marker orient="auto" markerHeight="36" markerWidth="57" refY="18" refX="39" id="ZERO_OR_MORE_END">
      <circle r="6" cy="18" cx="9" fill="white" stroke="gray"/>
      <path d="M21,18 Q39,0 57,18 Q39,36 21,18" fill="none" stroke="gray"/>
    </marker>
  </defs>
  <path style="stroke: gray; fill: none;" marker-start="url(#ONLY_ONE_START)" marker-end="url(#ZERO_OR_ONE_END)" d="M1213.837,64.002L1341.478,77.502C1469.118,91.002,1724.399,118.001,1852.04,139.834C1979.68,161.667,1979.68,178.333,1979.68,186.667L1979.68,195" class="er relationshipLine"/>
  <path style="stroke: gray; fill: none;" marker-start="url(#ONLY_ONE_START)" marker-end="url(#ZERO_OR_ONE_END)" d="M1213.837,66.112L1307.7,79.26C1401.562,92.408,1589.286,118.704,1683.148,140.185C1777.01,161.667,1777.01,178.333,1777.01,186.667L1777.01,195" class="er relationshipLine"/>
  <path style="stroke: gray; fill: none;" marker-start="url(#ONLY_ONE_START)" marker-end="url(#ZERO_OR_ONE_END)" d="M1213.837,74.597L1256.033,86.331C1298.228,98.064,1382.619,121.532,1424.814,141.599C1467.01,161.667,1467.01,178.333,1467.01,186.667L1467.01,195" class="er relationshipLine"/>
  <path style="stroke: gray; fill: none;" marker-start="url(#ONLY_ONE_START)" marker-end="url(#ZERO_OR_MORE_END)" d="M1213.837,39.965L1225.504,36.637C1237.171,33.31,1260.504,26.655,1275.087,23.327C1289.671,20,1295.504,20,1301.337,26.25C1307.171,32.5,1313.004,45,1313.004,57.5C1313.004,70,1307.171,82.5,1301.337,88.75C1295.504,95,1289.671,95,1275.087,91.673C1260.504,88.345,1237.171,81.69,1225.504,78.363L1213.837,75.035" class="er relationshipLine"/>
  <path style="stroke: gray; fill: none;" marker-start="url(#ONLY_ONE_START)" marker-end="url(#ZERO_OR_MORE_END)" d="M1105.065,95L1094.556,103.333C1084.047,111.667,1063.028,128.333,1052.519,151.25C1042.01,174.167,1042.01,203.333,1042.01,232.5C1042.01,261.667,1042.01,290.833,1045.748,313.75C1049.486,336.667,1056.962,353.333,1060.7,361.667L1064.439,370" class="er relationshipLine"/>
  <path style="stroke: gray; fill: none;" marker-start="url(#ONLY_ONE_START)" marker-end="url(#ZERO_OR_MORE_END)" d="M1090.877,83.074L1066.066,93.395C1041.255,103.716,991.632,124.358,966.821,149.262C942.01,174.167,942.01,203.333,942.01,232.5C942.01,261.667,942.01,290.833,1057.001,318.201C1171.992,345.568,1401.974,371.137,1516.965,383.921L1631.956,396.705" class="er relationshipLine"/>
  <path style="stroke: gray; fill: none;" marker-start="url(#ONLY_ONE_START)" marker-end="url(#ZERO_OR_MORE_END)" d="M1090.877,68.785L1021.672,81.487C952.467,94.19,814.057,119.595,744.852,140.631C675.647,161.667,675.647,178.333,675.647,186.667L675.647,195" class="er relationshipLine"/>
  <path style="stroke: gray; fill: none;" marker-start="url(#ONLY_ONE_START)" marker-end="url(#ZERO_OR_MORE_END)" d="M1090.877,66.04L996.141,79.2C901.404,92.36,711.932,118.68,617.195,146.423C522.459,174.167,522.459,203.333,522.459,232.5C522.459,261.667,522.459,290.833,555.915,316.867C589.371,342.901,656.283,365.802,689.739,377.253L723.195,388.704" class="er relationshipLine"/>
  <path style="stroke: gray; fill: none;" marker-start="url(#ONLY_ONE_START)" marker-end="url(#ZERO_OR_MORE_END)" d="M1188.822,566.875L1200.489,563.229C1212.156,559.583,1235.489,552.292,1250.072,548.646C1264.656,545,1270.489,545,1276.322,551.25C1282.156,557.5,1287.989,570,1287.989,582.5C1287.989,595,1282.156,607.5,1276.322,613.75C1270.489,620,1264.656,620,1250.072,616.354C1235.489,612.708,1212.156,605.417,1200.489,601.771L1188.822,598.125" class="er relationshipLine"/>
  <path style="stroke: gray; fill: none;" marker-start="url(#ONLY_ONE_START)" marker-end="url(#ZERO_OR_MORE_END)" d="M1138.822,620L1138.822,628.333C1138.822,636.667,1138.822,653.333,1138.822,670C1138.822,686.667,1138.822,703.333,1138.822,711.667L1138.822,720" class="er relationshipLine"/>
  <path style="stroke: gray; fill: none;" marker-start="url(#ONLY_ONE_START)" marker-end="url(#ZERO_OR_MORE_END)" d="M70,445L70,453.333C70,461.667,70,478.333,70,495C70,511.667,70,528.333,70,536.667L70,545" class="er relationshipLine"/>
  <path style="stroke: gray; fill: none;" marker-start="url(#ONLY_ONE_START)" marker-end="url(#ZERO_OR_ONE_END)" d="M199.266,267.179L219.389,275.983C239.511,284.786,279.755,302.393,295.116,319.53C310.476,336.667,300.952,353.333,296.19,361.667L291.429,370" class="er relationshipLine"/>
  <path style="stroke: gray; fill: none;" marker-start="url(#ONLY_ONE_START)" marker-end="url(#ZERO_OR_MORE_END)" d="M162.857,270L172.381,278.333C181.905,286.667,200.952,303.333,345.57,325.392C490.188,347.45,760.377,374.9,895.471,388.625L1030.565,402.35" class="er relationshipLine"/>
  <path style="stroke: gray; fill: none;" marker-start="url(#ONLY_ONE_START)" marker-end="url(#ZERO_OR_MORE_END)" d="M120,270L120,278.333C120,286.667,120,303.333,115.238,320C110.476,336.667,100.952,353.333,96.19,361.667L91.429,370" class="er relationshipLine"/>
  <path style="stroke: gray; fill: none;" marker-start="url(#ONLY_ONE_START)" marker-end="url(#ZERO_OR_MORE_END)" d="M77.143,270L67.619,278.333C58.095,286.667,39.048,303.333,146.723,325.194C254.398,347.054,488.797,374.108,605.996,387.635L723.195,401.161" class="er relationshipLine"/>
  <path style="stroke: gray; fill: none;" marker-start="url(#ONLY_ONE_START)" marker-end="url(#ZERO_OR_MORE_END)" d="M723.195,394.081L672.663,381.735C622.13,369.388,521.065,344.694,470.533,317.764C420,290.833,420,261.667,420,232.5C420,203.333,420,174.167,531.813,146.224C643.626,118.282,867.251,91.564,979.064,78.205L1090.877,64.845" class="er relationshipLine"/>
  <path style="stroke: gray; fill: none;" marker-start="url(#ONLY_ONE_START)" marker-end="url(#ZERO_OR_MORE_END)" d="M778.114,445L778.114,453.333C778.114,461.667,778.114,478.333,829.898,499.229C881.683,520.124,985.253,545.247,1037.038,557.809L1088.822,570.371" class="er relationshipLine"/>
  <path style="stroke: gray; fill: none;" marker-start="url(#ONLY_ONE_START)" marker-end="url(#ZERO_OR_MORE_END)" d="M833.032,395.144L888.695,382.62C944.358,370.096,1055.684,345.048,1153.014,320.371C1250.343,295.694,1333.677,271.389,1375.343,259.236L1417.01,247.083" class="er relationshipLine"/>
  <path style="stroke: gray; fill: none;" marker-start="url(#ONLY_ONE_START)" marker-end="url(#ZERO_OR_ONE_END)" d="M1517.01,238.459L1631.038,252.049C1745.067,265.639,1973.124,292.82,2024.648,317.994C2076.171,343.168,1951.16,366.337,1888.654,377.921L1826.149,389.505" class="er relationshipLine"/>
  <path style="stroke: gray; fill: none;" marker-start="url(#ONLY_ONE_START)" marker-end="url(#ZERO_OR_MORE_END)" d="M1517.01,239.399L1614.372,252.832C1711.734,266.266,1906.458,293.133,2003.82,321.15C2101.182,349.167,2101.182,378.333,2101.182,407.5C2101.182,436.667,2101.182,465.833,1949.122,494.242C1797.062,522.651,1492.942,550.303,1340.882,564.128L1188.822,577.954" class="er relationshipLine"/>
  <path style="stroke: gray; fill: none;" marker-start="url(#ONLY_ONE_START)" marker-end="url(#ZERO_OR_MORE_END)" d="M1517.01,252.199L1545.693,263.499C1574.375,274.799,1631.741,297.4,1567.565,322.067C1503.389,346.734,1317.672,373.468,1224.814,386.835L1131.956,400.202" class="er relationshipLine"/>
  <path style="stroke: gray; fill: none;" marker-start="url(#ONLY_ONE_START)" marker-end="url(#ZERO_OR_MORE_END)" d="M1517.01,268.332L1529.026,276.944C1541.042,285.555,1565.074,302.777,1451.078,324.985C1337.082,347.192,1085.057,374.383,959.044,387.979L833.032,401.575" class="er relationshipLine"/>
  <path style="stroke: gray; fill: none;" marker-start="url(#ONLY_ONE_START)" marker-end="url(#ZERO_OR_MORE_END)" d="M1445.581,270L1440.819,278.333C1436.057,286.667,1426.534,303.333,1427.957,320C1429.38,336.667,1441.751,353.333,1447.936,361.667L1454.122,370" class="er relationshipLine"/>
  <path style="stroke: gray; fill: none;" marker-start="url(#ONLY_ONE_START)" marker-end="url(#ZERO_OR_MORE_END)" d="M1517.01,216.875L1528.677,213.229C1540.343,209.583,1563.677,202.292,1578.26,198.646C1592.843,195,1598.677,195,1604.51,201.25C1610.343,207.5,1616.177,220,1616.177,232.5C1616.177,245,1610.343,257.5,1604.51,263.75C1598.677,270,1592.843,270,1578.26,266.354C1563.677,262.708,1540.343,255.417,1528.677,251.771L1517.01,248.125" class="er relationshipLine"/>
  <path style="stroke: gray; fill: none;" marker-start="url(#ONLY_ONE_START)" marker-end="url(#ZERO_OR_MORE_END)" d="M1417.01,254.375L1392.01,265.313C1367.01,276.25,1317.01,298.125,1293.433,317.396C1269.857,336.667,1272.703,353.333,1274.127,361.667L1275.55,370" class="er relationshipLine"/>
  <g transform="translate(1090.8768615722656,20 )" id="entity-PhysicalConstant-f43f8855-cf72-5deb-8dd3-7b0283708583">
    <rect height="75" width="122.96058654785156" y="0" x="0" class="er entityBox"/>
    <text style="dominant-baseline: middle; text-anchor: middle; font-size: 12px;" transform="translate(61.48029327392578,37.5)" y="0" x="0" id="text-entity-PhysicalConstant-f43f8855-cf72-5deb-8dd3-7b0283708583" class="er entityLabel">PhysicalConstant</text>
  </g>
  <g transform="translate(1088.8223457336426,545 )" id="entity-Prefix-f6d97b99-faee-5974-b12e-390868d79e86">
    <rect height="75" width="100" y="0" x="0" class="er entityBox"/>
    <text style="dominant-baseline: middle; text-anchor: middle; font-size: 12px;" transform="translate(50,37.5)" y="0" x="0" id="text-entity-Prefix-f6d97b99-faee-5974-b12e-390868d79e86" class="er entityLabel">Prefix</text>
  </g>
  <g transform="translate(20,370 )" id="entity-Rule-886caf8e-59ff-5db3-a492-27242971196f">
    <rect height="75" width="100" y="0" x="0" class="er entityBox"/>
    <text style="dominant-baseline: middle; text-anchor: middle; font-size: 12px;" transform="translate(50,37.5)" y="0" x="0" id="text-entity-Rule-886caf8e-59ff-5db3-a492-27242971196f" class="er entityLabel">Rule</text>
  </g>
  <g transform="translate(40.73357391357422,195 )" id="entity-SystemOfQuantityKinds-09c2a533-d4ff-5ffb-9642-53498359216a">
    <rect height="75" width="158.53285217285156" y="0" x="0" class="er entityBox"/>
    <text style="dominant-baseline: middle; text-anchor: middle; font-size: 12px;" transform="translate(79.26642608642578,37.5)" y="0" x="0" id="text-entity-SystemOfQuantityKinds-09c2a533-d4ff-5ffb-9642-53498359216a" class="er entityLabel">SystemOfQuantityKinds</text>
  </g>
  <g transform="translate(723.1953125,370 )" id="entity-SystemOfUnits-f7f1da8e-a5af-50e1-94d0-c2e741f40e1d">
    <rect height="75" width="109.83651733398438" y="0" x="0" class="er entityBox"/>
    <text style="dominant-baseline: middle; text-anchor: middle; font-size: 12px;" transform="translate(54.91825866699219,37.5)" y="0" x="0" id="text-entity-SystemOfUnits-f7f1da8e-a5af-50e1-94d0-c2e741f40e1d" class="er entityLabel">SystemOfUnits</text>
  </g>
  <g transform="translate(1417.0098457336426,195 )" id="entity-Unit-c57ac1ea-0a24-509a-a80e-23f8c03ca739">
    <rect height="75" width="100" y="0" x="0" class="er entityBox"/>
    <text style="dominant-baseline: middle; text-anchor: middle; font-size: 12px;" transform="translate(50,37.5)" y="0" x="0" id="text-entity-Unit-c57ac1ea-0a24-509a-a80e-23f8c03ca739" class="er entityLabel">Unit</text>
  </g>
  <g transform="translate(1927.0098457336426,195 )" id="entity-DataEncoding-e949680e-a6e4-55c9-9325-aa69226f3e53">
    <rect height="75" width="105.34048461914062" y="0" x="0" class="er entityBox"/>
    <text style="dominant-baseline: middle; text-anchor: middle; font-size: 12px;" transform="translate(52.67024230957031,37.5)" y="0" x="0" id="text-entity-DataEncoding-e949680e-a6e4-55c9-9325-aa69226f3e53" class="er entityLabel">DataEncoding</text>
  </g>
  <g transform="translate(1727.0098457336426,195 )" id="entity-Datatype-eedb5402-d0cc-52bf-9fb8-7b914f648cbe">
    <rect height="75" width="100" y="0" x="0" class="er entityBox"/>
    <text style="dominant-baseline: middle; text-anchor: middle; font-size: 12px;" transform="translate(50,37.5)" y="0" x="0" id="text-entity-Datatype-eedb5402-d0cc-52bf-9fb8-7b914f648cbe" class="er entityLabel">Datatype</text>
  </g>
  <g transform="translate(1030.5648880004883,370 )" id="entity-QuantityKind-6f79b338-e354-5d95-8035-8883644476ff">
    <rect height="75" width="101.390625" y="0" x="0" class="er entityBox"/>
    <text style="dominant-baseline: middle; text-anchor: middle; font-size: 12px;" transform="translate(50.6953125,37.5)" y="0" x="0" id="text-entity-QuantityKind-6f79b338-e354-5d95-8035-8883644476ff" class="er entityLabel">QuantityKind</text>
  </g>
  <g transform="translate(1631.9555130004883,370 )" id="entity-QuantityKindDimensionVector-bfa1bf26-fcae-516f-8f63-2f454f3dac1b">
    <rect height="75" width="194.19308471679688" y="0" x="0" class="er entityBox"/>
    <text style="dominant-baseline: middle; text-anchor: middle; font-size: 12px;" transform="translate(97.09654235839844,37.5)" y="0" x="0" id="text-entity-QuantityKindDimensionVector-bfa1bf26-fcae-516f-8f63-2f454f3dac1b" class="er entityLabel">QuantityKindDimensionVector</text>
  </g>
  <g transform="translate(622.4591293334961,195 )" id="entity-QuantityValue-f2bc13d2-1961-5e2a-9bfe-ab6a05a5860b">
    <rect height="75" width="106.375" y="0" x="0" class="er entityBox"/>
    <text style="dominant-baseline: middle; text-anchor: middle; font-size: 12px;" transform="translate(53.1875,37.5)" y="0" x="0" id="text-entity-QuantityValue-f2bc13d2-1961-5e2a-9bfe-ab6a05a5860b" class="er entityLabel">QuantityValue</text>
  </g>
  <g transform="translate(1087.1035957336426,720 )" id="entity-UCUMcsterm-f108a9d5-75dc-5824-aae7-181f348ae82a">
    <rect height="75" width="103.4375" y="0" x="0" class="er entityBox"/>
    <text style="dominant-baseline: middle; text-anchor: middle; font-size: 12px;" transform="translate(51.71875,37.5)" y="0" x="0" id="text-entity-UCUMcsterm-f108a9d5-75dc-5824-aae7-181f348ae82a" class="er entityLabel">UCUMcs-term</text>
  </g>
  <g transform="translate(20,545 )" id="entity-RuleType-d54df1a6-a17d-5920-9344-6f805c739e55">
    <rect height="75" width="100" y="0" x="0" class="er entityBox"/>
    <text style="dominant-baseline: middle; text-anchor: middle; font-size: 12px;" transform="translate(50,37.5)" y="0" x="0" id="text-entity-RuleType-d54df1a6-a17d-5920-9344-6f805c739e55" class="er entityLabel">RuleType</text>
  </g>
  <g transform="translate(220,370 )" id="entity-Enumeration-f9f59bb4-2616-549b-89c9-bf7c68943800">
    <rect height="75" width="100" y="0" x="0" class="er entityBox"/>
    <text style="dominant-baseline: middle; text-anchor: middle; font-size: 12px;" transform="translate(50,37.5)" y="0" x="0" id="text-entity-Enumeration-f9f59bb4-2616-549b-89c9-bf7c68943800" class="er entityLabel">Enumeration</text>
  </g>
  <g transform="translate(1431.9555130004883,370 )" id="entity-UCUMcs-8df33f70-0c53-5f8e-a81f-0969bc803a34">
    <rect height="75" width="100" y="0" x="0" class="er entityBox"/>
    <text style="dominant-baseline: middle; text-anchor: middle; font-size: 12px;" transform="translate(50,37.5)" y="0" x="0" id="text-entity-UCUMcs-8df33f70-0c53-5f8e-a81f-0969bc803a34" class="er entityLabel">UCUMcs</text>
  </g>
  <g transform="translate(1231.9555130004883,370 )" id="entity-Class-d9e3eb4a-97c0-50b6-8e3f-7f4a2fa7283d">
    <rect height="75" width="100" y="0" x="0" class="er entityBox"/>
    <text style="dominant-baseline: middle; text-anchor: middle; font-size: 12px;" transform="translate(50,37.5)" y="0" x="0" id="text-entity-Class-d9e3eb4a-97c0-50b6-8e3f-7f4a2fa7283d" class="er entityLabel">__Class</text>
  </g>
  <rect height="14" width="74.908447265625" y="99.83607482910156" x="1570.3228759765625" class="er relationshipLabelBox"/>
  <text style="text-anchor: middle; dominant-baseline: middle; font-size: 12px;" y="106.83607482910156" x="1607.777099609375" id="rel1" class="er relationshipLabel">dataEncoding</text>
  <rect height="14" width="48.328125" y="101.49549865722656" x="1483.439453125" class="er relationshipLabelBox"/>
  <text style="text-anchor: middle; dominant-baseline: middle; font-size: 12px;" y="108.49549865722656" x="1507.603515625" id="rel2" class="er relationshipLabel">datatype</text>
  <rect height="14" width="128.1568603515625" y="108.66414642333984" x="1291.5773315429688" class="er relationshipLabelBox"/>
  <text style="text-anchor: middle; dominant-baseline: middle; font-size: 12px;" y="115.66414642333984" x="1355.65576171875" id="rel3" class="er relationshipLabel">applicableUnit, hasUnit</text>
  <rect height="14" width="61.453125" y="50.5" x="1282.2774658203125" class="er relationshipLabelBox"/>
  <text style="text-anchor: middle; dominant-baseline: middle; font-size: 12px;" y="57.5" x="1313.0040283203125" id="rel4" class="er relationshipLabel">exactMatch</text>
  <rect height="14" width="90.4375" y="215.78848266601562" x="996.8065185546875" class="er relationshipLabelBox"/>
  <text style="text-anchor: middle; dominant-baseline: middle; font-size: 12px;" y="222.78848266601562" x="1042.0252685546875" id="rel5" class="er relationshipLabel">hasQuantityKind</text>
  <rect height="14" width="111.8487548828125" y="329.56005859375" x="1095.2562866210938" class="er relationshipLabelBox"/>
  <text style="text-anchor: middle; dominant-baseline: middle; font-size: 12px;" y="336.56005859375" x="1151.1806640625" id="rel6" class="er relationshipLabel">hasDimensionVector</text>
  <rect height="14" width="75.265625" y="103.6845932006836" x="832.2423706054688" class="er relationshipLabelBox"/>
  <text style="text-anchor: middle; dominant-baseline: middle; font-size: 12px;" y="110.6845932006836" x="869.8751831054688" id="rel7" class="er relationshipLabel">quantityValue</text>
  <rect height="14" width="95.78125" y="131.3808135986328" x="599.4588012695312" class="er relationshipLabelBox"/>
  <text style="text-anchor: middle; dominant-baseline: middle; font-size: 12px;" y="138.3808135986328" x="647.3494262695312" id="rel8" class="er relationshipLabel">applicableSystem</text>
  <rect height="14" width="61.453125" y="575.5" x="1257.262451171875" class="er relationshipLabelBox"/>
  <text style="text-anchor: middle; dominant-baseline: middle; font-size: 12px;" y="582.5" x="1287.989013671875" id="rel9" class="er relationshipLabel">exactMatch</text>
  <rect height="14" width="57.078125" y="663" x="1110.282958984375" class="er relationshipLabelBox"/>
  <text style="text-anchor: middle; dominant-baseline: middle; font-size: 12px;" y="670" x="1138.822021484375" id="rel10" class="er relationshipLabel">ucumCode</text>
  <rect height="14" width="46.921875" y="488" x="46.5390625" class="er relationshipLabelBox"/>
  <text style="text-anchor: middle; dominant-baseline: middle; font-size: 12px;" y="495" x="70" id="rel11" class="er relationshipLabel">ruleType</text>
  <rect height="14" width="153.203125" y="295.9136047363281" x="197.0714111328125" class="er relationshipLabelBox"/>
  <text style="text-anchor: middle; dominant-baseline: middle; font-size: 12px;" y="302.9136047363281" x="273.6729736328125" id="rel12" class="er relationshipLabel">baseDimensionEnumeration</text>
  <rect height="14" width="369.890625" y="349.4897155761719" x="406.49365234375" class="er relationshipLabelBox"/>
  <text style="text-anchor: middle; dominant-baseline: middle; font-size: 12px;" y="356.4897155761719" x="591.43896484375" id="rel13" class="er relationshipLabel">hasBaseQuantityKind, hasQuantityKind, systemDerivedQuantityKind</text>
  <rect height="14" width="43.296875" y="315.44708251953125" x="92.8568344116211" class="er relationshipLabelBox"/>
  <text style="text-anchor: middle; dominant-baseline: middle; font-size: 12px;" y="322.44708251953125" x="114.5052719116211" id="rel14" class="er relationshipLabel">hasRule</text>
  <rect height="14" width="80.5625" y="352.5672912597656" x="332.7245788574219" class="er relationshipLabelBox"/>
  <text style="text-anchor: middle; dominant-baseline: middle; font-size: 12px;" y="359.5672912597656" x="373.0058288574219" id="rel15" class="er relationshipLabel">hasUnitSystem</text>
  <rect height="14" width="149.9129638671875" y="134.6896209716797" x="476.0047607421875" class="er relationshipLabelBox"/>
  <text style="text-anchor: middle; dominant-baseline: middle; font-size: 12px;" y="141.6896209716797" x="550.9612426757812" id="rel16" class="er relationshipLabel">applicablePhysicalConstant</text>
  <rect height="14" width="30.8402099609375" y="520.669189453125" x="903.4852905273438" class="er relationshipLabelBox"/>
  <text style="text-anchor: middle; dominant-baseline: middle; font-size: 12px;" y="527.669189453125" x="918.9053955078125" id="rel17" class="er relationshipLabel">prefix</text>
  <rect height="14" width="622.59619140625" y="320.01251220703125" x="815.22802734375" class="er relationshipLabelBox"/>
  <text style="text-anchor: middle; dominant-baseline: middle; font-size: 12px;" y="327.01251220703125" x="1126.526123046875" id="rel18" class="er relationshipLabel">hasAllowedUnit, hasBaseUnit, hasCoherentUnit, hasDefinedUnit, hasDerivedCoherentUnit, hasDerivedUnit, hasUnit</text>
  <rect height="14" width="304.4981689453125" y="279.9834289550781" x="1739.3434448242188" class="er relationshipLabelBox"/>
  <text style="text-anchor: middle; dominant-baseline: middle; font-size: 12px;" y="286.9834289550781" x="1891.592529296875" id="rel19" class="er relationshipLabel">hasDimensionVector, qkdvDenominator, qkdvNumerator</text>
  <rect height="14" width="30.8402099609375" y="481.0660400390625" x="1964.3626098632812" class="er relationshipLabelBox"/>
  <text style="text-anchor: middle; dominant-baseline: middle; font-size: 12px;" y="488.0660400390625" x="1979.78271484375" id="rel20" class="er relationshipLabel">prefix</text>
  <rect height="14" width="90.4375" y="349.8370666503906" x="1372.3084716796875" class="er relationshipLabelBox"/>
  <text style="text-anchor: middle; dominant-baseline: middle; font-size: 12px;" y="356.8370666503906" x="1417.5272216796875" id="rel21" class="er relationshipLabel">hasQuantityKind</text>
  <rect height="14" width="597.5625" y="352.95697021484375" x="908.7440185546875" class="er relationshipLabelBox"/>
  <text style="text-anchor: middle; dominant-baseline: middle; font-size: 12px;" y="359.95697021484375" x="1207.5252685546875" id="rel22" class="er relationshipLabel">applicableSystem, definedUnitOfSystem, derivedCoherentUnitOfSystem, derivedUnitOfSystem, isUnitOfSystem</text>
  <rect height="14" width="57.078125" y="314.6319580078125" x="1399.5919189453125" class="er relationshipLabelBox"/>
  <text style="text-anchor: middle; dominant-baseline: middle; font-size: 12px;" y="321.6319580078125" x="1428.1309814453125" id="rel23" class="er relationshipLabel">ucumCode</text>
  <rect height="14" width="223.1495361328125" y="225.5" x="1504.6022338867188" class="er relationshipLabelBox"/>
  <text style="text-anchor: middle; dominant-baseline: middle; font-size: 12px;" y="232.5" x="1616.177001953125" id="rel24" class="er relationshipLabel">exactMatch, hasReciprocalUnit, scalingOf</text>
  <rect height="14" width="75.632568359375" y="289.1216125488281" x="1289.1053466796875" class="er relationshipLabelBox"/>
  <text style="text-anchor: middle; dominant-baseline: middle; font-size: 12px;" y="296.1216125488281" x="1326.921630859375" id="rel25" class="er relationshipLabel">hasFactorUnit</text>
</svg>
