<svg xmlns="http://www.w3.org/2000/svg" aria-roledescription="er" role="graphics-document document" viewBox="0 0 2606.839111328125 815" height="815" width="2606.839111328125" id="container">
  <style>#container{font-family:"trebuchet ms",verdana,arial,sans-serif;font-size:16px;fill:#333;}#container .error-icon{fill:#552222;}#container .error-text{fill:#552222;stroke:#552222;}#container .edge-thickness-normal{stroke-width:1px;}#container .edge-thickness-thick{stroke-width:3.5px;}#container .edge-pattern-solid{stroke-dasharray:0;}#container .edge-thickness-invisible{stroke-width:0;fill:none;}#container .edge-pattern-dashed{stroke-dasharray:3;}#container .edge-pattern-dotted{stroke-dasharray:2;}#container .marker{fill:#333333;stroke:#333333;}#container .marker.cross{stroke:#333333;}#container svg{font-family:"trebuchet ms",verdana,arial,sans-serif;font-size:16px;}#container p{margin:0;}#container .entityBox{fill:#ECECFF;stroke:#9370DB;}#container .attributeBoxOdd{fill:#ffffff;stroke:#9370DB;}#container .attributeBoxEven{fill:#f2f2f2;stroke:#9370DB;}#container .relationshipLabelBox{fill:hsl(80, 100%, 96.2745098039%);opacity:0.7;background-color:hsl(80, 100%, 96.2745098039%);}#container .relationshipLabelBox rect{opacity:0.5;}#container .relationshipLine{stroke:#333333;}#container .entityTitleText{text-anchor:middle;font-size:18px;fill:#333;}#container #MD_PARENT_START{fill:#f5f5f5!important;stroke:#333333!important;stroke-width:1;}#container #MD_PARENT_END{fill:#f5f5f5!important;stroke:#333333!important;stroke-width:1;}#container :root{--mermaid-font-family:"trebuchet ms",verdana,arial,sans-serif;}</style>
  <g/>
  <defs>
    <marker orient="auto" markerHeight="240" markerWidth="190" refY="7" refX="0" id="MD_PARENT_START">
      <path d="M 18,7 L9,13 L1,7 L9,1 Z"/>
    </marker>
  </defs>
  <defs>
    <marker orient="auto" markerHeight="28" markerWidth="20" refY="7" refX="19" id="MD_PARENT_END">
      <path d="M 18,7 L9,13 L1,7 L9,1 Z"/>
    </marker>
  </defs>
  <defs>
    <marker orient="auto" markerHeight="18" markerWidth="18" refY="9" refX="0" id="ONLY_ONE_START">
      <path d="M9,0 L9,18 M15,0 L15,18" fill="none" stroke="gray"/>
    </marker>
  </defs>
  <defs>
    <marker orient="auto" markerHeight="18" markerWidth="18" refY="9" refX="18" id="ONLY_ONE_END">
      <path d="M3,0 L3,18 M9,0 L9,18" fill="none" stroke="gray"/>
    </marker>
  </defs>
  <defs>
    <marker orient="auto" markerHeight="18" markerWidth="30" refY="9" refX="0" id="ZERO_OR_ONE_START">
      <circle r="6" cy="9" cx="21" fill="white" stroke="gray"/>
      <path d="M9,0 L9,18" fill="none" stroke="gray"/>
    </marker>
  </defs>
  <defs>
    <marker orient="auto" markerHeight="18" markerWidth="30" refY="9" refX="30" id="ZERO_OR_ONE_END">
      <circle r="6" cy="9" cx="9" fill="white" stroke="gray"/>
      <path d="M21,0 L21,18" fill="none" stroke="gray"/>
    </marker>
  </defs>
  <defs>
    <marker orient="auto" markerHeight="36" markerWidth="45" refY="18" refX="18" id="ONE_OR_MORE_START">
      <path d="M0,18 Q 18,0 36,18 Q 18,36 0,18 M42,9 L42,27" fill="none" stroke="gray"/>
    </marker>
  </defs>
  <defs>
    <marker orient="auto" markerHeight="36" markerWidth="45" refY="18" refX="27" id="ONE_OR_MORE_END">
      <path d="M3,9 L3,27 M9,18 Q27,0 45,18 Q27,36 9,18" fill="none" stroke="gray"/>
    </marker>
  </defs>
  <defs>
    <marker orient="auto" markerHeight="36" markerWidth="57" refY="18" refX="18" id="ZERO_OR_MORE_START">
      <circle r="6" cy="18" cx="48" fill="white" stroke="gray"/>
      <path d="M0,18 Q18,0 36,18 Q18,36 0,18" fill="none" stroke="gray"/>
    </marker>
  </defs>
  <defs>
    <marker orient="auto" markerHeight="36" markerWidth="57" refY="18" refX="39" id="ZERO_OR_MORE_END">
      <circle r="6" cy="18" cx="9" fill="white" stroke="gray"/>
      <path d="M21,18 Q39,0 57,18 Q39,36 21,18" fill="none" stroke="gray"/>
    </marker>
  </defs>
  <path style="stroke: gray; fill: none;" marker-start="url(#ONLY_ONE_START)" marker-end="url(#ZERO_OR_ONE_END)" d="M247.949,445L251.624,453.333C255.299,461.667,262.65,478.333,266.325,495C270,511.667,270,528.333,270,536.667L270,545" class="er relationshipLine"/>
  <path style="stroke: gray; fill: none;" marker-start="url(#ONLY_ONE_START)" marker-end="url(#ZERO_OR_ONE_END)" d="M284.081,431.937L306.734,442.448C329.387,452.958,374.694,473.979,402.109,492.823C429.524,511.667,439.048,528.333,443.81,536.667L448.571,545" class="er relationshipLine"/>
  <path style="stroke: gray; fill: none;" marker-start="url(#ONLY_ONE_START)" marker-end="url(#ZERO_OR_ONE_END)" d="M284.081,423.281L323.975,435.234C363.869,447.187,443.657,471.094,478.461,491.38C513.265,511.667,503.085,528.333,497.995,536.667L492.905,545" class="er relationshipLine"/>
  <path style="stroke: gray; fill: none;" marker-start="url(#ONLY_ONE_START)" marker-end="url(#ZERO_OR_ONE_END)" d="M628.237,445L636.346,453.333C644.455,461.667,660.673,478.333,668.782,495C676.891,511.667,676.891,528.333,676.891,536.667L676.891,545" class="er relationshipLine"/>
  <path style="stroke: gray; fill: none;" marker-start="url(#ONLY_ONE_START)" marker-end="url(#ZERO_OR_ONE_END)" d="M641.747,399.202L671.073,394.335C700.399,389.468,759.052,379.734,795.71,374.867C832.368,370,847.031,370,861.694,376.25C876.357,382.5,891.02,395,891.02,407.5C891.02,420,876.357,432.5,861.694,438.75C847.031,445,832.368,445,795.71,440.133C759.052,435.266,700.399,425.532,671.073,420.665L641.747,415.798" class="er relationshipLine"/>
  <path style="stroke: gray; fill: none;" marker-start="url(#ONLY_ONE_START)" marker-end="url(#ZERO_OR_ONE_END)" d="M641.747,422.481L682.086,434.568C722.425,446.654,803.103,470.827,843.442,491.247C883.781,511.667,883.781,528.333,883.781,536.667L883.781,545" class="er relationshipLine"/>
  <path style="stroke: gray; fill: none;" marker-start="url(#ONLY_ONE_START)" marker-end="url(#ZERO_OR_MORE_END)" d="M541.747,415.885L463.122,429.071C384.498,442.257,227.249,468.628,148.624,490.148C70,511.667,70,528.333,70,536.667L70,545" class="er relationshipLine"/>
  <path style="stroke: gray; fill: none;" marker-start="url(#ONLY_ONE_START)" marker-end="url(#ZERO_OR_ONE_END)" d="M721.747,64.77L629.789,78.142C537.831,91.514,353.916,118.257,261.958,146.212C170,174.167,170,203.333,170,232.5C170,261.667,170,290.833,175.849,313.75C181.697,336.667,193.395,353.333,199.243,361.667L205.092,370" class="er relationshipLine"/>
  <path style="stroke: gray; fill: none;" marker-start="url(#ONLY_ONE_START)" marker-end="url(#ZERO_OR_ONE_END)" d="M721.747,68.426L663.345,81.189C604.943,93.951,488.139,119.475,429.737,146.821C371.335,174.167,371.335,203.333,371.335,232.5C371.335,261.667,371.335,290.833,399.737,316.692C428.139,342.55,484.943,365.101,513.345,376.376L541.747,387.651" class="er relationshipLine"/>
  <path style="stroke: gray; fill: none;" marker-start="url(#ONLY_ONE_START)" marker-end="url(#ZERO_OR_ONE_END)" d="M821.747,66.452L894.866,79.543C967.986,92.635,1114.225,118.817,1187.344,146.492C1260.464,174.167,1260.464,203.333,1260.464,232.5C1260.464,261.667,1260.464,290.833,1347.783,318.729C1435.103,346.626,1609.741,373.251,1697.061,386.564L1784.38,399.877" class="er relationshipLine"/>
  <path style="stroke: gray; fill: none;" marker-start="url(#ONLY_ONE_START)" marker-end="url(#ZERO_OR_MORE_END)" d="M821.747,74.174L857.144,85.978C892.541,97.783,963.335,121.391,998.732,147.779C1034.129,174.167,1034.129,203.333,1034.129,232.5C1034.129,261.667,1034.129,290.833,1034.129,320C1034.129,349.167,1034.129,378.333,1034.129,407.5C1034.129,436.667,1034.129,465.833,1038.924,488.75C1043.719,511.667,1053.309,528.333,1058.104,536.667L1062.899,545" class="er relationshipLine"/>
  <path style="stroke: gray; fill: none;" marker-start="url(#ONLY_ONE_START)" marker-end="url(#ZERO_OR_MORE_END)" d="M785.608,95L788.688,103.333C791.769,111.667,797.929,128.333,801.01,145C804.09,161.667,804.09,178.333,804.09,186.667L804.09,195" class="er relationshipLine"/>
  <path style="stroke: gray; fill: none;" marker-start="url(#ONLY_ONE_START)" marker-end="url(#ZERO_OR_ONE_END)" d="M750.902,241.236L670.974,254.363C591.047,267.49,431.191,293.745,347.461,315.206C263.73,336.667,256.126,353.333,252.324,361.667L248.521,370" class="er relationshipLine"/>
  <path style="stroke: gray; fill: none;" marker-start="url(#ONLY_ONE_START)" marker-end="url(#ZERO_OR_ONE_END)" d="M804.09,270L804.09,278.333C804.09,286.667,804.09,303.333,777.033,322.816C749.975,342.299,695.861,364.598,668.804,375.747L641.747,386.897" class="er relationshipLine"/>
  <path style="stroke: gray; fill: none;" marker-start="url(#ONLY_ONE_START)" marker-end="url(#ZERO_OR_ONE_END)" d="M857.277,236.808L1028.461,250.673C1199.645,264.539,1542.012,292.269,1708.434,314.468C1874.856,336.667,1865.332,353.333,1860.57,361.667L1855.808,370" class="er relationshipLine"/>
  <path style="stroke: gray; fill: none;" marker-start="url(#ONLY_ONE_START)" marker-end="url(#ZERO_OR_MORE_END)" d="M70,620L70,628.333C70,636.667,70,653.333,70,670C70,686.667,70,703.333,70,711.667L70,720" class="er relationshipLine"/>
  <path style="stroke: gray; fill: none;" marker-start="url(#ONLY_ONE_START)" marker-end="url(#ZERO_OR_ONE_END)" d="M1784.38,415.095L1696.712,428.413C1609.044,441.73,1433.708,468.365,1355.564,490.016C1277.42,511.667,1296.468,528.333,1305.992,536.667L1315.515,545" class="er relationshipLine"/>
  <path style="stroke: gray; fill: none;" marker-start="url(#ONLY_ONE_START)" marker-end="url(#ZERO_OR_ONE_END)" d="M1784.38,416.691L1713.379,429.743C1642.377,442.794,1500.375,468.897,1429.374,490.282C1358.372,511.667,1358.372,528.333,1358.372,536.667L1358.372,545" class="er relationshipLine"/>
  <path style="stroke: gray; fill: none;" marker-start="url(#ONLY_ONE_START)" marker-end="url(#ZERO_OR_ONE_END)" d="M1784.38,419.135L1730.045,431.78C1675.711,444.424,1567.042,469.712,1503.183,490.689C1439.325,511.667,1420.277,528.333,1410.753,536.667L1401.23,545" class="er relationshipLine"/>
  <path style="stroke: gray; fill: none;" marker-start="url(#ONLY_ONE_START)" marker-end="url(#ZERO_OR_MORE_END)" d="M1784.38,429.109L1758.97,440.091C1733.56,451.073,1682.74,473.036,1657.331,492.352C1631.921,511.667,1631.921,528.333,1631.921,536.667L1631.921,545" class="er relationshipLine"/>
  <path style="stroke: gray; fill: none;" marker-start="url(#ONLY_ONE_START)" marker-end="url(#ZERO_OR_MORE_END)" d="M1784.38,413.972L1680.045,427.477C1575.711,440.981,1367.042,467.991,1255.669,489.829C1144.297,511.667,1130.222,528.333,1123.184,536.667L1116.146,545" class="er relationshipLine"/>
  <path style="stroke: gray; fill: none;" marker-start="url(#ONLY_ONE_START)" marker-end="url(#ZERO_OR_MORE_END)" d="M1812.951,445L1808.189,453.333C1803.428,461.667,1793.904,478.333,1813.322,497.246C1832.74,516.158,1881.101,537.316,1905.281,547.894L1929.462,558.473" class="er relationshipLine"/>
  <path style="stroke: gray; fill: none;" marker-start="url(#ONLY_ONE_START)" marker-end="url(#ZERO_OR_MORE_END)" d="M1855.808,445L1860.57,453.333C1865.332,461.667,1874.856,478.333,1889.142,495C1903.428,511.667,1922.475,528.333,1931.999,536.667L1941.523,545" class="er relationshipLine"/>
  <path style="stroke: gray; fill: none;" marker-start="url(#ONLY_ONE_START)" marker-end="url(#ZERO_OR_MORE_END)" d="M1884.38,436.667L1901.047,446.389C1917.713,456.111,1951.047,475.556,1967.713,493.611C1984.38,511.667,1984.38,528.333,1984.38,536.667L1984.38,545" class="er relationshipLine"/>
  <path style="stroke: gray; fill: none;" marker-start="url(#ONLY_ONE_START)" marker-end="url(#ZERO_OR_MORE_END)" d="M1884.38,425L1917.713,436.667C1951.047,448.333,2017.713,471.667,2041.523,491.667C2065.332,511.667,2046.285,528.333,2036.761,536.667L2027.237,545" class="er relationshipLine"/>
  <path style="stroke: gray; fill: none;" marker-start="url(#ONLY_ONE_START)" marker-end="url(#ZERO_OR_MORE_END)" d="M1884.38,420L1934.38,432.5C1984.38,445,2084.38,470,2110.2,493.079C2136.019,516.158,2087.659,537.316,2063.478,547.894L2039.298,558.473" class="er relationshipLine"/>
  <path style="stroke: gray; fill: none;" marker-start="url(#ONLY_ONE_START)" marker-end="url(#ZERO_OR_MORE_END)" d="M1884.38,416.207L1959.79,429.339C2035.2,442.471,2186.019,468.736,2261.429,490.201C2336.839,511.667,2336.839,528.333,2336.839,536.667L2336.839,545" class="er relationshipLine"/>
  <path style="stroke: gray; fill: none;" marker-start="url(#ONLY_ONE_START)" marker-end="url(#ZERO_OR_MORE_END)" d="M1884.38,391.875L1896.047,388.229C1907.713,384.583,1931.047,377.292,1945.63,373.646C1960.213,370,1966.047,370,1971.88,376.25C1977.713,382.5,1983.547,395,1983.547,407.5C1983.547,420,1977.713,432.5,1971.88,438.75C1966.047,445,1960.213,445,1945.63,441.354C1931.047,437.708,1907.713,430.417,1896.047,426.771L1884.38,423.125" class="er relationshipLine"/>
  <path style="stroke: gray; fill: none;" marker-start="url(#ONLY_ONE_START)" marker-end="url(#ZERO_OR_MORE_END)" d="M1884.38,397.802L1908.269,393.168C1932.158,388.534,1979.935,379.267,2009.797,374.634C2039.658,370,2051.602,370,2063.547,376.25C2075.491,382.5,2087.435,395,2087.435,407.5C2087.435,420,2075.491,432.5,2063.547,438.75C2051.602,445,2039.658,445,2009.797,440.366C1979.935,435.733,1932.158,426.466,1908.269,421.832L1884.38,417.198" class="er relationshipLine"/>
  <path style="stroke: gray; fill: none;" marker-start="url(#ONLY_ONE_START)" marker-end="url(#ZERO_OR_MORE_END)" d="M1884.38,400.469L1920.491,395.391C1956.602,390.313,2028.824,380.156,2073.963,375.078C2119.102,370,2137.158,370,2155.213,376.25C2173.269,382.5,2191.324,395,2191.324,407.5C2191.324,420,2173.269,432.5,2155.213,438.75C2137.158,445,2119.102,445,2073.963,439.922C2028.824,434.844,1956.602,424.688,1920.491,419.609L1884.38,414.531" class="er relationshipLine"/>
  <path style="stroke: gray; fill: none;" marker-start="url(#ONLY_ONE_START)" marker-end="url(#ZERO_OR_MORE_END)" d="M1884.38,413.728L1993.123,427.273C2101.866,440.819,2319.353,467.909,2428.096,489.788C2536.839,511.667,2536.839,528.333,2536.839,536.667L2536.839,545" class="er relationshipLine"/>
  <g transform="translate(178.74061584472656,370 )" id="entity-DataEncoding-e949680e-a6e4-55c9-9325-aa69226f3e53">
    <rect height="75" width="105.34048461914062" y="0" x="0" class="er entityBox"/>
    <text style="dominant-baseline: middle; text-anchor: middle; font-size: 12px;" transform="translate(52.67024230957031,37.5)" y="0" x="0" id="text-entity-DataEncoding-e949680e-a6e4-55c9-9325-aa69226f3e53" class="er entityLabel">DataEncoding</text>
  </g>
  <g transform="translate(541.7467956542969,370 )" id="entity-Datatype-eedb5402-d0cc-52bf-9fb8-7b914f648cbe">
    <rect height="75" width="100" y="0" x="0" class="er entityBox"/>
    <text style="dominant-baseline: middle; text-anchor: middle; font-size: 12px;" transform="translate(50,37.5)" y="0" x="0" id="text-entity-Datatype-eedb5402-d0cc-52bf-9fb8-7b914f648cbe" class="er entityLabel">Datatype</text>
  </g>
  <g transform="translate(721.7467956542969,20 )" id="entity-Quantity-46f11547-7eaf-5ee9-bc9f-a9eb227f8785">
    <rect height="75" width="100" y="0" x="0" class="er entityBox"/>
    <text style="dominant-baseline: middle; text-anchor: middle; font-size: 12px;" transform="translate(50,37.5)" y="0" x="0" id="text-entity-Quantity-46f11547-7eaf-5ee9-bc9f-a9eb227f8785" class="er entityLabel">Quantity</text>
  </g>
  <g transform="translate(750.90234375,195 )" id="entity-QuantityValue-f2bc13d2-1961-5e2a-9bfe-ab6a05a5860b">
    <rect height="75" width="106.375" y="0" x="0" class="er entityBox"/>
    <text style="dominant-baseline: middle; text-anchor: middle; font-size: 12px;" transform="translate(53.1875,37.5)" y="0" x="0" id="text-entity-QuantityValue-f2bc13d2-1961-5e2a-9bfe-ab6a05a5860b" class="er entityLabel">QuantityValue</text>
  </g>
  <g transform="translate(20,545 )" id="entity-Rule-886caf8e-59ff-5db3-a492-27242971196f">
    <rect height="75" width="100" y="0" x="0" class="er entityBox"/>
    <text style="dominant-baseline: middle; text-anchor: middle; font-size: 12px;" transform="translate(50,37.5)" y="0" x="0" id="text-entity-Rule-886caf8e-59ff-5db3-a492-27242971196f" class="er entityLabel">Rule</text>
  </g>
  <g transform="translate(1784.3798904418945,370 )" id="entity-Unit-c57ac1ea-0a24-509a-a80e-23f8c03ca739">
    <rect height="75" width="100" y="0" x="0" class="er entityBox"/>
    <text style="dominant-baseline: middle; text-anchor: middle; font-size: 12px;" transform="translate(50,37.5)" y="0" x="0" id="text-entity-Unit-c57ac1ea-0a24-509a-a80e-23f8c03ca739" class="er entityLabel">Unit</text>
  </g>
  <g transform="translate(220,545 )" id="entity-Encoding-1bd3f2aa-2a9a-589f-8d8d-495ffc6a00da">
    <rect height="75" width="100" y="0" x="0" class="er entityBox"/>
    <text style="dominant-baseline: middle; text-anchor: middle; font-size: 12px;" transform="translate(50,37.5)" y="0" x="0" id="text-entity-Encoding-1bd3f2aa-2a9a-589f-8d8d-495ffc6a00da" class="er entityLabel">Encoding</text>
  </g>
  <g transform="translate(420,545 )" id="entity-EndianType-d95ef20a-f1b7-5562-baf4-d38ffa1e0153">
    <rect height="75" width="100" y="0" x="0" class="er entityBox"/>
    <text style="dominant-baseline: middle; text-anchor: middle; font-size: 12px;" transform="translate(50,37.5)" y="0" x="0" id="text-entity-EndianType-d95ef20a-f1b7-5562-baf4-d38ffa1e0153" class="er entityLabel">EndianType</text>
  </g>
  <g transform="translate(620,545 )" id="entity-CardinalityType-796d1111-9b0e-5cfa-a954-3577abec4acc">
    <rect height="75" width="113.78125" y="0" x="0" class="er entityBox"/>
    <text style="dominant-baseline: middle; text-anchor: middle; font-size: 12px;" transform="translate(56.890625,37.5)" y="0" x="0" id="text-entity-CardinalityType-796d1111-9b0e-5cfa-a954-3577abec4acc" class="er entityLabel">CardinalityType</text>
  </g>
  <g transform="translate(833.78125,545 )" id="entity-OrderedType-842b5e5e-013e-581b-9bf8-11371587b713">
    <rect height="75" width="100" y="0" x="0" class="er entityBox"/>
    <text style="dominant-baseline: middle; text-anchor: middle; font-size: 12px;" transform="translate(50,37.5)" y="0" x="0" id="text-entity-OrderedType-842b5e5e-013e-581b-9bf8-11371587b713" class="er entityLabel">OrderedType</text>
  </g>
  <g transform="translate(1033.78125,545 )" id="entity-QuantityKind-6f79b338-e354-5d95-8035-8883644476ff">
    <rect height="75" width="101.390625" y="0" x="0" class="er entityBox"/>
    <text style="dominant-baseline: middle; text-anchor: middle; font-size: 12px;" transform="translate(50.6953125,37.5)" y="0" x="0" id="text-entity-QuantityKind-6f79b338-e354-5d95-8035-8883644476ff" class="er entityLabel">QuantityKind</text>
  </g>
  <g transform="translate(20,720 )" id="entity-RuleType-d54df1a6-a17d-5920-9344-6f805c739e55">
    <rect height="75" width="100" y="0" x="0" class="er entityBox"/>
    <text style="dominant-baseline: middle; text-anchor: middle; font-size: 12px;" transform="translate(50,37.5)" y="0" x="0" id="text-entity-RuleType-d54df1a6-a17d-5920-9344-6f805c739e55" class="er entityLabel">RuleType</text>
  </g>
  <g transform="translate(1261.2759475708008,545 )" id="entity-QuantityKindDimensionVector-bfa1bf26-fcae-516f-8f63-2f454f3dac1b">
    <rect height="75" width="194.19308471679688" y="0" x="0" class="er entityBox"/>
    <text style="dominant-baseline: middle; text-anchor: middle; font-size: 12px;" transform="translate(97.09654235839844,37.5)" y="0" x="0" id="text-entity-QuantityKindDimensionVector-bfa1bf26-fcae-516f-8f63-2f454f3dac1b" class="er entityLabel">QuantityKindDimensionVector</text>
  </g>
  <g transform="translate(1581.9207611083984,545 )" id="entity-Prefix-f6d97b99-faee-5974-b12e-390868d79e86">
    <rect height="75" width="100" y="0" x="0" class="er entityBox"/>
    <text style="dominant-baseline: middle; text-anchor: middle; font-size: 12px;" transform="translate(50,37.5)" y="0" x="0" id="text-entity-Prefix-f6d97b99-faee-5974-b12e-390868d79e86" class="er entityLabel">Prefix</text>
  </g>
  <g transform="translate(1929.4616317749023,545 )" id="entity-SystemOfUnits-f7f1da8e-a5af-50e1-94d0-c2e741f40e1d">
    <rect height="75" width="109.83651733398438" y="0" x="0" class="er entityBox"/>
    <text style="dominant-baseline: middle; text-anchor: middle; font-size: 12px;" transform="translate(54.91825866699219,37.5)" y="0" x="0" id="text-entity-SystemOfUnits-f7f1da8e-a5af-50e1-94d0-c2e741f40e1d" class="er entityLabel">SystemOfUnits</text>
  </g>
  <g transform="translate(2286.8390197753906,545 )" id="entity-UCUMcs-8df33f70-0c53-5f8e-a81f-0969bc803a34">
    <rect height="75" width="100" y="0" x="0" class="er entityBox"/>
    <text style="dominant-baseline: middle; text-anchor: middle; font-size: 12px;" transform="translate(50,37.5)" y="0" x="0" id="text-entity-UCUMcs-8df33f70-0c53-5f8e-a81f-0969bc803a34" class="er entityLabel">UCUMcs</text>
  </g>
  <g transform="translate(2486.8390197753906,545 )" id="entity-Class-d9e3eb4a-97c0-50b6-8e3f-7f4a2fa7283d">
    <rect height="75" width="100" y="0" x="0" class="er entityBox"/>
    <text style="dominant-baseline: middle; text-anchor: middle; font-size: 12px;" transform="translate(50,37.5)" y="0" x="0" id="text-entity-Class-d9e3eb4a-97c0-50b6-8e3f-7f4a2fa7283d" class="er entityLabel">__Class</text>
  </g>
  <rect height="14" width="50.66827392578125" y="486.4798889160156" x="240.64553833007812" class="er relationshipLabelBox"/>
  <text style="text-anchor: middle; dominant-baseline: middle; font-size: 12px;" y="493.4798889160156" x="265.97967529296875" id="rel1" class="er relationshipLabel">encoding</text>
  <rect height="14" width="46.13629150390625" y="469.63232421875" x="352.46319580078125" class="er relationshipLabelBox"/>
  <text style="text-anchor: middle; dominant-baseline: middle; font-size: 12px;" y="476.63232421875" x="375.5313415527344" id="rel2" class="er relationshipLabel">bitOrder</text>
  <rect height="14" width="54.968353271484375" y="457.1178283691406" x="386.9627227783203" class="er relationshipLabelBox"/>
  <text style="text-anchor: middle; dominant-baseline: middle; font-size: 12px;" y="464.1178283691406" x="414.4468994140625" id="rel3" class="er relationshipLabel">byteOrder</text>
  <rect height="14" width="57.58837890625" y="482.0784912109375" x="636.7841796875" class="er relationshipLabelBox"/>
  <text style="text-anchor: middle; dominant-baseline: middle; font-size: 12px;" y="489.0784912109375" x="665.578369140625" id="rel4" class="er relationshipLabel">cardinality</text>
  <rect height="14" width="28.4041748046875" y="400.5" x="876.8179321289062" class="er relationshipLabelBox"/>
  <text style="text-anchor: middle; dominant-baseline: middle; font-size: 12px;" y="407.5" x="891.02001953125" id="rel5" class="er relationshipLabel">basis</text>
  <rect height="14" width="68.28125" y="458.0348205566406" x="744.0516357421875" class="er relationshipLabelBox"/>
  <text style="text-anchor: middle; dominant-baseline: middle; font-size: 12px;" y="465.0348205566406" x="778.1922607421875" id="rel6" class="er relationshipLabel">orderedType</text>
  <rect height="14" width="43.296875" y="451.896728515625" x="271.3077392578125" class="er relationshipLabelBox"/>
  <text style="text-anchor: middle; dominant-baseline: middle; font-size: 12px;" y="458.896728515625" x="292.9561767578125" id="rel7" class="er relationshipLabel">hasRule</text>
  <rect height="13.999992370605469" width="74.90847778320312" y="117.47642135620117" x="313.52784729003906" class="er relationshipLabelBox"/>
  <text style="text-anchor: middle; dominant-baseline: middle; font-size: 12px;" y="124.4764175415039" x="350.9820861816406" id="rel8" class="er relationshipLabel">dataEncoding</text>
  <rect height="14" width="48.328125" y="154.89186096191406" x="379.1793518066406" class="er relationshipLabelBox"/>
  <text style="text-anchor: middle; dominant-baseline: middle; font-size: 12px;" y="161.89186096191406" x="403.3434143066406" id="rel9" class="er relationshipLabel">datatype</text>
  <rect height="14" width="42.404296875" y="264.69451904296875" x="1247.17919921875" class="er relationshipLabelBox"/>
  <text style="text-anchor: middle; dominant-baseline: middle; font-size: 12px;" y="271.69451904296875" x="1268.38134765625" id="rel10" class="er relationshipLabel">hasUnit</text>
  <rect height="14" width="90.4375" y="240.15008544921875" x="988.9102783203125" class="er relationshipLabelBox"/>
  <text style="text-anchor: middle; dominant-baseline: middle; font-size: 12px;" y="247.15008544921875" x="1034.1290283203125" id="rel11" class="er relationshipLabel">hasQuantityKind</text>
  <rect height="14" width="75.265625" y="136.91195678710938" x="763.1712036132812" class="er relationshipLabelBox"/>
  <text style="text-anchor: middle; dominant-baseline: middle; font-size: 12px;" y="143.91195678710938" x="800.8040161132812" id="rel12" class="er relationshipLabel">quantityValue</text>
  <rect height="14" width="74.90850830078125" y="278.30792236328125" x="453.14886474609375" class="er relationshipLabelBox"/>
  <text style="text-anchor: middle; dominant-baseline: middle; font-size: 12px;" y="285.30792236328125" x="490.6031188964844" id="rel13" class="er relationshipLabel">dataEncoding</text>
  <rect height="14" width="48.328125" y="337.5622253417969" x="715.1245727539062" class="er relationshipLabelBox"/>
  <text style="text-anchor: middle; dominant-baseline: middle; font-size: 12px;" y="344.5622253417969" x="739.2886352539062" id="rel14" class="er relationshipLabel">datatype</text>
  <rect height="14" width="42.404296875" y="272.63616943359375" x="1351.1463623046875" class="er relationshipLabelBox"/>
  <text style="text-anchor: middle; dominant-baseline: middle; font-size: 12px;" y="279.63616943359375" x="1372.3485107421875" id="rel15" class="er relationshipLabel">hasUnit</text>
  <rect height="14" width="46.921875" y="663" x="46.5390625" class="er relationshipLabelBox"/>
  <text style="text-anchor: middle; dominant-baseline: middle; font-size: 12px;" y="670" x="70" id="rel16" class="er relationshipLabel">ruleType</text>
  <rect height="14" width="111.8487548828125" y="449.5455017089844" x="1463.9906616210938" class="er relationshipLabelBox"/>
  <text style="text-anchor: middle; dominant-baseline: middle; font-size: 12px;" y="456.5455017089844" x="1519.9150390625" id="rel17" class="er relationshipLabel">hasDimensionVector</text>
  <rect height="14" width="97.9886474609375" y="452.6234130859375" x="1509.0548706054688" class="er relationshipLabelBox"/>
  <text style="text-anchor: middle; dominant-baseline: middle; font-size: 12px;" y="459.6234130859375" x="1558.0491943359375" id="rel18" class="er relationshipLabel">qkdvDenominator</text>
  <rect height="14" width="85.1966552734375" y="459.71356201171875" x="1544.0160522460938" class="er relationshipLabelBox"/>
  <text style="text-anchor: middle; dominant-baseline: middle; font-size: 12px;" y="466.71356201171875" x="1586.6143798828125" id="rel19" class="er relationshipLabel">qkdvNumerator</text>
  <rect height="14" width="30.8402099609375" y="464.4026794433594" x="1676.2816772460938" class="er relationshipLabelBox"/>
  <text style="text-anchor: middle; dominant-baseline: middle; font-size: 12px;" y="471.4026794433594" x="1691.7017822265625" id="rel20" class="er relationshipLabel">prefix</text>
  <rect height="14" width="90.4375" y="452.3580322265625" x="1398.4193115234375" class="er relationshipLabelBox"/>
  <text style="text-anchor: middle; dominant-baseline: middle; font-size: 12px;" y="459.3580322265625" x="1443.6380615234375" id="rel21" class="er relationshipLabel">hasQuantityKind</text>
  <rect height="14" width="95.78125" y="511.15545654296875" x="1795.550537109375" class="er relationshipLabelBox"/>
  <text style="text-anchor: middle; dominant-baseline: middle; font-size: 12px;" y="518.1554565429688" x="1843.441162109375" id="rel22" class="er relationshipLabel">applicableSystem</text>
  <rect height="14" width="115.203125" y="492.6029357910156" x="1835.6019287109375" class="er relationshipLabelBox"/>
  <text style="text-anchor: middle; dominant-baseline: middle; font-size: 12px;" y="499.6029357910156" x="1893.2034912109375" id="rel23" class="er relationshipLabel">definedUnitOfSystem</text>
  <rect height="14" width="164.390625" y="471.5240173339844" x="1868.5391845703125" class="er relationshipLabelBox"/>
  <text style="text-anchor: middle; dominant-baseline: middle; font-size: 12px;" y="478.5240173339844" x="1950.7344970703125" id="rel24" class="er relationshipLabel">derivedCoherentUnitOfSystem</text>
  <rect height="14" width="115.15625" y="459.53729248046875" x="1938.564453125" class="er relationshipLabelBox"/>
  <text style="text-anchor: middle; dominant-baseline: middle; font-size: 12px;" y="466.53729248046875" x="1996.142578125" id="rel25" class="er relationshipLabel">derivedUnitOfSystem</text>
  <rect height="14" width="82.828125" y="459.1983947753906" x="2012.50341796875" class="er relationshipLabelBox"/>
  <text style="text-anchor: middle; dominant-baseline: middle; font-size: 12px;" y="466.1983947753906" x="2053.91748046875" id="rel26" class="er relationshipLabel">isUnitOfSystem</text>
  <rect height="14" width="57.078125" y="452.1865539550781" x="2095.155517578125" class="er relationshipLabelBox"/>
  <text style="text-anchor: middle; dominant-baseline: middle; font-size: 12px;" y="459.1865539550781" x="2123.694580078125" id="rel27" class="er relationshipLabel">ucumCode</text>
  <rect height="14" width="61.453125" y="400.5" x="1952.8204345703125" class="er relationshipLabelBox"/>
  <text style="text-anchor: middle; dominant-baseline: middle; font-size: 12px;" y="407.5" x="1983.5469970703125" id="rel28" class="er relationshipLabel">exactMatch</text>
  <rect height="14" width="99.0927734375" y="400.5" x="2037.888671875" class="er relationshipLabelBox"/>
  <text style="text-anchor: middle; dominant-baseline: middle; font-size: 12px;" y="407.5" x="2087.43505859375" id="rel29" class="er relationshipLabel">hasReciprocalUnit</text>
  <rect height="14" width="51.104248046875" y="400.5" x="2165.7718505859375" class="er relationshipLabelBox"/>
  <text style="text-anchor: middle; dominant-baseline: middle; font-size: 12px;" y="407.5" x="2191.323974609375" id="rel30" class="er relationshipLabel">scalingOf</text>
  <rect height="14" width="75.632568359375" y="450.01361083984375" x="2184.4320068359375" class="er relationshipLabelBox"/>
  <text style="text-anchor: middle; dominant-baseline: middle; font-size: 12px;" y="457.01361083984375" x="2222.248291015625" id="rel31" class="er relationshipLabel">hasFactorUnit</text>
</svg>
