<svg xmlns="http://www.w3.org/2000/svg" aria-roledescription="er" role="graphics-document document" viewBox="0 0 4295.1162109375 990" height="990" width="4295.1162109375" id="container">
  <style>#container{font-family:"trebuchet ms",verdana,arial,sans-serif;font-size:16px;fill:#333;}#container .error-icon{fill:#552222;}#container .error-text{fill:#552222;stroke:#552222;}#container .edge-thickness-normal{stroke-width:1px;}#container .edge-thickness-thick{stroke-width:3.5px;}#container .edge-pattern-solid{stroke-dasharray:0;}#container .edge-thickness-invisible{stroke-width:0;fill:none;}#container .edge-pattern-dashed{stroke-dasharray:3;}#container .edge-pattern-dotted{stroke-dasharray:2;}#container .marker{fill:#333333;stroke:#333333;}#container .marker.cross{stroke:#333333;}#container svg{font-family:"trebuchet ms",verdana,arial,sans-serif;font-size:16px;}#container p{margin:0;}#container .entityBox{fill:#ECECFF;stroke:#9370DB;}#container .attributeBoxOdd{fill:#ffffff;stroke:#9370DB;}#container .attributeBoxEven{fill:#f2f2f2;stroke:#9370DB;}#container .relationshipLabelBox{fill:hsl(80, 100%, 96.2745098039%);opacity:0.7;background-color:hsl(80, 100%, 96.2745098039%);}#container .relationshipLabelBox rect{opacity:0.5;}#container .relationshipLine{stroke:#333333;}#container .entityTitleText{text-anchor:middle;font-size:18px;fill:#333;}#container #MD_PARENT_START{fill:#f5f5f5!important;stroke:#333333!important;stroke-width:1;}#container #MD_PARENT_END{fill:#f5f5f5!important;stroke:#333333!important;stroke-width:1;}#container :root{--mermaid-font-family:"trebuchet ms",verdana,arial,sans-serif;}</style>
  <g/>
  <defs>
    <marker orient="auto" markerHeight="240" markerWidth="190" refY="7" refX="0" id="MD_PARENT_START">
      <path d="M 18,7 L9,13 L1,7 L9,1 Z"/>
    </marker>
  </defs>
  <defs>
    <marker orient="auto" markerHeight="28" markerWidth="20" refY="7" refX="19" id="MD_PARENT_END">
      <path d="M 18,7 L9,13 L1,7 L9,1 Z"/>
    </marker>
  </defs>
  <defs>
    <marker orient="auto" markerHeight="18" markerWidth="18" refY="9" refX="0" id="ONLY_ONE_START">
      <path d="M9,0 L9,18 M15,0 L15,18" fill="none" stroke="gray"/>
    </marker>
  </defs>
  <defs>
    <marker orient="auto" markerHeight="18" markerWidth="18" refY="9" refX="18" id="ONLY_ONE_END">
      <path d="M3,0 L3,18 M9,0 L9,18" fill="none" stroke="gray"/>
    </marker>
  </defs>
  <defs>
    <marker orient="auto" markerHeight="18" markerWidth="30" refY="9" refX="0" id="ZERO_OR_ONE_START">
      <circle r="6" cy="9" cx="21" fill="white" stroke="gray"/>
      <path d="M9,0 L9,18" fill="none" stroke="gray"/>
    </marker>
  </defs>
  <defs>
    <marker orient="auto" markerHeight="18" markerWidth="30" refY="9" refX="30" id="ZERO_OR_ONE_END">
      <circle r="6" cy="9" cx="9" fill="white" stroke="gray"/>
      <path d="M21,0 L21,18" fill="none" stroke="gray"/>
    </marker>
  </defs>
  <defs>
    <marker orient="auto" markerHeight="36" markerWidth="45" refY="18" refX="18" id="ONE_OR_MORE_START">
      <path d="M0,18 Q 18,0 36,18 Q 18,36 0,18 M42,9 L42,27" fill="none" stroke="gray"/>
    </marker>
  </defs>
  <defs>
    <marker orient="auto" markerHeight="36" markerWidth="45" refY="18" refX="27" id="ONE_OR_MORE_END">
      <path d="M3,9 L3,27 M9,18 Q27,0 45,18 Q27,36 9,18" fill="none" stroke="gray"/>
    </marker>
  </defs>
  <defs>
    <marker orient="auto" markerHeight="36" markerWidth="57" refY="18" refX="18" id="ZERO_OR_MORE_START">
      <circle r="6" cy="18" cx="48" fill="white" stroke="gray"/>
      <path d="M0,18 Q18,0 36,18 Q18,36 0,18" fill="none" stroke="gray"/>
    </marker>
  </defs>
  <defs>
    <marker orient="auto" markerHeight="36" markerWidth="57" refY="18" refX="39" id="ZERO_OR_MORE_END">
      <circle r="6" cy="18" cx="9" fill="white" stroke="gray"/>
      <path d="M21,18 Q39,0 57,18 Q39,36 21,18" fill="none" stroke="gray"/>
    </marker>
  </defs>
  <path style="stroke: gray; fill: none;" marker-start="url(#ONLY_ONE_START)" marker-end="url(#ZERO_OR_ONE_END)" d="M428.478,445L418.954,453.333C409.43,461.667,390.383,478.333,380.859,495C371.335,511.667,371.335,528.333,371.335,536.667L371.335,545" class="er relationshipLine"/>
  <path style="stroke: gray; fill: none;" marker-start="url(#ONLY_ONE_START)" marker-end="url(#ZERO_OR_ONE_END)" d="M492.764,445L497.526,453.333C502.288,461.667,511.811,478.333,521.335,495C530.859,511.667,540.383,528.333,545.145,536.667L549.907,545" class="er relationshipLine"/>
  <path style="stroke: gray; fill: none;" marker-start="url(#ONLY_ONE_START)" marker-end="url(#ZERO_OR_ONE_END)" d="M524.005,437.534L540.801,447.112C557.597,456.69,591.189,475.845,602.895,493.756C614.6,511.667,604.42,528.333,599.33,536.667L594.24,545" class="er relationshipLine"/>
  <path style="stroke: gray; fill: none;" marker-start="url(#ONLY_ONE_START)" marker-end="url(#ZERO_OR_ONE_END)" d="M837.337,445L827.485,453.333C817.633,461.667,797.93,478.333,788.078,495C778.226,511.667,778.226,528.333,778.226,536.667L778.226,545" class="er relationshipLine"/>
  <path style="stroke: gray; fill: none;" marker-start="url(#ONLY_ONE_START)" marker-end="url(#ZERO_OR_ONE_END)" d="M931.671,401.622L976.498,396.351C1021.326,391.081,1110.98,380.541,1167.014,375.27C1223.048,370,1245.462,370,1267.875,376.25C1290.289,382.5,1312.703,395,1312.703,407.5C1312.703,420,1290.289,432.5,1267.875,438.75C1245.462,445,1223.048,445,1167.014,439.73C1110.98,434.459,1021.326,423.919,976.498,418.649L931.671,413.378" class="er relationshipLine"/>
  <path style="stroke: gray; fill: none;" marker-start="url(#ONLY_ONE_START)" marker-end="url(#ZERO_OR_ONE_END)" d="M926.005,445L935.857,453.333C945.709,461.667,965.413,478.333,975.264,495C985.116,511.667,985.116,528.333,985.116,536.667L985.116,545" class="er relationshipLine"/>
  <path style="stroke: gray; fill: none;" marker-start="url(#ONLY_ONE_START)" marker-end="url(#ZERO_OR_MORE_END)" d="M831.671,412.577L696.393,426.314C561.114,440.052,290.557,467.526,155.279,495.846C20,524.167,20,553.333,20,582.5C20,611.667,20,640.833,24.762,663.75C29.524,686.667,39.048,703.333,43.81,711.667L48.571,720" class="er relationshipLine"/>
  <path style="stroke: gray; fill: none;" marker-start="url(#ONLY_ONE_START)" marker-end="url(#ZERO_OR_ONE_END)" d="M1609.367,61.562L1398.861,75.468C1188.356,89.374,767.346,117.187,556.84,145.677C346.335,174.167,346.335,203.333,346.335,232.5C346.335,261.667,346.335,290.833,358.39,313.855C370.445,336.877,394.555,353.754,406.61,362.192L418.665,370.631" class="er relationshipLine"/>
  <path style="stroke: gray; fill: none;" marker-start="url(#ONLY_ONE_START)" marker-end="url(#ZERO_OR_ONE_END)" d="M1609.367,63.186L1461.936,76.822C1314.505,90.457,1019.643,117.729,872.211,145.948C724.78,174.167,724.78,203.333,724.78,232.5C724.78,261.667,724.78,290.833,742.596,315.352C760.411,339.871,796.041,359.743,813.856,369.679L831.671,379.614" class="er relationshipLine"/>
  <path style="stroke: gray; fill: none;" marker-start="url(#ONLY_ONE_START)" marker-end="url(#ZERO_OR_ONE_END)" d="M1732.327,62.274L1909.882,76.062C2087.437,89.849,2442.547,117.425,2620.102,145.796C2797.657,174.167,2797.657,203.333,2797.657,232.5C2797.657,261.667,2797.657,290.833,2820.567,316.11C2843.477,341.387,2889.297,362.774,2912.207,373.468L2935.116,384.162" class="er relationshipLine"/>
  <path style="stroke: gray; fill: none;" marker-start="url(#ONLY_ONE_START)" marker-end="url(#ZERO_OR_MORE_END)" d="M1732.327,39.965L1743.994,36.637C1755.661,33.31,1778.994,26.655,1793.577,23.327C1808.161,20,1813.994,20,1819.827,26.25C1825.661,32.5,1831.494,45,1831.494,57.5C1831.494,70,1825.661,82.5,1819.827,88.75C1813.994,95,1808.161,95,1793.577,91.673C1778.994,88.345,1755.661,81.69,1743.994,78.363L1732.327,75.035" class="er relationshipLine"/>
  <path style="stroke: gray; fill: none;" marker-start="url(#ONLY_ONE_START)" marker-end="url(#ZERO_OR_MORE_END)" d="M1609.367,61.208L1377.806,75.173C1146.244,89.139,683.122,117.069,451.561,145.618C220,174.167,220,203.333,220,232.5C220,261.667,220,290.833,220,320C220,349.167,220,378.333,220,407.5C220,436.667,220,465.833,220,495C220,524.167,220,553.333,220,582.5C220,611.667,220,640.833,505.737,669.581C791.474,698.329,1362.947,726.658,1648.684,740.822L1934.421,754.987" class="er relationshipLine"/>
  <path style="stroke: gray; fill: none;" marker-start="url(#ONLY_ONE_START)" marker-end="url(#ZERO_OR_MORE_END)" d="M1655.534,95L1652.131,103.333C1648.728,111.667,1641.922,128.333,1638.519,151.25C1635.116,174.167,1635.116,203.333,1635.116,232.5C1635.116,261.667,1635.116,290.833,1635.116,320C1635.116,349.167,1635.116,378.333,1635.116,407.5C1635.116,436.667,1635.116,465.833,1650.596,488.75C1666.077,511.667,1697.037,528.333,1712.517,536.667L1727.997,545" class="er relationshipLine"/>
  <path style="stroke: gray; fill: none;" marker-start="url(#ONLY_ONE_START)" marker-end="url(#ZERO_OR_MORE_END)" d="M1609.367,69.801L1546.726,82.334C1484.085,94.867,1358.804,119.934,1296.163,140.8C1233.523,161.667,1233.523,178.333,1233.523,186.667L1233.523,195" class="er relationshipLine"/>
  <path style="stroke: gray; fill: none;" marker-start="url(#ONLY_ONE_START)" marker-end="url(#ZERO_OR_MORE_END)" d="M1732.327,62.739L1893.216,76.449C2054.104,90.159,2375.881,117.58,2536.769,145.873C2697.657,174.167,2697.657,203.333,2697.657,232.5C2697.657,261.667,2697.657,290.833,2697.657,320C2697.657,349.167,2697.657,378.333,2697.657,407.5C2697.657,436.667,2697.657,465.833,2826.414,494.032C2955.171,522.231,3212.684,549.462,3341.441,563.077L3470.198,576.693" class="er relationshipLine"/>
  <path style="stroke: gray; fill: none;" marker-start="url(#ONLY_ONE_START)" marker-end="url(#ZERO_OR_MORE_END)" d="M1732.327,61.593L1941.125,75.494C2149.924,89.395,2567.52,117.198,2776.318,145.682C2985.116,174.167,2985.116,203.333,2985.116,232.5C2985.116,261.667,2985.116,290.833,2985.116,313.75C2985.116,336.667,2985.116,353.333,2985.116,361.667L2985.116,370" class="er relationshipLine"/>
  <path style="stroke: gray; fill: none;" marker-start="url(#ONLY_ONE_START)" marker-end="url(#ZERO_OR_ONE_END)" d="M1934.421,733.837L1911.627,723.198C1888.833,712.558,1843.245,691.279,1820.451,672.306C1797.657,653.333,1797.657,636.667,1797.657,628.333L1797.657,620" class="er relationshipLine"/>
  <path style="stroke: gray; fill: none;" marker-start="url(#ONLY_ONE_START)" marker-end="url(#ZERO_OR_ONE_END)" d="M1947.634,720L1939.304,711.667C1930.975,703.333,1914.316,686.667,1896.463,670C1878.61,653.333,1859.562,636.667,1850.038,628.333L1840.514,620" class="er relationshipLine"/>
  <path style="stroke: gray; fill: none;" marker-start="url(#ONLY_ONE_START)" marker-end="url(#ZERO_OR_ONE_END)" d="M1934.421,760.167L1665.676,774.306C1396.932,788.445,859.442,816.722,590.698,839.195C321.953,861.667,321.953,878.333,321.953,886.667L321.953,895" class="er relationshipLine"/>
  <path style="stroke: gray; fill: none;" marker-start="url(#ONLY_ONE_START)" marker-end="url(#ZERO_OR_MORE_END)" d="M2035.812,753.885L2115.016,748.238C2194.221,742.59,2352.63,731.295,2451.636,725.648C2550.642,720,2590.244,720,2629.847,726.25C2669.449,732.5,2709.051,745,2709.051,757.5C2709.051,770,2669.449,782.5,2629.847,788.75C2590.244,795,2550.642,795,2451.636,789.352C2352.63,783.705,2194.221,772.41,2115.016,766.762L2035.812,761.115" class="er relationshipLine"/>
  <path style="stroke: gray; fill: none;" marker-start="url(#ONLY_ONE_START)" marker-end="url(#ZERO_OR_MORE_END)" d="M1990.491,720L1991.685,711.667C1992.88,703.333,1995.269,686.667,1977.415,670C1959.562,653.333,1921.467,636.667,1902.419,628.333L1883.372,620" class="er relationshipLine"/>
  <path style="stroke: gray; fill: none;" marker-start="url(#ONLY_ONE_START)" marker-end="url(#ZERO_OR_MORE_END)" d="M2035.812,789.047L2050.797,798.373C2065.783,807.698,2095.755,826.349,2110.74,844.008C2125.726,861.667,2125.726,878.333,2125.726,886.667L2125.726,895" class="er relationshipLine"/>
  <path style="stroke: gray; fill: none;" marker-start="url(#ONLY_ONE_START)" marker-end="url(#ZERO_OR_MORE_END)" d="M2033.348,720L2044.066,711.667C2054.785,703.333,2076.221,686.667,2086.939,663.75C2097.657,640.833,2097.657,611.667,2097.657,582.5C2097.657,553.333,2097.657,524.167,2237.234,495.822C2376.81,467.477,2655.963,439.953,2795.54,426.192L2935.116,412.43" class="er relationshipLine"/>
  <path style="stroke: gray; fill: none;" marker-start="url(#ONLY_ONE_START)" marker-end="url(#ZERO_OR_MORE_END)" d="M2035.812,736.629L2062.786,725.525C2089.76,714.42,2143.709,692.21,2170.683,666.522C2197.657,640.833,2197.657,611.667,2197.657,582.5C2197.657,553.333,2197.657,524.167,2320.567,495.926C2443.477,467.685,2689.297,440.371,2812.207,426.713L2935.116,413.056" class="er relationshipLine"/>
  <path style="stroke: gray; fill: none;" marker-start="url(#ONLY_ONE_START)" marker-end="url(#ZERO_OR_MORE_END)" d="M2035.812,743.307L2079.453,731.089C2123.094,718.871,2210.375,694.436,2254.016,667.635C2297.657,640.833,2297.657,611.667,2297.657,582.5C2297.657,553.333,2297.657,524.167,2403.9,496.061C2510.144,467.955,2722.63,440.909,2828.873,427.387L2935.116,413.864" class="er relationshipLine"/>
  <path style="stroke: gray; fill: none;" marker-start="url(#ONLY_ONE_START)" marker-end="url(#ZERO_OR_MORE_END)" d="M2035.812,746.748L2096.119,733.956C2156.427,721.165,2277.042,695.583,2337.35,668.208C2397.657,640.833,2397.657,611.667,2397.657,582.5C2397.657,553.333,2397.657,524.167,2487.234,496.241C2576.81,468.316,2755.963,441.632,2845.54,428.289L2935.116,414.947" class="er relationshipLine"/>
  <path style="stroke: gray; fill: none;" marker-start="url(#ONLY_ONE_START)" marker-end="url(#ZERO_OR_MORE_END)" d="M2035.812,748.845L2112.786,735.704C2189.76,722.564,2343.709,696.282,2420.683,668.558C2497.657,640.833,2497.657,611.667,2497.657,582.5C2497.657,553.333,2497.657,524.167,2570.567,496.496C2643.477,468.825,2789.297,442.65,2862.207,429.563L2935.116,416.475" class="er relationshipLine"/>
  <path style="stroke: gray; fill: none;" marker-start="url(#ONLY_ONE_START)" marker-end="url(#ZERO_OR_MORE_END)" d="M2035.812,750.258L2129.453,736.882C2223.094,723.506,2410.375,696.753,2504.016,668.793C2597.657,640.833,2597.657,611.667,2597.657,582.5C2597.657,553.333,2597.657,524.167,2653.9,496.882C2710.144,469.597,2822.63,444.194,2878.873,431.493L2935.116,418.792" class="er relationshipLine"/>
  <path style="stroke: gray; fill: none;" marker-start="url(#ONLY_ONE_START)" marker-end="url(#ZERO_OR_MORE_END)" d="M1700.561,591.74L1563.505,604.784C1426.449,617.827,1152.337,643.913,1191.314,670.872C1230.291,697.831,1582.356,725.662,1758.389,739.577L1934.421,753.493" class="er relationshipLine"/>
  <path style="stroke: gray; fill: none;" marker-start="url(#ONLY_ONE_START)" marker-end="url(#ZERO_OR_MORE_END)" d="M1700.561,587.564L1437.134,601.303C1173.707,615.043,646.854,642.521,378.665,664.594C110.476,686.667,100.952,703.333,96.19,711.667L91.429,720" class="er relationshipLine"/>
  <path style="stroke: gray; fill: none;" marker-start="url(#ONLY_ONE_START)" marker-end="url(#ZERO_OR_ONE_END)" d="M1180.335,240.145L1087.743,253.454C995.15,266.763,809.965,293.382,700.577,316.268C591.189,339.155,557.597,358.31,540.801,367.888L524.005,377.466" class="er relationshipLine"/>
  <path style="stroke: gray; fill: none;" marker-start="url(#ONLY_ONE_START)" marker-end="url(#ZERO_OR_ONE_END)" d="M1233.523,270L1233.523,278.333C1233.523,286.667,1233.523,303.333,1183.214,324.178C1132.905,345.022,1032.288,370.044,981.98,382.555L931.671,395.066" class="er relationshipLine"/>
  <path style="stroke: gray; fill: none;" marker-start="url(#ONLY_ONE_START)" marker-end="url(#ZERO_OR_ONE_END)" d="M1286.71,234.825L1611.444,249.021C1936.179,263.217,2585.648,291.608,2877.049,317.471C3168.45,343.333,3101.783,366.667,3068.45,378.333L3035.116,390" class="er relationshipLine"/>
  <path style="stroke: gray; fill: none;" marker-start="url(#ONLY_ONE_START)" marker-end="url(#ZERO_OR_MORE_END)" d="M70,795L70,803.333C70,811.667,70,828.333,70,845C70,861.667,70,878.333,70,886.667L70,895" class="er relationshipLine"/>
  <path style="stroke: gray; fill: none;" marker-start="url(#ONLY_ONE_START)" marker-end="url(#ZERO_OR_MORE_END)" d="M3503.688,545L3498.926,536.667C3494.164,528.333,3484.64,511.667,3479.878,488.75C3475.116,465.833,3475.116,436.667,3475.116,407.5C3475.116,378.333,3475.116,349.167,3475.116,320C3475.116,290.833,3475.116,261.667,3475.116,232.5C3475.116,203.333,3475.116,174.167,3184.652,145.497C2894.187,116.827,2313.257,88.654,2022.792,74.568L1732.327,60.482" class="er relationshipLine"/>
  <path style="stroke: gray; fill: none;" marker-start="url(#ONLY_ONE_START)" marker-end="url(#ZERO_OR_MORE_END)" d="M3525.116,620L3525.116,628.333C3525.116,636.667,3525.116,653.333,3575.116,674.167C3625.116,695,3725.116,720,3775.116,732.5L3825.116,745" class="er relationshipLine"/>
  <path style="stroke: gray; fill: none;" marker-start="url(#ONLY_ONE_START)" marker-end="url(#ZERO_OR_MORE_END)" d="M3546.545,545L3551.307,536.667C3556.069,528.333,3565.593,511.667,3480.354,489.986C3395.116,468.305,3215.116,441.61,3125.116,428.263L3035.116,414.915" class="er relationshipLine"/>
  <path style="stroke: gray; fill: none;" marker-start="url(#ONLY_ONE_START)" marker-end="url(#ZERO_OR_MORE_END)" d="M3580.035,550.464L3595.882,541.22C3611.729,531.976,3643.422,513.488,3552.603,490.717C3461.783,467.947,3248.45,440.894,3141.783,427.367L3035.116,413.841" class="er relationshipLine"/>
  <path style="stroke: gray; fill: none;" marker-start="url(#ONLY_ONE_START)" marker-end="url(#ZERO_OR_MORE_END)" d="M3580.035,563.279L3612.548,551.899C3645.062,540.519,3710.089,517.76,3619.269,492.719C3528.45,467.679,3281.783,440.359,3158.45,426.698L3035.116,413.038" class="er relationshipLine"/>
  <path style="stroke: gray; fill: none;" marker-start="url(#ONLY_ONE_START)" marker-end="url(#ZERO_OR_MORE_END)" d="M3580.035,568.77L3629.215,556.475C3678.395,544.18,3776.756,519.59,3685.936,493.531C3595.116,467.472,3315.116,439.944,3175.116,426.18L3035.116,412.416" class="er relationshipLine"/>
  <path style="stroke: gray; fill: none;" marker-start="url(#ONLY_ONE_START)" marker-end="url(#ZERO_OR_MORE_END)" d="M3580.035,571.821L3645.882,559.018C3711.729,546.214,3843.422,520.607,3752.603,493.957C3661.783,467.306,3348.45,439.613,3191.783,425.766L3035.116,411.919" class="er relationshipLine"/>
  <path style="stroke: gray; fill: none;" marker-start="url(#ONLY_ONE_START)" marker-end="url(#ZERO_OR_MORE_END)" d="M3580.035,573.763L3662.548,560.636C3745.062,547.509,3910.089,521.254,3819.269,494.213C3728.45,467.171,3381.783,439.343,3208.45,425.428L3035.116,411.514" class="er relationshipLine"/>
  <path style="stroke: gray; fill: none;" marker-start="url(#ONLY_ONE_START)" marker-end="url(#ZERO_OR_MORE_END)" d="M3580.035,575.107L3679.215,561.756C3778.395,548.405,3976.756,521.702,3885.936,494.381C3795.116,467.059,3415.116,439.118,3225.116,425.147L3035.116,411.176" class="er relationshipLine"/>
  <path style="stroke: gray; fill: none;" marker-start="url(#ONLY_ONE_START)" marker-end="url(#ZERO_OR_ONE_END)" d="M2935.116,411L2735.116,425C2535.116,439,2135.116,467,1941.073,489.333C1747.029,511.667,1758.941,528.333,1764.898,536.667L1770.854,545" class="er relationshipLine"/>
  <path style="stroke: gray; fill: none;" marker-start="url(#ONLY_ONE_START)" marker-end="url(#ZERO_OR_ONE_END)" d="M2935.116,411.304L2751.783,425.254C2568.45,439.203,2201.783,467.101,2014.882,489.384C1827.981,511.667,1820.846,528.333,1817.279,536.667L1813.711,545" class="er relationshipLine"/>
  <path style="stroke: gray; fill: none;" marker-start="url(#ONLY_ONE_START)" marker-end="url(#ZERO_OR_ONE_END)" d="M2935.116,411.667L2768.45,425.556C2601.783,439.444,2268.45,467.222,2088.692,489.444C1908.934,511.667,1882.751,528.333,1869.66,536.667L1856.568,545" class="er relationshipLine"/>
  <path style="stroke: gray; fill: none;" marker-start="url(#ONLY_ONE_START)" marker-end="url(#ZERO_OR_MORE_END)" d="M3035.116,410.891L3241.783,424.91C3448.45,438.928,3861.783,466.964,4068.45,495.565C4275.116,524.167,4275.116,553.333,4275.116,582.5C4275.116,611.667,4275.116,640.833,4216.783,668.177C4158.45,695.521,4041.783,721.042,3983.45,733.802L3925.116,746.563" class="er relationshipLine"/>
  <path style="stroke: gray; fill: none;" marker-start="url(#ONLY_ONE_START)" marker-end="url(#ZERO_OR_MORE_END)" d="M2935.116,410.517L2701.783,424.598C2468.45,438.678,2001.783,466.839,1768.45,495.503C1535.116,524.167,1535.116,553.333,1535.116,582.5C1535.116,611.667,1535.116,640.833,1601.667,668.357C1668.218,695.881,1801.319,721.762,1867.87,734.702L1934.421,747.643" class="er relationshipLine"/>
  <path style="stroke: gray; fill: none;" marker-start="url(#ONLY_ONE_START)" marker-end="url(#ZERO_OR_MORE_END)" d="M2969.062,445L2965.495,453.333C2961.927,461.667,2954.792,478.333,3038.315,499.863C3121.838,521.393,3296.018,547.786,3383.108,560.982L3470.198,574.178" class="er relationshipLine"/>
  <path style="stroke: gray; fill: none;" marker-start="url(#ONLY_ONE_START)" marker-end="url(#ZERO_OR_MORE_END)" d="M3011.92,445L3017.876,453.333C3023.832,461.667,3035.745,478.333,3112.124,499.573C3188.504,520.812,3329.351,546.624,3399.775,559.53L3470.198,572.436" class="er relationshipLine"/>
  <path style="stroke: gray; fill: none;" marker-start="url(#ONLY_ONE_START)" marker-end="url(#ZERO_OR_MORE_END)" d="M3035.116,434.416L3053.873,444.514C3072.63,454.611,3110.144,474.805,3182.657,497.364C3255.171,519.923,3362.684,544.846,3416.441,557.308L3470.198,569.769" class="er relationshipLine"/>
  <path style="stroke: gray; fill: none;" marker-start="url(#ONLY_ONE_START)" marker-end="url(#ZERO_OR_MORE_END)" d="M3035.116,424.164L3070.54,435.97C3105.963,447.776,3176.81,471.388,3249.324,494.891C3321.838,518.394,3396.018,541.787,3433.108,553.484L3470.198,565.181" class="er relationshipLine"/>
  <path style="stroke: gray; fill: none;" marker-start="url(#ONLY_ONE_START)" marker-end="url(#ZERO_OR_MORE_END)" d="M3035.116,419.568L3087.207,432.14C3139.297,444.712,3243.477,469.856,3315.991,492.498C3388.504,515.14,3429.351,535.281,3449.775,545.351L3470.198,555.421" class="er relationshipLine"/>
  <path style="stroke: gray; fill: none;" marker-start="url(#ONLY_ONE_START)" marker-end="url(#ZERO_OR_MORE_END)" d="M2935.116,409.931L2643.45,424.109C2351.783,438.287,1768.45,466.644,1476.783,489.155C1185.116,511.667,1185.116,528.333,1185.116,536.667L1185.116,545" class="er relationshipLine"/>
  <path style="stroke: gray; fill: none;" marker-start="url(#ONLY_ONE_START)" marker-end="url(#ZERO_OR_MORE_END)" d="M3035.116,392.697L3047.894,388.914C3060.672,385.132,3086.227,377.566,3102.2,373.783C3118.172,370,3124.561,370,3130.95,376.25C3137.339,382.5,3143.727,395,3143.727,407.5C3143.727,420,3137.339,432.5,3130.95,438.75C3124.561,445,3118.172,445,3102.2,441.217C3086.227,437.434,3060.672,429.868,3047.894,426.086L3035.116,422.303" class="er relationshipLine"/>
  <path style="stroke: gray; fill: none;" marker-start="url(#ONLY_ONE_START)" marker-end="url(#ZERO_OR_MORE_END)" d="M3035.116,398.125L3060.116,393.438C3085.116,388.75,3135.116,379.375,3166.366,374.688C3197.616,370,3210.116,370,3222.616,376.25C3235.116,382.5,3247.616,395,3247.616,407.5C3247.616,420,3235.116,432.5,3222.616,438.75C3210.116,445,3197.616,445,3166.366,440.313C3135.116,435.625,3085.116,426.25,3060.116,421.563L3035.116,416.875" class="er relationshipLine"/>
  <path style="stroke: gray; fill: none;" marker-start="url(#ONLY_ONE_START)" marker-end="url(#ZERO_OR_MORE_END)" d="M3035.116,400.64L3072.339,395.534C3109.561,390.427,3184.005,380.213,3230.533,375.107C3277.061,370,3295.672,370,3314.283,376.25C3332.894,382.5,3351.505,395,3351.505,407.5C3351.505,420,3332.894,432.5,3314.283,438.75C3295.672,445,3277.061,445,3230.533,439.893C3184.005,434.787,3109.561,424.573,3072.339,419.466L3035.116,414.36" class="er relationshipLine"/>
  <path style="stroke: gray; fill: none;" marker-start="url(#ONLY_ONE_START)" marker-end="url(#ZERO_OR_MORE_END)" d="M2935.116,410.234L2676.783,424.362C2418.45,438.49,1901.783,466.745,1643.45,489.206C1385.116,511.667,1385.116,528.333,1385.116,536.667L1385.116,545" class="er relationshipLine"/>
  <g transform="translate(418.66487884521484,370 )" id="entity-DataEncoding-e949680e-a6e4-55c9-9325-aa69226f3e53">
    <rect height="75" width="105.34048461914062" y="0" x="0" class="er entityBox"/>
    <text style="dominant-baseline: middle; text-anchor: middle; font-size: 12px;" transform="translate(52.67024230957031,37.5)" y="0" x="0" id="text-entity-DataEncoding-e949680e-a6e4-55c9-9325-aa69226f3e53" class="er entityLabel">DataEncoding</text>
  </g>
  <g transform="translate(831.6710586547852,370 )" id="entity-Datatype-eedb5402-d0cc-52bf-9fb8-7b914f648cbe">
    <rect height="75" width="100" y="0" x="0" class="er entityBox"/>
    <text style="dominant-baseline: middle; text-anchor: middle; font-size: 12px;" transform="translate(50,37.5)" y="0" x="0" id="text-entity-Datatype-eedb5402-d0cc-52bf-9fb8-7b914f648cbe" class="er entityLabel">Datatype</text>
  </g>
  <g transform="translate(1609.3666610717773,20 )" id="entity-PhysicalConstant-f43f8855-cf72-5deb-8dd3-7b0283708583">
    <rect height="75" width="122.96058654785156" y="0" x="0" class="er entityBox"/>
    <text style="dominant-baseline: middle; text-anchor: middle; font-size: 12px;" transform="translate(61.48029327392578,37.5)" y="0" x="0" id="text-entity-PhysicalConstant-f43f8855-cf72-5deb-8dd3-7b0283708583" class="er entityLabel">PhysicalConstant</text>
  </g>
  <g transform="translate(1934.4210586547852,720 )" id="entity-QuantityKind-6f79b338-e354-5d95-8035-8883644476ff">
    <rect height="75" width="101.390625" y="0" x="0" class="er entityBox"/>
    <text style="dominant-baseline: middle; text-anchor: middle; font-size: 12px;" transform="translate(50.6953125,37.5)" y="0" x="0" id="text-entity-QuantityKind-6f79b338-e354-5d95-8035-8883644476ff" class="er entityLabel">QuantityKind</text>
  </g>
  <g transform="translate(1700.5606994628906,545 )" id="entity-QuantityKindDimensionVector-bfa1bf26-fcae-516f-8f63-2f454f3dac1b">
    <rect height="75" width="194.19308471679688" y="0" x="0" class="er entityBox"/>
    <text style="dominant-baseline: middle; text-anchor: middle; font-size: 12px;" transform="translate(97.09654235839844,37.5)" y="0" x="0" id="text-entity-QuantityKindDimensionVector-bfa1bf26-fcae-516f-8f63-2f454f3dac1b" class="er entityLabel">QuantityKindDimensionVector</text>
  </g>
  <g transform="translate(1180.3351211547852,195 )" id="entity-QuantityValue-f2bc13d2-1961-5e2a-9bfe-ab6a05a5860b">
    <rect height="75" width="106.375" y="0" x="0" class="er entityBox"/>
    <text style="dominant-baseline: middle; text-anchor: middle; font-size: 12px;" transform="translate(53.1875,37.5)" y="0" x="0" id="text-entity-QuantityValue-f2bc13d2-1961-5e2a-9bfe-ab6a05a5860b" class="er entityLabel">QuantityValue</text>
  </g>
  <g transform="translate(20,720 )" id="entity-Rule-886caf8e-59ff-5db3-a492-27242971196f">
    <rect height="75" width="100" y="0" x="0" class="er entityBox"/>
    <text style="dominant-baseline: middle; text-anchor: middle; font-size: 12px;" transform="translate(50,37.5)" y="0" x="0" id="text-entity-Rule-886caf8e-59ff-5db3-a492-27242971196f" class="er entityLabel">Rule</text>
  </g>
  <g transform="translate(3470.198112487793,545 )" id="entity-SystemOfUnits-f7f1da8e-a5af-50e1-94d0-c2e741f40e1d">
    <rect height="75" width="109.83651733398438" y="0" x="0" class="er entityBox"/>
    <text style="dominant-baseline: middle; text-anchor: middle; font-size: 12px;" transform="translate(54.91825866699219,37.5)" y="0" x="0" id="text-entity-SystemOfUnits-f7f1da8e-a5af-50e1-94d0-c2e741f40e1d" class="er entityLabel">SystemOfUnits</text>
  </g>
  <g transform="translate(2935.116371154785,370 )" id="entity-Unit-c57ac1ea-0a24-509a-a80e-23f8c03ca739">
    <rect height="75" width="100" y="0" x="0" class="er entityBox"/>
    <text style="dominant-baseline: middle; text-anchor: middle; font-size: 12px;" transform="translate(50,37.5)" y="0" x="0" id="text-entity-Unit-c57ac1ea-0a24-509a-a80e-23f8c03ca739" class="er entityLabel">Unit</text>
  </g>
  <g transform="translate(321.33512115478516,545 )" id="entity-Encoding-1bd3f2aa-2a9a-589f-8d8d-495ffc6a00da">
    <rect height="75" width="100" y="0" x="0" class="er entityBox"/>
    <text style="dominant-baseline: middle; text-anchor: middle; font-size: 12px;" transform="translate(50,37.5)" y="0" x="0" id="text-entity-Encoding-1bd3f2aa-2a9a-589f-8d8d-495ffc6a00da" class="er entityLabel">Encoding</text>
  </g>
  <g transform="translate(521.3351211547852,545 )" id="entity-EndianType-d95ef20a-f1b7-5562-baf4-d38ffa1e0153">
    <rect height="75" width="100" y="0" x="0" class="er entityBox"/>
    <text style="dominant-baseline: middle; text-anchor: middle; font-size: 12px;" transform="translate(50,37.5)" y="0" x="0" id="text-entity-EndianType-d95ef20a-f1b7-5562-baf4-d38ffa1e0153" class="er entityLabel">EndianType</text>
  </g>
  <g transform="translate(721.3351211547852,545 )" id="entity-CardinalityType-796d1111-9b0e-5cfa-a954-3577abec4acc">
    <rect height="75" width="113.78125" y="0" x="0" class="er entityBox"/>
    <text style="dominant-baseline: middle; text-anchor: middle; font-size: 12px;" transform="translate(56.890625,37.5)" y="0" x="0" id="text-entity-CardinalityType-796d1111-9b0e-5cfa-a954-3577abec4acc" class="er entityLabel">CardinalityType</text>
  </g>
  <g transform="translate(935.1163711547852,545 )" id="entity-OrderedType-842b5e5e-013e-581b-9bf8-11371587b713">
    <rect height="75" width="100" y="0" x="0" class="er entityBox"/>
    <text style="dominant-baseline: middle; text-anchor: middle; font-size: 12px;" transform="translate(50,37.5)" y="0" x="0" id="text-entity-OrderedType-842b5e5e-013e-581b-9bf8-11371587b713" class="er entityLabel">OrderedType</text>
  </g>
  <g transform="translate(220,895 )" id="entity-QuantityKindDimensionVectorSI-2681a9c0-d385-5c75-b278-85a805bca5b5">
    <rect height="75" width="203.90625" y="0" x="0" class="er entityBox"/>
    <text style="dominant-baseline: middle; text-anchor: middle; font-size: 12px;" transform="translate(101.953125,37.5)" y="0" x="0" id="text-entity-QuantityKindDimensionVectorSI-2681a9c0-d385-5c75-b278-85a805bca5b5" class="er entityLabel">QuantityKindDimensionVectorSI</text>
  </g>
  <g transform="translate(2046.4597206115723,895 )" id="entity-SystemOfQuantityKinds-09c2a533-d4ff-5ffb-9642-53498359216a">
    <rect height="75" width="158.53285217285156" y="0" x="0" class="er entityBox"/>
    <text style="dominant-baseline: middle; text-anchor: middle; font-size: 12px;" transform="translate(79.26642608642578,37.5)" y="0" x="0" id="text-entity-SystemOfQuantityKinds-09c2a533-d4ff-5ffb-9642-53498359216a" class="er entityLabel">SystemOfQuantityKinds</text>
  </g>
  <g transform="translate(20,895 )" id="entity-RuleType-d54df1a6-a17d-5920-9344-6f805c739e55">
    <rect height="75" width="100" y="0" x="0" class="er entityBox"/>
    <text style="dominant-baseline: middle; text-anchor: middle; font-size: 12px;" transform="translate(50,37.5)" y="0" x="0" id="text-entity-RuleType-d54df1a6-a17d-5920-9344-6f805c739e55" class="er entityLabel">RuleType</text>
  </g>
  <g transform="translate(3825.116371154785,720 )" id="entity-Prefix-f6d97b99-faee-5974-b12e-390868d79e86">
    <rect height="75" width="100" y="0" x="0" class="er entityBox"/>
    <text style="dominant-baseline: middle; text-anchor: middle; font-size: 12px;" transform="translate(50,37.5)" y="0" x="0" id="text-entity-Prefix-f6d97b99-faee-5974-b12e-390868d79e86" class="er entityLabel">Prefix</text>
  </g>
  <g transform="translate(1135.1163711547852,545 )" id="entity-UCUMcs-8df33f70-0c53-5f8e-a81f-0969bc803a34">
    <rect height="75" width="100" y="0" x="0" class="er entityBox"/>
    <text style="dominant-baseline: middle; text-anchor: middle; font-size: 12px;" transform="translate(50,37.5)" y="0" x="0" id="text-entity-UCUMcs-8df33f70-0c53-5f8e-a81f-0969bc803a34" class="er entityLabel">UCUMcs</text>
  </g>
  <g transform="translate(1335.1163711547852,545 )" id="entity-Class-d9e3eb4a-97c0-50b6-8e3f-7f4a2fa7283d">
    <rect height="75" width="100" y="0" x="0" class="er entityBox"/>
    <text style="dominant-baseline: middle; text-anchor: middle; font-size: 12px;" transform="translate(50,37.5)" y="0" x="0" id="text-entity-Class-d9e3eb4a-97c0-50b6-8e3f-7f4a2fa7283d" class="er entityLabel">__Class</text>
  </g>
  <rect height="14" width="50.668304443359375" y="480.5645446777344" x="360.36277770996094" class="er relationshipLabelBox"/>
  <text style="text-anchor: middle; dominant-baseline: middle; font-size: 12px;" y="487.5645446777344" x="385.6969299316406" id="rel1" class="er relationshipLabel">encoding</text>
  <rect height="14" width="46.13629150390625" y="488.0002136230469" x="498.2669982910156" class="er relationshipLabelBox"/>
  <text style="text-anchor: middle; dominant-baseline: middle; font-size: 12px;" y="495.0002136230469" x="521.3351440429688" id="rel2" class="er relationshipLabel">bitOrder</text>
  <rect height="14" width="54.96832275390625" y="471.52423095703125" x="561.1239318847656" class="er relationshipLabelBox"/>
  <text style="text-anchor: middle; dominant-baseline: middle; font-size: 12px;" y="478.52423095703125" x="588.6080932617188" id="rel3" class="er relationshipLabel">byteOrder</text>
  <rect height="14" width="57.58837890625" y="480.2227783203125" x="764.545654296875" class="er relationshipLabelBox"/>
  <text style="text-anchor: middle; dominant-baseline: middle; font-size: 12px;" y="487.2227783203125" x="793.33984375" id="rel4" class="er relationshipLabel">cardinality</text>
  <rect height="14" width="28.4041748046875" y="400.5" x="1298.5009155273438" class="er relationshipLabelBox"/>
  <text style="text-anchor: middle; dominant-baseline: middle; font-size: 12px;" y="407.5" x="1312.7030029296875" id="rel5" class="er relationshipLabel">basis</text>
  <rect height="14" width="68.28125" y="480.2225646972656" x="935.86181640625" class="er relationshipLabelBox"/>
  <text style="text-anchor: middle; dominant-baseline: middle; font-size: 12px;" y="487.2225646972656" x="970.00244140625" id="rel6" class="er relationshipLabel">orderedType</text>
  <rect height="14" width="43.296875" y="460.10284423828125" x="312.8273010253906" class="er relationshipLabelBox"/>
  <text style="text-anchor: middle; dominant-baseline: middle; font-size: 12px;" y="467.10284423828125" x="334.4757385253906" id="rel7" class="er relationshipLabel">hasRule</text>
  <rect height="14" width="74.90850830078125" y="106.15874481201172" x="840.1102600097656" class="er relationshipLabelBox"/>
  <text style="text-anchor: middle; dominant-baseline: middle; font-size: 12px;" y="113.15874481201172" x="877.5645141601562" id="rel8" class="er relationshipLabel">dataEncoding</text>
  <rect height="14" width="48.328125" y="112.55606079101562" x="1025.2950439453125" class="er relationshipLabelBox"/>
  <text style="text-anchor: middle; dominant-baseline: middle; font-size: 12px;" y="119.55606079101562" x="1049.4591064453125" id="rel9" class="er relationshipLabel">datatype</text>
  <rect height="14" width="42.404296875" y="110.95868682861328" x="2373.224609375" class="er relationshipLabelBox"/>
  <text style="text-anchor: middle; dominant-baseline: middle; font-size: 12px;" y="117.95868682861328" x="2394.4267578125" id="rel10" class="er relationshipLabel">hasUnit</text>
  <rect height="14" width="61.453125" y="50.49999237060547" x="1800.7674560546875" class="er relationshipLabelBox"/>
  <text style="text-anchor: middle; dominant-baseline: middle; font-size: 12px;" y="57.49999237060547" x="1831.4940185546875" id="rel11" class="er relationshipLabel">exactMatch</text>
  <rect height="14" width="90.4375" y="561.394775390625" x="174.78125" class="er relationshipLabelBox"/>
  <text style="text-anchor: middle; dominant-baseline: middle; font-size: 12px;" y="568.394775390625" x="220" id="rel12" class="er relationshipLabel">hasQuantityKind</text>
  <rect height="14" width="111.8487548828125" y="333.1470947265625" x="1579.1915893554688" class="er relationshipLabelBox"/>
  <text style="text-anchor: middle; dominant-baseline: middle; font-size: 12px;" y="340.1470947265625" x="1635.115966796875" id="rel13" class="er relationshipLabel">hasDimensionVector</text>
  <rect height="14" width="75.265625" y="104.53926849365234" x="1370.0322265625" class="er relationshipLabelBox"/>
  <text style="text-anchor: middle; dominant-baseline: middle; font-size: 12px;" y="111.53926849365234" x="1407.6650390625" id="rel14" class="er relationshipLabel">quantityValue</text>
  <rect height="14" width="95.78125" y="218.81292724609375" x="2649.6943359375" class="er relationshipLabelBox"/>
  <text style="text-anchor: middle; dominant-baseline: middle; font-size: 12px;" y="225.81292724609375" x="2697.5849609375" id="rel15" class="er relationshipLabel">applicableSystem</text>
  <rect height="14" width="80.3125" y="105.02944946289062" x="2404.34814453125" class="er relationshipLabelBox"/>
  <text style="text-anchor: middle; dominant-baseline: middle; font-size: 12px;" y="112.02944946289062" x="2444.50439453125" id="rel16" class="er relationshipLabel">applicableUnit</text>
  <rect height="14" width="97.9886474609375" y="684.7700805664062" x="1800.5112915039062" class="er relationshipLabelBox"/>
  <text style="text-anchor: middle; dominant-baseline: middle; font-size: 12px;" y="691.7700805664062" x="1849.505615234375" id="rel17" class="er relationshipLabel">qkdvDenominator</text>
  <rect height="14" width="85.196533203125" y="661.8113403320312" x="1852.5863037109375" class="er relationshipLabelBox"/>
  <text style="text-anchor: middle; dominant-baseline: middle; font-size: 12px;" y="668.8113403320312" x="1895.1845703125" id="rel18" class="er relationshipLabel">qkdvNumerator</text>
  <rect height="14" width="119.078125" y="797.1300048828125" x="1059.961669921875" class="er relationshipLabelBox"/>
  <text style="text-anchor: middle; dominant-baseline: middle; font-size: 12px;" y="804.1300048828125" x="1119.500732421875" id="rel19" class="er relationshipLabel">dimensionVectorForSI</text>
  <rect height="14" width="61.453125" y="750.5" x="2678.324462890625" class="er relationshipLabelBox"/>
  <text style="text-anchor: middle; dominant-baseline: middle; font-size: 12px;" y="757.5" x="2709.051025390625" id="rel20" class="er relationshipLabel">exactMatch</text>
  <rect height="14" width="111.8487548828125" y="647.7740478515625" x="1900.2639770507812" class="er relationshipLabelBox"/>
  <text style="text-anchor: middle; dominant-baseline: middle; font-size: 12px;" y="654.7740478515625" x="1956.1883544921875" id="rel21" class="er relationshipLabel">hasDimensionVector</text>
  <rect height="14" width="163.42919921875" y="823.5470581054688" x="2015.217529296875" class="er relationshipLabelBox"/>
  <text style="text-anchor: middle; dominant-baseline: middle; font-size: 12px;" y="830.5470581054688" x="2096.93212890625" id="rel22" class="er relationshipLabel">belongsToSystemOfQuantities</text>
  <rect height="14" width="100.904541015625" y="460.8124084472656" x="2365.7589111328125" class="er relationshipLabelBox"/>
  <text style="text-anchor: middle; dominant-baseline: middle; font-size: 12px;" y="467.8124084472656" x="2416.211181640625" id="rel23" class="er relationshipLabel">applicableCGSUnit</text>
  <rect height="14" width="98.696533203125" y="469.3271789550781" x="2375.0931396484375" class="er relationshipLabelBox"/>
  <text style="text-anchor: middle; dominant-baseline: middle; font-size: 12px;" y="476.3271789550781" x="2424.44140625" id="rel24" class="er relationshipLabel">applicableISOUnit</text>
  <rect height="14" width="125.744873046875" y="482.6000671386719" x="2367.3343505859375" class="er relationshipLabelBox"/>
  <text style="text-anchor: middle; dominant-baseline: middle; font-size: 12px;" y="489.6000671386719" x="2430.206787109375" id="rel25" class="er relationshipLabel">applicableImperialUnit</text>
  <rect height="14" width="90.392578125" y="509.0362548828125" x="2392.7158203125" class="er relationshipLabelBox"/>
  <text style="text-anchor: middle; dominant-baseline: middle; font-size: 12px;" y="516.0362548828125" x="2437.912109375" id="rel26" class="er relationshipLabel">applicableSIUnit</text>
  <rect height="14" width="152.324951171875" y="587.0497436523438" x="2421.3175048828125" class="er relationshipLabelBox"/>
  <text style="text-anchor: middle; dominant-baseline: middle; font-size: 12px;" y="594.0497436523438" x="2497.47998046875" id="rel27" class="er relationshipLabel">applicableUSCustomaryUnit</text>
  <rect height="14" width="80.3125" y="650.9284057617188" x="2495.587158203125" class="er relationshipLabelBox"/>
  <text style="text-anchor: middle; dominant-baseline: middle; font-size: 12px;" y="657.9284057617188" x="2535.743408203125" id="rel28" class="er relationshipLabel">applicableUnit</text>
  <rect height="14" width="144.375" y="688.0584716796875" x="1226.1524658203125" class="er relationshipLabelBox"/>
  <text style="text-anchor: middle; dominant-baseline: middle; font-size: 12px;" y="695.0584716796875" x="1298.3399658203125" id="rel29" class="er relationshipLabel">hasReferenceQuantityKind</text>
  <rect height="14" width="43.296875" y="623.94482421875" x="868.5650634765625" class="er relationshipLabelBox"/>
  <text style="text-anchor: middle; dominant-baseline: middle; font-size: 12px;" y="630.94482421875" x="890.2135009765625" id="rel30" class="er relationshipLabel">hasRule</text>
  <rect height="14" width="74.90850830078125" y="282.7779846191406" x="809.6948547363281" class="er relationshipLabelBox"/>
  <text style="text-anchor: middle; dominant-baseline: middle; font-size: 12px;" y="289.7779846191406" x="847.1491088867188" id="rel31" class="er relationshipLabel">dataEncoding</text>
  <rect height="14" width="48.328125" y="345.3820495605469" x="1073.1025390625" class="er relationshipLabelBox"/>
  <text style="text-anchor: middle; dominant-baseline: middle; font-size: 12px;" y="352.3820495605469" x="1097.2666015625" id="rel32" class="er relationshipLabel">datatype</text>
  <rect height="14" width="42.404296875" y="270.6976318359375" x="2212.14697265625" class="er relationshipLabelBox"/>
  <text style="text-anchor: middle; dominant-baseline: middle; font-size: 12px;" y="277.6976318359375" x="2233.34912109375" id="rel33" class="er relationshipLabel">hasUnit</text>
  <rect height="14" width="46.921875" y="838" x="46.5390625" class="er relationshipLabelBox"/>
  <text style="text-anchor: middle; dominant-baseline: middle; font-size: 12px;" y="845" x="70" id="rel34" class="er relationshipLabel">ruleType</text>
  <rect height="14" width="149.9130859375" y="107.887451171875" x="2702.4833984375" class="er relationshipLabelBox"/>
  <text style="text-anchor: middle; dominant-baseline: middle; font-size: 12px;" y="114.887451171875" x="2777.43994140625" id="rel35" class="er relationshipLabel">applicablePhysicalConstant</text>
  <rect height="14" width="30.840087890625" y="695.3194580078125" x="3645.0037841796875" class="er relationshipLabelBox"/>
  <text style="text-anchor: middle; dominant-baseline: middle; font-size: 12px;" y="702.3194580078125" x="3660.423828125" id="rel36" class="er relationshipLabel">prefix</text>
  <rect height="14" width="85.58056640625" y="449.979736328125" x="3267.626220703125" class="er relationshipLabelBox"/>
  <text style="text-anchor: middle; dominant-baseline: middle; font-size: 12px;" y="456.979736328125" x="3310.41650390625" id="rel37" class="er relationshipLabel">hasAllowedUnit</text>
  <rect height="14" width="68.25244140625" y="448.5696716308594" x="3318.966552734375" class="er relationshipLabelBox"/>
  <text style="text-anchor: middle; dominant-baseline: middle; font-size: 12px;" y="455.5696716308594" x="3353.0927734375" id="rel38" class="er relationshipLabel">hasBaseUnit</text>
  <rect height="14" width="91.640625" y="448.97906494140625" x="3359.263916015625" class="er relationshipLabelBox"/>
  <text style="text-anchor: middle; dominant-baseline: middle; font-size: 12px;" y="455.97906494140625" x="3405.084228515625" id="rel39" class="er relationshipLabel">hasCoherentUnit</text>
  <rect height="14" width="84.320556640625" y="449.783203125" x="3419.4732666015625" class="er relationshipLabelBox"/>
  <text style="text-anchor: middle; dominant-baseline: middle; font-size: 12px;" y="456.783203125" x="3461.633544921875" id="rel40" class="er relationshipLabel">hasDefinedUnit</text>
  <rect height="14" width="133.496826171875" y="450.76043701171875" x="3454.3485107421875" class="er relationshipLabelBox"/>
  <text style="text-anchor: middle; dominant-baseline: middle; font-size: 12px;" y="457.76043701171875" x="3521.096923828125" id="rel41" class="er relationshipLabel">hasDerivedCoherentUnit</text>
  <rect height="14" width="84.260498046875" y="451.7895812988281" x="3540.2835693359375" class="er relationshipLabelBox"/>
  <text style="text-anchor: middle; dominant-baseline: middle; font-size: 12px;" y="458.7895812988281" x="3582.413818359375" id="rel42" class="er relationshipLabel">hasDerivedUnit</text>
  <rect height="14" width="42.404296875" y="452.80377197265625" x="3623.760498046875" class="er relationshipLabelBox"/>
  <text style="text-anchor: middle; dominant-baseline: middle; font-size: 12px;" y="459.80377197265625" x="3644.962646484375" id="rel43" class="er relationshipLabel">hasUnit</text>
  <rect height="14" width="111.8486328125" y="447.0171203613281" x="2280.255126953125" class="er relationshipLabelBox"/>
  <text style="text-anchor: middle; dominant-baseline: middle; font-size: 12px;" y="454.0171203613281" x="2336.179443359375" id="rel44" class="er relationshipLabel">hasDimensionVector</text>
  <rect height="14" width="97.98876953125" y="448.6547546386719" x="2318.254150390625" class="er relationshipLabelBox"/>
  <text style="text-anchor: middle; dominant-baseline: middle; font-size: 12px;" y="455.6547546386719" x="2367.24853515625" id="rel45" class="er relationshipLabel">qkdvDenominator</text>
  <rect height="14" width="85.196533203125" y="451.19012451171875" x="2349.1143798828125" class="er relationshipLabelBox"/>
  <text style="text-anchor: middle; dominant-baseline: middle; font-size: 12px;" y="458.19012451171875" x="2391.712646484375" id="rel46" class="er relationshipLabel">qkdvNumerator</text>
  <rect height="14" width="30.840087890625" y="467.21514892578125" x="3863.4947509765625" class="er relationshipLabelBox"/>
  <text style="text-anchor: middle; dominant-baseline: middle; font-size: 12px;" y="474.21514892578125" x="3878.914794921875" id="rel47" class="er relationshipLabel">prefix</text>
  <rect height="14" width="90.4375" y="466.53778076171875" x="1943.76513671875" class="er relationshipLabelBox"/>
  <text style="text-anchor: middle; dominant-baseline: middle; font-size: 12px;" y="473.53778076171875" x="1988.98388671875" id="rel48" class="er relationshipLabel">hasQuantityKind</text>
  <rect height="14" width="95.78125" y="525.29248046875" x="3154.088134765625" class="er relationshipLabelBox"/>
  <text style="text-anchor: middle; dominant-baseline: middle; font-size: 12px;" y="532.29248046875" x="3201.978759765625" id="rel49" class="er relationshipLabel">applicableSystem</text>
  <rect height="14" width="115.203125" y="520.5962524414062" x="3175.564208984375" class="er relationshipLabelBox"/>
  <text style="text-anchor: middle; dominant-baseline: middle; font-size: 12px;" y="527.5962524414062" x="3233.165771484375" id="rel50" class="er relationshipLabel">definedUnitOfSystem</text>
  <rect height="14" width="164.390625" y="509.03363037109375" x="3165.7568359375" class="er relationshipLabelBox"/>
  <text style="text-anchor: middle; dominant-baseline: middle; font-size: 12px;" y="516.0336303710938" x="3247.9521484375" id="rel51" class="er relationshipLabel">derivedCoherentUnitOfSystem</text>
  <rect height="14" width="115.15625" y="488.844970703125" x="3194.69873046875" class="er relationshipLabelBox"/>
  <text style="text-anchor: middle; dominant-baseline: middle; font-size: 12px;" y="495.844970703125" x="3252.27685546875" id="rel52" class="er relationshipLabel">derivedUnitOfSystem</text>
  <rect height="14" width="82.828125" y="468.21575927734375" x="3215.318115234375" class="er relationshipLabelBox"/>
  <text style="text-anchor: middle; dominant-baseline: middle; font-size: 12px;" y="475.21575927734375" x="3256.732177734375" id="rel53" class="er relationshipLabel">isUnitOfSystem</text>
  <rect height="14" width="57.078125" y="446.96209716796875" x="2023.10205078125" class="er relationshipLabelBox"/>
  <text style="text-anchor: middle; dominant-baseline: middle; font-size: 12px;" y="453.96209716796875" x="2051.64111328125" id="rel54" class="er relationshipLabel">ucumCode</text>
  <rect height="14" width="61.453125" y="400.5" x="3113.00048828125" class="er relationshipLabelBox"/>
  <text style="text-anchor: middle; dominant-baseline: middle; font-size: 12px;" y="407.5" x="3143.72705078125" id="rel55" class="er relationshipLabel">exactMatch</text>
  <rect height="14" width="99.0927734375" y="400.5000305175781" x="3198.069580078125" class="er relationshipLabelBox"/>
  <text style="text-anchor: middle; dominant-baseline: middle; font-size: 12px;" y="407.5000305175781" x="3247.615966796875" id="rel56" class="er relationshipLabel">hasReciprocalUnit</text>
  <rect height="14" width="51.104248046875" y="400.5" x="3325.9527587890625" class="er relationshipLabelBox"/>
  <text style="text-anchor: middle; dominant-baseline: middle; font-size: 12px;" y="407.5" x="3351.5048828125" id="rel57" class="er relationshipLabel">scalingOf</text>
  <rect height="14" width="75.632568359375" y="447.1902770996094" x="2113.5076904296875" class="er relationshipLabelBox"/>
  <text style="text-anchor: middle; dominant-baseline: middle; font-size: 12px;" y="454.1902770996094" x="2151.323974609375" id="rel58" class="er relationshipLabel">hasFactorUnit</text>
</svg>
