<svg xmlns="http://www.w3.org/2000/svg" xmlns:ns1="http://www.w3.org/1999/xlink" aria-roledescription="er" role="graphics-document document" viewBox="0 0 1504.3135986328125 465" height="465" width="1504.3135986328125" id="container"><style>#container{font-family:"trebuchet ms",verdana,arial,sans-serif;font-size:16px;fill:#333;}#container .error-icon{fill:#552222;}#container .error-text{fill:#552222;stroke:#552222;}#container .edge-thickness-normal{stroke-width:1px;}#container .edge-thickness-thick{stroke-width:3.5px;}#container .edge-pattern-solid{stroke-dasharray:0;}#container .edge-thickness-invisible{stroke-width:0;fill:none;}#container .edge-pattern-dashed{stroke-dasharray:3;}#container .edge-pattern-dotted{stroke-dasharray:2;}#container .marker{fill:#333333;stroke:#333333;}#container .marker.cross{stroke:#333333;}#container svg{font-family:"trebuchet ms",verdana,arial,sans-serif;font-size:16px;}#container p{margin:0;}#container .entityBox{fill:#ECECFF;stroke:#9370DB;}#container .attributeBoxOdd{fill:#ffffff;stroke:#9370DB;}#container .attributeBoxEven{fill:#f2f2f2;stroke:#9370DB;}#container .relationshipLabelBox{fill:hsl(80, 100%, 96.2745098039%);opacity:0.7;background-color:hsl(80, 100%, 96.2745098039%);}#container .relationshipLabelBox rect{opacity:0.5;}#container .relationshipLine{stroke:#333333;}#container .entityTitleText{text-anchor:middle;font-size:18px;fill:#333;}#container #MD_PARENT_START{fill:#f5f5f5!important;stroke:#333333!important;stroke-width:1;}#container #MD_PARENT_END{fill:#f5f5f5!important;stroke:#333333!important;stroke-width:1;}#container :root{--mermaid-font-family:"trebuchet ms",verdana,arial,sans-serif;}</style><g /><defs><marker orient="auto" markerHeight="240" markerWidth="190" refY="7" refX="0" id="MD_PARENT_START"><path d="M 18,7 L9,13 L1,7 L9,1 Z" /></marker></defs><defs><marker orient="auto" markerHeight="28" markerWidth="20" refY="7" refX="19" id="MD_PARENT_END"><path d="M 18,7 L9,13 L1,7 L9,1 Z" /></marker></defs><defs><marker orient="auto" markerHeight="18" markerWidth="18" refY="9" refX="0" id="ONLY_ONE_START"><path d="M9,0 L9,18 M15,0 L15,18" fill="none" stroke="gray" /></marker></defs><defs><marker orient="auto" markerHeight="18" markerWidth="18" refY="9" refX="18" id="ONLY_ONE_END"><path d="M3,0 L3,18 M9,0 L9,18" fill="none" stroke="gray" /></marker></defs><defs><marker orient="auto" markerHeight="18" markerWidth="30" refY="9" refX="0" id="ZERO_OR_ONE_START"><circle r="6" cy="9" cx="21" fill="white" stroke="gray" /><path d="M9,0 L9,18" fill="none" stroke="gray" /></marker></defs><defs><marker orient="auto" markerHeight="18" markerWidth="30" refY="9" refX="30" id="ZERO_OR_ONE_END"><circle r="6" cy="9" cx="9" fill="white" stroke="gray" /><path d="M21,0 L21,18" fill="none" stroke="gray" /></marker></defs><defs><marker orient="auto" markerHeight="36" markerWidth="45" refY="18" refX="18" id="ONE_OR_MORE_START"><path d="M0,18 Q 18,0 36,18 Q 18,36 0,18 M42,9 L42,27" fill="none" stroke="gray" /></marker></defs><defs><marker orient="auto" markerHeight="36" markerWidth="45" refY="18" refX="27" id="ONE_OR_MORE_END"><path d="M3,9 L3,27 M9,18 Q27,0 45,18 Q27,36 9,18" fill="none" stroke="gray" /></marker></defs><defs><marker orient="auto" markerHeight="36" markerWidth="57" refY="18" refX="18" id="ZERO_OR_MORE_START"><circle r="6" cy="18" cx="48" fill="white" stroke="gray" /><path d="M0,18 Q18,0 36,18 Q18,36 0,18" fill="none" stroke="gray" /></marker></defs><defs><marker orient="auto" markerHeight="36" markerWidth="57" refY="18" refX="39" id="ZERO_OR_MORE_END"><circle r="6" cy="18" cx="9" fill="white" stroke="gray" /><path d="M21,18 Q39,0 57,18 Q39,36 21,18" fill="none" stroke="gray" /></marker></defs><path style="stroke: gray; fill: none;" marker-start="url(#ONLY_ONE_START)" marker-end="url(#ZERO_OR_MORE_END)" d="M93.07,95L93.07,103.333C93.07,111.667,93.07,128.333,93.07,145C93.07,161.667,93.07,178.333,93.07,186.667L93.07,195" class="er relationshipLine" /><path style="stroke: gray; fill: none;" marker-start="url(#ONLY_ONE_START)" marker-end="url(#ZERO_OR_ONE_END)" d="M1073.184,62.676L938.792,76.396C804.401,90.117,535.619,117.559,411.862,139.613C288.106,161.667,309.375,178.333,320.01,186.667L330.645,195" class="er relationshipLine" /><path style="stroke: gray; fill: none;" marker-start="url(#ONLY_ONE_START)" marker-end="url(#ZERO_OR_ONE_END)" d="M1073.184,63.359L955.459,76.966C837.734,90.573,602.285,117.786,485.672,139.727C369.058,161.667,371.28,178.333,372.391,186.667L373.502,195" class="er relationshipLine" /><path style="stroke: gray; fill: none;" marker-start="url(#ONLY_ONE_START)" marker-end="url(#ZERO_OR_ONE_END)" d="M1073.184,67.449L1007.324,80.374C941.465,93.299,809.745,119.15,743.886,140.408C678.026,161.667,678.026,178.333,678.026,186.667L678.026,195" class="er relationshipLine" /><path style="stroke: gray; fill: none;" marker-start="url(#ONLY_ONE_START)" marker-end="url(#ZERO_OR_MORE_END)" d="M1174.574,41.749L1186.241,38.124C1197.908,34.499,1221.241,27.25,1235.824,23.625C1250.408,20,1256.241,20,1262.074,26.25C1267.908,32.5,1273.741,45,1273.741,57.5C1273.741,70,1267.908,82.5,1262.074,88.75C1256.241,95,1250.408,95,1235.824,91.375C1221.241,87.75,1197.908,80.501,1186.241,76.876L1174.574,73.251" class="er relationshipLine" /><path style="stroke: gray; fill: none;" marker-start="url(#ONLY_ONE_START)" marker-end="url(#ZERO_OR_MORE_END)" d="M1073.184,64.373L974.07,77.811C874.956,91.249,676.729,118.124,568.091,139.896C459.454,161.667,440.406,178.333,430.882,186.667L421.359,195" class="er relationshipLine" /><path style="stroke: gray; fill: none;" marker-start="url(#ONLY_ONE_START)" marker-end="url(#ZERO_OR_MORE_END)" d="M1073.184,84.444L1054.194,94.536C1035.204,104.629,997.225,124.815,978.235,143.241C959.246,161.667,959.246,178.333,959.246,186.667L959.246,195" class="er relationshipLine" /><path style="stroke: gray; fill: none;" marker-start="url(#ONLY_ONE_START)" marker-end="url(#ZERO_OR_MORE_END)" d="M1112.404,95L1109.855,103.333C1107.305,111.667,1102.205,128.333,1120.014,147.014C1137.823,165.695,1178.54,186.391,1198.899,196.739L1219.257,207.086" class="er relationshipLine" /><path style="stroke: gray; fill: none;" marker-start="url(#ONLY_ONE_START)" marker-end="url(#ZERO_OR_MORE_END)" d="M1155.262,95L1162.236,103.333C1169.209,111.667,1183.157,128.333,1197.003,145C1210.848,161.667,1224.592,178.333,1231.463,186.667L1238.335,195" class="er relationshipLine" /><path style="stroke: gray; fill: none;" marker-start="url(#ONLY_ONE_START)" marker-end="url(#ZERO_OR_MORE_END)" d="M1174.574,83.107L1194.996,93.423C1215.418,103.738,1256.262,124.369,1274.031,143.018C1291.801,161.667,1286.497,178.333,1283.844,186.667L1281.192,195" class="er relationshipLine" /><path style="stroke: gray; fill: none;" marker-start="url(#ONLY_ONE_START)" marker-end="url(#ZERO_OR_MORE_END)" d="M1174.574,73.735L1211.663,85.613C1248.751,97.49,1322.928,121.245,1347.042,142.002C1371.156,162.76,1345.207,180.52,1332.232,189.4L1319.257,198.28" class="er relationshipLine" /><path style="stroke: gray; fill: none;" marker-start="url(#ONLY_ONE_START)" marker-end="url(#ZERO_OR_MORE_END)" d="M1174.574,69.385L1228.329,81.988C1282.085,94.59,1389.595,119.795,1413.709,143.781C1437.823,167.766,1378.54,190.532,1348.899,201.915L1319.257,213.299" class="er relationshipLine" /><path style="stroke: gray; fill: none;" marker-start="url(#ONLY_ONE_START)" marker-end="url(#ZERO_OR_MORE_END)" d="M1174.574,66.874L1244.996,79.895C1315.418,92.916,1456.262,118.958,1480.375,144.338C1504.489,169.718,1411.873,194.437,1365.565,206.796L1319.257,219.155" class="er relationshipLine" /><path style="stroke: gray; fill: none;" marker-start="url(#ONLY_ONE_START)" marker-end="url(#ZERO_OR_MORE_END)" d="M93.07,270L93.07,278.333C93.07,286.667,93.07,303.333,93.07,320C93.07,336.667,93.07,353.333,93.07,361.667L93.07,370" class="er relationshipLine" /><g transform="translate(20,20 )" id="entity-AbstractQuantityKind-251824b8-4b13-554e-87bc-1a2faeaad1d7"><rect height="75" width="146.140625" y="0" x="0" class="er entityBox" /><a ns1:href="#abstractquantitykind"><text style="dominant-baseline: middle; text-anchor: middle; font-size: 12px;" transform="translate(73.0703125,37.5)" y="0" x="0" id="text-entity-AbstractQuantityKind-251824b8-4b13-554e-87bc-1a2faeaad1d7" class="er entityLabel">AbstractQuantityKind</text></a></g><g transform="translate(1073.183681488037,20 )" id="entity-QuantityKind-6f79b338-e354-5d95-8035-8883644476ff"><rect height="75" width="101.390625" y="0" x="0" class="er entityBox" /><a ns1:href="#quantitykind"><text style="dominant-baseline: middle; text-anchor: middle; font-size: 12px;" transform="translate(50.6953125,37.5)" y="0" x="0" id="text-entity-QuantityKind-6f79b338-e354-5d95-8035-8883644476ff" class="er entityLabel">QuantityKind</text></a></g><g transform="translate(43.0703125,195 )" id="entity-Rule-886caf8e-59ff-5db3-a492-27242971196f"><rect height="75" width="100" y="0" x="0" class="er entityBox" /><a ns1:href="#rule"><text style="dominant-baseline: middle; text-anchor: middle; font-size: 12px;" transform="translate(50,37.5)" y="0" x="0" id="text-entity-Rule-886caf8e-59ff-5db3-a492-27242971196f" class="er entityLabel">Rule</text></a></g><g transform="translate(281.4048538208008,195 )" id="entity-QuantityKindDimensionVector-bfa1bf26-fcae-516f-8f63-2f454f3dac1b"><rect height="75" width="194.19308471679688" y="0" x="0" class="er entityBox" /><a ns1:href="#quantitykinddimensionvector"><text style="dominant-baseline: middle; text-anchor: middle; font-size: 12px;" transform="translate(97.09654235839844,37.5)" y="0" x="0" id="text-entity-QuantityKindDimensionVector-bfa1bf26-fcae-516f-8f63-2f454f3dac1b" class="er entityLabel">QuantityKindDimensionVector</text></a></g><g transform="translate(576.0731048583984,195 )" id="entity-QuantityKindDimensionVectorSI-2681a9c0-d385-5c75-b278-85a805bca5b5"><rect height="75" width="203.90625" y="0" x="0" class="er entityBox" /><text style="dominant-baseline: middle; text-anchor: middle; font-size: 12px;" transform="translate(101.953125,37.5)" y="0" x="0" id="text-entity-QuantityKindDimensionVectorSI-2681a9c0-d385-5c75-b278-85a805bca5b5" class="er entityLabel">QuantityKindDimensionVectorSI</text></g><g transform="translate(879.9793548583984,195 )" id="entity-SystemOfQuantityKinds-09c2a533-d4ff-5ffb-9642-53498359216a"><rect height="75" width="158.53285217285156" y="0" x="0" class="er entityBox" /><a ns1:href="#systemofquantitykinds"><text style="dominant-baseline: middle; text-anchor: middle; font-size: 12px;" transform="translate(79.26642608642578,37.5)" y="0" x="0" id="text-entity-SystemOfQuantityKinds-09c2a533-d4ff-5ffb-9642-53498359216a" class="er entityLabel">SystemOfQuantityKinds</text></a></g><g transform="translate(1219.2574996948242,195 )" id="entity-Unit-c57ac1ea-0a24-509a-a80e-23f8c03ca739"><rect height="75" width="100" y="0" x="0" class="er entityBox" /><a ns1:href="#unit"><text style="dominant-baseline: middle; text-anchor: middle; font-size: 12px;" transform="translate(50,37.5)" y="0" x="0" id="text-entity-Unit-c57ac1ea-0a24-509a-a80e-23f8c03ca739" class="er entityLabel">Unit</text></a></g><g transform="translate(43.0703125,370 )" id="entity-RuleType-d54df1a6-a17d-5920-9344-6f805c739e55"><rect height="75" width="100" y="0" x="0" class="er entityBox" /><a ns1:href="#ruletype"><text style="dominant-baseline: middle; text-anchor: middle; font-size: 12px;" transform="translate(50,37.5)" y="0" x="0" id="text-entity-RuleType-d54df1a6-a17d-5920-9344-6f805c739e55" class="er entityLabel">RuleType</text></a></g><rect height="14" width="43.296875" y="138" x="71.42156219482422" class="er relationshipLabelBox" /><text style="text-anchor: middle; dominant-baseline: middle; font-size: 12px;" y="145" x="93.06999969482422" id="rel1" class="er relationshipLabel">hasRule</text><rect height="14" width="97.9886474609375" y="97.62291717529297" x="624.612548828125" class="er relationshipLabelBox" /><text style="text-anchor: middle; dominant-baseline: middle; font-size: 12px;" y="104.62291717529297" x="673.6068725585938" id="rel2" class="er relationshipLabel">qkdvDenominator</text><rect height="14" width="85.19659423828125" y="99.4286117553711" x="668.1435852050781" class="er relationshipLabelBox" /><text style="text-anchor: middle; dominant-baseline: middle; font-size: 12px;" y="106.4286117553711" x="710.7418823242188" id="rel3" class="er relationshipLabel">qkdvNumerator</text><rect height="14" width="119.078125" y="103.25530242919922" x="802.4402465820312" class="er relationshipLabelBox" /><text style="text-anchor: middle; dominant-baseline: middle; font-size: 12px;" y="110.25530242919922" x="861.9793090820312" id="rel4" class="er relationshipLabel">dimensionVectorForSI</text><rect height="14" width="61.453125" y="50.49999237060547" x="1243.014404296875" class="er relationshipLabelBox" /><text style="text-anchor: middle; dominant-baseline: middle; font-size: 12px;" y="57.49999237060547" x="1273.740966796875" id="rel5" class="er relationshipLabel">exactMatch</text><rect height="14" width="111.84869384765625" y="103.66244506835938" x="685.6349182128906" class="er relationshipLabelBox" /><text style="text-anchor: middle; dominant-baseline: middle; font-size: 12px;" y="110.66244506835938" x="741.5592651367188" id="rel6" class="er relationshipLabel">hasDimensionVector</text><rect height="14" width="163.4290771484375" y="119.31573486328125" x="917.9886474609375" class="er relationshipLabelBox" /><text style="text-anchor: middle; dominant-baseline: middle; font-size: 12px;" y="126.31573486328125" x="999.7031860351562" id="rel7" class="er relationshipLabel">belongsToSystemOfQuantities</text><rect height="14" width="100.9046630859375" y="158.69679260253906" x="1093.0840454101562" class="er relationshipLabelBox" /><text style="text-anchor: middle; dominant-baseline: middle; font-size: 12px;" y="165.69679260253906" x="1143.536376953125" id="rel8" class="er relationshipLabel">applicableCGSUnit</text><rect height="14" width="98.6966552734375" y="137.89950561523438" x="1147.5711059570312" class="er relationshipLabelBox" /><text style="text-anchor: middle; dominant-baseline: middle; font-size: 12px;" y="144.89950561523438" x="1196.91943359375" id="rel9" class="er relationshipLabel">applicableISOUnit</text><rect height="14" width="125.744873046875" y="117.33045959472656" x="1187.561279296875" class="er relationshipLabelBox" /><text style="text-anchor: middle; dominant-baseline: middle; font-size: 12px;" y="124.33045959472656" x="1250.4337158203125" id="rel10" class="er relationshipLabel">applicableImperialUnit</text><rect height="14" width="90.392578125" y="109.30298614501953" x="1253.719482421875" class="er relationshipLabelBox" /><text style="text-anchor: middle; dominant-baseline: middle; font-size: 12px;" y="116.30298614501953" x="1298.915771484375" id="rel11" class="er relationshipLabel">applicableSIUnit</text><rect height="14" width="152.3250732421875" y="110.6689682006836" x="1284.3847045898438" class="er relationshipLabelBox" /><text style="text-anchor: middle; dominant-baseline: middle; font-size: 12px;" y="117.6689682006836" x="1360.5472412109375" id="rel12" class="er relationshipLabel">applicableUSCustomaryUnit</text><rect height="14" width="80.3125" y="112.03497314453125" x="1383.4267578125" class="er relationshipLabelBox" /><text style="text-anchor: middle; dominant-baseline: middle; font-size: 12px;" y="119.03497314453125" x="1423.5830078125" id="rel13" class="er relationshipLabel">applicableUnit</text><rect height="14" width="46.921875" y="313" x="69.60906219482422" class="er relationshipLabelBox" /><text style="text-anchor: middle; dominant-baseline: middle; font-size: 12px;" y="320" x="93.06999969482422" id="rel14" class="er relationshipLabel">ruleType</text></svg>