<svg xmlns="http://www.w3.org/2000/svg" xmlns:ns1="http://www.w3.org/1999/xlink" aria-roledescription="er" role="graphics-document document" viewBox="0 0 3540.985107421875 815" height="815" width="3540.985107421875" id="container"><style>#container{font-family:"trebuchet ms",verdana,arial,sans-serif;font-size:16px;fill:#333;}#container .error-icon{fill:#552222;}#container .error-text{fill:#552222;stroke:#552222;}#container .edge-thickness-normal{stroke-width:1px;}#container .edge-thickness-thick{stroke-width:3.5px;}#container .edge-pattern-solid{stroke-dasharray:0;}#container .edge-thickness-invisible{stroke-width:0;fill:none;}#container .edge-pattern-dashed{stroke-dasharray:3;}#container .edge-pattern-dotted{stroke-dasharray:2;}#container .marker{fill:#333333;stroke:#333333;}#container .marker.cross{stroke:#333333;}#container svg{font-family:"trebuchet ms",verdana,arial,sans-serif;font-size:16px;}#container p{margin:0;}#container .entityBox{fill:#ECECFF;stroke:#9370DB;}#container .attributeBoxOdd{fill:#ffffff;stroke:#9370DB;}#container .attributeBoxEven{fill:#f2f2f2;stroke:#9370DB;}#container .relationshipLabelBox{fill:hsl(80, 100%, 96.2745098039%);opacity:0.7;background-color:hsl(80, 100%, 96.2745098039%);}#container .relationshipLabelBox rect{opacity:0.5;}#container .relationshipLine{stroke:#333333;}#container .entityTitleText{text-anchor:middle;font-size:18px;fill:#333;}#container #MD_PARENT_START{fill:#f5f5f5!important;stroke:#333333!important;stroke-width:1;}#container #MD_PARENT_END{fill:#f5f5f5!important;stroke:#333333!important;stroke-width:1;}#container :root{--mermaid-font-family:"trebuchet ms",verdana,arial,sans-serif;}</style><g /><defs><marker orient="auto" markerHeight="240" markerWidth="190" refY="7" refX="0" id="MD_PARENT_START"><path d="M 18,7 L9,13 L1,7 L9,1 Z" /></marker></defs><defs><marker orient="auto" markerHeight="28" markerWidth="20" refY="7" refX="19" id="MD_PARENT_END"><path d="M 18,7 L9,13 L1,7 L9,1 Z" /></marker></defs><defs><marker orient="auto" markerHeight="18" markerWidth="18" refY="9" refX="0" id="ONLY_ONE_START"><path d="M9,0 L9,18 M15,0 L15,18" fill="none" stroke="gray" /></marker></defs><defs><marker orient="auto" markerHeight="18" markerWidth="18" refY="9" refX="18" id="ONLY_ONE_END"><path d="M3,0 L3,18 M9,0 L9,18" fill="none" stroke="gray" /></marker></defs><defs><marker orient="auto" markerHeight="18" markerWidth="30" refY="9" refX="0" id="ZERO_OR_ONE_START"><circle r="6" cy="9" cx="21" fill="white" stroke="gray" /><path d="M9,0 L9,18" fill="none" stroke="gray" /></marker></defs><defs><marker orient="auto" markerHeight="18" markerWidth="30" refY="9" refX="30" id="ZERO_OR_ONE_END"><circle r="6" cy="9" cx="9" fill="white" stroke="gray" /><path d="M21,0 L21,18" fill="none" stroke="gray" /></marker></defs><defs><marker orient="auto" markerHeight="36" markerWidth="45" refY="18" refX="18" id="ONE_OR_MORE_START"><path d="M0,18 Q 18,0 36,18 Q 18,36 0,18 M42,9 L42,27" fill="none" stroke="gray" /></marker></defs><defs><marker orient="auto" markerHeight="36" markerWidth="45" refY="18" refX="27" id="ONE_OR_MORE_END"><path d="M3,9 L3,27 M9,18 Q27,0 45,18 Q27,36 9,18" fill="none" stroke="gray" /></marker></defs><defs><marker orient="auto" markerHeight="36" markerWidth="57" refY="18" refX="18" id="ZERO_OR_MORE_START"><circle r="6" cy="18" cx="48" fill="white" stroke="gray" /><path d="M0,18 Q18,0 36,18 Q18,36 0,18" fill="none" stroke="gray" /></marker></defs><defs><marker orient="auto" markerHeight="36" markerWidth="57" refY="18" refX="39" id="ZERO_OR_MORE_END"><circle r="6" cy="18" cx="9" fill="white" stroke="gray" /><path d="M21,18 Q39,0 57,18 Q39,36 21,18" fill="none" stroke="gray" /></marker></defs><path style="stroke: gray; fill: none;" marker-start="url(#ONLY_ONE_START)" marker-end="url(#ZERO_OR_ONE_END)" d="M408.842,445L410.46,453.333C412.077,461.667,415.313,478.333,416.931,495C418.548,511.667,418.548,528.333,418.548,536.667L418.548,545" class="er relationshipLine" /><path style="stroke: gray; fill: none;" marker-start="url(#ONLY_ONE_START)" marker-end="url(#ZERO_OR_ONE_END)" d="M454.232,423.198L494.384,435.165C534.536,447.132,614.839,471.066,647.696,491.366C680.553,511.667,665.963,528.333,658.669,536.667L651.374,545" class="er relationshipLine" /><path style="stroke: gray; fill: none;" marker-start="url(#ONLY_ONE_START)" marker-end="url(#ZERO_OR_ONE_END)" d="M454.232,435.099L473.285,445.082C492.338,455.066,530.443,475.033,554.258,493.35C578.072,511.667,587.596,528.333,592.358,536.667L597.12,545" class="er relationshipLine" /><path style="stroke: gray; fill: none;" marker-start="url(#ONLY_ONE_START)" marker-end="url(#ZERO_OR_ONE_END)" d="M799.051,445L807.307,453.333C815.563,461.667,832.075,478.333,840.331,495C848.587,511.667,848.587,528.333,848.587,536.667L848.587,545" class="er relationshipLine" /><path style="stroke: gray; fill: none;" marker-start="url(#ONLY_ONE_START)" marker-end="url(#ZERO_OR_ONE_END)" d="M811.898,391.875L823.565,388.229C835.231,384.583,858.565,377.292,873.148,373.646C887.731,370,893.565,370,899.398,376.25C905.231,382.5,911.065,395,911.065,407.5C911.065,420,905.231,432.5,899.398,438.75C893.565,445,887.731,445,873.148,441.354C858.565,437.708,835.231,430.417,823.565,426.771L811.898,423.125" class="er relationshipLine" /><path style="stroke: gray; fill: none;" marker-start="url(#ONLY_ONE_START)" marker-end="url(#ZERO_OR_ONE_END)" d="M811.898,422.402L852.495,434.502C893.091,446.601,974.285,470.801,1014.881,491.234C1055.478,511.667,1055.478,528.333,1055.478,536.667L1055.478,545" class="er relationshipLine" /><path style="stroke: gray; fill: none;" marker-start="url(#ONLY_ONE_START)" marker-end="url(#ZERO_OR_MORE_END)" d="M711.898,413.823L604.915,427.353C497.932,440.882,283.966,467.941,176.983,489.804C70,511.667,70,528.333,70,536.667L70,545" class="er relationshipLine" /><path style="stroke: gray; fill: none;" marker-start="url(#ONLY_ONE_START)" marker-end="url(#ZERO_OR_ONE_END)" d="M1342.508,61.915L1185.684,75.762C1028.859,89.61,715.211,117.305,558.386,145.736C401.562,174.167,401.562,203.333,401.562,232.5C401.562,261.667,401.562,290.833,401.562,313.75C401.562,336.667,401.562,353.333,401.562,361.667L401.562,370" class="er relationshipLine" /><path style="stroke: gray; fill: none;" marker-start="url(#ONLY_ONE_START)" marker-end="url(#ZERO_OR_ONE_END)" d="M1342.508,64.438L1245.74,77.865C1148.971,91.292,955.435,118.146,858.666,146.156C761.898,174.167,761.898,203.333,761.898,232.5C761.898,261.667,761.898,290.833,761.898,313.75C761.898,336.667,761.898,353.333,761.898,361.667L761.898,370" class="er relationshipLine" /><path style="stroke: gray; fill: none;" marker-start="url(#ONLY_ONE_START)" marker-end="url(#ZERO_OR_ONE_END)" d="M1442.508,59.88L1740.587,74.066C2038.667,88.253,2634.826,116.627,2932.905,145.397C3230.985,174.167,3230.985,203.333,3230.985,232.5C3230.985,261.667,3230.985,290.833,3063.056,319.311C2895.127,347.788,2559.27,375.575,2391.341,389.469L2223.412,403.363" class="er relationshipLine" /><path style="stroke: gray; fill: none;" marker-start="url(#ONLY_ONE_START)" marker-end="url(#ZERO_OR_MORE_END)" d="M1442.508,59.555L1788.921,73.796C2135.333,88.037,2828.159,116.518,3174.572,145.343C3520.985,174.167,3520.985,203.333,3520.985,232.5C3520.985,261.667,3520.985,290.833,3520.985,320C3520.985,349.167,3520.985,378.333,3520.985,407.5C3520.985,436.667,3520.985,465.833,3427.339,493.793C3333.692,521.753,3146.4,548.506,3052.754,561.882L2959.108,575.259" class="er relationshipLine" /><path style="stroke: gray; fill: none;" marker-start="url(#ONLY_ONE_START)" marker-end="url(#ZERO_OR_MORE_END)" d="M1342.508,62.722L1211.215,76.435C1079.922,90.148,817.336,117.574,686.043,139.62C554.75,161.667,554.75,178.333,554.75,186.667L554.75,195" class="er relationshipLine" /><path style="stroke: gray; fill: none;" marker-start="url(#ONLY_ONE_START)" marker-end="url(#ZERO_OR_ONE_END)" d="M2904.127,620L2903.174,628.333C2902.222,636.667,2900.317,653.333,2847.541,672.78C2794.765,692.226,2691.118,714.452,2639.295,725.565L2587.472,736.679" class="er relationshipLine" /><path style="stroke: gray; fill: none;" marker-start="url(#ONLY_ONE_START)" marker-end="url(#ZERO_OR_ONE_END)" d="M2857.717,595.157L2807.754,607.631C2757.79,620.104,2657.864,645.052,2601.466,665.859C2545.068,686.667,2532.199,703.333,2525.765,711.667L2519.33,720" class="er relationshipLine" /><path style="stroke: gray; fill: none;" marker-start="url(#ONLY_ONE_START)" marker-end="url(#ZERO_OR_ONE_END)" d="M2959.108,605.905L2982.246,616.588C3005.384,627.27,3051.661,648.635,3074.799,667.651C3097.937,686.667,3097.937,703.333,3097.937,711.667L3097.937,720" class="er relationshipLine" /><path style="stroke: gray; fill: none;" marker-start="url(#ONLY_ONE_START)" marker-end="url(#ZERO_OR_MORE_END)" d="M2959.108,566.749L2970.774,563.124C2982.441,559.499,3005.774,552.25,3020.358,548.625C3034.941,545,3040.774,545,3046.608,551.25C3052.441,557.5,3058.274,570,3058.274,582.5C3058.274,595,3052.441,607.5,3046.608,613.75C3040.774,620,3034.941,620,3020.358,616.375C3005.774,612.75,2982.441,605.501,2970.774,601.876L2959.108,598.251" class="er relationshipLine" /><path style="stroke: gray; fill: none;" marker-start="url(#ONLY_ONE_START)" marker-end="url(#ZERO_OR_MORE_END)" d="M2857.717,592.347L2791.087,605.289C2724.457,618.231,2591.197,644.116,2527.656,665.391C2464.116,686.667,2470.294,703.333,2473.384,711.667L2476.473,720" class="er relationshipLine" /><path style="stroke: gray; fill: none;" marker-start="url(#ONLY_ONE_START)" marker-end="url(#ZERO_OR_MORE_END)" d="M2959.108,591.923L3029.116,604.936C3099.124,617.949,3239.14,643.974,3309.148,665.321C3379.157,686.667,3379.157,703.333,3379.157,711.667L3379.157,720" class="er relationshipLine" /><path style="stroke: gray; fill: none;" marker-start="url(#ONLY_ONE_START)" marker-end="url(#ZERO_OR_MORE_END)" d="M2959.108,562.57L2987.754,551.308C3016.4,540.047,3073.692,517.523,2951.076,492.44C2828.461,467.356,2525.936,439.713,2374.674,425.891L2223.412,412.069" class="er relationshipLine" /><path style="stroke: gray; fill: none;" marker-start="url(#ONLY_ONE_START)" marker-end="url(#ZERO_OR_MORE_END)" d="M2959.108,546.31L2971.087,537.759C2983.067,529.207,3007.026,512.103,2884.41,489.819C2761.794,467.534,2492.603,440.068,2358.008,426.335L2223.412,412.602" class="er relationshipLine" /><path style="stroke: gray; fill: none;" marker-start="url(#ONLY_ONE_START)" marker-end="url(#ZERO_OR_MORE_END)" d="M2879.253,545L2872.774,536.667C2866.294,528.333,2853.334,511.667,2744.028,489.843C2634.721,468.02,2429.067,441.04,2326.239,427.55L2223.412,414.06" class="er relationshipLine" /><path style="stroke: gray; fill: none;" marker-start="url(#ONLY_ONE_START)" marker-end="url(#ZERO_OR_MORE_END)" d="M2857.717,556.102L2838.16,545.918C2818.603,535.735,2779.489,515.367,2673.772,491.886C2568.054,468.406,2395.733,441.811,2309.573,428.514L2223.412,415.217" class="er relationshipLine" /><path style="stroke: gray; fill: none;" marker-start="url(#ONLY_ONE_START)" marker-end="url(#ZERO_OR_MORE_END)" d="M2857.717,565.951L2821.493,554.126C2785.27,542.3,2712.822,518.65,2607.105,493.803C2501.387,468.956,2362.4,442.913,2292.906,429.891L2223.412,416.869" class="er relationshipLine" /><path style="stroke: gray; fill: none;" marker-start="url(#ONLY_ONE_START)" marker-end="url(#ZERO_OR_MORE_END)" d="M2857.717,570.447L2804.827,557.873C2751.936,545.298,2646.156,520.149,2540.438,494.978C2434.721,469.807,2329.067,444.615,2276.239,432.018L2223.412,419.422" class="er relationshipLine" /><path style="stroke: gray; fill: none;" marker-start="url(#ONLY_ONE_START)" marker-end="url(#ZERO_OR_ONE_END)" d="M501.562,250.881L468.229,262.401C434.895,273.921,368.229,296.96,344.419,316.814C320.61,336.667,339.657,353.333,349.181,361.667L358.705,370" class="er relationshipLine" /><path style="stroke: gray; fill: none;" marker-start="url(#ONLY_ONE_START)" marker-end="url(#ZERO_OR_ONE_END)" d="M554.75,270L554.75,278.333C554.75,286.667,554.75,303.333,580.941,322.73C607.132,342.127,659.515,364.253,685.707,375.317L711.898,386.38" class="er relationshipLine" /><path style="stroke: gray; fill: none;" marker-start="url(#ONLY_ONE_START)" marker-end="url(#ZERO_OR_ONE_END)" d="M607.937,247.652L650.264,259.71C692.591,271.768,777.244,295.884,1029.824,321.969C1282.403,348.055,1702.908,376.109,1913.16,390.137L2123.412,404.164" class="er relationshipLine" /><path style="stroke: gray; fill: none;" marker-start="url(#ONLY_ONE_START)" marker-end="url(#ZERO_OR_MORE_END)" d="M70,620L70,628.333C70,636.667,70,653.333,70,670C70,686.667,70,703.333,70,711.667L70,720" class="er relationshipLine" /><path style="stroke: gray; fill: none;" marker-start="url(#ONLY_ONE_START)" marker-end="url(#ZERO_OR_ONE_END)" d="M2223.412,431.21L2245.833,441.841C2268.254,452.473,2313.095,473.737,2335.516,498.952C2357.937,524.167,2357.937,553.333,2357.937,582.5C2357.937,611.667,2357.937,640.833,2370.55,663.75C2383.163,686.667,2408.39,703.333,2421.003,711.667L2433.616,720" class="er relationshipLine" /><path style="stroke: gray; fill: none;" marker-start="url(#ONLY_ONE_START)" marker-end="url(#ZERO_OR_ONE_END)" d="M2209.637,445L2217.687,453.333C2225.737,461.667,2241.837,478.333,2249.887,501.25C2257.937,524.167,2257.937,553.333,2257.937,582.5C2257.937,611.667,2257.937,640.833,2280.494,663.908C2303.051,686.983,2348.165,703.966,2370.722,712.457L2393.278,720.949" class="er relationshipLine" /><path style="stroke: gray; fill: none;" marker-start="url(#ONLY_ONE_START)" marker-end="url(#ZERO_OR_ONE_END)" d="M2123.412,409.797L1814.268,423.997C1505.124,438.198,886.836,466.599,577.692,495.383C268.548,524.167,268.548,553.333,268.548,582.5C268.548,611.667,268.548,640.833,622.67,669.363C976.792,697.892,1685.035,725.784,2039.157,739.73L2393.278,753.676" class="er relationshipLine" /><path style="stroke: gray; fill: none;" marker-start="url(#ONLY_ONE_START)" marker-end="url(#ZERO_OR_MORE_END)" d="M2123.412,412.266L1978.757,426.055C1834.101,439.844,1544.789,467.422,1400.134,489.544C1255.478,511.667,1255.478,528.333,1255.478,536.667L1255.478,545" class="er relationshipLine" /><path style="stroke: gray; fill: none;" marker-start="url(#ONLY_ONE_START)" marker-end="url(#ZERO_OR_MORE_END)" d="M2223.412,411.637L2391.341,425.531C2559.27,439.425,2895.127,467.212,3017.743,493.398C3140.359,519.583,3049.733,544.166,3004.42,556.457L2959.108,568.749" class="er relationshipLine" /><path style="stroke: gray; fill: none;" marker-start="url(#ONLY_ONE_START)" marker-end="url(#ZERO_OR_MORE_END)" d="M2123.412,419.471L2070.833,432.059C2018.254,444.647,1913.095,469.824,1826.005,493.938C1738.915,518.053,1669.893,541.105,1635.382,552.632L1600.871,564.158" class="er relationshipLine" /><path style="stroke: gray; fill: none;" marker-start="url(#ONLY_ONE_START)" marker-end="url(#ZERO_OR_MORE_END)" d="M2123.412,416.899L2054.166,429.916C1984.921,442.933,1846.429,468.966,1759.339,491.622C1672.249,514.278,1636.56,533.556,1618.716,543.195L1600.871,552.834" class="er relationshipLine" /><path style="stroke: gray; fill: none;" marker-start="url(#ONLY_ONE_START)" marker-end="url(#ZERO_OR_MORE_END)" d="M2123.412,415.237L2037.5,428.531C1951.587,441.825,1779.762,468.412,1687.946,490.039C1596.131,511.667,1584.324,528.333,1578.421,536.667L1572.518,545" class="er relationshipLine" /><path style="stroke: gray; fill: none;" marker-start="url(#ONLY_ONE_START)" marker-end="url(#ZERO_OR_MORE_END)" d="M2123.412,414.074L2020.833,427.562C1918.254,441.049,1713.095,468.025,1614.137,489.846C1515.178,511.667,1522.419,528.333,1526.04,536.667L1529.661,545" class="er relationshipLine" /><path style="stroke: gray; fill: none;" marker-start="url(#ONLY_ONE_START)" marker-end="url(#ZERO_OR_MORE_END)" d="M2123.412,413.215L2004.166,426.846C1884.921,440.477,1646.429,467.738,1541.033,490.15C1435.636,512.561,1463.336,530.122,1477.185,538.902L1491.035,547.683" class="er relationshipLine" /><path style="stroke: gray; fill: none;" marker-start="url(#ONLY_ONE_START)" marker-end="url(#ZERO_OR_MORE_END)" d="M2123.412,423.98L2087.5,435.817C2051.587,447.653,1979.762,471.327,1943.85,491.497C1907.937,511.667,1907.937,528.333,1907.937,536.667L1907.937,545" class="er relationshipLine" /><path style="stroke: gray; fill: none;" marker-start="url(#ONLY_ONE_START)" marker-end="url(#ZERO_OR_MORE_END)" d="M2223.412,404.815L2331.476,399.013C2439.539,393.21,2655.667,381.605,2790.746,375.803C2925.826,370,2979.858,370,3033.889,376.25C3087.921,382.5,3141.953,395,3141.953,407.5C3141.953,420,3087.921,432.5,3033.889,438.75C2979.858,445,2925.826,445,2790.746,439.197C2655.667,433.395,2439.539,421.79,2331.476,415.987L2223.412,410.185" class="er relationshipLine" /><path style="stroke: gray; fill: none;" marker-start="url(#ONLY_ONE_START)" marker-end="url(#ZERO_OR_MORE_END)" d="M2223.412,405.07L2343.698,399.225C2463.984,393.38,2704.556,381.69,2854.913,375.845C3005.27,370,3065.413,370,3125.556,376.25C3185.699,382.5,3245.842,395,3245.842,407.5C3245.842,420,3185.699,432.5,3125.556,438.75C3065.413,445,3005.27,445,2854.913,439.155C2704.556,433.31,2463.984,421.62,2343.698,415.775L2223.412,409.93" class="er relationshipLine" /><path style="stroke: gray; fill: none;" marker-start="url(#ONLY_ONE_START)" marker-end="url(#ZERO_OR_MORE_END)" d="M2223.412,405.281L2355.92,399.401C2488.428,393.521,2753.444,381.76,2919.08,375.88C3084.715,370,3150.969,370,3217.223,376.25C3283.477,382.5,3349.731,395,3349.731,407.5C3349.731,420,3283.477,432.5,3217.223,438.75C3150.969,445,3084.715,445,2919.08,439.12C2753.444,433.24,2488.428,421.479,2355.92,415.599L2223.412,409.719" class="er relationshipLine" /><path style="stroke: gray; fill: none;" marker-start="url(#ONLY_ONE_START)" marker-end="url(#ZERO_OR_MORE_END)" d="M2145.351,445L2139.116,453.333C2132.88,461.667,2120.409,478.333,2114.173,495C2107.937,511.667,2107.937,528.333,2107.937,536.667L2107.937,545" class="er relationshipLine" /><g transform="translate(348.8918571472168,370 )" id="entity-DataEncoding-e949680e-a6e4-55c9-9325-aa69226f3e53"><rect height="75" width="105.34048461914062" y="0" x="0" class="er entityBox" /><a ns1:href="#dataencoding"><text style="dominant-baseline: middle; text-anchor: middle; font-size: 12px;" transform="translate(52.67024230957031,37.5)" y="0" x="0" id="text-entity-DataEncoding-e949680e-a6e4-55c9-9325-aa69226f3e53" class="er entityLabel">DataEncoding</text></a></g><g transform="translate(711.8980369567871,370 )" id="entity-Datatype-eedb5402-d0cc-52bf-9fb8-7b914f648cbe"><rect height="75" width="100" y="0" x="0" class="er entityBox" /><a ns1:href="#datatype"><text style="dominant-baseline: middle; text-anchor: middle; font-size: 12px;" transform="translate(50,37.5)" y="0" x="0" id="text-entity-Datatype-eedb5402-d0cc-52bf-9fb8-7b914f648cbe" class="er entityLabel">Datatype</text></a></g><g transform="translate(1342.5078125,20 )" id="entity-Quantity-46f11547-7eaf-5ee9-bc9f-a9eb227f8785"><rect height="75" width="100" y="0" x="0" class="er entityBox" /><a ns1:href="#quantity"><text style="dominant-baseline: middle; text-anchor: middle; font-size: 12px;" transform="translate(50,37.5)" y="0" x="0" id="text-entity-Quantity-46f11547-7eaf-5ee9-bc9f-a9eb227f8785" class="er entityLabel">Quantity</text></a></g><g transform="translate(2857.716941833496,545 )" id="entity-QuantityKind-6f79b338-e354-5d95-8035-8883644476ff"><rect height="75" width="101.390625" y="0" x="0" class="er entityBox" /><a ns1:href="#quantitykind"><text style="dominant-baseline: middle; text-anchor: middle; font-size: 12px;" transform="translate(50.6953125,37.5)" y="0" x="0" id="text-entity-QuantityKind-6f79b338-e354-5d95-8035-8883644476ff" class="er entityLabel">QuantityKind</text></a></g><g transform="translate(501.5620994567871,195 )" id="entity-QuantityValue-f2bc13d2-1961-5e2a-9bfe-ab6a05a5860b"><rect height="75" width="106.375" y="0" x="0" class="er entityBox" /><a ns1:href="#quantityvalue"><text style="dominant-baseline: middle; text-anchor: middle; font-size: 12px;" transform="translate(53.1875,37.5)" y="0" x="0" id="text-entity-QuantityValue-f2bc13d2-1961-5e2a-9bfe-ab6a05a5860b" class="er entityLabel">QuantityValue</text></a></g><g transform="translate(20,545 )" id="entity-Rule-886caf8e-59ff-5db3-a492-27242971196f"><rect height="75" width="100" y="0" x="0" class="er entityBox" /><a ns1:href="#rule"><text style="dominant-baseline: middle; text-anchor: middle; font-size: 12px;" transform="translate(50,37.5)" y="0" x="0" id="text-entity-Rule-886caf8e-59ff-5db3-a492-27242971196f" class="er entityLabel">Rule</text></a></g><g transform="translate(2123.412254333496,370 )" id="entity-Unit-c57ac1ea-0a24-509a-a80e-23f8c03ca739"><rect height="75" width="100" y="0" x="0" class="er entityBox" /><a ns1:href="#unit"><text style="dominant-baseline: middle; text-anchor: middle; font-size: 12px;" transform="translate(50,37.5)" y="0" x="0" id="text-entity-Unit-c57ac1ea-0a24-509a-a80e-23f8c03ca739" class="er entityLabel">Unit</text></a></g><g transform="translate(368.5482711791992,545 )" id="entity-Encoding-1bd3f2aa-2a9a-589f-8d8d-495ffc6a00da"><rect height="75" width="100" y="0" x="0" class="er entityBox" /><a ns1:href="#encoding"><text style="dominant-baseline: middle; text-anchor: middle; font-size: 12px;" transform="translate(50,37.5)" y="0" x="0" id="text-entity-Encoding-1bd3f2aa-2a9a-589f-8d8d-495ffc6a00da" class="er entityLabel">Encoding</text></a></g><g transform="translate(568.5482711791992,545 )" id="entity-EndianType-d95ef20a-f1b7-5562-baf4-d38ffa1e0153"><rect height="75" width="100" y="0" x="0" class="er entityBox" /><a ns1:href="#endiantype"><text style="dominant-baseline: middle; text-anchor: middle; font-size: 12px;" transform="translate(50,37.5)" y="0" x="0" id="text-entity-EndianType-d95ef20a-f1b7-5562-baf4-d38ffa1e0153" class="er entityLabel">EndianType</text></a></g><g transform="translate(791.6967086791992,545 )" id="entity-CardinalityType-796d1111-9b0e-5cfa-a954-3577abec4acc"><rect height="75" width="113.78125" y="0" x="0" class="er entityBox" /><a ns1:href="#cardinalitytype"><text style="dominant-baseline: middle; text-anchor: middle; font-size: 12px;" transform="translate(56.890625,37.5)" y="0" x="0" id="text-entity-CardinalityType-796d1111-9b0e-5cfa-a954-3577abec4acc" class="er entityLabel">CardinalityType</text></a></g><g transform="translate(1005.4779586791992,545 )" id="entity-OrderedType-842b5e5e-013e-581b-9bf8-11371587b713"><rect height="75" width="100" y="0" x="0" class="er entityBox" /><a ns1:href="#orderedtype"><text style="dominant-baseline: middle; text-anchor: middle; font-size: 12px;" transform="translate(50,37.5)" y="0" x="0" id="text-entity-OrderedType-842b5e5e-013e-581b-9bf8-11371587b713" class="er entityLabel">OrderedType</text></a></g><g transform="translate(2393.2784576416016,720 )" id="entity-QuantityKindDimensionVector-bfa1bf26-fcae-516f-8f63-2f454f3dac1b"><rect height="75" width="194.19308471679688" y="0" x="0" class="er entityBox" /><a ns1:href="#quantitykinddimensionvector"><text style="dominant-baseline: middle; text-anchor: middle; font-size: 12px;" transform="translate(97.09654235839844,37.5)" y="0" x="0" id="text-entity-QuantityKindDimensionVector-bfa1bf26-fcae-516f-8f63-2f454f3dac1b" class="er entityLabel">QuantityKindDimensionVector</text></a></g><g transform="translate(2995.9839630126953,720 )" id="entity-QuantityKindDimensionVectorSI-2681a9c0-d385-5c75-b278-85a805bca5b5"><rect height="75" width="203.90625" y="0" x="0" class="er entityBox" /><text style="dominant-baseline: middle; text-anchor: middle; font-size: 12px;" transform="translate(101.953125,37.5)" y="0" x="0" id="text-entity-QuantityKindDimensionVectorSI-2681a9c0-d385-5c75-b278-85a805bca5b5" class="er entityLabel">QuantityKindDimensionVectorSI</text></g><g transform="translate(3299.8902130126953,720 )" id="entity-SystemOfQuantityKinds-09c2a533-d4ff-5ffb-9642-53498359216a"><rect height="75" width="158.53285217285156" y="0" x="0" class="er entityBox" /><a ns1:href="#systemofquantitykinds"><text style="dominant-baseline: middle; text-anchor: middle; font-size: 12px;" transform="translate(79.26642608642578,37.5)" y="0" x="0" id="text-entity-SystemOfQuantityKinds-09c2a533-d4ff-5ffb-9642-53498359216a" class="er entityLabel">SystemOfQuantityKinds</text></a></g><g transform="translate(20,720 )" id="entity-RuleType-d54df1a6-a17d-5920-9344-6f805c739e55"><rect height="75" width="100" y="0" x="0" class="er entityBox" /><a ns1:href="#ruletype"><text style="dominant-baseline: middle; text-anchor: middle; font-size: 12px;" transform="translate(50,37.5)" y="0" x="0" id="text-entity-RuleType-d54df1a6-a17d-5920-9344-6f805c739e55" class="er entityLabel">RuleType</text></a></g><g transform="translate(1205.4779586791992,545 )" id="entity-Prefix-f6d97b99-faee-5974-b12e-390868d79e86"><rect height="75" width="100" y="0" x="0" class="er entityBox" /><a ns1:href="#prefix"><text style="dominant-baseline: middle; text-anchor: middle; font-size: 12px;" transform="translate(50,37.5)" y="0" x="0" id="text-entity-Prefix-f6d97b99-faee-5974-b12e-390868d79e86" class="er entityLabel">Prefix</text></a></g><g transform="translate(1491.0348663330078,545 )" id="entity-SystemOfUnits-f7f1da8e-a5af-50e1-94d0-c2e741f40e1d"><rect height="75" width="109.83651733398438" y="0" x="0" class="er entityBox" /><a ns1:href="#systemofunits"><text style="dominant-baseline: middle; text-anchor: middle; font-size: 12px;" transform="translate(54.91825866699219,37.5)" y="0" x="0" id="text-entity-SystemOfUnits-f7f1da8e-a5af-50e1-94d0-c2e741f40e1d" class="er entityLabel">SystemOfUnits</text></a></g><g transform="translate(1857.9370880126953,545 )" id="entity-UCUMcs-8df33f70-0c53-5f8e-a81f-0969bc803a34"><rect height="75" width="100" y="0" x="0" class="er entityBox" /><a ns1:href="#ucumcs"><text style="dominant-baseline: middle; text-anchor: middle; font-size: 12px;" transform="translate(50,37.5)" y="0" x="0" id="text-entity-UCUMcs-8df33f70-0c53-5f8e-a81f-0969bc803a34" class="er entityLabel">UCUMcs</text></a></g><g transform="translate(2057.9370880126953,545 )" id="entity-Class-d9e3eb4a-97c0-50b6-8e3f-7f4a2fa7283d"><rect height="75" width="100" y="0" x="0" class="er entityBox" /><a ns1:href="#class"><text style="dominant-baseline: middle; text-anchor: middle; font-size: 12px;" transform="translate(50,37.5)" y="0" x="0" id="text-entity-Class-d9e3eb4a-97c0-50b6-8e3f-7f4a2fa7283d" class="er entityLabel">__Class</text></a></g><rect height="14" width="50.66827392578125" y="487.68988037109375" x="391.5663146972656" class="er relationshipLabelBox" /><text style="text-anchor: middle; dominant-baseline: middle; font-size: 12px;" y="494.68988037109375" x="416.90045166015625" id="rel1" class="er relationshipLabel">encoding</text><rect height="14" width="46.13629150390625" y="456.9233703613281" x="561.5415344238281" class="er relationshipLabelBox" /><text style="text-anchor: middle; dominant-baseline: middle; font-size: 12px;" y="463.9233703613281" x="584.6096801757812" id="rel2" class="er relationshipLabel">bitOrder</text><rect height="14" width="54.9683837890625" y="472.6324157714844" x="506.98480224609375" class="er relationshipLabelBox" /><text style="text-anchor: middle; dominant-baseline: middle; font-size: 12px;" y="479.6324157714844" x="534.468994140625" id="rel3" class="er relationshipLabel">byteOrder</text><rect height="14" width="57.58837890625" y="481.91925048828125" x="808.1787109375" class="er relationshipLabelBox" /><text style="text-anchor: middle; dominant-baseline: middle; font-size: 12px;" y="488.91925048828125" x="836.972900390625" id="rel4" class="er relationshipLabel">cardinality</text><rect height="14" width="28.4041748046875" y="400.5" x="896.8629150390625" class="er relationshipLabelBox" /><text style="text-anchor: middle; dominant-baseline: middle; font-size: 12px;" y="407.5" x="911.0650024414062" id="rel5" class="er relationshipLabel">basis</text><rect height="14" width="68.28125" y="457.9594421386719" x="914.9555053710938" class="er relationshipLabelBox" /><text style="text-anchor: middle; dominant-baseline: middle; font-size: 12px;" y="464.9594421386719" x="949.0961303710938" id="rel6" class="er relationshipLabel">orderedType</text><rect height="14" width="43.296875" y="450.0932922363281" x="357.59930419921875" class="er relationshipLabelBox" /><text style="text-anchor: middle; dominant-baseline: middle; font-size: 12px;" y="457.0932922363281" x="379.24774169921875" id="rel7" class="er relationshipLabel">hasRule</text><rect height="14" width="74.908447265625" y="107.76412200927734" x="746.882080078125" class="er relationshipLabelBox" /><text style="text-anchor: middle; dominant-baseline: middle; font-size: 12px;" y="114.76412200927734" x="784.3363037109375" id="rel8" class="er relationshipLabel">dataEncoding</text><rect height="14" width="48.328125" y="115.58447265625" x="937.326904296875" class="er relationshipLabelBox" /><text style="text-anchor: middle; dominant-baseline: middle; font-size: 12px;" y="122.58447265625" x="961.490966796875" id="rel9" class="er relationshipLabel">datatype</text><rect height="14" width="42.404296875" y="133.13076782226562" x="2853.8427734375" class="er relationshipLabelBox" /><text style="text-anchor: middle; dominant-baseline: middle; font-size: 12px;" y="140.13076782226562" x="2875.044921875" id="rel10" class="er relationshipLabel">hasUnit</text><rect height="14" width="90.4375" y="118.76695251464844" x="2845.126953125" class="er relationshipLabelBox" /><text style="text-anchor: middle; dominant-baseline: middle; font-size: 12px;" y="125.76695251464844" x="2890.345703125" id="rel11" class="er relationshipLabel">hasQuantityKind</text><rect height="14" width="75.265625" y="99.1679916381836" x="900.0599365234375" class="er relationshipLabelBox" /><text style="text-anchor: middle; dominant-baseline: middle; font-size: 12px;" y="106.1679916381836" x="937.6927490234375" id="rel12" class="er relationshipLabel">quantityValue</text><rect height="14" width="97.98876953125" y="691.4356079101562" x="2709.86962890625" class="er relationshipLabelBox" /><text style="text-anchor: middle; dominant-baseline: middle; font-size: 12px;" y="698.4356079101562" x="2758.864013671875" id="rel13" class="er relationshipLabel">qkdvDenominator</text><rect height="14" width="85.196533203125" y="633.9723510742188" x="2637.9012451171875" class="er relationshipLabelBox" /><text style="text-anchor: middle; dominant-baseline: middle; font-size: 12px;" y="640.9723510742188" x="2680.49951171875" id="rel14" class="er relationshipLabel">qkdvNumerator</text><rect height="14" width="119.078125" y="640.9851684570312" x="2985.509521484375" class="er relationshipLabelBox" /><text style="text-anchor: middle; dominant-baseline: middle; font-size: 12px;" y="647.9851684570312" x="3045.048583984375" id="rel15" class="er relationshipLabel">dimensionVectorForSI</text><rect height="14" width="61.453125" y="575.5" x="3027.54736328125" class="er relationshipLabelBox" /><text style="text-anchor: middle; dominant-baseline: middle; font-size: 12px;" y="582.5" x="3058.27392578125" id="rel16" class="er relationshipLabel">exactMatch</text><rect height="14" width="111.8486328125" y="627.2933349609375" x="2592.76904296875" class="er relationshipLabelBox" /><text style="text-anchor: middle; dominant-baseline: middle; font-size: 12px;" y="634.2933349609375" x="2648.693359375" id="rel17" class="er relationshipLabel">hasDimensionVector</text><rect height="14" width="163.42919921875" y="627.7825927734375" x="3100.798583984375" class="er relationshipLabelBox" /><text style="text-anchor: middle; dominant-baseline: middle; font-size: 12px;" y="634.7825927734375" x="3182.51318359375" id="rel18" class="er relationshipLabel">belongsToSystemOfQuantities</text><rect height="14" width="100.904541015625" y="447.53997802734375" x="2619.3765869140625" class="er relationshipLabelBox" /><text style="text-anchor: middle; dominant-baseline: middle; font-size: 12px;" y="454.53997802734375" x="2669.828857421875" id="rel19" class="er relationshipLabel">applicableCGSUnit</text><rect height="14" width="98.696533203125" y="447.5498046875" x="2573.5333251953125" class="er relationshipLabelBox" /><text style="text-anchor: middle; dominant-baseline: middle; font-size: 12px;" y="454.5498046875" x="2622.881591796875" id="rel20" class="er relationshipLabel">applicableISOUnit</text><rect height="14" width="125.744873046875" y="452.2663269042969" x="2495.3748779296875" class="er relationshipLabelBox" /><text style="text-anchor: middle; dominant-baseline: middle; font-size: 12px;" y="459.2663269042969" x="2558.247314453125" id="rel21" class="er relationshipLabel">applicableImperialUnit</text><rect height="14" width="90.392578125" y="459.915771484375" x="2500.340576171875" class="er relationshipLabelBox" /><text style="text-anchor: middle; dominant-baseline: middle; font-size: 12px;" y="466.915771484375" x="2545.536865234375" id="rel22" class="er relationshipLabel">applicableSIUnit</text><rect height="14" width="152.324951171875" y="472.5035705566406" x="2467.2945556640625" class="er relationshipLabelBox" /><text style="text-anchor: middle; dominant-baseline: middle; font-size: 12px;" y="479.5035705566406" x="2543.45703125" id="rel23" class="er relationshipLabel">applicableUSCustomaryUnit</text><rect height="14" width="80.3125" y="488.004150390625" x="2500.391845703125" class="er relationshipLabelBox" /><text style="text-anchor: middle; dominant-baseline: middle; font-size: 12px;" y="495.004150390625" x="2540.548095703125" id="rel24" class="er relationshipLabel">applicableUnit</text><rect height="14" width="74.90847778320312" y="284.9041748046875" x="352.37461853027344" class="er relationshipLabelBox" /><text style="text-anchor: middle; dominant-baseline: middle; font-size: 12px;" y="291.9041748046875" x="389.828857421875" id="rel25" class="er relationshipLabel">dataEncoding</text><rect height="14" width="48.328125" y="337.0672302246094" x="592.7457885742188" class="er relationshipLabelBox" /><text style="text-anchor: middle; dominant-baseline: middle; font-size: 12px;" y="344.0672302246094" x="616.9098510742188" id="rel26" class="er relationshipLabel">datatype</text><rect height="14" width="42.404296875" y="344.1039733886719" x="1341.14111328125" class="er relationshipLabelBox" /><text style="text-anchor: middle; dominant-baseline: middle; font-size: 12px;" y="351.1039733886719" x="1362.34326171875" id="rel27" class="er relationshipLabel">hasUnit</text><rect height="14" width="46.921875" y="663" x="46.5390625" class="er relationshipLabelBox" /><text style="text-anchor: middle; dominant-baseline: middle; font-size: 12px;" y="670" x="70" id="rel28" class="er relationshipLabel">ruleType</text><rect height="14" width="111.8486328125" y="549.4796752929688" x="2301.41552734375" class="er relationshipLabelBox" /><text style="text-anchor: middle; dominant-baseline: middle; font-size: 12px;" y="556.4796752929688" x="2357.33984375" id="rel29" class="er relationshipLabel">hasDimensionVector</text><rect height="14" width="97.98876953125" y="606.6896362304688" x="2209.992431640625" class="er relationshipLabelBox" /><text style="text-anchor: middle; dominant-baseline: middle; font-size: 12px;" y="613.6896362304688" x="2258.98681640625" id="rel30" class="er relationshipLabel">qkdvDenominator</text><rect height="14" width="85.19659423828125" y="634.2508544921875" x="334.21649169921875" class="er relationshipLabelBox" /><text style="text-anchor: middle; dominant-baseline: middle; font-size: 12px;" y="641.2508544921875" x="376.8147888183594" id="rel31" class="er relationshipLabel">qkdvNumerator</text><rect height="14" width="30.8402099609375" y="448.79241943359375" x="1663.4337768554688" class="er relationshipLabelBox" /><text style="text-anchor: middle; dominant-baseline: middle; font-size: 12px;" y="455.79241943359375" x="1678.8538818359375" id="rel32" class="er relationshipLabel">prefix</text><rect height="14" width="90.4375" y="447.9334716796875" x="2677.096435546875" class="er relationshipLabelBox" /><text style="text-anchor: middle; dominant-baseline: middle; font-size: 12px;" y="454.9334716796875" x="2722.315185546875" id="rel33" class="er relationshipLabel">hasQuantityKind</text><rect height="14" width="95.78125" y="477.6683654785156" x="1812.248046875" class="er relationshipLabelBox" /><text style="text-anchor: middle; dominant-baseline: middle; font-size: 12px;" y="484.6683654785156" x="1860.138671875" id="rel34" class="er relationshipLabel">applicableSystem</text><rect height="14" width="115.203125" y="461.82373046875" x="1799.751220703125" class="er relationshipLabelBox" /><text style="text-anchor: middle; dominant-baseline: middle; font-size: 12px;" y="468.82373046875" x="1857.352783203125" id="rel35" class="er relationshipLabel">definedUnitOfSystem</text><rect height="14" width="164.390625" y="453.3524169921875" x="1758.201416015625" class="er relationshipLabelBox" /><text style="text-anchor: middle; dominant-baseline: middle; font-size: 12px;" y="460.3524169921875" x="1840.396728515625" id="rel36" class="er relationshipLabel">derivedCoherentUnitOfSystem</text><rect height="14" width="115.15625" y="449.51898193359375" x="1752.144775390625" class="er relationshipLabelBox" /><text style="text-anchor: middle; dominant-baseline: middle; font-size: 12px;" y="456.51898193359375" x="1809.722900390625" id="rel37" class="er relationshipLabel">derivedUnitOfSystem</text><rect height="14" width="82.828125" y="447.9596252441406" x="1727.9075927734375" class="er relationshipLabelBox" /><text style="text-anchor: middle; dominant-baseline: middle; font-size: 12px;" y="454.9596252441406" x="1769.3216552734375" id="rel38" class="er relationshipLabel">isUnitOfSystem</text><rect height="14" width="57.078125" y="459.4710388183594" x="1971.3648681640625" class="er relationshipLabelBox" /><text style="text-anchor: middle; dominant-baseline: middle; font-size: 12px;" y="466.4710388183594" x="1999.9039306640625" id="rel39" class="er relationshipLabel">ucumCode</text><rect height="14" width="61.453125" y="400.5" x="3111.226318359375" class="er relationshipLabelBox" /><text style="text-anchor: middle; dominant-baseline: middle; font-size: 12px;" y="407.5" x="3141.952880859375" id="rel40" class="er relationshipLabel">exactMatch</text><rect height="14" width="99.0927734375" y="400.5" x="3196.295654296875" class="er relationshipLabelBox" /><text style="text-anchor: middle; dominant-baseline: middle; font-size: 12px;" y="407.5" x="3245.842041015625" id="rel41" class="er relationshipLabel">hasReciprocalUnit</text><rect height="14" width="51.104248046875" y="400.5" x="3324.1788330078125" class="er relationshipLabelBox" /><text style="text-anchor: middle; dominant-baseline: middle; font-size: 12px;" y="407.5" x="3349.73095703125" id="rel42" class="er relationshipLabel">scalingOf</text><rect height="14" width="75.632568359375" y="484.0916748046875" x="2077.9295654296875" class="er relationshipLabelBox" /><text style="text-anchor: middle; dominant-baseline: middle; font-size: 12px;" y="491.0916748046875" x="2115.745849609375" id="rel43" class="er relationshipLabel">hasFactorUnit</text></svg>