<svg xmlns="http://www.w3.org/2000/svg" xmlns:ns1="http://www.w3.org/1999/xlink" aria-roledescription="er" role="graphics-document document" viewBox="0 0 3216.208984375 990" height="990" width="3216.208984375" id="container"><style>#container{font-family:"trebuchet ms",verdana,arial,sans-serif;font-size:16px;fill:#333;}#container .error-icon{fill:#552222;}#container .error-text{fill:#552222;stroke:#552222;}#container .edge-thickness-normal{stroke-width:1px;}#container .edge-thickness-thick{stroke-width:3.5px;}#container .edge-pattern-solid{stroke-dasharray:0;}#container .edge-thickness-invisible{stroke-width:0;fill:none;}#container .edge-pattern-dashed{stroke-dasharray:3;}#container .edge-pattern-dotted{stroke-dasharray:2;}#container .marker{fill:#333333;stroke:#333333;}#container .marker.cross{stroke:#333333;}#container svg{font-family:"trebuchet ms",verdana,arial,sans-serif;font-size:16px;}#container p{margin:0;}#container .entityBox{fill:#ECECFF;stroke:#9370DB;}#container .attributeBoxOdd{fill:#ffffff;stroke:#9370DB;}#container .attributeBoxEven{fill:#f2f2f2;stroke:#9370DB;}#container .relationshipLabelBox{fill:hsl(80, 100%, 96.2745098039%);opacity:0.7;background-color:hsl(80, 100%, 96.2745098039%);}#container .relationshipLabelBox rect{opacity:0.5;}#container .relationshipLine{stroke:#333333;}#container .entityTitleText{text-anchor:middle;font-size:18px;fill:#333;}#container #MD_PARENT_START{fill:#f5f5f5!important;stroke:#333333!important;stroke-width:1;}#container #MD_PARENT_END{fill:#f5f5f5!important;stroke:#333333!important;stroke-width:1;}#container :root{--mermaid-font-family:"trebuchet ms",verdana,arial,sans-serif;}</style><g /><defs><marker orient="auto" markerHeight="240" markerWidth="190" refY="7" refX="0" id="MD_PARENT_START"><path d="M 18,7 L9,13 L1,7 L9,1 Z" /></marker></defs><defs><marker orient="auto" markerHeight="28" markerWidth="20" refY="7" refX="19" id="MD_PARENT_END"><path d="M 18,7 L9,13 L1,7 L9,1 Z" /></marker></defs><defs><marker orient="auto" markerHeight="18" markerWidth="18" refY="9" refX="0" id="ONLY_ONE_START"><path d="M9,0 L9,18 M15,0 L15,18" fill="none" stroke="gray" /></marker></defs><defs><marker orient="auto" markerHeight="18" markerWidth="18" refY="9" refX="18" id="ONLY_ONE_END"><path d="M3,0 L3,18 M9,0 L9,18" fill="none" stroke="gray" /></marker></defs><defs><marker orient="auto" markerHeight="18" markerWidth="30" refY="9" refX="0" id="ZERO_OR_ONE_START"><circle r="6" cy="9" cx="21" fill="white" stroke="gray" /><path d="M9,0 L9,18" fill="none" stroke="gray" /></marker></defs><defs><marker orient="auto" markerHeight="18" markerWidth="30" refY="9" refX="30" id="ZERO_OR_ONE_END"><circle r="6" cy="9" cx="9" fill="white" stroke="gray" /><path d="M21,0 L21,18" fill="none" stroke="gray" /></marker></defs><defs><marker orient="auto" markerHeight="36" markerWidth="45" refY="18" refX="18" id="ONE_OR_MORE_START"><path d="M0,18 Q 18,0 36,18 Q 18,36 0,18 M42,9 L42,27" fill="none" stroke="gray" /></marker></defs><defs><marker orient="auto" markerHeight="36" markerWidth="45" refY="18" refX="27" id="ONE_OR_MORE_END"><path d="M3,9 L3,27 M9,18 Q27,0 45,18 Q27,36 9,18" fill="none" stroke="gray" /></marker></defs><defs><marker orient="auto" markerHeight="36" markerWidth="57" refY="18" refX="18" id="ZERO_OR_MORE_START"><circle r="6" cy="18" cx="48" fill="white" stroke="gray" /><path d="M0,18 Q18,0 36,18 Q18,36 0,18" fill="none" stroke="gray" /></marker></defs><defs><marker orient="auto" markerHeight="36" markerWidth="57" refY="18" refX="39" id="ZERO_OR_MORE_END"><circle r="6" cy="18" cx="9" fill="white" stroke="gray" /><path d="M21,18 Q39,0 57,18 Q39,36 21,18" fill="none" stroke="gray" /></marker></defs><path style="stroke: gray; fill: none;" marker-start="url(#ONLY_ONE_START)" marker-end="url(#ZERO_OR_MORE_END)" d="M3123.139,620L3123.139,628.333C3123.139,636.667,3123.139,653.333,3050.897,674.742C2978.656,696.15,2834.173,722.3,2761.932,735.375L2689.69,748.45" class="er relationshipLine" /><path style="stroke: gray; fill: none;" marker-start="url(#ONLY_ONE_START)" marker-end="url(#ONLY_ONE_END)" d="M2654.05,65.21L2506.336,78.508C2358.622,91.807,2063.195,118.403,1844.346,144.737C1625.497,171.07,1483.227,197.14,1412.092,210.175L1340.957,223.21" class="er relationshipLine" /><path style="stroke: gray; fill: none;" marker-start="url(#ONLY_ONE_START)" marker-end="url(#ZERO_OR_MORE_END)" d="M2825.331,93.119L2846.121,101.766C2866.91,110.413,2908.489,127.706,2929.279,150.937C2950.068,174.167,2950.068,203.333,2950.068,232.5C2950.068,261.667,2950.068,290.833,2950.068,320C2950.068,349.167,2950.068,378.333,2950.068,407.5C2950.068,436.667,2950.068,465.833,2950.068,495C2950.068,524.167,2950.068,553.333,2950.068,582.5C2950.068,611.667,2950.068,640.833,2906.672,667.651C2863.276,694.468,2776.483,718.936,2733.087,731.17L2689.69,743.404" class="er relationshipLine" /><path style="stroke: gray; fill: none;" marker-start="url(#ONLY_ONE_START)" marker-end="url(#ZERO_OR_ONE_END)" d="M937.813,63.56L825.824,77.133C713.836,90.707,489.859,117.853,377.87,139.76C265.882,161.667,265.882,178.333,265.882,186.667L265.882,195" class="er relationshipLine" /><path style="stroke: gray; fill: none;" marker-start="url(#ONLY_ONE_START)" marker-end="url(#ZERO_OR_ONE_END)" d="M937.813,65.925L859.603,79.105C781.393,92.284,624.972,118.642,546.762,140.154C468.552,161.667,468.552,178.333,468.552,186.667L468.552,195" class="er relationshipLine" /><path style="stroke: gray; fill: none;" marker-start="url(#ONLY_ONE_START)" marker-end="url(#ZERO_OR_ONE_END)" d="M1037.813,62.306L1181.197,76.088C1324.58,89.871,1611.348,117.435,1754.731,145.801C1898.115,174.167,1898.115,203.333,1898.115,232.5C1898.115,261.667,1898.115,290.833,1815.388,318.665C1732.661,346.498,1567.206,372.995,1484.479,386.244L1401.752,399.493" class="er relationshipLine" /><path style="stroke: gray; fill: none;" marker-start="url(#ONLY_ONE_START)" marker-end="url(#ZERO_OR_MORE_END)" d="M1037.813,63.934L1142.805,77.445C1247.798,90.956,1457.783,117.978,1508.307,144.114C1558.831,170.25,1449.894,195.5,1395.426,208.125L1340.957,220.75" class="er relationshipLine" /><path style="stroke: gray; fill: none;" marker-start="url(#ONLY_ONE_START)" marker-end="url(#ZERO_OR_MORE_END)" d="M937.813,71.342L893.467,83.618C849.122,95.894,760.431,120.447,716.085,141.057C671.74,161.667,671.74,178.333,671.74,186.667L671.74,195" class="er relationshipLine" /><path style="stroke: gray; fill: none;" marker-start="url(#ONLY_ONE_START)" marker-end="url(#ZERO_OR_ONE_END)" d="M1340.957,235.344L1592.476,249.453C1843.994,263.563,2347.031,291.781,2598.55,320.474C2850.068,349.167,2850.068,378.333,2850.068,407.5C2850.068,436.667,2850.068,465.833,2828.636,488.75C2807.204,511.667,2764.339,528.333,2742.907,536.667L2721.475,545" class="er relationshipLine" /><path style="stroke: gray; fill: none;" marker-start="url(#ONLY_ONE_START)" marker-end="url(#ZERO_OR_ONE_END)" d="M1340.957,235.539L1575.809,249.616C1810.661,263.692,2280.365,291.846,2515.216,320.506C2750.068,349.167,2750.068,378.333,2750.068,407.5C2750.068,436.667,2750.068,465.833,2738.16,488.75C2726.251,511.667,2702.434,528.333,2690.526,536.667L2678.617,545" class="er relationshipLine" /><path style="stroke: gray; fill: none;" marker-start="url(#ONLY_ONE_START)" marker-end="url(#ZERO_OR_ONE_END)" d="M1340.957,237.984L1467.313,251.654C1593.669,265.323,1846.38,292.661,1967.881,314.664C2089.382,336.667,2079.672,353.333,2074.817,361.667L2069.962,370" class="er relationshipLine" /><path style="stroke: gray; fill: none;" marker-start="url(#ONLY_ONE_START)" marker-end="url(#ZERO_OR_MORE_END)" d="M1340.957,227.101L1391.197,221.751C1441.437,216.401,1541.916,205.7,1604.716,200.35C1667.516,195,1692.636,195,1717.756,201.25C1742.875,207.5,1767.995,220,1767.995,232.5C1767.995,245,1742.875,257.5,1717.756,263.75C1692.636,270,1667.516,270,1604.716,264.65C1541.916,259.3,1441.437,248.599,1391.197,243.249L1340.957,237.899" class="er relationshipLine" /><path style="stroke: gray; fill: none;" marker-start="url(#ONLY_ONE_START)" marker-end="url(#ZERO_OR_MORE_END)" d="M1340.957,235.762L1559.143,249.802C1777.328,263.841,2213.698,291.921,2431.883,320.544C2650.068,349.167,2650.068,378.333,2650.068,407.5C2650.068,436.667,2650.068,465.833,2647.684,488.75C2645.299,511.667,2640.53,528.333,2638.145,536.667L2635.76,545" class="er relationshipLine" /><path style="stroke: gray; fill: none;" marker-start="url(#ONLY_ONE_START)" marker-end="url(#ZERO_OR_MORE_END)" d="M1239.567,245.515L1191.212,257.929C1142.858,270.343,1046.149,295.172,956.428,318.639C866.708,342.106,783.978,364.213,742.612,375.266L701.247,386.319" class="er relationshipLine" /><path style="stroke: gray; fill: none;" marker-start="url(#ONLY_ONE_START)" marker-end="url(#ZERO_OR_MORE_END)" d="M1340.957,242.876L1403.759,255.73C1466.561,268.584,1592.164,294.292,1602.297,319.737C1612.429,345.182,1507.091,370.365,1454.421,382.956L1401.752,395.547" class="er relationshipLine" /><path style="stroke: gray; fill: none;" marker-start="url(#ONLY_ONE_START)" marker-end="url(#ZERO_OR_MORE_END)" d="M1340.957,246.044L1387.092,258.37C1433.227,270.696,1525.497,295.348,1535.63,319.516C1545.762,343.685,1473.757,367.369,1437.755,379.211L1401.752,391.054" class="er relationshipLine" /><path style="stroke: gray; fill: none;" marker-start="url(#ONLY_ONE_START)" marker-end="url(#ZERO_OR_MORE_END)" d="M1340.957,260.367L1359.038,270.306C1377.118,280.245,1413.279,300.122,1422.055,318.395C1430.832,336.667,1412.225,353.333,1402.922,361.667L1393.618,370" class="er relationshipLine" /><path style="stroke: gray; fill: none;" marker-start="url(#ONLY_ONE_START)" marker-end="url(#ZERO_OR_MORE_END)" d="M1315.624,270L1321.26,278.333C1326.896,286.667,1338.168,303.333,1344.024,320C1349.88,336.667,1350.32,353.333,1350.541,361.667L1350.761,370" class="er relationshipLine" /><path style="stroke: gray; fill: none;" marker-start="url(#ONLY_ONE_START)" marker-end="url(#ZERO_OR_MORE_END)" d="M1272.767,270L1268.879,278.333C1264.991,286.667,1257.215,303.333,1263.071,320C1268.927,336.667,1288.416,353.333,1298.16,361.667L1307.904,370" class="er relationshipLine" /><path style="stroke: gray; fill: none;" marker-start="url(#ONLY_ONE_START)" marker-end="url(#ZERO_OR_MORE_END)" d="M1239.567,263.999L1224.546,273.333C1209.524,282.666,1179.482,301.333,1189.846,321.646C1200.21,341.958,1250.981,363.917,1276.367,374.896L1301.752,385.875" class="er relationshipLine" /><path style="stroke: gray; fill: none;" marker-start="url(#ONLY_ONE_START)" marker-end="url(#ZERO_OR_MORE_END)" d="M2527.933,559.842L2481.622,549.035C2435.311,538.228,2342.69,516.614,2296.379,491.224C2250.068,465.833,2250.068,436.667,2250.068,407.5C2250.068,378.333,2250.068,349.167,2098.55,320.77C1947.031,292.374,1643.994,264.748,1492.476,250.935L1340.957,237.122" class="er relationshipLine" /><path style="stroke: gray; fill: none;" marker-start="url(#ONLY_ONE_START)" marker-end="url(#ZERO_OR_MORE_END)" d="M2625.029,620L2625.029,628.333C2625.029,636.667,2625.029,653.333,2626.426,670C2627.822,686.667,2630.615,703.333,2632.011,711.667L2633.407,720" class="er relationshipLine" /><path style="stroke: gray; fill: none;" marker-start="url(#ONLY_ONE_START)" marker-end="url(#ZERO_OR_MORE_END)" d="M2026.687,370L2021.925,361.667C2017.163,353.333,2007.639,336.667,1893.351,314.794C1779.063,292.922,1560.01,265.844,1450.484,252.306L1340.957,238.767" class="er relationshipLine" /><path style="stroke: gray; fill: none;" marker-start="url(#ONLY_ONE_START)" marker-end="url(#ZERO_OR_MORE_END)" d="M2048.115,445L2048.115,453.333C2048.115,461.667,2048.115,478.333,2048.115,501.25C2048.115,524.167,2048.115,553.333,2048.115,582.5C2048.115,611.667,2048.115,640.833,2138.378,668.767C2228.64,696.701,2409.165,723.403,2499.428,736.754L2589.69,750.104" class="er relationshipLine" /><path style="stroke: gray; fill: none;" marker-start="url(#ONLY_ONE_START)" marker-end="url(#ZERO_OR_MORE_END)" d="M1220.861,68.725L1163.082,81.437C1105.303,94.15,989.746,119.575,992.864,145.094C995.982,170.613,1117.774,196.226,1178.671,209.032L1239.567,221.839" class="er relationshipLine" /><path style="stroke: gray; fill: none;" marker-start="url(#ONLY_ONE_START)" marker-end="url(#ZERO_OR_MORE_END)" d="M2639.69,795L2639.69,803.333C2639.69,811.667,2639.69,828.333,2639.69,845C2639.69,861.667,2639.69,878.333,2639.69,886.667L2639.69,895" class="er relationshipLine" /><path style="stroke: gray; fill: none;" marker-start="url(#ONLY_ONE_START)" marker-end="url(#ZERO_OR_ONE_END)" d="M542.714,439.918L520.267,449.098C497.82,458.279,452.925,476.639,430.478,494.153C408.031,511.667,408.031,528.333,408.031,536.667L408.031,545" class="er relationshipLine" /><path style="stroke: gray; fill: none;" marker-start="url(#ONLY_ONE_START)" marker-end="url(#ZERO_OR_MORE_END)" d="M701.247,377.007L725.945,367.506C750.644,358.005,800.042,339.002,889.762,316.595C979.482,294.188,1109.524,268.375,1174.546,255.469L1239.567,242.563" class="er relationshipLine" /><path style="stroke: gray; fill: none;" marker-start="url(#ONLY_ONE_START)" marker-end="url(#ZERO_OR_MORE_END)" d="M595.627,370L589.771,361.667C583.915,353.333,572.203,336.667,679.526,314.763C786.849,292.859,1013.208,265.719,1126.387,252.149L1239.567,238.578" class="er relationshipLine" /><path style="stroke: gray; fill: none;" marker-start="url(#ONLY_ONE_START)" marker-end="url(#ZERO_OR_MORE_END)" d="M542.714,388.443L495.267,377.036C447.82,365.629,352.925,342.814,469.068,317.54C585.21,292.266,912.388,264.532,1075.978,250.664L1239.567,236.797" class="er relationshipLine" /><path style="stroke: gray; fill: none;" marker-start="url(#ONLY_ONE_START)" marker-end="url(#ZERO_OR_MORE_END)" d="M542.714,423.301L482.767,435.251C422.82,447.201,302.925,471.1,242.978,497.633C183.031,524.167,183.031,553.333,183.031,582.5C183.031,611.667,183.031,640.833,584.141,669.703C985.251,698.573,1787.471,727.146,2188.581,741.433L2589.69,755.719" class="er relationshipLine" /><path style="stroke: gray; fill: none;" marker-start="url(#ONLY_ONE_START)" marker-end="url(#ZERO_OR_MORE_END)" d="M701.247,423.317L761.121,435.264C820.995,447.211,940.742,471.106,970.018,494.278C999.293,517.451,938.096,539.902,907.497,551.127L876.898,562.353" class="er relationshipLine" /><path style="stroke: gray; fill: none;" marker-start="url(#ONLY_ONE_START)" marker-end="url(#ZERO_OR_ONE_END)" d="M1401.752,411.151L1593.138,425.126C1784.524,439.101,2167.296,467.05,2365.821,489.358C2564.347,511.667,2578.625,528.333,2585.764,536.667L2592.903,545" class="er relationshipLine" /><path style="stroke: gray; fill: none;" marker-start="url(#ONLY_ONE_START)" marker-end="url(#ZERO_OR_ONE_END)" d="M1401.752,411.483L1576.471,425.403C1751.191,439.322,2100.63,467.161,2292.012,489.414C2483.394,511.667,2516.72,528.333,2533.383,536.667L2550.046,545" class="er relationshipLine" /><path style="stroke: gray; fill: none;" marker-start="url(#ONLY_ONE_START)" marker-end="url(#ZERO_OR_ONE_END)" d="M1401.752,411.882L1559.805,425.735C1717.857,439.588,2033.963,467.294,2221.66,490.581C2409.356,513.867,2468.645,532.734,2498.289,542.168L2527.933,551.601" class="er relationshipLine" /><path style="stroke: gray; fill: none;" marker-start="url(#ONLY_ONE_START)" marker-end="url(#ZERO_OR_MORE_END)" d="M1303.971,445L1293.353,453.333C1282.735,461.667,1261.498,478.333,1250.88,495C1240.262,511.667,1240.262,528.333,1240.262,536.667L1240.262,545" class="er relationshipLine" /><path style="stroke: gray; fill: none;" marker-start="url(#ONLY_ONE_START)" marker-end="url(#ZERO_OR_MORE_END)" d="M1301.752,393.028L1259.7,380.857C1217.648,368.685,1133.544,344.343,1123.179,320.658C1112.815,296.973,1176.191,273.946,1207.879,262.433L1239.567,250.92" class="er relationshipLine" /><path style="stroke: gray; fill: none;" marker-start="url(#ONLY_ONE_START)" marker-end="url(#ZERO_OR_MORE_END)" d="M1301.752,418.682L1244.875,431.401C1187.998,444.121,1074.244,469.561,1003.435,491.081C932.626,512.602,904.762,530.205,890.83,539.006L876.898,547.807" class="er relationshipLine" /><path style="stroke: gray; fill: none;" marker-start="url(#ONLY_ONE_START)" marker-end="url(#ZERO_OR_MORE_END)" d="M1301.752,416.406L1228.208,429.505C1154.665,442.604,1007.578,468.802,930.366,490.234C853.155,511.667,845.82,528.333,842.152,536.667L838.485,545" class="er relationshipLine" /><path style="stroke: gray; fill: none;" marker-start="url(#ONLY_ONE_START)" marker-end="url(#ZERO_OR_MORE_END)" d="M1301.752,414.899L1211.542,428.25C1121.331,441.6,940.911,468.3,856.557,489.983C772.203,511.667,783.915,528.333,789.771,536.667L795.627,545" class="er relationshipLine" /><path style="stroke: gray; fill: none;" marker-start="url(#ONLY_ONE_START)" marker-end="url(#ZERO_OR_MORE_END)" d="M1301.752,413.829L1194.875,427.358C1087.998,440.886,874.244,467.943,785.129,491.095C696.014,514.248,731.538,533.496,749.3,543.12L767.062,552.744" class="er relationshipLine" /><path style="stroke: gray; fill: none;" marker-start="url(#ONLY_ONE_START)" marker-end="url(#ZERO_OR_MORE_END)" d="M1301.752,413.029L1178.208,426.691C1054.665,440.353,807.578,467.676,718.463,492.859C629.348,518.041,698.205,541.082,732.633,552.603L767.062,564.123" class="er relationshipLine" /><path style="stroke: gray; fill: none;" marker-start="url(#ONLY_ONE_START)" marker-end="url(#ZERO_OR_MORE_END)" d="M1401.752,423.023L1440.392,435.019C1479.031,447.015,1556.311,471.008,1594.951,491.337C1633.59,511.667,1633.59,528.333,1633.59,536.667L1633.59,545" class="er relationshipLine" /><path style="stroke: gray; fill: none;" marker-start="url(#ONLY_ONE_START)" marker-end="url(#ZERO_OR_MORE_END)" d="M1401.752,396.472L1421.756,392.06C1441.761,387.648,1481.769,378.824,1506.775,374.412C1531.78,370,1541.782,370,1551.784,376.25C1561.787,382.5,1571.789,395,1571.789,407.5C1571.789,420,1561.787,432.5,1551.784,438.75C1541.782,445,1531.78,445,1506.775,440.588C1481.769,436.176,1441.761,427.352,1421.756,422.94L1401.752,418.528" class="er relationshipLine" /><path style="stroke: gray; fill: none;" marker-start="url(#ONLY_ONE_START)" marker-end="url(#ZERO_OR_MORE_END)" d="M1401.752,399.795L1433.979,394.829C1466.205,389.864,1530.658,379.932,1570.941,374.966C1611.225,370,1627.338,370,1643.451,376.25C1659.564,382.5,1675.678,395,1675.678,407.5C1675.678,420,1659.564,432.5,1643.451,438.75C1627.338,445,1611.225,445,1570.941,440.034C1530.658,435.068,1466.205,425.136,1433.979,420.171L1401.752,415.205" class="er relationshipLine" /><path style="stroke: gray; fill: none;" marker-start="url(#ONLY_ONE_START)" marker-end="url(#ZERO_OR_MORE_END)" d="M1401.752,401.579L1446.201,396.316C1490.65,391.053,1579.547,380.526,1635.108,375.263C1690.669,370,1712.893,370,1735.118,376.25C1757.342,382.5,1779.567,395,1779.567,407.5C1779.567,420,1757.342,432.5,1735.118,438.75C1712.893,445,1690.669,445,1635.108,439.737C1579.547,434.474,1490.65,423.947,1446.201,418.684L1401.752,413.421" class="er relationshipLine" /><path style="stroke: gray; fill: none;" marker-start="url(#ONLY_ONE_START)" marker-end="url(#ZERO_OR_MORE_END)" d="M1401.752,416.58L1473.725,429.65C1545.698,442.72,1689.644,468.86,1761.617,490.263C1833.59,511.667,1833.59,528.333,1833.59,536.667L1833.59,545" class="er relationshipLine" /><path style="stroke: gray; fill: none;" marker-start="url(#ONLY_ONE_START)" marker-end="url(#ONLY_ONE_END)" d="M146.063,65.486L250.666,78.738C355.269,91.99,564.475,118.495,746.726,144.9C928.976,171.304,1084.272,197.609,1161.919,210.761L1239.567,223.913" class="er relationshipLine" /><path style="stroke: gray; fill: none;" marker-start="url(#ONLY_ONE_START)" marker-end="url(#ZERO_OR_MORE_END)" d="M83.031,95L83.031,103.333C83.031,111.667,83.031,128.333,83.031,151.25C83.031,174.167,83.031,203.333,83.031,232.5C83.031,261.667,83.031,290.833,83.031,320C83.031,349.167,83.031,378.333,83.031,407.5C83.031,436.667,83.031,465.833,83.031,495C83.031,524.167,83.031,553.333,83.031,582.5C83.031,611.667,83.031,640.833,500.808,669.715C918.584,698.596,1754.137,727.193,2171.914,741.491L2589.69,755.789" class="er relationshipLine" /><g transform="translate(3050.0682678222656,545 )" id="entity-AbstractQuantityKind-251824b8-4b13-554e-87bc-1a2faeaad1d7"><rect height="75" width="146.140625" y="0" x="0" class="er entityBox" /><a ns1:href="#abstractquantitykind"><text style="dominant-baseline: middle; text-anchor: middle; font-size: 12px;" transform="translate(73.0703125,37.5)" y="0" x="0" id="text-entity-AbstractQuantityKind-251824b8-4b13-554e-87bc-1a2faeaad1d7" class="er entityLabel">AbstractQuantityKind</text></a></g><g transform="translate(2654.0497283935547,20 )" id="entity-BaseDimensionMagnitude-987cde2d-f0b1-50ae-bce9-949ffc04e469"><rect height="75" width="171.28125" y="0" x="0" class="er entityBox" /><a ns1:href="#basedimensionmagnitude"><text style="dominant-baseline: middle; text-anchor: middle; font-size: 12px;" transform="translate(85.640625,37.5)" y="0" x="0" id="text-entity-BaseDimensionMagnitude-987cde2d-f0b1-50ae-bce9-949ffc04e469" class="er entityLabel">BaseDimensionMagnitude</text></a></g><g transform="translate(937.8129653930664,20 )" id="entity-Quantity-46f11547-7eaf-5ee9-bc9f-a9eb227f8785"><rect height="75" width="100" y="0" x="0" class="er entityBox" /><a ns1:href="#quantity"><text style="dominant-baseline: middle; text-anchor: middle; font-size: 12px;" transform="translate(50,37.5)" y="0" x="0" id="text-entity-Quantity-46f11547-7eaf-5ee9-bc9f-a9eb227f8785" class="er entityLabel">Quantity</text></a></g><g transform="translate(1239.5668716430664,195 )" id="entity-QuantityKind-6f79b338-e354-5d95-8035-8883644476ff"><rect height="75" width="101.390625" y="0" x="0" class="er entityBox" /><a ns1:href="#quantitykind"><text style="dominant-baseline: middle; text-anchor: middle; font-size: 12px;" transform="translate(50.6953125,37.5)" y="0" x="0" id="text-entity-QuantityKind-6f79b338-e354-5d95-8035-8883644476ff" class="er entityLabel">QuantityKind</text></a></g><g transform="translate(2527.9328384399414,545 )" id="entity-QuantityKindDimensionVector-bfa1bf26-fcae-516f-8f63-2f454f3dac1b"><rect height="75" width="194.19308471679688" y="0" x="0" class="er entityBox" /><a ns1:href="#quantitykinddimensionvector"><text style="dominant-baseline: middle; text-anchor: middle; font-size: 12px;" transform="translate(97.09654235839844,37.5)" y="0" x="0" id="text-entity-QuantityKindDimensionVector-bfa1bf26-fcae-516f-8f63-2f454f3dac1b" class="er entityLabel">QuantityKindDimensionVector</text></a></g><g transform="translate(1946.1620178222656,370 )" id="entity-QuantityKindDimensionVectorSI-2681a9c0-d385-5c75-b278-85a805bca5b5"><rect height="75" width="203.90625" y="0" x="0" class="er entityBox" /><text style="dominant-baseline: middle; text-anchor: middle; font-size: 12px;" transform="translate(101.953125,37.5)" y="0" x="0" id="text-entity-QuantityKindDimensionVectorSI-2681a9c0-d385-5c75-b278-85a805bca5b5" class="er entityLabel">QuantityKindDimensionVectorSI</text></g><g transform="translate(1220.8606567382812,20 )" id="entity-QuantityType-554bb6a6-4d4a-52dd-b2c2-894e29c4615d"><rect height="75" width="102.03125" y="0" x="0" class="er entityBox" /><a ns1:href="#quantitytype"><text style="dominant-baseline: middle; text-anchor: middle; font-size: 12px;" transform="translate(51.015625,37.5)" y="0" x="0" id="text-entity-QuantityType-554bb6a6-4d4a-52dd-b2c2-894e29c4615d" class="er entityLabel">QuantityType</text></a></g><g transform="translate(2589.6903533935547,720 )" id="entity-Rule-886caf8e-59ff-5db3-a492-27242971196f"><rect height="75" width="100" y="0" x="0" class="er entityBox" /><a ns1:href="#rule"><text style="dominant-baseline: middle; text-anchor: middle; font-size: 12px;" transform="translate(50,37.5)" y="0" x="0" id="text-entity-Rule-886caf8e-59ff-5db3-a492-27242971196f" class="er entityLabel">Rule</text></a></g><g transform="translate(542.7138061523438,370 )" id="entity-SystemOfQuantityKinds-09c2a533-d4ff-5ffb-9642-53498359216a"><rect height="75" width="158.53285217285156" y="0" x="0" class="er entityBox" /><a ns1:href="#systemofquantitykinds"><text style="dominant-baseline: middle; text-anchor: middle; font-size: 12px;" transform="translate(79.26642608642578,37.5)" y="0" x="0" id="text-entity-SystemOfQuantityKinds-09c2a533-d4ff-5ffb-9642-53498359216a" class="er entityLabel">SystemOfQuantityKinds</text></a></g><g transform="translate(1301.7520370483398,370 )" id="entity-Unit-c57ac1ea-0a24-509a-a80e-23f8c03ca739"><rect height="75" width="100" y="0" x="0" class="er entityBox" /><a ns1:href="#unit"><text style="dominant-baseline: middle; text-anchor: middle; font-size: 12px;" transform="translate(50,37.5)" y="0" x="0" id="text-entity-Unit-c57ac1ea-0a24-509a-a80e-23f8c03ca739" class="er entityLabel">Unit</text></a></g><g transform="translate(20,20 )" id="entity-UserQuantityKind-1d3cd085-6793-5448-82a1-6476fcd13bbf"><rect height="75" width="126.0625" y="0" x="0" class="er entityBox" /><a ns1:href="#userquantitykind"><text style="dominant-baseline: middle; text-anchor: middle; font-size: 12px;" transform="translate(63.03125,37.5)" y="0" x="0" id="text-entity-UserQuantityKind-1d3cd085-6793-5448-82a1-6476fcd13bbf" class="er entityLabel">UserQuantityKind</text></a></g><g transform="translate(213.21175384521484,195 )" id="entity-DataEncoding-e949680e-a6e4-55c9-9325-aa69226f3e53"><rect height="75" width="105.34048461914062" y="0" x="0" class="er entityBox" /><a ns1:href="#dataencoding"><text style="dominant-baseline: middle; text-anchor: middle; font-size: 12px;" transform="translate(52.67024230957031,37.5)" y="0" x="0" id="text-entity-DataEncoding-e949680e-a6e4-55c9-9325-aa69226f3e53" class="er entityLabel">DataEncoding</text></a></g><g transform="translate(418.55223846435547,195 )" id="entity-Datatype-eedb5402-d0cc-52bf-9fb8-7b914f648cbe"><rect height="75" width="100" y="0" x="0" class="er entityBox" /><a ns1:href="#datatype"><text style="dominant-baseline: middle; text-anchor: middle; font-size: 12px;" transform="translate(50,37.5)" y="0" x="0" id="text-entity-Datatype-eedb5402-d0cc-52bf-9fb8-7b914f648cbe" class="er entityLabel">Datatype</text></a></g><g transform="translate(618.5522384643555,195 )" id="entity-QuantityValue-f2bc13d2-1961-5e2a-9bfe-ab6a05a5860b"><rect height="75" width="106.375" y="0" x="0" class="er entityBox" /><a ns1:href="#quantityvalue"><text style="dominant-baseline: middle; text-anchor: middle; font-size: 12px;" transform="translate(53.1875,37.5)" y="0" x="0" id="text-entity-QuantityValue-f2bc13d2-1961-5e2a-9bfe-ab6a05a5860b" class="er entityLabel">QuantityValue</text></a></g><g transform="translate(2589.6903533935547,895 )" id="entity-RuleType-d54df1a6-a17d-5920-9344-6f805c739e55"><rect height="75" width="100" y="0" x="0" class="er entityBox" /><a ns1:href="#ruletype"><text style="dominant-baseline: middle; text-anchor: middle; font-size: 12px;" transform="translate(50,37.5)" y="0" x="0" id="text-entity-RuleType-d54df1a6-a17d-5920-9344-6f805c739e55" class="er entityLabel">RuleType</text></a></g><g transform="translate(358.03125,545 )" id="entity-Enumeration-f9f59bb4-2616-549b-89c9-bf7c68943800"><rect height="75" width="100" y="0" x="0" class="er entityBox" /><a ns1:href="#enumeration"><text style="dominant-baseline: middle; text-anchor: middle; font-size: 12px;" transform="translate(50,37.5)" y="0" x="0" id="text-entity-Enumeration-f9f59bb4-2616-549b-89c9-bf7c68943800" class="er entityLabel">Enumeration</text></a></g><g transform="translate(767.0619735717773,545 )" id="entity-SystemOfUnits-f7f1da8e-a5af-50e1-94d0-c2e741f40e1d"><rect height="75" width="109.83651733398438" y="0" x="0" class="er entityBox" /><a ns1:href="#systemofunits"><text style="dominant-baseline: middle; text-anchor: middle; font-size: 12px;" transform="translate(54.91825866699219,37.5)" y="0" x="0" id="text-entity-SystemOfUnits-f7f1da8e-a5af-50e1-94d0-c2e741f40e1d" class="er entityLabel">SystemOfUnits</text></a></g><g transform="translate(1190.2621841430664,545 )" id="entity-Prefix-f6d97b99-faee-5974-b12e-390868d79e86"><rect height="75" width="100" y="0" x="0" class="er entityBox" /><a ns1:href="#prefix"><text style="dominant-baseline: middle; text-anchor: middle; font-size: 12px;" transform="translate(50,37.5)" y="0" x="0" id="text-entity-Prefix-f6d97b99-faee-5974-b12e-390868d79e86" class="er entityLabel">Prefix</text></a></g><g transform="translate(1583.5903091430664,545 )" id="entity-UCUMcs-8df33f70-0c53-5f8e-a81f-0969bc803a34"><rect height="75" width="100" y="0" x="0" class="er entityBox" /><a ns1:href="#ucumcs"><text style="dominant-baseline: middle; text-anchor: middle; font-size: 12px;" transform="translate(50,37.5)" y="0" x="0" id="text-entity-UCUMcs-8df33f70-0c53-5f8e-a81f-0969bc803a34" class="er entityLabel">UCUMcs</text></a></g><g transform="translate(1783.5903091430664,545 )" id="entity-Class-d9e3eb4a-97c0-50b6-8e3f-7f4a2fa7283d"><rect height="75" width="100" y="0" x="0" class="er entityBox" /><a ns1:href="#class"><text style="dominant-baseline: middle; text-anchor: middle; font-size: 12px;" transform="translate(50,37.5)" y="0" x="0" id="text-entity-Class-d9e3eb4a-97c0-50b6-8e3f-7f4a2fa7283d" class="er entityLabel">__Class</text></a></g><rect height="14" width="43.296875" y="698.5044555664062" x="2898.0234375" class="er relationshipLabelBox" /><text style="text-anchor: middle; dominant-baseline: middle; font-size: 12px;" y="705.5044555664062" x="2919.671875" id="rel1" class="er relationshipLabel">hasRule</text><rect height="14.000007629394531" width="116.28125" y="120.68843460083008" x="1937.2725830078125" class="er relationshipLabelBox" /><text style="text-anchor: middle; dominant-baseline: middle; font-size: 12px;" y="127.68843841552734" x="1995.4132080078125" id="rel2" class="er relationshipLabel">hasBaseQuantityKind</text><rect height="14" width="43.296875" y="463.3624267578125" x="2928.419677734375" class="er relationshipLabelBox" /><text style="text-anchor: middle; dominant-baseline: middle; font-size: 12px;" y="470.3624267578125" x="2950.068115234375" id="rel3" class="er relationshipLabel">hasRule</text><rect height="14" width="74.90850830078125" y="99.87079620361328" x="552.8667297363281" class="er relationshipLabelBox" /><text style="text-anchor: middle; dominant-baseline: middle; font-size: 12px;" y="106.87079620361328" x="590.3209838867188" id="rel4" class="er relationshipLabel">dataEncoding</text><rect height="14" width="48.328125" y="101.932861328125" x="666.0799560546875" class="er relationshipLabelBox" /><text style="text-anchor: middle; dominant-baseline: middle; font-size: 12px;" y="108.932861328125" x="690.2440185546875" id="rel5" class="er relationshipLabel">datatype</text><rect height="14" width="42.404296875" y="140.15199279785156" x="1740.2462158203125" class="er relationshipLabelBox" /><text style="text-anchor: middle; dominant-baseline: middle; font-size: 12px;" y="147.15199279785156" x="1761.4483642578125" id="rel6" class="er relationshipLabel">hasUnit</text><rect height="14" width="90.4375" y="105.0006103515625" x="1335.8665771484375" class="er relationshipLabelBox" /><text style="text-anchor: middle; dominant-baseline: middle; font-size: 12px;" y="112.0006103515625" x="1381.0853271484375" id="rel7" class="er relationshipLabel">hasQuantityKind</text><rect height="14" width="75.265625" y="106.94837951660156" x="752.025634765625" class="er relationshipLabelBox" /><text style="text-anchor: middle; dominant-baseline: middle; font-size: 12px;" y="113.94837951660156" x="789.658447265625" id="rel8" class="er relationshipLabel">quantityValue</text><rect height="14" width="97.98876953125" y="280.6573181152344" x="2166.411865234375" class="er relationshipLabelBox" /><text style="text-anchor: middle; dominant-baseline: middle; font-size: 12px;" y="287.6573181152344" x="2215.40625" id="rel9" class="er relationshipLabel">qkdvDenominator</text><rect height="14" width="85.196533203125" y="279.7666015625" x="2101.9959716796875" class="er relationshipLabelBox" /><text style="text-anchor: middle; dominant-baseline: middle; font-size: 12px;" y="286.7666015625" x="2144.59423828125" id="rel10" class="er relationshipLabel">qkdvNumerator</text><rect height="14" width="119.078125" y="273.47589111328125" x="1663.5416259765625" class="er relationshipLabelBox" /><text style="text-anchor: middle; dominant-baseline: middle; font-size: 12px;" y="280.47589111328125" x="1723.0806884765625" id="rel11" class="er relationshipLabel">dimensionVectorForSI</text><rect height="14" width="61.453125" y="225.5" x="1737.2684326171875" class="er relationshipLabelBox" /><text style="text-anchor: middle; dominant-baseline: middle; font-size: 12px;" y="232.5" x="1767.9949951171875" id="rel12" class="er relationshipLabel">exactMatch</text><rect height="14" width="111.8486328125" y="279.3988037109375" x="2025.798095703125" class="er relationshipLabelBox" /><text style="text-anchor: middle; dominant-baseline: middle; font-size: 12px;" y="286.3988037109375" x="2081.722412109375" id="rel13" class="er relationshipLabel">hasDimensionVector</text><rect height="14" width="163.4290771484375" y="308.05035400390625" x="888.4656372070312" class="er relationshipLabelBox" /><text style="text-anchor: middle; dominant-baseline: middle; font-size: 12px;" y="315.05035400390625" x="970.18017578125" id="rel14" class="er relationshipLabel">belongsToSystemOfQuantities</text><rect height="14" width="100.9046630859375" y="296.5136413574219" x="1531.2625122070312" class="er relationshipLabelBox" /><text style="text-anchor: middle; dominant-baseline: middle; font-size: 12px;" y="303.5136413574219" x="1581.71484375" id="rel15" class="er relationshipLabel">applicableCGSUnit</text><rect height="14" width="98.6966552734375" y="295.7430725097656" x="1467.5083618164062" class="er relationshipLabelBox" /><text style="text-anchor: middle; dominant-baseline: middle; font-size: 12px;" y="302.7430725097656" x="1516.856689453125" id="rel16" class="er relationshipLabel">applicableISOUnit</text><rect height="14" width="125.744873046875" y="296.9803466796875" x="1347.5391845703125" class="er relationshipLabelBox" /><text style="text-anchor: middle; dominant-baseline: middle; font-size: 12px;" y="303.9803466796875" x="1410.41162109375" id="rel17" class="er relationshipLabel">applicableImperialUnit</text><rect height="14" width="90.392578125" y="309.72967529296875" x="1297.61083984375" class="er relationshipLabelBox" /><text style="text-anchor: middle; dominant-baseline: middle; font-size: 12px;" y="316.72967529296875" x="1342.80712890625" id="rel18" class="er relationshipLabel">applicableSIUnit</text><rect height="14" width="152.3250732421875" y="320.0114440917969" x="1190.1245727539062" class="er relationshipLabelBox" /><text style="text-anchor: middle; dominant-baseline: middle; font-size: 12px;" y="327.0114440917969" x="1266.287109375" id="rel19" class="er relationshipLabel">applicableUSCustomaryUnit</text><rect height="14" width="80.3125" y="331.6129455566406" x="1166.1746826171875" class="er relationshipLabelBox" /><text style="text-anchor: middle; dominant-baseline: middle; font-size: 12px;" y="338.6129455566406" x="1206.3309326171875" id="rel20" class="er relationshipLabel">applicableUnit</text><rect height="14" width="144.375" y="296.1403503417969" x="1913.918701171875" class="er relationshipLabelBox" /><text style="text-anchor: middle; dominant-baseline: middle; font-size: 12px;" y="303.1403503417969" x="1986.106201171875" id="rel21" class="er relationshipLabel">hasReferenceQuantityKind</text><rect height="14" width="43.296875" y="663.2316284179688" x="2604.797607421875" class="er relationshipLabelBox" /><text style="text-anchor: middle; dominant-baseline: middle; font-size: 12px;" y="670.2316284179688" x="2626.446044921875" id="rel22" class="er relationshipLabel">hasRule</text><rect height="14" width="144.375" y="276.344482421875" x="1619.335693359375" class="er relationshipLabelBox" /><text style="text-anchor: middle; dominant-baseline: middle; font-size: 12px;" y="283.344482421875" x="1691.523193359375" id="rel23" class="er relationshipLabel">hasReferenceQuantityKind</text><rect height="14" width="43.296875" y="683.9149169921875" x="2206.178955078125" class="er relationshipLabelBox" /><text style="text-anchor: middle; dominant-baseline: middle; font-size: 12px;" y="690.9149169921875" x="2227.827392578125" id="rel24" class="er relationshipLabel">hasRule</text><rect height="14" width="29.171875" y="145.2632598876953" x="982.1363525390625" class="er relationshipLabelBox" /><text style="text-anchor: middle; dominant-baseline: middle; font-size: 12px;" y="152.2632598876953" x="996.7222900390625" id="rel25" class="er relationshipLabel">value</text><rect height="14" width="46.921875" y="838" x="2616.22900390625" class="er relationshipLabelBox" /><text style="text-anchor: middle; dominant-baseline: middle; font-size: 12px;" y="845" x="2639.68994140625" id="rel26" class="er relationshipLabel">ruleType</text><rect height="14" width="153.203125" y="469.7208557128906" x="382.1595153808594" class="er relationshipLabelBox" /><text style="text-anchor: middle; dominant-baseline: middle; font-size: 12px;" y="476.7208557128906" x="458.7610778808594" id="rel27" class="er relationshipLabel">baseDimensionEnumeration</text><rect height="14" width="116.28125" y="291.4220275878906" x="909.25" class="er relationshipLabelBox" /><text style="text-anchor: middle; dominant-baseline: middle; font-size: 12px;" y="298.4220275878906" x="967.390625" id="rel28" class="er relationshipLabel">hasBaseQuantityKind</text><rect height="14" width="90.4375" y="273.7633056640625" x="852.3184204101562" class="er relationshipLabelBox" /><text style="text-anchor: middle; dominant-baseline: middle; font-size: 12px;" y="280.7633056640625" x="897.5371704101562" id="rel29" class="er relationshipLabel">hasQuantityKind</text><rect height="14" width="151.046875" y="273.07183837890625" x="676.780517578125" class="er relationshipLabelBox" /><text style="text-anchor: middle; dominant-baseline: middle; font-size: 12px;" y="280.07183837890625" x="752.303955078125" id="rel30" class="er relationshipLabel">systemDerivedQuantityKind</text><rect height="14" width="43.296875" y="694.3280029296875" x="1140.861572265625" class="er relationshipLabelBox" /><text style="text-anchor: middle; dominant-baseline: middle; font-size: 12px;" y="701.3280029296875" x="1162.510009765625" id="rel31" class="er relationshipLabel">hasRule</text><rect height="14" width="80.5625" y="460.46881103515625" x="862.6961059570312" class="er relationshipLabelBox" /><text style="text-anchor: middle; dominant-baseline: middle; font-size: 12px;" y="467.46881103515625" x="902.9773559570312" id="rel32" class="er relationshipLabel">hasUnitSystem</text><rect height="14" width="111.8486328125" y="449.2018737792969" x="1946.869140625" class="er relationshipLabelBox" /><text style="text-anchor: middle; dominant-baseline: middle; font-size: 12px;" y="456.2018737792969" x="2002.79345703125" id="rel33" class="er relationshipLabel">hasDimensionVector</text><rect height="14" width="97.9886474609375" y="451.76226806640625" x="1930.3992309570312" class="er relationshipLabelBox" /><text style="text-anchor: middle; dominant-baseline: middle; font-size: 12px;" y="458.76226806640625" x="1979.3935546875" id="rel34" class="er relationshipLabel">qkdvDenominator</text><rect height="14" width="85.196533203125" y="456.11962890625" x="1925.13623046875" class="er relationshipLabelBox" /><text style="text-anchor: middle; dominant-baseline: middle; font-size: 12px;" y="463.11962890625" x="1967.7344970703125" id="rel35" class="er relationshipLabel">qkdvNumerator</text><rect height="14" width="30.8402099609375" y="479.4435119628906" x="1241.7722778320312" class="er relationshipLabelBox" /><text style="text-anchor: middle; dominant-baseline: middle; font-size: 12px;" y="486.4435119628906" x="1257.1923828125" id="rel36" class="er relationshipLabel">prefix</text><rect height="14" width="90.4375" y="330.77593994140625" x="1096.7813720703125" class="er relationshipLabelBox" /><text style="text-anchor: middle; dominant-baseline: middle; font-size: 12px;" y="337.77593994140625" x="1142.0001220703125" id="rel37" class="er relationshipLabel">hasQuantityKind</text><rect height="14" width="95.78125" y="461.9992370605469" x="1036.472900390625" class="er relationshipLabelBox" /><text style="text-anchor: middle; dominant-baseline: middle; font-size: 12px;" y="468.9992370605469" x="1084.363525390625" id="rel38" class="er relationshipLabel">applicableSystem</text><rect height="14" width="115.203125" y="453.69122314453125" x="1003.0870361328125" class="er relationshipLabelBox" /><text style="text-anchor: middle; dominant-baseline: middle; font-size: 12px;" y="460.69122314453125" x="1060.6885986328125" id="rel39" class="er relationshipLabel">definedUnitOfSystem</text><rect height="14" width="164.390625" y="449.7948303222656" x="944.8277587890625" class="er relationshipLabelBox" /><text style="text-anchor: middle; dominant-baseline: middle; font-size: 12px;" y="456.7948303222656" x="1027.0230712890625" id="rel40" class="er relationshipLabel">derivedCoherentUnitOfSystem</text><rect height="14" width="115.15625" y="448.67974853515625" x="925.3374633789062" class="er relationshipLabelBox" /><text style="text-anchor: middle; dominant-baseline: middle; font-size: 12px;" y="455.67974853515625" x="982.9155883789062" id="rel41" class="er relationshipLabel">derivedUnitOfSystem</text><rect height="14" width="82.828125" y="449.1615295410156" x="888.6951904296875" class="er relationshipLabelBox" /><text style="text-anchor: middle; dominant-baseline: middle; font-size: 12px;" y="456.1615295410156" x="930.1092529296875" id="rel42" class="er relationshipLabel">isUnitOfSystem</text><rect height="14" width="57.078125" y="458.5530090332031" x="1504.692626953125" class="er relationshipLabelBox" /><text style="text-anchor: middle; dominant-baseline: middle; font-size: 12px;" y="465.5530090332031" x="1533.231689453125" id="rel43" class="er relationshipLabel">ucumCode</text><rect height="14" width="61.453125" y="400.5" x="1541.0623779296875" class="er relationshipLabelBox" /><text style="text-anchor: middle; dominant-baseline: middle; font-size: 12px;" y="407.5" x="1571.7889404296875" id="rel44" class="er relationshipLabel">exactMatch</text><rect height="14" width="99.0926513671875" y="400.5" x="1626.1316528320312" class="er relationshipLabelBox" /><text style="text-anchor: middle; dominant-baseline: middle; font-size: 12px;" y="407.5" x="1675.677978515625" id="rel45" class="er relationshipLabel">hasReciprocalUnit</text><rect height="14" width="51.1043701171875" y="400.5000305175781" x="1754.0148315429688" class="er relationshipLabelBox" /><text style="text-anchor: middle; dominant-baseline: middle; font-size: 12px;" y="407.5000305175781" x="1779.5670166015625" id="rel46" class="er relationshipLabel">scalingOf</text><rect height="14" width="75.6324462890625" y="452.5226745605469" x="1593.1270141601562" class="er relationshipLabelBox" /><text style="text-anchor: middle; dominant-baseline: middle; font-size: 12px;" y="459.5226745605469" x="1630.9432373046875" id="rel47" class="er relationshipLabel">hasFactorUnit</text><rect height="14" width="90.4375" y="130.3444366455078" x="648.6700439453125" class="er relationshipLabelBox" /><text style="text-anchor: middle; dominant-baseline: middle; font-size: 12px;" y="137.3444366455078" x="693.8887939453125" id="rel48" class="er relationshipLabel">hasQuantityKind</text><rect height="14" width="43.296875" y="693.3335571289062" x="1058.3245849609375" class="er relationshipLabelBox" /><text style="text-anchor: middle; dominant-baseline: middle; font-size: 12px;" y="700.3335571289062" x="1079.9730224609375" id="rel49" class="er relationshipLabel">hasRule</text></svg>