<svg xmlns="http://www.w3.org/2000/svg" aria-roledescription="er" role="graphics-document document" viewBox="0 0 1456.044921875 640" height="640" width="1456.044921875" id="container">
  <style>#container{font-family:"trebuchet ms",verdana,arial,sans-serif;font-size:16px;fill:#333;}#container .error-icon{fill:#552222;}#container .error-text{fill:#552222;stroke:#552222;}#container .edge-thickness-normal{stroke-width:1px;}#container .edge-thickness-thick{stroke-width:3.5px;}#container .edge-pattern-solid{stroke-dasharray:0;}#container .edge-thickness-invisible{stroke-width:0;fill:none;}#container .edge-pattern-dashed{stroke-dasharray:3;}#container .edge-pattern-dotted{stroke-dasharray:2;}#container .marker{fill:#333333;stroke:#333333;}#container .marker.cross{stroke:#333333;}#container svg{font-family:"trebuchet ms",verdana,arial,sans-serif;font-size:16px;}#container p{margin:0;}#container .entityBox{fill:#ECECFF;stroke:#9370DB;}#container .attributeBoxOdd{fill:#ffffff;stroke:#9370DB;}#container .attributeBoxEven{fill:#f2f2f2;stroke:#9370DB;}#container .relationshipLabelBox{fill:hsl(80, 100%, 96.2745098039%);opacity:0.7;background-color:hsl(80, 100%, 96.2745098039%);}#container .relationshipLabelBox rect{opacity:0.5;}#container .relationshipLine{stroke:#333333;}#container .entityTitleText{text-anchor:middle;font-size:18px;fill:#333;}#container #MD_PARENT_START{fill:#f5f5f5!important;stroke:#333333!important;stroke-width:1;}#container #MD_PARENT_END{fill:#f5f5f5!important;stroke:#333333!important;stroke-width:1;}#container :root{--mermaid-font-family:"trebuchet ms",verdana,arial,sans-serif;}</style>
  <g/>
  <defs>
    <marker orient="auto" markerHeight="240" markerWidth="190" refY="7" refX="0" id="MD_PARENT_START">
      <path d="M 18,7 L9,13 L1,7 L9,1 Z"/>
    </marker>
  </defs>
  <defs>
    <marker orient="auto" markerHeight="28" markerWidth="20" refY="7" refX="19" id="MD_PARENT_END">
      <path d="M 18,7 L9,13 L1,7 L9,1 Z"/>
    </marker>
  </defs>
  <defs>
    <marker orient="auto" markerHeight="18" markerWidth="18" refY="9" refX="0" id="ONLY_ONE_START">
      <path d="M9,0 L9,18 M15,0 L15,18" fill="none" stroke="gray"/>
    </marker>
  </defs>
  <defs>
    <marker orient="auto" markerHeight="18" markerWidth="18" refY="9" refX="18" id="ONLY_ONE_END">
      <path d="M3,0 L3,18 M9,0 L9,18" fill="none" stroke="gray"/>
    </marker>
  </defs>
  <defs>
    <marker orient="auto" markerHeight="18" markerWidth="30" refY="9" refX="0" id="ZERO_OR_ONE_START">
      <circle r="6" cy="9" cx="21" fill="white" stroke="gray"/>
      <path d="M9,0 L9,18" fill="none" stroke="gray"/>
    </marker>
  </defs>
  <defs>
    <marker orient="auto" markerHeight="18" markerWidth="30" refY="9" refX="30" id="ZERO_OR_ONE_END">
      <circle r="6" cy="9" cx="9" fill="white" stroke="gray"/>
      <path d="M21,0 L21,18" fill="none" stroke="gray"/>
    </marker>
  </defs>
  <defs>
    <marker orient="auto" markerHeight="36" markerWidth="45" refY="18" refX="18" id="ONE_OR_MORE_START">
      <path d="M0,18 Q 18,0 36,18 Q 18,36 0,18 M42,9 L42,27" fill="none" stroke="gray"/>
    </marker>
  </defs>
  <defs>
    <marker orient="auto" markerHeight="36" markerWidth="45" refY="18" refX="27" id="ONE_OR_MORE_END">
      <path d="M3,9 L3,27 M9,18 Q27,0 45,18 Q27,36 9,18" fill="none" stroke="gray"/>
    </marker>
  </defs>
  <defs>
    <marker orient="auto" markerHeight="36" markerWidth="57" refY="18" refX="18" id="ZERO_OR_MORE_START">
      <circle r="6" cy="18" cx="48" fill="white" stroke="gray"/>
      <path d="M0,18 Q18,0 36,18 Q18,36 0,18" fill="none" stroke="gray"/>
    </marker>
  </defs>
  <defs>
    <marker orient="auto" markerHeight="36" markerWidth="57" refY="18" refX="39" id="ZERO_OR_MORE_END">
      <circle r="6" cy="18" cx="9" fill="white" stroke="gray"/>
      <path d="M21,18 Q39,0 57,18 Q39,36 21,18" fill="none" stroke="gray"/>
    </marker>
  </defs>
  <path style="stroke: gray; fill: none;" marker-start="url(#ONLY_ONE_START)" marker-end="url(#ZERO_OR_MORE_END)" d="M121.719,392.534L134.267,388.779C146.815,385.023,171.911,377.511,187.596,373.756C203.281,370,209.555,370,215.829,376.25C222.103,382.5,228.377,395,228.377,407.5C228.377,420,222.103,432.5,215.829,438.75C209.555,445,203.281,445,187.596,441.244C171.911,437.489,146.815,429.977,134.267,426.221L121.719,422.466" class="er relationshipLine"/>
  <path style="stroke: gray; fill: none;" marker-start="url(#ONLY_ONE_START)" marker-end="url(#ZERO_OR_MORE_END)" d="M71.719,445L71.719,453.333C71.719,461.667,71.719,478.333,71.719,495C71.719,511.667,71.719,528.333,71.719,536.667L71.719,545" class="er relationshipLine"/>
  <path style="stroke: gray; fill: none;" marker-start="url(#ONLY_ONE_START)" marker-end="url(#ZERO_OR_MORE_END)" d="M128.862,95L136.004,103.333C143.147,111.667,157.433,128.333,164.576,145C171.719,161.667,171.719,178.333,171.719,186.667L171.719,195" class="er relationshipLine"/>
  <path style="stroke: gray; fill: none;" marker-start="url(#ONLY_ONE_START)" marker-end="url(#ZERO_OR_MORE_END)" d="M631.829,73.331L590.391,85.275C548.952,97.22,466.076,121.11,424.637,141.388C383.199,161.667,383.199,178.333,383.199,186.667L383.199,195" class="er relationshipLine"/>
  <path style="stroke: gray; fill: none;" marker-start="url(#ONLY_ONE_START)" marker-end="url(#ZERO_OR_MORE_END)" d="M631.829,64.726L530.144,78.105C428.459,91.484,225.089,118.242,123.404,146.204C21.719,174.167,21.719,203.333,21.719,232.5C21.719,261.667,21.719,290.833,26.481,313.75C31.243,336.667,40.766,353.333,45.528,361.667L50.29,370" class="er relationshipLine"/>
  <path style="stroke: gray; fill: none;" marker-start="url(#ONLY_ONE_START)" marker-end="url(#ZERO_OR_MORE_END)" d="M631.829,90.011L616.347,99.176C600.866,108.34,569.902,126.67,631.774,149C693.646,171.33,848.352,197.66,925.706,210.825L1003.059,223.99" class="er relationshipLine"/>
  <path style="stroke: gray; fill: none;" marker-start="url(#ONLY_ONE_START)" marker-end="url(#ZERO_OR_MORE_END)" d="M666.258,95L661.705,103.333C657.152,111.667,648.045,128.333,704.179,149.489C760.312,170.645,881.686,196.29,942.372,209.113L1003.059,221.935" class="er relationshipLine"/>
  <path style="stroke: gray; fill: none;" marker-start="url(#ONLY_ONE_START)" marker-end="url(#ZERO_OR_MORE_END)" d="M709.115,95L714.086,103.333C719.057,111.667,728.998,128.333,777.988,148.929C826.979,169.524,915.019,194.048,959.039,206.31L1003.059,218.572" class="er relationshipLine"/>
  <path style="stroke: gray; fill: none;" marker-start="url(#ONLY_ONE_START)" marker-end="url(#ZERO_OR_MORE_END)" d="M741.666,89.074L757.878,98.395C774.09,107.716,806.515,126.358,850.08,146.857C893.646,167.356,948.352,189.712,975.706,200.89L1003.059,212.068" class="er relationshipLine"/>
  <path style="stroke: gray; fill: none;" marker-start="url(#ONLY_ONE_START)" marker-end="url(#ZERO_OR_MORE_END)" d="M741.666,76.554L774.545,87.962C807.423,99.37,873.181,122.185,916.929,141.926C960.676,161.667,982.413,178.333,993.282,186.667L1004.15,195" class="er relationshipLine"/>
  <path style="stroke: gray; fill: none;" marker-start="url(#ONLY_ONE_START)" marker-end="url(#ZERO_OR_MORE_END)" d="M741.666,71.144L791.211,83.453C840.757,95.763,939.848,120.381,990.738,141.024C1041.629,161.667,1044.318,178.333,1045.663,186.667L1047.008,195" class="er relationshipLine"/>
  <path style="stroke: gray; fill: none;" marker-start="url(#ONLY_ONE_START)" marker-end="url(#ZERO_OR_MORE_END)" d="M741.666,67.633L811.553,80.527C881.441,93.422,1021.216,119.211,1080.824,140.439C1140.432,161.667,1119.874,178.333,1109.595,186.667L1099.315,195" class="er relationshipLine"/>
  <path style="stroke: gray; fill: none;" marker-start="url(#ONLY_ONE_START)" marker-end="url(#ZERO_OR_ONE_END)" d="M1003.059,238.374L887.249,251.978C771.439,265.582,539.819,292.791,477.929,317.612C416.039,342.434,523.879,364.867,577.799,376.084L631.719,387.301" class="er relationshipLine"/>
  <path style="stroke: gray; fill: none;" marker-start="url(#ONLY_ONE_START)" marker-end="url(#ZERO_OR_ONE_END)" d="M1003.059,240.225L917.007,253.521C830.955,266.817,658.851,293.408,596.961,315.438C535.071,337.468,583.395,354.935,607.557,363.669L631.719,372.403" class="er relationshipLine"/>
  <path style="stroke: gray; fill: none;" marker-start="url(#ONLY_ONE_START)" marker-end="url(#ZERO_OR_ONE_END)" d="M1003.059,248.928L967.007,260.773C930.955,272.619,858.851,296.309,817.282,316.488C775.713,336.667,764.678,353.333,759.161,361.667L753.643,370" class="er relationshipLine"/>
  <path style="stroke: gray; fill: none;" marker-start="url(#ONLY_ONE_START)" marker-end="url(#ZERO_OR_MORE_END)" d="M1003.059,237.678L870.582,251.399C738.106,265.119,473.152,292.559,326.262,315.52C179.372,338.481,150.546,356.963,136.132,366.203L121.719,375.444" class="er relationshipLine"/>
  <path style="stroke: gray; fill: none;" marker-start="url(#ONLY_ONE_START)" marker-end="url(#ZERO_OR_MORE_END)" d="M1020.294,270L1013.013,278.333C1005.732,286.667,991.169,303.333,983.888,320C976.607,336.667,976.607,353.333,976.607,361.667L976.607,370" class="er relationshipLine"/>
  <path style="stroke: gray; fill: none;" marker-start="url(#ONLY_ONE_START)" marker-end="url(#ZERO_OR_MORE_END)" d="M1103.059,211.459L1129.381,200.383C1155.703,189.306,1208.347,167.153,1148.115,142.888C1087.882,118.623,914.774,92.245,828.22,79.057L741.666,65.868" class="er relationshipLine"/>
  <path style="stroke: gray; fill: none;" marker-start="url(#ONLY_ONE_START)" marker-end="url(#ZERO_OR_MORE_END)" d="M1103.059,218.292L1146.048,206.077C1189.036,193.862,1275.014,169.431,1214.781,143.82C1154.549,118.209,948.107,91.418,844.886,78.023L741.666,64.627" class="er relationshipLine"/>
  <path style="stroke: gray; fill: none;" marker-start="url(#ONLY_ONE_START)" marker-end="url(#ZERO_OR_MORE_END)" d="M1103.059,221.775L1162.714,208.979C1222.37,196.183,1341.68,170.592,1281.448,144.247C1221.216,117.902,981.441,90.804,861.553,77.255L741.666,63.707" class="er relationshipLine"/>
  <path style="stroke: gray; fill: none;" marker-start="url(#ONLY_ONE_START)" marker-end="url(#ZERO_OR_MORE_END)" d="M1103.059,223.887L1179.381,210.739C1255.703,197.591,1408.347,171.296,1348.115,144.481C1287.882,117.666,1014.774,90.331,878.22,76.664L741.666,62.997" class="er relationshipLine"/>
  <path style="stroke: gray; fill: none;" marker-start="url(#ONLY_ONE_START)" marker-end="url(#ZERO_OR_MORE_END)" d="M1103.059,225.303L1196.048,211.92C1289.036,198.536,1475.014,171.768,1414.781,144.623C1354.549,117.477,1048.107,89.955,894.886,76.194L741.666,62.432" class="er relationshipLine"/>
  <path style="stroke: gray; fill: none;" marker-start="url(#ONLY_ONE_START)" marker-end="url(#ZERO_OR_MORE_END)" d="M1103.059,267.713L1115.433,276.428C1127.807,285.142,1152.555,302.571,1164.929,319.619C1177.302,336.667,1177.302,353.333,1177.302,361.667L1177.302,370" class="er relationshipLine"/>
  <path style="stroke: gray; fill: none;" marker-start="url(#ONLY_ONE_START)" marker-end="url(#ZERO_OR_MORE_END)" d="M1103.059,216.875L1114.726,213.229C1126.392,209.583,1149.726,202.292,1164.309,198.646C1178.892,195,1184.726,195,1190.559,201.25C1196.392,207.5,1202.226,220,1202.226,232.5C1202.226,245,1196.392,257.5,1190.559,263.75C1184.726,270,1178.892,270,1164.309,266.354C1149.726,262.708,1126.392,255.417,1114.726,251.771L1103.059,248.125" class="er relationshipLine"/>
  <path style="stroke: gray; fill: none;" marker-start="url(#ONLY_ONE_START)" marker-end="url(#ZERO_OR_MORE_END)" d="M1103.059,222.802L1126.948,218.168C1150.837,213.534,1198.614,204.267,1228.476,199.634C1258.337,195,1270.281,195,1282.226,201.25C1294.17,207.5,1306.114,220,1306.114,232.5C1306.114,245,1294.17,257.5,1282.226,263.75C1270.281,270,1258.337,270,1228.476,265.366C1198.614,260.733,1150.837,251.466,1126.948,246.832L1103.059,242.198" class="er relationshipLine"/>
  <path style="stroke: gray; fill: none;" marker-start="url(#ONLY_ONE_START)" marker-end="url(#ZERO_OR_MORE_END)" d="M1103.059,225.469L1139.17,220.391C1175.281,215.313,1247.503,205.156,1292.642,200.078C1337.781,195,1355.837,195,1373.892,201.25C1391.948,207.5,1410.003,220,1410.003,232.5C1410.003,245,1391.948,257.5,1373.892,263.75C1355.837,270,1337.781,270,1292.642,264.922C1247.503,259.844,1175.281,249.688,1139.17,244.609L1103.059,239.531" class="er relationshipLine"/>
  <path style="stroke: gray; fill: none;" marker-start="url(#ONLY_ONE_START)" marker-end="url(#ZERO_OR_MORE_END)" d="M1103.059,245.993L1148.766,258.327C1194.473,270.662,1285.888,295.331,1331.595,315.999C1377.302,336.667,1377.302,353.333,1377.302,361.667L1377.302,370" class="er relationshipLine"/>
  <g transform="translate(21.71875,370 )" id="entity-Prefix-f6d97b99-faee-5974-b12e-390868d79e86">
    <rect height="75" width="100" y="0" x="0" class="er entityBox"/>
    <text style="dominant-baseline: middle; text-anchor: middle; font-size: 12px;" transform="translate(50,37.5)" y="0" x="0" id="text-entity-Prefix-f6d97b99-faee-5974-b12e-390868d79e86" class="er entityLabel">Prefix</text>
  </g>
  <g transform="translate(46.71875,20 )" id="entity-Rule-886caf8e-59ff-5db3-a492-27242971196f">
    <rect height="75" width="100" y="0" x="0" class="er entityBox"/>
    <text style="dominant-baseline: middle; text-anchor: middle; font-size: 12px;" transform="translate(50,37.5)" y="0" x="0" id="text-entity-Rule-886caf8e-59ff-5db3-a492-27242971196f" class="er entityLabel">Rule</text>
  </g>
  <g transform="translate(631.8290557861328,20 )" id="entity-SystemOfUnits-f7f1da8e-a5af-50e1-94d0-c2e741f40e1d">
    <rect height="75" width="109.83651733398438" y="0" x="0" class="er entityBox"/>
    <text style="dominant-baseline: middle; text-anchor: middle; font-size: 12px;" transform="translate(54.91825866699219,37.5)" y="0" x="0" id="text-entity-SystemOfUnits-f7f1da8e-a5af-50e1-94d0-c2e741f40e1d" class="er entityLabel">SystemOfUnits</text>
  </g>
  <g transform="translate(20,545 )" id="entity-UCUMcsterm-f108a9d5-75dc-5824-aae7-181f348ae82a">
    <rect height="75" width="103.4375" y="0" x="0" class="er entityBox"/>
    <text style="dominant-baseline: middle; text-anchor: middle; font-size: 12px;" transform="translate(51.71875,37.5)" y="0" x="0" id="text-entity-UCUMcsterm-f108a9d5-75dc-5824-aae7-181f348ae82a" class="er entityLabel">UCUMcs-term</text>
  </g>
  <g transform="translate(1003.0588760375977,195 )" id="entity-Unit-c57ac1ea-0a24-509a-a80e-23f8c03ca739">
    <rect height="75" width="100" y="0" x="0" class="er entityBox"/>
    <text style="dominant-baseline: middle; text-anchor: middle; font-size: 12px;" transform="translate(50,37.5)" y="0" x="0" id="text-entity-Unit-c57ac1ea-0a24-509a-a80e-23f8c03ca739" class="er entityLabel">Unit</text>
  </g>
  <g transform="translate(121.71875,195 )" id="entity-RuleType-d54df1a6-a17d-5920-9344-6f805c739e55">
    <rect height="75" width="100" y="0" x="0" class="er entityBox"/>
    <text style="dominant-baseline: middle; text-anchor: middle; font-size: 12px;" transform="translate(50,37.5)" y="0" x="0" id="text-entity-RuleType-d54df1a6-a17d-5920-9344-6f805c739e55" class="er entityLabel">RuleType</text>
  </g>
  <g transform="translate(321.71875,195 )" id="entity-PhysicalConstant-f43f8855-cf72-5deb-8dd3-7b0283708583">
    <rect height="75" width="122.96058654785156" y="0" x="0" class="er entityBox"/>
    <text style="dominant-baseline: middle; text-anchor: middle; font-size: 12px;" transform="translate(61.48029327392578,37.5)" y="0" x="0" id="text-entity-PhysicalConstant-f43f8855-cf72-5deb-8dd3-7b0283708583" class="er entityLabel">PhysicalConstant</text>
  </g>
  <g transform="translate(631.71875,370 )" id="entity-QuantityKindDimensionVector-bfa1bf26-fcae-516f-8f63-2f454f3dac1b">
    <rect height="75" width="194.19308471679688" y="0" x="0" class="er entityBox"/>
    <text style="dominant-baseline: middle; text-anchor: middle; font-size: 12px;" transform="translate(97.09654235839844,37.5)" y="0" x="0" id="text-entity-QuantityKindDimensionVector-bfa1bf26-fcae-516f-8f63-2f454f3dac1b" class="er entityLabel">QuantityKindDimensionVector</text>
  </g>
  <g transform="translate(925.9118347167969,370 )" id="entity-QuantityKind-6f79b338-e354-5d95-8035-8883644476ff">
    <rect height="75" width="101.390625" y="0" x="0" class="er entityBox"/>
    <text style="dominant-baseline: middle; text-anchor: middle; font-size: 12px;" transform="translate(50.6953125,37.5)" y="0" x="0" id="text-entity-QuantityKind-6f79b338-e354-5d95-8035-8883644476ff" class="er entityLabel">QuantityKind</text>
  </g>
  <g transform="translate(1127.3024597167969,370 )" id="entity-UCUMcs-8df33f70-0c53-5f8e-a81f-0969bc803a34">
    <rect height="75" width="100" y="0" x="0" class="er entityBox"/>
    <text style="dominant-baseline: middle; text-anchor: middle; font-size: 12px;" transform="translate(50,37.5)" y="0" x="0" id="text-entity-UCUMcs-8df33f70-0c53-5f8e-a81f-0969bc803a34" class="er entityLabel">UCUMcs</text>
  </g>
  <g transform="translate(1327.3024597167969,370 )" id="entity-Class-d9e3eb4a-97c0-50b6-8e3f-7f4a2fa7283d">
    <rect height="75" width="100" y="0" x="0" class="er entityBox"/>
    <text style="dominant-baseline: middle; text-anchor: middle; font-size: 12px;" transform="translate(50,37.5)" y="0" x="0" id="text-entity-Class-d9e3eb4a-97c0-50b6-8e3f-7f4a2fa7283d" class="er entityLabel">__Class</text>
  </g>
  <rect height="14" width="61.453125" y="400.5" x="197.6504364013672" class="er relationshipLabelBox"/>
  <text style="text-anchor: middle; dominant-baseline: middle; font-size: 12px;" y="407.5" x="228.3769989013672" id="rel1" class="er relationshipLabel">exactMatch</text>
  <rect height="14" width="57.078125" y="488" x="43.17993927001953" class="er relationshipLabelBox"/>
  <text style="text-anchor: middle; dominant-baseline: middle; font-size: 12px;" y="495" x="71.71900177001953" id="rel2" class="er relationshipLabel">ucumCode</text>
  <rect height="14" width="46.921875" y="133.12582397460938" x="138.83152770996094" class="er relationshipLabelBox"/>
  <text style="text-anchor: middle; dominant-baseline: middle; font-size: 12px;" y="140.12582397460938" x="162.29246520996094" id="rel3" class="er relationshipLabel">ruleType</text>
  <rect height="14" width="149.9129638671875" y="108.22835540771484" x="417.2366943359375" class="er relationshipLabelBox"/>
  <text style="text-anchor: middle; dominant-baseline: middle; font-size: 12px;" y="115.22835540771484" x="492.19317626953125" id="rel4" class="er relationshipLabel">applicablePhysicalConstant</text>
  <rect height="14" width="30.840179443359375" y="115.2750244140625" x="218.25863647460938" class="er relationshipLabelBox"/>
  <text style="text-anchor: middle; dominant-baseline: middle; font-size: 12px;" y="122.2750244140625" x="233.67872619628906" id="rel5" class="er relationshipLabel">prefix</text>
  <rect height="14" width="85.58056640625" y="175.3490447998047" x="725.0755004882812" class="er relationshipLabelBox"/>
  <text style="text-anchor: middle; dominant-baseline: middle; font-size: 12px;" y="182.3490447998047" x="767.8657836914062" id="rel6" class="er relationshipLabel">hasAllowedUnit</text>
  <rect height="14" width="68.25244140625" y="173.33273315429688" x="778.6815185546875" class="er relationshipLabelBox"/>
  <text style="text-anchor: middle; dominant-baseline: middle; font-size: 12px;" y="180.33273315429688" x="812.8077392578125" id="rel7" class="er relationshipLabel">hasBaseUnit</text>
  <rect height="14" width="91.64056396484375" y="166.41775512695312" x="800.9961853027344" class="er relationshipLabelBox"/>
  <text style="text-anchor: middle; dominant-baseline: middle; font-size: 12px;" y="173.41775512695312" x="846.8164672851562" id="rel8" class="er relationshipLabel">hasCoherentUnit</text>
  <rect height="14" width="84.320556640625" y="148.93373107910156" x="827.6421508789062" class="er relationshipLabelBox"/>
  <text style="text-anchor: middle; dominant-baseline: middle; font-size: 12px;" y="155.93373107910156" x="869.8024291992188" id="rel9" class="er relationshipLabel">hasDefinedUnit</text>
  <rect height="14" width="133.49688720703125" y="118.58758544921875" x="811.1094055175781" class="er relationshipLabelBox"/>
  <text style="text-anchor: middle; dominant-baseline: middle; font-size: 12px;" y="125.58758544921875" x="877.8578491210938" id="rel10" class="er relationshipLabel">hasDerivedCoherentUnit</text>
  <rect height="14" width="84.260498046875" y="106.78865814208984" x="865.06494140625" class="er relationshipLabelBox"/>
  <text style="text-anchor: middle; dominant-baseline: middle; font-size: 12px;" y="113.78865814208984" x="907.1951904296875" id="rel11" class="er relationshipLabel">hasDerivedUnit</text>
  <rect height="14" width="42.40423583984375" y="101.3838119506836" x="933.7173156738281" class="er relationshipLabelBox"/>
  <text style="text-anchor: middle; dominant-baseline: middle; font-size: 12px;" y="108.3838119506836" x="954.91943359375" id="rel12" class="er relationshipLabel">hasUnit</text>
  <rect height="14" width="111.8487548828125" y="277.6195068359375" x="579.3056030273438" class="er relationshipLabelBox"/>
  <text style="text-anchor: middle; dominant-baseline: middle; font-size: 12px;" y="284.6195068359375" x="635.22998046875" id="rel13" class="er relationshipLabel">hasDimensionVector</text>
  <rect height="14" width="97.9886474609375" y="275.2655944824219" x="693.0558471679688" class="er relationshipLabelBox"/>
  <text style="text-anchor: middle; dominant-baseline: middle; font-size: 12px;" y="282.2655944824219" x="742.0501708984375" id="rel14" class="er relationshipLabel">qkdvDenominator</text>
  <rect height="14" width="85.19659423828125" y="287.5978698730469" x="826.8854675292969" class="er relationshipLabelBox"/>
  <text style="text-anchor: middle; dominant-baseline: middle; font-size: 12px;" y="294.5978698730469" x="869.4837646484375" id="rel15" class="er relationshipLabel">qkdvNumerator</text>
  <rect height="14" width="30.8402099609375" y="278.31402587890625" x="542.0186157226562" class="er relationshipLabelBox"/>
  <text style="text-anchor: middle; dominant-baseline: middle; font-size: 12px;" y="285.31402587890625" x="557.438720703125" id="rel16" class="er relationshipLabel">prefix</text>
  <rect height="14" width="90.4375" y="307.9761657714844" x="941.07421875" class="er relationshipLabelBox"/>
  <text style="text-anchor: middle; dominant-baseline: middle; font-size: 12px;" y="314.9761657714844" x="986.29296875" id="rel17" class="er relationshipLabel">hasQuantityKind</text>
  <rect height="14" width="95.78125" y="101.7835693359375" x="960.7703857421875" class="er relationshipLabelBox"/>
  <text style="text-anchor: middle; dominant-baseline: middle; font-size: 12px;" y="108.7835693359375" x="1008.6610107421875" id="rel18" class="er relationshipLabel">applicableSystem</text>
  <rect height="14" width="115.203125" y="102.80518341064453" x="1009.460693359375" class="er relationshipLabelBox"/>
  <text style="text-anchor: middle; dominant-baseline: middle; font-size: 12px;" y="109.80518341064453" x="1067.062255859375" id="rel19" class="er relationshipLabel">definedUnitOfSystem</text>
  <rect height="14" width="164.390625" y="104.01084899902344" x="1045.94482421875" class="er relationshipLabelBox"/>
  <text style="text-anchor: middle; dominant-baseline: middle; font-size: 12px;" y="111.01084899902344" x="1128.14013671875" id="rel20" class="er relationshipLabel">derivedCoherentUnitOfSystem</text>
  <rect height="14" width="115.15625" y="105.225830078125" x="1133.2491455078125" class="er relationshipLabelBox"/>
  <text style="text-anchor: middle; dominant-baseline: middle; font-size: 12px;" y="112.225830078125" x="1190.8272705078125" id="rel21" class="er relationshipLabel">derivedUnitOfSystem</text>
  <rect height="14" width="82.828125" y="106.3810806274414" x="1213.11328125" class="er relationshipLabelBox"/>
  <text style="text-anchor: middle; dominant-baseline: middle; font-size: 12px;" y="113.3810806274414" x="1254.52734375" id="rel22" class="er relationshipLabel">isUnitOfSystem</text>
  <rect height="14" width="57.078125" y="301.96923828125" x="1127.240478515625" class="er relationshipLabelBox"/>
  <text style="text-anchor: middle; dominant-baseline: middle; font-size: 12px;" y="308.96923828125" x="1155.779541015625" id="rel23" class="er relationshipLabel">ucumCode</text>
  <rect height="14" width="61.453125" y="225.5" x="1171.4993896484375" class="er relationshipLabelBox"/>
  <text style="text-anchor: middle; dominant-baseline: middle; font-size: 12px;" y="232.5" x="1202.2259521484375" id="rel24" class="er relationshipLabel">exactMatch</text>
  <rect height="14" width="99.0926513671875" y="225.50001525878906" x="1256.5676879882812" class="er relationshipLabelBox"/>
  <text style="text-anchor: middle; dominant-baseline: middle; font-size: 12px;" y="232.50001525878906" x="1306.114013671875" id="rel25" class="er relationshipLabel">hasReciprocalUnit</text>
  <rect height="14" width="51.1043701171875" y="225.49996948242188" x="1384.4508666992188" class="er relationshipLabelBox"/>
  <text style="text-anchor: middle; dominant-baseline: middle; font-size: 12px;" y="232.49996948242188" x="1410.0030517578125" id="rel26" class="er relationshipLabel">scalingOf</text>
  <rect height="14" width="75.632568359375" y="281.6180114746094" x="1217.3778076171875" class="er relationshipLabelBox"/>
  <text style="text-anchor: middle; dominant-baseline: middle; font-size: 12px;" y="288.6180114746094" x="1255.194091796875" id="rel27" class="er relationshipLabel">hasFactorUnit</text>
</svg>
