<svg xmlns="http://www.w3.org/2000/svg" xmlns:ns1="http://www.w3.org/1999/xlink" aria-roledescription="er" role="graphics-document document" viewBox="0 0 553.78125 465" height="465" width="553.78125" id="container"><style>#container{font-family:"trebuchet ms",verdana,arial,sans-serif;font-size:16px;fill:#333;}#container .error-icon{fill:#552222;}#container .error-text{fill:#552222;stroke:#552222;}#container .edge-thickness-normal{stroke-width:1px;}#container .edge-thickness-thick{stroke-width:3.5px;}#container .edge-pattern-solid{stroke-dasharray:0;}#container .edge-thickness-invisible{stroke-width:0;fill:none;}#container .edge-pattern-dashed{stroke-dasharray:3;}#container .edge-pattern-dotted{stroke-dasharray:2;}#container .marker{fill:#333333;stroke:#333333;}#container .marker.cross{stroke:#333333;}#container svg{font-family:"trebuchet ms",verdana,arial,sans-serif;font-size:16px;}#container p{margin:0;}#container .entityBox{fill:#ECECFF;stroke:#9370DB;}#container .attributeBoxOdd{fill:#ffffff;stroke:#9370DB;}#container .attributeBoxEven{fill:#f2f2f2;stroke:#9370DB;}#container .relationshipLabelBox{fill:hsl(80, 100%, 96.2745098039%);opacity:0.7;background-color:hsl(80, 100%, 96.2745098039%);}#container .relationshipLabelBox rect{opacity:0.5;}#container .relationshipLine{stroke:#333333;}#container .entityTitleText{text-anchor:middle;font-size:18px;fill:#333;}#container #MD_PARENT_START{fill:#f5f5f5!important;stroke:#333333!important;stroke-width:1;}#container #MD_PARENT_END{fill:#f5f5f5!important;stroke:#333333!important;stroke-width:1;}#container :root{--mermaid-font-family:"trebuchet ms",verdana,arial,sans-serif;}</style><g /><defs><marker orient="auto" markerHeight="240" markerWidth="190" refY="7" refX="0" id="MD_PARENT_START"><path d="M 18,7 L9,13 L1,7 L9,1 Z" /></marker></defs><defs><marker orient="auto" markerHeight="28" markerWidth="20" refY="7" refX="19" id="MD_PARENT_END"><path d="M 18,7 L9,13 L1,7 L9,1 Z" /></marker></defs><defs><marker orient="auto" markerHeight="18" markerWidth="18" refY="9" refX="0" id="ONLY_ONE_START"><path d="M9,0 L9,18 M15,0 L15,18" fill="none" stroke="gray" /></marker></defs><defs><marker orient="auto" markerHeight="18" markerWidth="18" refY="9" refX="18" id="ONLY_ONE_END"><path d="M3,0 L3,18 M9,0 L9,18" fill="none" stroke="gray" /></marker></defs><defs><marker orient="auto" markerHeight="18" markerWidth="30" refY="9" refX="0" id="ZERO_OR_ONE_START"><circle r="6" cy="9" cx="21" fill="white" stroke="gray" /><path d="M9,0 L9,18" fill="none" stroke="gray" /></marker></defs><defs><marker orient="auto" markerHeight="18" markerWidth="30" refY="9" refX="30" id="ZERO_OR_ONE_END"><circle r="6" cy="9" cx="9" fill="white" stroke="gray" /><path d="M21,0 L21,18" fill="none" stroke="gray" /></marker></defs><defs><marker orient="auto" markerHeight="36" markerWidth="45" refY="18" refX="18" id="ONE_OR_MORE_START"><path d="M0,18 Q 18,0 36,18 Q 18,36 0,18 M42,9 L42,27" fill="none" stroke="gray" /></marker></defs><defs><marker orient="auto" markerHeight="36" markerWidth="45" refY="18" refX="27" id="ONE_OR_MORE_END"><path d="M3,9 L3,27 M9,18 Q27,0 45,18 Q27,36 9,18" fill="none" stroke="gray" /></marker></defs><defs><marker orient="auto" markerHeight="36" markerWidth="57" refY="18" refX="18" id="ZERO_OR_MORE_START"><circle r="6" cy="18" cx="48" fill="white" stroke="gray" /><path d="M0,18 Q18,0 36,18 Q18,36 0,18" fill="none" stroke="gray" /></marker></defs><defs><marker orient="auto" markerHeight="36" markerWidth="57" refY="18" refX="39" id="ZERO_OR_MORE_END"><circle r="6" cy="18" cx="9" fill="white" stroke="gray" /><path d="M21,18 Q39,0 57,18 Q39,36 21,18" fill="none" stroke="gray" /></marker></defs><path style="stroke: gray; fill: none;" marker-start="url(#ONLY_ONE_START)" marker-end="url(#ZERO_OR_ONE_END)" d="M320,78.646L346.148,89.705C372.297,100.764,424.594,122.882,450.742,142.274C476.891,161.667,476.891,178.333,476.891,186.667L476.891,195" class="er relationshipLine" /><path style="stroke: gray; fill: none;" marker-start="url(#ONLY_ONE_START)" marker-end="url(#ZERO_OR_ONE_END)" d="M320,41.875L331.667,38.229C343.333,34.583,366.667,27.292,381.25,23.646C395.833,20,401.667,20,407.5,26.25C413.333,32.5,419.167,45,419.167,57.5C419.167,70,413.333,82.5,407.5,88.75C401.667,95,395.833,95,381.25,91.354C366.667,87.708,343.333,80.417,331.667,76.771L320,73.125" class="er relationshipLine" /><path style="stroke: gray; fill: none;" marker-start="url(#ONLY_ONE_START)" marker-end="url(#ZERO_OR_ONE_END)" d="M220,79.375L195,90.313C170,101.25,120,123.125,95,142.396C70,161.667,70,178.333,70,186.667L70,195" class="er relationshipLine" /><path style="stroke: gray; fill: none;" marker-start="url(#ONLY_ONE_START)" marker-end="url(#ZERO_OR_MORE_END)" d="M270,95L270,103.333C270,111.667,270,128.333,270,145C270,161.667,270,178.333,270,186.667L270,195" class="er relationshipLine" /><path style="stroke: gray; fill: none;" marker-start="url(#ONLY_ONE_START)" marker-end="url(#ZERO_OR_MORE_END)" d="M270,270L270,278.333C270,286.667,270,303.333,270,320C270,336.667,270,353.333,270,361.667L270,370" class="er relationshipLine" /><g transform="translate(220,20 )" id="entity-Datatype-eedb5402-d0cc-52bf-9fb8-7b914f648cbe"><rect height="75" width="100" y="0" x="0" class="er entityBox" /><a ns1:href="#datatype"><text style="dominant-baseline: middle; text-anchor: middle; font-size: 12px;" transform="translate(50,37.5)" y="0" x="0" id="text-entity-Datatype-eedb5402-d0cc-52bf-9fb8-7b914f648cbe" class="er entityLabel">Datatype</text></a></g><g transform="translate(20,195 )" id="entity-OrderedType-842b5e5e-013e-581b-9bf8-11371587b713"><rect height="75" width="100" y="0" x="0" class="er entityBox" /><a ns1:href="#orderedtype"><text style="dominant-baseline: middle; text-anchor: middle; font-size: 12px;" transform="translate(50,37.5)" y="0" x="0" id="text-entity-OrderedType-842b5e5e-013e-581b-9bf8-11371587b713" class="er entityLabel">OrderedType</text></a></g><g transform="translate(220,195 )" id="entity-Rule-886caf8e-59ff-5db3-a492-27242971196f"><rect height="75" width="100" y="0" x="0" class="er entityBox" /><a ns1:href="#rule"><text style="dominant-baseline: middle; text-anchor: middle; font-size: 12px;" transform="translate(50,37.5)" y="0" x="0" id="text-entity-Rule-886caf8e-59ff-5db3-a492-27242971196f" class="er entityLabel">Rule</text></a></g><g transform="translate(420,195 )" id="entity-CardinalityType-796d1111-9b0e-5cfa-a954-3577abec4acc"><rect height="75" width="113.78125" y="0" x="0" class="er entityBox" /><a ns1:href="#cardinalitytype"><text style="dominant-baseline: middle; text-anchor: middle; font-size: 12px;" transform="translate(56.890625,37.5)" y="0" x="0" id="text-entity-CardinalityType-796d1111-9b0e-5cfa-a954-3577abec4acc" class="er entityLabel">CardinalityType</text></a></g><g transform="translate(220,370 )" id="entity-RuleType-d54df1a6-a17d-5920-9344-6f805c739e55"><rect height="75" width="100" y="0" x="0" class="er entityBox" /><a ns1:href="#ruletype"><text style="dominant-baseline: middle; text-anchor: middle; font-size: 12px;" transform="translate(50,37.5)" y="0" x="0" id="text-entity-RuleType-d54df1a6-a17d-5920-9344-6f805c739e55" class="er entityLabel">RuleType</text></a></g><rect height="14" width="57.58837890625" y="113.95804595947266" x="386.0672607421875" class="er relationshipLabelBox" /><text style="text-anchor: middle; dominant-baseline: middle; font-size: 12px;" y="120.95804595947266" x="414.8614501953125" id="rel1" class="er relationshipLabel">cardinality</text><rect height="14" width="28.4041748046875" y="50.5" x="404.96490478515625" class="er relationshipLabelBox" /><text style="text-anchor: middle; dominant-baseline: middle; font-size: 12px;" y="57.5" x="419.1669921875" id="rel2" class="er relationshipLabel">basis</text><rect height="14" width="68.28125" y="114.65673065185547" x="94.39369201660156" class="er relationshipLabelBox" /><text style="text-anchor: middle; dominant-baseline: middle; font-size: 12px;" y="121.65673065185547" x="128.53431701660156" id="rel3" class="er relationshipLabel">orderedType</text><rect height="14" width="43.296875" y="138" x="248.3515625" class="er relationshipLabelBox" /><text style="text-anchor: middle; dominant-baseline: middle; font-size: 12px;" y="145" x="270" id="rel4" class="er relationshipLabel">hasRule</text><rect height="14" width="46.921875" y="313" x="246.5390625" class="er relationshipLabelBox" /><text style="text-anchor: middle; dominant-baseline: middle; font-size: 12px;" y="320" x="270" id="rel5" class="er relationshipLabel">ruleType</text></svg>