<svg xmlns="http://www.w3.org/2000/svg" aria-roledescription="er" role="graphics-document document" viewBox="0 0 1243.16943359375 465" height="465" width="1243.16943359375" id="container">
  <style>#container{font-family:"trebuchet ms",verdana,arial,sans-serif;font-size:16px;fill:#333;}#container .error-icon{fill:#552222;}#container .error-text{fill:#552222;stroke:#552222;}#container .edge-thickness-normal{stroke-width:1px;}#container .edge-thickness-thick{stroke-width:3.5px;}#container .edge-pattern-solid{stroke-dasharray:0;}#container .edge-thickness-invisible{stroke-width:0;fill:none;}#container .edge-pattern-dashed{stroke-dasharray:3;}#container .edge-pattern-dotted{stroke-dasharray:2;}#container .marker{fill:#333333;stroke:#333333;}#container .marker.cross{stroke:#333333;}#container svg{font-family:"trebuchet ms",verdana,arial,sans-serif;font-size:16px;}#container p{margin:0;}#container .entityBox{fill:#ECECFF;stroke:#9370DB;}#container .attributeBoxOdd{fill:#ffffff;stroke:#9370DB;}#container .attributeBoxEven{fill:#f2f2f2;stroke:#9370DB;}#container .relationshipLabelBox{fill:hsl(80, 100%, 96.2745098039%);opacity:0.7;background-color:hsl(80, 100%, 96.2745098039%);}#container .relationshipLabelBox rect{opacity:0.5;}#container .relationshipLine{stroke:#333333;}#container .entityTitleText{text-anchor:middle;font-size:18px;fill:#333;}#container #MD_PARENT_START{fill:#f5f5f5!important;stroke:#333333!important;stroke-width:1;}#container #MD_PARENT_END{fill:#f5f5f5!important;stroke:#333333!important;stroke-width:1;}#container :root{--mermaid-font-family:"trebuchet ms",verdana,arial,sans-serif;}</style>
  <g/>
  <defs>
    <marker orient="auto" markerHeight="240" markerWidth="190" refY="7" refX="0" id="MD_PARENT_START">
      <path d="M 18,7 L9,13 L1,7 L9,1 Z"/>
    </marker>
  </defs>
  <defs>
    <marker orient="auto" markerHeight="28" markerWidth="20" refY="7" refX="19" id="MD_PARENT_END">
      <path d="M 18,7 L9,13 L1,7 L9,1 Z"/>
    </marker>
  </defs>
  <defs>
    <marker orient="auto" markerHeight="18" markerWidth="18" refY="9" refX="0" id="ONLY_ONE_START">
      <path d="M9,0 L9,18 M15,0 L15,18" fill="none" stroke="gray"/>
    </marker>
  </defs>
  <defs>
    <marker orient="auto" markerHeight="18" markerWidth="18" refY="9" refX="18" id="ONLY_ONE_END">
      <path d="M3,0 L3,18 M9,0 L9,18" fill="none" stroke="gray"/>
    </marker>
  </defs>
  <defs>
    <marker orient="auto" markerHeight="18" markerWidth="30" refY="9" refX="0" id="ZERO_OR_ONE_START">
      <circle r="6" cy="9" cx="21" fill="white" stroke="gray"/>
      <path d="M9,0 L9,18" fill="none" stroke="gray"/>
    </marker>
  </defs>
  <defs>
    <marker orient="auto" markerHeight="18" markerWidth="30" refY="9" refX="30" id="ZERO_OR_ONE_END">
      <circle r="6" cy="9" cx="9" fill="white" stroke="gray"/>
      <path d="M21,0 L21,18" fill="none" stroke="gray"/>
    </marker>
  </defs>
  <defs>
    <marker orient="auto" markerHeight="36" markerWidth="45" refY="18" refX="18" id="ONE_OR_MORE_START">
      <path d="M0,18 Q 18,0 36,18 Q 18,36 0,18 M42,9 L42,27" fill="none" stroke="gray"/>
    </marker>
  </defs>
  <defs>
    <marker orient="auto" markerHeight="36" markerWidth="45" refY="18" refX="27" id="ONE_OR_MORE_END">
      <path d="M3,9 L3,27 M9,18 Q27,0 45,18 Q27,36 9,18" fill="none" stroke="gray"/>
    </marker>
  </defs>
  <defs>
    <marker orient="auto" markerHeight="36" markerWidth="57" refY="18" refX="18" id="ZERO_OR_MORE_START">
      <circle r="6" cy="18" cx="48" fill="white" stroke="gray"/>
      <path d="M0,18 Q18,0 36,18 Q18,36 0,18" fill="none" stroke="gray"/>
    </marker>
  </defs>
  <defs>
    <marker orient="auto" markerHeight="36" markerWidth="57" refY="18" refX="39" id="ZERO_OR_MORE_END">
      <circle r="6" cy="18" cx="9" fill="white" stroke="gray"/>
      <path d="M21,18 Q39,0 57,18 Q39,36 21,18" fill="none" stroke="gray"/>
    </marker>
  </defs>
  <path style="stroke: gray; fill: none;" marker-start="url(#ONLY_ONE_START)" marker-end="url(#ZERO_OR_ONE_END)" d="M811.779,237.747L679.332,251.456C546.885,265.165,281.991,292.582,159.067,314.625C36.144,336.667,55.192,353.333,64.716,361.667L74.239,370" class="er relationshipLine"/>
  <path style="stroke: gray; fill: none;" marker-start="url(#ONLY_ONE_START)" marker-end="url(#ZERO_OR_ONE_END)" d="M811.779,238.451L695.998,252.043C580.218,265.634,348.657,292.817,232.877,314.742C117.097,336.667,117.097,353.333,117.097,361.667L117.097,370" class="er relationshipLine"/>
  <path style="stroke: gray; fill: none;" marker-start="url(#ONLY_ONE_START)" marker-end="url(#ZERO_OR_ONE_END)" d="M811.779,242.449L745.919,255.374C680.06,268.299,548.341,294.15,482.481,315.408C416.621,336.667,416.621,353.333,416.621,361.667L416.621,370" class="er relationshipLine"/>
  <path style="stroke: gray; fill: none;" marker-start="url(#ONLY_ONE_START)" marker-end="url(#ZERO_OR_MORE_END)" d="M913.169,216.749L924.836,213.124C936.503,209.499,959.836,202.25,974.419,198.625C989.003,195,994.836,195,1000.669,201.25C1006.503,207.5,1012.336,220,1012.336,232.5C1012.336,245,1006.503,257.5,1000.669,263.75C994.836,270,989.003,270,974.419,266.375C959.836,262.75,936.503,255.501,924.836,251.876L913.169,248.251" class="er relationshipLine"/>
  <path style="stroke: gray; fill: none;" marker-start="url(#ONLY_ONE_START)" marker-end="url(#ZERO_OR_MORE_END)" d="M811.779,239.373L712.665,252.811C613.551,266.249,415.324,293.124,306.686,314.896C198.049,336.667,179.001,353.333,169.477,361.667L159.954,370" class="er relationshipLine"/>
  <path style="stroke: gray; fill: none;" marker-start="url(#ONLY_ONE_START)" marker-end="url(#ZERO_OR_MORE_END)" d="M811.779,259.444L792.789,269.536C773.8,279.629,735.82,299.815,716.831,318.241C697.841,336.667,697.841,353.333,697.841,361.667L697.841,370" class="er relationshipLine"/>
  <path style="stroke: gray; fill: none;" marker-start="url(#ONLY_ONE_START)" marker-end="url(#ZERO_OR_MORE_END)" d="M855.999,270L854.56,278.333C853.121,286.667,850.244,303.333,859.767,320C869.291,336.667,891.217,353.333,902.179,361.667L913.142,370" class="er relationshipLine"/>
  <path style="stroke: gray; fill: none;" marker-start="url(#ONLY_ONE_START)" marker-end="url(#ZERO_OR_MORE_END)" d="M898.856,270L906.941,278.333C915.026,286.667,931.196,303.333,940.72,320C950.244,336.667,953.121,353.333,954.56,361.667L955.999,370" class="er relationshipLine"/>
  <path style="stroke: gray; fill: none;" marker-start="url(#ONLY_ONE_START)" marker-end="url(#ZERO_OR_MORE_END)" d="M913.169,256.492L935.536,267.076C957.902,277.661,1002.634,298.831,1016.915,317.749C1031.196,336.667,1015.026,353.333,1006.941,361.667L998.856,370" class="er relationshipLine"/>
  <path style="stroke: gray; fill: none;" marker-start="url(#ONLY_ONE_START)" marker-end="url(#ZERO_OR_MORE_END)" d="M913.169,248.07L952.202,260.059C991.235,272.047,1069.3,296.023,1085.851,318.651C1102.402,341.279,1057.438,362.558,1034.956,373.198L1012.474,383.837" class="er relationshipLine"/>
  <path style="stroke: gray; fill: none;" marker-start="url(#ONLY_ONE_START)" marker-end="url(#ZERO_OR_MORE_END)" d="M913.169,244.025L968.869,256.687C1024.568,269.35,1135.967,294.675,1152.518,319.361C1169.069,344.048,1090.771,368.096,1051.623,380.119L1012.474,392.143" class="er relationshipLine"/>
  <path style="stroke: gray; fill: none;" marker-start="url(#ONLY_ONE_START)" marker-end="url(#ZERO_OR_MORE_END)" d="M913.169,241.648L985.536,254.707C1057.902,267.765,1202.634,293.883,1219.184,319.63C1235.735,345.378,1124.105,370.755,1068.289,383.444L1012.474,396.133" class="er relationshipLine"/>
  <path style="stroke: gray; fill: none;" marker-start="url(#ONLY_ONE_START)" marker-end="url(#ZERO_OR_MORE_END)" d="M862.474,95L862.474,103.333C862.474,111.667,862.474,128.333,862.474,145C862.474,161.667,862.474,178.333,862.474,186.667L862.474,195" class="er relationshipLine"/>
  <path style="stroke: gray; fill: none;" marker-start="url(#ONLY_ONE_START)" marker-end="url(#ZERO_OR_MORE_END)" d="M1173.169,95L1173.169,103.333C1173.169,111.667,1173.169,128.333,1173.169,145C1173.169,161.667,1173.169,178.333,1173.169,186.667L1173.169,195" class="er relationshipLine"/>
  <g transform="translate(811.7788276672363,195 )" id="entity-QuantityKind-6f79b338-e354-5d95-8035-8883644476ff">
    <rect height="75" width="101.390625" y="0" x="0" class="er entityBox"/>
    <text style="dominant-baseline: middle; text-anchor: middle; font-size: 12px;" transform="translate(50.6953125,37.5)" y="0" x="0" id="text-entity-QuantityKind-6f79b338-e354-5d95-8035-8883644476ff" class="er entityLabel">QuantityKind</text>
  </g>
  <g transform="translate(811.4585151672363,20 )" id="entity-QuantityType-554bb6a6-4d4a-52dd-b2c2-894e29c4615d">
    <rect height="75" width="102.03125" y="0" x="0" class="er entityBox"/>
    <text style="dominant-baseline: middle; text-anchor: middle; font-size: 12px;" transform="translate(51.015625,37.5)" y="0" x="0" id="text-entity-QuantityType-554bb6a6-4d4a-52dd-b2c2-894e29c4615d" class="er entityLabel">QuantityType</text>
  </g>
  <g transform="translate(1123.1694526672363,20 )" id="entity-Rule-886caf8e-59ff-5db3-a492-27242971196f">
    <rect height="75" width="100" y="0" x="0" class="er entityBox"/>
    <text style="dominant-baseline: middle; text-anchor: middle; font-size: 12px;" transform="translate(50,37.5)" y="0" x="0" id="text-entity-Rule-886caf8e-59ff-5db3-a492-27242971196f" class="er entityLabel">Rule</text>
  </g>
  <g transform="translate(20,370 )" id="entity-QuantityKindDimensionVector-bfa1bf26-fcae-516f-8f63-2f454f3dac1b">
    <rect height="75" width="194.19308471679688" y="0" x="0" class="er entityBox"/>
    <text style="dominant-baseline: middle; text-anchor: middle; font-size: 12px;" transform="translate(97.09654235839844,37.5)" y="0" x="0" id="text-entity-QuantityKindDimensionVector-bfa1bf26-fcae-516f-8f63-2f454f3dac1b" class="er entityLabel">QuantityKindDimensionVector</text>
  </g>
  <g transform="translate(314.66825103759766,370 )" id="entity-QuantityKindDimensionVectorSI-2681a9c0-d385-5c75-b278-85a805bca5b5">
    <rect height="75" width="203.90625" y="0" x="0" class="er entityBox"/>
    <text style="dominant-baseline: middle; text-anchor: middle; font-size: 12px;" transform="translate(101.953125,37.5)" y="0" x="0" id="text-entity-QuantityKindDimensionVectorSI-2681a9c0-d385-5c75-b278-85a805bca5b5" class="er entityLabel">QuantityKindDimensionVectorSI</text>
  </g>
  <g transform="translate(618.5745010375977,370 )" id="entity-SystemOfQuantityKinds-09c2a533-d4ff-5ffb-9642-53498359216a">
    <rect height="75" width="158.53285217285156" y="0" x="0" class="er entityBox"/>
    <text style="dominant-baseline: middle; text-anchor: middle; font-size: 12px;" transform="translate(79.26642608642578,37.5)" y="0" x="0" id="text-entity-SystemOfQuantityKinds-09c2a533-d4ff-5ffb-9642-53498359216a" class="er entityLabel">SystemOfQuantityKinds</text>
  </g>
  <g transform="translate(912.4741401672363,370 )" id="entity-Unit-c57ac1ea-0a24-509a-a80e-23f8c03ca739">
    <rect height="75" width="100" y="0" x="0" class="er entityBox"/>
    <text style="dominant-baseline: middle; text-anchor: middle; font-size: 12px;" transform="translate(50,37.5)" y="0" x="0" id="text-entity-Unit-c57ac1ea-0a24-509a-a80e-23f8c03ca739" class="er entityLabel">Unit</text>
  </g>
  <g transform="translate(1123.1694526672363,195 )" id="entity-RuleType-d54df1a6-a17d-5920-9344-6f805c739e55">
    <rect height="75" width="100" y="0" x="0" class="er entityBox"/>
    <text style="dominant-baseline: middle; text-anchor: middle; font-size: 12px;" transform="translate(50,37.5)" y="0" x="0" id="text-entity-RuleType-d54df1a6-a17d-5920-9344-6f805c739e55" class="er entityLabel">RuleType</text>
  </g>
  <rect height="14" width="97.9886474609375" y="272.76483154296875" x="367.9461975097656" class="er relationshipLabelBox"/>
  <text style="text-anchor: middle; dominant-baseline: middle; font-size: 12px;" y="279.76483154296875" x="416.9405212402344" id="rel1" class="er relationshipLabel">qkdvDenominator</text>
  <rect height="14" width="85.19659423828125" y="274.74896240234375" x="410.44024658203125" class="er relationshipLabelBox"/>
  <text style="text-anchor: middle; dominant-baseline: middle; font-size: 12px;" y="281.74896240234375" x="453.0385437011719" id="rel2" class="er relationshipLabel">qkdvNumerator</text>
  <rect height="14" width="119.078125" y="278.2553405761719" x="541.0353393554688" class="er relationshipLabelBox"/>
  <text style="text-anchor: middle; dominant-baseline: middle; font-size: 12px;" y="285.2553405761719" x="600.5744018554688" id="rel3" class="er relationshipLabel">dimensionVectorForSI</text>
  <rect height="14" width="61.453125" y="225.50001525878906" x="981.6094360351562" class="er relationshipLabelBox"/>
  <text style="text-anchor: middle; dominant-baseline: middle; font-size: 12px;" y="232.50001525878906" x="1012.3359985351562" id="rel4" class="er relationshipLabel">exactMatch</text>
  <rect height="14" width="111.84869384765625" y="278.6604309082031" x="424.2296447753906" class="er relationshipLabelBox"/>
  <text style="text-anchor: middle; dominant-baseline: middle; font-size: 12px;" y="285.6604309082031" x="480.15399169921875" id="rel5" class="er relationshipLabel">hasDimensionVector</text>
  <rect height="14" width="163.4290771484375" y="294.3158874511719" x="656.5839233398438" class="er relationshipLabelBox"/>
  <text style="text-anchor: middle; dominant-baseline: middle; font-size: 12px;" y="301.3158874511719" x="738.2984619140625" id="rel6" class="er relationshipLabel">belongsToSystemOfQuantities</text>
  <rect height="14" width="100.9046630859375" y="322.0992736816406" x="815.6467895507812" class="er relationshipLabelBox"/>
  <text style="text-anchor: middle; dominant-baseline: middle; font-size: 12px;" y="329.0992736816406" x="866.09912109375" id="rel7" class="er relationshipLabel">applicableCGSUnit</text>
  <rect height="14" width="98.6966552734375" y="307.5501403808594" x="888.0325927734375" class="er relationshipLabelBox"/>
  <text style="text-anchor: middle; dominant-baseline: middle; font-size: 12px;" y="314.5501403808594" x="937.3809204101562" id="rel8" class="er relationshipLabel">applicableISOUnit</text>
  <rect height="14" width="125.744873046875" y="291.503662109375" x="931.4882202148438" class="er relationshipLabelBox"/>
  <text style="text-anchor: middle; dominant-baseline: middle; font-size: 12px;" y="298.503662109375" x="994.3606567382812" id="rel9" class="er relationshipLabel">applicableImperialUnit</text>
  <rect height="14" width="90.392578125" y="289.4853210449219" x="1008.1971435546875" class="er relationshipLabelBox"/>
  <text style="text-anchor: middle; dominant-baseline: middle; font-size: 12px;" y="296.4853210449219" x="1053.3934326171875" id="rel10" class="er relationshipLabel">applicableSIUnit</text>
  <rect height="14" width="152.3250732421875" y="290.62896728515625" x="1040.6609497070312" class="er relationshipLabelBox"/>
  <text style="text-anchor: middle; dominant-baseline: middle; font-size: 12px;" y="297.62896728515625" x="1116.823486328125" id="rel11" class="er relationshipLabel">applicableUSCustomaryUnit</text>
  <rect height="14" width="80.3125" y="291.78216552734375" x="1141.0316162109375" class="er relationshipLabelBox"/>
  <text style="text-anchor: middle; dominant-baseline: middle; font-size: 12px;" y="298.78216552734375" x="1181.1878662109375" id="rel12" class="er relationshipLabel">applicableUnit</text>
  <rect height="14" width="29.171875" y="138" x="847.8880615234375" class="er relationshipLabelBox"/>
  <text style="text-anchor: middle; dominant-baseline: middle; font-size: 12px;" y="145" x="862.4739990234375" id="rel13" class="er relationshipLabel">value</text>
  <rect height="14" width="46.921875" y="138" x="1149.7080078125" class="er relationshipLabelBox"/>
  <text style="text-anchor: middle; dominant-baseline: middle; font-size: 12px;" y="145" x="1173.1689453125" id="rel14" class="er relationshipLabel">ruleType</text>
</svg>
