<svg xmlns="http://www.w3.org/2000/svg" aria-roledescription="er" role="graphics-document document" viewBox="0 0 216.96875 465" height="465" width="216.96875" id="container">
  <style>#container{font-family:"trebuchet ms",verdana,arial,sans-serif;font-size:16px;fill:#333;}#container .error-icon{fill:#552222;}#container .error-text{fill:#552222;stroke:#552222;}#container .edge-thickness-normal{stroke-width:1px;}#container .edge-thickness-thick{stroke-width:3.5px;}#container .edge-pattern-solid{stroke-dasharray:0;}#container .edge-thickness-invisible{stroke-width:0;fill:none;}#container .edge-pattern-dashed{stroke-dasharray:3;}#container .edge-pattern-dotted{stroke-dasharray:2;}#container .marker{fill:#333333;stroke:#333333;}#container .marker.cross{stroke:#333333;}#container svg{font-family:"trebuchet ms",verdana,arial,sans-serif;font-size:16px;}#container p{margin:0;}#container .entityBox{fill:#ECECFF;stroke:#9370DB;}#container .attributeBoxOdd{fill:#ffffff;stroke:#9370DB;}#container .attributeBoxEven{fill:#f2f2f2;stroke:#9370DB;}#container .relationshipLabelBox{fill:hsl(80, 100%, 96.2745098039%);opacity:0.7;background-color:hsl(80, 100%, 96.2745098039%);}#container .relationshipLabelBox rect{opacity:0.5;}#container .relationshipLine{stroke:#333333;}#container .entityTitleText{text-anchor:middle;font-size:18px;fill:#333;}#container #MD_PARENT_START{fill:#f5f5f5!important;stroke:#333333!important;stroke-width:1;}#container #MD_PARENT_END{fill:#f5f5f5!important;stroke:#333333!important;stroke-width:1;}#container :root{--mermaid-font-family:"trebuchet ms",verdana,arial,sans-serif;}</style>
  <g/>
  <defs>
    <marker orient="auto" markerHeight="240" markerWidth="190" refY="7" refX="0" id="MD_PARENT_START">
      <path d="M 18,7 L9,13 L1,7 L9,1 Z"/>
    </marker>
  </defs>
  <defs>
    <marker orient="auto" markerHeight="28" markerWidth="20" refY="7" refX="19" id="MD_PARENT_END">
      <path d="M 18,7 L9,13 L1,7 L9,1 Z"/>
    </marker>
  </defs>
  <defs>
    <marker orient="auto" markerHeight="18" markerWidth="18" refY="9" refX="0" id="ONLY_ONE_START">
      <path d="M9,0 L9,18 M15,0 L15,18" fill="none" stroke="gray"/>
    </marker>
  </defs>
  <defs>
    <marker orient="auto" markerHeight="18" markerWidth="18" refY="9" refX="18" id="ONLY_ONE_END">
      <path d="M3,0 L3,18 M9,0 L9,18" fill="none" stroke="gray"/>
    </marker>
  </defs>
  <defs>
    <marker orient="auto" markerHeight="18" markerWidth="30" refY="9" refX="0" id="ZERO_OR_ONE_START">
      <circle r="6" cy="9" cx="21" fill="white" stroke="gray"/>
      <path d="M9,0 L9,18" fill="none" stroke="gray"/>
    </marker>
  </defs>
  <defs>
    <marker orient="auto" markerHeight="18" markerWidth="30" refY="9" refX="30" id="ZERO_OR_ONE_END">
      <circle r="6" cy="9" cx="9" fill="white" stroke="gray"/>
      <path d="M21,0 L21,18" fill="none" stroke="gray"/>
    </marker>
  </defs>
  <defs>
    <marker orient="auto" markerHeight="36" markerWidth="45" refY="18" refX="18" id="ONE_OR_MORE_START">
      <path d="M0,18 Q 18,0 36,18 Q 18,36 0,18 M42,9 L42,27" fill="none" stroke="gray"/>
    </marker>
  </defs>
  <defs>
    <marker orient="auto" markerHeight="36" markerWidth="45" refY="18" refX="27" id="ONE_OR_MORE_END">
      <path d="M3,9 L3,27 M9,18 Q27,0 45,18 Q27,36 9,18" fill="none" stroke="gray"/>
    </marker>
  </defs>
  <defs>
    <marker orient="auto" markerHeight="36" markerWidth="57" refY="18" refX="18" id="ZERO_OR_MORE_START">
      <circle r="6" cy="18" cx="48" fill="white" stroke="gray"/>
      <path d="M0,18 Q18,0 36,18 Q18,36 0,18" fill="none" stroke="gray"/>
    </marker>
  </defs>
  <defs>
    <marker orient="auto" markerHeight="36" markerWidth="57" refY="18" refX="39" id="ZERO_OR_MORE_END">
      <circle r="6" cy="18" cx="9" fill="white" stroke="gray"/>
      <path d="M21,18 Q39,0 57,18 Q39,36 21,18" fill="none" stroke="gray"/>
    </marker>
  </defs>
  <path style="stroke: gray; fill: none;" marker-start="url(#ONLY_ONE_START)" marker-end="url(#ZERO_OR_MORE_END)" d="M108.484,95L108.484,103.333C108.484,111.667,108.484,128.333,108.484,145C108.484,161.667,108.484,178.333,108.484,186.667L108.484,195" class="er relationshipLine"/>
  <path style="stroke: gray; fill: none;" marker-start="url(#ONLY_ONE_START)" marker-end="url(#ZERO_OR_MORE_END)" d="M108.484,270L108.484,278.333C108.484,286.667,108.484,303.333,108.484,320C108.484,336.667,108.484,353.333,108.484,361.667L108.484,370" class="er relationshipLine"/>
  <g transform="translate(20,20 )" id="entity-FloatingPointEncodingType-12d9dbb3-27c7-5b1d-bea0-182c457d7d80">
    <rect height="75" width="176.96875" y="0" x="0" class="er entityBox"/>
    <text style="dominant-baseline: middle; text-anchor: middle; font-size: 12px;" transform="translate(88.484375,37.5)" y="0" x="0" id="text-entity-FloatingPointEncodingType-12d9dbb3-27c7-5b1d-bea0-182c457d7d80" class="er entityLabel">FloatingPointEncodingType</text>
  </g>
  <g transform="translate(58.484375,195 )" id="entity-Rule-886caf8e-59ff-5db3-a492-27242971196f">
    <rect height="75" width="100" y="0" x="0" class="er entityBox"/>
    <text style="dominant-baseline: middle; text-anchor: middle; font-size: 12px;" transform="translate(50,37.5)" y="0" x="0" id="text-entity-Rule-886caf8e-59ff-5db3-a492-27242971196f" class="er entityLabel">Rule</text>
  </g>
  <g transform="translate(58.484375,370 )" id="entity-RuleType-d54df1a6-a17d-5920-9344-6f805c739e55">
    <rect height="75" width="100" y="0" x="0" class="er entityBox"/>
    <text style="dominant-baseline: middle; text-anchor: middle; font-size: 12px;" transform="translate(50,37.5)" y="0" x="0" id="text-entity-RuleType-d54df1a6-a17d-5920-9344-6f805c739e55" class="er entityLabel">RuleType</text>
  </g>
  <rect height="14" width="43.296875" y="138" x="86.83556365966797" class="er relationshipLabelBox"/>
  <text style="text-anchor: middle; dominant-baseline: middle; font-size: 12px;" y="145" x="108.48400115966797" id="rel1" class="er relationshipLabel">hasRule</text>
  <rect height="14" width="46.921875" y="313" x="85.02306365966797" class="er relationshipLabelBox"/>
  <text style="text-anchor: middle; dominant-baseline: middle; font-size: 12px;" y="320" x="108.48400115966797" id="rel2" class="er relationshipLabel">ruleType</text>
</svg>
