<svg xmlns="http://www.w3.org/2000/svg" aria-roledescription="er" role="graphics-document document" viewBox="-77.77635192871094 0 935.2637939453125 815" height="815" width="935.2637939453125" id="container">
  <style>#container{font-family:"trebuchet ms",verdana,arial,sans-serif;font-size:16px;fill:#333;}#container .error-icon{fill:#552222;}#container .error-text{fill:#552222;stroke:#552222;}#container .edge-thickness-normal{stroke-width:1px;}#container .edge-thickness-thick{stroke-width:3.5px;}#container .edge-pattern-solid{stroke-dasharray:0;}#container .edge-thickness-invisible{stroke-width:0;fill:none;}#container .edge-pattern-dashed{stroke-dasharray:3;}#container .edge-pattern-dotted{stroke-dasharray:2;}#container .marker{fill:#333333;stroke:#333333;}#container .marker.cross{stroke:#333333;}#container svg{font-family:"trebuchet ms",verdana,arial,sans-serif;font-size:16px;}#container p{margin:0;}#container .entityBox{fill:#ECECFF;stroke:#9370DB;}#container .attributeBoxOdd{fill:#ffffff;stroke:#9370DB;}#container .attributeBoxEven{fill:#f2f2f2;stroke:#9370DB;}#container .relationshipLabelBox{fill:hsl(80, 100%, 96.2745098039%);opacity:0.7;background-color:hsl(80, 100%, 96.2745098039%);}#container .relationshipLabelBox rect{opacity:0.5;}#container .relationshipLine{stroke:#333333;}#container .entityTitleText{text-anchor:middle;font-size:18px;fill:#333;}#container #MD_PARENT_START{fill:#f5f5f5!important;stroke:#333333!important;stroke-width:1;}#container #MD_PARENT_END{fill:#f5f5f5!important;stroke:#333333!important;stroke-width:1;}#container :root{--mermaid-font-family:"trebuchet ms",verdana,arial,sans-serif;}</style>
  <g/>
  <defs>
    <marker orient="auto" markerHeight="240" markerWidth="190" refY="7" refX="0" id="MD_PARENT_START">
      <path d="M 18,7 L9,13 L1,7 L9,1 Z"/>
    </marker>
  </defs>
  <defs>
    <marker orient="auto" markerHeight="28" markerWidth="20" refY="7" refX="19" id="MD_PARENT_END">
      <path d="M 18,7 L9,13 L1,7 L9,1 Z"/>
    </marker>
  </defs>
  <defs>
    <marker orient="auto" markerHeight="18" markerWidth="18" refY="9" refX="0" id="ONLY_ONE_START">
      <path d="M9,0 L9,18 M15,0 L15,18" fill="none" stroke="gray"/>
    </marker>
  </defs>
  <defs>
    <marker orient="auto" markerHeight="18" markerWidth="18" refY="9" refX="18" id="ONLY_ONE_END">
      <path d="M3,0 L3,18 M9,0 L9,18" fill="none" stroke="gray"/>
    </marker>
  </defs>
  <defs>
    <marker orient="auto" markerHeight="18" markerWidth="30" refY="9" refX="0" id="ZERO_OR_ONE_START">
      <circle r="6" cy="9" cx="21" fill="white" stroke="gray"/>
      <path d="M9,0 L9,18" fill="none" stroke="gray"/>
    </marker>
  </defs>
  <defs>
    <marker orient="auto" markerHeight="18" markerWidth="30" refY="9" refX="30" id="ZERO_OR_ONE_END">
      <circle r="6" cy="9" cx="9" fill="white" stroke="gray"/>
      <path d="M21,0 L21,18" fill="none" stroke="gray"/>
    </marker>
  </defs>
  <defs>
    <marker orient="auto" markerHeight="36" markerWidth="45" refY="18" refX="18" id="ONE_OR_MORE_START">
      <path d="M0,18 Q 18,0 36,18 Q 18,36 0,18 M42,9 L42,27" fill="none" stroke="gray"/>
    </marker>
  </defs>
  <defs>
    <marker orient="auto" markerHeight="36" markerWidth="45" refY="18" refX="27" id="ONE_OR_MORE_END">
      <path d="M3,9 L3,27 M9,18 Q27,0 45,18 Q27,36 9,18" fill="none" stroke="gray"/>
    </marker>
  </defs>
  <defs>
    <marker orient="auto" markerHeight="36" markerWidth="57" refY="18" refX="18" id="ZERO_OR_MORE_START">
      <circle r="6" cy="18" cx="48" fill="white" stroke="gray"/>
      <path d="M0,18 Q18,0 36,18 Q18,36 0,18" fill="none" stroke="gray"/>
    </marker>
  </defs>
  <defs>
    <marker orient="auto" markerHeight="36" markerWidth="57" refY="18" refX="39" id="ZERO_OR_MORE_END">
      <circle r="6" cy="18" cx="9" fill="white" stroke="gray"/>
      <path d="M21,18 Q39,0 57,18 Q39,36 21,18" fill="none" stroke="gray"/>
    </marker>
  </defs>
  <path style="stroke: gray; fill: none;" marker-start="url(#ONLY_ONE_START)" marker-end="url(#ZERO_OR_MORE_END)" d="M730.125,95L727.744,103.333C725.363,111.667,720.601,128.333,718.22,151.25C715.839,174.167,715.839,203.333,715.839,232.5C715.839,261.667,715.839,290.833,697.122,314.775C678.404,338.717,640.969,357.435,622.252,366.794L603.534,376.152" class="er relationshipLine"/>
  <path style="stroke: gray; fill: none;" marker-start="url(#ONLY_ONE_START)" marker-end="url(#ZERO_OR_MORE_END)" d="M676.553,95L662.268,103.333C647.982,111.667,619.411,128.333,600.363,145C581.315,161.667,571.792,178.333,567.03,186.667L562.268,195" class="er relationshipLine"/>
  <path style="stroke: gray; fill: none;" marker-start="url(#ONLY_ONE_START)" marker-end="url(#ZERO_OR_MORE_END)" d="M772.982,95L780.125,103.333C787.268,111.667,801.553,128.333,808.696,151.25C815.839,174.167,815.839,203.333,815.839,232.5C815.839,261.667,815.839,290.833,815.839,320C815.839,349.167,815.839,378.333,815.839,407.5C815.839,436.667,815.839,465.833,778.339,492.348C740.839,518.864,665.839,542.727,628.339,554.659L590.839,566.591" class="er relationshipLine"/>
  <path style="stroke: gray; fill: none;" marker-start="url(#ONLY_ONE_START)" marker-end="url(#ZERO_OR_MORE_END)" d="M540.839,445L540.839,453.333C540.839,461.667,540.839,478.333,540.839,495C540.839,511.667,540.839,528.333,540.839,536.667L540.839,545" class="er relationshipLine"/>
  <path style="stroke: gray; fill: none;" marker-start="url(#ONLY_ONE_START)" marker-end="url(#ZERO_OR_ONE_END)" d="M562.268,270L567.03,278.333C571.792,286.667,581.315,303.333,581.315,320C581.315,336.667,571.792,353.333,567.03,361.667L562.268,370" class="er relationshipLine"/>
  <path style="stroke: gray; fill: none;" marker-start="url(#ONLY_ONE_START)" marker-end="url(#ZERO_OR_MORE_END)" d="M490.839,246.524L447.179,258.77C403.519,271.016,316.198,295.508,272.538,322.337C228.878,349.167,228.878,378.333,228.878,407.5C228.878,436.667,228.878,465.833,272.538,492.663C316.198,519.492,403.519,543.984,447.179,556.23L490.839,568.476" class="er relationshipLine"/>
  <path style="stroke: gray; fill: none;" marker-start="url(#ONLY_ONE_START)" marker-end="url(#ONE_OR_MORE_END)" d="M490.839,265.186L476.865,274.322C462.89,283.458,434.941,301.729,433.713,319.198C432.486,336.667,457.981,353.333,470.728,361.667L483.476,370" class="er relationshipLine"/>
  <path style="stroke: gray; fill: none;" marker-start="url(#ONLY_ONE_START)" marker-end="url(#ZERO_OR_MORE_END)" d="M590.839,566.875L602.506,563.229C614.172,559.583,637.506,552.292,652.089,548.646C666.672,545,672.506,545,678.339,551.25C684.172,557.5,690.006,570,690.006,582.5C690.006,595,684.172,607.5,678.339,613.75C672.506,620,666.672,620,652.089,616.354C637.506,612.708,614.172,605.417,602.506,601.771L590.839,598.125" class="er relationshipLine"/>
  <path style="stroke: gray; fill: none;" marker-start="url(#ONLY_ONE_START)" marker-end="url(#ZERO_OR_MORE_END)" d="M540.839,620L540.839,628.333C540.839,636.667,540.839,653.333,540.839,670C540.839,686.667,540.839,703.333,540.839,711.667L540.839,720" class="er relationshipLine"/>
  <path style="stroke: gray; fill: none;" marker-start="url(#ONLY_ONE_START)" marker-end="url(#ZERO_OR_ONE_END)" d="M178.533,75.325L230.174,86.937C281.815,98.55,385.098,121.775,441.735,141.721C498.372,161.667,508.364,178.333,513.361,186.667L518.357,195" class="er relationshipLine"/>
  <path style="stroke: gray; fill: none;" marker-start="url(#ONLY_ONE_START)" marker-end="url(#ZERO_OR_MORE_END)" d="M112.57,95L115.526,103.333C118.482,111.667,124.395,128.333,127.351,145C130.307,161.667,130.307,178.333,130.307,186.667L130.307,195" class="er relationshipLine"/>
  <path style="stroke: gray; fill: none;" marker-start="url(#ONLY_ONE_START)" marker-end="url(#ZERO_OR_MORE_END)" d="M47.986,95L36.59,103.333C25.195,111.667,2.403,128.333,-8.992,151.25C-20.388,174.167,-20.388,203.333,-20.388,232.5C-20.388,261.667,-20.388,290.833,-20.388,320C-20.388,349.167,-20.388,378.333,-20.388,407.5C-20.388,436.667,-20.388,465.833,64.817,493.701C150.021,521.568,320.43,548.136,405.635,561.42L490.839,574.705" class="er relationshipLine"/>
  <path style="stroke: gray; fill: none;" marker-start="url(#ONLY_ONE_START)" marker-end="url(#ZERO_OR_MORE_END)" d="M178.533,86.808L204.764,96.506C230.996,106.205,283.458,125.603,309.69,143.635C335.921,161.667,335.921,178.333,335.921,186.667L335.921,195" class="er relationshipLine"/>
  <g transform="translate(669.5527496337891,20 )" id="entity-EnumeratedQuantity-02a0fea0-4841-5d19-bad6-fad1312f97d5">
    <rect height="75" width="142.57275390625" y="0" x="0" class="er entityBox"/>
    <text style="dominant-baseline: middle; text-anchor: middle; font-size: 12px;" transform="translate(71.286376953125,37.5)" y="0" x="0" id="text-entity-EnumeratedQuantity-02a0fea0-4841-5d19-bad6-fad1312f97d5" class="er entityLabel">EnumeratedQuantity</text>
  </g>
  <g transform="translate(478.14381408691406,370 )" id="entity-EnumeratedValue-933d25dc-a4b0-559c-ba2b-998cca51206b">
    <rect height="75" width="125.390625" y="0" x="0" class="er entityBox"/>
    <text style="dominant-baseline: middle; text-anchor: middle; font-size: 12px;" transform="translate(62.6953125,37.5)" y="0" x="0" id="text-entity-EnumeratedValue-933d25dc-a4b0-559c-ba2b-998cca51206b" class="er entityLabel">EnumeratedValue</text>
  </g>
  <g transform="translate(490.83912658691406,195 )" id="entity-Enumeration-f9f59bb4-2616-549b-89c9-bf7c68943800">
    <rect height="75" width="100" y="0" x="0" class="er entityBox"/>
    <text style="dominant-baseline: middle; text-anchor: middle; font-size: 12px;" transform="translate(50,37.5)" y="0" x="0" id="text-entity-Enumeration-f9f59bb4-2616-549b-89c9-bf7c68943800" class="er entityLabel">Enumeration</text>
  </g>
  <g transform="translate(490.83912658691406,545 )" id="entity-Rule-886caf8e-59ff-5db3-a492-27242971196f">
    <rect height="75" width="100" y="0" x="0" class="er entityBox"/>
    <text style="dominant-baseline: middle; text-anchor: middle; font-size: 12px;" transform="translate(50,37.5)" y="0" x="0" id="text-entity-Rule-886caf8e-59ff-5db3-a492-27242971196f" class="er entityLabel">Rule</text>
  </g>
  <g transform="translate(20,20 )" id="entity-SystemOfQuantityKinds-09c2a533-d4ff-5ffb-9642-53498359216a">
    <rect height="75" width="158.53285217285156" y="0" x="0" class="er entityBox"/>
    <text style="dominant-baseline: middle; text-anchor: middle; font-size: 12px;" transform="translate(79.26642608642578,37.5)" y="0" x="0" id="text-entity-SystemOfQuantityKinds-09c2a533-d4ff-5ffb-9642-53498359216a" class="er entityLabel">SystemOfQuantityKinds</text>
  </g>
  <g transform="translate(490.83912658691406,720 )" id="entity-RuleType-d54df1a6-a17d-5920-9344-6f805c739e55">
    <rect height="75" width="100" y="0" x="0" class="er entityBox"/>
    <text style="dominant-baseline: middle; text-anchor: middle; font-size: 12px;" transform="translate(50,37.5)" y="0" x="0" id="text-entity-RuleType-d54df1a6-a17d-5920-9344-6f805c739e55" class="er entityLabel">RuleType</text>
  </g>
  <g transform="translate(79.61198425292969,195 )" id="entity-QuantityKind-6f79b338-e354-5d95-8035-8883644476ff">
    <rect height="75" width="101.390625" y="0" x="0" class="er entityBox"/>
    <text style="dominant-baseline: middle; text-anchor: middle; font-size: 12px;" transform="translate(50.6953125,37.5)" y="0" x="0" id="text-entity-QuantityKind-6f79b338-e354-5d95-8035-8883644476ff" class="er entityLabel">QuantityKind</text>
  </g>
  <g transform="translate(281.0026092529297,195 )" id="entity-SystemOfUnits-f7f1da8e-a5af-50e1-94d0-c2e741f40e1d">
    <rect height="75" width="109.83651733398438" y="0" x="0" class="er entityBox"/>
    <text style="dominant-baseline: middle; text-anchor: middle; font-size: 12px;" transform="translate(54.91825866699219,37.5)" y="0" x="0" id="text-entity-SystemOfUnits-f7f1da8e-a5af-50e1-94d0-c2e741f40e1d" class="er entityLabel">SystemOfUnits</text>
  </g>
  <rect height="14" width="95.640625" y="255.48983764648438" x="667.2485961914062" class="er relationshipLabelBox"/>
  <text style="text-anchor: middle; dominant-baseline: middle; font-size: 12px;" y="262.4898376464844" x="715.0689086914062" id="rel1" class="er relationshipLabel">enumeratedValue</text>
  <rect height="14" width="69.890625" y="129.18421936035156" x="576.3121337890625" class="er relationshipLabelBox"/>
  <text style="text-anchor: middle; dominant-baseline: middle; font-size: 12px;" y="136.18421936035156" x="611.2574462890625" id="rel2" class="er relationshipLabel">enumeration</text>
  <rect height="14" width="43.296875" y="388.46502685546875" x="794.1905517578125" class="er relationshipLabelBox"/>
  <text style="text-anchor: middle; dominant-baseline: middle; font-size: 12px;" y="395.46502685546875" x="815.8389892578125" id="rel3" class="er relationshipLabel">hasRule</text>
  <rect height="14" width="43.296875" y="488" x="519.1905517578125" class="er relationshipLabelBox"/>
  <text style="text-anchor: middle; dominant-baseline: middle; font-size: 12px;" y="495" x="540.8389892578125" id="rel4" class="er relationshipLabel">hasRule</text>
  <rect height="14" width="39.500244140625" y="313" x="561.5648803710938" class="er relationshipLabelBox"/>
  <text style="text-anchor: middle; dominant-baseline: middle; font-size: 12px;" y="320" x="581.3150024414062" id="rel5" class="er relationshipLabel">default</text>
  <rect height="14" width="43.296875" y="400.5000305175781" x="207.2295684814453" class="er relationshipLabelBox"/>
  <text style="text-anchor: middle; dominant-baseline: middle; font-size: 12px;" y="407.5000305175781" x="228.8780059814453" id="rel6" class="er relationshipLabel">hasRule</text>
  <rect height="14" width="45.392242431640625" y="308.82904052734375" x="411.5725860595703" class="er relationshipLabelBox"/>
  <text style="text-anchor: middle; dominant-baseline: middle; font-size: 12px;" y="315.82904052734375" x="434.2687072753906" id="rel7" class="er relationshipLabel">element</text>
  <rect height="14" width="43.296875" y="575.5" x="668.3575439453125" class="er relationshipLabelBox"/>
  <text style="text-anchor: middle; dominant-baseline: middle; font-size: 12px;" y="582.5" x="690.0059814453125" id="rel8" class="er relationshipLabel">hasRule</text>
  <rect height="14" width="46.921875" y="663" x="517.3780517578125" class="er relationshipLabelBox"/>
  <text style="text-anchor: middle; dominant-baseline: middle; font-size: 12px;" y="670" x="540.8389892578125" id="rel9" class="er relationshipLabel">ruleType</text>
  <rect height="14" width="153.203125" y="110.11278533935547" x="280.8644104003906" class="er relationshipLabelBox"/>
  <text style="text-anchor: middle; dominant-baseline: middle; font-size: 12px;" y="117.11278533935547" x="357.4659729003906" id="rel10" class="er relationshipLabel">baseDimensionEnumeration</text>
  <rect height="14" width="369.890625" y="136.9943084716797" x="-57.77635192871094" class="er relationshipLabelBox"/>
  <text style="text-anchor: middle; dominant-baseline: middle; font-size: 12px;" y="143.9943084716797" x="127.16896057128906" id="rel11" class="er relationshipLabel">hasBaseQuantityKind, hasQuantityKind, systemDerivedQuantityKind</text>
  <rect height="14" width="43.296875" y="480.43011474609375" x="25.453693389892578" class="er relationshipLabelBox"/>
  <text style="text-anchor: middle; dominant-baseline: middle; font-size: 12px;" y="487.43011474609375" x="47.10213088989258" id="rel12" class="er relationshipLabel">hasRule</text>
  <rect height="14.000007629394531" width="80.5625" y="117.15224075317383" x="233.34194946289062" class="er relationshipLabelBox"/>
  <text style="text-anchor: middle; dominant-baseline: middle; font-size: 12px;" y="124.1522445678711" x="273.6231994628906" id="rel13" class="er relationshipLabel">hasUnitSystem</text>
</svg>
