<svg xmlns="http://www.w3.org/2000/svg" aria-roledescription="er" role="graphics-document document" viewBox="-125 0 2472.69970703125 1165" height="1165" width="2472.69970703125" id="container">
  <style>#container{font-family:"trebuchet ms",verdana,arial,sans-serif;font-size:16px;fill:#333;}#container .error-icon{fill:#552222;}#container .error-text{fill:#552222;stroke:#552222;}#container .edge-thickness-normal{stroke-width:1px;}#container .edge-thickness-thick{stroke-width:3.5px;}#container .edge-pattern-solid{stroke-dasharray:0;}#container .edge-thickness-invisible{stroke-width:0;fill:none;}#container .edge-pattern-dashed{stroke-dasharray:3;}#container .edge-pattern-dotted{stroke-dasharray:2;}#container .marker{fill:#333333;stroke:#333333;}#container .marker.cross{stroke:#333333;}#container svg{font-family:"trebuchet ms",verdana,arial,sans-serif;font-size:16px;}#container p{margin:0;}#container .entityBox{fill:#ECECFF;stroke:#9370DB;}#container .attributeBoxOdd{fill:#ffffff;stroke:#9370DB;}#container .attributeBoxEven{fill:#f2f2f2;stroke:#9370DB;}#container .relationshipLabelBox{fill:hsl(80, 100%, 96.2745098039%);opacity:0.7;background-color:hsl(80, 100%, 96.2745098039%);}#container .relationshipLabelBox rect{opacity:0.5;}#container .relationshipLine{stroke:#333333;}#container .entityTitleText{text-anchor:middle;font-size:18px;fill:#333;}#container #MD_PARENT_START{fill:#f5f5f5!important;stroke:#333333!important;stroke-width:1;}#container #MD_PARENT_END{fill:#f5f5f5!important;stroke:#333333!important;stroke-width:1;}#container :root{--mermaid-font-family:"trebuchet ms",verdana,arial,sans-serif;}</style>
  <g/>
  <defs>
    <marker orient="auto" markerHeight="240" markerWidth="190" refY="7" refX="0" id="MD_PARENT_START">
      <path d="M 18,7 L9,13 L1,7 L9,1 Z"/>
    </marker>
  </defs>
  <defs>
    <marker orient="auto" markerHeight="28" markerWidth="20" refY="7" refX="19" id="MD_PARENT_END">
      <path d="M 18,7 L9,13 L1,7 L9,1 Z"/>
    </marker>
  </defs>
  <defs>
    <marker orient="auto" markerHeight="18" markerWidth="18" refY="9" refX="0" id="ONLY_ONE_START">
      <path d="M9,0 L9,18 M15,0 L15,18" fill="none" stroke="gray"/>
    </marker>
  </defs>
  <defs>
    <marker orient="auto" markerHeight="18" markerWidth="18" refY="9" refX="18" id="ONLY_ONE_END">
      <path d="M3,0 L3,18 M9,0 L9,18" fill="none" stroke="gray"/>
    </marker>
  </defs>
  <defs>
    <marker orient="auto" markerHeight="18" markerWidth="30" refY="9" refX="0" id="ZERO_OR_ONE_START">
      <circle r="6" cy="9" cx="21" fill="white" stroke="gray"/>
      <path d="M9,0 L9,18" fill="none" stroke="gray"/>
    </marker>
  </defs>
  <defs>
    <marker orient="auto" markerHeight="18" markerWidth="30" refY="9" refX="30" id="ZERO_OR_ONE_END">
      <circle r="6" cy="9" cx="9" fill="white" stroke="gray"/>
      <path d="M21,0 L21,18" fill="none" stroke="gray"/>
    </marker>
  </defs>
  <defs>
    <marker orient="auto" markerHeight="36" markerWidth="45" refY="18" refX="18" id="ONE_OR_MORE_START">
      <path d="M0,18 Q 18,0 36,18 Q 18,36 0,18 M42,9 L42,27" fill="none" stroke="gray"/>
    </marker>
  </defs>
  <defs>
    <marker orient="auto" markerHeight="36" markerWidth="45" refY="18" refX="27" id="ONE_OR_MORE_END">
      <path d="M3,9 L3,27 M9,18 Q27,0 45,18 Q27,36 9,18" fill="none" stroke="gray"/>
    </marker>
  </defs>
  <defs>
    <marker orient="auto" markerHeight="36" markerWidth="57" refY="18" refX="18" id="ZERO_OR_MORE_START">
      <circle r="6" cy="18" cx="48" fill="white" stroke="gray"/>
      <path d="M0,18 Q18,0 36,18 Q18,36 0,18" fill="none" stroke="gray"/>
    </marker>
  </defs>
  <defs>
    <marker orient="auto" markerHeight="36" markerWidth="57" refY="18" refX="39" id="ZERO_OR_MORE_END">
      <circle r="6" cy="18" cx="9" fill="white" stroke="gray"/>
      <path d="M21,18 Q39,0 57,18 Q39,36 21,18" fill="none" stroke="gray"/>
    </marker>
  </defs>
  <path style="stroke: gray; fill: none;" marker-start="url(#ONLY_ONE_START)" marker-end="url(#ZERO_OR_ONE_END)" d="M1420.454,63.95L1314.724,77.459C1208.993,90.967,997.531,117.983,891.801,139.825C786.07,161.667,786.07,178.333,786.07,186.667L786.07,195" class="er relationshipLine"/>
  <path style="stroke: gray; fill: none;" marker-start="url(#ONLY_ONE_START)" marker-end="url(#ZERO_OR_MORE_END)" d="M1521.431,74.278L1556.901,86.065C1592.372,97.852,1663.313,121.426,1698.784,147.796C1734.254,174.167,1734.254,203.333,1734.254,232.5C1734.254,261.667,1734.254,290.833,1734.254,320C1734.254,349.167,1734.254,378.333,1734.254,407.5C1734.254,436.667,1734.254,465.833,1734.254,495C1734.254,524.167,1734.254,553.333,1734.254,582.5C1734.254,611.667,1734.254,640.833,1734.254,670C1734.254,699.167,1734.254,728.333,1734.254,757.5C1734.254,786.667,1734.254,815.833,1585.941,844.224C1437.628,872.615,1141.002,900.23,992.689,914.038L844.375,927.845" class="er relationshipLine"/>
  <path style="stroke: gray; fill: none;" marker-start="url(#ONLY_ONE_START)" marker-end="url(#ZERO_OR_MORE_END)" d="M1420.454,72.645L1380.254,84.704C1340.054,96.764,1259.654,120.882,1219.454,147.524C1179.254,174.167,1179.254,203.333,1179.254,232.5C1179.254,261.667,1179.254,290.833,1138.598,317.491C1097.941,344.148,1016.627,368.296,975.97,380.371L935.314,392.445" class="er relationshipLine"/>
  <path style="stroke: gray; fill: none;" marker-start="url(#ONLY_ONE_START)" marker-end="url(#ZERO_OR_MORE_END)" d="M1521.431,65.342L1606.901,78.619C1692.372,91.895,1863.313,118.447,1948.784,146.307C2034.254,174.167,2034.254,203.333,2034.254,232.5C2034.254,261.667,2034.254,290.833,2034.254,320C2034.254,349.167,2034.254,378.333,2034.254,407.5C2034.254,436.667,2034.254,465.833,2034.254,495C2034.254,524.167,2034.254,553.333,2034.254,582.5C2034.254,611.667,2034.254,640.833,2027.577,663.75C2020.9,686.667,2007.545,703.333,2000.867,711.667L1994.19,720" class="er relationshipLine"/>
  <path style="stroke: gray; fill: none;" marker-start="url(#ONLY_ONE_START)" marker-end="url(#ZERO_OR_MORE_END)" d="M1420.454,60.77L1203.712,74.808C986.97,88.847,553.485,116.923,336.742,145.545C120,174.167,120,203.333,120,232.5C120,261.667,120,290.833,120,320C120,349.167,120,378.333,120,407.5C120,436.667,120,465.833,120,495C120,524.167,120,553.333,120,582.5C120,611.667,120,640.833,115.238,663.75C110.476,686.667,100.952,703.333,96.19,711.667L91.429,720" class="er relationshipLine"/>
  <path style="stroke: gray; fill: none;" marker-start="url(#ONLY_ONE_START)" marker-end="url(#ZERO_OR_MORE_END)" d="M1474.505,95L1475.296,103.333C1476.088,111.667,1477.671,128.333,1478.463,151.25C1479.254,174.167,1479.254,203.333,1479.254,232.5C1479.254,261.667,1479.254,290.833,1479.254,320C1479.254,349.167,1479.254,378.333,1479.254,407.5C1479.254,436.667,1479.254,465.833,1459.964,490.601C1440.674,515.368,1402.094,535.736,1382.804,545.919L1363.514,556.103" class="er relationshipLine"/>
  <path style="stroke: gray; fill: none;" marker-start="url(#ONLY_ONE_START)" marker-end="url(#ZERO_OR_MORE_END)" d="M1521.431,89.44L1536.068,98.7C1550.705,107.96,1579.98,126.48,1594.617,150.323C1609.254,174.167,1609.254,203.333,1609.254,232.5C1609.254,261.667,1609.254,290.833,1609.254,320C1609.254,349.167,1609.254,378.333,1609.254,407.5C1609.254,436.667,1609.254,465.833,1609.254,495C1609.254,524.167,1609.254,553.333,1609.254,582.5C1609.254,611.667,1609.254,640.833,1590.798,665.464C1572.341,690.094,1535.428,710.188,1516.971,720.235L1498.514,730.282" class="er relationshipLine"/>
  <path style="stroke: gray; fill: none;" marker-start="url(#ONLY_ONE_START)" marker-end="url(#ZERO_OR_MORE_END)" d="M844.375,929.765L950.296,923.971C1056.217,918.177,1268.058,906.588,1400.459,900.794C1532.86,895,1585.82,895,1638.78,901.25C1691.741,907.5,1744.701,920,1744.701,932.5C1744.701,945,1691.741,957.5,1638.78,963.75C1585.82,970,1532.86,970,1400.459,964.206C1268.058,958.412,1056.217,946.823,950.296,941.029L844.375,935.235" class="er relationshipLine"/>
  <path style="stroke: gray; fill: none;" marker-start="url(#ONLY_ONE_START)" marker-end="url(#ZERO_OR_MORE_END)" d="M794.375,970L794.375,978.333C794.375,986.667,794.375,1003.333,794.375,1020C794.375,1036.667,794.375,1053.333,794.375,1061.667L794.375,1070" class="er relationshipLine"/>
  <path style="stroke: gray; fill: none;" marker-start="url(#ONLY_ONE_START)" marker-end="url(#ZERO_OR_ONE_END)" d="M833.923,385.198L809.223,374.331C784.523,363.465,735.123,341.733,719.979,322.533C704.836,303.333,723.95,286.667,733.507,278.333L743.064,270" class="er relationshipLine"/>
  <path style="stroke: gray; fill: none;" marker-start="url(#ONLY_ONE_START)" marker-end="url(#ZERO_OR_ONE_END)" d="M833.923,415.384L748.595,428.653C663.266,441.922,492.61,468.461,407.281,490.064C321.953,511.667,321.953,528.333,321.953,536.667L321.953,545" class="er relationshipLine"/>
  <path style="stroke: gray; fill: none;" marker-start="url(#ONLY_ONE_START)" marker-end="url(#ZERO_OR_MORE_END)" d="M935.314,397.892L959.84,393.243C984.367,388.594,1033.42,379.297,1064.079,374.649C1094.737,370,1107,370,1119.264,376.25C1131.527,382.5,1143.79,395,1143.79,407.5C1143.79,420,1131.527,432.5,1119.264,438.75C1107,445,1094.737,445,1064.079,440.351C1033.42,435.703,984.367,426.406,959.84,421.757L935.314,417.108" class="er relationshipLine"/>
  <path style="stroke: gray; fill: none;" marker-start="url(#ONLY_ONE_START)" marker-end="url(#ZERO_OR_MORE_END)" d="M833.923,423.261L795.465,435.217C757.006,447.174,680.089,471.087,641.631,491.377C603.173,511.667,603.173,528.333,603.173,536.667L603.173,545" class="er relationshipLine"/>
  <path style="stroke: gray; fill: none;" marker-start="url(#ONLY_ONE_START)" marker-end="url(#ZERO_OR_MORE_END)" d="M935.314,416.468L1009.304,429.557C1083.294,442.645,1231.274,468.823,1299.003,490.245C1366.732,511.667,1354.211,528.333,1347.95,536.667L1341.689,545" class="er relationshipLine"/>
  <path style="stroke: gray; fill: none;" marker-start="url(#ONLY_ONE_START)" marker-end="url(#ZERO_OR_MORE_END)" d="M786.07,270L786.07,278.333C786.07,286.667,786.07,303.333,795.456,320C804.841,336.667,823.612,353.333,832.998,361.667L842.383,370" class="er relationshipLine"/>
  <path style="stroke: gray; fill: none;" marker-start="url(#ONLY_ONE_START)" marker-end="url(#ZERO_OR_MORE_END)" d="M700.207,270L681.126,278.333C662.045,286.667,623.884,303.333,604.803,320C585.722,336.667,585.722,353.333,585.722,361.667L585.722,370" class="er relationshipLine"/>
  <path style="stroke: gray; fill: none;" marker-start="url(#ONLY_ONE_START)" marker-end="url(#ZERO_OR_MORE_END)" d="M635.722,425.233L668.509,436.861C701.295,448.489,766.867,471.744,799.653,491.705C832.439,511.667,832.439,528.333,832.439,536.667L832.439,545" class="er relationshipLine"/>
  <path style="stroke: gray; fill: none;" marker-start="url(#ONLY_ONE_START)" marker-end="url(#ZERO_OR_MORE_END)" d="M1964.142,795L1964.142,803.333C1964.142,811.667,1964.142,828.333,1964.142,845C1964.142,861.667,1964.142,878.333,1964.142,886.667L1964.142,895" class="er relationshipLine"/>
  <path style="stroke: gray; fill: none;" marker-start="url(#ONLY_ONE_START)" marker-end="url(#ZERO_OR_MORE_END)" d="M1909.224,761.502L1718.253,775.418C1527.282,789.335,1145.34,817.167,957.32,839.417C769.299,861.667,775.199,878.333,778.15,886.667L781.1,895" class="er relationshipLine"/>
  <path style="stroke: gray; fill: none;" marker-start="url(#ONLY_ONE_START)" marker-end="url(#ZERO_OR_MORE_END)" d="M1909.224,720.504L1896.729,712.086C1884.234,703.669,1859.244,686.835,1768.293,665.234C1677.341,643.634,1520.428,617.268,1441.971,604.085L1363.514,590.902" class="er relationshipLine"/>
  <path style="stroke: gray; fill: none;" marker-start="url(#ONLY_ONE_START)" marker-end="url(#ZERO_OR_ONE_END)" d="M1298.831,545L1295.569,536.667C1292.306,528.333,1285.78,511.667,1282.517,488.75C1279.254,465.833,1279.254,436.667,1279.254,407.5C1279.254,378.333,1279.254,349.167,1213.24,322.871C1147.225,296.576,1015.196,273.151,949.181,261.439L883.167,249.727" class="er relationshipLine"/>
  <path style="stroke: gray; fill: none;" marker-start="url(#ONLY_ONE_START)" marker-end="url(#ZERO_OR_MORE_END)" d="M1263.514,585.584L1035.429,599.654C807.343,613.723,351.171,641.861,123.086,670.514C-105,699.167,-105,728.333,-105,757.5C-105,786.667,-105,815.833,36.563,844.189C178.125,872.545,461.25,900.09,602.813,913.863L744.375,927.636" class="er relationshipLine"/>
  <path style="stroke: gray; fill: none;" marker-start="url(#ONLY_ONE_START)" marker-end="url(#ZERO_OR_MORE_END)" d="M1263.514,566.896L1225.118,554.913C1186.721,542.931,1109.928,518.965,1055.228,497.377C1000.527,475.789,967.921,456.578,951.617,446.973L935.314,437.368" class="er relationshipLine"/>
  <path style="stroke: gray; fill: none;" marker-start="url(#ONLY_ONE_START)" marker-end="url(#ZERO_OR_MORE_END)" d="M1363.514,589.548L1458.638,602.957C1553.761,616.365,1744.008,643.183,1841.977,664.925C1939.947,686.667,1945.64,703.333,1948.486,711.667L1951.333,720" class="er relationshipLine"/>
  <path style="stroke: gray; fill: none;" marker-start="url(#ONLY_ONE_START)" marker-end="url(#ZERO_OR_MORE_END)" d="M1263.514,585.882L1056.262,599.902C849.009,613.922,434.505,641.961,232.014,664.314C29.524,686.667,39.048,703.333,43.81,711.667L48.571,720" class="er relationshipLine"/>
  <path style="stroke: gray; fill: none;" marker-start="url(#ONLY_ONE_START)" marker-end="url(#ZERO_OR_MORE_END)" d="M1363.514,569.463L1379.152,565.386C1394.79,561.309,1426.065,553.154,1445.613,549.077C1465.16,545,1472.979,545,1480.798,551.25C1488.617,557.5,1496.435,570,1496.435,582.5C1496.435,595,1488.617,607.5,1480.798,613.75C1472.979,620,1465.16,620,1445.613,615.923C1426.065,611.846,1394.79,603.691,1379.152,599.614L1363.514,595.537" class="er relationshipLine"/>
  <path style="stroke: gray; fill: none;" marker-start="url(#ONLY_ONE_START)" marker-end="url(#ZERO_OR_MORE_END)" d="M1313.514,620L1313.514,628.333C1313.514,636.667,1313.514,653.333,1327.681,670.849C1341.848,688.364,1370.181,706.728,1384.348,715.91L1398.514,725.093" class="er relationshipLine"/>
  <g transform="translate(1420.4543113708496,20 )" id="entity-CurrencyUnit-a0da3988-e1d3-59ca-bbe1-43394cc421e8">
    <rect height="75" width="100.97645568847656" y="0" x="0" class="er entityBox"/>
    <text style="dominant-baseline: middle; text-anchor: middle; font-size: 12px;" transform="translate(50.48822784423828,37.5)" y="0" x="0" id="text-entity-CurrencyUnit-a0da3988-e1d3-59ca-bbe1-43394cc421e8" class="er entityLabel">CurrencyUnit</text>
  </g>
  <g transform="translate(744.3753318786621,895 )" id="entity-Prefix-f6d97b99-faee-5974-b12e-390868d79e86">
    <rect height="75" width="100" y="0" x="0" class="er entityBox"/>
    <text style="dominant-baseline: middle; text-anchor: middle; font-size: 12px;" transform="translate(50,37.5)" y="0" x="0" id="text-entity-Prefix-f6d97b99-faee-5974-b12e-390868d79e86" class="er entityLabel">Prefix</text>
  </g>
  <g transform="translate(833.9230079650879,370 )" id="entity-QuantityKind-6f79b338-e354-5d95-8035-8883644476ff">
    <rect height="75" width="101.390625" y="0" x="0" class="er entityBox"/>
    <text style="dominant-baseline: middle; text-anchor: middle; font-size: 12px;" transform="translate(50.6953125,37.5)" y="0" x="0" id="text-entity-QuantityKind-6f79b338-e354-5d95-8035-8883644476ff" class="er entityLabel">QuantityKind</text>
  </g>
  <g transform="translate(688.9735069274902,195 )" id="entity-QuantityKindDimensionVector-bfa1bf26-fcae-516f-8f63-2f454f3dac1b">
    <rect height="75" width="194.19308471679688" y="0" x="0" class="er entityBox"/>
    <text style="dominant-baseline: middle; text-anchor: middle; font-size: 12px;" transform="translate(97.09654235839844,37.5)" y="0" x="0" id="text-entity-QuantityKindDimensionVector-bfa1bf26-fcae-516f-8f63-2f454f3dac1b" class="er entityLabel">QuantityKindDimensionVector</text>
  </g>
  <g transform="translate(535.7223930358887,370 )" id="entity-Rule-886caf8e-59ff-5db3-a492-27242971196f">
    <rect height="75" width="100" y="0" x="0" class="er entityBox"/>
    <text style="dominant-baseline: middle; text-anchor: middle; font-size: 12px;" transform="translate(50,37.5)" y="0" x="0" id="text-entity-Rule-886caf8e-59ff-5db3-a492-27242971196f" class="er entityLabel">Rule</text>
  </g>
  <g transform="translate(1909.2235565185547,720 )" id="entity-SystemOfUnits-f7f1da8e-a5af-50e1-94d0-c2e741f40e1d">
    <rect height="75" width="109.83651733398438" y="0" x="0" class="er entityBox"/>
    <text style="dominant-baseline: middle; text-anchor: middle; font-size: 12px;" transform="translate(54.91825866699219,37.5)" y="0" x="0" id="text-entity-SystemOfUnits-f7f1da8e-a5af-50e1-94d0-c2e741f40e1d" class="er entityLabel">SystemOfUnits</text>
  </g>
  <g transform="translate(20,720 )" id="entity-UCUMcs-8df33f70-0c53-5f8e-a81f-0969bc803a34">
    <rect height="75" width="100" y="0" x="0" class="er entityBox"/>
    <text style="dominant-baseline: middle; text-anchor: middle; font-size: 12px;" transform="translate(50,37.5)" y="0" x="0" id="text-entity-UCUMcs-8df33f70-0c53-5f8e-a81f-0969bc803a34" class="er entityLabel">UCUMcs</text>
  </g>
  <g transform="translate(1263.514247894287,545 )" id="entity-Unit-c57ac1ea-0a24-509a-a80e-23f8c03ca739">
    <rect height="75" width="100" y="0" x="0" class="er entityBox"/>
    <text style="dominant-baseline: middle; text-anchor: middle; font-size: 12px;" transform="translate(50,37.5)" y="0" x="0" id="text-entity-Unit-c57ac1ea-0a24-509a-a80e-23f8c03ca739" class="er entityLabel">Unit</text>
  </g>
  <g transform="translate(1398.514247894287,720 )" id="entity-Class-d9e3eb4a-97c0-50b6-8e3f-7f4a2fa7283d">
    <rect height="75" width="100" y="0" x="0" class="er entityBox"/>
    <text style="dominant-baseline: middle; text-anchor: middle; font-size: 12px;" transform="translate(50,37.5)" y="0" x="0" id="text-entity-Class-d9e3eb4a-97c0-50b6-8e3f-7f4a2fa7283d" class="er entityLabel">__Class</text>
  </g>
  <g transform="translate(742.6565818786621,1070 )" id="entity-UCUMcsterm-f108a9d5-75dc-5824-aae7-181f348ae82a">
    <rect height="75" width="103.4375" y="0" x="0" class="er entityBox"/>
    <text style="dominant-baseline: middle; text-anchor: middle; font-size: 12px;" transform="translate(51.71875,37.5)" y="0" x="0" id="text-entity-UCUMcsterm-f108a9d5-75dc-5824-aae7-181f348ae82a" class="er entityLabel">UCUMcs-term</text>
  </g>
  <g transform="translate(220,545 )" id="entity-QuantityKindDimensionVectorSI-2681a9c0-d385-5c75-b278-85a805bca5b5">
    <rect height="75" width="203.90625" y="0" x="0" class="er entityBox"/>
    <text style="dominant-baseline: middle; text-anchor: middle; font-size: 12px;" transform="translate(101.953125,37.5)" y="0" x="0" id="text-entity-QuantityKindDimensionVectorSI-2681a9c0-d385-5c75-b278-85a805bca5b5" class="er entityLabel">QuantityKindDimensionVectorSI</text>
  </g>
  <g transform="translate(523.90625,545 )" id="entity-SystemOfQuantityKinds-09c2a533-d4ff-5ffb-9642-53498359216a">
    <rect height="75" width="158.53285217285156" y="0" x="0" class="er entityBox"/>
    <text style="dominant-baseline: middle; text-anchor: middle; font-size: 12px;" transform="translate(79.26642608642578,37.5)" y="0" x="0" id="text-entity-SystemOfQuantityKinds-09c2a533-d4ff-5ffb-9642-53498359216a" class="er entityLabel">SystemOfQuantityKinds</text>
  </g>
  <g transform="translate(782.4391021728516,545 )" id="entity-RuleType-d54df1a6-a17d-5920-9344-6f805c739e55">
    <rect height="75" width="100" y="0" x="0" class="er entityBox"/>
    <text style="dominant-baseline: middle; text-anchor: middle; font-size: 12px;" transform="translate(50,37.5)" y="0" x="0" id="text-entity-RuleType-d54df1a6-a17d-5920-9344-6f805c739e55" class="er entityLabel">RuleType</text>
  </g>
  <g transform="translate(1902.661521911621,895 )" id="entity-PhysicalConstant-f43f8855-cf72-5deb-8dd3-7b0283708583">
    <rect height="75" width="122.96058654785156" y="0" x="0" class="er entityBox"/>
    <text style="dominant-baseline: middle; text-anchor: middle; font-size: 12px;" transform="translate(61.48029327392578,37.5)" y="0" x="0" id="text-entity-PhysicalConstant-f43f8855-cf72-5deb-8dd3-7b0283708583" class="er entityLabel">PhysicalConstant</text>
  </g>
  <rect height="14" width="304.4981689453125" y="100.18154907226562" x="939.2676391601562" class="er relationshipLabelBox"/>
  <text style="text-anchor: middle; dominant-baseline: middle; font-size: 12px;" y="107.18154907226562" x="1091.5167236328125" id="rel1" class="er relationshipLabel">hasDimensionVector, qkdvDenominator, qkdvNumerator</text>
  <rect height="14" width="30.8402099609375" y="799.9414672851562" x="1691.8472290039062" class="er relationshipLabelBox"/>
  <text style="text-anchor: middle; dominant-baseline: middle; font-size: 12px;" y="806.9414672851562" x="1707.267333984375" id="rel2" class="er relationshipLabel">prefix</text>
  <rect height="14" width="90.4375" y="226.72706604003906" x="1134.03466796875" class="er relationshipLabelBox"/>
  <text style="text-anchor: middle; dominant-baseline: middle; font-size: 12px;" y="233.72706604003906" x="1179.25341796875" id="rel3" class="er relationshipLabel">hasQuantityKind</text>
  <rect height="14" width="597.5625" y="190.87132263183594" x="1730.1370849609375" class="er relationshipLabelBox"/>
  <text style="text-anchor: middle; dominant-baseline: middle; font-size: 12px;" y="197.87132263183594" x="2028.9183349609375" id="rel4" class="er relationshipLabel">applicableSystem, definedUnitOfSystem, derivedCoherentUnitOfSystem, derivedUnitOfSystem, isUnitOfSystem</text>
  <rect height="14" width="57.078125" y="119.78457641601562" x="479.0985107421875" class="er relationshipLabelBox"/>
  <text style="text-anchor: middle; dominant-baseline: middle; font-size: 12px;" y="126.78457641601562" x="507.6375732421875" id="rel5" class="er relationshipLabel">ucumCode</text>
  <rect height="14" width="223.1495361328125" y="346.4280700683594" x="1367.6792602539062" class="er relationshipLabelBox"/>
  <text style="text-anchor: middle; dominant-baseline: middle; font-size: 12px;" y="353.4280700683594" x="1479.2540283203125" id="rel6" class="er relationshipLabel">exactMatch, hasReciprocalUnit, scalingOf</text>
  <rect height="14" width="75.6324462890625" y="410.3074951171875" x="1571.4378051757812" class="er relationshipLabelBox"/>
  <text style="text-anchor: middle; dominant-baseline: middle; font-size: 12px;" y="417.3074951171875" x="1609.2540283203125" id="rel7" class="er relationshipLabel">hasFactorUnit</text>
  <rect height="14" width="61.453125" y="925.4999389648438" x="1713.9744873046875" class="er relationshipLabelBox"/>
  <text style="text-anchor: middle; dominant-baseline: middle; font-size: 12px;" y="932.4999389648438" x="1744.7010498046875" id="rel8" class="er relationshipLabel">exactMatch</text>
  <rect height="14" width="57.078125" y="1013" x="765.8359375" class="er relationshipLabelBox"/>
  <text style="text-anchor: middle; dominant-baseline: middle; font-size: 12px;" y="1020" x="794.375" id="rel9" class="er relationshipLabel">ucumCode</text>
  <rect height="14" width="304.4981689453125" y="335.8864440917969" x="593.4253540039062" class="er relationshipLabelBox"/>
  <text style="text-anchor: middle; dominant-baseline: middle; font-size: 12px;" y="342.8864440917969" x="745.6744384765625" id="rel10" class="er relationshipLabel">hasDimensionVector, qkdvDenominator, qkdvNumerator</text>
  <rect height="14" width="119.078125" y="451.4097595214844" x="505.81146240234375" class="er relationshipLabelBox"/>
  <text style="text-anchor: middle; dominant-baseline: middle; font-size: 12px;" y="458.4097595214844" x="565.3505249023438" id="rel11" class="er relationshipLabel">dimensionVectorForSI</text>
  <rect height="14" width="61.453125" y="400.5" x="1113.0634765625" class="er relationshipLabelBox"/>
  <text style="text-anchor: middle; dominant-baseline: middle; font-size: 12px;" y="407.5" x="1143.7900390625" id="rel12" class="er relationshipLabel">exactMatch</text>
  <rect height="14" width="163.4290771484375" y="458.6863708496094" x="621.2616577148438" class="er relationshipLabelBox"/>
  <text style="text-anchor: middle; dominant-baseline: middle; font-size: 12px;" y="465.6863708496094" x="702.9761962890625" id="rel13" class="er relationshipLabel">belongsToSystemOfQuantities</text>
  <rect height="14" width="675.5765380859375" y="450.9811706542969" x="824.7438354492188" class="er relationshipLabelBox"/>
  <text style="text-anchor: middle; dominant-baseline: middle; font-size: 12px;" y="457.9811706542969" x="1162.5321044921875" id="rel14" class="er relationshipLabel">applicableCGSUnit, applicableISOUnit, applicableImperialUnit, applicableSIUnit, applicableUSCustomaryUnit, applicableUnit</text>
  <rect height="14" width="144.375" y="320.2898864746094" x="727.932373046875" class="er relationshipLabelBox"/>
  <text style="text-anchor: middle; dominant-baseline: middle; font-size: 12px;" y="327.2898864746094" x="800.119873046875" id="rel15" class="er relationshipLabel">hasReferenceQuantityKind</text>
  <rect height="14" width="43.296875" y="298.148193359375" x="604.5798950195312" class="er relationshipLabelBox"/>
  <text style="text-anchor: middle; dominant-baseline: middle; font-size: 12px;" y="305.148193359375" x="626.2283325195312" id="rel16" class="er relationshipLabel">hasRule</text>
  <rect height="14" width="46.921875" y="460.6748352050781" x="726.62353515625" class="er relationshipLabelBox"/>
  <text style="text-anchor: middle; dominant-baseline: middle; font-size: 12px;" y="467.6748352050781" x="750.08447265625" id="rel17" class="er relationshipLabel">ruleType</text>
  <rect height="14" width="149.9129638671875" y="838" x="1889.1854858398438" class="er relationshipLabelBox"/>
  <text style="text-anchor: middle; dominant-baseline: middle; font-size: 12px;" y="845" x="1964.1419677734375" id="rel18" class="er relationshipLabel">applicablePhysicalConstant</text>
  <rect height="14" width="30.8402099609375" y="797.6448974609375" x="1316.9013061523438" class="er relationshipLabelBox"/>
  <text style="text-anchor: middle; dominant-baseline: middle; font-size: 12px;" y="804.6448974609375" x="1332.3214111328125" id="rel19" class="er relationshipLabel">prefix</text>
  <rect height="14" width="622.59619140625" y="632.0548095703125" x="1330.115966796875" class="er relationshipLabelBox"/>
  <text style="text-anchor: middle; dominant-baseline: middle; font-size: 12px;" y="639.0548095703125" x="1641.4140625" id="rel20" class="er relationshipLabel">hasAllowedUnit, hasBaseUnit, hasCoherentUnit, hasDefinedUnit, hasDerivedCoherentUnit, hasDerivedUnit, hasUnit</text>
  <rect height="14" width="304.4981689453125" y="302.81622314453125" x="1022.4600219726562" class="er relationshipLabelBox"/>
  <text style="text-anchor: middle; dominant-baseline: middle; font-size: 12px;" y="309.81622314453125" x="1174.7091064453125" id="rel21" class="er relationshipLabel">hasDimensionVector, qkdvDenominator, qkdvNumerator</text>
  <rect height="14" width="30.840179443359375" y="664.2429809570312" x="101.91613006591797" class="er relationshipLabelBox"/>
  <text style="text-anchor: middle; dominant-baseline: middle; font-size: 12px;" y="671.2429809570312" x="117.33621978759766" id="rel22" class="er relationshipLabel">prefix</text>
  <rect height="14" width="90.4375" y="505.28570556640625" x="1049.99560546875" class="er relationshipLabelBox"/>
  <text style="text-anchor: middle; dominant-baseline: middle; font-size: 12px;" y="512.2857055664062" x="1095.21435546875" id="rel23" class="er relationshipLabel">hasQuantityKind</text>
  <rect height="14" width="597.5625" y="626.5597534179688" x="1368.0357666015625" class="er relationshipLabelBox"/>
  <text style="text-anchor: middle; dominant-baseline: middle; font-size: 12px;" y="633.5597534179688" x="1666.8170166015625" id="rel24" class="er relationshipLabel">applicableSystem, definedUnitOfSystem, derivedCoherentUnitOfSystem, derivedUnitOfSystem, isUnitOfSystem</text>
  <rect height="14" width="57.078125" y="622.0728149414062" x="612.6192626953125" class="er relationshipLabelBox"/>
  <text style="text-anchor: middle; dominant-baseline: middle; font-size: 12px;" y="629.0728149414062" x="641.1583251953125" id="rel25" class="er relationshipLabel">ucumCode</text>
  <rect height="14" width="223.1495361328125" y="575.5" x="1384.8602905273438" class="er relationshipLabelBox"/>
  <text style="text-anchor: middle; dominant-baseline: middle; font-size: 12px;" y="582.5" x="1496.43505859375" id="rel26" class="er relationshipLabel">exactMatch, hasReciprocalUnit, scalingOf</text>
  <rect height="14" width="75.632568359375" y="676.52490234375" x="1302.1864013671875" class="er relationshipLabelBox"/>
  <text style="text-anchor: middle; dominant-baseline: middle; font-size: 12px;" y="683.52490234375" x="1340.002685546875" id="rel27" class="er relationshipLabel">hasFactorUnit</text>
</svg>
