<svg xmlns="http://www.w3.org/2000/svg" aria-roledescription="er" role="graphics-document document" viewBox="-200 0 2092.5791015625 990" height="990" width="2092.5791015625" id="container">
  <style>#container{font-family:"trebuchet ms",verdana,arial,sans-serif;font-size:16px;fill:#333;}#container .error-icon{fill:#552222;}#container .error-text{fill:#552222;stroke:#552222;}#container .edge-thickness-normal{stroke-width:1px;}#container .edge-thickness-thick{stroke-width:3.5px;}#container .edge-pattern-solid{stroke-dasharray:0;}#container .edge-thickness-invisible{stroke-width:0;fill:none;}#container .edge-pattern-dashed{stroke-dasharray:3;}#container .edge-pattern-dotted{stroke-dasharray:2;}#container .marker{fill:#333333;stroke:#333333;}#container .marker.cross{stroke:#333333;}#container svg{font-family:"trebuchet ms",verdana,arial,sans-serif;font-size:16px;}#container p{margin:0;}#container .entityBox{fill:#ECECFF;stroke:#9370DB;}#container .attributeBoxOdd{fill:#ffffff;stroke:#9370DB;}#container .attributeBoxEven{fill:#f2f2f2;stroke:#9370DB;}#container .relationshipLabelBox{fill:hsl(80, 100%, 96.2745098039%);opacity:0.7;background-color:hsl(80, 100%, 96.2745098039%);}#container .relationshipLabelBox rect{opacity:0.5;}#container .relationshipLine{stroke:#333333;}#container .entityTitleText{text-anchor:middle;font-size:18px;fill:#333;}#container #MD_PARENT_START{fill:#f5f5f5!important;stroke:#333333!important;stroke-width:1;}#container #MD_PARENT_END{fill:#f5f5f5!important;stroke:#333333!important;stroke-width:1;}#container :root{--mermaid-font-family:"trebuchet ms",verdana,arial,sans-serif;}</style>
  <g/>
  <defs>
    <marker orient="auto" markerHeight="240" markerWidth="190" refY="7" refX="0" id="MD_PARENT_START">
      <path d="M 18,7 L9,13 L1,7 L9,1 Z"/>
    </marker>
  </defs>
  <defs>
    <marker orient="auto" markerHeight="28" markerWidth="20" refY="7" refX="19" id="MD_PARENT_END">
      <path d="M 18,7 L9,13 L1,7 L9,1 Z"/>
    </marker>
  </defs>
  <defs>
    <marker orient="auto" markerHeight="18" markerWidth="18" refY="9" refX="0" id="ONLY_ONE_START">
      <path d="M9,0 L9,18 M15,0 L15,18" fill="none" stroke="gray"/>
    </marker>
  </defs>
  <defs>
    <marker orient="auto" markerHeight="18" markerWidth="18" refY="9" refX="18" id="ONLY_ONE_END">
      <path d="M3,0 L3,18 M9,0 L9,18" fill="none" stroke="gray"/>
    </marker>
  </defs>
  <defs>
    <marker orient="auto" markerHeight="18" markerWidth="30" refY="9" refX="0" id="ZERO_OR_ONE_START">
      <circle r="6" cy="9" cx="21" fill="white" stroke="gray"/>
      <path d="M9,0 L9,18" fill="none" stroke="gray"/>
    </marker>
  </defs>
  <defs>
    <marker orient="auto" markerHeight="18" markerWidth="30" refY="9" refX="30" id="ZERO_OR_ONE_END">
      <circle r="6" cy="9" cx="9" fill="white" stroke="gray"/>
      <path d="M21,0 L21,18" fill="none" stroke="gray"/>
    </marker>
  </defs>
  <defs>
    <marker orient="auto" markerHeight="36" markerWidth="45" refY="18" refX="18" id="ONE_OR_MORE_START">
      <path d="M0,18 Q 18,0 36,18 Q 18,36 0,18 M42,9 L42,27" fill="none" stroke="gray"/>
    </marker>
  </defs>
  <defs>
    <marker orient="auto" markerHeight="36" markerWidth="45" refY="18" refX="27" id="ONE_OR_MORE_END">
      <path d="M3,9 L3,27 M9,18 Q27,0 45,18 Q27,36 9,18" fill="none" stroke="gray"/>
    </marker>
  </defs>
  <defs>
    <marker orient="auto" markerHeight="36" markerWidth="57" refY="18" refX="18" id="ZERO_OR_MORE_START">
      <circle r="6" cy="18" cx="48" fill="white" stroke="gray"/>
      <path d="M0,18 Q18,0 36,18 Q18,36 0,18" fill="none" stroke="gray"/>
    </marker>
  </defs>
  <defs>
    <marker orient="auto" markerHeight="36" markerWidth="57" refY="18" refX="39" id="ZERO_OR_MORE_END">
      <circle r="6" cy="18" cx="9" fill="white" stroke="gray"/>
      <path d="M21,18 Q39,0 57,18 Q39,36 21,18" fill="none" stroke="gray"/>
    </marker>
  </defs>
  <path style="stroke: gray; fill: none;" marker-start="url(#ONLY_ONE_START)" marker-end="url(#ZERO_OR_MORE_END)" d="M979.032,746.271L998.528,741.892C1018.025,737.514,1057.017,728.757,1081.388,724.378C1105.758,720,1115.506,720,1125.254,726.25C1135.003,732.5,1144.751,745,1144.751,757.5C1144.751,770,1135.003,782.5,1125.254,788.75C1115.506,795,1105.758,795,1081.388,790.622C1057.017,786.243,1018.025,777.486,998.528,773.108L979.032,768.729" class="er relationshipLine"/>
  <path style="stroke: gray; fill: none;" marker-start="url(#ONLY_ONE_START)" marker-end="url(#ZERO_OR_MORE_END)" d="M929.032,795L929.032,803.333C929.032,811.667,929.032,828.333,929.032,845C929.032,861.667,929.032,878.333,929.032,886.667L929.032,895" class="er relationshipLine"/>
  <path style="stroke: gray; fill: none;" marker-start="url(#ONLY_ONE_START)" marker-end="url(#ZERO_OR_ONE_END)" d="M544.277,241.878L473.889,254.898C403.502,267.918,262.728,293.959,192.34,315.313C121.953,336.667,121.953,353.333,121.953,361.667L121.953,370" class="er relationshipLine"/>
  <path style="stroke: gray; fill: none;" marker-start="url(#ONLY_ONE_START)" marker-end="url(#ZERO_OR_MORE_END)" d="M645.667,229.137L731.435,223.448C817.203,217.758,988.739,206.379,1095.949,200.69C1203.159,195,1246.043,195,1288.927,201.25C1331.811,207.5,1374.695,220,1374.695,232.5C1374.695,245,1331.811,257.5,1288.927,263.75C1246.043,270,1203.159,270,1095.949,264.31C988.739,258.621,817.203,247.242,731.435,241.552L645.667,235.863" class="er relationshipLine"/>
  <path style="stroke: gray; fill: none;" marker-start="url(#ONLY_ONE_START)" marker-end="url(#ZERO_OR_MORE_END)" d="M544.277,248.864L507.548,260.72C470.82,272.576,397.363,296.288,360.635,322.727C323.906,349.167,323.906,378.333,323.906,407.5C323.906,436.667,323.906,465.833,347.806,489.112C371.705,512.391,419.504,529.782,443.403,538.477L467.302,547.173" class="er relationshipLine"/>
  <path style="stroke: gray; fill: none;" marker-start="url(#ONLY_ONE_START)" marker-end="url(#ZERO_OR_MORE_END)" d="M555.629,270L546.887,278.333C538.144,286.667,520.658,303.333,511.915,320C503.173,336.667,503.173,353.333,503.173,361.667L503.173,370" class="er relationshipLine"/>
  <path style="stroke: gray; fill: none;" marker-start="url(#ONLY_ONE_START)" marker-end="url(#ZERO_OR_MORE_END)" d="M598.486,270L599.268,278.333C600.049,286.667,601.611,303.333,688.693,324.966C775.775,346.598,948.377,373.197,1034.678,386.496L1120.979,399.795" class="er relationshipLine"/>
  <path style="stroke: gray; fill: none;" marker-start="url(#ONLY_ONE_START)" marker-end="url(#ZERO_OR_MORE_END)" d="M623.873,545L637.09,536.667C650.306,528.333,676.74,511.667,689.956,488.75C703.173,465.833,703.173,436.667,703.173,407.5C703.173,378.333,703.173,349.167,692.868,326.25C682.563,303.333,661.953,286.667,651.648,278.333L641.344,270" class="er relationshipLine"/>
  <path style="stroke: gray; fill: none;" marker-start="url(#ONLY_ONE_START)" marker-end="url(#ZERO_OR_MORE_END)" d="M564.399,620L564.399,628.333C564.399,636.667,564.399,653.333,559.555,670C554.711,686.667,545.024,703.333,540.18,711.667L535.336,720" class="er relationshipLine"/>
  <path style="stroke: gray; fill: none;" marker-start="url(#ONLY_ONE_START)" marker-end="url(#ZERO_OR_MORE_END)" d="M513.539,795L513.539,803.333C513.539,811.667,513.539,828.333,513.539,845C513.539,861.667,513.539,878.333,513.539,886.667L513.539,895" class="er relationshipLine"/>
  <path style="stroke: gray; fill: none;" marker-start="url(#ONLY_ONE_START)" marker-end="url(#ZERO_OR_ONE_END)" d="M1564.556,60.201L1273.796,74.334C983.037,88.467,401.519,116.734,110.759,145.45C-180,174.167,-180,203.333,-180,232.5C-180,261.667,-180,290.833,-180,320C-180,349.167,-180,378.333,-180,407.5C-180,436.667,-180,465.833,-72.116,493.098C35.767,520.362,251.535,545.725,359.419,558.406L467.302,571.087" class="er relationshipLine"/>
  <path style="stroke: gray; fill: none;" marker-start="url(#ONLY_ONE_START)" marker-end="url(#ZERO_OR_MORE_END)" d="M1564.556,60.36L1290.463,74.466C1016.37,88.573,468.185,116.787,194.093,145.477C-80,174.167,-80,203.333,-80,232.5C-80,261.667,-80,290.833,-80,320C-80,349.167,-80,378.333,-80,407.5C-80,436.667,-80,465.833,-80,495C-80,524.167,-80,553.333,-80,582.5C-80,611.667,-80,640.833,79.839,669.277C239.677,697.721,559.355,725.443,719.193,739.303L879.032,753.164" class="er relationshipLine"/>
  <path style="stroke: gray; fill: none;" marker-start="url(#ONLY_ONE_START)" marker-end="url(#ZERO_OR_MORE_END)" d="M1564.556,62.243L1402.958,76.036C1241.361,89.828,918.166,117.414,756.569,139.54C594.972,161.667,594.972,178.333,594.972,186.667L594.972,195" class="er relationshipLine"/>
  <path style="stroke: gray; fill: none;" marker-start="url(#ONLY_ONE_START)" marker-end="url(#ZERO_OR_MORE_END)" d="M1578.317,95L1569.027,103.333C1559.737,111.667,1541.158,128.333,1531.869,151.25C1522.579,174.167,1522.579,203.333,1522.579,232.5C1522.579,261.667,1522.579,290.833,1522.579,320C1522.579,349.167,1522.579,378.333,1522.579,407.5C1522.579,436.667,1522.579,465.833,1501.264,490.619C1479.949,515.405,1437.32,535.809,1416.005,546.011L1394.69,556.214" class="er relationshipLine"/>
  <path style="stroke: gray; fill: none;" marker-start="url(#ONLY_ONE_START)" marker-end="url(#ZERO_OR_MORE_END)" d="M1621.174,95L1621.408,103.333C1621.642,111.667,1622.111,128.333,1622.345,151.25C1622.579,174.167,1622.579,203.333,1622.579,232.5C1622.579,261.667,1622.579,290.833,1622.579,320C1622.579,349.167,1622.579,378.333,1622.579,407.5C1622.579,436.667,1622.579,465.833,1622.579,488.75C1622.579,511.667,1622.579,528.333,1622.579,536.667L1622.579,545" class="er relationshipLine"/>
  <path style="stroke: gray; fill: none;" marker-start="url(#ONLY_ONE_START)" marker-end="url(#ZERO_OR_MORE_END)" d="M1664.031,95L1673.789,103.333C1683.547,111.667,1703.063,128.333,1712.821,151.25C1722.579,174.167,1722.579,203.333,1722.579,232.5C1722.579,261.667,1722.579,290.833,1638.979,318.678C1555.379,346.523,1388.179,373.046,1304.579,386.307L1220.979,399.569" class="er relationshipLine"/>
  <path style="stroke: gray; fill: none;" marker-start="url(#ONLY_ONE_START)" marker-end="url(#ZERO_OR_MORE_END)" d="M1675.684,81.514L1700.167,92.095C1724.649,102.676,1773.614,123.838,1798.097,149.002C1822.579,174.167,1822.579,203.333,1822.579,232.5C1822.579,261.667,1822.579,290.833,1822.579,320C1822.579,349.167,1822.579,378.333,1822.579,407.5C1822.579,436.667,1822.579,465.833,1822.579,488.75C1822.579,511.667,1822.579,528.333,1822.579,536.667L1822.579,545" class="er relationshipLine"/>
  <path style="stroke: gray; fill: none;" marker-start="url(#ONLY_ONE_START)" marker-end="url(#ZERO_OR_MORE_END)" d="M1284.854,615.26L1269.56,624.384C1254.266,633.507,1223.678,651.753,1220.564,669.21C1217.45,686.667,1241.81,703.333,1253.99,711.667L1266.17,720" class="er relationshipLine"/>
  <path style="stroke: gray; fill: none;" marker-start="url(#ONLY_ONE_START)" marker-end="url(#ZERO_OR_MORE_END)" d="M1353.147,620L1356.119,628.333C1359.091,636.667,1365.035,653.333,1302.683,674.6C1240.33,695.867,1109.681,721.734,1044.357,734.667L979.032,747.601" class="er relationshipLine"/>
  <path style="stroke: gray; fill: none;" marker-start="url(#ONLY_ONE_START)" marker-end="url(#ZERO_OR_MORE_END)" d="M1351.724,545L1354.38,536.667C1357.037,528.333,1362.349,511.667,1340.558,492.457C1318.767,473.248,1269.873,451.496,1245.426,440.62L1220.979,429.744" class="er relationshipLine"/>
  <path style="stroke: gray; fill: none;" marker-start="url(#ONLY_ONE_START)" marker-end="url(#ZERO_OR_ONE_END)" d="M1120.979,420.262L1072.178,432.719C1023.377,445.175,925.775,470.087,849.194,491.759C772.614,513.43,717.054,531.861,689.275,541.076L661.495,550.291" class="er relationshipLine"/>
  <path style="stroke: gray; fill: none;" marker-start="url(#ONLY_ONE_START)" marker-end="url(#ZERO_OR_MORE_END)" d="M1120.979,429.018L1095.426,440.015C1069.873,451.012,1018.767,473.006,993.214,498.586C967.661,524.167,967.661,553.333,967.661,582.5C967.661,611.667,967.661,640.833,963.982,663.75C960.303,686.667,952.945,703.333,949.266,711.667L945.587,720" class="er relationshipLine"/>
  <path style="stroke: gray; fill: none;" marker-start="url(#ONLY_ONE_START)" marker-end="url(#ZERO_OR_MORE_END)" d="M1170.979,370L1170.979,361.667C1170.979,353.333,1170.979,336.667,1083.427,315.034C995.875,293.4,820.771,266.801,733.219,253.501L645.667,240.201" class="er relationshipLine"/>
  <path style="stroke: gray; fill: none;" marker-start="url(#ONLY_ONE_START)" marker-end="url(#ZERO_OR_MORE_END)" d="M1126.7,445L1116.86,453.333C1107.02,461.667,1087.34,478.333,1113.699,498.307C1140.058,518.28,1212.456,541.56,1248.655,553.2L1284.854,564.841" class="er relationshipLine"/>
  <path style="stroke: gray; fill: none;" marker-start="url(#ONLY_ONE_START)" marker-end="url(#ZERO_OR_MORE_END)" d="M1169.557,445L1169.241,453.333C1168.925,461.667,1168.293,478.333,1235.463,499.647C1302.633,520.961,1437.606,546.922,1505.093,559.902L1572.579,572.883" class="er relationshipLine"/>
  <path style="stroke: gray; fill: none;" marker-start="url(#ONLY_ONE_START)" marker-end="url(#ZERO_OR_MORE_END)" d="M1220.979,397.131L1242.785,392.61C1264.591,388.088,1308.202,379.044,1335.46,374.522C1362.717,370,1373.62,370,1384.523,376.25C1395.426,382.5,1406.328,395,1406.328,407.5C1406.328,420,1395.426,432.5,1384.523,438.75C1373.62,445,1362.717,445,1335.46,440.478C1308.202,435.956,1264.591,426.912,1242.785,422.39L1220.979,417.869" class="er relationshipLine"/>
  <path style="stroke: gray; fill: none;" marker-start="url(#ONLY_ONE_START)" marker-end="url(#ZERO_OR_MORE_END)" d="M1212.414,445L1221.622,453.333C1230.83,461.667,1249.245,478.333,1342.606,499.936C1435.967,521.539,1604.273,548.077,1688.426,561.347L1772.579,574.616" class="er relationshipLine"/>
  <g transform="translate(879.0320510864258,720 )" id="entity-Prefix-f6d97b99-faee-5974-b12e-390868d79e86">
    <rect height="75" width="100" y="0" x="0" class="er entityBox"/>
    <text style="dominant-baseline: middle; text-anchor: middle; font-size: 12px;" transform="translate(50,37.5)" y="0" x="0" id="text-entity-Prefix-f6d97b99-faee-5974-b12e-390868d79e86" class="er entityLabel">Prefix</text>
  </g>
  <g transform="translate(544.2765159606934,195 )" id="entity-QuantityKind-6f79b338-e354-5d95-8035-8883644476ff">
    <rect height="75" width="101.390625" y="0" x="0" class="er entityBox"/>
    <text style="dominant-baseline: middle; text-anchor: middle; font-size: 12px;" transform="translate(50.6953125,37.5)" y="0" x="0" id="text-entity-QuantityKind-6f79b338-e354-5d95-8035-8883644476ff" class="er entityLabel">QuantityKind</text>
  </g>
  <g transform="translate(467.30229568481445,545 )" id="entity-QuantityKindDimensionVector-bfa1bf26-fcae-516f-8f63-2f454f3dac1b">
    <rect height="75" width="194.19308471679688" y="0" x="0" class="er entityBox"/>
    <text style="dominant-baseline: middle; text-anchor: middle; font-size: 12px;" transform="translate(97.09654235839844,37.5)" y="0" x="0" id="text-entity-QuantityKindDimensionVector-bfa1bf26-fcae-516f-8f63-2f454f3dac1b" class="er entityLabel">QuantityKindDimensionVector</text>
  </g>
  <g transform="translate(463.5394630432129,720 )" id="entity-Rule-886caf8e-59ff-5db3-a492-27242971196f">
    <rect height="75" width="100" y="0" x="0" class="er entityBox"/>
    <text style="dominant-baseline: middle; text-anchor: middle; font-size: 12px;" transform="translate(50,37.5)" y="0" x="0" id="text-entity-Rule-886caf8e-59ff-5db3-a492-27242971196f" class="er entityLabel">Rule</text>
  </g>
  <g transform="translate(1564.555591583252,20 )" id="entity-SolidAngleUnit-052b9346-c639-573a-b5ce-0f845f1ba8ce">
    <rect height="75" width="111.12852478027344" y="0" x="0" class="er entityBox"/>
    <text style="dominant-baseline: middle; text-anchor: middle; font-size: 12px;" transform="translate(55.56426239013672,37.5)" y="0" x="0" id="text-entity-SolidAngleUnit-052b9346-c639-573a-b5ce-0f845f1ba8ce" class="er entityLabel">SolidAngleUnit</text>
  </g>
  <g transform="translate(1284.8539390563965,545 )" id="entity-SystemOfUnits-f7f1da8e-a5af-50e1-94d0-c2e741f40e1d">
    <rect height="75" width="109.83651733398438" y="0" x="0" class="er entityBox"/>
    <text style="dominant-baseline: middle; text-anchor: middle; font-size: 12px;" transform="translate(54.91825866699219,37.5)" y="0" x="0" id="text-entity-SystemOfUnits-f7f1da8e-a5af-50e1-94d0-c2e741f40e1d" class="er entityLabel">SystemOfUnits</text>
  </g>
  <g transform="translate(1572.5789833068848,545 )" id="entity-UCUMcs-8df33f70-0c53-5f8e-a81f-0969bc803a34">
    <rect height="75" width="100" y="0" x="0" class="er entityBox"/>
    <text style="dominant-baseline: middle; text-anchor: middle; font-size: 12px;" transform="translate(50,37.5)" y="0" x="0" id="text-entity-UCUMcs-8df33f70-0c53-5f8e-a81f-0969bc803a34" class="er entityLabel">UCUMcs</text>
  </g>
  <g transform="translate(1120.9792289733887,370 )" id="entity-Unit-c57ac1ea-0a24-509a-a80e-23f8c03ca739">
    <rect height="75" width="100" y="0" x="0" class="er entityBox"/>
    <text style="dominant-baseline: middle; text-anchor: middle; font-size: 12px;" transform="translate(50,37.5)" y="0" x="0" id="text-entity-Unit-c57ac1ea-0a24-509a-a80e-23f8c03ca739" class="er entityLabel">Unit</text>
  </g>
  <g transform="translate(1772.5789833068848,545 )" id="entity-Class-d9e3eb4a-97c0-50b6-8e3f-7f4a2fa7283d">
    <rect height="75" width="100" y="0" x="0" class="er entityBox"/>
    <text style="dominant-baseline: middle; text-anchor: middle; font-size: 12px;" transform="translate(50,37.5)" y="0" x="0" id="text-entity-Class-d9e3eb4a-97c0-50b6-8e3f-7f4a2fa7283d" class="er entityLabel">__Class</text>
  </g>
  <g transform="translate(877.3133010864258,895 )" id="entity-UCUMcsterm-f108a9d5-75dc-5824-aae7-181f348ae82a">
    <rect height="75" width="103.4375" y="0" x="0" class="er entityBox"/>
    <text style="dominant-baseline: middle; text-anchor: middle; font-size: 12px;" transform="translate(51.71875,37.5)" y="0" x="0" id="text-entity-UCUMcsterm-f108a9d5-75dc-5824-aae7-181f348ae82a" class="er entityLabel">UCUMcs-term</text>
  </g>
  <g transform="translate(20,370 )" id="entity-QuantityKindDimensionVectorSI-2681a9c0-d385-5c75-b278-85a805bca5b5">
    <rect height="75" width="203.90625" y="0" x="0" class="er entityBox"/>
    <text style="dominant-baseline: middle; text-anchor: middle; font-size: 12px;" transform="translate(101.953125,37.5)" y="0" x="0" id="text-entity-QuantityKindDimensionVectorSI-2681a9c0-d385-5c75-b278-85a805bca5b5" class="er entityLabel">QuantityKindDimensionVectorSI</text>
  </g>
  <g transform="translate(423.90625,370 )" id="entity-SystemOfQuantityKinds-09c2a533-d4ff-5ffb-9642-53498359216a">
    <rect height="75" width="158.53285217285156" y="0" x="0" class="er entityBox"/>
    <text style="dominant-baseline: middle; text-anchor: middle; font-size: 12px;" transform="translate(79.26642608642578,37.5)" y="0" x="0" id="text-entity-SystemOfQuantityKinds-09c2a533-d4ff-5ffb-9642-53498359216a" class="er entityLabel">SystemOfQuantityKinds</text>
  </g>
  <g transform="translate(463.5394630432129,895 )" id="entity-RuleType-d54df1a6-a17d-5920-9344-6f805c739e55">
    <rect height="75" width="100" y="0" x="0" class="er entityBox"/>
    <text style="dominant-baseline: middle; text-anchor: middle; font-size: 12px;" transform="translate(50,37.5)" y="0" x="0" id="text-entity-RuleType-d54df1a6-a17d-5920-9344-6f805c739e55" class="er entityLabel">RuleType</text>
  </g>
  <g transform="translate(1259.498935699463,720 )" id="entity-PhysicalConstant-f43f8855-cf72-5deb-8dd3-7b0283708583">
    <rect height="75" width="122.96058654785156" y="0" x="0" class="er entityBox"/>
    <text style="dominant-baseline: middle; text-anchor: middle; font-size: 12px;" transform="translate(61.48029327392578,37.5)" y="0" x="0" id="text-entity-PhysicalConstant-f43f8855-cf72-5deb-8dd3-7b0283708583" class="er entityLabel">PhysicalConstant</text>
  </g>
  <rect height="14" width="61.453125" y="750.5" x="1114.0244140625" class="er relationshipLabelBox"/>
  <text style="text-anchor: middle; dominant-baseline: middle; font-size: 12px;" y="757.5" x="1144.7509765625" id="rel1" class="er relationshipLabel">exactMatch</text>
  <rect height="14" width="57.078125" y="838" x="900.492919921875" class="er relationshipLabelBox"/>
  <text style="text-anchor: middle; dominant-baseline: middle; font-size: 12px;" y="845" x="929.031982421875" id="rel2" class="er relationshipLabel">ucumCode</text>
  <rect height="14" width="119.078125" y="277.73895263671875" x="260.2163391113281" class="er relationshipLabelBox"/>
  <text style="text-anchor: middle; dominant-baseline: middle; font-size: 12px;" y="284.73895263671875" x="319.7554016113281" id="rel3" class="er relationshipLabel">dimensionVectorForSI</text>
  <rect height="14" width="61.453125" y="225.5" x="1343.9683837890625" class="er relationshipLabelBox"/>
  <text style="text-anchor: middle; dominant-baseline: middle; font-size: 12px;" y="232.5" x="1374.6949462890625" id="rel4" class="er relationshipLabel">exactMatch</text>
  <rect height="14" width="304.4981384277344" y="363.56964111328125" x="174.46559143066406" class="er relationshipLabelBox"/>
  <text style="text-anchor: middle; dominant-baseline: middle; font-size: 12px;" y="370.56964111328125" x="326.71466064453125" id="rel5" class="er relationshipLabel">hasDimensionVector, qkdvDenominator, qkdvNumerator</text>
  <rect height="14" width="163.4290771484375" y="306.39404296875" x="434.09588623046875" class="er relationshipLabelBox"/>
  <text style="text-anchor: middle; dominant-baseline: middle; font-size: 12px;" y="313.39404296875" x="515.8104248046875" id="rel6" class="er relationshipLabel">belongsToSystemOfQuantities</text>
  <rect height="14" width="675.57666015625" y="349.4770812988281" x="510.291748046875" class="er relationshipLabelBox"/>
  <text style="text-anchor: middle; dominant-baseline: middle; font-size: 12px;" y="356.4770812988281" x="848.080078125" id="rel7" class="er relationshipLabel">applicableCGSUnit, applicableISOUnit, applicableImperialUnit, applicableSIUnit, applicableUSCustomaryUnit, applicableUnit</text>
  <rect height="14" width="144.375" y="406.1985168457031" x="630.9815673828125" class="er relationshipLabelBox"/>
  <text style="text-anchor: middle; dominant-baseline: middle; font-size: 12px;" y="413.1985168457031" x="703.1690673828125" id="rel8" class="er relationshipLabel">hasReferenceQuantityKind</text>
  <rect height="14" width="43.296875" y="665.5230102539062" x="537.1365356445312" class="er relationshipLabelBox"/>
  <text style="text-anchor: middle; dominant-baseline: middle; font-size: 12px;" y="672.5230102539062" x="558.7849731445312" id="rel9" class="er relationshipLabel">hasRule</text>
  <rect height="14" width="46.921875" y="838" x="490.07806396484375" class="er relationshipLabelBox"/>
  <text style="text-anchor: middle; dominant-baseline: middle; font-size: 12px;" y="845" x="513.5390014648438" id="rel10" class="er relationshipLabel">ruleType</text>
  <rect height="14" width="304.4981384277344" y="126.93511962890625" x="90.05732727050781" class="er relationshipLabelBox"/>
  <text style="text-anchor: middle; dominant-baseline: middle; font-size: 12px;" y="133.93511962890625" x="242.306396484375" id="rel11" class="er relationshipLabel">hasDimensionVector, qkdvDenominator, qkdvNumerator</text>
  <rect height="14" width="30.840179443359375" y="156.83399963378906" x="38.39973449707031" class="er relationshipLabelBox"/>
  <text style="text-anchor: middle; dominant-baseline: middle; font-size: 12px;" y="163.83399963378906" x="53.81982421875" id="rel12" class="er relationshipLabel">prefix</text>
  <rect height="14" width="90.4375" y="98.62706756591797" x="1024.3402099609375" class="er relationshipLabelBox"/>
  <text style="text-anchor: middle; dominant-baseline: middle; font-size: 12px;" y="105.62706756591797" x="1069.5589599609375" id="rel13" class="er relationshipLabel">hasQuantityKind</text>
  <rect height="14" width="597.5625" y="341.9771423339844" x="1223.7977294921875" class="er relationshipLabelBox"/>
  <text style="text-anchor: middle; dominant-baseline: middle; font-size: 12px;" y="348.9771423339844" x="1522.5789794921875" id="rel14" class="er relationshipLabel">applicableSystem, definedUnitOfSystem, derivedCoherentUnitOfSystem, derivedUnitOfSystem, isUnitOfSystem</text>
  <rect height="14" width="57.078125" y="312.99310302734375" x="1594.0399169921875" class="er relationshipLabelBox"/>
  <text style="text-anchor: middle; dominant-baseline: middle; font-size: 12px;" y="319.99310302734375" x="1622.5789794921875" id="rel15" class="er relationshipLabel">ucumCode</text>
  <rect height="14" width="223.1495361328125" y="329.8408508300781" x="1461.4246215820312" class="er relationshipLabelBox"/>
  <text style="text-anchor: middle; dominant-baseline: middle; font-size: 12px;" y="336.8408508300781" x="1572.9993896484375" id="rel16" class="er relationshipLabel">exactMatch, hasReciprocalUnit, scalingOf</text>
  <rect height="14" width="75.6324462890625" y="266.6302490234375" x="1784.7627563476562" class="er relationshipLabelBox"/>
  <text style="text-anchor: middle; dominant-baseline: middle; font-size: 12px;" y="273.6302490234375" x="1822.5789794921875" id="rel17" class="er relationshipLabel">hasFactorUnit</text>
  <rect height="14" width="149.9129638671875" y="655.537841796875" x="1148.0376586914062" class="er relationshipLabelBox"/>
  <text style="text-anchor: middle; dominant-baseline: middle; font-size: 12px;" y="662.537841796875" x="1222.994140625" id="rel18" class="er relationshipLabel">applicablePhysicalConstant</text>
  <rect height="14" width="30.8402099609375" y="698.5857543945312" x="1168.9773559570312" class="er relationshipLabelBox"/>
  <text style="text-anchor: middle; dominant-baseline: middle; font-size: 12px;" y="705.5857543945312" x="1184.3974609375" id="rel19" class="er relationshipLabel">prefix</text>
  <rect height="14" width="622.5963134765625" y="464.1803283691406" x="997.2891235351562" class="er relationshipLabelBox"/>
  <text style="text-anchor: middle; dominant-baseline: middle; font-size: 12px;" y="471.1803283691406" x="1308.5872802734375" id="rel20" class="er relationshipLabel">hasAllowedUnit, hasBaseUnit, hasCoherentUnit, hasDefinedUnit, hasDerivedCoherentUnit, hasDerivedUnit, hasUnit</text>
  <rect height="14" width="304.4981689453125" y="473.46881103515625" x="737.609130859375" class="er relationshipLabelBox"/>
  <text style="text-anchor: middle; dominant-baseline: middle; font-size: 12px;" y="480.46881103515625" x="889.8582153320312" id="rel21" class="er relationshipLabel">hasDimensionVector, qkdvDenominator, qkdvNumerator</text>
  <rect height="14" width="30.8402099609375" y="527.8648071289062" x="956.5223999023438" class="er relationshipLabelBox"/>
  <text style="text-anchor: middle; dominant-baseline: middle; font-size: 12px;" y="534.8648071289062" x="971.9425048828125" id="rel22" class="er relationshipLabel">prefix</text>
  <rect height="14" width="90.4375" y="276.24993896484375" x="875.5890502929688" class="er relationshipLabelBox"/>
  <text style="text-anchor: middle; dominant-baseline: middle; font-size: 12px;" y="283.24993896484375" x="920.8078002929688" id="rel23" class="er relationshipLabel">hasQuantityKind</text>
  <rect height="14" width="597.5625" y="517.1453857421875" x="866.4764404296875" class="er relationshipLabelBox"/>
  <text style="text-anchor: middle; dominant-baseline: middle; font-size: 12px;" y="524.1453857421875" x="1165.2576904296875" id="rel24" class="er relationshipLabel">applicableSystem, definedUnitOfSystem, derivedCoherentUnitOfSystem, derivedUnitOfSystem, isUnitOfSystem</text>
  <rect height="14" width="57.078125" y="523.0927124023438" x="1328.5758056640625" class="er relationshipLabelBox"/>
  <text style="text-anchor: middle; dominant-baseline: middle; font-size: 12px;" y="530.0927124023438" x="1357.1148681640625" id="rel25" class="er relationshipLabel">ucumCode</text>
  <rect height="14" width="223.1495361328125" y="400.5" x="1294.7532348632812" class="er relationshipLabelBox"/>
  <text style="text-anchor: middle; dominant-baseline: middle; font-size: 12px;" y="407.5" x="1406.3280029296875" id="rel26" class="er relationshipLabel">exactMatch, hasReciprocalUnit, scalingOf</text>
  <rect height="14" width="75.632568359375" y="521.1256713867188" x="1448.6463623046875" class="er relationshipLabelBox"/>
  <text style="text-anchor: middle; dominant-baseline: middle; font-size: 12px;" y="528.1256713867188" x="1486.462646484375" id="rel27" class="er relationshipLabel">hasFactorUnit</text>
</svg>
