<svg xmlns="http://www.w3.org/2000/svg" aria-roledescription="er" role="graphics-document document" viewBox="-31.70943546295166 0 506.5203857421875 815" height="815" width="506.5203857421875" id="container">
  <style>#container{font-family:"trebuchet ms",verdana,arial,sans-serif;font-size:16px;fill:#333;}#container .error-icon{fill:#552222;}#container .error-text{fill:#552222;stroke:#552222;}#container .edge-thickness-normal{stroke-width:1px;}#container .edge-thickness-thick{stroke-width:3.5px;}#container .edge-pattern-solid{stroke-dasharray:0;}#container .edge-thickness-invisible{stroke-width:0;fill:none;}#container .edge-pattern-dashed{stroke-dasharray:3;}#container .edge-pattern-dotted{stroke-dasharray:2;}#container .marker{fill:#333333;stroke:#333333;}#container .marker.cross{stroke:#333333;}#container svg{font-family:"trebuchet ms",verdana,arial,sans-serif;font-size:16px;}#container p{margin:0;}#container .entityBox{fill:#ECECFF;stroke:#9370DB;}#container .attributeBoxOdd{fill:#ffffff;stroke:#9370DB;}#container .attributeBoxEven{fill:#f2f2f2;stroke:#9370DB;}#container .relationshipLabelBox{fill:hsl(80, 100%, 96.2745098039%);opacity:0.7;background-color:hsl(80, 100%, 96.2745098039%);}#container .relationshipLabelBox rect{opacity:0.5;}#container .relationshipLine{stroke:#333333;}#container .entityTitleText{text-anchor:middle;font-size:18px;fill:#333;}#container #MD_PARENT_START{fill:#f5f5f5!important;stroke:#333333!important;stroke-width:1;}#container #MD_PARENT_END{fill:#f5f5f5!important;stroke:#333333!important;stroke-width:1;}#container :root{--mermaid-font-family:"trebuchet ms",verdana,arial,sans-serif;}</style>
  <g/>
  <defs>
    <marker orient="auto" markerHeight="240" markerWidth="190" refY="7" refX="0" id="MD_PARENT_START">
      <path d="M 18,7 L9,13 L1,7 L9,1 Z"/>
    </marker>
  </defs>
  <defs>
    <marker orient="auto" markerHeight="28" markerWidth="20" refY="7" refX="19" id="MD_PARENT_END">
      <path d="M 18,7 L9,13 L1,7 L9,1 Z"/>
    </marker>
  </defs>
  <defs>
    <marker orient="auto" markerHeight="18" markerWidth="18" refY="9" refX="0" id="ONLY_ONE_START">
      <path d="M9,0 L9,18 M15,0 L15,18" fill="none" stroke="gray"/>
    </marker>
  </defs>
  <defs>
    <marker orient="auto" markerHeight="18" markerWidth="18" refY="9" refX="18" id="ONLY_ONE_END">
      <path d="M3,0 L3,18 M9,0 L9,18" fill="none" stroke="gray"/>
    </marker>
  </defs>
  <defs>
    <marker orient="auto" markerHeight="18" markerWidth="30" refY="9" refX="0" id="ZERO_OR_ONE_START">
      <circle r="6" cy="9" cx="21" fill="white" stroke="gray"/>
      <path d="M9,0 L9,18" fill="none" stroke="gray"/>
    </marker>
  </defs>
  <defs>
    <marker orient="auto" markerHeight="18" markerWidth="30" refY="9" refX="30" id="ZERO_OR_ONE_END">
      <circle r="6" cy="9" cx="9" fill="white" stroke="gray"/>
      <path d="M21,0 L21,18" fill="none" stroke="gray"/>
    </marker>
  </defs>
  <defs>
    <marker orient="auto" markerHeight="36" markerWidth="45" refY="18" refX="18" id="ONE_OR_MORE_START">
      <path d="M0,18 Q 18,0 36,18 Q 18,36 0,18 M42,9 L42,27" fill="none" stroke="gray"/>
    </marker>
  </defs>
  <defs>
    <marker orient="auto" markerHeight="36" markerWidth="45" refY="18" refX="27" id="ONE_OR_MORE_END">
      <path d="M3,9 L3,27 M9,18 Q27,0 45,18 Q27,36 9,18" fill="none" stroke="gray"/>
    </marker>
  </defs>
  <defs>
    <marker orient="auto" markerHeight="36" markerWidth="57" refY="18" refX="18" id="ZERO_OR_MORE_START">
      <circle r="6" cy="18" cx="48" fill="white" stroke="gray"/>
      <path d="M0,18 Q18,0 36,18 Q18,36 0,18" fill="none" stroke="gray"/>
    </marker>
  </defs>
  <defs>
    <marker orient="auto" markerHeight="36" markerWidth="57" refY="18" refX="39" id="ZERO_OR_MORE_END">
      <circle r="6" cy="18" cx="9" fill="white" stroke="gray"/>
      <path d="M21,18 Q39,0 57,18 Q39,36 21,18" fill="none" stroke="gray"/>
    </marker>
  </defs>
  <path style="stroke: gray; fill: none;" marker-start="url(#ONLY_ONE_START)" marker-end="url(#ZERO_OR_MORE_END)" d="M99.28,95L101.057,103.333C102.833,111.667,106.386,128.333,108.162,151.25C109.939,174.167,109.939,203.333,109.939,232.5C109.939,261.667,109.939,290.833,117.686,313.75C125.434,336.667,140.928,353.333,148.676,361.667L156.423,370" class="er relationshipLine"/>
  <path style="stroke: gray; fill: none;" marker-start="url(#ONLY_ONE_START)" marker-end="url(#ZERO_OR_MORE_END)" d="M162.573,85.222L188.192,95.185C213.811,105.148,265.049,125.074,290.667,143.37C316.286,161.667,316.286,178.333,316.286,186.667L316.286,195" class="er relationshipLine"/>
  <path style="stroke: gray; fill: none;" marker-start="url(#ONLY_ONE_START)" marker-end="url(#ZERO_OR_MORE_END)" d="M56.423,95L48.676,103.333C40.928,111.667,25.434,128.333,17.686,151.25C9.939,174.167,9.939,203.333,9.939,232.5C9.939,261.667,9.939,290.833,9.939,320C9.939,349.167,9.939,378.333,9.939,407.5C9.939,436.667,9.939,465.833,38.689,491.723C67.439,517.612,124.939,540.225,153.689,551.531L182.439,562.837" class="er relationshipLine"/>
  <path style="stroke: gray; fill: none;" marker-start="url(#ONLY_ONE_START)" marker-end="url(#ZERO_OR_MORE_END)" d="M191.286,445L191.286,453.333C191.286,461.667,191.286,478.333,195.206,495C199.125,511.667,206.963,528.333,210.883,536.667L214.802,545" class="er relationshipLine"/>
  <path style="stroke: gray; fill: none;" marker-start="url(#ONLY_ONE_START)" marker-end="url(#ZERO_OR_ONE_END)" d="M281.423,270L273.676,278.333C265.928,286.667,250.434,303.333,238.529,320C226.624,336.667,218.309,353.333,214.152,361.667L209.995,370" class="er relationshipLine"/>
  <path style="stroke: gray; fill: none;" marker-start="url(#ONLY_ONE_START)" marker-end="url(#ZERO_OR_MORE_END)" d="M366.286,269.372L377.728,277.81C389.17,286.248,412.055,303.124,423.497,326.145C434.939,349.167,434.939,378.333,434.939,407.5C434.939,436.667,434.939,465.833,409.522,491.399C384.105,516.965,333.272,538.93,307.855,549.913L282.439,560.895" class="er relationshipLine"/>
  <path style="stroke: gray; fill: none;" marker-start="url(#ONLY_ONE_START)" marker-end="url(#ONE_OR_MORE_END)" d="M324.28,270L326.057,278.333C327.833,286.667,331.386,303.333,319.481,320C307.576,336.667,280.214,353.333,266.533,361.667L252.852,370" class="er relationshipLine"/>
  <path style="stroke: gray; fill: none;" marker-start="url(#ONLY_ONE_START)" marker-end="url(#ZERO_OR_MORE_END)" d="M282.439,566.875L294.105,563.229C305.772,559.583,329.105,552.292,343.689,548.646C358.272,545,364.105,545,369.939,551.25C375.772,557.5,381.605,570,381.605,582.5C381.605,595,375.772,607.5,369.939,613.75C364.105,620,358.272,620,343.689,616.354C329.105,612.708,305.772,605.417,294.105,601.771L282.439,598.125" class="er relationshipLine"/>
  <path style="stroke: gray; fill: none;" marker-start="url(#ONLY_ONE_START)" marker-end="url(#ZERO_OR_MORE_END)" d="M232.439,620L232.439,628.333C232.439,636.667,232.439,653.333,232.439,670C232.439,686.667,232.439,703.333,232.439,711.667L232.439,720" class="er relationshipLine"/>
  <g transform="translate(20,20 )" id="entity-EnumeratedQuantity-02a0fea0-4841-5d19-bad6-fad1312f97d5">
    <rect height="75" width="142.57275390625" y="0" x="0" class="er entityBox"/>
    <text style="dominant-baseline: middle; text-anchor: middle; font-size: 12px;" transform="translate(71.286376953125,37.5)" y="0" x="0" id="text-entity-EnumeratedQuantity-02a0fea0-4841-5d19-bad6-fad1312f97d5" class="er entityLabel">EnumeratedQuantity</text>
  </g>
  <g transform="translate(128.591064453125,370 )" id="entity-EnumeratedValue-933d25dc-a4b0-559c-ba2b-998cca51206b">
    <rect height="75" width="125.390625" y="0" x="0" class="er entityBox"/>
    <text style="dominant-baseline: middle; text-anchor: middle; font-size: 12px;" transform="translate(62.6953125,37.5)" y="0" x="0" id="text-entity-EnumeratedValue-933d25dc-a4b0-559c-ba2b-998cca51206b" class="er entityLabel">EnumeratedValue</text>
  </g>
  <g transform="translate(266.286376953125,195 )" id="entity-Enumeration-f9f59bb4-2616-549b-89c9-bf7c68943800">
    <rect height="75" width="100" y="0" x="0" class="er entityBox"/>
    <text style="dominant-baseline: middle; text-anchor: middle; font-size: 12px;" transform="translate(50,37.5)" y="0" x="0" id="text-entity-Enumeration-f9f59bb4-2616-549b-89c9-bf7c68943800" class="er entityLabel">Enumeration</text>
  </g>
  <g transform="translate(182.438720703125,545 )" id="entity-Rule-886caf8e-59ff-5db3-a492-27242971196f">
    <rect height="75" width="100" y="0" x="0" class="er entityBox"/>
    <text style="dominant-baseline: middle; text-anchor: middle; font-size: 12px;" transform="translate(50,37.5)" y="0" x="0" id="text-entity-Rule-886caf8e-59ff-5db3-a492-27242971196f" class="er entityLabel">Rule</text>
  </g>
  <g transform="translate(182.438720703125,720 )" id="entity-RuleType-d54df1a6-a17d-5920-9344-6f805c739e55">
    <rect height="75" width="100" y="0" x="0" class="er entityBox"/>
    <text style="dominant-baseline: middle; text-anchor: middle; font-size: 12px;" transform="translate(50,37.5)" y="0" x="0" id="text-entity-RuleType-d54df1a6-a17d-5920-9344-6f805c739e55" class="er entityLabel">RuleType</text>
  </g>
  <rect height="14" width="95.640625" y="231.7910614013672" x="62.12193298339844" class="er relationshipLabelBox"/>
  <text style="text-anchor: middle; dominant-baseline: middle; font-size: 12px;" y="238.7910614013672" x="109.94224548339844" id="rel1" class="er relationshipLabel">enumeratedValue</text>
  <rect height="14.000007629394531" width="69.890625" y="116.73054885864258" x="220.926513671875" class="er relationshipLabelBox"/>
  <text style="text-anchor: middle; dominant-baseline: middle; font-size: 12px;" y="123.73055267333984" x="255.871826171875" id="rel2" class="er relationshipLabel">enumeration</text>
  <rect height="14" width="43.296875" y="364.2952575683594" x="-11.70943546295166" class="er relationshipLabelBox"/>
  <text style="text-anchor: middle; dominant-baseline: middle; font-size: 12px;" y="371.2952575683594" x="9.93900203704834" id="rel3" class="er relationshipLabel">hasRule</text>
  <rect height="14" width="43.296875" y="489.7138671875" x="173.9742889404297" class="er relationshipLabelBox"/>
  <text style="text-anchor: middle; dominant-baseline: middle; font-size: 12px;" y="496.7138671875" x="195.6227264404297" id="rel4" class="er relationshipLabel">hasRule</text>
  <rect height="14" width="39.500244140625" y="309.65081787109375" x="221.21841430664062" class="er relationshipLabelBox"/>
  <text style="text-anchor: middle; dominant-baseline: middle; font-size: 12px;" y="316.65081787109375" x="240.96853637695312" id="rel5" class="er relationshipLabel">default</text>
  <rect height="14" width="43.296875" y="436.28887939453125" x="411.5140686035156" class="er relationshipLabelBox"/>
  <text style="text-anchor: middle; dominant-baseline: middle; font-size: 12px;" y="443.28887939453125" x="433.1625061035156" id="rel6" class="er relationshipLabel">hasRule</text>
  <rect height="14" width="45.39227294921875" y="324.6916198730469" x="286.1549377441406" class="er relationshipLabelBox"/>
  <text style="text-anchor: middle; dominant-baseline: middle; font-size: 12px;" y="331.6916198730469" x="308.85107421875" id="rel7" class="er relationshipLabel">element</text>
  <rect height="14" width="43.296875" y="575.5" x="359.9565734863281" class="er relationshipLabelBox"/>
  <text style="text-anchor: middle; dominant-baseline: middle; font-size: 12px;" y="582.5" x="381.6050109863281" id="rel8" class="er relationshipLabel">hasRule</text>
  <rect height="14" width="46.921875" y="663" x="208.97805786132812" class="er relationshipLabelBox"/>
  <text style="text-anchor: middle; dominant-baseline: middle; font-size: 12px;" y="670" x="232.43899536132812" id="rel9" class="er relationshipLabel">ruleType</text>
</svg>
