<svg xmlns="http://www.w3.org/2000/svg" aria-roledescription="er" role="graphics-document document" viewBox="-17.175033569335938 0 1504.2203369140625 815" height="815" width="1504.2203369140625" id="container">
  <style>#container{font-family:"trebuchet ms",verdana,arial,sans-serif;font-size:16px;fill:#333;}#container .error-icon{fill:#552222;}#container .error-text{fill:#552222;stroke:#552222;}#container .edge-thickness-normal{stroke-width:1px;}#container .edge-thickness-thick{stroke-width:3.5px;}#container .edge-pattern-solid{stroke-dasharray:0;}#container .edge-thickness-invisible{stroke-width:0;fill:none;}#container .edge-pattern-dashed{stroke-dasharray:3;}#container .edge-pattern-dotted{stroke-dasharray:2;}#container .marker{fill:#333333;stroke:#333333;}#container .marker.cross{stroke:#333333;}#container svg{font-family:"trebuchet ms",verdana,arial,sans-serif;font-size:16px;}#container p{margin:0;}#container .entityBox{fill:#ECECFF;stroke:#9370DB;}#container .attributeBoxOdd{fill:#ffffff;stroke:#9370DB;}#container .attributeBoxEven{fill:#f2f2f2;stroke:#9370DB;}#container .relationshipLabelBox{fill:hsl(80, 100%, 96.2745098039%);opacity:0.7;background-color:hsl(80, 100%, 96.2745098039%);}#container .relationshipLabelBox rect{opacity:0.5;}#container .relationshipLine{stroke:#333333;}#container .entityTitleText{text-anchor:middle;font-size:18px;fill:#333;}#container #MD_PARENT_START{fill:#f5f5f5!important;stroke:#333333!important;stroke-width:1;}#container #MD_PARENT_END{fill:#f5f5f5!important;stroke:#333333!important;stroke-width:1;}#container :root{--mermaid-font-family:"trebuchet ms",verdana,arial,sans-serif;}</style>
  <g/>
  <defs>
    <marker orient="auto" markerHeight="240" markerWidth="190" refY="7" refX="0" id="MD_PARENT_START">
      <path d="M 18,7 L9,13 L1,7 L9,1 Z"/>
    </marker>
  </defs>
  <defs>
    <marker orient="auto" markerHeight="28" markerWidth="20" refY="7" refX="19" id="MD_PARENT_END">
      <path d="M 18,7 L9,13 L1,7 L9,1 Z"/>
    </marker>
  </defs>
  <defs>
    <marker orient="auto" markerHeight="18" markerWidth="18" refY="9" refX="0" id="ONLY_ONE_START">
      <path d="M9,0 L9,18 M15,0 L15,18" fill="none" stroke="gray"/>
    </marker>
  </defs>
  <defs>
    <marker orient="auto" markerHeight="18" markerWidth="18" refY="9" refX="18" id="ONLY_ONE_END">
      <path d="M3,0 L3,18 M9,0 L9,18" fill="none" stroke="gray"/>
    </marker>
  </defs>
  <defs>
    <marker orient="auto" markerHeight="18" markerWidth="30" refY="9" refX="0" id="ZERO_OR_ONE_START">
      <circle r="6" cy="9" cx="21" fill="white" stroke="gray"/>
      <path d="M9,0 L9,18" fill="none" stroke="gray"/>
    </marker>
  </defs>
  <defs>
    <marker orient="auto" markerHeight="18" markerWidth="30" refY="9" refX="30" id="ZERO_OR_ONE_END">
      <circle r="6" cy="9" cx="9" fill="white" stroke="gray"/>
      <path d="M21,0 L21,18" fill="none" stroke="gray"/>
    </marker>
  </defs>
  <defs>
    <marker orient="auto" markerHeight="36" markerWidth="45" refY="18" refX="18" id="ONE_OR_MORE_START">
      <path d="M0,18 Q 18,0 36,18 Q 18,36 0,18 M42,9 L42,27" fill="none" stroke="gray"/>
    </marker>
  </defs>
  <defs>
    <marker orient="auto" markerHeight="36" markerWidth="45" refY="18" refX="27" id="ONE_OR_MORE_END">
      <path d="M3,9 L3,27 M9,18 Q27,0 45,18 Q27,36 9,18" fill="none" stroke="gray"/>
    </marker>
  </defs>
  <defs>
    <marker orient="auto" markerHeight="36" markerWidth="57" refY="18" refX="18" id="ZERO_OR_MORE_START">
      <circle r="6" cy="18" cx="48" fill="white" stroke="gray"/>
      <path d="M0,18 Q18,0 36,18 Q18,36 0,18" fill="none" stroke="gray"/>
    </marker>
  </defs>
  <defs>
    <marker orient="auto" markerHeight="36" markerWidth="57" refY="18" refX="39" id="ZERO_OR_MORE_END">
      <circle r="6" cy="18" cx="9" fill="white" stroke="gray"/>
      <path d="M21,18 Q39,0 57,18 Q39,36 21,18" fill="none" stroke="gray"/>
    </marker>
  </defs>
  <path style="stroke: gray; fill: none;" marker-start="url(#ONLY_ONE_START)" marker-end="url(#ZERO_OR_MORE_END)" d="M70,445L70,453.333C70,461.667,70,478.333,77.143,495C84.286,511.667,98.571,528.333,105.714,536.667L112.857,545" class="er relationshipLine"/>
  <path style="stroke: gray; fill: none;" marker-start="url(#ONLY_ONE_START)" marker-end="url(#ONE_OR_MORE_END)" d="M120,416.935L188.947,429.946C257.894,442.957,395.789,468.978,464.736,490.323C533.683,511.667,533.683,528.333,533.683,536.667L533.683,545" class="er relationshipLine"/>
  <path style="stroke: gray; fill: none;" marker-start="url(#ONLY_ONE_START)" marker-end="url(#ZERO_OR_ONE_END)" d="M464.22,95L457.077,103.333C449.934,111.667,435.649,128.333,428.506,145C421.363,161.667,421.363,178.333,421.363,186.667L421.363,195" class="er relationshipLine"/>
  <path style="stroke: gray; fill: none;" marker-start="url(#ONLY_ONE_START)" marker-end="url(#ZERO_OR_ONE_END)" d="M547.058,77.298L575.951,88.582C604.843,99.866,662.628,122.433,691.52,142.05C720.413,161.667,720.413,178.333,720.413,186.667L720.413,195" class="er relationshipLine"/>
  <path style="stroke: gray; fill: none;" marker-start="url(#ONLY_ONE_START)" marker-end="url(#ZERO_OR_MORE_END)" d="M547.058,41.749L558.725,38.124C570.392,34.499,593.725,27.25,608.308,23.625C622.892,20,628.725,20,634.558,26.25C640.392,32.5,646.225,45,646.225,57.5C646.225,70,640.392,82.5,634.558,88.75C628.725,95,622.892,95,608.308,91.375C593.725,87.75,570.392,80.501,558.725,76.876L547.058,73.251" class="er relationshipLine"/>
  <path style="stroke: gray; fill: none;" marker-start="url(#ONLY_ONE_START)" marker-end="url(#ZERO_OR_MORE_END)" d="M445.668,68.552L387.223,81.293C328.778,94.035,211.889,119.517,158.207,140.592C104.524,161.667,114.048,178.333,118.81,186.667L123.571,195" class="er relationshipLine"/>
  <path style="stroke: gray; fill: none;" marker-start="url(#ONLY_ONE_START)" marker-end="url(#ZERO_OR_MORE_END)" d="M547.058,67.913L609.61,80.761C672.161,93.608,797.263,119.304,859.815,146.735C922.366,174.167,922.366,203.333,922.366,232.5C922.366,261.667,922.366,290.833,922.366,320C922.366,349.167,922.366,378.333,922.366,407.5C922.366,436.667,922.366,465.833,929.196,488.75C936.027,511.667,949.687,528.333,956.518,536.667L963.348,545" class="er relationshipLine"/>
  <path style="stroke: gray; fill: none;" marker-start="url(#ONLY_ONE_START)" marker-end="url(#ZERO_OR_MORE_END)" d="M145,620L145,628.333C145,636.667,145,653.333,145,670C145,686.667,145,703.333,145,711.667L145,720" class="er relationshipLine"/>
  <path style="stroke: gray; fill: none;" marker-start="url(#ONLY_ONE_START)" marker-end="url(#ZERO_OR_ONE_END)" d="M112.857,270L105.714,278.333C98.571,286.667,84.286,303.333,77.143,320C70,336.667,70,353.333,70,361.667L70,370" class="er relationshipLine"/>
  <path style="stroke: gray; fill: none;" marker-start="url(#ONLY_ONE_START)" marker-end="url(#ZERO_OR_MORE_END)" d="M182.792,195L191.19,186.667C199.589,178.333,216.385,161.667,260.198,141.559C304.01,121.452,374.839,97.903,410.253,86.129L445.668,74.355" class="er relationshipLine"/>
  <path style="stroke: gray; fill: none;" marker-start="url(#ONLY_ONE_START)" marker-end="url(#ZERO_OR_MORE_END)" d="M177.143,270L184.286,278.333C191.429,286.667,205.714,303.333,212.857,326.25C220,349.167,220,378.333,220,407.5C220,436.667,220,465.833,212.857,488.75C205.714,511.667,191.429,528.333,184.286,536.667L177.143,545" class="er relationshipLine"/>
  <path style="stroke: gray; fill: none;" marker-start="url(#ONLY_ONE_START)" marker-end="url(#ZERO_OR_MORE_END)" d="M224.266,238.727L396.696,252.272C569.126,265.818,913.986,292.909,1086.416,314.788C1258.846,336.667,1258.846,353.333,1258.846,361.667L1258.846,370" class="er relationshipLine"/>
  <path style="stroke: gray; fill: none;" marker-start="url(#ONLY_ONE_START)" marker-end="url(#ZERO_OR_MORE_END)" d="M1236.011,445L1230.937,453.333C1225.863,461.667,1215.714,478.333,1210.639,495C1205.565,511.667,1205.565,528.333,1205.565,536.667L1205.565,545" class="er relationshipLine"/>
  <path style="stroke: gray; fill: none;" marker-start="url(#ONLY_ONE_START)" marker-end="url(#ZERO_OR_MORE_END)" d="M1313.764,437.875L1330.978,447.396C1348.191,456.917,1382.618,475.958,1399.832,493.813C1417.045,511.667,1417.045,528.333,1417.045,536.667L1417.045,545" class="er relationshipLine"/>
  <path style="stroke: gray; fill: none;" marker-start="url(#ONLY_ONE_START)" marker-end="url(#ZERO_OR_MORE_END)" d="M1203.928,430.49L1178.244,441.241C1152.56,451.993,1101.193,473.497,1070.2,492.582C1039.208,511.667,1028.591,528.333,1023.282,536.667L1017.973,545" class="er relationshipLine"/>
  <g transform="translate(20,370 )" id="entity-Enumeration-f9f59bb4-2616-549b-89c9-bf7c68943800">
    <rect height="75" width="100" y="0" x="0" class="er entityBox"/>
    <text style="dominant-baseline: middle; text-anchor: middle; font-size: 12px;" transform="translate(50,37.5)" y="0" x="0" id="text-entity-Enumeration-f9f59bb4-2616-549b-89c9-bf7c68943800" class="er entityLabel">Enumeration</text>
  </g>
  <g transform="translate(445.6676559448242,20 )" id="entity-QuantityKind-6f79b338-e354-5d95-8035-8883644476ff">
    <rect height="75" width="101.390625" y="0" x="0" class="er entityBox"/>
    <text style="dominant-baseline: middle; text-anchor: middle; font-size: 12px;" transform="translate(50.6953125,37.5)" y="0" x="0" id="text-entity-QuantityKind-6f79b338-e354-5d95-8035-8883644476ff" class="er entityLabel">QuantityKind</text>
  </g>
  <g transform="translate(95,545 )" id="entity-Rule-886caf8e-59ff-5db3-a492-27242971196f">
    <rect height="75" width="100" y="0" x="0" class="er entityBox"/>
    <text style="dominant-baseline: middle; text-anchor: middle; font-size: 12px;" transform="translate(50,37.5)" y="0" x="0" id="text-entity-Rule-886caf8e-59ff-5db3-a492-27242971196f" class="er entityLabel">Rule</text>
  </g>
  <g transform="translate(65.73357391357422,195 )" id="entity-SystemOfQuantityKinds-09c2a533-d4ff-5ffb-9642-53498359216a">
    <rect height="75" width="158.53285217285156" y="0" x="0" class="er entityBox"/>
    <text style="dominant-baseline: middle; text-anchor: middle; font-size: 12px;" transform="translate(79.26642608642578,37.5)" y="0" x="0" id="text-entity-SystemOfQuantityKinds-09c2a533-d4ff-5ffb-9642-53498359216a" class="er entityLabel">SystemOfQuantityKinds</text>
  </g>
  <g transform="translate(1203.9277954101562,370 )" id="entity-SystemOfUnits-f7f1da8e-a5af-50e1-94d0-c2e741f40e1d">
    <rect height="75" width="109.83651733398438" y="0" x="0" class="er entityBox"/>
    <text style="dominant-baseline: middle; text-anchor: middle; font-size: 12px;" transform="translate(54.91825866699219,37.5)" y="0" x="0" id="text-entity-SystemOfUnits-f7f1da8e-a5af-50e1-94d0-c2e741f40e1d" class="er entityLabel">SystemOfUnits</text>
  </g>
  <g transform="translate(470.9875679016113,545 )" id="entity-EnumeratedValue-933d25dc-a4b0-559c-ba2b-998cca51206b">
    <rect height="75" width="125.390625" y="0" x="0" class="er entityBox"/>
    <text style="dominant-baseline: middle; text-anchor: middle; font-size: 12px;" transform="translate(62.6953125,37.5)" y="0" x="0" id="text-entity-EnumeratedValue-933d25dc-a4b0-559c-ba2b-998cca51206b" class="er entityLabel">EnumeratedValue</text>
  </g>
  <g transform="translate(324.2664260864258,195 )" id="entity-QuantityKindDimensionVector-bfa1bf26-fcae-516f-8f63-2f454f3dac1b">
    <rect height="75" width="194.19308471679688" y="0" x="0" class="er entityBox"/>
    <text style="dominant-baseline: middle; text-anchor: middle; font-size: 12px;" transform="translate(97.09654235839844,37.5)" y="0" x="0" id="text-entity-QuantityKindDimensionVector-bfa1bf26-fcae-516f-8f63-2f454f3dac1b" class="er entityLabel">QuantityKindDimensionVector</text>
  </g>
  <g transform="translate(618.4595108032227,195 )" id="entity-QuantityKindDimensionVectorSI-2681a9c0-d385-5c75-b278-85a805bca5b5">
    <rect height="75" width="203.90625" y="0" x="0" class="er entityBox"/>
    <text style="dominant-baseline: middle; text-anchor: middle; font-size: 12px;" transform="translate(101.953125,37.5)" y="0" x="0" id="text-entity-QuantityKindDimensionVectorSI-2681a9c0-d385-5c75-b278-85a805bca5b5" class="er entityLabel">QuantityKindDimensionVectorSI</text>
  </g>
  <g transform="translate(944.0847434997559,545 )" id="entity-Unit-c57ac1ea-0a24-509a-a80e-23f8c03ca739">
    <rect height="75" width="100" y="0" x="0" class="er entityBox"/>
    <text style="dominant-baseline: middle; text-anchor: middle; font-size: 12px;" transform="translate(50,37.5)" y="0" x="0" id="text-entity-Unit-c57ac1ea-0a24-509a-a80e-23f8c03ca739" class="er entityLabel">Unit</text>
  </g>
  <g transform="translate(95,720 )" id="entity-RuleType-d54df1a6-a17d-5920-9344-6f805c739e55">
    <rect height="75" width="100" y="0" x="0" class="er entityBox"/>
    <text style="dominant-baseline: middle; text-anchor: middle; font-size: 12px;" transform="translate(50,37.5)" y="0" x="0" id="text-entity-RuleType-d54df1a6-a17d-5920-9344-6f805c739e55" class="er entityLabel">RuleType</text>
  </g>
  <g transform="translate(1144.0847434997559,545 )" id="entity-PhysicalConstant-f43f8855-cf72-5deb-8dd3-7b0283708583">
    <rect height="75" width="122.96058654785156" y="0" x="0" class="er entityBox"/>
    <text style="dominant-baseline: middle; text-anchor: middle; font-size: 12px;" transform="translate(61.48029327392578,37.5)" y="0" x="0" id="text-entity-PhysicalConstant-f43f8855-cf72-5deb-8dd3-7b0283708583" class="er entityLabel">PhysicalConstant</text>
  </g>
  <g transform="translate(1367.0453300476074,545 )" id="entity-Prefix-f6d97b99-faee-5974-b12e-390868d79e86">
    <rect height="75" width="100" y="0" x="0" class="er entityBox"/>
    <text style="dominant-baseline: middle; text-anchor: middle; font-size: 12px;" transform="translate(50,37.5)" y="0" x="0" id="text-entity-Prefix-f6d97b99-faee-5974-b12e-390868d79e86" class="er entityLabel">Prefix</text>
  </g>
  <rect height="14" width="43.296875" y="492.87420654296875" x="57.778099060058594" class="er relationshipLabelBox"/>
  <text style="text-anchor: middle; dominant-baseline: middle; font-size: 12px;" y="499.87420654296875" x="79.4265365600586" id="rel1" class="er relationshipLabel">hasRule</text>
  <rect height="14" width="90.33258056640625" y="452.84228515625" x="295.1202087402344" class="er relationshipLabelBox"/>
  <text style="text-anchor: middle; dominant-baseline: middle; font-size: 12px;" y="459.84228515625" x="340.2864990234375" id="rel2" class="er relationshipLabel">default, element</text>
  <rect height="14" width="304.49810791015625" y="133.1257781982422" x="278.54046630859375" class="er relationshipLabelBox"/>
  <text style="text-anchor: middle; dominant-baseline: middle; font-size: 12px;" y="140.1257781982422" x="430.7895202636719" id="rel3" class="er relationshipLabel">hasDimensionVector, qkdvDenominator, qkdvNumerator</text>
  <rect height="14" width="119.078125" y="112.54581451416016" x="590.4609375" class="er relationshipLabelBox"/>
  <text style="text-anchor: middle; dominant-baseline: middle; font-size: 12px;" y="119.54581451416016" x="650" id="rel4" class="er relationshipLabel">dimensionVectorForSI</text>
  <rect height="14" width="61.453125" y="50.5" x="615.4984130859375" class="er relationshipLabelBox"/>
  <text style="text-anchor: middle; dominant-baseline: middle; font-size: 12px;" y="57.5" x="646.2249755859375" id="rel5" class="er relationshipLabel">exactMatch</text>
  <rect height="14" width="163.4290771484375" y="103.00704193115234" x="180.35400390625" class="er relationshipLabelBox"/>
  <text style="text-anchor: middle; dominant-baseline: middle; font-size: 12px;" y="110.00704193115234" x="262.06854248046875" id="rel6" class="er relationshipLabel">belongsToSystemOfQuantities</text>
  <rect height="14" width="675.5765380859375" y="171.5140838623047" x="569.5433349609375" class="er relationshipLabelBox"/>
  <text style="text-anchor: middle; dominant-baseline: middle; font-size: 12px;" y="178.5140838623047" x="907.3316040039062" id="rel7" class="er relationshipLabel">applicableCGSUnit, applicableISOUnit, applicableImperialUnit, applicableSIUnit, applicableUSCustomaryUnit, applicableUnit</text>
  <rect height="14" width="46.921875" y="663" x="121.5390625" class="er relationshipLabelBox"/>
  <text style="text-anchor: middle; dominant-baseline: middle; font-size: 12px;" y="670" x="145" id="rel8" class="er relationshipLabel">ruleType</text>
  <rect height="14" width="153.203125" y="308.12579345703125" x="2.8249740600585938" class="er relationshipLabelBox"/>
  <text style="text-anchor: middle; dominant-baseline: middle; font-size: 12px;" y="315.12579345703125" x="79.4265365600586" id="rel9" class="er relationshipLabel">baseDimensionEnumeration</text>
  <rect height="14" width="369.890625" y="115.03050231933594" x="122.69012451171875" class="er relationshipLabelBox"/>
  <text style="text-anchor: middle; dominant-baseline: middle; font-size: 12px;" y="122.03050231933594" x="307.63543701171875" id="rel10" class="er relationshipLabel">hasBaseQuantityKind, hasQuantityKind, systemDerivedQuantityKind</text>
  <rect height="14" width="43.296875" y="400.5000305175781" x="198.3515625" class="er relationshipLabelBox"/>
  <text style="text-anchor: middle; dominant-baseline: middle; font-size: 12px;" y="407.5000305175781" x="220" id="rel11" class="er relationshipLabel">hasRule</text>
  <rect height="14" width="80.5625" y="274.27337646484375" x="711.2400512695312" class="er relationshipLabelBox"/>
  <text style="text-anchor: middle; dominant-baseline: middle; font-size: 12px;" y="281.27337646484375" x="751.5213012695312" id="rel12" class="er relationshipLabel">hasUnitSystem</text>
  <rect height="14" width="149.9129638671875" y="485.2593078613281" x="1136.5625610351562" class="er relationshipLabelBox"/>
  <text style="text-anchor: middle; dominant-baseline: middle; font-size: 12px;" y="492.2593078613281" x="1211.51904296875" id="rel13" class="er relationshipLabel">applicablePhysicalConstant</text>
  <rect height="14" width="30.8402099609375" y="471.6187438964844" x="1366.4508666992188" class="er relationshipLabelBox"/>
  <text style="text-anchor: middle; dominant-baseline: middle; font-size: 12px;" y="478.6187438964844" x="1381.8709716796875" id="rel14" class="er relationshipLabel">prefix</text>
  <rect height="14" width="622.59619140625" y="468.2225341796875" x="790.822265625" class="er relationshipLabelBox"/>
  <text style="text-anchor: middle; dominant-baseline: middle; font-size: 12px;" y="475.2225341796875" x="1102.120361328125" id="rel15" class="er relationshipLabel">hasAllowedUnit, hasBaseUnit, hasCoherentUnit, hasDefinedUnit, hasDerivedCoherentUnit, hasDerivedUnit, hasUnit</text>
</svg>
