<svg xmlns="http://www.w3.org/2000/svg" aria-roledescription="er" role="graphics-document document" viewBox="-169.06243896484375 0 606.7811889648438 815" height="815" width="606.7811889648438" id="container">
  <style>#container{font-family:"trebuchet ms",verdana,arial,sans-serif;font-size:16px;fill:#333;}#container .error-icon{fill:#552222;}#container .error-text{fill:#552222;stroke:#552222;}#container .edge-thickness-normal{stroke-width:1px;}#container .edge-thickness-thick{stroke-width:3.5px;}#container .edge-pattern-solid{stroke-dasharray:0;}#container .edge-thickness-invisible{stroke-width:0;fill:none;}#container .edge-pattern-dashed{stroke-dasharray:3;}#container .edge-pattern-dotted{stroke-dasharray:2;}#container .marker{fill:#333333;stroke:#333333;}#container .marker.cross{stroke:#333333;}#container svg{font-family:"trebuchet ms",verdana,arial,sans-serif;font-size:16px;}#container p{margin:0;}#container .entityBox{fill:#ECECFF;stroke:#9370DB;}#container .attributeBoxOdd{fill:#ffffff;stroke:#9370DB;}#container .attributeBoxEven{fill:#f2f2f2;stroke:#9370DB;}#container .relationshipLabelBox{fill:hsl(80, 100%, 96.2745098039%);opacity:0.7;background-color:hsl(80, 100%, 96.2745098039%);}#container .relationshipLabelBox rect{opacity:0.5;}#container .relationshipLine{stroke:#333333;}#container .entityTitleText{text-anchor:middle;font-size:18px;fill:#333;}#container #MD_PARENT_START{fill:#f5f5f5!important;stroke:#333333!important;stroke-width:1;}#container #MD_PARENT_END{fill:#f5f5f5!important;stroke:#333333!important;stroke-width:1;}#container :root{--mermaid-font-family:"trebuchet ms",verdana,arial,sans-serif;}</style>
  <g/>
  <defs>
    <marker orient="auto" markerHeight="240" markerWidth="190" refY="7" refX="0" id="MD_PARENT_START">
      <path d="M 18,7 L9,13 L1,7 L9,1 Z"/>
    </marker>
  </defs>
  <defs>
    <marker orient="auto" markerHeight="28" markerWidth="20" refY="7" refX="19" id="MD_PARENT_END">
      <path d="M 18,7 L9,13 L1,7 L9,1 Z"/>
    </marker>
  </defs>
  <defs>
    <marker orient="auto" markerHeight="18" markerWidth="18" refY="9" refX="0" id="ONLY_ONE_START">
      <path d="M9,0 L9,18 M15,0 L15,18" fill="none" stroke="gray"/>
    </marker>
  </defs>
  <defs>
    <marker orient="auto" markerHeight="18" markerWidth="18" refY="9" refX="18" id="ONLY_ONE_END">
      <path d="M3,0 L3,18 M9,0 L9,18" fill="none" stroke="gray"/>
    </marker>
  </defs>
  <defs>
    <marker orient="auto" markerHeight="18" markerWidth="30" refY="9" refX="0" id="ZERO_OR_ONE_START">
      <circle r="6" cy="9" cx="21" fill="white" stroke="gray"/>
      <path d="M9,0 L9,18" fill="none" stroke="gray"/>
    </marker>
  </defs>
  <defs>
    <marker orient="auto" markerHeight="18" markerWidth="30" refY="9" refX="30" id="ZERO_OR_ONE_END">
      <circle r="6" cy="9" cx="9" fill="white" stroke="gray"/>
      <path d="M21,0 L21,18" fill="none" stroke="gray"/>
    </marker>
  </defs>
  <defs>
    <marker orient="auto" markerHeight="36" markerWidth="45" refY="18" refX="18" id="ONE_OR_MORE_START">
      <path d="M0,18 Q 18,0 36,18 Q 18,36 0,18 M42,9 L42,27" fill="none" stroke="gray"/>
    </marker>
  </defs>
  <defs>
    <marker orient="auto" markerHeight="36" markerWidth="45" refY="18" refX="27" id="ONE_OR_MORE_END">
      <path d="M3,9 L3,27 M9,18 Q27,0 45,18 Q27,36 9,18" fill="none" stroke="gray"/>
    </marker>
  </defs>
  <defs>
    <marker orient="auto" markerHeight="36" markerWidth="57" refY="18" refX="18" id="ZERO_OR_MORE_START">
      <circle r="6" cy="18" cx="48" fill="white" stroke="gray"/>
      <path d="M0,18 Q18,0 36,18 Q18,36 0,18" fill="none" stroke="gray"/>
    </marker>
  </defs>
  <defs>
    <marker orient="auto" markerHeight="36" markerWidth="57" refY="18" refX="39" id="ZERO_OR_MORE_END">
      <circle r="6" cy="18" cx="9" fill="white" stroke="gray"/>
      <path d="M21,18 Q39,0 57,18 Q39,36 21,18" fill="none" stroke="gray"/>
    </marker>
  </defs>
  <path style="stroke: gray; fill: none;" marker-start="url(#ONLY_ONE_START)" marker-end="url(#ZERO_OR_ONE_END)" d="M107.315,95L114.458,103.333C121.6,111.667,135.886,128.333,143.029,145C150.172,161.667,150.172,178.333,150.172,186.667L150.172,195" class="er relationshipLine"/>
  <path style="stroke: gray; fill: none;" marker-start="url(#ONLY_ONE_START)" marker-end="url(#ZERO_OR_MORE_END)" d="M125.219,76.963L154.378,88.302C183.536,99.642,241.854,122.321,271.013,148.244C300.172,174.167,300.172,203.333,300.172,232.5C300.172,261.667,300.172,290.833,304.934,313.75C309.696,336.667,319.219,353.333,323.981,361.667L328.743,370" class="er relationshipLine"/>
  <path style="stroke: gray; fill: none;" marker-start="url(#ONLY_ONE_START)" marker-end="url(#ZERO_OR_MORE_END)" d="M25.125,79.116L-0.298,90.097C-25.721,101.077,-76.568,123.039,-101.991,148.603C-127.414,174.167,-127.414,203.333,-127.414,232.5C-127.414,261.667,-127.414,290.833,-127.414,320C-127.414,349.167,-127.414,378.333,-127.414,407.5C-127.414,436.667,-127.414,465.833,-94.081,492.083C-60.747,518.333,5.919,541.667,39.253,553.333L72.586,565" class="er relationshipLine"/>
  <path style="stroke: gray; fill: none;" marker-start="url(#ONLY_ONE_START)" marker-end="url(#ZERO_OR_MORE_END)" d="M43.029,95L35.886,103.333C28.743,111.667,14.458,128.333,7.315,151.25C0.172,174.167,0.172,203.333,0.172,232.5C0.172,261.667,0.172,290.833,7.315,313.75C14.458,336.667,28.743,353.333,35.886,361.667L43.029,370" class="er relationshipLine"/>
  <path style="stroke: gray; fill: none;" marker-start="url(#ONLY_ONE_START)" marker-end="url(#ZERO_OR_MORE_END)" d="M350.172,445L350.172,453.333C350.172,461.667,350.172,478.333,320.574,498.046C290.977,517.759,231.781,540.518,202.184,551.897L172.586,563.276" class="er relationshipLine"/>
  <path style="stroke: gray; fill: none;" marker-start="url(#ONLY_ONE_START)" marker-end="url(#ZERO_OR_MORE_END)" d="M122.586,620L122.586,628.333C122.586,636.667,122.586,653.333,122.586,670C122.586,686.667,122.586,703.333,122.586,711.667L122.586,720" class="er relationshipLine"/>
  <path style="stroke: gray; fill: none;" marker-start="url(#ONLY_ONE_START)" marker-end="url(#ZERO_OR_MORE_END)" d="M200.172,250L233.505,261.667C266.839,273.333,333.505,296.667,362.077,316.667C390.648,336.667,381.124,353.333,376.362,361.667L371.6,370" class="er relationshipLine"/>
  <path style="stroke: gray; fill: none;" marker-start="url(#ONLY_ONE_START)" marker-end="url(#ZERO_OR_MORE_END)" d="M150.172,270L150.172,278.333C150.172,286.667,150.172,303.333,143.029,320C135.886,336.667,121.6,353.333,114.458,361.667L107.315,370" class="er relationshipLine"/>
  <g transform="translate(25.125,20 )" id="entity-IntervalScale-bfb2ce86-e4ac-582f-8e4f-663a05a00eaa">
    <rect height="75" width="100.09375" y="0" x="0" class="er entityBox"/>
    <text style="dominant-baseline: middle; text-anchor: middle; font-size: 12px;" transform="translate(50.046875,37.5)" y="0" x="0" id="text-entity-IntervalScale-bfb2ce86-e4ac-582f-8e4f-663a05a00eaa" class="er entityLabel">IntervalScale</text>
  </g>
  <g transform="translate(282.625,370 )" id="entity-MathsFunctionType-e1643f39-b492-5bab-8326-d54da4e9002b">
    <rect height="75" width="135.09375" y="0" x="0" class="er entityBox"/>
    <text style="dominant-baseline: middle; text-anchor: middle; font-size: 12px;" transform="translate(67.546875,37.5)" y="0" x="0" id="text-entity-MathsFunctionType-e1643f39-b492-5bab-8326-d54da4e9002b" class="er entityLabel">MathsFunctionType</text>
  </g>
  <g transform="translate(72.5859375,545 )" id="entity-Rule-886caf8e-59ff-5db3-a492-27242971196f">
    <rect height="75" width="100" y="0" x="0" class="er entityBox"/>
    <text style="dominant-baseline: middle; text-anchor: middle; font-size: 12px;" transform="translate(50,37.5)" y="0" x="0" id="text-entity-Rule-886caf8e-59ff-5db3-a492-27242971196f" class="er entityLabel">Rule</text>
  </g>
  <g transform="translate(100.171875,195 )" id="entity-ScaleType-0d000408-743d-5053-b1d6-3f5ee6730e6d">
    <rect height="75" width="100" y="0" x="0" class="er entityBox"/>
    <text style="dominant-baseline: middle; text-anchor: middle; font-size: 12px;" transform="translate(50,37.5)" y="0" x="0" id="text-entity-ScaleType-0d000408-743d-5053-b1d6-3f5ee6730e6d" class="er entityLabel">ScaleType</text>
  </g>
  <g transform="translate(20,370 )" id="entity-TransformType-dbdd87a4-f4d5-5cb6-abdd-17a28eb5d3af">
    <rect height="75" width="110.34375" y="0" x="0" class="er entityBox"/>
    <text style="dominant-baseline: middle; text-anchor: middle; font-size: 12px;" transform="translate(55.171875,37.5)" y="0" x="0" id="text-entity-TransformType-dbdd87a4-f4d5-5cb6-abdd-17a28eb5d3af" class="er entityLabel">TransformType</text>
  </g>
  <g transform="translate(72.5859375,720 )" id="entity-RuleType-d54df1a6-a17d-5920-9344-6f805c739e55">
    <rect height="75" width="100" y="0" x="0" class="er entityBox"/>
    <text style="dominant-baseline: middle; text-anchor: middle; font-size: 12px;" transform="translate(50,37.5)" y="0" x="0" id="text-entity-RuleType-d54df1a6-a17d-5920-9344-6f805c739e55" class="er entityLabel">RuleType</text>
  </g>
  <rect height="14" width="52.921875" y="133.12582397460938" x="114.28453063964844" class="er relationshipLabelBox"/>
  <text style="text-anchor: middle; dominant-baseline: middle; font-size: 12px;" y="140.12582397460938" x="140.74546813964844" id="rel1" class="er relationshipLabel">scaleType</text>
  <rect height="14" width="96.7926025390625" y="170.1266632080078" x="244.03515625" class="er relationshipLabelBox"/>
  <text style="text-anchor: middle; dominant-baseline: middle; font-size: 12px;" y="177.1266632080078" x="292.43145751953125" id="rel2" class="er relationshipLabel">permissibleMaths</text>
  <rect height="14" width="43.296875" y="333.79864501953125" x="-149.06243896484375" class="er relationshipLabelBox"/>
  <text style="text-anchor: middle; dominant-baseline: middle; font-size: 12px;" y="340.79864501953125" x="-127.41400146484375" id="rel3" class="er relationshipLabel">hasRule</text>
  <rect height="14" width="146.90625" y="225.5" x="-73.28112497925758" class="er relationshipLabelBox"/>
  <text style="text-anchor: middle; dominant-baseline: middle; font-size: 12px;" y="232.5" x="0.17200002074241638" id="rel4" class="er relationshipLabel">permissibleTransformation</text>
  <rect height="14" width="43.296875" y="513.8898315429688" x="255.95220947265625" class="er relationshipLabelBox"/>
  <text style="text-anchor: middle; dominant-baseline: middle; font-size: 12px;" y="520.8898315429688" x="277.60064697265625" id="rel5" class="er relationshipLabel">hasRule</text>
  <rect height="14" width="46.921875" y="663" x="99.12506103515625" class="er relationshipLabelBox"/>
  <text style="text-anchor: middle; dominant-baseline: middle; font-size: 12px;" y="670" x="122.58599853515625" id="rel6" class="er relationshipLabel">ruleType</text>
  <rect height="14" width="96.7926025390625" y="284.2075500488281" x="263.746826171875" class="er relationshipLabelBox"/>
  <text style="text-anchor: middle; dominant-baseline: middle; font-size: 12px;" y="291.2075500488281" x="312.14312744140625" id="rel7" class="er relationshipLabel">permissibleMaths</text>
  <rect height="14" width="146.90625" y="317.8741760253906" x="67.29234313964844" class="er relationshipLabelBox"/>
  <text style="text-anchor: middle; dominant-baseline: middle; font-size: 12px;" y="324.8741760253906" x="140.74546813964844" id="rel8" class="er relationshipLabel">permissibleTransformation</text>
</svg>
