<svg xmlns="http://www.w3.org/2000/svg" aria-roledescription="er" role="graphics-document document" viewBox="0 0 2575.0576171875 815" height="815" width="2575.0576171875" id="container">
  <style>#container{font-family:"trebuchet ms",verdana,arial,sans-serif;font-size:16px;fill:#333;}#container .error-icon{fill:#552222;}#container .error-text{fill:#552222;stroke:#552222;}#container .edge-thickness-normal{stroke-width:1px;}#container .edge-thickness-thick{stroke-width:3.5px;}#container .edge-pattern-solid{stroke-dasharray:0;}#container .edge-thickness-invisible{stroke-width:0;fill:none;}#container .edge-pattern-dashed{stroke-dasharray:3;}#container .edge-pattern-dotted{stroke-dasharray:2;}#container .marker{fill:#333333;stroke:#333333;}#container .marker.cross{stroke:#333333;}#container svg{font-family:"trebuchet ms",verdana,arial,sans-serif;font-size:16px;}#container p{margin:0;}#container .entityBox{fill:#ECECFF;stroke:#9370DB;}#container .attributeBoxOdd{fill:#ffffff;stroke:#9370DB;}#container .attributeBoxEven{fill:#f2f2f2;stroke:#9370DB;}#container .relationshipLabelBox{fill:hsl(80, 100%, 96.2745098039%);opacity:0.7;background-color:hsl(80, 100%, 96.2745098039%);}#container .relationshipLabelBox rect{opacity:0.5;}#container .relationshipLine{stroke:#333333;}#container .entityTitleText{text-anchor:middle;font-size:18px;fill:#333;}#container #MD_PARENT_START{fill:#f5f5f5!important;stroke:#333333!important;stroke-width:1;}#container #MD_PARENT_END{fill:#f5f5f5!important;stroke:#333333!important;stroke-width:1;}#container :root{--mermaid-font-family:"trebuchet ms",verdana,arial,sans-serif;}</style>
  <g/>
  <defs>
    <marker orient="auto" markerHeight="240" markerWidth="190" refY="7" refX="0" id="MD_PARENT_START">
      <path d="M 18,7 L9,13 L1,7 L9,1 Z"/>
    </marker>
  </defs>
  <defs>
    <marker orient="auto" markerHeight="28" markerWidth="20" refY="7" refX="19" id="MD_PARENT_END">
      <path d="M 18,7 L9,13 L1,7 L9,1 Z"/>
    </marker>
  </defs>
  <defs>
    <marker orient="auto" markerHeight="18" markerWidth="18" refY="9" refX="0" id="ONLY_ONE_START">
      <path d="M9,0 L9,18 M15,0 L15,18" fill="none" stroke="gray"/>
    </marker>
  </defs>
  <defs>
    <marker orient="auto" markerHeight="18" markerWidth="18" refY="9" refX="18" id="ONLY_ONE_END">
      <path d="M3,0 L3,18 M9,0 L9,18" fill="none" stroke="gray"/>
    </marker>
  </defs>
  <defs>
    <marker orient="auto" markerHeight="18" markerWidth="30" refY="9" refX="0" id="ZERO_OR_ONE_START">
      <circle r="6" cy="9" cx="21" fill="white" stroke="gray"/>
      <path d="M9,0 L9,18" fill="none" stroke="gray"/>
    </marker>
  </defs>
  <defs>
    <marker orient="auto" markerHeight="18" markerWidth="30" refY="9" refX="30" id="ZERO_OR_ONE_END">
      <circle r="6" cy="9" cx="9" fill="white" stroke="gray"/>
      <path d="M21,0 L21,18" fill="none" stroke="gray"/>
    </marker>
  </defs>
  <defs>
    <marker orient="auto" markerHeight="36" markerWidth="45" refY="18" refX="18" id="ONE_OR_MORE_START">
      <path d="M0,18 Q 18,0 36,18 Q 18,36 0,18 M42,9 L42,27" fill="none" stroke="gray"/>
    </marker>
  </defs>
  <defs>
    <marker orient="auto" markerHeight="36" markerWidth="45" refY="18" refX="27" id="ONE_OR_MORE_END">
      <path d="M3,9 L3,27 M9,18 Q27,0 45,18 Q27,36 9,18" fill="none" stroke="gray"/>
    </marker>
  </defs>
  <defs>
    <marker orient="auto" markerHeight="36" markerWidth="57" refY="18" refX="18" id="ZERO_OR_MORE_START">
      <circle r="6" cy="18" cx="48" fill="white" stroke="gray"/>
      <path d="M0,18 Q18,0 36,18 Q18,36 0,18" fill="none" stroke="gray"/>
    </marker>
  </defs>
  <defs>
    <marker orient="auto" markerHeight="36" markerWidth="57" refY="18" refX="39" id="ZERO_OR_MORE_END">
      <circle r="6" cy="18" cx="9" fill="white" stroke="gray"/>
      <path d="M21,18 Q39,0 57,18 Q39,36 21,18" fill="none" stroke="gray"/>
    </marker>
  </defs>
  <path style="stroke: gray; fill: none;" marker-start="url(#ONLY_ONE_START)" marker-end="url(#ZERO_OR_ONE_END)" d="M667.149,445L667.87,453.333C668.592,461.667,670.035,478.333,670.756,495C671.478,511.667,671.478,528.333,671.478,536.667L671.478,545" class="er relationshipLine"/>
  <path style="stroke: gray; fill: none;" marker-start="url(#ONLY_ONE_START)" marker-end="url(#ZERO_OR_ONE_END)" d="M716.572,429.702L742.39,440.585C768.207,451.468,819.843,473.234,845.66,492.45C871.478,511.667,871.478,528.333,871.478,536.667L871.478,545" class="er relationshipLine"/>
  <path style="stroke: gray; fill: none;" marker-start="url(#ONLY_ONE_START)" marker-end="url(#ZERO_OR_ONE_END)" d="M1045.321,445L1050.829,453.333C1056.337,461.667,1067.353,478.333,1072.861,495C1078.369,511.667,1078.369,528.333,1078.369,536.667L1078.369,545" class="er relationshipLine"/>
  <path style="stroke: gray; fill: none;" marker-start="url(#ONLY_ONE_START)" marker-end="url(#ZERO_OR_ONE_END)" d="M1070.535,392.208L1082.637,388.507C1094.739,384.805,1118.944,377.403,1134.072,373.701C1149.2,370,1155.251,370,1161.302,376.25C1167.353,382.5,1173.404,395,1173.404,407.5C1173.404,420,1167.353,432.5,1161.302,438.75C1155.251,445,1149.2,445,1134.072,441.299C1118.944,437.597,1094.739,430.195,1082.637,426.493L1070.535,422.792" class="er relationshipLine"/>
  <path style="stroke: gray; fill: none;" marker-start="url(#ONLY_ONE_START)" marker-end="url(#ZERO_OR_ONE_END)" d="M1070.535,424.027L1106.322,435.856C1142.11,447.684,1213.684,471.342,1249.472,491.504C1285.259,511.667,1285.259,528.333,1285.259,536.667L1285.259,545" class="er relationshipLine"/>
  <path style="stroke: gray; fill: none;" marker-start="url(#ONLY_ONE_START)" marker-end="url(#ZERO_OR_MORE_END)" d="M970.535,412.103L820.446,425.919C670.357,439.735,370.178,467.368,220.089,489.517C70,511.667,70,528.333,70,536.667L70,545" class="er relationshipLine"/>
  <path style="stroke: gray; fill: none;" marker-start="url(#ONLY_ONE_START)" marker-end="url(#ZERO_OR_ONE_END)" d="M1328.898,63.623L1218.145,77.186C1107.391,90.749,885.884,117.874,775.131,146.02C664.377,174.167,664.377,203.333,664.377,232.5C664.377,261.667,664.377,290.833,664.332,313.75C664.287,336.667,664.196,353.333,664.151,361.667L664.106,370" class="er relationshipLine"/>
  <path style="stroke: gray; fill: none;" marker-start="url(#ONLY_ONE_START)" marker-end="url(#ZERO_OR_ONE_END)" d="M1328.898,69.843L1278.158,82.369C1227.417,94.896,1125.936,119.948,1075.196,147.057C1024.455,174.167,1024.455,203.333,1024.455,232.5C1024.455,261.667,1024.455,290.833,1024.082,313.75C1023.708,336.667,1022.962,353.333,1022.588,361.667L1022.215,370" class="er relationshipLine"/>
  <path style="stroke: gray; fill: none;" marker-start="url(#ONLY_ONE_START)" marker-end="url(#ZERO_OR_ONE_END)" d="M1428.898,62.025L1581.714,75.854C1734.529,89.683,2040.16,117.342,2192.976,145.754C2345.791,174.167,2345.791,203.333,2345.791,232.5C2345.791,261.667,2345.791,290.833,2269.37,318.566C2192.948,346.299,2040.105,372.598,1963.683,385.747L1887.262,398.897" class="er relationshipLine"/>
  <path style="stroke: gray; fill: none;" marker-start="url(#ONLY_ONE_START)" marker-end="url(#ZERO_OR_MORE_END)" d="M1428.898,61.315L1611.714,75.262C1794.529,89.21,2160.16,117.105,2342.976,145.636C2525.791,174.167,2525.791,203.333,2525.791,232.5C2525.791,261.667,2525.791,290.833,2525.791,320C2525.791,349.167,2525.791,378.333,2525.791,407.5C2525.791,436.667,2525.791,465.833,2495.907,491.786C2466.023,517.738,2406.255,540.476,2376.37,551.845L2346.486,563.214" class="er relationshipLine"/>
  <path style="stroke: gray; fill: none;" marker-start="url(#ONLY_ONE_START)" marker-end="url(#ZERO_OR_MORE_END)" d="M1328.898,65.294L1243.676,78.578C1158.454,91.863,988.009,118.431,902.787,140.049C817.565,161.667,817.565,178.333,817.565,186.667L817.565,195" class="er relationshipLine"/>
  <path style="stroke: gray; fill: none;" marker-start="url(#ONLY_ONE_START)" marker-end="url(#ZERO_OR_ONE_END)" d="M2245.096,584.747L1924.572,598.956C1604.048,613.165,963.001,641.582,642.477,664.125C321.953,686.667,321.953,703.333,321.953,711.667L321.953,720" class="er relationshipLine"/>
  <path style="stroke: gray; fill: none;" marker-start="url(#ONLY_ONE_START)" marker-end="url(#ZERO_OR_MORE_END)" d="M2346.486,566.749L2358.153,563.124C2369.82,559.499,2393.153,552.25,2407.736,548.625C2422.32,545,2428.153,545,2433.986,551.25C2439.82,557.5,2445.653,570,2445.653,582.5C2445.653,595,2439.82,607.5,2433.986,613.75C2428.153,620,2422.32,620,2407.736,616.375C2393.153,612.75,2369.82,605.501,2358.153,601.876L2346.486,598.251" class="er relationshipLine"/>
  <path style="stroke: gray; fill: none;" marker-start="url(#ONLY_ONE_START)" marker-end="url(#ZERO_OR_MORE_END)" d="M2292.285,620L2291.505,628.333C2290.726,636.667,2289.168,653.333,2047.903,675.331C1806.637,697.328,1325.665,724.655,1085.179,738.319L844.693,751.983" class="er relationshipLine"/>
  <path style="stroke: gray; fill: none;" marker-start="url(#ONLY_ONE_START)" marker-end="url(#ZERO_OR_MORE_END)" d="M2346.486,607.144L2368.037,617.62C2389.588,628.096,2432.689,649.048,2454.24,667.857C2475.791,686.667,2475.791,703.333,2475.791,711.667L2475.791,720" class="er relationshipLine"/>
  <path style="stroke: gray; fill: none;" marker-start="url(#ONLY_ONE_START)" marker-end="url(#ZERO_OR_MORE_END)" d="M2274.213,545L2269.418,536.667C2264.623,528.333,2255.033,511.667,2190.541,490.536C2126.05,469.406,2006.656,443.812,1946.959,431.015L1887.262,418.218" class="er relationshipLine"/>
  <path style="stroke: gray; fill: none;" marker-start="url(#ONLY_ONE_START)" marker-end="url(#ZERO_OR_ONE_END)" d="M764.377,250.881L731.044,262.401C697.71,273.921,631.044,296.96,607.189,316.814C583.334,336.667,602.291,353.333,611.77,361.667L621.248,370" class="er relationshipLine"/>
  <path style="stroke: gray; fill: none;" marker-start="url(#ONLY_ONE_START)" marker-end="url(#ZERO_OR_ONE_END)" d="M817.565,270L817.565,278.333C817.565,286.667,817.565,303.333,843.06,322.658C868.555,341.982,919.545,363.963,945.04,374.954L970.535,385.945" class="er relationshipLine"/>
  <path style="stroke: gray; fill: none;" marker-start="url(#ONLY_ONE_START)" marker-end="url(#ZERO_OR_ONE_END)" d="M870.752,247.665L913.036,259.721C955.32,271.776,1039.888,295.888,1192.639,321.504C1345.391,347.121,1566.326,374.242,1676.794,387.802L1787.262,401.362" class="er relationshipLine"/>
  <path style="stroke: gray; fill: none;" marker-start="url(#ONLY_ONE_START)" marker-end="url(#ZERO_OR_MORE_END)" d="M70,620L70,628.333C70,636.667,70,653.333,70,670C70,686.667,70,703.333,70,711.667L70,720" class="er relationshipLine"/>
  <path style="stroke: gray; fill: none;" marker-start="url(#ONLY_ONE_START)" marker-end="url(#ZERO_OR_ONE_END)" d="M1787.262,410.825L1576.298,424.854C1365.334,438.883,943.406,466.942,732.442,495.554C521.478,524.167,521.478,553.333,521.478,582.5C521.478,611.667,521.478,640.833,543.013,663.75C564.548,686.667,607.618,703.333,629.153,711.667L650.689,720" class="er relationshipLine"/>
  <path style="stroke: gray; fill: none;" marker-start="url(#ONLY_ONE_START)" marker-end="url(#ZERO_OR_MORE_END)" d="M1787.262,419.929L1736.928,432.441C1686.594,444.953,1585.927,469.976,1535.593,490.821C1485.259,511.667,1485.259,528.333,1485.259,536.667L1485.259,545" class="er relationshipLine"/>
  <path style="stroke: gray; fill: none;" marker-start="url(#ONLY_ONE_START)" marker-end="url(#ZERO_OR_MORE_END)" d="M1887.262,416.103L1963.683,429.253C2040.105,442.402,2192.948,468.701,2264.608,490.184C2336.267,511.667,2326.743,528.333,2321.982,536.667L2317.22,545" class="er relationshipLine"/>
  <path style="stroke: gray; fill: none;" marker-start="url(#ONLY_ONE_START)" marker-end="url(#ZERO_OR_MORE_END)" d="M1787.262,437.245L1771.081,446.871C1754.9,456.497,1722.539,475.748,1706.358,493.707C1690.177,511.667,1690.177,528.333,1690.177,536.667L1690.177,545" class="er relationshipLine"/>
  <path style="stroke: gray; fill: none;" marker-start="url(#ONLY_ONE_START)" marker-end="url(#ZERO_OR_MORE_END)" d="M1862.048,445L1867.556,453.333C1873.064,461.667,1884.08,478.333,1889.588,495C1895.096,511.667,1895.096,528.333,1895.096,536.667L1895.096,545" class="er relationshipLine"/>
  <path style="stroke: gray; fill: none;" marker-start="url(#ONLY_ONE_START)" marker-end="url(#ZERO_OR_MORE_END)" d="M1887.262,402.878L1946.543,397.398C2005.824,391.919,2124.386,380.959,2198.487,375.48C2272.588,370,2302.229,370,2331.87,376.25C2361.51,382.5,2391.151,395,2391.151,407.5C2391.151,420,2361.51,432.5,2331.87,438.75C2302.229,445,2272.588,445,2198.487,439.52C2124.386,434.041,2005.824,423.081,1946.543,417.602L1887.262,412.122" class="er relationshipLine"/>
  <path style="stroke: gray; fill: none;" marker-start="url(#ONLY_ONE_START)" marker-end="url(#ZERO_OR_MORE_END)" d="M1887.262,424.468L1921.901,436.224C1956.54,447.979,2025.818,471.489,2060.457,491.578C2095.096,511.667,2095.096,528.333,2095.096,536.667L2095.096,545" class="er relationshipLine"/>
  <g transform="translate(611.2317008972168,370 )" id="entity-DataEncoding-e949680e-a6e4-55c9-9325-aa69226f3e53">
    <rect height="75" width="105.34048461914062" y="0" x="0" class="er entityBox"/>
    <text style="dominant-baseline: middle; text-anchor: middle; font-size: 12px;" transform="translate(52.67024230957031,37.5)" y="0" x="0" id="text-entity-DataEncoding-e949680e-a6e4-55c9-9325-aa69226f3e53" class="er entityLabel">DataEncoding</text>
  </g>
  <g transform="translate(970.5347557067871,370 )" id="entity-Datatype-eedb5402-d0cc-52bf-9fb8-7b914f648cbe">
    <rect height="75" width="100" y="0" x="0" class="er entityBox"/>
    <text style="dominant-baseline: middle; text-anchor: middle; font-size: 12px;" transform="translate(50,37.5)" y="0" x="0" id="text-entity-Datatype-eedb5402-d0cc-52bf-9fb8-7b914f648cbe" class="er entityLabel">Datatype</text>
  </g>
  <g transform="translate(1328.8983268737793,20 )" id="entity-Quantity-46f11547-7eaf-5ee9-bc9f-a9eb227f8785">
    <rect height="75" width="100" y="0" x="0" class="er entityBox"/>
    <text style="dominant-baseline: middle; text-anchor: middle; font-size: 12px;" transform="translate(50,37.5)" y="0" x="0" id="text-entity-Quantity-46f11547-7eaf-5ee9-bc9f-a9eb227f8785" class="er entityLabel">Quantity</text>
  </g>
  <g transform="translate(2245.0957260131836,545 )" id="entity-QuantityKind-6f79b338-e354-5d95-8035-8883644476ff">
    <rect height="75" width="101.390625" y="0" x="0" class="er entityBox"/>
    <text style="dominant-baseline: middle; text-anchor: middle; font-size: 12px;" transform="translate(50.6953125,37.5)" y="0" x="0" id="text-entity-QuantityKind-6f79b338-e354-5d95-8035-8883644476ff" class="er entityLabel">QuantityKind</text>
  </g>
  <g transform="translate(764.3771095275879,195 )" id="entity-QuantityValue-f2bc13d2-1961-5e2a-9bfe-ab6a05a5860b">
    <rect height="75" width="106.375" y="0" x="0" class="er entityBox"/>
    <text style="dominant-baseline: middle; text-anchor: middle; font-size: 12px;" transform="translate(53.1875,37.5)" y="0" x="0" id="text-entity-QuantityValue-f2bc13d2-1961-5e2a-9bfe-ab6a05a5860b" class="er entityLabel">QuantityValue</text>
  </g>
  <g transform="translate(20,545 )" id="entity-Rule-886caf8e-59ff-5db3-a492-27242971196f">
    <rect height="75" width="100" y="0" x="0" class="er entityBox"/>
    <text style="dominant-baseline: middle; text-anchor: middle; font-size: 12px;" transform="translate(50,37.5)" y="0" x="0" id="text-entity-Rule-886caf8e-59ff-5db3-a492-27242971196f" class="er entityLabel">Rule</text>
  </g>
  <g transform="translate(1787.2618980407715,370 )" id="entity-Unit-c57ac1ea-0a24-509a-a80e-23f8c03ca739">
    <rect height="75" width="100" y="0" x="0" class="er entityBox"/>
    <text style="dominant-baseline: middle; text-anchor: middle; font-size: 12px;" transform="translate(50,37.5)" y="0" x="0" id="text-entity-Unit-c57ac1ea-0a24-509a-a80e-23f8c03ca739" class="er entityLabel">Unit</text>
  </g>
  <g transform="translate(621.4779586791992,545 )" id="entity-Encoding-1bd3f2aa-2a9a-589f-8d8d-495ffc6a00da">
    <rect height="75" width="100" y="0" x="0" class="er entityBox"/>
    <text style="dominant-baseline: middle; text-anchor: middle; font-size: 12px;" transform="translate(50,37.5)" y="0" x="0" id="text-entity-Encoding-1bd3f2aa-2a9a-589f-8d8d-495ffc6a00da" class="er entityLabel">Encoding</text>
  </g>
  <g transform="translate(821.4779586791992,545 )" id="entity-EndianType-d95ef20a-f1b7-5562-baf4-d38ffa1e0153">
    <rect height="75" width="100" y="0" x="0" class="er entityBox"/>
    <text style="dominant-baseline: middle; text-anchor: middle; font-size: 12px;" transform="translate(50,37.5)" y="0" x="0" id="text-entity-EndianType-d95ef20a-f1b7-5562-baf4-d38ffa1e0153" class="er entityLabel">EndianType</text>
  </g>
  <g transform="translate(1021.4779586791992,545 )" id="entity-CardinalityType-796d1111-9b0e-5cfa-a954-3577abec4acc">
    <rect height="75" width="113.78125" y="0" x="0" class="er entityBox"/>
    <text style="dominant-baseline: middle; text-anchor: middle; font-size: 12px;" transform="translate(56.890625,37.5)" y="0" x="0" id="text-entity-CardinalityType-796d1111-9b0e-5cfa-a954-3577abec4acc" class="er entityLabel">CardinalityType</text>
  </g>
  <g transform="translate(1235.2592086791992,545 )" id="entity-OrderedType-842b5e5e-013e-581b-9bf8-11371587b713">
    <rect height="75" width="100" y="0" x="0" class="er entityBox"/>
    <text style="dominant-baseline: middle; text-anchor: middle; font-size: 12px;" transform="translate(50,37.5)" y="0" x="0" id="text-entity-OrderedType-842b5e5e-013e-581b-9bf8-11371587b713" class="er entityLabel">OrderedType</text>
  </g>
  <g transform="translate(220,720 )" id="entity-QuantityKindDimensionVectorSI-2681a9c0-d385-5c75-b278-85a805bca5b5">
    <rect height="75" width="203.90625" y="0" x="0" class="er entityBox"/>
    <text style="dominant-baseline: middle; text-anchor: middle; font-size: 12px;" transform="translate(101.953125,37.5)" y="0" x="0" id="text-entity-QuantityKindDimensionVectorSI-2681a9c0-d385-5c75-b278-85a805bca5b5" class="er entityLabel">QuantityKindDimensionVectorSI</text>
  </g>
  <g transform="translate(650.5,720 )" id="entity-QuantityKindDimensionVector-bfa1bf26-fcae-516f-8f63-2f454f3dac1b">
    <rect height="75" width="194.19308471679688" y="0" x="0" class="er entityBox"/>
    <text style="dominant-baseline: middle; text-anchor: middle; font-size: 12px;" transform="translate(97.09654235839844,37.5)" y="0" x="0" id="text-entity-QuantityKindDimensionVector-bfa1bf26-fcae-516f-8f63-2f454f3dac1b" class="er entityLabel">QuantityKindDimensionVector</text>
  </g>
  <g transform="translate(2396.524612426758,720 )" id="entity-SystemOfQuantityKinds-09c2a533-d4ff-5ffb-9642-53498359216a">
    <rect height="75" width="158.53285217285156" y="0" x="0" class="er entityBox"/>
    <text style="dominant-baseline: middle; text-anchor: middle; font-size: 12px;" transform="translate(79.26642608642578,37.5)" y="0" x="0" id="text-entity-SystemOfQuantityKinds-09c2a533-d4ff-5ffb-9642-53498359216a" class="er entityLabel">SystemOfQuantityKinds</text>
  </g>
  <g transform="translate(20,720 )" id="entity-RuleType-d54df1a6-a17d-5920-9344-6f805c739e55">
    <rect height="75" width="100" y="0" x="0" class="er entityBox"/>
    <text style="dominant-baseline: middle; text-anchor: middle; font-size: 12px;" transform="translate(50,37.5)" y="0" x="0" id="text-entity-RuleType-d54df1a6-a17d-5920-9344-6f805c739e55" class="er entityLabel">RuleType</text>
  </g>
  <g transform="translate(1435.2592086791992,545 )" id="entity-Prefix-f6d97b99-faee-5974-b12e-390868d79e86">
    <rect height="75" width="100" y="0" x="0" class="er entityBox"/>
    <text style="dominant-baseline: middle; text-anchor: middle; font-size: 12px;" transform="translate(50,37.5)" y="0" x="0" id="text-entity-Prefix-f6d97b99-faee-5974-b12e-390868d79e86" class="er entityLabel">Prefix</text>
  </g>
  <g transform="translate(1635.2592086791992,545 )" id="entity-SystemOfUnits-f7f1da8e-a5af-50e1-94d0-c2e741f40e1d">
    <rect height="75" width="109.83651733398438" y="0" x="0" class="er entityBox"/>
    <text style="dominant-baseline: middle; text-anchor: middle; font-size: 12px;" transform="translate(54.91825866699219,37.5)" y="0" x="0" id="text-entity-SystemOfUnits-f7f1da8e-a5af-50e1-94d0-c2e741f40e1d" class="er entityLabel">SystemOfUnits</text>
  </g>
  <g transform="translate(1845.0957260131836,545 )" id="entity-UCUMcs-8df33f70-0c53-5f8e-a81f-0969bc803a34">
    <rect height="75" width="100" y="0" x="0" class="er entityBox"/>
    <text style="dominant-baseline: middle; text-anchor: middle; font-size: 12px;" transform="translate(50,37.5)" y="0" x="0" id="text-entity-UCUMcs-8df33f70-0c53-5f8e-a81f-0969bc803a34" class="er entityLabel">UCUMcs</text>
  </g>
  <g transform="translate(2045.0957260131836,545 )" id="entity-Class-d9e3eb4a-97c0-50b6-8e3f-7f4a2fa7283d">
    <rect height="75" width="100" y="0" x="0" class="er entityBox"/>
    <text style="dominant-baseline: middle; text-anchor: middle; font-size: 12px;" transform="translate(50,37.5)" y="0" x="0" id="text-entity-Class-d9e3eb4a-97c0-50b6-8e3f-7f4a2fa7283d" class="er entityLabel">__Class</text>
  </g>
  <rect height="14" width="50.66827392578125" y="487.9377136230469" x="645.4190979003906" class="er relationshipLabelBox"/>
  <text style="text-anchor: middle; dominant-baseline: middle; font-size: 12px;" y="494.9377136230469" x="670.7532348632812" id="rel1" class="er relationshipLabel">encoding</text>
  <rect height="14" width="105.83673095703125" y="464.4910888671875" x="757.5394592285156" class="er relationshipLabelBox"/>
  <text style="text-anchor: middle; dominant-baseline: middle; font-size: 12px;" y="471.4910888671875" x="810.4578247070312" id="rel2" class="er relationshipLabel">bitOrder, byteOrder</text>
  <rect height="14" width="57.58837890625" y="484.83551025390625" x="1042.9566650390625" class="er relationshipLabelBox"/>
  <text style="text-anchor: middle; dominant-baseline: middle; font-size: 12px;" y="491.83551025390625" x="1071.7508544921875" id="rel3" class="er relationshipLabel">cardinality</text>
  <rect height="14" width="28.4041748046875" y="400.5" x="1159.2019653320312" class="er relationshipLabelBox"/>
  <text style="text-anchor: middle; dominant-baseline: middle; font-size: 12px;" y="407.5" x="1173.404052734375" id="rel4" class="er relationshipLabel">basis</text>
  <rect height="14" width="68.28125" y="459.515625" x="1159.536865234375" class="er relationshipLabelBox"/>
  <text style="text-anchor: middle; dominant-baseline: middle; font-size: 12px;" y="466.515625" x="1193.677490234375" id="rel5" class="er relationshipLabel">orderedType</text>
  <rect height="14" width="43.296875" y="448.6562194824219" x="488.1556396484375" class="er relationshipLabelBox"/>
  <text style="text-anchor: middle; dominant-baseline: middle; font-size: 12px;" y="455.6562194824219" x="509.8040771484375" id="rel6" class="er relationshipLabel">hasRule</text>
  <rect height="14" width="74.908447265625" y="112.97673034667969" x="869.2471923828125" class="er relationshipLabelBox"/>
  <text style="text-anchor: middle; dominant-baseline: middle; font-size: 12px;" y="119.97673034667969" x="906.701416015625" id="rel7" class="er relationshipLabel">dataEncoding</text>
  <rect height="14" width="48.328125" y="135.20050048828125" x="1060.6961669921875" class="er relationshipLabelBox"/>
  <text style="text-anchor: middle; dominant-baseline: middle; font-size: 12px;" y="142.20050048828125" x="1084.8602294921875" id="rel8" class="er relationshipLabel">datatype</text>
  <rect height="14" width="42.404296875" y="133.51675415039062" x="2141.87255859375" class="er relationshipLabelBox"/>
  <text style="text-anchor: middle; dominant-baseline: middle; font-size: 12px;" y="140.51675415039062" x="2163.07470703125" id="rel9" class="er relationshipLabel">hasUnit</text>
  <rect height="14" width="90.4375" y="121.39730834960938" x="2166.41162109375" class="er relationshipLabelBox"/>
  <text style="text-anchor: middle; dominant-baseline: middle; font-size: 12px;" y="128.39730834960938" x="2211.63037109375" id="rel10" class="er relationshipLabel">hasQuantityKind</text>
  <rect height="14" width="75.265625" y="101.37161254882812" x="1023.0042724609375" class="er relationshipLabelBox"/>
  <text style="text-anchor: middle; dominant-baseline: middle; font-size: 12px;" y="108.37161254882812" x="1060.6370849609375" id="rel11" class="er relationshipLabel">quantityValue</text>
  <rect height="14" width="119.078125" y="621.818603515625" x="1215.744140625" class="er relationshipLabelBox"/>
  <text style="text-anchor: middle; dominant-baseline: middle; font-size: 12px;" y="628.818603515625" x="1275.283203125" id="rel12" class="er relationshipLabel">dimensionVectorForSI</text>
  <rect height="14" width="61.453125" y="575.5" x="2414.926513671875" class="er relationshipLabelBox"/>
  <text style="text-anchor: middle; dominant-baseline: middle; font-size: 12px;" y="582.5" x="2445.653076171875" id="rel13" class="er relationshipLabel">exactMatch</text>
  <rect height="14" width="304.4981689453125" y="702.284912109375" x="1424.5670776367188" class="er relationshipLabelBox"/>
  <text style="text-anchor: middle; dominant-baseline: middle; font-size: 12px;" y="709.284912109375" x="1576.816162109375" id="rel14" class="er relationshipLabel">hasDimensionVector, qkdvDenominator, qkdvNumerator</text>
  <rect height="14" width="163.42919921875" y="642.1569213867188" x="2345.973388671875" class="er relationshipLabelBox"/>
  <text style="text-anchor: middle; dominant-baseline: middle; font-size: 12px;" y="649.1569213867188" x="2427.68798828125" id="rel15" class="er relationshipLabel">belongsToSystemOfQuantities</text>
  <rect height="14" width="675.57666015625" y="456.0762634277344" x="1751.9423828125" class="er relationshipLabelBox"/>
  <text style="text-anchor: middle; dominant-baseline: middle; font-size: 12px;" y="463.0762634277344" x="2089.730712890625" id="rel16" class="er relationshipLabel">applicableCGSUnit, applicableISOUnit, applicableImperialUnit, applicableSIUnit, applicableUSCustomaryUnit, applicableUnit</text>
  <rect height="14" width="74.908447265625" y="284.8946228027344" x="615.202392578125" class="er relationshipLabelBox"/>
  <text style="text-anchor: middle; dominant-baseline: middle; font-size: 12px;" y="291.8946228027344" x="652.6566162109375" id="rel17" class="er relationshipLabel">dataEncoding</text>
  <rect height="14" width="48.328125" y="336.6494140625" x="853.4406127929688" class="er relationshipLabelBox"/>
  <text style="text-anchor: middle; dominant-baseline: middle; font-size: 12px;" y="343.6494140625" x="877.6046752929688" id="rel18" class="er relationshipLabel">datatype</text>
  <rect height="14" width="42.404296875" y="335.0046081542969" x="1304.6280517578125" class="er relationshipLabelBox"/>
  <text style="text-anchor: middle; dominant-baseline: middle; font-size: 12px;" y="342.0046081542969" x="1325.8302001953125" id="rel19" class="er relationshipLabel">hasUnit</text>
  <rect height="14" width="46.921875" y="663" x="46.5390625" class="er relationshipLabelBox"/>
  <text style="text-anchor: middle; dominant-baseline: middle; font-size: 12px;" y="670" x="70" id="rel20" class="er relationshipLabel">ruleType</text>
  <rect height="14" width="304.4981689453125" y="457.6000671386719" x="880.8750610351562" class="er relationshipLabelBox"/>
  <text style="text-anchor: middle; dominant-baseline: middle; font-size: 12px;" y="464.6000671386719" x="1033.1241455078125" id="rel21" class="er relationshipLabel">hasDimensionVector, qkdvDenominator, qkdvNumerator</text>
  <rect height="14" width="30.8402099609375" y="455.6130676269531" x="1606.1725463867188" class="er relationshipLabelBox"/>
  <text style="text-anchor: middle; dominant-baseline: middle; font-size: 12px;" y="462.6130676269531" x="1621.5926513671875" id="rel22" class="er relationshipLabel">prefix</text>
  <rect height="14" width="90.4375" y="450.9473876953125" x="2077.70849609375" class="er relationshipLabelBox"/>
  <text style="text-anchor: middle; dominant-baseline: middle; font-size: 12px;" y="457.9473876953125" x="2122.92724609375" id="rel23" class="er relationshipLabel">hasQuantityKind</text>
  <rect height="14" width="597.5625" y="472.0554504394531" x="1423.6331787109375" class="er relationshipLabelBox"/>
  <text style="text-anchor: middle; dominant-baseline: middle; font-size: 12px;" y="479.0554504394531" x="1722.4144287109375" id="rel24" class="er relationshipLabel">applicableSystem, definedUnitOfSystem, derivedCoherentUnitOfSystem, derivedUnitOfSystem, isUnitOfSystem</text>
  <rect height="14" width="57.078125" y="484.8354797363281" x="1859.9388427734375" class="er relationshipLabelBox"/>
  <text style="text-anchor: middle; dominant-baseline: middle; font-size: 12px;" y="491.8354797363281" x="1888.4779052734375" id="rel25" class="er relationshipLabel">ucumCode</text>
  <rect height="14" width="223.1494140625" y="400.5" x="2279.576171875" class="er relationshipLabelBox"/>
  <text style="text-anchor: middle; dominant-baseline: middle; font-size: 12px;" y="407.5" x="2391.15087890625" id="rel26" class="er relationshipLabel">exactMatch, hasReciprocalUnit, scalingOf</text>
  <rect height="14" width="75.632568359375" y="459.94024658203125" x="1969.229736328125" class="er relationshipLabelBox"/>
  <text style="text-anchor: middle; dominant-baseline: middle; font-size: 12px;" y="466.94024658203125" x="2007.0460205078125" id="rel27" class="er relationshipLabel">hasFactorUnit</text>
</svg>
