<svg xmlns="http://www.w3.org/2000/svg" aria-roledescription="class" role="graphics-document document" viewBox="0 0 427.96875 234" height="234" class="classDiagram" width="427.96875" id="container">
  <style>#container{font-family:"trebuchet ms",verdana,arial,sans-serif;font-size:16px;fill:#333;}#container .error-icon{fill:#552222;}#container .error-text{fill:#552222;stroke:#552222;}#container .edge-thickness-normal{stroke-width:1px;}#container .edge-thickness-thick{stroke-width:3.5px;}#container .edge-pattern-solid{stroke-dasharray:0;}#container .edge-thickness-invisible{stroke-width:0;fill:none;}#container .edge-pattern-dashed{stroke-dasharray:3;}#container .edge-pattern-dotted{stroke-dasharray:2;}#container .marker{fill:#333333;stroke:#333333;}#container .marker.cross{stroke:#333333;}#container svg{font-family:"trebuchet ms",verdana,arial,sans-serif;font-size:16px;}#container p{margin:0;}#container g.classGroup text{fill:#9370DB;stroke:none;font-family:"trebuchet ms",verdana,arial,sans-serif;font-size:10px;}#container g.classGroup text .title{font-weight:bolder;}#container .nodeLabel,#container .edgeLabel{color:#131300;}#container .edgeLabel .label rect{fill:#ECECFF;}#container .label text{fill:#131300;}#container .labelBkg{background:#ECECFF;}#container .edgeLabel .label span{background:#ECECFF;}#container .classTitle{font-weight:bolder;}#container .node rect,#container .node circle,#container .node ellipse,#container .node polygon,#container .node path{fill:#ECECFF;stroke:#9370DB;stroke-width:1px;}#container .divider{stroke:#9370DB;stroke-width:1;}#container g.clickable{cursor:pointer;}#container g.classGroup rect{fill:#ECECFF;stroke:#9370DB;}#container g.classGroup line{stroke:#9370DB;stroke-width:1;}#container .classLabel .box{stroke:none;stroke-width:0;fill:#ECECFF;opacity:0.5;}#container .classLabel .label{fill:#9370DB;font-size:10px;}#container .relation{stroke:#333333;stroke-width:1;fill:none;}#container .dashed-line{stroke-dasharray:3;}#container .dotted-line{stroke-dasharray:1 2;}#container #compositionStart,#container .composition{fill:#333333!important;stroke:#333333!important;stroke-width:1;}#container #compositionEnd,#container .composition{fill:#333333!important;stroke:#333333!important;stroke-width:1;}#container #dependencyStart,#container .dependency{fill:#333333!important;stroke:#333333!important;stroke-width:1;}#container #dependencyStart,#container .dependency{fill:#333333!important;stroke:#333333!important;stroke-width:1;}#container #extensionStart,#container .extension{fill:transparent!important;stroke:#333333!important;stroke-width:1;}#container #extensionEnd,#container .extension{fill:transparent!important;stroke:#333333!important;stroke-width:1;}#container #aggregationStart,#container .aggregation{fill:transparent!important;stroke:#333333!important;stroke-width:1;}#container #aggregationEnd,#container .aggregation{fill:transparent!important;stroke:#333333!important;stroke-width:1;}#container #lollipopStart,#container .lollipop{fill:#ECECFF!important;stroke:#333333!important;stroke-width:1;}#container #lollipopEnd,#container .lollipop{fill:#ECECFF!important;stroke:#333333!important;stroke-width:1;}#container .edgeTerminals{font-size:11px;line-height:initial;}#container .classTitleText{text-anchor:middle;font-size:18px;fill:#333;}#container :root{--mermaid-font-family:"trebuchet ms",verdana,arial,sans-serif;}</style>
  <g>
    <defs>
      <marker orient="auto" markerHeight="240" markerWidth="190" refY="7" refX="18" class="marker aggregation class" id="container_class-aggregationStart">
        <path d="M 18,7 L9,13 L1,7 L9,1 Z"/>
      </marker>
    </defs>
    <defs>
      <marker orient="auto" markerHeight="28" markerWidth="20" refY="7" refX="1" class="marker aggregation class" id="container_class-aggregationEnd">
        <path d="M 18,7 L9,13 L1,7 L9,1 Z"/>
      </marker>
    </defs>
    <defs>
      <marker orient="auto" markerHeight="240" markerWidth="190" refY="7" refX="18" class="marker extension class" id="container_class-extensionStart">
        <path d="M 1,7 L18,13 V 1 Z"/>
      </marker>
    </defs>
    <defs>
      <marker orient="auto" markerHeight="28" markerWidth="20" refY="7" refX="1" class="marker extension class" id="container_class-extensionEnd">
        <path d="M 1,1 V 13 L18,7 Z"/>
      </marker>
    </defs>
    <defs>
      <marker orient="auto" markerHeight="240" markerWidth="190" refY="7" refX="18" class="marker composition class" id="container_class-compositionStart">
        <path d="M 18,7 L9,13 L1,7 L9,1 Z"/>
      </marker>
    </defs>
    <defs>
      <marker orient="auto" markerHeight="28" markerWidth="20" refY="7" refX="1" class="marker composition class" id="container_class-compositionEnd">
        <path d="M 18,7 L9,13 L1,7 L9,1 Z"/>
      </marker>
    </defs>
    <defs>
      <marker orient="auto" markerHeight="240" markerWidth="190" refY="7" refX="6" class="marker dependency class" id="container_class-dependencyStart">
        <path d="M 5,7 L9,13 L1,7 L9,1 Z"/>
      </marker>
    </defs>
    <defs>
      <marker orient="auto" markerHeight="28" markerWidth="20" refY="7" refX="13" class="marker dependency class" id="container_class-dependencyEnd">
        <path d="M 18,7 L9,13 L14,7 L9,1 Z"/>
      </marker>
    </defs>
    <defs>
      <marker orient="auto" markerHeight="240" markerWidth="190" refY="7" refX="13" class="marker lollipop class" id="container_class-lollipopStart">
        <circle r="6" cy="7" cx="7" fill="transparent" stroke="black"/>
      </marker>
    </defs>
    <defs>
      <marker orient="auto" markerHeight="240" markerWidth="190" refY="7" refX="1" class="marker lollipop class" id="container_class-lollipopEnd">
        <circle r="6" cy="7" cx="7" fill="transparent" stroke="black"/>
      </marker>
    </defs>
    <g class="root">
      <g class="clusters"/>
      <g class="edgePaths">
        <path marker-start="url(#container_class-extensionStart)" style=";" class="edge-thickness-normal edge-pattern-solid relation" id="id_Resource_UCUMcs_1" d="M140.043,77.102L124.856,83.751C109.669,90.401,79.295,103.701,64.109,114.517C48.922,125.333,48.922,133.667,48.922,137.833L48.922,142"/>
        <path marker-start="url(#container_class-extensionStart)" style=";" class="edge-thickness-normal edge-pattern-solid relation" id="id_Resource_UCUMcs_term_2" d="M201.938,110L201.938,111.167C201.938,112.333,201.938,114.667,201.938,120C201.938,125.333,201.938,133.667,201.938,137.833L201.938,142"/>
        <path marker-start="url(#container_class-extensionStart)" style=";" class="edge-thickness-normal edge-pattern-solid relation" id="id_Resource_valueUnion_3" d="M264.022,75.201L281.185,82.167C298.348,89.134,332.674,103.067,349.837,114.2C367,125.333,367,133.667,367,137.833L367,142"/>
      </g>
      <g class="edgeLabels">
        <g class="edgeLabel">
          <g transform="translate(0, -12)" class="label">
            <foreignObject height="24" width="0">
              <div xmlns="http://www.w3.org/1999/xhtml" class="labelBkg" style="display: table-cell; white-space: nowrap; line-height: 1.5; max-width: 200px; text-align: center;">
                <span class="edgeLabel" style=";display: inline-block"/>
              </div>
            </foreignObject>
          </g>
        </g>
        <g class="edgeLabel">
          <g transform="translate(0, -12)" class="label">
            <foreignObject height="24" width="0">
              <div xmlns="http://www.w3.org/1999/xhtml" class="labelBkg" style="display: table-cell; white-space: nowrap; line-height: 1.5; max-width: 200px; text-align: center;">
                <span class="edgeLabel" style=";display: inline-block"/>
              </div>
            </foreignObject>
          </g>
        </g>
        <g class="edgeLabel">
          <g transform="translate(0, -12)" class="label">
            <foreignObject height="24" width="0">
              <div xmlns="http://www.w3.org/1999/xhtml" class="labelBkg" style="display: table-cell; white-space: nowrap; line-height: 1.5; max-width: 200px; text-align: center;">
                <span class="edgeLabel" style=";display: inline-block"/>
              </div>
            </foreignObject>
          </g>
        </g>
      </g>
      <g class="nodes">
        <g transform="translate(201.9375, 50)" id="classId-Resource-0" class="node default">
          <g class="basic label-container">
            <path style="" fill="#ECECFF" stroke-width="0" stroke="none" d="M-45.40625 -42 L45.40625 -42 L45.40625 42 L-45.40625 42"/>
            <path style="" fill="none" stroke-width="1.3" stroke="#9370DB" d="M-45.40625 -42 C-24.863300385436148 -42, -4.320350770872295 -42, 45.40625 -42 M-45.40625 -42 C-20.740426770189167 -42, 3.925396459621666 -42, 45.40625 -42 M45.40625 -42 C45.40625 -9.62512389698604, 45.40625 22.74975220602792, 45.40625 42 M45.40625 -42 C45.40625 -20.04141018910152, 45.40625 1.9171796217969614, 45.40625 42 M45.40625 42 C22.293551407535574 42, -0.8191471849288519 42, -45.40625 42 M45.40625 42 C9.734495227449393 42, -25.937259545101213 42, -45.40625 42 M-45.40625 42 C-45.40625 23.530754926774915, -45.40625 5.061509853549829, -45.40625 -42 M-45.40625 42 C-45.40625 21.212610914096683, -45.40625 0.42522182819336507, -45.40625 -42"/>
          </g>
          <g transform="translate(0, -18)" class="annotation-group text"/>
          <g transform="translate(-33.40625, -18)" class="label-group text">
            <g transform="translate(0,-12)" style="font-weight: bolder" class="label">
              <foreignObject height="24" width="66.8125">
                <div xmlns="http://www.w3.org/1999/xhtml" style="display: table-cell; white-space: nowrap; line-height: 1.5; max-width: 117px; text-align: center;">
                  <span style="" class="nodeLabel markdown-node-label">
                    <p>Resource</p>
                  </span>
                </div>
              </foreignObject>
            </g>
          </g>
          <g transform="translate(-33.40625, 30)" class="members-group text"/>
          <g transform="translate(-33.40625, 60)" class="methods-group text"/>
          <g style="" class="divider">
            <path style="" fill="none" stroke-width="1.3" stroke="#9370DB" d="M-45.40625 6 C-17.186498921175264 6, 11.033252157649471 6, 45.40625 6 M-45.40625 6 C-18.569987081736283 6, 8.266275836527434 6, 45.40625 6"/>
          </g>
          <g style="" class="divider">
            <path style="" fill="none" stroke-width="1.3" stroke="#9370DB" d="M-45.40625 24 C-24.28527468380347 24, -3.1642993676069366 24, 45.40625 24 M-45.40625 24 C-11.330319920920068 24, 22.745610158159863 24, 45.40625 24"/>
          </g>
        </g>
        <g transform="translate(48.921875, 184)" id="classId-UCUMcs-1" class="node default">
          <g class="basic label-container">
            <path style="" fill="#ECECFF" stroke-width="0" stroke="none" d="M-40.921875 -42 L40.921875 -42 L40.921875 42 L-40.921875 42"/>
            <path style="" fill="none" stroke-width="1.3" stroke="#9370DB" d="M-40.921875 -42 C-24.103134369046906 -42, -7.2843937380938115 -42, 40.921875 -42 M-40.921875 -42 C-11.014255089011805 -42, 18.89336482197639 -42, 40.921875 -42 M40.921875 -42 C40.921875 -23.09319970732939, 40.921875 -4.18639941465878, 40.921875 42 M40.921875 -42 C40.921875 -10.61269708662503, 40.921875 20.77460582674994, 40.921875 42 M40.921875 42 C21.595447424750642 42, 2.2690198495012837 42, -40.921875 42 M40.921875 42 C17.67910421900329 42, -5.563666561993422 42, -40.921875 42 M-40.921875 42 C-40.921875 15.835352848888864, -40.921875 -10.329294302222273, -40.921875 -42 M-40.921875 42 C-40.921875 10.327079793336818, -40.921875 -21.345840413326364, -40.921875 -42"/>
          </g>
          <g transform="translate(0, -18)" class="annotation-group text"/>
          <g transform="translate(-28.921875, -18)" class="label-group text">
            <g transform="translate(0,-12)" style="font-weight: bolder" class="label">
              <foreignObject height="24" width="57.84375">
                <div xmlns="http://www.w3.org/1999/xhtml" style="display: table-cell; white-space: nowrap; line-height: 1.5; max-width: 108px; text-align: center;">
                  <span style="" class="nodeLabel markdown-node-label">
                    <p>UCUMcs</p>
                  </span>
                </div>
              </foreignObject>
            </g>
          </g>
          <g transform="translate(-28.921875, 30)" class="members-group text"/>
          <g transform="translate(-28.921875, 60)" class="methods-group text"/>
          <g style="" class="divider">
            <path style="" fill="none" stroke-width="1.3" stroke="#9370DB" d="M-40.921875 6 C-15.826178084159466 6, 9.269518831681069 6, 40.921875 6 M-40.921875 6 C-23.659508780926522 6, -6.397142561853045 6, 40.921875 6"/>
          </g>
          <g style="" class="divider">
            <path style="" fill="none" stroke-width="1.3" stroke="#9370DB" d="M-40.921875 24 C-20.591208600415623 24, -0.2605422008312459 24, 40.921875 24 M-40.921875 24 C-18.88318312434127 24, 3.1555087513174627 24, 40.921875 24"/>
          </g>
        </g>
        <g transform="translate(201.9375, 184)" id="classId-UCUMcs_term-2" class="node default">
          <g class="basic label-container">
            <path style="" fill="#ECECFF" stroke-width="0" stroke="none" d="M-62.09375 -42 L62.09375 -42 L62.09375 42 L-62.09375 42"/>
            <path style="" fill="none" stroke-width="1.3" stroke="#9370DB" d="M-62.09375 -42 C-36.558300204749976 -42, -11.022850409499952 -42, 62.09375 -42 M-62.09375 -42 C-31.94081658218772 -42, -1.7878831643754367 -42, 62.09375 -42 M62.09375 -42 C62.09375 -20.18982898997578, 62.09375 1.6203420200484402, 62.09375 42 M62.09375 -42 C62.09375 -17.006575909946097, 62.09375 7.986848180107806, 62.09375 42 M62.09375 42 C34.417273683833685 42, 6.740797367667369 42, -62.09375 42 M62.09375 42 C34.77324625409399 42, 7.452742508187988 42, -62.09375 42 M-62.09375 42 C-62.09375 16.024011085352395, -62.09375 -9.95197782929521, -62.09375 -42 M-62.09375 42 C-62.09375 21.886037412869317, -62.09375 1.7720748257386347, -62.09375 -42"/>
          </g>
          <g transform="translate(0, -18)" class="annotation-group text"/>
          <g transform="translate(-50.09375, -18)" class="label-group text">
            <g transform="translate(0,-12)" style="font-weight: bolder" class="label">
              <foreignObject height="24" width="100.1875">
                <div xmlns="http://www.w3.org/1999/xhtml" style="display: table-cell; white-space: nowrap; line-height: 1.5; max-width: 151px; text-align: center;">
                  <span style="" class="nodeLabel markdown-node-label">
                    <p>UCUMcs_term</p>
                  </span>
                </div>
              </foreignObject>
            </g>
          </g>
          <g transform="translate(-50.09375, 30)" class="members-group text"/>
          <g transform="translate(-50.09375, 60)" class="methods-group text"/>
          <g style="" class="divider">
            <path style="" fill="none" stroke-width="1.3" stroke="#9370DB" d="M-62.09375 6 C-21.539888422745918 6, 19.013973154508164 6, 62.09375 6 M-62.09375 6 C-27.60900257871085 6, 6.8757448425783 6, 62.09375 6"/>
          </g>
          <g style="" class="divider">
            <path style="" fill="none" stroke-width="1.3" stroke="#9370DB" d="M-62.09375 24 C-31.266101750636864 24, -0.4384535012737274 24, 62.09375 24 M-62.09375 24 C-29.095502036544502 24, 3.9027459269109954 24, 62.09375 24"/>
          </g>
        </g>
        <g transform="translate(367, 184)" id="classId-valueUnion-3" class="node default">
          <g class="basic label-container">
            <path style="" fill="#ECECFF" stroke-width="0" stroke="none" d="M-52.96875 -42 L52.96875 -42 L52.96875 42 L-52.96875 42"/>
            <path style="" fill="none" stroke-width="1.3" stroke="#9370DB" d="M-52.96875 -42 C-26.712205061395625 -42, -0.4556601227912509 -42, 52.96875 -42 M-52.96875 -42 C-14.064047973512253 -42, 24.840654052975495 -42, 52.96875 -42 M52.96875 -42 C52.96875 -15.286307584231832, 52.96875 11.427384831536337, 52.96875 42 M52.96875 -42 C52.96875 -22.82149268832957, 52.96875 -3.6429853766591407, 52.96875 42 M52.96875 42 C18.63086282623071 42, -15.707024347538578 42, -52.96875 42 M52.96875 42 C18.32417245719629 42, -16.32040508560742 42, -52.96875 42 M-52.96875 42 C-52.96875 21.792367476233878, -52.96875 1.5847349524677554, -52.96875 -42 M-52.96875 42 C-52.96875 22.086116161415145, -52.96875 2.1722323228302898, -52.96875 -42"/>
          </g>
          <g transform="translate(0, -18)" class="annotation-group text"/>
          <g transform="translate(-40.96875, -18)" class="label-group text">
            <g transform="translate(0,-12)" style="font-weight: bolder" class="label">
              <foreignObject height="24" width="81.9375">
                <div xmlns="http://www.w3.org/1999/xhtml" style="display: table-cell; white-space: nowrap; line-height: 1.5; max-width: 133px; text-align: center;">
                  <span style="" class="nodeLabel markdown-node-label">
                    <p>valueUnion</p>
                  </span>
                </div>
              </foreignObject>
            </g>
          </g>
          <g transform="translate(-40.96875, 30)" class="members-group text"/>
          <g transform="translate(-40.96875, 60)" class="methods-group text"/>
          <g style="" class="divider">
            <path style="" fill="none" stroke-width="1.3" stroke="#9370DB" d="M-52.96875 6 C-27.575556015172506 6, -2.1823620303450113 6, 52.96875 6 M-52.96875 6 C-22.811820707581283 6, 7.345108584837433 6, 52.96875 6"/>
          </g>
          <g style="" class="divider">
            <path style="" fill="none" stroke-width="1.3" stroke="#9370DB" d="M-52.96875 24 C-24.278046677098992 24, 4.412656645802016 24, 52.96875 24 M-52.96875 24 C-31.2195054964665 24, -9.470260992933 24, 52.96875 24"/>
          </g>
        </g>
      </g>
    </g>
  </g>
</svg>
