<svg xmlns="http://www.w3.org/2000/svg" aria-roledescription="er" role="graphics-document document" viewBox="-348.54803466796875 0 2145.21533203125 990" height="990" width="2145.21533203125" id="container">
  <style>#container{font-family:"trebuchet ms",verdana,arial,sans-serif;font-size:16px;fill:#333;}#container .error-icon{fill:#552222;}#container .error-text{fill:#552222;stroke:#552222;}#container .edge-thickness-normal{stroke-width:1px;}#container .edge-thickness-thick{stroke-width:3.5px;}#container .edge-pattern-solid{stroke-dasharray:0;}#container .edge-thickness-invisible{stroke-width:0;fill:none;}#container .edge-pattern-dashed{stroke-dasharray:3;}#container .edge-pattern-dotted{stroke-dasharray:2;}#container .marker{fill:#333333;stroke:#333333;}#container .marker.cross{stroke:#333333;}#container svg{font-family:"trebuchet ms",verdana,arial,sans-serif;font-size:16px;}#container p{margin:0;}#container .entityBox{fill:#ECECFF;stroke:#9370DB;}#container .attributeBoxOdd{fill:#ffffff;stroke:#9370DB;}#container .attributeBoxEven{fill:#f2f2f2;stroke:#9370DB;}#container .relationshipLabelBox{fill:hsl(80, 100%, 96.2745098039%);opacity:0.7;background-color:hsl(80, 100%, 96.2745098039%);}#container .relationshipLabelBox rect{opacity:0.5;}#container .relationshipLine{stroke:#333333;}#container .entityTitleText{text-anchor:middle;font-size:18px;fill:#333;}#container #MD_PARENT_START{fill:#f5f5f5!important;stroke:#333333!important;stroke-width:1;}#container #MD_PARENT_END{fill:#f5f5f5!important;stroke:#333333!important;stroke-width:1;}#container :root{--mermaid-font-family:"trebuchet ms",verdana,arial,sans-serif;}</style>
  <g/>
  <defs>
    <marker orient="auto" markerHeight="240" markerWidth="190" refY="7" refX="0" id="MD_PARENT_START">
      <path d="M 18,7 L9,13 L1,7 L9,1 Z"/>
    </marker>
  </defs>
  <defs>
    <marker orient="auto" markerHeight="28" markerWidth="20" refY="7" refX="19" id="MD_PARENT_END">
      <path d="M 18,7 L9,13 L1,7 L9,1 Z"/>
    </marker>
  </defs>
  <defs>
    <marker orient="auto" markerHeight="18" markerWidth="18" refY="9" refX="0" id="ONLY_ONE_START">
      <path d="M9,0 L9,18 M15,0 L15,18" fill="none" stroke="gray"/>
    </marker>
  </defs>
  <defs>
    <marker orient="auto" markerHeight="18" markerWidth="18" refY="9" refX="18" id="ONLY_ONE_END">
      <path d="M3,0 L3,18 M9,0 L9,18" fill="none" stroke="gray"/>
    </marker>
  </defs>
  <defs>
    <marker orient="auto" markerHeight="18" markerWidth="30" refY="9" refX="0" id="ZERO_OR_ONE_START">
      <circle r="6" cy="9" cx="21" fill="white" stroke="gray"/>
      <path d="M9,0 L9,18" fill="none" stroke="gray"/>
    </marker>
  </defs>
  <defs>
    <marker orient="auto" markerHeight="18" markerWidth="30" refY="9" refX="30" id="ZERO_OR_ONE_END">
      <circle r="6" cy="9" cx="9" fill="white" stroke="gray"/>
      <path d="M21,0 L21,18" fill="none" stroke="gray"/>
    </marker>
  </defs>
  <defs>
    <marker orient="auto" markerHeight="36" markerWidth="45" refY="18" refX="18" id="ONE_OR_MORE_START">
      <path d="M0,18 Q 18,0 36,18 Q 18,36 0,18 M42,9 L42,27" fill="none" stroke="gray"/>
    </marker>
  </defs>
  <defs>
    <marker orient="auto" markerHeight="36" markerWidth="45" refY="18" refX="27" id="ONE_OR_MORE_END">
      <path d="M3,9 L3,27 M9,18 Q27,0 45,18 Q27,36 9,18" fill="none" stroke="gray"/>
    </marker>
  </defs>
  <defs>
    <marker orient="auto" markerHeight="36" markerWidth="57" refY="18" refX="18" id="ZERO_OR_MORE_START">
      <circle r="6" cy="18" cx="48" fill="white" stroke="gray"/>
      <path d="M0,18 Q18,0 36,18 Q18,36 0,18" fill="none" stroke="gray"/>
    </marker>
  </defs>
  <defs>
    <marker orient="auto" markerHeight="36" markerWidth="57" refY="18" refX="39" id="ZERO_OR_MORE_END">
      <circle r="6" cy="18" cx="9" fill="white" stroke="gray"/>
      <path d="M21,18 Q39,0 57,18 Q39,36 21,18" fill="none" stroke="gray"/>
    </marker>
  </defs>
  <path style="stroke: gray; fill: none;" marker-start="url(#ONLY_ONE_START)" marker-end="url(#ZERO_OR_MORE_END)" d="M879.032,745.508L896.757,741.256C914.483,737.005,949.933,728.503,972.09,724.251C994.246,720,1003.109,720,1011.971,726.25C1020.834,732.5,1029.697,745,1029.697,757.5C1029.697,770,1020.834,782.5,1011.971,788.75C1003.109,795,994.246,795,972.09,790.749C949.933,786.497,914.483,777.995,896.757,773.744L879.032,769.492" class="er relationshipLine"/>
  <path style="stroke: gray; fill: none;" marker-start="url(#ONLY_ONE_START)" marker-end="url(#ZERO_OR_MORE_END)" d="M829.032,795L829.032,803.333C829.032,811.667,829.032,828.333,829.032,845C829.032,861.667,829.032,878.333,829.032,886.667L829.032,895" class="er relationshipLine"/>
  <path style="stroke: gray; fill: none;" marker-start="url(#ONLY_ONE_START)" marker-end="url(#ZERO_OR_ONE_END)" d="M444.277,240.215L356.897,253.512C269.518,266.81,94.759,293.405,7.379,321.286C-80,349.167,-80,378.333,-80,407.5C-80,436.667,-80,465.833,-30.775,491.392C18.45,516.95,116.899,538.901,166.124,549.876L215.349,560.851" class="er relationshipLine"/>
  <path style="stroke: gray; fill: none;" marker-start="url(#ONLY_ONE_START)" marker-end="url(#ZERO_OR_ONE_END)" d="M444.277,244.392L390.556,256.993C336.835,269.594,229.394,294.797,175.674,315.732C121.953,336.667,121.953,353.333,121.953,361.667L121.953,370" class="er relationshipLine"/>
  <path style="stroke: gray; fill: none;" marker-start="url(#ONLY_ONE_START)" marker-end="url(#ZERO_OR_MORE_END)" d="M545.667,229.137L631.435,223.448C717.203,217.758,888.739,206.379,995.949,200.69C1103.159,195,1146.043,195,1188.927,201.25C1231.811,207.5,1274.695,220,1274.695,232.5C1274.695,245,1231.811,257.5,1188.927,263.75C1146.043,270,1103.159,270,995.949,264.31C888.739,258.621,717.203,247.242,631.435,241.552L545.667,235.863" class="er relationshipLine"/>
  <path style="stroke: gray; fill: none;" marker-start="url(#ONLY_ONE_START)" marker-end="url(#ZERO_OR_MORE_END)" d="M455.629,270L446.887,278.333C438.144,286.667,420.658,303.333,411.915,320C403.173,336.667,403.173,353.333,403.173,361.667L403.173,370" class="er relationshipLine"/>
  <path style="stroke: gray; fill: none;" marker-start="url(#ONLY_ONE_START)" marker-end="url(#ZERO_OR_MORE_END)" d="M498.486,270L499.268,278.333C500.049,286.667,501.611,303.333,588.693,324.966C675.775,346.598,848.377,373.197,934.678,386.496L1020.979,399.795" class="er relationshipLine"/>
  <path style="stroke: gray; fill: none;" marker-start="url(#ONLY_ONE_START)" marker-end="url(#ZERO_OR_MORE_END)" d="M409.542,553.277L441.814,543.564C474.086,533.851,538.629,514.426,570.901,490.129C603.173,465.833,603.173,436.667,603.173,407.5C603.173,378.333,603.173,349.167,592.868,326.25C582.563,303.333,561.953,286.667,551.648,278.333L541.344,270" class="er relationshipLine"/>
  <path style="stroke: gray; fill: none;" marker-start="url(#ONLY_ONE_START)" marker-end="url(#ZERO_OR_MORE_END)" d="M312.446,620L312.446,628.333C312.446,636.667,312.446,653.333,307.602,670C302.758,686.667,293.071,703.333,288.227,711.667L283.383,720" class="er relationshipLine"/>
  <path style="stroke: gray; fill: none;" marker-start="url(#ONLY_ONE_START)" marker-end="url(#ZERO_OR_MORE_END)" d="M261.586,795L261.586,803.333C261.586,811.667,261.586,828.333,261.586,845C261.586,861.667,261.586,878.333,261.586,886.667L261.586,895" class="er relationshipLine"/>
  <path style="stroke: gray; fill: none;" marker-start="url(#ONLY_ONE_START)" marker-end="url(#ZERO_OR_ONE_END)" d="M1467.874,60.125L1168.47,74.271C869.067,88.417,270.259,116.708,-29.145,145.438C-328.548,174.167,-328.548,203.333,-328.548,232.5C-328.548,261.667,-328.548,290.833,-328.548,320C-328.548,349.167,-328.548,378.333,-328.548,407.5C-328.548,436.667,-328.548,465.833,-237.899,492.791C-147.249,519.749,34.05,544.497,124.7,556.871L215.349,569.246" class="er relationshipLine"/>
  <path style="stroke: gray; fill: none;" marker-start="url(#ONLY_ONE_START)" marker-end="url(#ZERO_OR_MORE_END)" d="M1467.874,60.275L1185.137,74.396C902.4,88.517,336.926,116.758,54.189,145.463C-228.548,174.167,-228.548,203.333,-228.548,232.5C-228.548,261.667,-228.548,290.833,-228.548,320C-228.548,349.167,-228.548,378.333,-228.548,407.5C-228.548,436.667,-228.548,465.833,-228.548,495C-228.548,524.167,-228.548,553.333,-228.548,582.5C-228.548,611.667,-228.548,640.833,-60.618,669.311C107.312,697.788,443.172,725.575,611.102,739.469L779.032,753.363" class="er relationshipLine"/>
  <path style="stroke: gray; fill: none;" marker-start="url(#ONLY_ONE_START)" marker-end="url(#ZERO_OR_MORE_END)" d="M1467.874,62.227L1305.724,76.023C1143.573,89.818,819.273,117.409,657.122,139.538C494.972,161.667,494.972,178.333,494.972,186.667L494.972,195" class="er relationshipLine"/>
  <path style="stroke: gray; fill: none;" marker-start="url(#ONLY_ONE_START)" marker-end="url(#ZERO_OR_MORE_END)" d="M1480.213,95L1470.607,103.333C1461.002,111.667,1441.79,128.333,1432.185,151.25C1422.579,174.167,1422.579,203.333,1422.579,232.5C1422.579,261.667,1422.579,290.833,1422.579,320C1422.579,349.167,1422.579,378.333,1422.579,407.5C1422.579,436.667,1422.579,465.833,1401.264,490.619C1379.949,515.405,1337.32,535.809,1316.005,546.011L1294.69,556.214" class="er relationshipLine"/>
  <path style="stroke: gray; fill: none;" marker-start="url(#ONLY_ONE_START)" marker-end="url(#ZERO_OR_MORE_END)" d="M1529.901,95L1531.338,103.333C1532.774,111.667,1535.646,128.333,1537.083,151.25C1538.519,174.167,1538.519,203.333,1538.519,232.5C1538.519,261.667,1538.519,290.833,1538.519,320C1538.519,349.167,1538.519,378.333,1538.519,407.5C1538.519,436.667,1538.519,465.833,1537.001,488.75C1535.483,511.667,1532.446,528.333,1530.928,536.667L1529.41,545" class="er relationshipLine"/>
  <path style="stroke: gray; fill: none;" marker-start="url(#ONLY_ONE_START)" marker-end="url(#ZERO_OR_MORE_END)" d="M1572.759,95L1583.719,103.333C1594.679,111.667,1616.599,128.333,1627.559,151.25C1638.519,174.167,1638.519,203.333,1638.519,232.5C1638.519,261.667,1638.519,290.833,1552.262,318.715C1466.006,346.597,1293.492,373.194,1207.236,386.493L1120.979,399.791" class="er relationshipLine"/>
  <path style="stroke: gray; fill: none;" marker-start="url(#ONLY_ONE_START)" marker-end="url(#ZERO_OR_MORE_END)" d="M1579.003,80.105L1605.589,90.921C1632.175,101.737,1685.347,123.368,1711.933,148.767C1738.519,174.167,1738.519,203.333,1738.519,232.5C1738.519,261.667,1738.519,290.833,1738.519,320C1738.519,349.167,1738.519,378.333,1738.519,407.5C1738.519,436.667,1738.519,465.833,1737.001,488.75C1735.483,511.667,1732.446,528.333,1730.928,536.667L1729.41,545" class="er relationshipLine"/>
  <path style="stroke: gray; fill: none;" marker-start="url(#ONLY_ONE_START)" marker-end="url(#ZERO_OR_MORE_END)" d="M1184.854,615.26L1169.56,624.384C1154.266,633.507,1123.678,651.753,1119.046,669.21C1114.414,686.667,1135.738,703.333,1146.4,711.667L1157.061,720" class="er relationshipLine"/>
  <path style="stroke: gray; fill: none;" marker-start="url(#ONLY_ONE_START)" marker-end="url(#ZERO_OR_MORE_END)" d="M1253.147,620L1256.119,628.333C1259.091,636.667,1265.035,653.333,1202.683,674.6C1140.33,695.867,1009.681,721.734,944.357,734.667L879.032,747.601" class="er relationshipLine"/>
  <path style="stroke: gray; fill: none;" marker-start="url(#ONLY_ONE_START)" marker-end="url(#ZERO_OR_MORE_END)" d="M1251.724,545L1254.38,536.667C1257.037,528.333,1262.349,511.667,1240.558,492.457C1218.767,473.248,1169.873,451.496,1145.426,440.62L1120.979,429.744" class="er relationshipLine"/>
  <path style="stroke: gray; fill: none;" marker-start="url(#ONLY_ONE_START)" marker-end="url(#ZERO_OR_ONE_END)" d="M1020.979,420.262L972.178,432.719C923.377,445.175,825.775,470.087,723.869,493.721C621.963,517.355,515.752,539.709,462.647,550.886L409.542,562.064" class="er relationshipLine"/>
  <path style="stroke: gray; fill: none;" marker-start="url(#ONLY_ONE_START)" marker-end="url(#ZERO_OR_MORE_END)" d="M1020.979,429.018L995.426,440.015C969.873,451.012,918.767,473.006,893.214,498.586C867.661,524.167,867.661,553.333,867.661,582.5C867.661,611.667,867.661,640.833,863.982,663.75C860.303,686.667,852.945,703.333,849.266,711.667L845.587,720" class="er relationshipLine"/>
  <path style="stroke: gray; fill: none;" marker-start="url(#ONLY_ONE_START)" marker-end="url(#ZERO_OR_MORE_END)" d="M1070.979,370L1070.979,361.667C1070.979,353.333,1070.979,336.667,983.427,315.034C895.875,293.4,720.771,266.801,633.219,253.501L545.667,240.201" class="er relationshipLine"/>
  <path style="stroke: gray; fill: none;" marker-start="url(#ONLY_ONE_START)" marker-end="url(#ZERO_OR_MORE_END)" d="M1026.7,445L1016.86,453.333C1007.02,461.667,987.34,478.333,1013.699,498.307C1040.058,518.28,1112.456,541.56,1148.655,553.2L1184.854,564.841" class="er relationshipLine"/>
  <path style="stroke: gray; fill: none;" marker-start="url(#ONLY_ONE_START)" marker-end="url(#ZERO_OR_MORE_END)" d="M1069.557,445L1069.241,453.333C1068.925,461.667,1068.293,478.333,1135.463,499.647C1202.633,520.961,1337.606,546.922,1405.093,559.902L1472.579,572.883" class="er relationshipLine"/>
  <path style="stroke: gray; fill: none;" marker-start="url(#ONLY_ONE_START)" marker-end="url(#ZERO_OR_MORE_END)" d="M1120.979,397.131L1142.785,392.61C1164.591,388.088,1208.202,379.044,1235.46,374.522C1262.717,370,1273.62,370,1284.523,376.25C1295.426,382.5,1306.328,395,1306.328,407.5C1306.328,420,1295.426,432.5,1284.523,438.75C1273.62,445,1262.717,445,1235.46,440.478C1208.202,435.956,1164.591,426.912,1142.785,422.39L1120.979,417.869" class="er relationshipLine"/>
  <path style="stroke: gray; fill: none;" marker-start="url(#ONLY_ONE_START)" marker-end="url(#ZERO_OR_MORE_END)" d="M1112.414,445L1121.622,453.333C1130.83,461.667,1149.245,478.333,1242.606,499.936C1335.967,521.539,1504.273,548.077,1588.426,561.347L1672.579,574.616" class="er relationshipLine"/>
  <g transform="translate(779.0320510864258,720 )" id="entity-Prefix-f6d97b99-faee-5974-b12e-390868d79e86">
    <rect height="75" width="100" y="0" x="0" class="er entityBox"/>
    <text style="dominant-baseline: middle; text-anchor: middle; font-size: 12px;" transform="translate(50,37.5)" y="0" x="0" id="text-entity-Prefix-f6d97b99-faee-5974-b12e-390868d79e86" class="er entityLabel">Prefix</text>
  </g>
  <g transform="translate(444.27651596069336,195 )" id="entity-QuantityKind-6f79b338-e354-5d95-8035-8883644476ff">
    <rect height="75" width="101.390625" y="0" x="0" class="er entityBox"/>
    <text style="dominant-baseline: middle; text-anchor: middle; font-size: 12px;" transform="translate(50.6953125,37.5)" y="0" x="0" id="text-entity-QuantityKind-6f79b338-e354-5d95-8035-8883644476ff" class="er entityLabel">QuantityKind</text>
  </g>
  <g transform="translate(215.34917068481445,545 )" id="entity-QuantityKindDimensionVector-bfa1bf26-fcae-516f-8f63-2f454f3dac1b">
    <rect height="75" width="194.19308471679688" y="0" x="0" class="er entityBox"/>
    <text style="dominant-baseline: middle; text-anchor: middle; font-size: 12px;" transform="translate(97.09654235839844,37.5)" y="0" x="0" id="text-entity-QuantityKindDimensionVector-bfa1bf26-fcae-516f-8f63-2f454f3dac1b" class="er entityLabel">QuantityKindDimensionVector</text>
  </g>
  <g transform="translate(211.5863380432129,720 )" id="entity-Rule-886caf8e-59ff-5db3-a492-27242971196f">
    <rect height="75" width="100" y="0" x="0" class="er entityBox"/>
    <text style="dominant-baseline: middle; text-anchor: middle; font-size: 12px;" transform="translate(50,37.5)" y="0" x="0" id="text-entity-Rule-886caf8e-59ff-5db3-a492-27242971196f" class="er entityLabel">Rule</text>
  </g>
  <g transform="translate(1467.874095916748,20 )" id="entity-SolidAngleUnit-052b9346-c639-573a-b5ce-0f845f1ba8ce">
    <rect height="75" width="111.12852478027344" y="0" x="0" class="er entityBox"/>
    <text style="dominant-baseline: middle; text-anchor: middle; font-size: 12px;" transform="translate(55.56426239013672,37.5)" y="0" x="0" id="text-entity-SolidAngleUnit-052b9346-c639-573a-b5ce-0f845f1ba8ce" class="er entityLabel">SolidAngleUnit</text>
  </g>
  <g transform="translate(1184.8539390563965,545 )" id="entity-SystemOfUnits-f7f1da8e-a5af-50e1-94d0-c2e741f40e1d">
    <rect height="75" width="109.83651733398438" y="0" x="0" class="er entityBox"/>
    <text style="dominant-baseline: middle; text-anchor: middle; font-size: 12px;" transform="translate(54.91825866699219,37.5)" y="0" x="0" id="text-entity-SystemOfUnits-f7f1da8e-a5af-50e1-94d0-c2e741f40e1d" class="er entityLabel">SystemOfUnits</text>
  </g>
  <g transform="translate(1472.5789833068848,545 )" id="entity-UCUMcs-8df33f70-0c53-5f8e-a81f-0969bc803a34">
    <rect height="75" width="100" y="0" x="0" class="er entityBox"/>
    <text style="dominant-baseline: middle; text-anchor: middle; font-size: 12px;" transform="translate(50,37.5)" y="0" x="0" id="text-entity-UCUMcs-8df33f70-0c53-5f8e-a81f-0969bc803a34" class="er entityLabel">UCUMcs</text>
  </g>
  <g transform="translate(1020.9792289733887,370 )" id="entity-Unit-c57ac1ea-0a24-509a-a80e-23f8c03ca739">
    <rect height="75" width="100" y="0" x="0" class="er entityBox"/>
    <text style="dominant-baseline: middle; text-anchor: middle; font-size: 12px;" transform="translate(50,37.5)" y="0" x="0" id="text-entity-Unit-c57ac1ea-0a24-509a-a80e-23f8c03ca739" class="er entityLabel">Unit</text>
  </g>
  <g transform="translate(1672.5789833068848,545 )" id="entity-Class-d9e3eb4a-97c0-50b6-8e3f-7f4a2fa7283d">
    <rect height="75" width="100" y="0" x="0" class="er entityBox"/>
    <text style="dominant-baseline: middle; text-anchor: middle; font-size: 12px;" transform="translate(50,37.5)" y="0" x="0" id="text-entity-Class-d9e3eb4a-97c0-50b6-8e3f-7f4a2fa7283d" class="er entityLabel">__Class</text>
  </g>
  <g transform="translate(777.3133010864258,895 )" id="entity-UCUMcsterm-f108a9d5-75dc-5824-aae7-181f348ae82a">
    <rect height="75" width="103.4375" y="0" x="0" class="er entityBox"/>
    <text style="dominant-baseline: middle; text-anchor: middle; font-size: 12px;" transform="translate(51.71875,37.5)" y="0" x="0" id="text-entity-UCUMcsterm-f108a9d5-75dc-5824-aae7-181f348ae82a" class="er entityLabel">UCUMcs-term</text>
  </g>
  <g transform="translate(20,370 )" id="entity-QuantityKindDimensionVectorSI-2681a9c0-d385-5c75-b278-85a805bca5b5">
    <rect height="75" width="203.90625" y="0" x="0" class="er entityBox"/>
    <text style="dominant-baseline: middle; text-anchor: middle; font-size: 12px;" transform="translate(101.953125,37.5)" y="0" x="0" id="text-entity-QuantityKindDimensionVectorSI-2681a9c0-d385-5c75-b278-85a805bca5b5" class="er entityLabel">QuantityKindDimensionVectorSI</text>
  </g>
  <g transform="translate(323.90625,370 )" id="entity-SystemOfQuantityKinds-09c2a533-d4ff-5ffb-9642-53498359216a">
    <rect height="75" width="158.53285217285156" y="0" x="0" class="er entityBox"/>
    <text style="dominant-baseline: middle; text-anchor: middle; font-size: 12px;" transform="translate(79.26642608642578,37.5)" y="0" x="0" id="text-entity-SystemOfQuantityKinds-09c2a533-d4ff-5ffb-9642-53498359216a" class="er entityLabel">SystemOfQuantityKinds</text>
  </g>
  <g transform="translate(211.5863380432129,895 )" id="entity-RuleType-d54df1a6-a17d-5920-9344-6f805c739e55">
    <rect height="75" width="100" y="0" x="0" class="er entityBox"/>
    <text style="dominant-baseline: middle; text-anchor: middle; font-size: 12px;" transform="translate(50,37.5)" y="0" x="0" id="text-entity-RuleType-d54df1a6-a17d-5920-9344-6f805c739e55" class="er entityLabel">RuleType</text>
  </g>
  <g transform="translate(1143.5591583251953,720 )" id="entity-PhysicalConstant-f43f8855-cf72-5deb-8dd3-7b0283708583">
    <rect height="75" width="122.96058654785156" y="0" x="0" class="er entityBox"/>
    <text style="dominant-baseline: middle; text-anchor: middle; font-size: 12px;" transform="translate(61.48029327392578,37.5)" y="0" x="0" id="text-entity-PhysicalConstant-f43f8855-cf72-5deb-8dd3-7b0283708583" class="er entityLabel">PhysicalConstant</text>
  </g>
  <rect height="14" width="61.453125" y="750.5" x="998.970458984375" class="er relationshipLabelBox"/>
  <text style="text-anchor: middle; dominant-baseline: middle; font-size: 12px;" y="757.5" x="1029.697021484375" id="rel1" class="er relationshipLabel">exactMatch</text>
  <rect height="14" width="57.078125" y="838" x="800.492919921875" class="er relationshipLabelBox"/>
  <text style="text-anchor: middle; dominant-baseline: middle; font-size: 12px;" y="845" x="829.031982421875" id="rel2" class="er relationshipLabel">ucumCode</text>
  <rect height="14" width="304.4981384277344" y="322.77020263671875" x="-168.7569637298584" class="er relationshipLabelBox"/>
  <text style="text-anchor: middle; dominant-baseline: middle; font-size: 12px;" y="329.77020263671875" x="-16.50789451599121" id="rel3" class="er relationshipLabel">hasDimensionVector, qkdvDenominator, qkdvNumerator</text>
  <rect height="14" width="119.078125" y="280.0403137207031" x="209.15487670898438" class="er relationshipLabelBox"/>
  <text style="text-anchor: middle; dominant-baseline: middle; font-size: 12px;" y="287.0403137207031" x="268.6939392089844" id="rel4" class="er relationshipLabel">dimensionVectorForSI</text>
  <rect height="14" width="61.453125" y="225.5" x="1243.9683837890625" class="er relationshipLabelBox"/>
  <text style="text-anchor: middle; dominant-baseline: middle; font-size: 12px;" y="232.5" x="1274.6949462890625" id="rel5" class="er relationshipLabel">exactMatch</text>
  <rect height="14" width="163.4290771484375" y="306.3940124511719" x="334.0958251953125" class="er relationshipLabelBox"/>
  <text style="text-anchor: middle; dominant-baseline: middle; font-size: 12px;" y="313.3940124511719" x="415.81036376953125" id="rel6" class="er relationshipLabel">belongsToSystemOfQuantities</text>
  <rect height="14" width="675.57666015625" y="349.4770812988281" x="410.291748046875" class="er relationshipLabelBox"/>
  <text style="text-anchor: middle; dominant-baseline: middle; font-size: 12px;" y="356.4770812988281" x="748.080078125" id="rel7" class="er relationshipLabel">applicableCGSUnit, applicableISOUnit, applicableImperialUnit, applicableSIUnit, applicableUSCustomaryUnit, applicableUnit</text>
  <rect height="14" width="144.375" y="453.2200927734375" x="523.4603271484375" class="er relationshipLabelBox"/>
  <text style="text-anchor: middle; dominant-baseline: middle; font-size: 12px;" y="460.2200927734375" x="595.6478271484375" id="rel8" class="er relationshipLabel">hasReferenceQuantityKind</text>
  <rect height="14" width="43.296875" y="665.523193359375" x="285.1839599609375" class="er relationshipLabelBox"/>
  <text style="text-anchor: middle; dominant-baseline: middle; font-size: 12px;" y="672.523193359375" x="306.8323974609375" id="rel9" class="er relationshipLabel">hasRule</text>
  <rect height="14" width="46.921875" y="838" x="238.12506103515625" class="er relationshipLabelBox"/>
  <text style="text-anchor: middle; dominant-baseline: middle; font-size: 12px;" y="845" x="261.58599853515625" id="rel10" class="er relationshipLabel">ruleType</text>
  <rect height="14" width="304.4981384277344" y="122.21871948242188" x="17.392715454101562" class="er relationshipLabelBox"/>
  <text style="text-anchor: middle; dominant-baseline: middle; font-size: 12px;" y="129.21871948242188" x="169.64178466796875" id="rel11" class="er relationshipLabel">hasDimensionVector, qkdvDenominator, qkdvNumerator</text>
  <rect height="14" width="30.840179443359375" y="157.14988708496094" x="-107.87786865234375" class="er relationshipLabelBox"/>
  <text style="text-anchor: middle; dominant-baseline: middle; font-size: 12px;" y="164.14988708496094" x="-92.45777893066406" id="rel12" class="er relationshipLabel">prefix</text>
  <rect height="14" width="90.4375" y="98.61539459228516" x="926.0108642578125" class="er relationshipLabelBox"/>
  <text style="text-anchor: middle; dominant-baseline: middle; font-size: 12px;" y="105.61539459228516" x="971.2296142578125" id="rel13" class="er relationshipLabel">hasQuantityKind</text>
  <rect height="14" width="597.5625" y="341.424072265625" x="1123.7977294921875" class="er relationshipLabelBox"/>
  <text style="text-anchor: middle; dominant-baseline: middle; font-size: 12px;" y="348.424072265625" x="1422.5789794921875" id="rel14" class="er relationshipLabel">applicableSystem, definedUnitOfSystem, derivedCoherentUnitOfSystem, derivedUnitOfSystem, isUnitOfSystem</text>
  <rect height="14" width="57.078125" y="313.03009033203125" x="1509.97998046875" class="er relationshipLabelBox"/>
  <text style="text-anchor: middle; dominant-baseline: middle; font-size: 12px;" y="320.03009033203125" x="1538.51904296875" id="rel15" class="er relationshipLabel">ucumCode</text>
  <rect height="14" width="223.1495361328125" y="330.17828369140625" x="1371.4273071289062" class="er relationshipLabelBox"/>
  <text style="text-anchor: middle; dominant-baseline: middle; font-size: 12px;" y="337.17828369140625" x="1483.0020751953125" id="rel16" class="er relationshipLabel">exactMatch, hasReciprocalUnit, scalingOf</text>
  <rect height="14" width="75.632568359375" y="261.4162902832031" x="1700.7027587890625" class="er relationshipLabelBox"/>
  <text style="text-anchor: middle; dominant-baseline: middle; font-size: 12px;" y="268.4162902832031" x="1738.51904296875" id="rel17" class="er relationshipLabel">hasFactorUnit</text>
  <rect height="14" width="149.9129638671875" y="653.3867797851562" x="1048.4308471679688" class="er relationshipLabelBox"/>
  <text style="text-anchor: middle; dominant-baseline: middle; font-size: 12px;" y="660.3867797851562" x="1123.3873291015625" id="rel18" class="er relationshipLabel">applicablePhysicalConstant</text>
  <rect height="14" width="30.8402099609375" y="698.5858154296875" x="1068.9773559570312" class="er relationshipLabelBox"/>
  <text style="text-anchor: middle; dominant-baseline: middle; font-size: 12px;" y="705.5858154296875" x="1084.3974609375" id="rel19" class="er relationshipLabel">prefix</text>
  <rect height="14" width="622.5963134765625" y="464.1803283691406" x="897.2891235351562" class="er relationshipLabelBox"/>
  <text style="text-anchor: middle; dominant-baseline: middle; font-size: 12px;" y="471.1803283691406" x="1208.5872802734375" id="rel20" class="er relationshipLabel">hasAllowedUnit, hasBaseUnit, hasCoherentUnit, hasDefinedUnit, hasDerivedCoherentUnit, hasDerivedUnit, hasUnit</text>
  <rect height="14" width="304.4981689453125" y="488.47979736328125" x="564.0138549804688" class="er relationshipLabelBox"/>
  <text style="text-anchor: middle; dominant-baseline: middle; font-size: 12px;" y="495.47979736328125" x="716.262939453125" id="rel21" class="er relationshipLabel">hasDimensionVector, qkdvDenominator, qkdvNumerator</text>
  <rect height="14" width="30.8402099609375" y="527.8648071289062" x="856.5223999023438" class="er relationshipLabelBox"/>
  <text style="text-anchor: middle; dominant-baseline: middle; font-size: 12px;" y="534.8648071289062" x="871.9425048828125" id="rel22" class="er relationshipLabel">prefix</text>
  <rect height="14" width="90.4375" y="276.2498474121094" x="775.5890502929688" class="er relationshipLabelBox"/>
  <text style="text-anchor: middle; dominant-baseline: middle; font-size: 12px;" y="283.2498474121094" x="820.8078002929688" id="rel23" class="er relationshipLabel">hasQuantityKind</text>
  <rect height="14" width="597.5625" y="517.1453857421875" x="766.4765625" class="er relationshipLabelBox"/>
  <text style="text-anchor: middle; dominant-baseline: middle; font-size: 12px;" y="524.1453857421875" x="1065.2578125" id="rel24" class="er relationshipLabel">applicableSystem, definedUnitOfSystem, derivedCoherentUnitOfSystem, derivedUnitOfSystem, isUnitOfSystem</text>
  <rect height="14" width="57.078125" y="523.0927124023438" x="1228.5758056640625" class="er relationshipLabelBox"/>
  <text style="text-anchor: middle; dominant-baseline: middle; font-size: 12px;" y="530.0927124023438" x="1257.1148681640625" id="rel25" class="er relationshipLabel">ucumCode</text>
  <rect height="14" width="223.1495361328125" y="400.5" x="1194.7532348632812" class="er relationshipLabelBox"/>
  <text style="text-anchor: middle; dominant-baseline: middle; font-size: 12px;" y="407.5" x="1306.3280029296875" id="rel26" class="er relationshipLabel">exactMatch, hasReciprocalUnit, scalingOf</text>
  <rect height="14" width="75.632568359375" y="521.1256713867188" x="1348.6463623046875" class="er relationshipLabelBox"/>
  <text style="text-anchor: middle; dominant-baseline: middle; font-size: 12px;" y="528.1256713867188" x="1386.462646484375" id="rel27" class="er relationshipLabel">hasFactorUnit</text>
</svg>
