<svg xmlns="http://www.w3.org/2000/svg" aria-roledescription="er" role="graphics-document document" viewBox="-100 0 2061.1868896484375 990" height="990" width="2061.1868896484375" id="container">
  <style>#container{font-family:"trebuchet ms",verdana,arial,sans-serif;font-size:16px;fill:#333;}#container .error-icon{fill:#552222;}#container .error-text{fill:#552222;stroke:#552222;}#container .edge-thickness-normal{stroke-width:1px;}#container .edge-thickness-thick{stroke-width:3.5px;}#container .edge-pattern-solid{stroke-dasharray:0;}#container .edge-thickness-invisible{stroke-width:0;fill:none;}#container .edge-pattern-dashed{stroke-dasharray:3;}#container .edge-pattern-dotted{stroke-dasharray:2;}#container .marker{fill:#333333;stroke:#333333;}#container .marker.cross{stroke:#333333;}#container svg{font-family:"trebuchet ms",verdana,arial,sans-serif;font-size:16px;}#container p{margin:0;}#container .entityBox{fill:#ECECFF;stroke:#9370DB;}#container .attributeBoxOdd{fill:#ffffff;stroke:#9370DB;}#container .attributeBoxEven{fill:#f2f2f2;stroke:#9370DB;}#container .relationshipLabelBox{fill:hsl(80, 100%, 96.2745098039%);opacity:0.7;background-color:hsl(80, 100%, 96.2745098039%);}#container .relationshipLabelBox rect{opacity:0.5;}#container .relationshipLine{stroke:#333333;}#container .entityTitleText{text-anchor:middle;font-size:18px;fill:#333;}#container #MD_PARENT_START{fill:#f5f5f5!important;stroke:#333333!important;stroke-width:1;}#container #MD_PARENT_END{fill:#f5f5f5!important;stroke:#333333!important;stroke-width:1;}#container :root{--mermaid-font-family:"trebuchet ms",verdana,arial,sans-serif;}</style>
  <g/>
  <defs>
    <marker orient="auto" markerHeight="240" markerWidth="190" refY="7" refX="0" id="MD_PARENT_START">
      <path d="M 18,7 L9,13 L1,7 L9,1 Z"/>
    </marker>
  </defs>
  <defs>
    <marker orient="auto" markerHeight="28" markerWidth="20" refY="7" refX="19" id="MD_PARENT_END">
      <path d="M 18,7 L9,13 L1,7 L9,1 Z"/>
    </marker>
  </defs>
  <defs>
    <marker orient="auto" markerHeight="18" markerWidth="18" refY="9" refX="0" id="ONLY_ONE_START">
      <path d="M9,0 L9,18 M15,0 L15,18" fill="none" stroke="gray"/>
    </marker>
  </defs>
  <defs>
    <marker orient="auto" markerHeight="18" markerWidth="18" refY="9" refX="18" id="ONLY_ONE_END">
      <path d="M3,0 L3,18 M9,0 L9,18" fill="none" stroke="gray"/>
    </marker>
  </defs>
  <defs>
    <marker orient="auto" markerHeight="18" markerWidth="30" refY="9" refX="0" id="ZERO_OR_ONE_START">
      <circle r="6" cy="9" cx="21" fill="white" stroke="gray"/>
      <path d="M9,0 L9,18" fill="none" stroke="gray"/>
    </marker>
  </defs>
  <defs>
    <marker orient="auto" markerHeight="18" markerWidth="30" refY="9" refX="30" id="ZERO_OR_ONE_END">
      <circle r="6" cy="9" cx="9" fill="white" stroke="gray"/>
      <path d="M21,0 L21,18" fill="none" stroke="gray"/>
    </marker>
  </defs>
  <defs>
    <marker orient="auto" markerHeight="36" markerWidth="45" refY="18" refX="18" id="ONE_OR_MORE_START">
      <path d="M0,18 Q 18,0 36,18 Q 18,36 0,18 M42,9 L42,27" fill="none" stroke="gray"/>
    </marker>
  </defs>
  <defs>
    <marker orient="auto" markerHeight="36" markerWidth="45" refY="18" refX="27" id="ONE_OR_MORE_END">
      <path d="M3,9 L3,27 M9,18 Q27,0 45,18 Q27,36 9,18" fill="none" stroke="gray"/>
    </marker>
  </defs>
  <defs>
    <marker orient="auto" markerHeight="36" markerWidth="57" refY="18" refX="18" id="ZERO_OR_MORE_START">
      <circle r="6" cy="18" cx="48" fill="white" stroke="gray"/>
      <path d="M0,18 Q18,0 36,18 Q18,36 0,18" fill="none" stroke="gray"/>
    </marker>
  </defs>
  <defs>
    <marker orient="auto" markerHeight="36" markerWidth="57" refY="18" refX="39" id="ZERO_OR_MORE_END">
      <circle r="6" cy="18" cx="9" fill="white" stroke="gray"/>
      <path d="M21,18 Q39,0 57,18 Q39,36 21,18" fill="none" stroke="gray"/>
    </marker>
  </defs>
  <path style="stroke: gray; fill: none;" marker-start="url(#ONLY_ONE_START)" marker-end="url(#ZERO_OR_ONE_END)" d="M738.731,68.257L665.631,81.048C592.53,93.838,446.33,119.419,373.23,140.543C300.129,161.667,300.129,178.333,300.129,186.667L300.129,195" class="er relationshipLine"/>
  <path style="stroke: gray; fill: none;" marker-start="url(#ONLY_ONE_START)" marker-end="url(#ZERO_OR_ONE_END)" d="M738.731,75.588L699.409,87.157C660.087,98.725,581.443,121.863,542.122,141.765C502.8,161.667,502.8,178.333,502.8,186.667L502.8,195" class="er relationshipLine"/>
  <path style="stroke: gray; fill: none;" marker-start="url(#ONLY_ONE_START)" marker-end="url(#ZERO_OR_ONE_END)" d="M861.692,80.493L890.439,91.244C919.186,101.995,976.68,123.498,992.927,142.999C1009.175,162.5,984.175,180,971.675,188.75L959.175,197.5" class="er relationshipLine"/>
  <path style="stroke: gray; fill: none;" marker-start="url(#ONLY_ONE_START)" marker-end="url(#ZERO_OR_MORE_END)" d="M861.692,39.965L873.358,36.637C885.025,33.31,908.358,26.655,922.942,23.327C937.525,20,943.358,20,949.192,26.25C955.025,32.5,960.858,45,960.858,57.5C960.858,70,955.025,82.5,949.192,88.75C943.358,95,937.525,95,922.942,91.673C908.358,88.345,885.025,81.69,873.358,78.363L861.692,75.035" class="er relationshipLine"/>
  <path style="stroke: gray; fill: none;" marker-start="url(#ONLY_ONE_START)" marker-end="url(#ZERO_OR_MORE_END)" d="M861.692,62.234L1040.846,76.028C1220.001,89.823,1578.31,117.411,1757.464,145.789C1936.619,174.167,1936.619,203.333,1936.619,232.5C1936.619,261.667,1936.619,290.833,1936.619,320C1936.619,349.167,1936.619,378.333,1936.619,407.5C1936.619,436.667,1936.619,465.833,1902.539,492.103C1868.458,518.372,1800.298,541.744,1766.218,553.43L1732.138,565.117" class="er relationshipLine"/>
  <path style="stroke: gray; fill: none;" marker-start="url(#ONLY_ONE_START)" marker-end="url(#ZERO_OR_MORE_END)" d="M861.692,64.328L982.755,77.773C1103.818,91.219,1345.944,118.109,1467.007,146.138C1588.071,174.167,1588.071,203.333,1588.071,232.5C1588.071,261.667,1588.071,290.833,1583.309,313.75C1578.547,336.667,1569.023,353.333,1564.261,361.667L1559.499,370" class="er relationshipLine"/>
  <path style="stroke: gray; fill: none;" marker-start="url(#ONLY_ONE_START)" marker-end="url(#ZERO_OR_MORE_END)" d="M759.829,95L750.856,103.333C741.882,111.667,723.935,128.333,714.961,145C705.987,161.667,705.987,178.333,705.987,186.667L705.987,195" class="er relationshipLine"/>
  <path style="stroke: gray; fill: none;" marker-start="url(#ONLY_ONE_START)" marker-end="url(#ZERO_OR_MORE_END)" d="M861.692,70.495L920.439,82.913C979.186,95.33,1096.68,120.165,1155.427,147.166C1214.175,174.167,1214.175,203.333,1214.175,232.5C1214.175,261.667,1214.175,290.833,1214.175,320C1214.175,349.167,1214.175,378.333,1214.175,407.5C1214.175,436.667,1214.175,465.833,1214.175,495C1214.175,524.167,1214.175,553.333,1214.175,582.5C1214.175,611.667,1214.175,640.833,1115.727,668.862C1017.279,696.89,820.384,723.781,721.936,737.226L623.488,750.671" class="er relationshipLine"/>
  <path style="stroke: gray; fill: none;" marker-start="url(#ONLY_ONE_START)" marker-end="url(#ZERO_OR_MORE_END)" d="M738.731,65.741L640.186,78.951C541.64,92.161,344.55,118.58,246.004,146.374C147.459,174.167,147.459,203.333,147.459,232.5C147.459,261.667,147.459,290.833,140.55,313.75C133.642,336.667,119.825,353.333,112.916,361.667L106.007,370" class="er relationshipLine"/>
  <path style="stroke: gray; fill: none;" marker-start="url(#ONLY_ONE_START)" marker-end="url(#ZERO_OR_MORE_END)" d="M824.798,95L830.262,103.333C835.726,111.667,846.653,128.333,857.031,145C867.408,161.667,877.236,178.333,882.149,186.667L887.063,195" class="er relationshipLine"/>
  <path style="stroke: gray; fill: none;" marker-start="url(#ONLY_ONE_START)" marker-end="url(#ZERO_OR_ONE_END)" d="M1641.426,545L1632.533,536.667C1623.641,528.333,1605.856,511.667,1592.201,495C1578.547,478.333,1569.023,461.667,1564.261,453.333L1559.499,445" class="er relationshipLine"/>
  <path style="stroke: gray; fill: none;" marker-start="url(#ONLY_ONE_START)" marker-end="url(#ZERO_OR_ONE_END)" d="M1638.267,620L1628.673,628.333C1619.079,636.667,1599.89,653.333,1590.295,670C1580.701,686.667,1580.701,703.333,1580.701,711.667L1580.701,720" class="er relationshipLine"/>
  <path style="stroke: gray; fill: none;" marker-start="url(#ONLY_ONE_START)" marker-end="url(#ZERO_OR_MORE_END)" d="M1732.138,566.749L1743.804,563.124C1755.471,559.499,1778.804,552.25,1793.388,548.625C1807.971,545,1813.804,545,1819.638,551.25C1825.471,557.5,1831.304,570,1831.304,582.5C1831.304,595,1825.471,607.5,1819.638,613.75C1813.804,620,1807.971,620,1793.388,616.375C1778.804,612.75,1755.471,605.501,1743.804,601.876L1732.138,598.251" class="er relationshipLine"/>
  <path style="stroke: gray; fill: none;" marker-start="url(#ONLY_ONE_START)" marker-end="url(#ZERO_OR_MORE_END)" d="M1630.747,559.561L1606.968,548.8C1583.188,538.04,1535.629,516.52,1516.612,497.427C1497.594,478.333,1507.118,461.667,1511.88,453.333L1516.642,445" class="er relationshipLine"/>
  <path style="stroke: gray; fill: none;" marker-start="url(#ONLY_ONE_START)" marker-end="url(#ZERO_OR_MORE_END)" d="M1630.747,586.814L1467.842,600.679C1304.937,614.543,979.127,642.271,808.619,664.469C638.111,686.667,622.906,703.333,615.303,711.667L607.7,720" class="er relationshipLine"/>
  <path style="stroke: gray; fill: none;" marker-start="url(#ONLY_ONE_START)" marker-end="url(#ZERO_OR_MORE_END)" d="M1732.138,607.078L1753.768,617.565C1775.399,628.052,1818.66,649.026,1840.29,667.846C1861.92,686.667,1861.92,703.333,1861.92,711.667L1861.92,720" class="er relationshipLine"/>
  <path style="stroke: gray; fill: none;" marker-start="url(#ONLY_ONE_START)" marker-end="url(#ZERO_OR_MORE_END)" d="M1630.747,569.527L1582.21,557.106C1533.672,544.684,1436.597,519.842,1388.06,492.838C1339.522,465.833,1339.522,436.667,1339.522,407.5C1339.522,378.333,1339.522,349.167,1276.131,321.694C1212.74,294.222,1085.957,268.444,1022.566,255.555L959.175,242.666" class="er relationshipLine"/>
  <path style="stroke: gray; fill: none;" marker-start="url(#ONLY_ONE_START)" marker-end="url(#ZERO_OR_MORE_END)" d="M1635.167,435.958L1668.742,445.798C1702.318,455.638,1769.468,475.319,1785.63,494.979C1801.792,514.638,1766.965,534.276,1749.551,544.095L1732.138,553.914" class="er relationshipLine"/>
  <path style="stroke: gray; fill: none;" marker-start="url(#ONLY_ONE_START)" marker-end="url(#ZERO_OR_MORE_END)" d="M1440.974,416.127L1293.031,429.273C1145.088,442.418,849.203,468.709,701.26,496.438C553.317,524.167,553.317,553.333,553.317,582.5C553.317,611.667,553.317,640.833,555.238,663.75C557.159,686.667,561.001,703.333,562.922,711.667L564.843,720" class="er relationshipLine"/>
  <path style="stroke: gray; fill: none;" marker-start="url(#ONLY_ONE_START)" marker-end="url(#ZERO_OR_MORE_END)" d="M623.488,753.224L688.231,747.686C752.974,742.149,882.461,731.075,963.389,725.537C1044.318,720,1076.69,720,1109.061,726.25C1141.433,732.5,1173.805,745,1173.805,757.5C1173.805,770,1141.433,782.5,1109.061,788.75C1076.69,795,1044.318,795,963.389,789.463C882.461,783.925,752.974,772.851,688.231,767.314L623.488,761.776" class="er relationshipLine"/>
  <path style="stroke: gray; fill: none;" marker-start="url(#ONLY_ONE_START)" marker-end="url(#ZERO_OR_MORE_END)" d="M573.488,795L573.488,803.333C573.488,811.667,573.488,828.333,573.488,845C573.488,861.667,573.488,878.333,573.488,886.667L573.488,895" class="er relationshipLine"/>
  <path style="stroke: gray; fill: none;" marker-start="url(#ONLY_ONE_START)" marker-end="url(#ZERO_OR_ONE_END)" d="M959.175,240.057L1047.324,253.381C1135.473,266.705,1311.772,293.352,1404.683,315.01C1497.594,336.667,1507.118,353.333,1511.88,361.667L1516.642,370" class="er relationshipLine"/>
  <path style="stroke: gray; fill: none;" marker-start="url(#ONLY_ONE_START)" marker-end="url(#ZERO_OR_MORE_END)" d="M859.175,244.062L804.442,256.718C749.708,269.375,640.242,294.687,585.509,315.677C530.776,336.667,530.776,353.333,530.776,361.667L530.776,370" class="er relationshipLine"/>
  <path style="stroke: gray; fill: none;" marker-start="url(#ONLY_ONE_START)" marker-end="url(#ZERO_OR_MORE_END)" d="M959.175,237.787L1088.749,251.489C1218.323,265.192,1477.471,292.596,1607.045,320.881C1736.619,349.167,1736.619,378.333,1736.619,407.5C1736.619,436.667,1736.619,465.833,1731.364,488.75C1726.109,511.667,1715.599,528.333,1710.344,536.667L1705.089,545" class="er relationshipLine"/>
  <path style="stroke: gray; fill: none;" marker-start="url(#ONLY_ONE_START)" marker-end="url(#ZERO_OR_MORE_END)" d="M859.175,236.923L702.646,250.769C546.116,264.615,233.058,292.308,76.529,320.737C-80,349.167,-80,378.333,-80,407.5C-80,436.667,-80,465.833,-80,495C-80,524.167,-80,553.333,-80,582.5C-80,611.667,-80,640.833,20.581,668.884C121.163,696.935,322.325,723.87,422.907,737.338L523.488,750.805" class="er relationshipLine"/>
  <path style="stroke: gray; fill: none;" marker-start="url(#ONLY_ONE_START)" marker-end="url(#ZERO_OR_MORE_END)" d="M859.175,237.577L723.889,251.314C588.603,265.051,318.031,292.526,185.36,314.596C52.689,336.667,57.92,353.333,60.535,361.667L63.15,370" class="er relationshipLine"/>
  <path style="stroke: gray; fill: none;" marker-start="url(#ONLY_ONE_START)" marker-end="url(#ZERO_OR_MORE_END)" d="M859.175,257.024L837.775,267.52C816.375,278.016,773.576,299.008,752.176,317.837C730.776,336.667,730.776,353.333,730.776,361.667L730.776,370" class="er relationshipLine"/>
  <path style="stroke: gray; fill: none;" marker-start="url(#ONLY_ONE_START)" marker-end="url(#ZERO_OR_MORE_END)" d="M959.175,220L975.841,215.833C992.508,211.667,1025.841,203.333,1046.675,199.167C1067.508,195,1075.841,195,1084.175,201.25C1092.508,207.5,1100.841,220,1100.841,232.5C1100.841,245,1092.508,257.5,1084.175,263.75C1075.841,270,1067.508,270,1046.675,265.833C1025.841,261.667,992.508,253.333,975.841,249.167L959.175,245" class="er relationshipLine"/>
  <path style="stroke: gray; fill: none;" marker-start="url(#ONLY_ONE_START)" marker-end="url(#ZERO_OR_MORE_END)" d="M952.032,270L961.556,278.333C971.079,286.667,990.127,303.333,999.651,320C1009.175,336.667,1009.175,353.333,1009.175,361.667L1009.175,370" class="er relationshipLine"/>
  <g transform="translate(738.7309417724609,20 )" id="entity-PhysicalConstant-f43f8855-cf72-5deb-8dd3-7b0283708583">
    <rect height="75" width="122.96058654785156" y="0" x="0" class="er entityBox"/>
    <text style="dominant-baseline: middle; text-anchor: middle; font-size: 12px;" transform="translate(61.48029327392578,37.5)" y="0" x="0" id="text-entity-PhysicalConstant-f43f8855-cf72-5deb-8dd3-7b0283708583" class="er entityLabel">PhysicalConstant</text>
  </g>
  <g transform="translate(1630.747085571289,545 )" id="entity-QuantityKind-6f79b338-e354-5d95-8035-8883644476ff">
    <rect height="75" width="101.390625" y="0" x="0" class="er entityBox"/>
    <text style="dominant-baseline: middle; text-anchor: middle; font-size: 12px;" transform="translate(50.6953125,37.5)" y="0" x="0" id="text-entity-QuantityKind-6f79b338-e354-5d95-8035-8883644476ff" class="er entityLabel">QuantityKind</text>
  </g>
  <g transform="translate(1440.9739990234375,370 )" id="entity-QuantityKindDimensionVector-bfa1bf26-fcae-516f-8f63-2f454f3dac1b">
    <rect height="75" width="194.19308471679688" y="0" x="0" class="er entityBox"/>
    <text style="dominant-baseline: middle; text-anchor: middle; font-size: 12px;" transform="translate(97.09654235839844,37.5)" y="0" x="0" id="text-entity-QuantityKindDimensionVector-bfa1bf26-fcae-516f-8f63-2f454f3dac1b" class="er entityLabel">QuantityKindDimensionVector</text>
  </g>
  <g transform="translate(523.4881134033203,720 )" id="entity-Rule-886caf8e-59ff-5db3-a492-27242971196f">
    <rect height="75" width="100" y="0" x="0" class="er entityBox"/>
    <text style="dominant-baseline: middle; text-anchor: middle; font-size: 12px;" transform="translate(50,37.5)" y="0" x="0" id="text-entity-Rule-886caf8e-59ff-5db3-a492-27242971196f" class="er entityLabel">Rule</text>
  </g>
  <g transform="translate(859.1746139526367,195 )" id="entity-Unit-c57ac1ea-0a24-509a-a80e-23f8c03ca739">
    <rect height="75" width="100" y="0" x="0" class="er entityBox"/>
    <text style="dominant-baseline: middle; text-anchor: middle; font-size: 12px;" transform="translate(50,37.5)" y="0" x="0" id="text-entity-Unit-c57ac1ea-0a24-509a-a80e-23f8c03ca739" class="er entityLabel">Unit</text>
  </g>
  <g transform="translate(247.4591293334961,195 )" id="entity-DataEncoding-e949680e-a6e4-55c9-9325-aa69226f3e53">
    <rect height="75" width="105.34048461914062" y="0" x="0" class="er entityBox"/>
    <text style="dominant-baseline: middle; text-anchor: middle; font-size: 12px;" transform="translate(52.67024230957031,37.5)" y="0" x="0" id="text-entity-DataEncoding-e949680e-a6e4-55c9-9325-aa69226f3e53" class="er entityLabel">DataEncoding</text>
  </g>
  <g transform="translate(452.7996139526367,195 )" id="entity-Datatype-eedb5402-d0cc-52bf-9fb8-7b914f648cbe">
    <rect height="75" width="100" y="0" x="0" class="er entityBox"/>
    <text style="dominant-baseline: middle; text-anchor: middle; font-size: 12px;" transform="translate(50,37.5)" y="0" x="0" id="text-entity-Datatype-eedb5402-d0cc-52bf-9fb8-7b914f648cbe" class="er entityLabel">Datatype</text>
  </g>
  <g transform="translate(652.7996139526367,195 )" id="entity-QuantityValue-f2bc13d2-1961-5e2a-9bfe-ab6a05a5860b">
    <rect height="75" width="106.375" y="0" x="0" class="er entityBox"/>
    <text style="dominant-baseline: middle; text-anchor: middle; font-size: 12px;" transform="translate(53.1875,37.5)" y="0" x="0" id="text-entity-QuantityValue-f2bc13d2-1961-5e2a-9bfe-ab6a05a5860b" class="er entityLabel">QuantityValue</text>
  </g>
  <g transform="translate(20,370 )" id="entity-SystemOfUnits-f7f1da8e-a5af-50e1-94d0-c2e741f40e1d">
    <rect height="75" width="109.83651733398438" y="0" x="0" class="er entityBox"/>
    <text style="dominant-baseline: middle; text-anchor: middle; font-size: 12px;" transform="translate(54.91825866699219,37.5)" y="0" x="0" id="text-entity-SystemOfUnits-f7f1da8e-a5af-50e1-94d0-c2e741f40e1d" class="er entityLabel">SystemOfUnits</text>
  </g>
  <g transform="translate(1478.747787475586,720 )" id="entity-QuantityKindDimensionVectorSI-2681a9c0-d385-5c75-b278-85a805bca5b5">
    <rect height="75" width="203.90625" y="0" x="0" class="er entityBox"/>
    <text style="dominant-baseline: middle; text-anchor: middle; font-size: 12px;" transform="translate(101.953125,37.5)" y="0" x="0" id="text-entity-QuantityKindDimensionVectorSI-2681a9c0-d385-5c75-b278-85a805bca5b5" class="er entityLabel">QuantityKindDimensionVectorSI</text>
  </g>
  <g transform="translate(1782.654037475586,720 )" id="entity-SystemOfQuantityKinds-09c2a533-d4ff-5ffb-9642-53498359216a">
    <rect height="75" width="158.53285217285156" y="0" x="0" class="er entityBox"/>
    <text style="dominant-baseline: middle; text-anchor: middle; font-size: 12px;" transform="translate(79.26642608642578,37.5)" y="0" x="0" id="text-entity-SystemOfQuantityKinds-09c2a533-d4ff-5ffb-9642-53498359216a" class="er entityLabel">SystemOfQuantityKinds</text>
  </g>
  <g transform="translate(523.4881134033203,895 )" id="entity-RuleType-d54df1a6-a17d-5920-9344-6f805c739e55">
    <rect height="75" width="100" y="0" x="0" class="er entityBox"/>
    <text style="dominant-baseline: middle; text-anchor: middle; font-size: 12px;" transform="translate(50,37.5)" y="0" x="0" id="text-entity-RuleType-d54df1a6-a17d-5920-9344-6f805c739e55" class="er entityLabel">RuleType</text>
  </g>
  <g transform="translate(480.7760009765625,370 )" id="entity-Prefix-f6d97b99-faee-5974-b12e-390868d79e86">
    <rect height="75" width="100" y="0" x="0" class="er entityBox"/>
    <text style="dominant-baseline: middle; text-anchor: middle; font-size: 12px;" transform="translate(50,37.5)" y="0" x="0" id="text-entity-Prefix-f6d97b99-faee-5974-b12e-390868d79e86" class="er entityLabel">Prefix</text>
  </g>
  <g transform="translate(680.7760009765625,370 )" id="entity-UCUMcs-8df33f70-0c53-5f8e-a81f-0969bc803a34">
    <rect height="75" width="100" y="0" x="0" class="er entityBox"/>
    <text style="dominant-baseline: middle; text-anchor: middle; font-size: 12px;" transform="translate(50,37.5)" y="0" x="0" id="text-entity-UCUMcs-8df33f70-0c53-5f8e-a81f-0969bc803a34" class="er entityLabel">UCUMcs</text>
  </g>
  <g transform="translate(959.1746139526367,370 )" id="entity-Class-d9e3eb4a-97c0-50b6-8e3f-7f4a2fa7283d">
    <rect height="75" width="100" y="0" x="0" class="er entityBox"/>
    <text style="dominant-baseline: middle; text-anchor: middle; font-size: 12px;" transform="translate(50,37.5)" y="0" x="0" id="text-entity-Class-d9e3eb4a-97c0-50b6-8e3f-7f4a2fa7283d" class="er entityLabel">__Class</text>
  </g>
  <rect height="14" width="74.908447265625" y="103.24628448486328" x="468.8067626953125" class="er relationshipLabelBox"/>
  <text style="text-anchor: middle; dominant-baseline: middle; font-size: 12px;" y="110.24628448486328" x="506.260986328125" id="rel1" class="er relationshipLabel">dataEncoding</text>
  <rect height="14" width="48.328125" y="109.5338134765625" x="581.1436767578125" class="er relationshipLabelBox"/>
  <text style="text-anchor: middle; dominant-baseline: middle; font-size: 12px;" y="116.5338134765625" x="605.3077392578125" id="rel2" class="er relationshipLabel">datatype</text>
  <rect height="14" width="42.40423583984375" y="115.095458984375" x="942.0554504394531" class="er relationshipLabelBox"/>
  <text style="text-anchor: middle; dominant-baseline: middle; font-size: 12px;" y="122.095458984375" x="963.257568359375" id="rel3" class="er relationshipLabel">hasUnit</text>
  <rect height="14" width="61.453125" y="50.5" x="930.1314086914062" class="er relationshipLabelBox"/>
  <text style="text-anchor: middle; dominant-baseline: middle; font-size: 12px;" y="57.5" x="960.8579711914062" id="rel4" class="er relationshipLabel">exactMatch</text>
  <rect height="14" width="90.4375" y="123.52337646484375" x="1599.3631591796875" class="er relationshipLabelBox"/>
  <text style="text-anchor: middle; dominant-baseline: middle; font-size: 12px;" y="130.52337646484375" x="1644.5819091796875" id="rel5" class="er relationshipLabel">hasQuantityKind</text>
  <rect height="14" width="111.8487548828125" y="112.29681396484375" x="1261.0049438476562" class="er relationshipLabelBox"/>
  <text style="text-anchor: middle; dominant-baseline: middle; font-size: 12px;" y="119.29681396484375" x="1316.9293212890625" id="rel6" class="er relationshipLabel">hasDimensionVector</text>
  <rect height="14" width="75.265625" y="131.14720153808594" x="681.4921875" class="er relationshipLabelBox"/>
  <text style="text-anchor: middle; dominant-baseline: middle; font-size: 12px;" y="138.14720153808594" x="719.125" id="rel7" class="er relationshipLabel">quantityValue</text>
  <rect height="14" width="43.296875" y="514.0115966796875" x="1192.526611328125" class="er relationshipLabelBox"/>
  <text style="text-anchor: middle; dominant-baseline: middle; font-size: 12px;" y="521.0115966796875" x="1214.175048828125" id="rel8" class="er relationshipLabel">hasRule</text>
  <rect height="14" width="95.78125" y="116.69993591308594" x="299.27056884765625" class="er relationshipLabelBox"/>
  <text style="text-anchor: middle; dominant-baseline: middle; font-size: 12px;" y="123.69993591308594" x="347.16119384765625" id="rel9" class="er relationshipLabel">applicableSystem</text>
  <rect height="14" width="80.3125" y="137.50674438476562" x="816.566650390625" class="er relationshipLabelBox"/>
  <text style="text-anchor: middle; dominant-baseline: middle; font-size: 12px;" y="144.50674438476562" x="856.722900390625" id="rel10" class="er relationshipLabel">applicableUnit</text>
  <rect height="14" width="187.9173583984375" y="491.98126220703125" x="1501.5798950195312" class="er relationshipLabelBox"/>
  <text style="text-anchor: middle; dominant-baseline: middle; font-size: 12px;" y="498.98126220703125" x="1595.53857421875" id="rel11" class="er relationshipLabel">qkdvDenominator, qkdvNumerator</text>
  <rect height="14" width="119.078125" y="655.4912109375" x="1535.6846923828125" class="er relationshipLabelBox"/>
  <text style="text-anchor: middle; dominant-baseline: middle; font-size: 12px;" y="662.4912109375" x="1595.2237548828125" id="rel12" class="er relationshipLabel">dimensionVectorForSI</text>
  <rect height="14" width="61.453125" y="575.5" x="1800.577392578125" class="er relationshipLabelBox"/>
  <text style="text-anchor: middle; dominant-baseline: middle; font-size: 12px;" y="582.5" x="1831.303955078125" id="rel13" class="er relationshipLabel">exactMatch</text>
  <rect height="14" width="111.8487548828125" y="511.4046630859375" x="1489.9323120117188" class="er relationshipLabelBox"/>
  <text style="text-anchor: middle; dominant-baseline: middle; font-size: 12px;" y="518.4046630859375" x="1545.856689453125" id="rel14" class="er relationshipLabel">hasDimensionVector</text>
  <rect height="14" width="43.296875" y="625.0170288085938" x="1091.9857177734375" class="er relationshipLabelBox"/>
  <text style="text-anchor: middle; dominant-baseline: middle; font-size: 12px;" y="632.0170288085938" x="1113.6341552734375" id="rel15" class="er relationshipLabel">hasRule</text>
  <rect height="14" width="163.4290771484375" y="642.0945434570312" x="1731.8638305664062" class="er relationshipLabelBox"/>
  <text style="text-anchor: middle; dominant-baseline: middle; font-size: 12px;" y="649.0945434570312" x="1813.578369140625" id="rel16" class="er relationshipLabel">belongsToSystemOfQuantities</text>
  <rect height="14" width="675.57666015625" y="359.9713134765625" x="995.3544921875" class="er relationshipLabelBox"/>
  <text style="text-anchor: middle; dominant-baseline: middle; font-size: 12px;" y="366.9713134765625" x="1333.142822265625" id="rel17" class="er relationshipLabel">applicableCGSUnit, applicableISOUnit, applicableImperialUnit, applicableSIUnit, applicableUSCustomaryUnit, applicableUnit</text>
  <rect height="14" width="144.375" y="468.3573303222656" x="1682.710205078125" class="er relationshipLabelBox"/>
  <text style="text-anchor: middle; dominant-baseline: middle; font-size: 12px;" y="475.3573303222656" x="1754.897705078125" id="rel18" class="er relationshipLabel">hasReferenceQuantityKind</text>
  <rect height="14" width="43.296875" y="460.1423645019531" x="887.0245971679688" class="er relationshipLabelBox"/>
  <text style="text-anchor: middle; dominant-baseline: middle; font-size: 12px;" y="467.1423645019531" x="908.6730346679688" id="rel19" class="er relationshipLabel">hasRule</text>
  <rect height="14" width="43.296875" y="750.5" x="1152.1566162109375" class="er relationshipLabelBox"/>
  <text style="text-anchor: middle; dominant-baseline: middle; font-size: 12px;" y="757.5" x="1173.8050537109375" id="rel20" class="er relationshipLabel">hasRule</text>
  <rect height="14" width="46.921875" y="838" x="550.0270385742188" class="er relationshipLabelBox"/>
  <text style="text-anchor: middle; dominant-baseline: middle; font-size: 12px;" y="845" x="573.4879760742188" id="rel21" class="er relationshipLabel">ruleType</text>
  <rect height="14" width="304.4981689453125" y="277.73016357421875" x="1093.8650512695312" class="er relationshipLabelBox"/>
  <text style="text-anchor: middle; dominant-baseline: middle; font-size: 12px;" y="284.73016357421875" x="1246.1141357421875" id="rel22" class="er relationshipLabel">hasDimensionVector, qkdvDenominator, qkdvNumerator</text>
  <rect height="14" width="30.84014892578125" y="279.8011779785156" x="665.2023010253906" class="er relationshipLabelBox"/>
  <text style="text-anchor: middle; dominant-baseline: middle; font-size: 12px;" y="286.8011779785156" x="680.6223754882812" id="rel23" class="er relationshipLabel">prefix</text>
  <rect height="14" width="90.4375" y="285.8350524902344" x="1394.8663330078125" class="er relationshipLabelBox"/>
  <text style="text-anchor: middle; dominant-baseline: middle; font-size: 12px;" y="292.8350524902344" x="1440.0850830078125" id="rel24" class="er relationshipLabel">hasQuantityKind</text>
  <rect height="14" width="43.296875" y="344.3505554199219" x="-59.848724365234375" class="er relationshipLabelBox"/>
  <text style="text-anchor: middle; dominant-baseline: middle; font-size: 12px;" y="351.3505554199219" x="-38.200286865234375" id="rel25" class="er relationshipLabel">hasRule</text>
  <rect height="14" width="597.5625" y="273.5517272949219" x="148.46878051757812" class="er relationshipLabelBox"/>
  <text style="text-anchor: middle; dominant-baseline: middle; font-size: 12px;" y="280.5517272949219" x="447.2500305175781" id="rel26" class="er relationshipLabel">applicableSystem, definedUnitOfSystem, derivedCoherentUnitOfSystem, derivedUnitOfSystem, isUnitOfSystem</text>
  <rect height="14" width="57.078125" y="292.1812744140625" x="749.8904418945312" class="er relationshipLabelBox"/>
  <text style="text-anchor: middle; dominant-baseline: middle; font-size: 12px;" y="299.1812744140625" x="778.4295043945312" id="rel27" class="er relationshipLabel">ucumCode</text>
  <rect height="14" width="223.1495361328125" y="225.5" x="989.2661743164062" class="er relationshipLabelBox"/>
  <text style="text-anchor: middle; dominant-baseline: middle; font-size: 12px;" y="232.5" x="1100.8409423828125" id="rel28" class="er relationshipLabel">exactMatch, hasReciprocalUnit, scalingOf</text>
  <rect height="14" width="75.6324462890625" y="305.5645751953125" x="956.996826171875" class="er relationshipLabelBox"/>
  <text style="text-anchor: middle; dominant-baseline: middle; font-size: 12px;" y="312.5645751953125" x="994.8130493164062" id="rel29" class="er relationshipLabel">hasFactorUnit</text>
</svg>
