<svg xmlns="http://www.w3.org/2000/svg" aria-roledescription="er" role="graphics-document document" viewBox="-54.540000915527344 0 2127.45458984375 990" height="990" width="2127.45458984375" id="container">
  <style>#container{font-family:"trebuchet ms",verdana,arial,sans-serif;font-size:16px;fill:#333;}#container .error-icon{fill:#552222;}#container .error-text{fill:#552222;stroke:#552222;}#container .edge-thickness-normal{stroke-width:1px;}#container .edge-thickness-thick{stroke-width:3.5px;}#container .edge-pattern-solid{stroke-dasharray:0;}#container .edge-thickness-invisible{stroke-width:0;fill:none;}#container .edge-pattern-dashed{stroke-dasharray:3;}#container .edge-pattern-dotted{stroke-dasharray:2;}#container .marker{fill:#333333;stroke:#333333;}#container .marker.cross{stroke:#333333;}#container svg{font-family:"trebuchet ms",verdana,arial,sans-serif;font-size:16px;}#container p{margin:0;}#container .entityBox{fill:#ECECFF;stroke:#9370DB;}#container .attributeBoxOdd{fill:#ffffff;stroke:#9370DB;}#container .attributeBoxEven{fill:#f2f2f2;stroke:#9370DB;}#container .relationshipLabelBox{fill:hsl(80, 100%, 96.2745098039%);opacity:0.7;background-color:hsl(80, 100%, 96.2745098039%);}#container .relationshipLabelBox rect{opacity:0.5;}#container .relationshipLine{stroke:#333333;}#container .entityTitleText{text-anchor:middle;font-size:18px;fill:#333;}#container #MD_PARENT_START{fill:#f5f5f5!important;stroke:#333333!important;stroke-width:1;}#container #MD_PARENT_END{fill:#f5f5f5!important;stroke:#333333!important;stroke-width:1;}#container :root{--mermaid-font-family:"trebuchet ms",verdana,arial,sans-serif;}</style>
  <g/>
  <defs>
    <marker orient="auto" markerHeight="240" markerWidth="190" refY="7" refX="0" id="MD_PARENT_START">
      <path d="M 18,7 L9,13 L1,7 L9,1 Z"/>
    </marker>
  </defs>
  <defs>
    <marker orient="auto" markerHeight="28" markerWidth="20" refY="7" refX="19" id="MD_PARENT_END">
      <path d="M 18,7 L9,13 L1,7 L9,1 Z"/>
    </marker>
  </defs>
  <defs>
    <marker orient="auto" markerHeight="18" markerWidth="18" refY="9" refX="0" id="ONLY_ONE_START">
      <path d="M9,0 L9,18 M15,0 L15,18" fill="none" stroke="gray"/>
    </marker>
  </defs>
  <defs>
    <marker orient="auto" markerHeight="18" markerWidth="18" refY="9" refX="18" id="ONLY_ONE_END">
      <path d="M3,0 L3,18 M9,0 L9,18" fill="none" stroke="gray"/>
    </marker>
  </defs>
  <defs>
    <marker orient="auto" markerHeight="18" markerWidth="30" refY="9" refX="0" id="ZERO_OR_ONE_START">
      <circle r="6" cy="9" cx="21" fill="white" stroke="gray"/>
      <path d="M9,0 L9,18" fill="none" stroke="gray"/>
    </marker>
  </defs>
  <defs>
    <marker orient="auto" markerHeight="18" markerWidth="30" refY="9" refX="30" id="ZERO_OR_ONE_END">
      <circle r="6" cy="9" cx="9" fill="white" stroke="gray"/>
      <path d="M21,0 L21,18" fill="none" stroke="gray"/>
    </marker>
  </defs>
  <defs>
    <marker orient="auto" markerHeight="36" markerWidth="45" refY="18" refX="18" id="ONE_OR_MORE_START">
      <path d="M0,18 Q 18,0 36,18 Q 18,36 0,18 M42,9 L42,27" fill="none" stroke="gray"/>
    </marker>
  </defs>
  <defs>
    <marker orient="auto" markerHeight="36" markerWidth="45" refY="18" refX="27" id="ONE_OR_MORE_END">
      <path d="M3,9 L3,27 M9,18 Q27,0 45,18 Q27,36 9,18" fill="none" stroke="gray"/>
    </marker>
  </defs>
  <defs>
    <marker orient="auto" markerHeight="36" markerWidth="57" refY="18" refX="18" id="ZERO_OR_MORE_START">
      <circle r="6" cy="18" cx="48" fill="white" stroke="gray"/>
      <path d="M0,18 Q18,0 36,18 Q18,36 0,18" fill="none" stroke="gray"/>
    </marker>
  </defs>
  <defs>
    <marker orient="auto" markerHeight="36" markerWidth="57" refY="18" refX="39" id="ZERO_OR_MORE_END">
      <circle r="6" cy="18" cx="9" fill="white" stroke="gray"/>
      <path d="M21,18 Q39,0 57,18 Q39,36 21,18" fill="none" stroke="gray"/>
    </marker>
  </defs>
  <path style="stroke: gray; fill: none;" marker-start="url(#ONLY_ONE_START)" marker-end="url(#ZERO_OR_MORE_END)" d="M1979.844,620L1979.844,628.333C1979.844,636.667,1979.844,653.333,1878.307,675.144C1776.769,696.954,1573.694,723.909,1472.156,737.386L1370.618,750.863" class="er relationshipLine"/>
  <path style="stroke: gray; fill: none;" marker-start="url(#ONLY_ONE_START)" marker-end="url(#ONLY_ONE_END)" d="M1704.79,94.507L1685.315,102.922C1665.839,111.338,1626.889,128.169,1574.033,148.222C1521.178,168.275,1454.417,191.55,1421.037,203.188L1387.657,214.826" class="er relationshipLine"/>
  <path style="stroke: gray; fill: none;" marker-start="url(#ONLY_ONE_START)" marker-end="url(#ZERO_OR_MORE_END)" d="M1797.435,95L1798.991,103.333C1800.548,111.667,1803.661,128.333,1805.218,151.25C1806.774,174.167,1806.774,203.333,1806.774,232.5C1806.774,261.667,1806.774,290.833,1806.774,320C1806.774,349.167,1806.774,378.333,1806.774,407.5C1806.774,436.667,1806.774,465.833,1806.774,495C1806.774,524.167,1806.774,553.333,1806.774,582.5C1806.774,611.667,1806.774,640.833,1734.081,668.5C1661.389,696.167,1516.003,722.334,1443.311,735.417L1370.618,748.501" class="er relationshipLine"/>
  <path style="stroke: gray; fill: none;" marker-start="url(#ONLY_ONE_START)" marker-end="url(#ZERO_OR_ONE_END)" d="M757.014,66.092L680.481,79.243C603.949,92.395,450.884,118.697,374.352,140.182C297.819,161.667,297.819,178.333,297.819,186.667L297.819,195" class="er relationshipLine"/>
  <path style="stroke: gray; fill: none;" marker-start="url(#ONLY_ONE_START)" marker-end="url(#ZERO_OR_ONE_END)" d="M757.014,71.773L714.26,83.977C671.505,96.182,585.997,120.591,543.243,141.129C500.489,161.667,500.489,178.333,500.489,186.667L500.489,195" class="er relationshipLine"/>
  <path style="stroke: gray; fill: none;" marker-start="url(#ONLY_ONE_START)" marker-end="url(#ZERO_OR_ONE_END)" d="M857.014,92.807L869.332,101.506C881.651,110.205,906.288,127.602,918.606,150.885C930.925,174.167,930.925,203.333,930.925,232.5C930.925,261.667,930.925,290.833,894.516,317.284C858.107,343.734,785.288,367.469,748.879,379.336L712.47,391.203" class="er relationshipLine"/>
  <path style="stroke: gray; fill: none;" marker-start="url(#ONLY_ONE_START)" marker-end="url(#ZERO_OR_MORE_END)" d="M857.014,63.925L962.168,77.438C1067.322,90.95,1277.63,117.975,1366.07,141.174C1454.511,164.373,1421.084,183.746,1404.37,193.433L1387.657,203.119" class="er relationshipLine"/>
  <path style="stroke: gray; fill: none;" marker-start="url(#ONLY_ONE_START)" marker-end="url(#ZERO_OR_MORE_END)" d="M762.726,95L752.885,103.333C743.043,111.667,723.36,128.333,713.519,145C703.677,161.667,703.677,178.333,703.677,186.667L703.677,195" class="er relationshipLine"/>
  <path style="stroke: gray; fill: none;" marker-start="url(#ONLY_ONE_START)" marker-end="url(#ZERO_OR_ONE_END)" d="M1387.657,246.307L1432.752,258.59C1477.846,270.872,1568.036,295.436,1613.131,322.301C1658.226,349.167,1658.226,378.333,1658.226,407.5C1658.226,436.667,1658.226,465.833,1648.702,488.75C1639.178,511.667,1620.131,528.333,1610.607,536.667L1601.083,545" class="er relationshipLine"/>
  <path style="stroke: gray; fill: none;" marker-start="url(#ONLY_ONE_START)" marker-end="url(#ZERO_OR_ONE_END)" d="M1324.228,270L1321.398,278.333C1318.568,286.667,1312.909,303.333,1305.224,320C1297.539,336.667,1287.83,353.333,1282.975,361.667L1278.12,370" class="er relationshipLine"/>
  <path style="stroke: gray; fill: none;" marker-start="url(#ONLY_ONE_START)" marker-end="url(#ZERO_OR_MORE_END)" d="M1387.657,223.047L1412.727,218.373C1437.797,213.698,1487.936,204.349,1519.274,199.675C1550.611,195,1563.146,195,1575.681,201.25C1588.216,207.5,1600.751,220,1600.751,232.5C1600.751,245,1588.216,257.5,1575.681,263.75C1563.146,270,1550.611,270,1519.274,265.325C1487.936,260.651,1437.797,251.302,1412.727,246.627L1387.657,241.953" class="er relationshipLine"/>
  <path style="stroke: gray; fill: none;" marker-start="url(#ONLY_ONE_START)" marker-end="url(#ZERO_OR_MORE_END)" d="M1286.266,236.61L1114.814,250.508C943.361,264.406,600.457,292.203,421.627,314.435C242.798,336.667,228.044,353.333,220.667,361.667L213.29,370" class="er relationshipLine"/>
  <path style="stroke: gray; fill: none;" marker-start="url(#ONLY_ONE_START)" marker-end="url(#ZERO_OR_MORE_END)" d="M1286.266,238.612L1173.756,252.177C1061.246,265.741,836.226,292.871,728.598,314.769C620.971,336.667,630.735,353.333,635.617,361.667L640.5,370" class="er relationshipLine"/>
  <path style="stroke: gray; fill: none;" marker-start="url(#ONLY_ONE_START)" marker-end="url(#ZERO_OR_MORE_END)" d="M1515.369,545L1505.845,536.667C1496.321,528.333,1477.273,511.667,1467.75,488.75C1458.226,465.833,1458.226,436.667,1458.226,407.5C1458.226,378.333,1458.226,349.167,1446.464,326.097C1434.703,303.027,1411.18,286.053,1399.418,277.567L1387.657,269.08" class="er relationshipLine"/>
  <path style="stroke: gray; fill: none;" marker-start="url(#ONLY_ONE_START)" marker-end="url(#ZERO_OR_MORE_END)" d="M1558.226,620L1558.226,628.333C1558.226,636.667,1558.226,653.333,1526.958,673.181C1495.69,693.029,1433.154,716.058,1401.886,727.573L1370.618,739.087" class="er relationshipLine"/>
  <path style="stroke: gray; fill: none;" marker-start="url(#ONLY_ONE_START)" marker-end="url(#ZERO_OR_MORE_END)" d="M1234.844,370L1230.082,361.667C1225.32,353.333,1215.796,336.667,1224.367,319.407C1232.937,302.147,1259.602,284.295,1272.934,275.368L1286.266,266.442" class="er relationshipLine"/>
  <path style="stroke: gray; fill: none;" marker-start="url(#ONLY_ONE_START)" marker-end="url(#ZERO_OR_MORE_END)" d="M1256.273,445L1256.273,453.333C1256.273,461.667,1256.273,478.333,1256.273,501.25C1256.273,524.167,1256.273,553.333,1256.273,582.5C1256.273,611.667,1256.273,640.833,1262.401,663.75C1268.529,686.667,1280.785,703.333,1286.913,711.667L1293.042,720" class="er relationshipLine"/>
  <path style="stroke: gray; fill: none;" marker-start="url(#ONLY_ONE_START)" marker-end="url(#ZERO_OR_MORE_END)" d="M1370.11,73.375L1331.747,85.312C1293.383,97.25,1216.656,121.125,1202.682,143.894C1188.708,166.662,1237.487,188.324,1261.877,199.156L1286.266,209.987" class="er relationshipLine"/>
  <path style="stroke: gray; fill: none;" marker-start="url(#ONLY_ONE_START)" marker-end="url(#ZERO_OR_MORE_END)" d="M1320.618,795L1320.618,803.333C1320.618,811.667,1320.618,828.333,1320.618,845C1320.618,861.667,1320.618,878.333,1320.618,886.667L1320.618,895" class="er relationshipLine"/>
  <path style="stroke: gray; fill: none;" marker-start="url(#ONLY_ONE_START)" marker-end="url(#ZERO_OR_ONE_END)" d="M195.25,445L198.618,453.333C201.986,461.667,208.723,478.333,212.091,495C215.46,511.667,215.46,528.333,215.46,536.667L215.46,545" class="er relationshipLine"/>
  <path style="stroke: gray; fill: none;" marker-start="url(#ONLY_ONE_START)" marker-end="url(#ZERO_OR_MORE_END)" d="M147.95,370L140.807,361.667C133.664,353.333,119.378,336.667,309.098,314.35C498.817,292.034,892.542,264.067,1089.404,250.084L1286.266,236.101" class="er relationshipLine"/>
  <path style="stroke: gray; fill: none;" marker-start="url(#ONLY_ONE_START)" marker-end="url(#ZERO_OR_MORE_END)" d="M130.964,445L120.047,453.333C109.129,461.667,87.294,478.333,76.377,501.25C65.46,524.167,65.46,553.333,65.46,582.5C65.46,611.667,65.46,640.833,266.319,669.419C467.179,698.005,868.899,726.01,1069.758,740.012L1270.618,754.014" class="er relationshipLine"/>
  <path style="stroke: gray; fill: none;" marker-start="url(#ONLY_ONE_START)" marker-end="url(#ZERO_OR_MORE_END)" d="M259.359,431.192L294.939,441.827C330.518,452.462,401.678,473.731,432.261,492.699C462.845,511.667,452.852,528.333,447.856,536.667L442.86,545" class="er relationshipLine"/>
  <path style="stroke: gray; fill: none;" marker-start="url(#ONLY_ONE_START)" marker-end="url(#ZERO_OR_ONE_END)" d="M712.47,412.384L853.429,426.153C994.389,439.923,1276.307,467.461,1417.266,489.564C1558.226,511.667,1558.226,528.333,1558.226,536.667L1558.226,545" class="er relationshipLine"/>
  <path style="stroke: gray; fill: none;" marker-start="url(#ONLY_ONE_START)" marker-end="url(#ZERO_OR_MORE_END)" d="M646.538,445L642.998,453.333C639.458,461.667,632.377,478.333,628.836,495C625.296,511.667,625.296,528.333,625.296,536.667L625.296,545" class="er relationshipLine"/>
  <path style="stroke: gray; fill: none;" marker-start="url(#ONLY_ONE_START)" marker-end="url(#ZERO_OR_MORE_END)" d="M612.47,393.152L569.984,380.96C527.497,368.768,442.525,344.384,554.824,318.363C667.123,292.343,976.695,264.686,1131.48,250.858L1286.266,237.029" class="er relationshipLine"/>
  <path style="stroke: gray; fill: none;" marker-start="url(#ONLY_ONE_START)" marker-end="url(#ZERO_OR_MORE_END)" d="M612.47,422.353L571.712,434.461C530.953,446.569,449.436,470.784,413.673,491.226C377.911,511.667,387.903,528.333,392.899,536.667L397.895,545" class="er relationshipLine"/>
  <path style="stroke: gray; fill: none;" marker-start="url(#ONLY_ONE_START)" marker-end="url(#ZERO_OR_MORE_END)" d="M712.47,434.369L731.274,444.474C750.079,454.579,787.687,474.79,806.492,493.228C825.296,511.667,825.296,528.333,825.296,536.667L825.296,545" class="er relationshipLine"/>
  <path style="stroke: gray; fill: none;" marker-start="url(#ONLY_ONE_START)" marker-end="url(#ZERO_OR_MORE_END)" d="M712.47,399.296L742.229,394.413C771.987,389.531,831.504,379.765,868.702,374.883C905.9,370,920.779,370,935.658,376.25C950.538,382.5,965.417,395,965.417,407.5C965.417,420,950.538,432.5,935.658,438.75C920.779,445,905.9,445,868.702,440.117C831.504,435.235,771.987,425.469,742.229,420.587L712.47,415.704" class="er relationshipLine"/>
  <path style="stroke: gray; fill: none;" marker-start="url(#ONLY_ONE_START)" marker-end="url(#ZERO_OR_MORE_END)" d="M712.47,419.363L765.604,431.969C818.738,444.575,925.005,469.788,978.139,490.727C1031.273,511.667,1031.273,528.333,1031.273,536.667L1031.273,545" class="er relationshipLine"/>
  <path style="stroke: gray; fill: none;" marker-start="url(#ONLY_ONE_START)" marker-end="url(#ONLY_ONE_END)" d="M146.063,63.264L295.04,76.886C444.018,90.509,741.974,117.755,932.008,143.472C1122.042,169.189,1204.154,193.377,1245.21,205.472L1286.266,217.566" class="er relationshipLine"/>
  <path style="stroke: gray; fill: none;" marker-start="url(#ONLY_ONE_START)" marker-end="url(#ZERO_OR_MORE_END)" d="M32.643,95L21.446,103.333C10.249,111.667,-12.146,128.333,-23.343,151.25C-34.54,174.167,-34.54,203.333,-34.54,232.5C-34.54,261.667,-34.54,290.833,-34.54,320C-34.54,349.167,-34.54,378.333,-34.54,407.5C-34.54,436.667,-34.54,465.833,-34.54,495C-34.54,524.167,-34.54,553.333,-34.54,582.5C-34.54,611.667,-34.54,640.833,182.986,669.462C400.512,698.091,835.565,726.181,1053.092,740.226L1270.618,754.272" class="er relationshipLine"/>
  <g transform="translate(1906.7740173339844,545 )" id="entity-AbstractQuantityKind-251824b8-4b13-554e-87bc-1a2faeaad1d7">
    <rect height="75" width="146.140625" y="0" x="0" class="er entityBox"/>
    <text style="dominant-baseline: middle; text-anchor: middle; font-size: 12px;" transform="translate(73.0703125,37.5)" y="0" x="0" id="text-entity-AbstractQuantityKind-251824b8-4b13-554e-87bc-1a2faeaad1d7" class="er entityLabel">AbstractQuantityKind</text>
  </g>
  <g transform="translate(1704.7900428771973,20 )" id="entity-BaseDimensionMagnitude-987cde2d-f0b1-50ae-bce9-949ffc04e469">
    <rect height="75" width="171.28125" y="0" x="0" class="er entityBox"/>
    <text style="dominant-baseline: middle; text-anchor: middle; font-size: 12px;" transform="translate(85.640625,37.5)" y="0" x="0" id="text-entity-BaseDimensionMagnitude-987cde2d-f0b1-50ae-bce9-949ffc04e469" class="er entityLabel">BaseDimensionMagnitude</text>
  </g>
  <g transform="translate(757.0135154724121,20 )" id="entity-Quantity-46f11547-7eaf-5ee9-bc9f-a9eb227f8785">
    <rect height="75" width="100" y="0" x="0" class="er entityBox"/>
    <text style="dominant-baseline: middle; text-anchor: middle; font-size: 12px;" transform="translate(50,37.5)" y="0" x="0" id="text-entity-Quantity-46f11547-7eaf-5ee9-bc9f-a9eb227f8785" class="er entityLabel">Quantity</text>
  </g>
  <g transform="translate(1286.2662048339844,195 )" id="entity-QuantityKind-6f79b338-e354-5d95-8035-8883644476ff">
    <rect height="75" width="101.390625" y="0" x="0" class="er entityBox"/>
    <text style="dominant-baseline: middle; text-anchor: middle; font-size: 12px;" transform="translate(50.6953125,37.5)" y="0" x="0" id="text-entity-QuantityKind-6f79b338-e354-5d95-8035-8883644476ff" class="er entityLabel">QuantityKind</text>
  </g>
  <g transform="translate(1461.1292037963867,545 )" id="entity-QuantityKindDimensionVector-bfa1bf26-fcae-516f-8f63-2f454f3dac1b">
    <rect height="75" width="194.19308471679688" y="0" x="0" class="er entityBox"/>
    <text style="dominant-baseline: middle; text-anchor: middle; font-size: 12px;" transform="translate(97.09654235839844,37.5)" y="0" x="0" id="text-entity-QuantityKindDimensionVector-bfa1bf26-fcae-516f-8f63-2f454f3dac1b" class="er entityLabel">QuantityKindDimensionVector</text>
  </g>
  <g transform="translate(1154.3194961547852,370 )" id="entity-QuantityKindDimensionVectorSI-2681a9c0-d385-5c75-b278-85a805bca5b5">
    <rect height="75" width="203.90625" y="0" x="0" class="er entityBox"/>
    <text style="dominant-baseline: middle; text-anchor: middle; font-size: 12px;" transform="translate(101.953125,37.5)" y="0" x="0" id="text-entity-QuantityKindDimensionVectorSI-2681a9c0-d385-5c75-b278-85a805bca5b5" class="er entityLabel">QuantityKindDimensionVectorSI</text>
  </g>
  <g transform="translate(1370.1103553771973,20 )" id="entity-QuantityType-554bb6a6-4d4a-52dd-b2c2-894e29c4615d">
    <rect height="75" width="102.03125" y="0" x="0" class="er entityBox"/>
    <text style="dominant-baseline: middle; text-anchor: middle; font-size: 12px;" transform="translate(51.015625,37.5)" y="0" x="0" id="text-entity-QuantityType-554bb6a6-4d4a-52dd-b2c2-894e29c4615d" class="er entityLabel">QuantityType</text>
  </g>
  <g transform="translate(1270.6181678771973,720 )" id="entity-Rule-886caf8e-59ff-5db3-a492-27242971196f">
    <rect height="75" width="100" y="0" x="0" class="er entityBox"/>
    <text style="dominant-baseline: middle; text-anchor: middle; font-size: 12px;" transform="translate(50,37.5)" y="0" x="0" id="text-entity-Rule-886caf8e-59ff-5db3-a492-27242971196f" class="er entityLabel">Rule</text>
  </g>
  <g transform="translate(100.82632827758789,370 )" id="entity-SystemOfQuantityKinds-09c2a533-d4ff-5ffb-9642-53498359216a">
    <rect height="75" width="158.53285217285156" y="0" x="0" class="er entityBox"/>
    <text style="dominant-baseline: middle; text-anchor: middle; font-size: 12px;" transform="translate(79.26642608642578,37.5)" y="0" x="0" id="text-entity-SystemOfQuantityKinds-09c2a533-d4ff-5ffb-9642-53498359216a" class="er entityLabel">SystemOfQuantityKinds</text>
  </g>
  <g transform="translate(612.470142364502,370 )" id="entity-Unit-c57ac1ea-0a24-509a-a80e-23f8c03ca739">
    <rect height="75" width="100" y="0" x="0" class="er entityBox"/>
    <text style="dominant-baseline: middle; text-anchor: middle; font-size: 12px;" transform="translate(50,37.5)" y="0" x="0" id="text-entity-Unit-c57ac1ea-0a24-509a-a80e-23f8c03ca739" class="er entityLabel">Unit</text>
  </g>
  <g transform="translate(20,20 )" id="entity-UserQuantityKind-1d3cd085-6793-5448-82a1-6476fcd13bbf">
    <rect height="75" width="126.0625" y="0" x="0" class="er entityBox"/>
    <text style="dominant-baseline: middle; text-anchor: middle; font-size: 12px;" transform="translate(63.03125,37.5)" y="0" x="0" id="text-entity-UserQuantityKind-1d3cd085-6793-5448-82a1-6476fcd13bbf" class="er entityLabel">UserQuantityKind</text>
  </g>
  <g transform="translate(245.14896392822266,195 )" id="entity-DataEncoding-e949680e-a6e4-55c9-9325-aa69226f3e53">
    <rect height="75" width="105.34048461914062" y="0" x="0" class="er entityBox"/>
    <text style="dominant-baseline: middle; text-anchor: middle; font-size: 12px;" transform="translate(52.67024230957031,37.5)" y="0" x="0" id="text-entity-DataEncoding-e949680e-a6e4-55c9-9325-aa69226f3e53" class="er entityLabel">DataEncoding</text>
  </g>
  <g transform="translate(450.4894485473633,195 )" id="entity-Datatype-eedb5402-d0cc-52bf-9fb8-7b914f648cbe">
    <rect height="75" width="100" y="0" x="0" class="er entityBox"/>
    <text style="dominant-baseline: middle; text-anchor: middle; font-size: 12px;" transform="translate(50,37.5)" y="0" x="0" id="text-entity-Datatype-eedb5402-d0cc-52bf-9fb8-7b914f648cbe" class="er entityLabel">Datatype</text>
  </g>
  <g transform="translate(650.4894485473633,195 )" id="entity-QuantityValue-f2bc13d2-1961-5e2a-9bfe-ab6a05a5860b">
    <rect height="75" width="106.375" y="0" x="0" class="er entityBox"/>
    <text style="dominant-baseline: middle; text-anchor: middle; font-size: 12px;" transform="translate(53.1875,37.5)" y="0" x="0" id="text-entity-QuantityValue-f2bc13d2-1961-5e2a-9bfe-ab6a05a5860b" class="er entityLabel">QuantityValue</text>
  </g>
  <g transform="translate(1270.6181678771973,895 )" id="entity-RuleType-d54df1a6-a17d-5920-9344-6f805c739e55">
    <rect height="75" width="100" y="0" x="0" class="er entityBox"/>
    <text style="dominant-baseline: middle; text-anchor: middle; font-size: 12px;" transform="translate(50,37.5)" y="0" x="0" id="text-entity-RuleType-d54df1a6-a17d-5920-9344-6f805c739e55" class="er entityLabel">RuleType</text>
  </g>
  <g transform="translate(165.45954132080078,545 )" id="entity-Enumeration-f9f59bb4-2616-549b-89c9-bf7c68943800">
    <rect height="75" width="100" y="0" x="0" class="er entityBox"/>
    <text style="dominant-baseline: middle; text-anchor: middle; font-size: 12px;" transform="translate(50,37.5)" y="0" x="0" id="text-entity-Enumeration-f9f59bb4-2616-549b-89c9-bf7c68943800" class="er entityLabel">Enumeration</text>
  </g>
  <g transform="translate(365.4595413208008,545 )" id="entity-SystemOfUnits-f7f1da8e-a5af-50e1-94d0-c2e741f40e1d">
    <rect height="75" width="109.83651733398438" y="0" x="0" class="er entityBox"/>
    <text style="dominant-baseline: middle; text-anchor: middle; font-size: 12px;" transform="translate(54.91825866699219,37.5)" y="0" x="0" id="text-entity-SystemOfUnits-f7f1da8e-a5af-50e1-94d0-c2e741f40e1d" class="er entityLabel">SystemOfUnits</text>
  </g>
  <g transform="translate(575.2960586547852,545 )" id="entity-Prefix-f6d97b99-faee-5974-b12e-390868d79e86">
    <rect height="75" width="100" y="0" x="0" class="er entityBox"/>
    <text style="dominant-baseline: middle; text-anchor: middle; font-size: 12px;" transform="translate(50,37.5)" y="0" x="0" id="text-entity-Prefix-f6d97b99-faee-5974-b12e-390868d79e86" class="er entityLabel">Prefix</text>
  </g>
  <g transform="translate(775.2960586547852,545 )" id="entity-UCUMcs-8df33f70-0c53-5f8e-a81f-0969bc803a34">
    <rect height="75" width="100" y="0" x="0" class="er entityBox"/>
    <text style="dominant-baseline: middle; text-anchor: middle; font-size: 12px;" transform="translate(50,37.5)" y="0" x="0" id="text-entity-UCUMcs-8df33f70-0c53-5f8e-a81f-0969bc803a34" class="er entityLabel">UCUMcs</text>
  </g>
  <g transform="translate(981.2726211547852,545 )" id="entity-Class-d9e3eb4a-97c0-50b6-8e3f-7f4a2fa7283d">
    <rect height="75" width="100" y="0" x="0" class="er entityBox"/>
    <text style="dominant-baseline: middle; text-anchor: middle; font-size: 12px;" transform="translate(50,37.5)" y="0" x="0" id="text-entity-Class-d9e3eb4a-97c0-50b6-8e3f-7f4a2fa7283d" class="er entityLabel">__Class</text>
  </g>
  <rect height="14" width="43.296875" y="700.6367797851562" x="1665.4857177734375" class="er relationshipLabelBox"/>
  <text style="text-anchor: middle; dominant-baseline: middle; font-size: 12px;" y="707.6367797851562" x="1687.1341552734375" id="rel1" class="er relationshipLabel">hasRule</text>
  <rect height="14" width="116.28125" y="151.12217712402344" x="1489.4073486328125" class="er relationshipLabelBox"/>
  <text style="text-anchor: middle; dominant-baseline: middle; font-size: 12px;" y="158.12217712402344" x="1547.5479736328125" id="rel2" class="er relationshipLabel">hasBaseQuantityKind</text>
  <rect height="14" width="43.296875" y="579.1781616210938" x="1785.1197509765625" class="er relationshipLabelBox"/>
  <text style="text-anchor: middle; dominant-baseline: middle; font-size: 12px;" y="586.1781616210938" x="1806.7681884765625" id="rel3" class="er relationshipLabel">hasRule</text>
  <rect height="14" width="74.90850830078125" y="102.08167266845703" x="476.9365539550781" class="er relationshipLabelBox"/>
  <text style="text-anchor: middle; dominant-baseline: middle; font-size: 12px;" y="109.08167266845703" x="514.3908081054688" id="rel4" class="er relationshipLabel">dataEncoding</text>
  <rect height="14" width="48.328125" y="107.3584976196289" x="589.3466186523438" class="er relationshipLabelBox"/>
  <text style="text-anchor: middle; dominant-baseline: middle; font-size: 12px;" y="114.3584976196289" x="613.5106811523438" id="rel5" class="er relationshipLabel">datatype</text>
  <rect height="14" width="42.40423583984375" y="285.8624267578125" x="897.2061462402344" class="er relationshipLabelBox"/>
  <text style="text-anchor: middle; dominant-baseline: middle; font-size: 12px;" y="292.8624267578125" x="918.4082641601562" id="rel6" class="er relationshipLabel">hasUnit</text>
  <rect height="14" width="90.4375" y="98.79642486572266" x="1125.997314453125" class="er relationshipLabelBox"/>
  <text style="text-anchor: middle; dominant-baseline: middle; font-size: 12px;" y="105.79642486572266" x="1171.216064453125" id="rel7" class="er relationshipLabel">hasQuantityKind</text>
  <rect height="14" width="75.265625" y="130.23350524902344" x="681.1342163085938" class="er relationshipLabelBox"/>
  <text style="text-anchor: middle; dominant-baseline: middle; font-size: 12px;" y="137.23350524902344" x="718.7670288085938" id="rel8" class="er relationshipLabel">quantityValue</text>
  <rect height="14" width="304.4981689453125" y="320.95086669921875" x="1469.6679077148438" class="er relationshipLabelBox"/>
  <text style="text-anchor: middle; dominant-baseline: middle; font-size: 12px;" y="327.95086669921875" x="1621.9169921875" id="rel9" class="er relationshipLabel">hasDimensionVector, qkdvDenominator, qkdvNumerator</text>
  <rect height="14" width="119.078125" y="314.5323791503906" x="1244.97265625" class="er relationshipLabelBox"/>
  <text style="text-anchor: middle; dominant-baseline: middle; font-size: 12px;" y="321.5323791503906" x="1304.51171875" id="rel10" class="er relationshipLabel">dimensionVectorForSI</text>
  <rect height="14" width="61.453125" y="225.49998474121094" x="1570.0244140625" class="er relationshipLabelBox"/>
  <text style="text-anchor: middle; dominant-baseline: middle; font-size: 12px;" y="232.49998474121094" x="1600.7509765625" id="rel11" class="er relationshipLabel">exactMatch</text>
  <rect height="14" width="163.4290771484375" y="274.73297119140625" x="662.485595703125" class="er relationshipLabelBox"/>
  <text style="text-anchor: middle; dominant-baseline: middle; font-size: 12px;" y="281.73297119140625" x="744.2001342773438" id="rel12" class="er relationshipLabel">belongsToSystemOfQuantities</text>
  <rect height="14" width="675.5765380859375" y="273.93145751953125" x="607.2257080078125" class="er relationshipLabelBox"/>
  <text style="text-anchor: middle; dominant-baseline: middle; font-size: 12px;" y="280.93145751953125" x="945.0139770507812" id="rel13" class="er relationshipLabel">applicableCGSUnit, applicableISOUnit, applicableImperialUnit, applicableSIUnit, applicableUSCustomaryUnit, applicableUnit</text>
  <rect height="14" width="144.375" y="395.9980163574219" x="1386.0361328125" class="er relationshipLabelBox"/>
  <text style="text-anchor: middle; dominant-baseline: middle; font-size: 12px;" y="402.9980163574219" x="1458.2236328125" id="rel14" class="er relationshipLabel">hasReferenceQuantityKind</text>
  <rect height="14" width="43.296875" y="689.669677734375" x="1458.884033203125" class="er relationshipLabelBox"/>
  <text style="text-anchor: middle; dominant-baseline: middle; font-size: 12px;" y="696.669677734375" x="1480.532470703125" id="rel15" class="er relationshipLabel">hasRule</text>
  <rect height="14" width="144.375" y="300.97076416015625" x="1160.181884765625" class="er relationshipLabelBox"/>
  <text style="text-anchor: middle; dominant-baseline: middle; font-size: 12px;" y="307.97076416015625" x="1232.369384765625" id="rel16" class="er relationshipLabel">hasReferenceQuantityKind</text>
  <rect height="14" width="43.296875" y="579.8548583984375" x="1234.625732421875" class="er relationshipLabelBox"/>
  <text style="text-anchor: middle; dominant-baseline: middle; font-size: 12px;" y="586.8548583984375" x="1256.274169921875" id="rel17" class="er relationshipLabel">hasRule</text>
  <rect height="14" width="29.171875" y="116.57839965820312" x="1214.6522216796875" class="er relationshipLabelBox"/>
  <text style="text-anchor: middle; dominant-baseline: middle; font-size: 12px;" y="123.57839965820312" x="1229.2381591796875" id="rel18" class="er relationshipLabel">value</text>
  <rect height="14" width="46.921875" y="838" x="1297.1571044921875" class="er relationshipLabelBox"/>
  <text style="text-anchor: middle; dominant-baseline: middle; font-size: 12px;" y="845" x="1320.6180419921875" id="rel19" class="er relationshipLabel">ruleType</text>
  <rect height="14" width="153.203125" y="486.71044921875" x="135.2216796875" class="er relationshipLabelBox"/>
  <text style="text-anchor: middle; dominant-baseline: middle; font-size: 12px;" y="493.71044921875" x="211.8232421875" id="rel20" class="er relationshipLabel">baseDimensionEnumeration</text>
  <rect height="14" width="369.890625" y="271.9542236328125" x="513.392578125" class="er relationshipLabelBox"/>
  <text style="text-anchor: middle; dominant-baseline: middle; font-size: 12px;" y="278.9542236328125" x="698.337890625" id="rel21" class="er relationshipLabel">hasBaseQuantityKind, hasQuantityKind, systemDerivedQuantityKind</text>
  <rect height="14" width="43.296875" y="694.8655395507812" x="548.207763671875" class="er relationshipLabelBox"/>
  <text style="text-anchor: middle; dominant-baseline: middle; font-size: 12px;" y="701.8655395507812" x="569.856201171875" id="rel22" class="er relationshipLabel">hasRule</text>
  <rect height="14" width="80.5625" y="461.34564208984375" x="337.07769775390625" class="er relationshipLabelBox"/>
  <text style="text-anchor: middle; dominant-baseline: middle; font-size: 12px;" y="468.34564208984375" x="377.35894775390625" id="rel23" class="er relationshipLabel">hasUnitSystem</text>
  <rect height="14" width="304.4981689453125" y="448.88916015625" x="993.7810668945312" class="er relationshipLabelBox"/>
  <text style="text-anchor: middle; dominant-baseline: middle; font-size: 12px;" y="455.88916015625" x="1146.0301513671875" id="rel24" class="er relationshipLabel">hasDimensionVector, qkdvDenominator, qkdvNumerator</text>
  <rect height="14" width="30.8402099609375" y="486.5830383300781" x="613.7257690429688" class="er relationshipLabelBox"/>
  <text style="text-anchor: middle; dominant-baseline: middle; font-size: 12px;" y="493.5830383300781" x="629.1458740234375" id="rel25" class="er relationshipLabel">prefix</text>
  <rect height="14" width="90.4375" y="273.3054504394531" x="779.5289306640625" class="er relationshipLabelBox"/>
  <text style="text-anchor: middle; dominant-baseline: middle; font-size: 12px;" y="280.3054504394531" x="824.7476806640625" id="rel26" class="er relationshipLabel">hasQuantityKind</text>
  <rect height="14" width="597.5625" y="456.5788269042969" x="180.80288696289062" class="er relationshipLabelBox"/>
  <text style="text-anchor: middle; dominant-baseline: middle; font-size: 12px;" y="463.5788269042969" x="479.5841369628906" id="rel27" class="er relationshipLabel">applicableSystem, definedUnitOfSystem, derivedCoherentUnitOfSystem, derivedUnitOfSystem, isUnitOfSystem</text>
  <rect height="14" width="57.078125" y="469.3903503417969" x="756.8414916992188" class="er relationshipLabelBox"/>
  <text style="text-anchor: middle; dominant-baseline: middle; font-size: 12px;" y="476.3903503417969" x="785.3805541992188" id="rel28" class="er relationshipLabel">ucumCode</text>
  <rect height="14" width="223.1495361328125" y="400.5000305175781" x="853.8422241210938" class="er relationshipLabelBox"/>
  <text style="text-anchor: middle; dominant-baseline: middle; font-size: 12px;" y="407.5000305175781" x="965.4169921875" id="rel29" class="er relationshipLabel">exactMatch, hasReciprocalUnit, scalingOf</text>
  <rect height="14" width="75.63250732421875" y="455.08209228515625" x="848.5210266113281" class="er relationshipLabelBox"/>
  <text style="text-anchor: middle; dominant-baseline: middle; font-size: 12px;" y="462.08209228515625" x="886.3372802734375" id="rel30" class="er relationshipLabel">hasFactorUnit</text>
  <rect height="14" width="90.4375" y="111.25318145751953" x="674.4503173828125" class="er relationshipLabelBox"/>
  <text style="text-anchor: middle; dominant-baseline: middle; font-size: 12px;" y="118.25318145751953" x="719.6690673828125" id="rel31" class="er relationshipLabel">hasQuantityKind</text>
  <rect height="14" width="43.296875" y="680.3695678710938" x="323.86328125" class="er relationshipLabelBox"/>
  <text style="text-anchor: middle; dominant-baseline: middle; font-size: 12px;" y="687.3695678710938" x="345.51171875" id="rel32" class="er relationshipLabel">hasRule</text>
</svg>
