<svg xmlns="http://www.w3.org/2000/svg" aria-roledescription="er" role="graphics-document document" viewBox="0 0 783.533447265625 815" height="815" width="783.533447265625" id="container">
  <style>#container{font-family:"trebuchet ms",verdana,arial,sans-serif;font-size:16px;fill:#333;}#container .error-icon{fill:#552222;}#container .error-text{fill:#552222;stroke:#552222;}#container .edge-thickness-normal{stroke-width:1px;}#container .edge-thickness-thick{stroke-width:3.5px;}#container .edge-pattern-solid{stroke-dasharray:0;}#container .edge-thickness-invisible{stroke-width:0;fill:none;}#container .edge-pattern-dashed{stroke-dasharray:3;}#container .edge-pattern-dotted{stroke-dasharray:2;}#container .marker{fill:#333333;stroke:#333333;}#container .marker.cross{stroke:#333333;}#container svg{font-family:"trebuchet ms",verdana,arial,sans-serif;font-size:16px;}#container p{margin:0;}#container .entityBox{fill:#ECECFF;stroke:#9370DB;}#container .attributeBoxOdd{fill:#ffffff;stroke:#9370DB;}#container .attributeBoxEven{fill:#f2f2f2;stroke:#9370DB;}#container .relationshipLabelBox{fill:hsl(80, 100%, 96.2745098039%);opacity:0.7;background-color:hsl(80, 100%, 96.2745098039%);}#container .relationshipLabelBox rect{opacity:0.5;}#container .relationshipLine{stroke:#333333;}#container .entityTitleText{text-anchor:middle;font-size:18px;fill:#333;}#container #MD_PARENT_START{fill:#f5f5f5!important;stroke:#333333!important;stroke-width:1;}#container #MD_PARENT_END{fill:#f5f5f5!important;stroke:#333333!important;stroke-width:1;}#container :root{--mermaid-font-family:"trebuchet ms",verdana,arial,sans-serif;}</style>
  <g/>
  <defs>
    <marker orient="auto" markerHeight="240" markerWidth="190" refY="7" refX="0" id="MD_PARENT_START">
      <path d="M 18,7 L9,13 L1,7 L9,1 Z"/>
    </marker>
  </defs>
  <defs>
    <marker orient="auto" markerHeight="28" markerWidth="20" refY="7" refX="19" id="MD_PARENT_END">
      <path d="M 18,7 L9,13 L1,7 L9,1 Z"/>
    </marker>
  </defs>
  <defs>
    <marker orient="auto" markerHeight="18" markerWidth="18" refY="9" refX="0" id="ONLY_ONE_START">
      <path d="M9,0 L9,18 M15,0 L15,18" fill="none" stroke="gray"/>
    </marker>
  </defs>
  <defs>
    <marker orient="auto" markerHeight="18" markerWidth="18" refY="9" refX="18" id="ONLY_ONE_END">
      <path d="M3,0 L3,18 M9,0 L9,18" fill="none" stroke="gray"/>
    </marker>
  </defs>
  <defs>
    <marker orient="auto" markerHeight="18" markerWidth="30" refY="9" refX="0" id="ZERO_OR_ONE_START">
      <circle r="6" cy="9" cx="21" fill="white" stroke="gray"/>
      <path d="M9,0 L9,18" fill="none" stroke="gray"/>
    </marker>
  </defs>
  <defs>
    <marker orient="auto" markerHeight="18" markerWidth="30" refY="9" refX="30" id="ZERO_OR_ONE_END">
      <circle r="6" cy="9" cx="9" fill="white" stroke="gray"/>
      <path d="M21,0 L21,18" fill="none" stroke="gray"/>
    </marker>
  </defs>
  <defs>
    <marker orient="auto" markerHeight="36" markerWidth="45" refY="18" refX="18" id="ONE_OR_MORE_START">
      <path d="M0,18 Q 18,0 36,18 Q 18,36 0,18 M42,9 L42,27" fill="none" stroke="gray"/>
    </marker>
  </defs>
  <defs>
    <marker orient="auto" markerHeight="36" markerWidth="45" refY="18" refX="27" id="ONE_OR_MORE_END">
      <path d="M3,9 L3,27 M9,18 Q27,0 45,18 Q27,36 9,18" fill="none" stroke="gray"/>
    </marker>
  </defs>
  <defs>
    <marker orient="auto" markerHeight="36" markerWidth="57" refY="18" refX="18" id="ZERO_OR_MORE_START">
      <circle r="6" cy="18" cx="48" fill="white" stroke="gray"/>
      <path d="M0,18 Q18,0 36,18 Q18,36 0,18" fill="none" stroke="gray"/>
    </marker>
  </defs>
  <defs>
    <marker orient="auto" markerHeight="36" markerWidth="57" refY="18" refX="39" id="ZERO_OR_MORE_END">
      <circle r="6" cy="18" cx="9" fill="white" stroke="gray"/>
      <path d="M21,18 Q39,0 57,18 Q39,36 21,18" fill="none" stroke="gray"/>
    </marker>
  </defs>
  <path style="stroke: gray; fill: none;" marker-start="url(#ONLY_ONE_START)" marker-end="url(#ZERO_OR_MORE_END)" d="M87.547,445L87.547,453.333C87.547,461.667,87.547,478.333,163.409,499.807C239.271,521.28,390.995,547.56,466.857,560.7L542.719,573.84" class="er relationshipLine"/>
  <path style="stroke: gray; fill: none;" marker-start="url(#ONLY_ONE_START)" marker-end="url(#ZERO_OR_MORE_END)" d="M642.719,566.875L654.385,563.229C666.052,559.583,689.385,552.292,703.969,548.646C718.552,545,724.385,545,730.219,551.25C736.052,557.5,741.885,570,741.885,582.5C741.885,595,736.052,607.5,730.219,613.75C724.385,620,718.552,620,703.969,616.354C689.385,612.708,666.052,605.417,654.385,601.771L642.719,598.125" class="er relationshipLine"/>
  <path style="stroke: gray; fill: none;" marker-start="url(#ONLY_ONE_START)" marker-end="url(#ZERO_OR_MORE_END)" d="M592.719,620L592.719,628.333C592.719,636.667,592.719,653.333,592.719,670C592.719,686.667,592.719,703.333,592.719,711.667L592.719,720" class="er relationshipLine"/>
  <path style="stroke: gray; fill: none;" marker-start="url(#ONLY_ONE_START)" marker-end="url(#ZERO_OR_ONE_END)" d="M373.906,92.5L386.406,101.25C398.906,110,423.906,127.5,436.406,144.583C448.906,161.667,448.906,178.333,448.906,186.667L448.906,195" class="er relationshipLine"/>
  <path style="stroke: gray; fill: none;" marker-start="url(#ONLY_ONE_START)" marker-end="url(#ZERO_OR_MORE_END)" d="M273.906,76.01L242.846,87.508C211.786,99.007,149.667,122.003,118.607,148.085C87.547,174.167,87.547,203.333,87.547,232.5C87.547,261.667,87.547,290.833,87.547,313.75C87.547,336.667,87.547,353.333,87.547,361.667L87.547,370" class="er relationshipLine"/>
  <path style="stroke: gray; fill: none;" marker-start="url(#ONLY_ONE_START)" marker-end="url(#ZERO_OR_MORE_END)" d="M373.906,73.261L411.837,85.217C449.768,97.174,525.63,121.087,563.561,147.627C601.492,174.167,601.492,203.333,601.492,232.5C601.492,261.667,601.492,290.833,601.492,320C601.492,349.167,601.492,378.333,601.492,407.5C601.492,436.667,601.492,465.833,600.657,488.75C599.821,511.667,598.15,528.333,597.314,536.667L596.479,545" class="er relationshipLine"/>
  <path style="stroke: gray; fill: none;" marker-start="url(#ONLY_ONE_START)" marker-end="url(#ZERO_OR_MORE_END)" d="M313.192,95L310.811,103.333C308.43,111.667,303.668,128.333,301.287,151.25C298.906,174.167,298.906,203.333,298.906,232.5C298.906,261.667,298.906,290.833,301.287,313.75C303.668,336.667,308.43,353.333,310.811,361.667L313.192,370" class="er relationshipLine"/>
  <path style="stroke: gray; fill: none;" marker-start="url(#ONLY_ONE_START)" marker-end="url(#ZERO_OR_MORE_END)" d="M398.906,250L365.573,261.667C332.24,273.333,265.573,296.667,221.634,316.667C177.695,336.667,156.484,353.333,145.878,361.667L135.272,370" class="er relationshipLine"/>
  <path style="stroke: gray; fill: none;" marker-start="url(#ONLY_ONE_START)" marker-end="url(#ZERO_OR_MORE_END)" d="M498.906,249.821L532.671,261.517C566.435,273.214,633.964,296.607,667.728,322.887C701.492,349.167,701.492,378.333,701.492,407.5C701.492,436.667,701.492,465.833,691.133,488.75C680.773,511.667,660.055,528.333,649.695,536.667L639.336,545" class="er relationshipLine"/>
  <path style="stroke: gray; fill: none;" marker-start="url(#ONLY_ONE_START)" marker-end="url(#ZERO_OR_MORE_END)" d="M448.906,270L448.906,278.333C448.906,286.667,448.906,303.333,437.001,320C425.097,336.667,401.287,353.333,389.382,361.667L377.478,370" class="er relationshipLine"/>
  <g transform="translate(20,370 )" id="entity-MathsFunctionType-e1643f39-b492-5bab-8326-d54da4e9002b">
    <rect height="75" width="135.09375" y="0" x="0" class="er entityBox"/>
    <text style="dominant-baseline: middle; text-anchor: middle; font-size: 12px;" transform="translate(67.546875,37.5)" y="0" x="0" id="text-entity-MathsFunctionType-e1643f39-b492-5bab-8326-d54da4e9002b" class="er entityLabel">MathsFunctionType</text>
  </g>
  <g transform="translate(542.71875,545 )" id="entity-Rule-886caf8e-59ff-5db3-a492-27242971196f">
    <rect height="75" width="100" y="0" x="0" class="er entityBox"/>
    <text style="dominant-baseline: middle; text-anchor: middle; font-size: 12px;" transform="translate(50,37.5)" y="0" x="0" id="text-entity-Rule-886caf8e-59ff-5db3-a492-27242971196f" class="er entityLabel">Rule</text>
  </g>
  <g transform="translate(273.90625,20 )" id="entity-Scale-9e7b58e6-caf7-5b8f-a665-d1a8547e8273">
    <rect height="75" width="100" y="0" x="0" class="er entityBox"/>
    <text style="dominant-baseline: middle; text-anchor: middle; font-size: 12px;" transform="translate(50,37.5)" y="0" x="0" id="text-entity-Scale-9e7b58e6-caf7-5b8f-a665-d1a8547e8273" class="er entityLabel">Scale</text>
  </g>
  <g transform="translate(398.90625,195 )" id="entity-ScaleType-0d000408-743d-5053-b1d6-3f5ee6730e6d">
    <rect height="75" width="100" y="0" x="0" class="er entityBox"/>
    <text style="dominant-baseline: middle; text-anchor: middle; font-size: 12px;" transform="translate(50,37.5)" y="0" x="0" id="text-entity-ScaleType-0d000408-743d-5053-b1d6-3f5ee6730e6d" class="er entityLabel">ScaleType</text>
  </g>
  <g transform="translate(542.71875,720 )" id="entity-RuleType-d54df1a6-a17d-5920-9344-6f805c739e55">
    <rect height="75" width="100" y="0" x="0" class="er entityBox"/>
    <text style="dominant-baseline: middle; text-anchor: middle; font-size: 12px;" transform="translate(50,37.5)" y="0" x="0" id="text-entity-RuleType-d54df1a6-a17d-5920-9344-6f805c739e55" class="er entityLabel">RuleType</text>
  </g>
  <g transform="translate(268.734375,370 )" id="entity-TransformType-dbdd87a4-f4d5-5cb6-abdd-17a28eb5d3af">
    <rect height="75" width="110.34375" y="0" x="0" class="er entityBox"/>
    <text style="dominant-baseline: middle; text-anchor: middle; font-size: 12px;" transform="translate(55.171875,37.5)" y="0" x="0" id="text-entity-TransformType-dbdd87a4-f4d5-5cb6-abdd-17a28eb5d3af" class="er entityLabel">TransformType</text>
  </g>
  <rect height="14" width="43.296875" y="523.857177734375" x="280.42340087890625" class="er relationshipLabelBox"/>
  <text style="text-anchor: middle; dominant-baseline: middle; font-size: 12px;" y="530.857177734375" x="302.07183837890625" id="rel1" class="er relationshipLabel">hasRule</text>
  <rect height="14" width="43.296875" y="575.5" x="720.236572265625" class="er relationshipLabelBox"/>
  <text style="text-anchor: middle; dominant-baseline: middle; font-size: 12px;" y="582.5" x="741.885009765625" id="rel2" class="er relationshipLabel">hasRule</text>
  <rect height="14" width="46.921875" y="663" x="569.258056640625" class="er relationshipLabelBox"/>
  <text style="text-anchor: middle; dominant-baseline: middle; font-size: 12px;" y="670" x="592.718994140625" id="rel3" class="er relationshipLabel">ruleType</text>
  <rect height="14" width="52.921875" y="126.78125" x="400.5793762207031" class="er relationshipLabelBox"/>
  <text style="text-anchor: middle; dominant-baseline: middle; font-size: 12px;" y="133.78125" x="427.0403137207031" id="rel4" class="er relationshipLabel">scaleType</text>
  <rect height="14" width="96.7926025390625" y="163.39308166503906" x="50.89556121826172" class="er relationshipLabelBox"/>
  <text style="text-anchor: middle; dominant-baseline: middle; font-size: 12px;" y="170.39308166503906" x="99.29186248779297" id="rel5" class="er relationshipLabel">permissibleMaths</text>
  <rect height="14" width="43.296875" y="230.69140625" x="579.8435668945312" class="er relationshipLabelBox"/>
  <text style="text-anchor: middle; dominant-baseline: middle; font-size: 12px;" y="237.69140625" x="601.4920043945312" id="rel6" class="er relationshipLabel">hasRule</text>
  <rect height="14" width="146.90625" y="225.5" x="225.452880859375" class="er relationshipLabelBox"/>
  <text style="text-anchor: middle; dominant-baseline: middle; font-size: 12px;" y="232.5" x="298.906005859375" id="rel7" class="er relationshipLabel">permissibleTransformation</text>
  <rect height="14" width="96.7926025390625" y="292.6705017089844" x="213.61083984375" class="er relationshipLabelBox"/>
  <text style="text-anchor: middle; dominant-baseline: middle; font-size: 12px;" y="299.6705017089844" x="262.00714111328125" id="rel8" class="er relationshipLabel">permissibleMaths</text>
  <rect height="14" width="43.296875" y="342.06951904296875" x="669.3172607421875" class="er relationshipLabelBox"/>
  <text style="text-anchor: middle; dominant-baseline: middle; font-size: 12px;" y="349.06951904296875" x="690.9656982421875" id="rel9" class="er relationshipLabel">hasRule</text>
  <rect height="14" width="146.90625" y="322.79193115234375" x="355.3028564453125" class="er relationshipLabelBox"/>
  <text style="text-anchor: middle; dominant-baseline: middle; font-size: 12px;" y="329.79193115234375" x="428.7559814453125" id="rel10" class="er relationshipLabel">permissibleTransformation</text>
</svg>
