<svg aria-roledescription="class" role="graphics-document document" viewBox="0 0 448.3125 368" height="368" class="classDiagram" xmlns="http://www.w3.org/2000/svg" width="448.3125" id="container"><style>#container{font-family:"trebuchet ms",verdana,arial,sans-serif;font-size:16px;fill:#333;}#container .error-icon{fill:#552222;}#container .error-text{fill:#552222;stroke:#552222;}#container .edge-thickness-normal{stroke-width:1px;}#container .edge-thickness-thick{stroke-width:3.5px;}#container .edge-pattern-solid{stroke-dasharray:0;}#container .edge-thickness-invisible{stroke-width:0;fill:none;}#container .edge-pattern-dashed{stroke-dasharray:3;}#container .edge-pattern-dotted{stroke-dasharray:2;}#container .marker{fill:#333333;stroke:#333333;}#container .marker.cross{stroke:#333333;}#container svg{font-family:"trebuchet ms",verdana,arial,sans-serif;font-size:16px;}#container p{margin:0;}#container g.classGroup text{fill:#9370DB;stroke:none;font-family:"trebuchet ms",verdana,arial,sans-serif;font-size:10px;}#container g.classGroup text .title{font-weight:bolder;}#container .nodeLabel,#container .edgeLabel{color:#131300;}#container .edgeLabel .label rect{fill:#ECECFF;}#container .label text{fill:#131300;}#container .labelBkg{background:#ECECFF;}#container .edgeLabel .label span{background:#ECECFF;}#container .classTitle{font-weight:bolder;}#container .node rect,#container .node circle,#container .node ellipse,#container .node polygon,#container .node path{fill:#ECECFF;stroke:#9370DB;stroke-width:1px;}#container .divider{stroke:#9370DB;stroke-width:1;}#container g.clickable{cursor:pointer;}#container g.classGroup rect{fill:#ECECFF;stroke:#9370DB;}#container g.classGroup line{stroke:#9370DB;stroke-width:1;}#container .classLabel .box{stroke:none;stroke-width:0;fill:#ECECFF;opacity:0.5;}#container .classLabel .label{fill:#9370DB;font-size:10px;}#container .relation{stroke:#333333;stroke-width:1;fill:none;}#container .dashed-line{stroke-dasharray:3;}#container .dotted-line{stroke-dasharray:1 2;}#container #compositionStart,#container .composition{fill:#333333!important;stroke:#333333!important;stroke-width:1;}#container #compositionEnd,#container .composition{fill:#333333!important;stroke:#333333!important;stroke-width:1;}#container #dependencyStart,#container .dependency{fill:#333333!important;stroke:#333333!important;stroke-width:1;}#container #dependencyStart,#container .dependency{fill:#333333!important;stroke:#333333!important;stroke-width:1;}#container #extensionStart,#container .extension{fill:transparent!important;stroke:#333333!important;stroke-width:1;}#container #extensionEnd,#container .extension{fill:transparent!important;stroke:#333333!important;stroke-width:1;}#container #aggregationStart,#container .aggregation{fill:transparent!important;stroke:#333333!important;stroke-width:1;}#container #aggregationEnd,#container .aggregation{fill:transparent!important;stroke:#333333!important;stroke-width:1;}#container #lollipopStart,#container .lollipop{fill:#ECECFF!important;stroke:#333333!important;stroke-width:1;}#container #lollipopEnd,#container .lollipop{fill:#ECECFF!important;stroke:#333333!important;stroke-width:1;}#container .edgeTerminals{font-size:11px;line-height:initial;}#container .classTitleText{text-anchor:middle;font-size:18px;fill:#333;}#container :root{--mermaid-font-family:"trebuchet ms",verdana,arial,sans-serif;}</style><g><defs><marker orient="auto" markerHeight="240" markerWidth="190" refY="7" refX="18" class="marker aggregation class" id="container_class-aggregationStart"><path d="M 18,7 L9,13 L1,7 L9,1 Z"></path></marker></defs><defs><marker orient="auto" markerHeight="28" markerWidth="20" refY="7" refX="1" class="marker aggregation class" id="container_class-aggregationEnd"><path d="M 18,7 L9,13 L1,7 L9,1 Z"></path></marker></defs><defs><marker orient="auto" markerHeight="240" markerWidth="190" refY="7" refX="18" class="marker extension class" id="container_class-extensionStart"><path d="M 1,7 L18,13 V 1 Z"></path></marker></defs><defs><marker orient="auto" markerHeight="28" markerWidth="20" refY="7" refX="1" class="marker extension class" id="container_class-extensionEnd"><path d="M 1,1 V 13 L18,7 Z"></path></marker></defs><defs><marker orient="auto" markerHeight="240" markerWidth="190" refY="7" refX="18" class="marker composition class" id="container_class-compositionStart"><path d="M 18,7 L9,13 L1,7 L9,1 Z"></path></marker></defs><defs><marker orient="auto" markerHeight="28" markerWidth="20" refY="7" refX="1" class="marker composition class" id="container_class-compositionEnd"><path d="M 18,7 L9,13 L1,7 L9,1 Z"></path></marker></defs><defs><marker orient="auto" markerHeight="240" markerWidth="190" refY="7" refX="6" class="marker dependency class" id="container_class-dependencyStart"><path d="M 5,7 L9,13 L1,7 L9,1 Z"></path></marker></defs><defs><marker orient="auto" markerHeight="28" markerWidth="20" refY="7" refX="13" class="marker dependency class" id="container_class-dependencyEnd"><path d="M 18,7 L9,13 L14,7 L9,1 Z"></path></marker></defs><defs><marker orient="auto" markerHeight="240" markerWidth="190" refY="7" refX="13" class="marker lollipop class" id="container_class-lollipopStart"><circle r="6" cy="7" cx="7" fill="transparent" stroke="black"></circle></marker></defs><defs><marker orient="auto" markerHeight="240" markerWidth="190" refY="7" refX="1" class="marker lollipop class" id="container_class-lollipopEnd"><circle r="6" cy="7" cx="7" fill="transparent" stroke="black"></circle></marker></defs><g class="root"><g class="clusters"></g><g class="edgePaths"><path marker-start="url(#container_class-extensionStart)" style=";" class="edge-thickness-normal edge-pattern-solid relation" id="id_Aspect_DataEncoding_1" d="M185.834,205.159L166.539,212.8C147.244,220.44,108.653,235.72,89.358,247.527C70.063,259.333,70.063,267.667,70.063,271.833L70.063,276"></path><path marker-start="url(#container_class-extensionStart)" style=";" class="edge-thickness-normal edge-pattern-solid relation" id="id_Aspect_Quantifiable_2" d="M239.273,244L239.273,245.167C239.273,246.333,239.273,248.667,239.273,254C239.273,259.333,239.273,267.667,239.273,271.833L239.273,276"></path><path marker-start="url(#container_class-extensionStart)" style=";" class="edge-thickness-normal edge-pattern-solid relation" id="id_Aspect_Verifiable_3" d="M292.484,207.136L309.298,214.447C326.112,221.757,359.739,236.379,376.553,247.856C393.367,259.333,393.367,267.667,393.367,271.833L393.367,276"></path><path marker-start="url(#container_class-extensionStart)" style=";" class="edge-thickness-normal edge-pattern-solid relation" id="id_Thing_Aspect_4" d="M239.273,110L239.273,111.167C239.273,112.333,239.273,114.667,239.273,120C239.273,125.333,239.273,133.667,239.273,137.833L239.273,142"></path></g><g class="edgeLabels"><g class="edgeLabel"><g transform="translate(0, -12)" class="label"><foreignObject height="24" width="0"><div class="labelBkg" xmlns="http://www.w3.org/1999/xhtml" style="display: table-cell; white-space: nowrap; line-height: 1.5; max-width: 200px; text-align: center;"><span class="edgeLabel" style=";display: inline-block"></span></div></foreignObject></g></g><g class="edgeLabel"><g transform="translate(0, -12)" class="label"><foreignObject height="24" width="0"><div class="labelBkg" xmlns="http://www.w3.org/1999/xhtml" style="display: table-cell; white-space: nowrap; line-height: 1.5; max-width: 200px; text-align: center;"><span class="edgeLabel" style=";display: inline-block"></span></div></foreignObject></g></g><g class="edgeLabel"><g transform="translate(0, -12)" class="label"><foreignObject height="24" width="0"><div class="labelBkg" xmlns="http://www.w3.org/1999/xhtml" style="display: table-cell; white-space: nowrap; line-height: 1.5; max-width: 200px; text-align: center;"><span class="edgeLabel" style=";display: inline-block"></span></div></foreignObject></g></g><g class="edgeLabel"><g transform="translate(0, -12)" class="label"><foreignObject height="24" width="0"><div class="labelBkg" xmlns="http://www.w3.org/1999/xhtml" style="display: table-cell; white-space: nowrap; line-height: 1.5; max-width: 200px; text-align: center;"><span class="edgeLabel" style=";display: inline-block"></span></div></foreignObject></g></g></g><g class="nodes"><g transform="translate(239.2734375, 184)" id="classId-Aspect-0" class="node default"><g class="basic label-container"><path style="" fill="#ECECFF" stroke-width="0" stroke="none" d="M-36.703125 -42 L36.703125 -42 L36.703125 42 L-36.703125 42"></path><path style="" fill="none" stroke-width="1.3" stroke="#9370DB" d="M-36.703125 -42 C-12.04622081633995 -42, 12.6106833673201 -42, 36.703125 -42 M-36.703125 -42 C-8.285981987558554 -42, 20.131161024882893 -42, 36.703125 -42 M36.703125 -42 C36.703125 -15.691782712277536, 36.703125 10.616434575444927, 36.703125 42 M36.703125 -42 C36.703125 -18.387437680453136, 36.703125 5.225124639093728, 36.703125 42 M36.703125 42 C19.173340096473407 42, 1.6435551929468133 42, -36.703125 42 M36.703125 42 C13.233465582444907 42, -10.236193835110186 42, -36.703125 42 M-36.703125 42 C-36.703125 15.987982400999389, -36.703125 -10.024035198001222, -36.703125 -42 M-36.703125 42 C-36.703125 15.558963708324661, -36.703125 -10.882072583350677, -36.703125 -42"></path></g><g transform="translate(0, -18)" class="annotation-group text"></g><g transform="translate(-24.703125, -18)" class="label-group text"><g transform="translate(0,-12)" style="font-weight: bolder" class="label"><foreignObject height="24" width="49.40625"><div style="display: table-cell; white-space: nowrap; line-height: 1.5; max-width: 99px; text-align: center;" xmlns="http://www.w3.org/1999/xhtml"><span style="" class="nodeLabel markdown-node-label"><p>Aspect</p></span></div></foreignObject></g></g><g transform="translate(-24.703125, 30)" class="members-group text"></g><g transform="translate(-24.703125, 60)" class="methods-group text"></g><g style="" class="divider"><path style="" fill="none" stroke-width="1.3" stroke="#9370DB" d="M-36.703125 6 C-18.331853373350565 6, 0.03941825329886939 6, 36.703125 6 M-36.703125 6 C-12.353002193880272 6, 11.997120612239456 6, 36.703125 6"></path></g><g style="" class="divider"><path style="" fill="none" stroke-width="1.3" stroke="#9370DB" d="M-36.703125 24 C-9.918906745617143 24, 16.865311508765714 24, 36.703125 24 M-36.703125 24 C-20.730964227117582 24, -4.758803454235167 24, 36.703125 24"></path></g></g><g transform="translate(70.0625, 318)" id="classId-DataEncoding-1" class="node default"><g class="basic label-container"><path style="" fill="#ECECFF" stroke-width="0" stroke="none" d="M-62.0625 -42 L62.0625 -42 L62.0625 42 L-62.0625 42"></path><path style="" fill="none" stroke-width="1.3" stroke="#9370DB" d="M-62.0625 -42 C-34.67913039099993 -42, -7.295760781999853 -42, 62.0625 -42 M-62.0625 -42 C-21.54651045278154 -42, 18.96947909443692 -42, 62.0625 -42 M62.0625 -42 C62.0625 -19.53298741976134, 62.0625 2.9340251604773187, 62.0625 42 M62.0625 -42 C62.0625 -23.646476433168264, 62.0625 -5.2929528663365275, 62.0625 42 M62.0625 42 C21.94621381767862 42, -18.170072364642763 42, -62.0625 42 M62.0625 42 C19.38943352021556 42, -23.283632959568877 42, -62.0625 42 M-62.0625 42 C-62.0625 16.6263216979305, -62.0625 -8.747356604139, -62.0625 -42 M-62.0625 42 C-62.0625 17.133525431693652, -62.0625 -7.732949136612696, -62.0625 -42"></path></g><g transform="translate(0, -18)" class="annotation-group text"></g><g transform="translate(-50.0625, -18)" class="label-group text"><g transform="translate(0,-12)" style="font-weight: bolder" class="label"><foreignObject height="24" width="100.125"><div style="display: table-cell; white-space: nowrap; line-height: 1.5; max-width: 152px; text-align: center;" xmlns="http://www.w3.org/1999/xhtml"><span style="" class="nodeLabel markdown-node-label"><p>DataEncoding</p></span></div></foreignObject></g></g><g transform="translate(-50.0625, 30)" class="members-group text"></g><g transform="translate(-50.0625, 60)" class="methods-group text"></g><g style="" class="divider"><path style="" fill="none" stroke-width="1.3" stroke="#9370DB" d="M-62.0625 6 C-25.67078217872193 6, 10.720935642556142 6, 62.0625 6 M-62.0625 6 C-26.04093148519967 6, 9.980637029600658 6, 62.0625 6"></path></g><g style="" class="divider"><path style="" fill="none" stroke-width="1.3" stroke="#9370DB" d="M-62.0625 24 C-24.421076524149164 24, 13.220346951701671 24, 62.0625 24 M-62.0625 24 C-36.19026227416204 24, -10.318024548324082 24, 62.0625 24"></path></g></g><g transform="translate(239.2734375, 318)" id="classId-Quantifiable-2" class="node default"><g class="basic label-container"><path style="" fill="#ECECFF" stroke-width="0" stroke="none" d="M-57.1484375 -42 L57.1484375 -42 L57.1484375 42 L-57.1484375 42"></path><path style="" fill="none" stroke-width="1.3" stroke="#9370DB" d="M-57.1484375 -42 C-22.930823429343185 -42, 11.28679064131363 -42, 57.1484375 -42 M-57.1484375 -42 C-19.73244611821572 -42, 17.68354526356856 -42, 57.1484375 -42 M57.1484375 -42 C57.1484375 -18.61645766399218, 57.1484375 4.767084672015642, 57.1484375 42 M57.1484375 -42 C57.1484375 -10.26110666820896, 57.1484375 21.47778666358208, 57.1484375 42 M57.1484375 42 C12.621162250727764 42, -31.906112998544472 42, -57.1484375 42 M57.1484375 42 C18.808388301011178 42, -19.531660897977645 42, -57.1484375 42 M-57.1484375 42 C-57.1484375 13.609148120071314, -57.1484375 -14.781703759857372, -57.1484375 -42 M-57.1484375 42 C-57.1484375 16.543237719439354, -57.1484375 -8.913524561121292, -57.1484375 -42"></path></g><g transform="translate(0, -18)" class="annotation-group text"></g><g transform="translate(-45.1484375, -18)" class="label-group text"><g transform="translate(0,-12)" style="font-weight: bolder" class="label"><foreignObject height="24" width="90.296875"><div style="display: table-cell; white-space: nowrap; line-height: 1.5; max-width: 141px; text-align: center;" xmlns="http://www.w3.org/1999/xhtml"><span style="" class="nodeLabel markdown-node-label"><p>Quantifiable</p></span></div></foreignObject></g></g><g transform="translate(-45.1484375, 30)" class="members-group text"></g><g transform="translate(-45.1484375, 60)" class="methods-group text"></g><g style="" class="divider"><path style="" fill="none" stroke-width="1.3" stroke="#9370DB" d="M-57.1484375 6 C-22.62733175305857 6, 11.89377399388286 6, 57.1484375 6 M-57.1484375 6 C-28.613836398736364 6, -0.07923529747272795 6, 57.1484375 6"></path></g><g style="" class="divider"><path style="" fill="none" stroke-width="1.3" stroke="#9370DB" d="M-57.1484375 24 C-15.130088193300487 24, 26.888261113399025 24, 57.1484375 24 M-57.1484375 24 C-21.14923998971338 24, 14.849957520573241 24, 57.1484375 24"></path></g></g><g transform="translate(393.3671875, 318)" id="classId-Verifiable-3" class="node default"><g class="basic label-container"><path style="" fill="#ECECFF" stroke-width="0" stroke="none" d="M-46.9453125 -42 L46.9453125 -42 L46.9453125 42 L-46.9453125 42"></path><path style="" fill="none" stroke-width="1.3" stroke="#9370DB" d="M-46.9453125 -42 C-19.072847531179026 -42, 8.799617437641949 -42, 46.9453125 -42 M-46.9453125 -42 C-16.970736589084737 -42, 13.003839321830526 -42, 46.9453125 -42 M46.9453125 -42 C46.9453125 -18.59843433581704, 46.9453125 4.803131328365922, 46.9453125 42 M46.9453125 -42 C46.9453125 -14.269991784657023, 46.9453125 13.460016430685954, 46.9453125 42 M46.9453125 42 C18.692278680175946 42, -9.560755139648109 42, -46.9453125 42 M46.9453125 42 C15.652867147554687 42, -15.639578204890626 42, -46.9453125 42 M-46.9453125 42 C-46.9453125 17.358855952771947, -46.9453125 -7.282288094456106, -46.9453125 -42 M-46.9453125 42 C-46.9453125 12.937107064264083, -46.9453125 -16.125785871471834, -46.9453125 -42"></path></g><g transform="translate(0, -18)" class="annotation-group text"></g><g transform="translate(-34.9453125, -18)" class="label-group text"><g transform="translate(0,-12)" style="font-weight: bolder" class="label"><foreignObject height="24" width="69.890625"><div style="display: table-cell; white-space: nowrap; line-height: 1.5; max-width: 121px; text-align: center;" xmlns="http://www.w3.org/1999/xhtml"><span style="" class="nodeLabel markdown-node-label"><p>Verifiable</p></span></div></foreignObject></g></g><g transform="translate(-34.9453125, 30)" class="members-group text"></g><g transform="translate(-34.9453125, 60)" class="methods-group text"></g><g style="" class="divider"><path style="" fill="none" stroke-width="1.3" stroke="#9370DB" d="M-46.9453125 6 C-15.696916641833905 6, 15.55147921633219 6, 46.9453125 6 M-46.9453125 6 C-16.628825873970182 6, 13.687660752059635 6, 46.9453125 6"></path></g><g style="" class="divider"><path style="" fill="none" stroke-width="1.3" stroke="#9370DB" d="M-46.9453125 24 C-23.705789038810373 24, -0.46626557762074583 24, 46.9453125 24 M-46.9453125 24 C-11.308655067051617 24, 24.328002365896765 24, 46.9453125 24"></path></g></g><g transform="translate(239.2734375, 50)" id="classId-Thing-4" class="node default"><g class="basic label-container"><path style="" fill="#ECECFF" stroke-width="0" stroke="none" d="M-32.21875 -42 L32.21875 -42 L32.21875 42 L-32.21875 42"></path><path style="" fill="none" stroke-width="1.3" stroke="#9370DB" d="M-32.21875 -42 C-12.644765357500486 -42, 6.929219284999029 -42, 32.21875 -42 M-32.21875 -42 C-14.025599378726046 -42, 4.167551242547908 -42, 32.21875 -42 M32.21875 -42 C32.21875 -13.920629758387513, 32.21875 14.158740483224975, 32.21875 42 M32.21875 -42 C32.21875 -19.37489192733652, 32.21875 3.2502161453269593, 32.21875 42 M32.21875 42 C14.553176632435193 42, -3.1123967351296145 42, -32.21875 42 M32.21875 42 C8.247541735660132 42, -15.723666528679736 42, -32.21875 42 M-32.21875 42 C-32.21875 12.759047643533918, -32.21875 -16.481904712932163, -32.21875 -42 M-32.21875 42 C-32.21875 20.897136034433412, -32.21875 -0.20572793113317545, -32.21875 -42"></path></g><g transform="translate(0, -18)" class="annotation-group text"></g><g transform="translate(-20.21875, -18)" class="label-group text"><g transform="translate(0,-12)" style="font-weight: bolder" class="label"><foreignObject height="24" width="40.4375"><div style="display: table-cell; white-space: nowrap; line-height: 1.5; max-width: 90px; text-align: center;" xmlns="http://www.w3.org/1999/xhtml"><span style="" class="nodeLabel markdown-node-label"><p>Thing</p></span></div></foreignObject></g></g><g transform="translate(-20.21875, 30)" class="members-group text"></g><g transform="translate(-20.21875, 60)" class="methods-group text"></g><g style="" class="divider"><path style="" fill="none" stroke-width="1.3" stroke="#9370DB" d="M-32.21875 6 C-7.698772907016377 6, 16.821204185967247 6, 32.21875 6 M-32.21875 6 C-7.954424312865381 6, 16.309901374269238 6, 32.21875 6"></path></g><g style="" class="divider"><path style="" fill="none" stroke-width="1.3" stroke="#9370DB" d="M-32.21875 24 C-12.671812865392933 24, 6.875124269214133 24, 32.21875 24 M-32.21875 24 C-6.809149833581532 24, 18.600450332836935 24, 32.21875 24"></path></g></g></g></g></g></svg>
