<svg aria-roledescription="class" role="graphics-document document" viewBox="0 0 427.96875 234" height="234" class="classDiagram" xmlns="http://www.w3.org/2000/svg" width="427.96875" id="container"><style>#container{font-family:"trebuchet ms",verdana,arial,sans-serif;font-size:16px;fill:#333;}#container .error-icon{fill:#552222;}#container .error-text{fill:#552222;stroke:#552222;}#container .edge-thickness-normal{stroke-width:1px;}#container .edge-thickness-thick{stroke-width:3.5px;}#container .edge-pattern-solid{stroke-dasharray:0;}#container .edge-thickness-invisible{stroke-width:0;fill:none;}#container .edge-pattern-dashed{stroke-dasharray:3;}#container .edge-pattern-dotted{stroke-dasharray:2;}#container .marker{fill:#333333;stroke:#333333;}#container .marker.cross{stroke:#333333;}#container svg{font-family:"trebuchet ms",verdana,arial,sans-serif;font-size:16px;}#container p{margin:0;}#container g.classGroup text{fill:#9370DB;stroke:none;font-family:"trebuchet ms",verdana,arial,sans-serif;font-size:10px;}#container g.classGroup text .title{font-weight:bolder;}#container .nodeLabel,#container .edgeLabel{color:#131300;}#container .edgeLabel .label rect{fill:#ECECFF;}#container .label text{fill:#131300;}#container .labelBkg{background:#ECECFF;}#container .edgeLabel .label span{background:#ECECFF;}#container .classTitle{font-weight:bolder;}#container .node rect,#container .node circle,#container .node ellipse,#container .node polygon,#container .node path{fill:#ECECFF;stroke:#9370DB;stroke-width:1px;}#container .divider{stroke:#9370DB;stroke-width:1;}#container g.clickable{cursor:pointer;}#container g.classGroup rect{fill:#ECECFF;stroke:#9370DB;}#container g.classGroup line{stroke:#9370DB;stroke-width:1;}#container .classLabel .box{stroke:none;stroke-width:0;fill:#ECECFF;opacity:0.5;}#container .classLabel .label{fill:#9370DB;font-size:10px;}#container .relation{stroke:#333333;stroke-width:1;fill:none;}#container .dashed-line{stroke-dasharray:3;}#container .dotted-line{stroke-dasharray:1 2;}#container #compositionStart,#container .composition{fill:#333333!important;stroke:#333333!important;stroke-width:1;}#container #compositionEnd,#container .composition{fill:#333333!important;stroke:#333333!important;stroke-width:1;}#container #dependencyStart,#container .dependency{fill:#333333!important;stroke:#333333!important;stroke-width:1;}#container #dependencyStart,#container .dependency{fill:#333333!important;stroke:#333333!important;stroke-width:1;}#container #extensionStart,#container .extension{fill:transparent!important;stroke:#333333!important;stroke-width:1;}#container #extensionEnd,#container .extension{fill:transparent!important;stroke:#333333!important;stroke-width:1;}#container #aggregationStart,#container .aggregation{fill:transparent!important;stroke:#333333!important;stroke-width:1;}#container #aggregationEnd,#container .aggregation{fill:transparent!important;stroke:#333333!important;stroke-width:1;}#container #lollipopStart,#container .lollipop{fill:#ECECFF!important;stroke:#333333!important;stroke-width:1;}#container #lollipopEnd,#container .lollipop{fill:#ECECFF!important;stroke:#333333!important;stroke-width:1;}#container .edgeTerminals{font-size:11px;line-height:initial;}#container .classTitleText{text-anchor:middle;font-size:18px;fill:#333;}#container :root{--mermaid-font-family:"trebuchet ms",verdana,arial,sans-serif;}</style><g><defs><marker orient="auto" markerHeight="240" markerWidth="190" refY="7" refX="18" class="marker aggregation class" id="container_class-aggregationStart"><path d="M 18,7 L9,13 L1,7 L9,1 Z"></path></marker></defs><defs><marker orient="auto" markerHeight="28" markerWidth="20" refY="7" refX="1" class="marker aggregation class" id="container_class-aggregationEnd"><path d="M 18,7 L9,13 L1,7 L9,1 Z"></path></marker></defs><defs><marker orient="auto" markerHeight="240" markerWidth="190" refY="7" refX="18" class="marker extension class" id="container_class-extensionStart"><path d="M 1,7 L18,13 V 1 Z"></path></marker></defs><defs><marker orient="auto" markerHeight="28" markerWidth="20" refY="7" refX="1" class="marker extension class" id="container_class-extensionEnd"><path d="M 1,1 V 13 L18,7 Z"></path></marker></defs><defs><marker orient="auto" markerHeight="240" markerWidth="190" refY="7" refX="18" class="marker composition class" id="container_class-compositionStart"><path d="M 18,7 L9,13 L1,7 L9,1 Z"></path></marker></defs><defs><marker orient="auto" markerHeight="28" markerWidth="20" refY="7" refX="1" class="marker composition class" id="container_class-compositionEnd"><path d="M 18,7 L9,13 L1,7 L9,1 Z"></path></marker></defs><defs><marker orient="auto" markerHeight="240" markerWidth="190" refY="7" refX="6" class="marker dependency class" id="container_class-dependencyStart"><path d="M 5,7 L9,13 L1,7 L9,1 Z"></path></marker></defs><defs><marker orient="auto" markerHeight="28" markerWidth="20" refY="7" refX="13" class="marker dependency class" id="container_class-dependencyEnd"><path d="M 18,7 L9,13 L14,7 L9,1 Z"></path></marker></defs><defs><marker orient="auto" markerHeight="240" markerWidth="190" refY="7" refX="13" class="marker lollipop class" id="container_class-lollipopStart"><circle r="6" cy="7" cx="7" fill="transparent" stroke="black"></circle></marker></defs><defs><marker orient="auto" markerHeight="240" markerWidth="190" refY="7" refX="1" class="marker lollipop class" id="container_class-lollipopEnd"><circle r="6" cy="7" cx="7" fill="transparent" stroke="black"></circle></marker></defs><g class="root"><g class="clusters"></g><g class="edgePaths"><path marker-start="url(#container_class-extensionStart)" style=";" class="edge-thickness-normal edge-pattern-solid relation" id="id_Resource_UCUMcs_1" d="M140.043,77.102L124.856,83.751C109.669,90.401,79.295,103.701,64.109,114.517C48.922,125.333,48.922,133.667,48.922,137.833L48.922,142"></path><path marker-start="url(#container_class-extensionStart)" style=";" class="edge-thickness-normal edge-pattern-solid relation" id="id_Resource_UCUMcs_term_2" d="M201.938,110L201.938,111.167C201.938,112.333,201.938,114.667,201.938,120C201.938,125.333,201.938,133.667,201.938,137.833L201.938,142"></path><path marker-start="url(#container_class-extensionStart)" style=";" class="edge-thickness-normal edge-pattern-solid relation" id="id_Resource_valueUnion_3" d="M264.022,75.201L281.185,82.167C298.348,89.134,332.674,103.067,349.837,114.2C367,125.333,367,133.667,367,137.833L367,142"></path></g><g class="edgeLabels"><g class="edgeLabel"><g transform="translate(0, -12)" class="label"><foreignObject height="24" width="0"><div class="labelBkg" xmlns="http://www.w3.org/1999/xhtml" style="display: table-cell; white-space: nowrap; line-height: 1.5; max-width: 200px; text-align: center;"><span class="edgeLabel" style=";display: inline-block"></span></div></foreignObject></g></g><g class="edgeLabel"><g transform="translate(0, -12)" class="label"><foreignObject height="24" width="0"><div class="labelBkg" xmlns="http://www.w3.org/1999/xhtml" style="display: table-cell; white-space: nowrap; line-height: 1.5; max-width: 200px; text-align: center;"><span class="edgeLabel" style=";display: inline-block"></span></div></foreignObject></g></g><g class="edgeLabel"><g transform="translate(0, -12)" class="label"><foreignObject height="24" width="0"><div class="labelBkg" xmlns="http://www.w3.org/1999/xhtml" style="display: table-cell; white-space: nowrap; line-height: 1.5; max-width: 200px; text-align: center;"><span class="edgeLabel" style=";display: inline-block"></span></div></foreignObject></g></g></g><g class="nodes"><g transform="translate(201.9375, 50)" id="classId-Resource-0" class="node default"><g class="basic label-container"><path style="" fill="#ECECFF" stroke-width="0" stroke="none" d="M-45.40625 -42 L45.40625 -42 L45.40625 42 L-45.40625 42"></path><path style="" fill="none" stroke-width="1.3" stroke="#9370DB" d="M-45.40625 -42 C-11.173569977379238 -42, 23.059110045241525 -42, 45.40625 -42 M-45.40625 -42 C-21.967145265262513 -42, 1.4719594694749745 -42, 45.40625 -42 M45.40625 -42 C45.40625 -22.398937961678246, 45.40625 -2.797875923356493, 45.40625 42 M45.40625 -42 C45.40625 -24.593636650536777, 45.40625 -7.187273301073553, 45.40625 42 M45.40625 42 C13.663958190806863 42, -18.078333618386274 42, -45.40625 42 M45.40625 42 C22.10090084870612 42, -1.2044483025877568 42, -45.40625 42 M-45.40625 42 C-45.40625 13.88035863494964, -45.40625 -14.239282730100719, -45.40625 -42 M-45.40625 42 C-45.40625 14.420474391687847, -45.40625 -13.159051216624306, -45.40625 -42"></path></g><g transform="translate(0, -18)" class="annotation-group text"></g><g transform="translate(-33.40625, -18)" class="label-group text"><g transform="translate(0,-12)" style="font-weight: bolder" class="label"><foreignObject height="24" width="66.8125"><div style="display: table-cell; white-space: nowrap; line-height: 1.5; max-width: 117px; text-align: center;" xmlns="http://www.w3.org/1999/xhtml"><span style="" class="nodeLabel markdown-node-label"><p>Resource</p></span></div></foreignObject></g></g><g transform="translate(-33.40625, 30)" class="members-group text"></g><g transform="translate(-33.40625, 60)" class="methods-group text"></g><g style="" class="divider"><path style="" fill="none" stroke-width="1.3" stroke="#9370DB" d="M-45.40625 6 C-9.33012135691147 6, 26.74600728617706 6, 45.40625 6 M-45.40625 6 C-18.235109571038617 6, 8.936030857922766 6, 45.40625 6"></path></g><g style="" class="divider"><path style="" fill="none" stroke-width="1.3" stroke="#9370DB" d="M-45.40625 24 C-13.521363038430472 24, 18.363523923139056 24, 45.40625 24 M-45.40625 24 C-21.657512831138927 24, 2.0912243377221458 24, 45.40625 24"></path></g></g><g transform="translate(48.921875, 184)" id="classId-UCUMcs-1" class="node default"><g class="basic label-container"><path style="" fill="#ECECFF" stroke-width="0" stroke="none" d="M-40.921875 -42 L40.921875 -42 L40.921875 42 L-40.921875 42"></path><path style="" fill="none" stroke-width="1.3" stroke="#9370DB" d="M-40.921875 -42 C-15.68181503309129 -42, 9.55824493381742 -42, 40.921875 -42 M-40.921875 -42 C-16.55598541107159 -42, 7.809904177856822 -42, 40.921875 -42 M40.921875 -42 C40.921875 -11.301778108139473, 40.921875 19.396443783721054, 40.921875 42 M40.921875 -42 C40.921875 -18.782194869663456, 40.921875 4.435610260673087, 40.921875 42 M40.921875 42 C11.135827237172283 42, -18.650220525655435 42, -40.921875 42 M40.921875 42 C21.017570697727866 42, 1.1132663954557316 42, -40.921875 42 M-40.921875 42 C-40.921875 19.09605270928919, -40.921875 -3.807894581421621, -40.921875 -42 M-40.921875 42 C-40.921875 24.154467710341308, -40.921875 6.308935420682616, -40.921875 -42"></path></g><g transform="translate(0, -18)" class="annotation-group text"></g><g transform="translate(-28.921875, -18)" class="label-group text"><g transform="translate(0,-12)" style="font-weight: bolder" class="label"><foreignObject height="24" width="57.84375"><div style="display: table-cell; white-space: nowrap; line-height: 1.5; max-width: 108px; text-align: center;" xmlns="http://www.w3.org/1999/xhtml"><span style="" class="nodeLabel markdown-node-label"><p>UCUMcs</p></span></div></foreignObject></g></g><g transform="translate(-28.921875, 30)" class="members-group text"></g><g transform="translate(-28.921875, 60)" class="methods-group text"></g><g style="" class="divider"><path style="" fill="none" stroke-width="1.3" stroke="#9370DB" d="M-40.921875 6 C-19.34891505713516 6, 2.2240448857296826 6, 40.921875 6 M-40.921875 6 C-10.066710141384188 6, 20.788454717231623 6, 40.921875 6"></path></g><g style="" class="divider"><path style="" fill="none" stroke-width="1.3" stroke="#9370DB" d="M-40.921875 24 C-14.346169144300042 24, 12.229536711399916 24, 40.921875 24 M-40.921875 24 C-10.210751298233998 24, 20.500372403532005 24, 40.921875 24"></path></g></g><g transform="translate(201.9375, 184)" id="classId-UCUMcs_term-2" class="node default"><g class="basic label-container"><path style="" fill="#ECECFF" stroke-width="0" stroke="none" d="M-62.09375 -42 L62.09375 -42 L62.09375 42 L-62.09375 42"></path><path style="" fill="none" stroke-width="1.3" stroke="#9370DB" d="M-62.09375 -42 C-31.32053131832244 -42, -0.5473126366448824 -42, 62.09375 -42 M-62.09375 -42 C-17.796367018724418 -42, 26.501015962551165 -42, 62.09375 -42 M62.09375 -42 C62.09375 -19.330816408481997, 62.09375 3.3383671830360058, 62.09375 42 M62.09375 -42 C62.09375 -12.339350102628906, 62.09375 17.32129979474219, 62.09375 42 M62.09375 42 C31.993433038807847 42, 1.8931160776156943 42, -62.09375 42 M62.09375 42 C28.75931614903825 42, -4.575117701923503 42, -62.09375 42 M-62.09375 42 C-62.09375 22.487754548452386, -62.09375 2.975509096904773, -62.09375 -42 M-62.09375 42 C-62.09375 16.447976617290085, -62.09375 -9.104046765419831, -62.09375 -42"></path></g><g transform="translate(0, -18)" class="annotation-group text"></g><g transform="translate(-50.09375, -18)" class="label-group text"><g transform="translate(0,-12)" style="font-weight: bolder" class="label"><foreignObject height="24" width="100.1875"><div style="display: table-cell; white-space: nowrap; line-height: 1.5; max-width: 151px; text-align: center;" xmlns="http://www.w3.org/1999/xhtml"><span style="" class="nodeLabel markdown-node-label"><p>UCUMcs_term</p></span></div></foreignObject></g></g><g transform="translate(-50.09375, 30)" class="members-group text"></g><g transform="translate(-50.09375, 60)" class="methods-group text"></g><g style="" class="divider"><path style="" fill="none" stroke-width="1.3" stroke="#9370DB" d="M-62.09375 6 C-29.506804974845252 6, 3.0801400503094953 6, 62.09375 6 M-62.09375 6 C-14.246719934112242 6, 33.600310131775515 6, 62.09375 6"></path></g><g style="" class="divider"><path style="" fill="none" stroke-width="1.3" stroke="#9370DB" d="M-62.09375 24 C-20.618764211997345 24, 20.85622157600531 24, 62.09375 24 M-62.09375 24 C-16.080637149560417 24, 29.932475700879166 24, 62.09375 24"></path></g></g><g transform="translate(367, 184)" id="classId-valueUnion-3" class="node default"><g class="basic label-container"><path style="" fill="#ECECFF" stroke-width="0" stroke="none" d="M-52.96875 -42 L52.96875 -42 L52.96875 42 L-52.96875 42"></path><path style="" fill="none" stroke-width="1.3" stroke="#9370DB" d="M-52.96875 -42 C-13.09601924198438 -42, 26.77671151603124 -42, 52.96875 -42 M-52.96875 -42 C-19.854979052075187 -42, 13.258791895849626 -42, 52.96875 -42 M52.96875 -42 C52.96875 -12.620129856212994, 52.96875 16.75974028757401, 52.96875 42 M52.96875 -42 C52.96875 -14.234312965268536, 52.96875 13.531374069462927, 52.96875 42 M52.96875 42 C13.236376127362377 42, -26.495997745275247 42, -52.96875 42 M52.96875 42 C10.924737500999917 42, -31.119274998000165 42, -52.96875 42 M-52.96875 42 C-52.96875 11.148569228386734, -52.96875 -19.702861543226533, -52.96875 -42 M-52.96875 42 C-52.96875 24.723805252639938, -52.96875 7.447610505279876, -52.96875 -42"></path></g><g transform="translate(0, -18)" class="annotation-group text"></g><g transform="translate(-40.96875, -18)" class="label-group text"><g transform="translate(0,-12)" style="font-weight: bolder" class="label"><foreignObject height="24" width="81.9375"><div style="display: table-cell; white-space: nowrap; line-height: 1.5; max-width: 133px; text-align: center;" xmlns="http://www.w3.org/1999/xhtml"><span style="" class="nodeLabel markdown-node-label"><p>valueUnion</p></span></div></foreignObject></g></g><g transform="translate(-40.96875, 30)" class="members-group text"></g><g transform="translate(-40.96875, 60)" class="methods-group text"></g><g style="" class="divider"><path style="" fill="none" stroke-width="1.3" stroke="#9370DB" d="M-52.96875 6 C-12.836715778134021 6, 27.295318443731958 6, 52.96875 6 M-52.96875 6 C-27.383108606614854 6, -1.7974672132297087 6, 52.96875 6"></path></g><g style="" class="divider"><path style="" fill="none" stroke-width="1.3" stroke="#9370DB" d="M-52.96875 24 C-26.387123704025953 24, 0.19450259194809405 24, 52.96875 24 M-52.96875 24 C-18.3617141510311 24, 16.245321697937797 24, 52.96875 24"></path></g></g></g></g></g></svg>
